<svg xmlns="http://www.w3.org/2000/svg" width="45" height="38" viewBox="0 0 45 38">
    <path fill="#FFF" fill-rule="nonzero" d="M37.53 2.16c.497 0 .93.183 1.296.55.366.366.549.813.549 1.34v30.015c0 .498-.183.93-.55 1.296-.366.366-.798.55-1.296.55h-8.613V22.858h4.395l.659-5.098h-5.054v-3.252c0-.732.154-1.326.461-1.78.308-.454.99-.681 2.044-.681h2.725v-4.57c-.235-.03-.718-.074-1.45-.132a31.744 31.744 0 0 0-2.506-.088c-1.933 0-3.508.579-4.724 1.736-1.216 1.157-1.823 2.834-1.823 5.032v3.735h-4.395v5.098h4.395V35.91H7.47c-.498 0-.93-.183-1.297-.549a1.773 1.773 0 0 1-.549-1.296V4.05c0-.527.183-.974.55-1.34.366-.367.798-.55 1.296-.55h30.058z"/>
</svg>
