<svg xmlns="http://www.w3.org/2000/svg" width="19" height="19" viewBox="0 0 19 19">
    <path fill="#3F454B" fill-rule="evenodd" d="M16.18 2a.79.79 0 0 1 .576.244.81.81 0 0 1 .244.596v13.34a.785.785 0 0 1-.244.576.785.785 0 0 1-.576.244h-3.828v-5.801h1.953l.293-2.265h-2.246V7.488c0-.325.068-.59.205-.791.137-.201.44-.302.908-.302h1.21V4.363a20 20 0 0 0-.643-.059 14.522 14.522 0 0 0-1.114-.039c-.86 0-1.56.258-2.1.772-.54.515-.81 1.26-.81 2.237v1.66H8.055v2.265h1.953V17H2.821a.787.787 0 0 1-.577-.244A.785.785 0 0 1 2 16.18V2.84a.81.81 0 0 1 .244-.596A.792.792 0 0 1 2.821 2H16.18z"/>
</svg>
