<svg xmlns="http://www.w3.org/2000/svg" width="19" height="19" viewBox="0 0 19 19">
    <g fill="none" fill-rule="evenodd">
        <path fill="#3F454B" d="M14.137 4.849a.86.86 0 0 0-.632-.264.86.86 0 0 0-.632.264.866.866 0 0 0-.264.633c0 .246.088.457.264.633a.864.864 0 0 0 .632.264.864.864 0 0 0 .632-.264.862.862 0 0 0 .263-.633.862.862 0 0 0-.263-.633zm-2.862 6.428a2.416 2.416 0 0 0 .737-1.786c0-.69-.246-1.283-.737-1.776A2.421 2.421 0 0 0 9.5 6.977c-.69 0-1.282.246-1.774.738a2.424 2.424 0 0 0-.738 1.776c0 .704.246 1.3.738 1.786s1.083.73 1.774.73c.69 0 1.282-.244 1.775-.73zm-.273-5.303c.462.2.866.47 1.212.81a3.792 3.792 0 0 1 1.115 2.708c0 .54-.1 1.04-.298 1.503A3.84 3.84 0 0 1 11 13.026a3.762 3.762 0 0 1-1.5.299A3.756 3.756 0 0 1 6.785 12.2a3.948 3.948 0 0 1-.817-1.223 3.724 3.724 0 0 1-.298-1.486 3.83 3.83 0 0 1 1.115-2.7 3.868 3.868 0 0 1 1.212-.817A3.773 3.773 0 0 1 9.5 5.675c.538 0 1.039.1 1.502.299zM9.5 3.336c-.995 0-1.651.01-1.968.027-.316.018-.673.026-1.07.026-.766.027-1.715.242-2.249.827-.106.129-.205.26-.299.396a1.79 1.79 0 0 0-.228.465c-.07.13-.132.303-.185.52-.053.217-.09.507-.113.87-.012.386-.021.742-.027 1.064-.006.322-.01.975-.01 1.96 0 .997.004 1.657.01 1.979.006.322.015.677.027 1.063.023.364.066.654.131.871.065.217.12.39.167.519.058.187.129.346.211.474.082.13.187.26.316.387.128.118.263.22.404.308.14.088.292.162.457.22.129.07.304.132.526.185.223.053.51.079.862.079.397.023.754.035 1.07.035h3.936c.316 0 .673-.012 1.071-.035.352-.023.637-.065.86-.124.223-.057.398-.105.527-.14.188-.058.346-.129.474-.211.13-.082.258-.187.388-.317.105-.128.204-.263.298-.404.094-.14.17-.292.228-.457.07-.13.132-.302.185-.519.053-.217.078-.507.078-.87.012-.387.021-.742.027-1.064.005-.322.01-.982.01-1.979 0-.985-.005-1.638-.01-1.96a75.11 75.11 0 0 0-.027-1.064 4.624 4.624 0 0 0-.122-.87l-.141-.52a2.017 2.017 0 0 0-.21-.474 2.44 2.44 0 0 0-.72-.704 3.225 3.225 0 0 0-.984-.413 4.523 4.523 0 0 0-.86-.097 27.901 27.901 0 0 0-1.072-.043c-.317-.006-.973-.01-1.968-.01zM9.5 2h1.994c.321 0 .682.012 1.08.035.398.012.746.053 1.045.123.299.07.559.141.781.212.247.117.484.234.712.351.228.118.442.287.641.51.211.223.38.443.51.66.128.217.246.448.35.694.094.246.17.516.229.809.059.294.1.633.123 1.02.012.399.02.76.026 1.081.006.323.009.989.009 1.996 0 1.02-.003 1.692-.009 2.014a75.46 75.46 0 0 1-.026 1.064c-.024.398-.067.75-.132 1.055a5.69 5.69 0 0 1-.22.791 3.807 3.807 0 0 1-.342.712 3.556 3.556 0 0 1-.518.642c-.222.2-.442.364-.659.493a8.646 8.646 0 0 1-.694.37 4.084 4.084 0 0 1-.79.22 8.856 8.856 0 0 1-1.036.113c-.398.012-.759.02-1.08.026-.323.006-.987.009-1.994.009-1.007 0-1.672-.003-1.993-.009a81.433 81.433 0 0 1-1.081-.026 6.87 6.87 0 0 1-1.045-.132 8.834 8.834 0 0 1-.781-.202 3.355 3.355 0 0 1-.73-.351 3.82 3.82 0 0 1-.623-.511 4.543 4.543 0 0 1-.86-1.354 4.968 4.968 0 0 1-.229-.809 7.521 7.521 0 0 1-.123-1.037c-.012-.387-.02-.742-.026-1.064C2.003 11.183 2 10.512 2 9.491c0-1.007.003-1.673.009-1.996.005-.321.014-.682.026-1.081a7.03 7.03 0 0 1 .132-1.037 5.69 5.69 0 0 1 .22-.792c.104-.246.222-.48.35-.704a3.2 3.2 0 0 1 .51-.65c.199-.211.413-.378.64-.501.23-.123.466-.243.713-.36.233-.094.497-.17.79-.229a6.326 6.326 0 0 1 1.036-.106C6.824 2.012 7.184 2 7.506 2H9.5z"/>
    </g>
</svg>
