<svg xmlns="http://www.w3.org/2000/svg" width="36" height="30" viewBox="0 0 36 30">
    <path fill="#4D9A89" fill-rule="nonzero" d="M2.733 30L0 25.244c5.56-3.384 8.387-6.951 8.482-12.896-.283.091-.66.091-.943.091-3.392 0-6.314-2.195-6.314-5.945C1.225 2.47 3.77 0 7.54 0c4.9 0 7.728 3.841 7.728 10.61 0 8.689-4.24 15-12.534 19.39zm20.733 0l-2.733-4.756c5.56-3.384 8.387-6.951 8.482-12.896-.283.091-.66.091-.943.091-3.392 0-6.408-2.195-6.408-5.945C21.864 2.47 24.503 0 28.272 0 33.172 0 36 3.841 36 10.61c0 8.689-4.24 15-12.534 19.39z"/>
</svg>
