<svg xmlns="http://www.w3.org/2000/svg" width="36" height="30" viewBox="0 0 36 30">
    <path fill="#4D9A89" fill-rule="nonzero" d="M12.078 0l2.746 4.756c-5.4 3.293-8.236 6.951-8.327 12.805.366-.091.64-.091 1.006-.091 3.294 0 6.222 2.195 6.222 6.036 0 4.024-2.653 6.494-6.222 6.494C2.653 30 0 26.159 0 19.39 0 10.701 4.118 4.3 12.078 0zm21.177 0L36 4.756c-5.399 3.293-8.235 6.951-8.327 12.805.275-.091.64-.091.915-.091 3.386 0 6.314 2.195 6.314 6.036 0 4.024-2.654 6.494-6.314 6.494-4.758 0-7.412-3.841-7.412-10.61 0-8.689 4.118-15.091 12.079-19.39z"/>
</svg>
