<svg id="icon_txt" xmlns="http://www.w3.org/2000/svg" width="18" height="28" viewBox="0 0 18 28">
    <defs>
        <style>
            .cls-1{fill:#fd0}.cls-2{fill:#1e1e1e}
        </style>
    </defs>
    <g id="그룹_3249" data-name="그룹 3249" transform="translate(4.709 24.787)">
        <path id="패스_13123" data-name="패스 13123" class="cls-1" d="M417.5 172.621v.484a2.062 2.062 0 0 0 2.062 2.062h3.514a2.062 2.062 0 0 0 2.061-2.062v-.484z" transform="translate(-417.167 -172.288)"/>
        <path id="패스_13124" data-name="패스 13124" class="cls-2" d="M422.41 174.834h-3.51a2.4 2.4 0 0 1-2.4-2.4v-.484a.333.333 0 0 1 .333-.333h7.638a.333.333 0 0 1 .333.333v.484a2.4 2.4 0 0 1-2.394 2.4zm-5.244-2.546v.151a1.731 1.731 0 0 0 1.729 1.729h3.515a1.731 1.731 0 0 0 1.728-1.729v-.151z" transform="translate(-416.5 -171.621)"/>
    </g>
    <g id="그룹_3250" data-name="그룹 3250">
        <path id="패스_13125" data-name="패스 13125" d="M420.683 107.711a8.667 8.667 0 1 0-14.877 6.116 52.165 52.165 0 0 1 1.788 5h8.666a31.722 31.722 0 0 1 1.336-4.408 8.8 8.8 0 0 0 3.087-6.708z" transform="translate(-403.016 -98.601)" style="fill:#fff"/>
        <path id="패스_13126" data-name="패스 13126" class="cls-2" d="M415.593 118.5h-8.667a.334.334 0 0 1-.319-.241c-.007-.025-.75-2.545-1.75-4.907a9 9 0 1 1 12.355.6 30.64 30.64 0 0 0-1.29 4.259.335.335 0 0 1-.329.289zm-8.42-.674h8.143a36.619 36.619 0 0 1 1.3-4.185.334.334 0 0 1 .1-.142 8.34 8.34 0 1 0-11.337-.572.333.333 0 0 1 .067.1c.845 1.984 1.513 4.094 1.727 4.795z" transform="translate(-402.349 -97.934)"/>
    </g>
    <g id="그룹_3251" data-name="그룹 3251" transform="translate(3.974 19.806)">
        <path id="사각형_1468" data-name="사각형 1468" class="cls-1" transform="translate(.333 .333)" d="M0 0h8.985v4.982H0z"/>
        <path id="패스_13127" data-name="패스 13127" class="cls-2" d="M423.613 162.319h-8.985a.333.333 0 0 1-.333-.333V157a.333.333 0 0 1 .333-.333h8.985a.333.333 0 0 1 .333.333v4.981a.333.333 0 0 1-.333.338zm-8.652-.666h8.319v-4.315h-8.32z" transform="translate(-414.294 -156.671)"/>
    </g>
    <path id="패스_13128" data-name="패스 13128" class="cls-2" d="M419.486 138.764a.332.332 0 0 1-.323-.256l-2.174-9.182a.333.333 0 0 1 .324-.41h7.028a.334.334 0 0 1 .328.39l-1.6 9.163a.333.333 0 1 1-.656-.115l1.533-8.772h-6.21l2.076 8.772a.333.333 0 0 1-.247.4.341.341 0 0 1-.079.01z" transform="translate(-412.111 -118.457)"/>
    <path id="패스_13129" data-name="패스 13129" class="cls-2" d="M419.3 162h-4.486a.25.25 0 0 1 0-.5h4.486a.25.25 0 0 1 0 .5z" transform="translate(-410.5 -140.138)"/>
    <path id="패스_13130" data-name="패스 13130" class="cls-2" d="M416.879 166.549h-1.7a.25.25 0 0 1 0-.5h1.7a.25.25 0 0 1 0 .5z" transform="translate(-410.743 -143.118)"/>
    <rect id="사각형_1470" data-name="사각형 1470" class="cls-1" width="5.169" height="2.585" rx="1.292" transform="translate(6.415 9.53)"/>
</svg>
