<svg xmlns="http://www.w3.org/2000/svg" width="20" height="18" viewBox="0 0 20 18">
    <defs>
        <style>
            .cls-1{fill:#777}
        </style>
    </defs>
    <g id="icon_cal" transform="translate(.341)">
        <g id="그룹_1444" data-name="그룹 1444" transform="translate(-.341)">
            <path id="패스_1353" data-name="패스 1353" class="cls-1" d="M286.7 802.025h-15.4a2.218 2.218 0 0 1-2.3-2.114v-12.379a2.218 2.218 0 0 1 2.3-2.114h15.4a2.218 2.218 0 0 1 2.3 2.114v12.379a2.218 2.218 0 0 1-2.3 2.114zm-15.4-15.743a1.311 1.311 0 0 0-1.362 1.25v12.379a1.311 1.311 0 0 0 1.362 1.25h15.4a1.311 1.311 0 0 0 1.362-1.25v-12.379a1.311 1.311 0 0 0-1.362-1.25z" transform="translate(-269 -784.025)"/>
            <g id="그룹_1443" data-name="그룹 1443" transform="translate(2.508)">
                <path id="패스_1354" data-name="패스 1354" class="cls-1" d="M274.073 787.937a.551.551 0 0 1-.565-.535v-2.842a.566.566 0 0 1 1.13 0v2.84a.551.551 0 0 1-.565.537z" transform="translate(-273.508 -784.025)"/>
                <path id="패스_1355" data-name="패스 1355" class="cls-1" d="M287.927 787.937a.551.551 0 0 1-.565-.535v-2.842a.566.566 0 0 1 1.13 0v2.84a.551.551 0 0 1-.565.537z" transform="translate(-273.508 -784.025)"/>
                <path id="패스_2327" data-name="패스 2327" class="cls-1" d="M287.927 787.937a.551.551 0 0 1-.565-.535v-2.842a.566.566 0 0 1 1.13 0v2.84a.551.551 0 0 1-.565.537z" transform="translate(-280.508 -784.025)"/>
            </g>
        </g>
        <path id="패스_1356" data-name="패스 1356" class="cls-1" d="M286.567 791.387h-15.134a.543.543 0 0 1 0-1.071h15.134a.543.543 0 0 1 0 1.071z" transform="translate(-269.322 -784.227)"/>
    </g>
</svg>
