<svg xmlns="http://www.w3.org/2000/svg" width="32.584" height="34.654" viewBox="0 0 32.584 34.654">
    <defs>
        <style>
            .cls-1{fill:#f6f6f6}
        </style>
    </defs>
    <g id="그룹_22648" data-name="그룹 22648" transform="translate(-279.416 -587.631)">
        <path id="패스_4400" data-name="패스 4400" class="cls-1" d="M20.024 20.8s-5.511-9.526 1.1-17.836S-4.5 4.684.538 22.359 20.024 20.8 20.024 20.8z" transform="rotate(-169 180.727 296.22)"/>
        <g id="그룹_22647" data-name="그룹 22647">
            <path id="패스_4400_-_윤곽선" data-name="패스 4400 - 윤곽선" d="M7.352 30.329c-3.357 0-5.813-2.635-7.3-7.834a13.672 13.672 0 0 1-.186-7.014 16.118 16.118 0 0 1 2.9-5.934 27.538 27.538 0 0 1 8.972-7.375C14.842.524 18.057-.5 20.127-.5c1.182 0 1.939.328 2.25.974.341.706.049 1.648-.867 2.8a14.316 14.316 0 0 0-2.929 11.609 18.334 18.334 0 0 0 1.875 5.666l.165.286-.2.264a38.535 38.535 0 0 1-4.187 4.582c-3.319 3.084-6.308 4.648-8.882 4.648zM20.127.5C16.343.5 8.009 4.259 3.564 10.149.68 13.971-.176 18.032 1.019 22.221c1.345 4.716 3.476 7.107 6.332 7.108 5.036 0 10.938-7.14 12.077-8.58a19.61 19.61 0 0 1-1.828-5.672 16.613 16.613 0 0 1 .07-5.919 15.16 15.16 0 0 1 3.057-6.506c.918-1.155.805-1.627.749-1.744C21.353.653 20.849.5 20.127.5z" transform="rotate(-169 180.738 296.328)" style="fill:#e1e1e1"/>
            <path id="사각형_3177" data-name="사각형 3177" class="cls-1" transform="translate(284 588)" d="M0 0h28v18.5H0z"/>
        </g>
    </g>
</svg>
