<svg xmlns="http://www.w3.org/2000/svg" width="16.2" height="16.2">
    <defs>
        <style>
            .cls-1{fill:#3d3736;stroke:#333;stroke-width:.2px}
        </style>
    </defs>
    <g id="iconPatient" transform="translate(-550.9 -829.987)">
        <path id="패스_20707" data-name="패스 20707" class="cls-1" d="M561.7 840.115a2.613 2.613 0 1 1 2.613-2.613 2.616 2.616 0 0 1-2.613 2.613zm0-4.585a1.972 1.972 0 1 0 1.972 1.971 1.974 1.974 0 0 0-1.972-1.971z" transform="translate(-2.7 -1.604)"/>
        <path id="패스_20708" data-name="패스 20708" class="cls-1" d="m563.679 844.6-.021-.666a4.665 4.665 0 0 0-9.325-.006l-.021.666-.507-.433a8 8 0 1 1 10.381.007zM559 838.771a5.278 5.278 0 0 1 5.241 4.478 7.361 7.361 0 1 0-10.481-.007 5.279 5.279 0 0 1 5.24-4.471z"/>
        <path id="패스_20709" data-name="패스 20709" class="cls-1" d="M560.339 850.445a7.975 7.975 0 0 1-5.189-1.926l-.117-.1.005-.153a5.3 5.3 0 0 1 10.593.006v.154l-.117.1a7.977 7.977 0 0 1-5.175 1.919zm-4.654-2.313a7.314 7.314 0 0 0 9.3.005 4.659 4.659 0 0 0-9.3-.005z" transform="translate(-1.339 -4.358)"/>
    </g>
</svg>
