<svg xmlns="http://www.w3.org/2000/svg" width="16" height="16" viewBox="0 0 16 16">
    <defs>
        <style>
            .cls-2{fill:#333}
        </style>
    </defs>
    <g id="icon_text" transform="translate(-316 -594.772)">
        <path id="패스_16610" fill="#fd0" d="M316.547 610.178l.969-3.61s-2.172-3.75-.609-6.625 4.219-5.109 7.7-4.828 6.563 3.594 6.859 5.938-.187 6-2.672 7.7-4.406 1.984-6.094 1.594a7.525 7.525 0 0 1-2.609-1.078z"/>
        <g id="그룹_6321" transform="translate(316 594.772)">
            <path id="패스_16606" d="M324.007 610.772A7.991 7.991 0 0 1 320 609.7l-3.351.9a.377.377 0 0 1-.461-.461l.9-3.351a8 8 0 1 1 6.925 3.99zm-3.955-1.857a.38.38 0 0 1 .2.055 7.247 7.247 0 1 0-2.439-2.438.379.379 0 0 1 .042.293l-.77 2.874 2.873-.77a.371.371 0 0 1 .094-.014z" class="cls-2" transform="translate(-316 -594.772)"/>
        </g>
        <g id="그룹_6322" transform="translate(319.688 601.634)">
            <path id="패스_16607" d="M322.673 607.339a1.138 1.138 0 1 1 1.137-1.137 1.139 1.139 0 0 1-1.137 1.137zm0-1.522a.384.384 0 1 0 .384.384.384.384 0 0 0-.384-.383z" class="cls-2" transform="translate(-321.535 -605.064)"/>
            <path id="패스_16608" d="M327.44 607.339a1.138 1.138 0 1 1 1.137-1.137 1.139 1.139 0 0 1-1.137 1.137zm0-1.522a.384.384 0 1 0 .384.384.384.384 0 0 0-.384-.383z" class="cls-2" transform="translate(-323.123 -605.064)"/>
            <path id="패스_16609" d="M332.208 607.339a1.138 1.138 0 1 1 1.137-1.137 1.139 1.139 0 0 1-1.137 1.137zm0-1.522a.384.384 0 1 0 .384.384.384.384 0 0 0-.384-.383z" class="cls-2" transform="translate(-324.71 -605.064)"/>
        </g>
    </g>
</svg>
