<svg xmlns="http://www.w3.org/2000/svg" width="16" height="18" viewBox="0 0 16 18">
  <g id="그룹_4748" data-name="그룹 4748" transform="translate(3.614 4.649)">
    <path id="패스_14567" data-name="패스 14567" d="M423.969,651.653h-7.8a.514.514,0,0,1,0-1.027h7.8a.514.514,0,0,1,0,1.027Z" transform="translate(-415.685 -650.626)" fill="#555"/>
    <path id="패스_14568" data-name="패스 14568" d="M423.969,655.871h-7.8a.515.515,0,0,1,0-1.028h7.8a.515.515,0,0,1,0,1.028Z" transform="translate(-415.685 -651.006)" fill="#555"/>
    <path id="패스_14569" data-name="패스 14569" d="M423.969,660.088h-7.8a.514.514,0,0,1,0-1.027h7.8a.514.514,0,0,1,0,1.027Z" transform="translate(-415.685 -651.387)" fill="#555"/>
  </g>
  <path id="패스_14570" data-name="패스 14570" d="M427.495,662.979h-14.99a.5.5,0,0,1-.505-.488V645.467a.5.5,0,0,1,.505-.488h14.99a.5.5,0,0,1,.505.488v17.025A.5.5,0,0,1,427.495,662.979ZM413.01,662h13.98v-16.05H413.01Z" transform="translate(-412 -644.979)" fill="#555"/>
</svg>
