<svg xmlns="http://www.w3.org/2000/svg" width="16.703" height="16.5" viewBox="0 0 16.703 16.5">
    <path data-name="패스 16610" d="m316.547 610.178.969-3.61s-2.172-3.75-.609-6.625 4.219-5.109 7.7-4.828 6.563 3.594 6.859 5.938-.187 6-2.672 7.7-4.406 1.984-6.094 1.594a7.525 7.525 0 0 1-2.609-1.078z" transform="translate(-315.547 -594.521)" style="fill:#fff"/>
    <g data-name="그룹 6321">
        <path data-name="패스 16606" d="M324.007 610.772A7.991 7.991 0 0 1 320 609.7l-3.351.9a.377.377 0 0 1-.461-.461l.9-3.351a8 8 0 1 1 6.925 3.99zm-3.955-1.857a.38.38 0 0 1 .2.055 7.247 7.247 0 1 0-2.439-2.438.379.379 0 0 1 .042.293l-.77 2.874 2.873-.77a.371.371 0 0 1 .094-.014z" transform="translate(-315.547 -594.522)" style="stroke:#333;stroke-width:.5px;fill:#333"/>
    </g>
    <g data-name="그룹 6322">
        <path data-name="패스 16607" d="M322.673 607.339a1.138 1.138 0 1 1 1.137-1.137 1.139 1.139 0 0 1-1.137 1.137z" transform="translate(-317.395 -597.951)" style="fill:#333"/>
        <path data-name="패스 16608" d="M327.44 607.339a1.138 1.138 0 1 1 1.137-1.137 1.139 1.139 0 0 1-1.137 1.137z" transform="translate(-318.983 -597.951)" style="fill:#333"/>
        <path data-name="패스 16609" d="M332.208 607.339a1.138 1.138 0 1 1 1.137-1.137 1.139 1.139 0 0 1-1.137 1.137z" transform="translate(-320.57 -597.951)" style="fill:#333"/>
    </g>
</svg>
