<svg xmlns="http://www.w3.org/2000/svg" width="50" height="50" viewBox="0 0 50 50">
    <path data-name="사각형 4918" style="fill:none" d="M0 0h50v50H0z"/>
    <g data-name="그룹 32894" transform="translate(-374.453 -354.608)">
        <path data-name="패스 21123" d="M415.324 363.68a3.748 3.748 0 0 1 2.459 3.508v28.2a3.744 3.744 0 0 1-3.734 3.733h-29.444a3.747 3.747 0 0 1-3.634-2.882" transform="translate(.806 1.463)" style="stroke:#8e6051;stroke-linecap:round;stroke-linejoin:round;stroke-width:1.75px;fill:#fff0eb"/>
        <rect data-name="사각형 4926" width="37" height="35" rx="2" transform="translate(378.453 362.608)" style="fill:#fff"/>
        <path data-name="패스 21119" d="M415.809 380.721v12.725a3.744 3.744 0 0 1-3.733 3.733h-29.445a3.744 3.744 0 0 1-3.733-3.733v-28.2a3.744 3.744 0 0 1 3.733-3.733h1.248" transform="translate(0 .622)" style="stroke:#8e6051;stroke-linecap:round;stroke-linejoin:round;stroke-width:1.75px;fill:none"/>
        <path data-name="패스 21120" d="M401.557 361.516h1.711a3.744 3.744 0 0 1 3.732 3.733v11.592" transform="translate(8.808 .622)" style="stroke:#8e6051;stroke-linecap:round;stroke-linejoin:round;stroke-width:1.75px;fill:none"/>
        <path data-name="선 792" transform="translate(390.646 362.137)" style="stroke:#8e6051;stroke-linecap:round;stroke-linejoin:round;stroke-width:1.75px;fill:none" d="M0 0h13.241"/>
        <path data-name="선 793" transform="translate(378.898 369.974)" style="stroke:#8e6051;stroke-linecap:round;stroke-linejoin:round;stroke-width:1.75px;fill:none" d="M0 0h36.911"/>
        <g data-name="그룹 32891">
            <path data-name="패스 21121" d="M386.575 362.136v2.287a1.294 1.294 0 0 1-1.29 1.29h0a1.294 1.294 0 0 1-1.29-1.29v-3.216a1.294 1.294 0 0 1 1.29-1.29h0a1.294 1.294 0 0 1 1.29 1.29v.929" transform="translate(1.981)" style="fill:#d0a699;stroke:#8e6051;stroke-linecap:round;stroke-linejoin:round;stroke-width:1.75px"/>
        </g>
        <g data-name="그룹 32892">
            <path data-name="패스 21122" d="M398.4 362.136v-.929a1.294 1.294 0 0 1 1.29-1.29h0a1.294 1.294 0 0 1 1.29 1.29v3.216a1.294 1.294 0 0 1-1.29 1.29h0a1.294 1.294 0 0 1-1.29-1.29v-2.287" transform="translate(7.58)" style="fill:#d0a699;stroke:#8e6051;stroke-linecap:round;stroke-linejoin:round;stroke-width:1.75px"/>
        </g>
        <g data-name="그룹 32893">
            <path data-name="패스 21124" d="M402.544 376.839h-4.3v-4.3a1.119 1.119 0 0 0-1.119-1.119H393.9a1.12 1.12 0 0 0-1.119 1.119v4.3h-4.3a1.12 1.12 0 0 0-1.119 1.119v3.225a1.12 1.12 0 0 0 1.119 1.119h4.3v4.3a1.12 1.12 0 0 0 1.119 1.119h3.225a1.119 1.119 0 0 0 1.119-1.119v-4.3h4.3a1.12 1.12 0 0 0 1.119-1.119v-3.225a1.12 1.12 0 0 0-1.119-1.119z" transform="translate(3.289 4.47)" style="fill:#fff0eb"/>
            <path data-name="패스 21125" d="M399.193 375.861h-1.959v-4.3a1.119 1.119 0 0 0-1.119-1.119h-3.225a1.119 1.119 0 0 0-1.119 1.119v4.3h-4.3a1.12 1.12 0 0 0-1.119 1.119v3.226a1.118 1.118 0 0 0 1.119 1.118h4.3v4.3a1.12 1.12 0 0 0 1.119 1.119h3.225a1.12 1.12 0 0 0 1.119-1.119v-4.3h4.3a1.118 1.118 0 0 0 1.119-1.118v-3.226a1.12 1.12 0 0 0-1.119-1.119h-.668" transform="translate(2.897 4.091)" style="stroke:#8e6051;stroke-linecap:round;stroke-linejoin:round;stroke-width:1.75px;fill:none"/>
        </g>
    </g>
</svg>
