<svg xmlns="http://www.w3.org/2000/svg" width="50" height="50" viewBox="0 0 50 50">
    <path data-name="사각형 4917" style="fill:none" d="M0 0h50v50H0z"/>
    <g data-name="그룹 32895" transform="translate(-33.142 -435.33)">
        <path data-name="패스 48655" d="M44.915 478.876a4.067 4.067 0 0 1-.034-.523v-22.74" transform="translate(1.895 1.677)" style="stroke-linecap:round;stroke-linejoin:round;stroke:#8e6051;stroke-width:1.5px;fill:none"/>
        <path data-name="패스 48656" d="M63.994 455.613v22.729a3.957 3.957 0 0 1-.05.638" transform="translate(5 1.677)" style="stroke-linecap:round;stroke-linejoin:round;stroke:#8e6051;stroke-width:1.5px;fill:none"/>
        <path data-name="패스 48657" d="M67.956 458.926h1.954c1.2 0 2.166 1.864 2.166 4.164v15.51a7.881 7.881 0 0 1-.044.838" transform="translate(8.152 1.162)" style="stroke-linecap:round;stroke-linejoin:round;stroke:#8e6051;stroke-width:1.5px;fill:none"/>
        <path data-name="선 795" transform="translate(69.156 460.143)" style="stroke-linecap:round;stroke-linejoin:round;stroke:#8e6051;stroke-width:1.5px;fill:none" d="M0 0h3.986"/>
        <path data-name="패스 48658" d="M35.434 479.5a4.964 4.964 0 0 1-.085-.919v-15.5c0-2.3 1.557-4.161 3.478-4.161h7.593" transform="translate(.343 1.162)" style="stroke-linecap:round;stroke-linejoin:round;stroke:#8e6051;stroke-width:1.5px;fill:none"/>
        <path data-name="선 796" transform="translate(34.142 481.323)" style="stroke-linecap:round;stroke-linejoin:round;stroke:#8e6051;stroke-width:1.5px;fill:none" d="M0 0h48"/>
        <g data-name="그룹 32897" transform="translate(0 2)">
            <rect data-name="사각형 4923" width="11" height="12" rx="1" transform="translate(52.142 463.33)" style="fill:#fff0eb"/>
            <rect data-name="사각형 4924" width="11" height="12" rx="1" transform="translate(52.142 463.33)" style="fill:#fff0eb"/>
            <path data-name="패스 48661" d="M60.247 466.031v6.11a1.872 1.872 0 0 1-1.977 1.747h-6.624a1.872 1.872 0 0 1-1.977-1.747" transform="translate(2.675 1.344)" style="stroke-linecap:round;stroke-linejoin:round;stroke:#8e6051;stroke-width:1.5px;fill:none"/>
            <path data-name="패스 48662" d="M49.669 470.247v-5.614a1.807 1.807 0 0 1 1.977-1.564h6.624a1.807 1.807 0 0 1 1.977 1.564" transform="translate(2.675 -.174)" style="stroke-linecap:round;stroke-linejoin:round;stroke:#8e6051;stroke-width:1.5px;fill:none"/>
            <path data-name="선 797" transform="translate(57.633 462.895)" style="stroke-linecap:round;stroke-linejoin:round;stroke:#8e6051;stroke-width:1.5px;fill:none" d="M0 0v12.337"/>
        </g>
        <path data-name="패스 48663" d="M59.9 445.315h.978a2.931 2.931 0 0 1 2.932 2.932V459.2a2.932 2.932 0 0 1-2.932 2.932H49.924a2.932 2.932 0 0 1-2.932-2.932v-10.95a2.931 2.931 0 0 1 2.932-2.932H57.6" transform="translate(2.239 -5.189)" style="stroke-linecap:round;stroke-linejoin:round;stroke:#8e6051;stroke-width:1.5px;fill:none"/>
        <path data-name="패스 48664" d="M60.721 452.54h-2.84v-2.84a.738.738 0 0 0-.738-.738h-2.128a.738.738 0 0 0-.738.738v2.839h-2.84a.739.739 0 0 0-.738.738v2.129a.739.739 0 0 0 .738.738h2.84v2.839a.738.738 0 0 0 .738.738h2.128a.738.738 0 0 0 .738-.738v-2.839h2.84a.739.739 0 0 0 .738-.738v-2.129a.739.739 0 0 0-.738-.737z" transform="translate(2.843 -4.595)" style="opacity:.7;fill:#fff0eb"/>
        <path data-name="패스 48665" d="M57.652 451.609H56.5v-2.527a.657.657 0 0 0-.657-.658h-1.9a.657.657 0 0 0-.657.658v2.527h-2.523a.658.658 0 0 0-.658.658v1.9a.657.657 0 0 0 .658.657h2.528v2.528a.657.657 0 0 0 .657.657h1.9a.657.657 0 0 0 .657-.657v-2.532h2.528a.657.657 0 0 0 .657-.657v-1.9a.658.658 0 0 0-.657-.658h-.393" transform="translate(2.746 -4.682)" style="stroke-linecap:round;stroke-linejoin:round;stroke:#8e6051;stroke-width:1.5px;fill:none"/>
        <path data-name="패스 48666" d="M41.5 461.915h.2a.8.8 0 0 1 .8.8v2.585a.8.8 0 0 1-.8.8h-2.591a.8.8 0 0 1-.8-.8v-2.586a.8.8 0 0 1 .8-.8h.631" transform="translate(.825 3.704)" style="stroke-linecap:round;stroke-linejoin:round;stroke:#8e6051;stroke-width:1.5px;fill:none"/>
        <rect data-name="사각형 4919" width="4.187" height="4.187" rx=".688" transform="translate(39.133 472.044)" style="stroke-linecap:round;stroke-linejoin:round;stroke:#8e6051;stroke-width:1.5px;fill:none"/>
        <rect data-name="사각형 4920" width="4.187" height="4.187" rx=".688" transform="translate(72.598 465.619)" style="stroke-linecap:round;stroke-linejoin:round;stroke:#8e6051;stroke-width:1.5px;fill:none"/>
        <path data-name="패스 48667" d="M61.45 452.922h3.082a1.317 1.317 0 0 1 1.316 1.316v.145a1.317 1.317 0 0 1-1.316 1.316H61.45" transform="translate(4.594 1.239)" style="stroke-miterlimit:10;stroke:#8e6051;stroke-width:1.5px;fill:none"/>
        <path data-name="패스 48668" d="M47.608 455.7h-3.082a1.317 1.317 0 0 1-1.316-1.316v-.145a1.317 1.317 0 0 1 1.316-1.316h3.082" transform="translate(1.623 1.239)" style="stroke-miterlimit:10;stroke:#8e6051;stroke-width:1.5px;fill:none"/>
        <path data-name="패스 48669" d="M70.28 467.441h.192a.8.8 0 0 1 .8.8v2.586a.8.8 0 0 1-.8.8h-2.586a.8.8 0 0 1-.8-.8v-2.586a.8.8 0 0 1 .8-.8h.633" transform="translate(5.512 4.604)" style="stroke-linecap:round;stroke-linejoin:round;stroke:#8e6051;stroke-width:1.5px;fill:none"/>
    </g>
</svg>
