<svg xmlns="http://www.w3.org/2000/svg" width="176" height="139.999">
    <path data-name="패스 1058" d="m199.557 227.254-20.4-16.42c5.017-7.875 4.85-8.88 17.561-22.955 14.305-15.84 22.291-19.589 31.714-26.913 4.662-3.623 18.334-11.791 22.224-20.086 3.673-7.833 1.733-17.494-1.9-21.628a23.715 23.715 0 0 0-22.678-7.168c-10.679 2.5-17.149 11.7-23.251 28.855-3.977 11.183-8.152 21.149-15.1 28.781a52.027 52.027 0 0 1-23.473 14.973 48.385 48.385 0 0 1-23.979.97 46.488 46.488 0 0 1-21.191-10.743 53.317 53.317 0 0 1-17.094-37.887c-.192-13.64 5.225-26.075 15.662-35.958 7.32-6.933 15.453-11.3 24.171-12.994a44.741 44.741 0 0 1 21.719 1.279 56.149 56.149 0 0 1 20.255 11.26l-16.387 17.854.072.065a32.546 32.546 0 0 0-11.6-6.158c-7.891-2.182-14.759-.175-21.613 6.314-5.461 5.172-8.181 11.227-8.087 18a29.147 29.147 0 0 0 9.018 20.146 23.31 23.31 0 0 0 22.131 4.62c6.063-1.81 15.487-8.172 22.114-26.8 5.06-14.224 8.912-23.394 16.263-31.369a49.126 49.126 0 0 1 24.848-14.81 47.855 47.855 0 0 1 46.357 14.75c7.944 9.035 11.735 19.845 10.966 31.261-.755 11.209-6.243 21.426-16.439 30.772-9.206 8.439-21.519 15.517-34.871 28.651-13.8 13.573-20.656 21.95-27.011 33.343" transform="translate(-101.976 -87.254)" style="fill:#bc8877;opacity:.06"/>
</svg>
