<svg xmlns="http://www.w3.org/2000/svg" width="198" height="163" viewBox="0 0 198 163">
    <path d="M211.755 250.254 188.8 231.136c5.644-9.169 5.456-10.339 19.756-26.726 16.094-18.443 25.077-22.807 35.678-31.334 5.245-4.218 20.626-13.729 25-23.386 4.132-9.12 1.95-20.368-2.14-25.182a26.129 26.129 0 0 0-25.513-8.346c-12.014 2.917-19.292 13.619-26.157 33.6-4.474 13.02-9.171 24.623-16.991 33.51a58.332 58.332 0 0 1-26.404 17.428 52.663 52.663 0 0 1-26.976 1.129 51.675 51.675 0 0 1-23.84-12.509c-11.64-10.782-19.008-27.683-19.231-44.111-.215-15.881 5.878-30.359 17.62-41.865 8.235-8.072 17.385-13.161 27.192-15.129a48.7 48.7 0 0 1 24.433 1.489 62.738 62.738 0 0 1 22.787 13.109L175.59 123.6l.081.076a36.307 36.307 0 0 0-13.052-7.17c-8.878-2.541-16.6-.2-24.315 7.352-6.144 6.022-9.2 13.071-9.1 20.953a34.454 34.454 0 0 0 10.146 23.455 25.557 25.557 0 0 0 24.9 5.379c6.82-2.107 17.423-9.515 24.879-31.207 5.692-16.561 10.026-27.238 18.3-36.522a54.931 54.931 0 0 1 27.954-17.243 52.738 52.738 0 0 1 52.151 17.174 50.292 50.292 0 0 1 12.336 36.4c-.849 13.051-7.024 24.946-18.494 35.828-10.357 9.826-24.209 18.067-39.23 33.358-15.524 15.8-23.238 25.556-30.387 38.821" transform="translate(-101.976 -87.254)" style="fill:#f6f6f6"/>
</svg>
