<svg xmlns="http://www.w3.org/2000/svg" width="37" height="28" viewBox="0 0 37 28">
    <defs>
        <clipPath id="52a800i99a">
            <path data-name="사각형 10978" transform="translate(38 156)" style="fill:#fff" d="M0 0h37v28H0z"/>
        </clipPath>
    </defs>
    <g data-name="마스크 그룹 330" transform="rotate(180 37.5 92)" style="clip-path:url(#52a800i99a)">
        <path data-name="빼기 21" d="M360 10H0V0h5.018A3.979 3.979 0 0 0 9 3.625 3.98 3.98 0 0 0 12.983 0h10.035A3.979 3.979 0 0 0 27 3.625 3.98 3.98 0 0 0 30.983 0h10.035A3.979 3.979 0 0 0 45 3.625 3.98 3.98 0 0 0 48.983 0h10.035A3.979 3.979 0 0 0 63 3.625 3.98 3.98 0 0 0 66.983 0h10.035A3.979 3.979 0 0 0 81 3.625 3.98 3.98 0 0 0 84.983 0h10.035A3.979 3.979 0 0 0 99 3.625 3.98 3.98 0 0 0 102.983 0h10.035A3.979 3.979 0 0 0 117 3.625 3.98 3.98 0 0 0 120.983 0h10.035A3.979 3.979 0 0 0 135 3.625 3.98 3.98 0 0 0 138.983 0h10.035A3.979 3.979 0 0 0 153 3.625 3.98 3.98 0 0 0 156.983 0h10.035A3.979 3.979 0 0 0 171 3.625 3.98 3.98 0 0 0 174.983 0h10.035A3.979 3.979 0 0 0 189 3.625 3.98 3.98 0 0 0 192.983 0h10.035A3.979 3.979 0 0 0 207 3.625 3.98 3.98 0 0 0 210.983 0h10.035A3.979 3.979 0 0 0 225 3.625 3.98 3.98 0 0 0 228.983 0h10.035A3.979 3.979 0 0 0 243 3.625 3.98 3.98 0 0 0 246.983 0h10.035A3.979 3.979 0 0 0 261 3.625 3.98 3.98 0 0 0 264.983 0h10.035A3.979 3.979 0 0 0 279 3.625 3.98 3.98 0 0 0 282.983 0h10.035A3.979 3.979 0 0 0 297 3.625 3.98 3.98 0 0 0 300.983 0h10.035A3.979 3.979 0 0 0 315 3.625 3.98 3.98 0 0 0 318.983 0h10.035A3.979 3.979 0 0 0 333 3.625 3.98 3.98 0 0 0 336.983 0h10.035A3.979 3.979 0 0 0 351 3.625 3.98 3.98 0 0 0 354.983 0H360v10z" transform="rotate(180 198.5 82.5)" style="stroke:#f1f1f1;fill:#fff"/>
    </g>
</svg>
