<svg xmlns="http://www.w3.org/2000/svg" width="16" height="15.999" viewBox="0 0 16 15.999">
    <path data-name="패스 20629" d="m-15001.455-8204.623-.8.11-1.627 4.647-4.5-.155-.707 1.233.307 1.135 3.391 2.457-1.342 4.146.434 1.146.813.289 1.057-.411 2.979-2.169 3.707 2.669.982-.3.613-1.022-1.416-4.414 3.476-2.59.211-1.09-.423-.856-.718-.222h-3.993l-1.51-4.547z" transform="translate(15009.455 8205.202)" style="fill:#fd0"/>
    <path data-name="패스 20628" d="M599.835 516.475a1.579 1.579 0 0 1-.959-.324L595.9 513.9l-2.977 2.251a1.58 1.58 0 0 1-1.917 0 1.731 1.731 0 0 1-.593-1.9l1.137-3.642-2.977-2.251a1.731 1.731 0 0 1-.592-1.9 1.635 1.635 0 0 1 1.551-1.173h3.68l1.137-3.642a1.612 1.612 0 0 1 3.1 0l1.137 3.642h3.68a1.635 1.635 0 0 1 1.552 1.173 1.732 1.732 0 0 1-.593 1.9l-2.977 2.251 1.137 3.642a1.732 1.732 0 0 1-.592 1.9 1.579 1.579 0 0 1-.958.324zm-3.935-3.455a.368.368 0 0 1 .222.075l3.2 2.419a.86.86 0 0 0 1.029 0 .929.929 0 0 0 .318-1.018l-1.222-3.913a.4.4 0 0 1 .137-.44l3.2-2.419a.929.929 0 0 0 .318-1.018.877.877 0 0 0-.833-.629h-3.954a.38.38 0 0 1-.359-.272l-1.222-3.913a.865.865 0 0 0-1.664 0l-1.222 3.913a.38.38 0 0 1-.359.272h-3.959a.877.877 0 0 0-.832.629.929.929 0 0 0 .318 1.018l3.2 2.419a.4.4 0 0 1 .137.44l-1.222 3.913a.929.929 0 0 0 .318 1.018.861.861 0 0 0 1.029 0l3.2-2.419a.367.367 0 0 1 .222-.075z" transform="translate(-587.898 -500.476)" style="fill:#111"/>
</svg>
