<svg xmlns="http://www.w3.org/2000/svg" width="50.148" height="50" viewBox="0 0 50.148 50">
    <g data-name="그룹 32886">
        <g data-name="그룹 32886">
            <path data-name="패스 21112" d="M353.107 382.439q.024-.511.024-1.027a21.473 21.473 0 1 0-1.629 8.227" transform="translate(-307.671 -356.413)" style="stroke:#8e6051;stroke-linecap:round;stroke-linejoin:round;stroke-width:1.75px;fill:none"/>
            <path data-name="패스 21113" d="m343.965 372.366-3.26 4.587-4.228-3.713" transform="translate(-295.037 -350.442)" style="stroke:#8e6051;stroke-linecap:round;stroke-linejoin:round;stroke-width:1.75px;fill:none"/>
        </g>
        <g data-name="그룹 32887">
            <path data-name="패스 21114" d="M336.979 374.87h-4.953v-4.953a1.289 1.289 0 0 0-1.289-1.289h-3.712a1.289 1.289 0 0 0-1.287 1.289v4.953h-4.952a1.288 1.288 0 0 0-1.289 1.287v3.712a1.289 1.289 0 0 0 1.289 1.289h4.952v4.953a1.287 1.287 0 0 0 1.287 1.287h3.712a1.288 1.288 0 0 0 1.289-1.287v-4.953h4.953a1.288 1.288 0 0 0 1.287-1.289v-3.712a1.286 1.286 0 0 0-1.287-1.287z" transform="translate(-303.183 -351.234)" style="fill:#fff0eb"/>
            <path data-name="패스 21115" d="M333.192 373.815h-2.257v-4.952a1.288 1.288 0 0 0-1.287-1.289h-3.713a1.289 1.289 0 0 0-1.289 1.289v4.952h-4.952a1.286 1.286 0 0 0-1.287 1.287v3.712a1.288 1.288 0 0 0 1.287 1.289h4.952v4.953a1.288 1.288 0 0 0 1.289 1.287h3.713a1.286 1.286 0 0 0 1.287-1.287V380.1h4.953a1.289 1.289 0 0 0 1.289-1.289V375.1a1.288 1.288 0 0 0-1.289-1.287h-.768" transform="translate(-303.705 -351.74)" style="stroke:#8e6051;stroke-linecap:round;stroke-linejoin:round;stroke-width:1.75px;fill:none"/>
        </g>
        <g data-name="그룹 32888">
            <path data-name="선 787" transform="translate(35.288 12.779)" style="stroke:#8e6051;stroke-linecap:round;stroke-linejoin:round;stroke-width:1.75px;fill:none" d="M1.684 0 0 1.684"/>
            <path data-name="선 788" transform="translate(11.61 36.457)" style="stroke:#8e6051;stroke-linecap:round;stroke-linejoin:round;stroke-width:1.75px;fill:none" d="M1.684 0 0 1.684"/>
            <path data-name="선 789" transform="translate(5.716 25)" style="stroke:#8e6051;stroke-linecap:round;stroke-linejoin:round;stroke-width:1.75px;fill:none" d="M2.382 0H0"/>
            <path data-name="선 790" transform="translate(35.288 35.536)" style="stroke:#8e6051;stroke-linecap:round;stroke-linejoin:round;stroke-width:1.75px;fill:none" d="M1.684 1.684 0 0"/>
            <path data-name="선 791" transform="translate(11.838 12.087)" style="stroke:#8e6051;stroke-linecap:round;stroke-linejoin:round;stroke-width:1.75px;fill:none" d="M1.684 1.684 0 0"/>
        </g>
        <g data-name="그룹 32889">
            <path data-name="패스 21116" d="M325.463 366.643h-1v-2.73l.01-.449.015-.489a5.34 5.34 0 0 1-.344.326l-.544.435-.481-.6 1.52-1.209h.82z" transform="translate(-302.779 -354.692)" style="fill:#8e6051"/>
            <path data-name="패스 21117" d="M328.317 366.67h-3.3v-.694l1.185-1.2c.35-.36.578-.608.687-.747a1.6 1.6 0 0 0 .231-.387.972.972 0 0 0 .071-.367.536.536 0 0 0-.155-.423.611.611 0 0 0-.418-.139 1.2 1.2 0 0 0-.534.125 2.793 2.793 0 0 0-.539.359l-.542-.643a3.455 3.455 0 0 1 .578-.42 2.183 2.183 0 0 1 .5-.188 2.528 2.528 0 0 1 .606-.066 1.792 1.792 0 0 1 .78.16 1.244 1.244 0 0 1 .527.453 1.2 1.2 0 0 1 .187.664 1.627 1.627 0 0 1-.114.611 2.316 2.316 0 0 1-.355.587 8.689 8.689 0 0 1-.848.854l-.606.572v.045h2.055z" transform="translate(-301.551 -354.719)" style="fill:#8e6051"/>
        </g>
        <g data-name="그룹 32890">
            <path data-name="패스 21118" d="M324.011 386.791a3.15 3.15 0 0 1 .6-2.1 2.242 2.242 0 0 1 1.79-.69 3.323 3.323 0 0 1 .638.048v.8a2.631 2.631 0 0 0-.573-.065 1.984 1.984 0 0 0-.845.155 1.051 1.051 0 0 0-.49.463 2.1 2.1 0 0 0-.192.868h.042a1.105 1.105 0 0 1 1.032-.553 1.281 1.281 0 0 1 1 .4 1.6 1.6 0 0 1 .362 1.108 1.661 1.661 0 0 1-.43 1.2 1.579 1.579 0 0 1-1.192.445 1.7 1.7 0 0 1-.92-.245 1.575 1.575 0 0 1-.6-.712 2.728 2.728 0 0 1-.222-1.122zm1.718 1.281a.594.594 0 0 0 .495-.217.954.954 0 0 0 .173-.617.855.855 0 0 0-.162-.548.587.587 0 0 0-.487-.2.746.746 0 0 0-.522.2.61.61 0 0 0-.217.463 1.052 1.052 0 0 0 .2.653.619.619 0 0 0 .52.267z" transform="translate(-301.206 -345.135)" style="fill:#8e6051"/>
        </g>
    </g>
    <path data-name="사각형 4917" style="fill:none" d="M0 0h50v50H0z"/>
</svg>
