<svg xmlns="http://www.w3.org/2000/svg" width="24" height="22" viewBox="0 0 24 22">
    <defs>
        <style>
            .cls-3{fill:#333;stroke:#333;stroke-width:.5px}
        </style>
    </defs>
    <g id="icon_error" transform="translate(-363 -689.9)">
        <path id="패스_16281" data-name="패스 16281" d="m373.748 690.8-10.3 18.233.318 1.693 1.516.705 20.1-.247 1.094-1.834-10.053-18.339-1.551-.635z" style="fill:#fd0"/>
        <path id="패스_16278" data-name="패스 16278" d="M384.6 711.9h-19.2a2.4 2.4 0 0 1-2.082-1.235 2.532 2.532 0 0 1 0-2.468l9.595-17.063a2.373 2.373 0 0 1 4.163 0l9.529 16.946a2.51 2.51 0 0 1 .392 1.351 2.439 2.439 0 0 1-2.397 2.469zm-9.6-20.841a1.272 1.272 0 0 0-1.1.655l-9.6 17.063a1.341 1.341 0 0 0 0 1.308 1.272 1.272 0 0 0 1.1.655h19.2a1.293 1.293 0 0 0 1.274-1.309 1.319 1.319 0 0 0-.213-.724l-.019-.032-9.542-16.961a1.273 1.273 0 0 0-1.1-.655z" style="fill:#333"/>
        <g id="그룹_5868" data-name="그룹 5868">
            <path id="패스_16279" data-name="패스 16279" class="cls-3" d="M375 704.827a.573.573 0 0 1-.565-.58v-7.616a.565.565 0 1 1 1.129 0v7.616a.572.572 0 0 1-.564.58z"/>
            <path id="패스_16280" data-name="패스 16280" class="cls-3" d="M375.651 707.009a.652.652 0 1 0-.651.669.66.66 0 0 0 .651-.669z" transform="translate(0 1)"/>
        </g>
    </g>
</svg>
