<svg xmlns="http://www.w3.org/2000/svg" width="200" height="13" viewBox="0 0 200 13">
    <defs>
        <style>
            .cls-1{fill:#333}
        </style>
    </defs>
    <g id="main_logo" transform="translate(-17.074 -26.412)">
        <path id="패스_15033" data-name="패스 15033" class="cls-1" d="M2-3.773h3.714c3.836 0 6.3-2.1 6.3-6.3 0-4.225-2.463-6.2-6.44-6.2H2zm2.6-2.011v-8.5h.809c2.428 0 3.941 1.149 3.941 4.209 0 3.042-1.513 4.293-3.941 4.293zm12.111-3.144L17.1-10.3a86.5 86.5 0 0 0 1.108-4.09h.07c.387 1.352.739 2.789 1.144 4.09l.387 1.369zm4.575 5.155h2.727L19.825-16.28h-3.061l-4.17 12.507h2.639l.915-3.211h4.223zm5.4 0h2.6V-14.2h3.695v-2.08h-9.953v2.08h3.66zm9.976-5.155.388-1.372a86.5 86.5 0 0 0 1.108-4.09h.07c.387 1.352.739 2.789 1.144 4.09l.387 1.369zm4.575 5.155h2.727L39.778-16.28h-3.062l-4.17 12.507h2.639l.915-3.211h4.223zm8.076 0H57.2v-2.1h-5.282V-16.28h-2.6zm12.423-5.155.387-1.369a86.5 86.5 0 0 0 1.108-4.09h.07c.387 1.352.739 2.789 1.144 4.09l.387 1.369zm4.574 5.155h2.727L64.85-16.28h-3.062l-4.17 12.507h2.639l.915-3.211H65.4zm4.17 0h4.645c2.868 0 5.05-1.166 5.05-3.685a2.874 2.874 0 0 0-2.446-2.958v-.084a2.833 2.833 0 0 0 1.777-2.7c0-2.332-2.041-3.076-4.715-3.076H70.48zm2.6-7.42v-3.177h1.548c1.566 0 2.34.439 2.34 1.538 0 1-.721 1.639-2.375 1.639zm0 5.493v-3.633h1.82c1.795 0 2.745.507 2.745 1.724 0 1.3-.968 1.91-2.745 1.91z" transform="translate(129.899 42.938)"/>
        <path id="패스_15032" data-name="패스 15032" d="M7.153-3.588A5.356 5.356 0 0 0 11.3-5.433L9.933-6.99a3.677 3.677 0 0 1-2.692 1.235c-2.059 0-3.4-1.642-3.4-4.367 0-2.691 1.478-4.316 3.449-4.316a3.416 3.416 0 0 1 2.393 1.049l1.372-1.591a5.406 5.406 0 0 0-3.818-1.608c-3.29 0-6.053 2.421-6.053 6.551.004 4.181 2.678 6.449 5.969 6.449zm8.6-5.4.387-1.371a85.01 85.01 0 0 0 1.108-4.1h.07c.387 1.354.739 2.793 1.144 4.1l.387 1.371zm4.575 5.163h2.727l-4.184-12.526h-3.062l-4.17 12.526h2.639l.915-3.216h4.223zM27.1-14.371h1.689c1.671 0 2.586.457 2.586 1.811 0 1.337-.915 2.014-2.586 2.014H27.1zm7.39 10.546-3.039-5.129a3.591 3.591 0 0 0 2.481-3.605c0-2.878-2.164-3.792-4.891-3.792H24.5v12.526h2.6v-4.74h1.812l2.674 4.74zm1.918 0h8.181v-2.1h-5.573v-3.35h4.575v-2.1h-4.575v-2.895H44.4v-2.082h-7.988zm10.733 0h2.463v-5.027c0-1.439-.194-3.013-.317-4.367h.088l1.32 2.691 3.765 6.7h2.64v-12.523h-2.46v4.993a43.158 43.158 0 0 0 .334 4.384h-.088l-1.3-2.708-3.786-6.669h-2.655zm15.54-5.163.387-1.371a85.01 85.01 0 0 0 1.108-4.1h.07c.387 1.354.739 2.793 1.144 4.1l.387 1.371zm4.575 5.163h2.727L65.8-16.351h-3.066l-4.17 12.526H61.2l.915-3.216h4.223zm5.4 0h2.6v-10.444h3.695v-2.082H69v2.082h3.66zm8.322 0h2.6v-12.526h-2.6zm10.891.237c3.449 0 5.824-2.488 5.824-6.551s-2.375-6.449-5.824-6.449-5.824 2.37-5.824 6.449c.002 4.063 2.377 6.551 5.825 6.551zm0-2.167c-1.935 0-3.167-1.71-3.167-4.384 0-2.691 1.232-4.3 3.167-4.3s3.167 1.608 3.167 4.3c.002 2.675-1.23 4.384-3.166 4.384zm8.287 1.93h2.463v-5.027c0-1.439-.194-3.013-.317-4.367h.088l1.32 2.691 3.765 6.7h2.639v-12.523h-2.463v4.993a43.159 43.159 0 0 0 .334 4.384h-.085l-1.3-2.708-3.783-6.669h-2.657z" transform="translate(15.886 43)" style="fill:#1073ba"/>
        <circle id="타원_43" data-name="타원 43" class="cls-1" cx="2" cy="2" r="2" transform="translate(213.074 35.164)"/>
    </g>
</svg>
