<svg xmlns="http://www.w3.org/2000/svg" width="153.65" height="15.842" viewBox="0 0 153.65 15.842">
    <defs>
        <clipPath id="3elj28b63a">
            <path data-name="사각형 11261" style="fill:#003cdc" d="M0 0h45.449v12.853H0z"/>
        </clipPath>
    </defs>
    <g data-name="그룹 35206">
        <g data-name="그룹 35205" transform="translate(108.201 1.495)" style="clip-path:url(#3elj28b63a)">
            <path data-name="패스 59549" d="M3.734 3.985a5.557 5.557 0 0 1-1.055 1.544 7.564 7.564 0 0 1-1.649 1.32L0 5.647a6.168 6.168 0 0 0 1.966-1.741 4.236 4.236 0 0 0 .858-2.52V.277h1.715v1.082A3.754 3.754 0 0 0 5.4 3.734a5.281 5.281 0 0 0 1.9 1.5l-.927 1.258a6.168 6.168 0 0 1-2.639-2.507m-.91 3.457h6.927V12.5H2.824zm1.623 3.681h3.668v-2.3H4.447zm5.3-4.156H8.115V0h1.636v2.771h1.913v1.385H9.751z" style="fill:#003cdc"/>
            <path data-name="패스 59550" d="M157.846 5.515a4.926 4.926 0 0 1-1.029-1.32 5.123 5.123 0 0 1-1.017 1.479 8.617 8.617 0 0 1-1.676 1.372l-1.016-1.227a7.351 7.351 0 0 0 2.019-1.834 4.042 4.042 0 0 0 .792-2.375V.277h1.742v1.306a3.578 3.578 0 0 0 .831 2.375 5.524 5.524 0 0 0 1.887 1.465l-.924 1.28a7.158 7.158 0 0 1-1.61-1.188m4.407 6.559a3.58 3.58 0 0 1-2.335.779 3.48 3.48 0 0 1-2.309-.779 2.717 2.717 0 0 1-.91-2.111 2.693 2.693 0 0 1 .91-2.072 3.368 3.368 0 0 1 2.309-.818 3.462 3.462 0 0 1 2.335.818 2.857 2.857 0 0 1 0 4.183m-1.161-3.193a1.749 1.749 0 0 0-1.174-.422 1.514 1.514 0 1 0 0 3.022 1.509 1.509 0 0 0 1.636-1.517 1.491 1.491 0 0 0-.462-1.082m.633-5.239h-2.309V2.19h2.309V0h1.636v7.033h-1.636z" transform="translate(-141.544)" style="fill:#003cdc"/>
            <path data-name="패스 59551" d="M310.741 8.009v-.871a2.254 2.254 0 0 1-1.94-2.217 2.092 2.092 0 0 1 .765-1.557h-1.6V2.058h7.1v1.307h-1.544a2.131 2.131 0 0 1 .752 1.583 2.176 2.176 0 0 1-1.887 2.177v.8a69.839 69.839 0 0 0 3.351-.264V0h1.623v4.17h1.847v1.385h-1.847v5.515h-1.623V8.986c-2.573.29-5.212.488-7.917.567l-.158-1.478c1.029 0 2.045-.026 3.074-.066M309.9.053h3.233v1.372H309.9zm.462 4.869a1.187 1.187 0 0 0 2.349 0 1.185 1.185 0 0 0-2.349 0" transform="translate(-284.427)" style="fill:#003cdc"/>
            <path data-name="패스 59552" d="M465.845 5.119a5.008 5.008 0 0 0 1.728 1.834l-.973 1.254a6.6 6.6 0 0 1-1.333-1.254 4.11 4.11 0 0 1-.844-1.385 6.1 6.1 0 0 1-2.164 2.89l-1.016-1.2a6.607 6.607 0 0 0 1.768-2.085 7.023 7.023 0 0 0 .554-3.088h-1.926V.713h5.449v1.372H465.2a6.242 6.242 0 0 0 .647 3.035m4.407-.277h-1v5.766h-1.583V.158h1.583v3.3h1V0h1.6v11.057h-1.6z" transform="translate(-426.4)" style="fill:#003cdc"/>
        </g>
    </g>
    <g data-name="그룹 22702">
        <path data-name="패스 1058" d="m113.14 103.1-2.334-1.858a12.675 12.675 0 0 1 2.009-2.6 19.263 19.263 0 0 1 3.628-3.045c.533-.41 2.1-1.334 2.543-2.273a2.455 2.455 0 0 0-.218-2.447 2.732 2.732 0 0 0-2.595-.811c-1.222.283-1.962 1.324-2.66 3.265a9.345 9.345 0 0 1-1.728 3.257 5.961 5.961 0 0 1-2.685 1.692 5.6 5.6 0 0 1-2.743.11 5.341 5.341 0 0 1-2.425-1.216 6 6 0 0 1-1.956-4.287 5.37 5.37 0 0 1 1.792-4.069 5.566 5.566 0 0 1 2.765-1.47 5.173 5.173 0 0 1 2.485.145 6.44 6.44 0 0 1 2.317 1.274l-1.874 2.02.008.007a3.734 3.734 0 0 0-1.327-.7 2.442 2.442 0 0 0-2.473.715 2.672 2.672 0 0 0-.925 2.036 3.283 3.283 0 0 0 1.032 2.28 2.689 2.689 0 0 0 2.532.523c.694-.2 1.772-.925 2.53-3.033a9.575 9.575 0 0 1 1.861-3.55 5.633 5.633 0 0 1 2.843-1.676 5.512 5.512 0 0 1 5.3 1.669A4.753 4.753 0 0 1 122.1 92.6a5.149 5.149 0 0 1-1.881 3.482c-1.053.955-2.462 1.756-3.99 3.242a15.673 15.673 0 0 0-3.09 3.773" transform="translate(-101.976 -87.254)" style="fill:#7e4f40"/>
        <g data-name="그룹 765">
            <path data-name="패스 1059" d="M448.307 112.6a10.629 10.629 0 0 1-.25 2.6h1.107v-3.094h1.792v10.178h-1.792V116.8h-1.647a7.351 7.351 0 0 1-3.6 3.575l-1.067-1.443a5.793 5.793 0 0 0 2.819-2.3l-2.306.221-.277-1.586 3.188-.169a7.251 7.251 0 0 0 .132-.936h-2.938V112.6zm3.254-.65h1.845v10.841h-1.845z" transform="translate(-416.17 -110.012)" style="fill:#7e4f40"/>
            <path data-name="패스 1060" d="M603.037 112.576a3.209 3.209 0 0 1 3.307 2.665h1.634v-3.289h1.871v10.828h-1.871v-6.006h-1.634a3.177 3.177 0 0 1-3.307 2.626 3.412 3.412 0 0 1 0-6.825zm0 5.174a1.593 1.593 0 0 0 1.528-1.768 1.544 1.544 0 1 0-1.528 1.768z" transform="translate(-560.636 -110.012)" style="fill:#7e4f40"/>
            <path data-name="패스 1061" d="M759.628 119.284a23.139 23.139 0 0 1-5.217.325v-7.072h1.858v5.356a12.967 12.967 0 0 0 3.135-.234zm.764 3.016v-6.123h-2.358v-1.56h2.358v-2.509h1.779V122.3zm2.582-10.347h1.831v10.841h-1.831z" transform="translate(-703.249 -110.012)" style="fill:#7e4f40"/>
            <path data-name="패스 1062" d="M911.732 112.576a3.412 3.412 0 0 1 0 6.825 3.412 3.412 0 0 1 0-6.825zm0 5.174a1.583 1.583 0 0 0 1.515-1.768 1.56 1.56 0 0 0-1.515-1.742 1.536 1.536 0 0 0-1.5 1.742 1.559 1.559 0 0 0 1.5 1.768zm4.809-5.8h1.884v10.83h-1.884z" transform="translate(-845.089 -110.012)" style="fill:#7e4f40"/>
            <path data-name="패스 1063" d="M1065.19 118.9a5.712 5.712 0 0 1-2.675-2.512 6.077 6.077 0 0 1-2.661 2.8l-1.094-1.38a4.8 4.8 0 0 0 2.727-4.139V112.2h2v1.445a4.253 4.253 0 0 0 2.661 3.84zm-3.161 4.868v-4.3h1.883v2.733h5.586v1.562zm5.362-3.384v-3.462h-2.082v-1.5h2.082v-.794h-2.082v-1.51h2.082v-1.341h1.87v8.6z" transform="translate(-983.686 -109.858)" style="fill:#7e4f40"/>
        </g>
    </g>
    <g data-name="그룹 22703">
        <path data-name="사각형 4061" transform="translate(93.801 2.556)" style="fill:none" d="M0 0h8v10H0z"/>
        <path data-name="패스 24179" d="m104.542 187.173-6.23 6.23" transform="translate(-3.769 -182.708)" style="stroke:#4b4b4b;stroke-linecap:round;stroke-width:1.5px;fill:none"/>
        <path data-name="패스 24180" d="m98.312 187.173 6.23 6.23" transform="translate(-3.769 -182.708)" style="stroke:#4b4b4b;stroke-linecap:round;stroke-width:1.5px;fill:none"/>
    </g>
</svg>
