<svg xmlns="http://www.w3.org/2000/svg" width="107.999" height="17" viewBox="0 0 107.999 17">
  <g id="header_logo_care" transform="translate(24164 18625)">
    <g id="그룹_33105" data-name="그룹 33105" transform="translate(-24164 -18624.43)">
      <path id="패스_49105" data-name="패스 49105" d="M14.186,17.788l-2.3-1.827a12.419,12.419,0,0,1,1.975-2.553,18.953,18.953,0,0,1,3.567-2.994c.524-.4,2.062-1.312,2.5-2.234a2.413,2.413,0,0,0-.214-2.406,2.686,2.686,0,0,0-2.55-.8c-1.2.279-1.929,1.3-2.615,3.21a9.2,9.2,0,0,1-1.7,3.2,5.85,5.85,0,0,1-2.64,1.665,5.493,5.493,0,0,1-2.7.108,5.244,5.244,0,0,1-2.383-1.2A5.9,5.9,0,0,1,3.211,7.752a5.28,5.28,0,0,1,1.762-4A5.474,5.474,0,0,1,7.691,2.306a5.079,5.079,0,0,1,2.443.143A6.321,6.321,0,0,1,12.412,3.7L10.57,5.687l.008.007a3.681,3.681,0,0,0-1.305-.685,2.4,2.4,0,0,0-2.43.7,2.623,2.623,0,0,0-.91,2A3.229,3.229,0,0,0,6.947,9.955a2.648,2.648,0,0,0,2.489.514c.682-.2,1.742-.909,2.488-2.982A9.406,9.406,0,0,1,13.753,4,5.538,5.538,0,0,1,16.547,2.35a5.419,5.419,0,0,1,5.214,1.641,4.669,4.669,0,0,1,1.233,3.478,5.062,5.062,0,0,1-1.848,3.423c-1.036.938-2.421,1.726-3.922,3.187a15.38,15.38,0,0,0-3.038,3.709" transform="translate(-3.21 -2.214)" fill="#333"/>
      <g id="그룹_33112" data-name="그룹 33112" transform="translate(27.004 0.001)">
        <path id="패스_53788" data-name="패스 53788" d="M225.469,1743.9a8.975,8.975,0,0,1-.63,3.168,8.489,8.489,0,0,1-1.554,2.486,9.627,9.627,0,0,1-2.262,1.839,12.8,12.8,0,0,1-2.737,1.208l-1-1.692a9.718,9.718,0,0,0,2.261-.881,8.531,8.531,0,0,0,1.744-1.252,6.55,6.55,0,0,0,1.2-1.493,5.148,5.148,0,0,0,.613-1.623h-5.024V1743.9Zm-4.7,14.866v-5.663h2.107v3.85h7.441v1.813Zm9.1-9.98v5.145h-2.124v-10.86h2.124v3.937h2.538v1.778Z" transform="translate(-217.285 -1743.059)" fill="#333"/>
        <path id="패스_53789" data-name="패스 53789" d="M261.635,1751.3v-7.615h2.106v2.02h3.436v-2.02h2.089v1.122h3.125v-1.778H274.5v9.03h-2.107v-1.934h-3.125v1.175Zm5.542-3.833h-3.436v2.054h3.436Zm7.165,8.27a3.515,3.515,0,0,1-.32,1.51,3.278,3.278,0,0,1-.9,1.157,4.191,4.191,0,0,1-1.373.734,5.894,5.894,0,0,1-3.453,0,4.191,4.191,0,0,1-1.373-.734,3.367,3.367,0,0,1-.906-1.157,3.438,3.438,0,0,1-.328-1.51,3.267,3.267,0,0,1,.328-1.45,3.566,3.566,0,0,1,.906-1.166,4.248,4.248,0,0,1,1.373-.768,5.534,5.534,0,0,1,3.453,0,4.248,4.248,0,0,1,1.373.768,3.467,3.467,0,0,1,.9,1.166A3.339,3.339,0,0,1,274.342,1755.737Zm-2.089,0a1.68,1.68,0,0,0-.172-.76,1.884,1.884,0,0,0-.466-.6,2.124,2.124,0,0,0-.7-.389,2.751,2.751,0,0,0-.889-.138,2.362,2.362,0,0,0-1.6.526,1.833,1.833,0,0,0,0,2.737,2.389,2.389,0,0,0,1.6.518,2.432,2.432,0,0,0,1.6-.518A1.7,1.7,0,0,0,272.253,1755.737Zm.138-7.355V1746.6h-3.125v1.779Z" transform="translate(-244.918 -1743.03)" fill="#333"/>
        <path id="패스_53790" data-name="패스 53790" d="M323.021,1753.573a10.27,10.27,0,0,1-1.027-.785,9.223,9.223,0,0,1-.95-.95,9.634,9.634,0,0,1-.794-1.053,6.2,6.2,0,0,1-.578-1.113,7.076,7.076,0,0,1-1.321,2.3,9.757,9.757,0,0,1-2.166,1.917l-1.347-1.571a7.986,7.986,0,0,0,2.7-2.7,7.409,7.409,0,0,0,.993-3.894v-2.072h2.244v2a7.71,7.71,0,0,0,.259,2.037,7.146,7.146,0,0,0,.725,1.744,6.772,6.772,0,0,0,1.122,1.433,8.12,8.12,0,0,0,1.45,1.122Zm3.246,3.747v-8.443h-2.953v-1.9h2.953v-3.9h2.124v14.244Z" transform="translate(-280.069 -1743.059)" fill="#333"/>
        <path id="패스_53791" data-name="패스 53791" d="M359.508,1753.193v-9.41h2.107v3.056h3.367v-3.056h2.107v9.41Zm5.473-4.558h-3.367v2.78h3.367Zm4.852-5.559h2.107v14.244h-2.107Z" transform="translate(-307.903 -1743.059)" fill="#333"/>
        <path id="패스_53792" data-name="패스 53792" d="M399.272,1756.691v-1.761h14.4v1.761Zm8.408-11.965v.9a4.185,4.185,0,0,0,.423,1.9,5.25,5.25,0,0,0,1.114,1.493,6.92,6.92,0,0,0,1.58,1.1,10.239,10.239,0,0,0,1.839.734l-.949,1.8a10.381,10.381,0,0,1-3.168-1.571,6.825,6.825,0,0,1-2.046-2.4,5.847,5.847,0,0,1-.846,1.321,7.077,7.077,0,0,1-1.191,1.114,9.584,9.584,0,0,1-1.476.9,11.616,11.616,0,0,1-1.683.673l-.95-1.813a9.693,9.693,0,0,0,1.848-.716,6.552,6.552,0,0,0,1.58-1.114,5.262,5.262,0,0,0,1.1-1.511,4.313,4.313,0,0,0,.414-1.908v-.9Z" transform="translate(-332.677 -1744.087)" fill="#333"/>
      </g>
    </g>
    <rect id="사각형_10467" data-name="사각형 10467" width="92.086" height="17" transform="translate(-24163 -18625)" fill="none"/>
  </g>
</svg>
