<svg xmlns="http://www.w3.org/2000/svg" xmlns:xlink="http://www.w3.org/1999/xlink" width="134" height="26" viewBox="0 0 134 26">
    <defs>
        <radialGradient id="radial-gradient" cx=".5" cy=".5" r=".593" gradientTransform="matrix(.698 -.716 .686 .669 -.192 .524)" gradientUnits="objectBoundingBox">
            <stop offset="0" stop-color="#cbcbcb"/>
            <stop offset="1" stop-color="#8e8e8e"/>
        </radialGradient>
        <radialGradient id="radial-gradient-2" cx=".5" cy=".5" r=".658" gradientUnits="objectBoundingBox">
            <stop offset="0" stop-color="#c8c8c8"/>
            <stop offset="1" stop-color="#9a9898"/>
        </radialGradient>
        <radialGradient id="radial-gradient-3" cx=".5" cy=".5" r=".5" gradientUnits="objectBoundingBox">
            <stop offset="0" stop-color="#f3e0b2"/>
            <stop offset="1" stop-color="#e5a517"/>
        </radialGradient>
        <linearGradient id="linear-gradient" x1=".006" y1=".531" x2="1.004" y2=".484" gradientUnits="objectBoundingBox">
            <stop offset="0" stop-color="#ffbc00"/>
            <stop offset=".467" stop-color="#fff364"/>
            <stop offset=".736" stop-color="#ffc535"/>
            <stop offset=".768" stop-color="#e6b230"/>
            <stop offset=".846" stop-color="#b08726"/>
            <stop offset=".914" stop-color="#88681f"/>
            <stop offset=".967" stop-color="#6f551b"/>
            <stop offset="1" stop-color="#674f1a"/>
        </linearGradient>
        <linearGradient id="linear-gradient-4" x1=".651" y1=".186" x2=".393" y2="1.153" gradientUnits="objectBoundingBox">
            <stop offset="0" stop-color="#c2c1c1"/>
            <stop offset=".166" stop-color="#d5d5d5"/>
            <stop offset=".419" stop-color="#c7c7c7"/>
            <stop offset=".495" stop-color="#b9b9b9"/>
            <stop offset=".561" stop-color="#d6d6d6"/>
            <stop offset=".61" stop-color="#bbb"/>
            <stop offset=".885" stop-color="#d8d8d8"/>
            <stop offset="1" stop-color="#e3e3e3"/>
        </linearGradient>
        <linearGradient id="linear-gradient-5" x1=".349" y1=".186" x2=".607" y2="1.153" xlink:href="#linear-gradient-4"/>
        <style>
            .cls-3{fill:url(#linear-gradient)}
        </style>
    </defs>
    <g id="imgMain_1st_m" transform="translate(-311.443 -168.333)">
        <path id="패스_15820" data-name="패스 15820" d="M6.1-14.864H2.88v-10.975h4.385v1.553H4.629v7.869h1.827a3.171 3.171 0 0 0 1.905-.418v-9.148H10.1v4.528h.927v-4.593h1.736v11.979h-1.74v-5.82H10.1v5.676H8.361v-1.161a3.773 3.773 0 0 1-2.261.51zM16.778-26.4h1.788v1.2h2.466v1.475h-6.825V-25.2h2.571zm-2.218 5.7a2.281 2.281 0 0 1 .744-1.736 3.4 3.4 0 0 1 2.336-.783 3.464 3.464 0 0 1 2.349.783 2.328 2.328 0 0 1 .744 1.736 2.32 2.32 0 0 1-.744 1.723 3.4 3.4 0 0 1-2.349.783 3.343 3.343 0 0 1-2.336-.783 2.273 2.273 0 0 1-.745-1.723zm1.723 0a.915.915 0 0 0 .274.679 1.526 1.526 0 0 0 1.083.391 1.537 1.537 0 0 0 1.1-.391.915.915 0 0 0 .274-.679.924.924 0 0 0-.274-.692 1.537 1.537 0 0 0-1.1-.391 1.526 1.526 0 0 0-1.083.391.924.924 0 0 0-.275.692zm7.882-2.088h1.657v1.566h-1.659v3.928h-1.787v-8.756h1.788zm-7.125 7.216h7.334v1.553h-9.123V-17.7h1.788zM26.63-25.9h5.964v6.616H26.63zm1.749 1.527v3.562h2.466v-3.562zm6.185 6.733v-8.4h1.788v8.4zm-7.242 3.628v-4.241h1.788v2.688h7.45v1.553zM46.36-24.364H38.8V-25.9h9.343v2.218a6.684 6.684 0 0 1-.209 1.866h-1.743a7.611 7.611 0 0 0 .17-1.8zm-8.234 3.132H48.9v1.553h-4.51v1.605h3.758v4.2H46.36v-2.662H38.8v-1.54h3.823v-1.604h-4.5z" transform="translate(323.506 204.157)" style="fill:url(#radial-gradient)"/>
        <path id="패스_15819" data-name="패스 15819" d="M6.226-23.991H2.194v-1.54h5.82v1.031c0 3.876-2.062 5.781-6.094 6.225v-1.553c2.923-.392 4.306-1.854 4.306-4.163zm5.52 1.448H13.4v1.553h-1.654v3.719H9.958v-8.4h1.788zM4.621-15.2h7.334v1.553H2.833v-4.241h1.788zm13.741-8.547v-1.788H20.1v1.135h2.049v-1.279h1.788v7.125h-1.791v-1.67H20.1v1.024h-5.888v-6.329h1.749v1.788zm1.736.861v1.161h2.049v-1.161zm-1.736.652h-2.4v1.514h2.4zm-3.589 6.264a2.047 2.047 0 0 1 1.135-1.866 7.711 7.711 0 0 1 3.576-.679 7.676 7.676 0 0 1 3.576.679 2.035 2.035 0 0 1 1.148 1.866 2.03 2.03 0 0 1-1.148 1.853 7.676 7.676 0 0 1-3.576.679 7.711 7.711 0 0 1-3.576-.679 2.041 2.041 0 0 1-1.134-1.849zm1.788 0a.671.671 0 0 0 .378.6 5.567 5.567 0 0 0 2.545.418 5.594 5.594 0 0 0 2.558-.418.7.7 0 0 0 .378-.6.667.667 0 0 0-.378-.6 5.393 5.393 0 0 0-2.558-.43 5.367 5.367 0 0 0-2.545.431.645.645 0 0 0-.378.603zm9.317-6.551A3.3 3.3 0 0 1 26.9-25.27a2.481 2.481 0 0 1 1.566-.47 2.481 2.481 0 0 1 1.566.47 3.3 3.3 0 0 1 1.018 2.753 3.332 3.332 0 0 1-1.018 2.753 2.563 2.563 0 0 1-1.566.47 2.563 2.563 0 0 1-1.566-.47 3.332 3.332 0 0 1-1.021-2.753zm1.644 0A2.153 2.153 0 0 0 27.914-21a.738.738 0 0 0 .548.209.738.738 0 0 0 .548-.209 2.161 2.161 0 0 0 .378-1.514 2.2 2.2 0 0 0-.378-1.527.738.738 0 0 0-.548-.209.738.738 0 0 0-.548.209 2.192 2.192 0 0 0-.391 1.524zm6.733-3.158h1.709v6.479h-1.708v-2.4h-.926v2.336h-1.684v-6.346h1.684v2.453h.926zm-.078 6.9h1.788v5.207h-9.108v-5.207h1.788v1.214h5.533zm-5.533 2.727v.953h5.533v-.953z" transform="translate(394.589 203.611)" style="fill:url(#radial-gradient-2)"/>
        <g id="그룹_7410" data-name="그룹 7410" transform="translate(371.909 168.333)">
            <path id="패스_15801" data-name="패스 15801" class="cls-3" d="m145.782 56.329.811 2.495h2.623l-2.122 1.542.81 2.495-2.122-1.542-2.122 1.541.81-2.495-2.122-1.542h2.623z" transform="translate(-133.357 -56.329)"/>
            <path id="패스_15802" data-name="패스 15802" class="cls-3" d="m179.446 61.451.811 2.495h2.623l-2.122 1.542.811 2.495-2.122-1.542-2.122 1.542.811-2.495-2.122-1.542h2.623z" transform="translate(-157.831 -60.031)"/>
            <path id="패스_15803" data-name="패스 15803" class="cls-3" d="m112.85 61.451.81 2.495h2.623l-2.122 1.542.811 2.495-2.122-1.542-2.122 1.542.81-2.495-2.122-1.542h2.623z" transform="translate(-109.416 -60.031)"/>
        </g>
        <path id="패스_15822" data-name="패스 15822" d="M7.913-14.246v-10.322H6.334L3.75-23.394v1.723L6.06-22.7v8.456zm5.115-9.513v1.359h7.556v1.475H11.24v-4.335h9.265v1.5zm-2.545 3.693h10.779v1.514H10.483zm.548 4.606a1.863 1.863 0 0 1 1.031-1.74 8.382 8.382 0 0 1 3.823-.639 8.382 8.382 0 0 1 3.823.639 1.841 1.841 0 0 1 1.032 1.74 1.81 1.81 0 0 1-1.031 1.723 8.19 8.19 0 0 1-3.823.652 8.19 8.19 0 0 1-3.823-.652 1.831 1.831 0 0 1-1.031-1.723zm1.788 0a.573.573 0 0 0 .352.535 6.646 6.646 0 0 0 2.714.326 6.646 6.646 0 0 0 2.714-.326.573.573 0 0 0 .352-.535.6.6 0 0 0-.352-.548 6.887 6.887 0 0 0-2.714-.326 6.887 6.887 0 0 0-2.714.326.6.6 0 0 0-.352.548z" transform="translate(371.899 203.033)" style="fill:url(#radial-gradient-3)"/>
        <path id="패스_15824" data-name="패스 15824" d="M829.687 105.663a2.8 2.8 0 0 0-1.366.713 14.458 14.458 0 0 0 .406-1.429 2.948 2.948 0 0 0 1.779.023 3.077 3.077 0 0 0 1.478-1.319 3.077 3.077 0 0 0-1.979-.094 2.754 2.754 0 0 0-1.168.871 14.642 14.642 0 0 0 .206-1.5 2.533 2.533 0 0 0 1.451-.261 2.7 2.7 0 0 0 1.077-1.366 2.7 2.7 0 0 0-1.726.221 2.292 2.292 0 0 0-.76.739q.026-.647 0-1.33a2.39 2.39 0 0 0 1.321-.478 2.53 2.53 0 0 0 .77-1.434 2.528 2.528 0 0 0-1.555.484 2.139 2.139 0 0 0-.578.8c-.029-.346-.069-.7-.123-1.057a2.161 2.161 0 0 0 1.21-.432 2.279 2.279 0 0 0 .7-1.293 2.279 2.279 0 0 0-1.4.436 2.007 2.007 0 0 0-.575.853q-.091-.523-.218-1.063a1.927 1.927 0 0 0 1.054-.571 1.98 1.98 0 0 0 .4-1.211 1.981 1.981 0 0 0-1.134.585 1.819 1.819 0 0 0-.383.943q-.141-.565-.325-1.148a1.764 1.764 0 0 0 .869-.684 1.805 1.805 0 0 0 .167-1.15 1.805 1.805 0 0 0-.925.7 1.634 1.634 0 0 0-.2.864q-.173-.526-.382-1.067a1.676 1.676 0 0 0 .724-.793.59.59 0 1 0-.774-.289 1.566 1.566 0 0 0-.029.884c-.1-.245-.2-.493-.309-.743a1.239 1.239 0 0 0 .529-.583.436.436 0 1 0-.572-.214l-.018.054a.928.928 0 0 0-.049-.138.436.436 0 1 0-.556.254 1.239 1.239 0 0 0 .571.546l.014.034a1.151 1.151 0 0 0-.713-.061 1.185 1.185 0 0 0-.6.474 1.185 1.185 0 0 0 .759.081 1.157 1.157 0 0 0 .576-.439c.064.154.181.446.32.855a1.546 1.546 0 0 0-.94-.073 1.6 1.6 0 0 0-.809.64 1.6 1.6 0 0 0 1.026.11 1.546 1.546 0 0 0 .759-.568c.111.331.233.728.354 1.183a1.614 1.614 0 0 0-.923-.222 1.706 1.706 0 0 0-.967.522 1.706 1.706 0 0 0 1.055.3 1.629 1.629 0 0 0 .879-.434 21 21 0 0 1 .256 1.127 1.71 1.71 0 0 0-.877-.355 1.872 1.872 0 0 0-1.144.38 1.872 1.872 0 0 0 1.083.53 1.76 1.76 0 0 0 .992-.277c.068.372.129.765.18 1.174a2 2 0 0 0-.957-.614 2.155 2.155 0 0 0-1.373.2 2.156 2.156 0 0 0 1.121.818 2.064 2.064 0 0 0 1.24-.14c.05.457.085.933.1 1.424a2.238 2.238 0 0 0-1.089-.712 2.389 2.389 0 0 0-1.522.224 2.389 2.389 0 0 0 1.243.907 2.288 2.288 0 0 0 1.375-.155c.009.531-.005 1.078-.049 1.637a2.384 2.384 0 0 0-1.007-.941 2.553 2.553 0 0 0-1.644-.047 2.553 2.553 0 0 0 1.14 1.185 2.452 2.452 0 0 0 1.486.09c-.048.5-.118 1-.218 1.507a2.639 2.639 0 0 0-.889-1.124 2.908 2.908 0 0 0-1.834-.378 2.908 2.908 0 0 0 1.044 1.555 2.755 2.755 0 0 0 1.583.4q-.146.639-.357 1.284a2.587 2.587 0 0 0-.659-1.177 2.908 2.908 0 0 0-1.741-.691 2.908 2.908 0 0 0 .759 1.712 2.741 2.741 0 0 0 1.463.662 13.733 13.733 0 0 1-.587 1.353 2.62 2.62 0 0 0-.449-1.329 2.909 2.909 0 0 0-1.594-.983 2.908 2.908 0 0 0 .45 1.818 2.767 2.767 0 0 0 1.371.921q-.309.567-.686 1.125a2.587 2.587 0 0 0-.444-1.274 2.907 2.907 0 0 0-1.594-.983 2.908 2.908 0 0 0 .45 1.818 2.709 2.709 0 0 0 1.273.888 14.612 14.612 0 0 1-1.064 1.285 2.586 2.586 0 0 0-.217-1.328 2.909 2.909 0 0 0-1.4-1.245 2.907 2.907 0 0 0 .127 1.868 2.715 2.715 0 0 0 1.108 1.1 16.83 16.83 0 0 1-2 1.71.288.288 0 1 0 .336.467 14.833 14.833 0 0 0 2.021-1.8 2.932 2.932 0 0 0 1.516.9 3.077 3.077 0 0 0 1.94-.4 3.077 3.077 0 0 0-1.667-1.071 2.725 2.725 0 0 0-1.4.155 16.358 16.358 0 0 0 1.077-1.363 2.97 2.97 0 0 0 1.7.66 3.076 3.076 0 0 0 1.841-.734 3.076 3.076 0 0 0-1.828-.765 2.789 2.789 0 0 0-1.451.453c.243-.366.48-.757.705-1.171a2.924 2.924 0 0 0 1.637.611 3.077 3.077 0 0 0 1.841-.734 3.077 3.077 0 0 0-1.828-.765 2.763 2.763 0 0 0-1.409.427 14.8 14.8 0 0 0 .611-1.4 2.961 2.961 0 0 0 1.767.342 3.077 3.077 0 0 0 1.685-1.043 3.077 3.077 0 0 0-1.941-.443zm-2.362-11.719v-.007z" transform="translate(-386.542 80.469)" style="fill:url(#linear-gradient-4);opacity:.8"/>
        <path id="패스_15825" data-name="패스 15825" d="M824.706 105.663a2.8 2.8 0 0 1 1.366.713 14.492 14.492 0 0 1-.406-1.429 2.947 2.947 0 0 1-1.778.023 3.077 3.077 0 0 1-1.479-1.319 3.077 3.077 0 0 1 1.979-.094 2.753 2.753 0 0 1 1.168.871 14.591 14.591 0 0 1-.206-1.5 2.533 2.533 0 0 1-1.451-.261 2.7 2.7 0 0 1-1.077-1.366 2.7 2.7 0 0 1 1.726.221 2.287 2.287 0 0 1 .76.739q-.026-.647 0-1.33a2.389 2.389 0 0 1-1.321-.478 2.528 2.528 0 0 1-.771-1.434 2.528 2.528 0 0 1 1.555.484 2.139 2.139 0 0 1 .578.8c.029-.346.069-.7.123-1.057a2.162 2.162 0 0 1-1.21-.432 2.28 2.28 0 0 1-.7-1.293 2.279 2.279 0 0 1 1.4.436 2.007 2.007 0 0 1 .575.853q.091-.523.218-1.063a1.927 1.927 0 0 1-1.053-.571 1.98 1.98 0 0 1-.4-1.211 1.981 1.981 0 0 1 1.134.585 1.819 1.819 0 0 1 .383.943q.141-.565.324-1.148a1.764 1.764 0 0 1-.869-.684 1.806 1.806 0 0 1-.167-1.15 1.8 1.8 0 0 1 .925.7 1.634 1.634 0 0 1 .2.864q.173-.526.382-1.067a1.675 1.675 0 0 1-.724-.793.59.59 0 1 1 .774-.289 1.566 1.566 0 0 1 .029.884q.146-.368.309-.743a1.239 1.239 0 0 1-.529-.583.436.436 0 1 1 .573-.214l.018.054a.914.914 0 0 1 .049-.138.436.436 0 1 1 .556.254 1.239 1.239 0 0 1-.571.546l-.015.034a1.152 1.152 0 0 1 .713-.061 1.185 1.185 0 0 1 .6.474 1.185 1.185 0 0 1-.759.081 1.158 1.158 0 0 1-.575-.439c-.064.154-.181.446-.32.855a1.545 1.545 0 0 1 .939-.073 1.6 1.6 0 0 1 .809.64 1.6 1.6 0 0 1-1.026.11 1.546 1.546 0 0 1-.759-.568c-.111.33-.233.728-.354 1.183a1.614 1.614 0 0 1 .923-.222 1.706 1.706 0 0 1 .967.522 1.706 1.706 0 0 1-1.055.3 1.629 1.629 0 0 1-.879-.434 21 21 0 0 0-.256 1.127 1.711 1.711 0 0 1 .877-.355 1.872 1.872 0 0 1 1.144.38 1.872 1.872 0 0 1-1.083.53 1.76 1.76 0 0 1-.989-.27 20.11 20.11 0 0 0-.179 1.174 2 2 0 0 1 .957-.614 2.155 2.155 0 0 1 1.373.2 2.154 2.154 0 0 1-1.121.818 2.063 2.063 0 0 1-1.24-.14c-.05.457-.085.933-.1 1.424a2.237 2.237 0 0 1 1.089-.712 2.39 2.39 0 0 1 1.522.224 2.389 2.389 0 0 1-1.243.907 2.288 2.288 0 0 1-1.375-.155c-.01.531.005 1.078.049 1.637a2.384 2.384 0 0 1 1.007-.941 2.553 2.553 0 0 1 1.644-.047 2.552 2.552 0 0 1-1.14 1.185 2.451 2.451 0 0 1-1.486.09c.047.5.118 1 .218 1.507a2.634 2.634 0 0 1 .889-1.124 2.908 2.908 0 0 1 1.834-.378 2.908 2.908 0 0 1-1.044 1.554 2.756 2.756 0 0 1-1.583.4q.146.639.358 1.284a2.587 2.587 0 0 1 .659-1.177 2.907 2.907 0 0 1 1.74-.691 2.908 2.908 0 0 1-.758 1.712 2.742 2.742 0 0 1-1.463.662 13.771 13.771 0 0 0 .587 1.353 2.621 2.621 0 0 1 .449-1.329 2.908 2.908 0 0 1 1.594-.983 2.909 2.909 0 0 1-.45 1.818 2.768 2.768 0 0 1-1.371.921q.309.567.686 1.125a2.585 2.585 0 0 1 .444-1.274 2.908 2.908 0 0 1 1.594-.983 2.909 2.909 0 0 1-.45 1.818 2.709 2.709 0 0 1-1.273.888 14.593 14.593 0 0 0 1.065 1.285 2.584 2.584 0 0 1 .217-1.328 2.909 2.909 0 0 1 1.4-1.245 2.908 2.908 0 0 1-.127 1.868 2.714 2.714 0 0 1-1.108 1.1 16.808 16.808 0 0 0 2 1.71.288.288 0 1 1-.336.467 14.843 14.843 0 0 1-2.021-1.8 2.932 2.932 0 0 1-1.516.9 3.078 3.078 0 0 1-1.94-.4 3.078 3.078 0 0 1 1.667-1.071 2.724 2.724 0 0 1 1.4.155 16.32 16.32 0 0 1-1.076-1.363 2.971 2.971 0 0 1-1.7.66 3.077 3.077 0 0 1-1.84-.734 3.076 3.076 0 0 1 1.828-.765 2.788 2.788 0 0 1 1.451.453c-.243-.366-.48-.757-.705-1.171a2.925 2.925 0 0 1-1.637.611 3.077 3.077 0 0 1-1.841-.734 3.077 3.077 0 0 1 1.828-.765 2.764 2.764 0 0 1 1.409.427 14.749 14.749 0 0 1-.612-1.4 2.961 2.961 0 0 1-1.767.342 3.077 3.077 0 0 1-1.685-1.043 3.076 3.076 0 0 1 1.935-.449zm2.362-11.719v-.007z" transform="translate(-510.967 80.469)" style="fill:url(#linear-gradient-5);opacity:.8"/>
    </g>
</svg>
