<svg id="_23.의식" data-name="23.의식" xmlns="http://www.w3.org/2000/svg" width="39.998" height="46" viewBox="0 0 39.998 46">
  <path id="패스_2341" data-name="패스 2341" d="M1758.982,658.563l-.14.093-.123.117c-1.457,1.38-3.694,2.971-4.491,6.082H1749.1c-.787-3.381-3.1-5.007-4.616-6.35l-.081-.073-.048-.064a12.96,12.96,0,0,1-1.939-1.658l-.966,0a12.306,12.306,0,0,0,3.276,3.394l.164.114v.034a9.672,9.672,0,0,1,2.174,2.656A9.118,9.118,0,0,1,1748,665.7h7.482a8.908,8.908,0,0,1,.9-2.548,11.175,11.175,0,0,1,2.279-2.818l.024-.024.028-.018a12.471,12.471,0,0,0,3.517-3.512l-1.077,0A13.145,13.145,0,0,1,1758.982,658.563Z" transform="translate(-1732.028 -628.833)" fill="#fff"/>
  <path id="패스_2342" data-name="패스 2342" d="M1758.989,660.414l-.028.018-.024.024a11.169,11.169,0,0,0-2.278,2.818,8.907,8.907,0,0,0-.9,2.548h-7.48a9.113,9.113,0,0,0-.934-2.792,9.665,9.665,0,0,0-2.173-2.655v-.034l-.164-.114a12.3,12.3,0,0,1-3.275-3.394c-.045-.069-.1-.133-.141-.2a.387.387,0,0,0-.53-.124.382.382,0,0,0-.123.528,13.07,13.07,0,0,0,3.586,3.787l.007.007a9.133,9.133,0,0,1,2.134,2.563,8.3,8.3,0,0,1,.85,2.533,1.485,1.485,0,0,0,.533,2.874h7.729a1.481,1.481,0,0,0,.724-2.781,8.168,8.168,0,0,1,.831-2.38,10.413,10.413,0,0,1,2.116-2.614,13.232,13.232,0,0,0,3.847-3.914.38.38,0,0,0-.119-.528.385.385,0,0,0-.53.118c-.045.07-.1.133-.146.2A12.474,12.474,0,0,1,1758.989,660.414Zm-2.61,6.9a.6.6,0,0,1-.6.6h-7.729a.594.594,0,1,1,0-1.189h7.729A.6.6,0,0,1,1756.379,667.31Z" transform="translate(-1732.31 -629.051)" fill="#555"/>
  <path id="패스_2343" data-name="패스 2343" d="M1753.846,664.835h-7.7a1.488,1.488,0,1,0,0,2.975h7.7a1.488,1.488,0,0,0,0-2.975Zm0,2.083h-7.7a.594.594,0,1,1,0-1.189h7.7a.594.594,0,1,1,0,1.189Z" transform="translate(-1730.391 -624.898)" fill="#555"/>
  <path id="패스_2344" data-name="패스 2344" d="M1751.224,666.9h-3.756a1.488,1.488,0,0,0,0,2.976h3.756a1.488,1.488,0,1,0,0-2.976Zm0,2.081h-3.756a.594.594,0,1,1,0-1.189h3.756a.594.594,0,0,1,0,1.189Z" transform="translate(-1729.738 -623.875)" fill="#555"/>
  <path id="패스_2346" data-name="패스 2346" d="M1740.207,653.686c.03.079.06.16.091.239,0-.061,0-.121.009-.181C1740.274,653.723,1740.24,653.707,1740.207,653.686Z" transform="translate(-1732.644 -630.24)" fill="#43d3e8"/>
  <path id="패스_2348" data-name="패스 2348" d="M1744.38,665.632l.048.064.081.073c1.521,1.343,3.829,2.969,4.616,6.35h5.126c.8-3.111,3.034-4.7,4.492-6.082l.123-.117.14-.093a13.194,13.194,0,0,0,3.167-2.94c-.049.026-.1.045-.153.069a3.64,3.64,0,0,1-.891.272,3.542,3.542,0,0,1-3.261,2.153l-.049,0a2.983,2.983,0,0,1-1.917.706c-.019,0-.039-.006-.058-.006s-.036.006-.056.006a3,3,0,0,1-2.957-2.464l0-.033-.01-2.543c0-.024-.009-.106-.009-.227a1.487,1.487,0,0,1,.092-.573.626.626,0,0,1,.165-.233.378.378,0,0,1,.269-.088l.008-.132a1.667,1.667,0,0,1-.459-.755.366.366,0,0,1-.074-.209v-.263l-.025-6.628a.375.375,0,0,1,.042-.167,1.657,1.657,0,0,1,.407-.824c-.03-.036-.069-.067-.095-.1a1.781,1.781,0,0,1-.243-.526,3.434,3.434,0,0,1-.119-.936c0-.133.006-.214.008-.241v-3.759a2.991,2.991,0,0,1,2.334-2.911,12.654,12.654,0,0,0-6.5-.016,2.993,2.993,0,0,1,2.39,2.927v3.759c0,.027.009.109.009.242a2.663,2.663,0,0,1-.364,1.461,1.061,1.061,0,0,1-.095.1,1.666,1.666,0,0,1,.407.822.364.364,0,0,1,.042.169l-.024,6.619,0,.013,0,.028v.23a.365.365,0,0,1-.07.2,1.672,1.672,0,0,1-.46.76l.006.13a.387.387,0,0,1,.269.09.638.638,0,0,1,.167.235,1.084,1.084,0,0,1,.062.209,2.07,2.07,0,0,1,.028.365c0,.12-.006.2-.008.224l-.01,2.543-.006.033a3,3,0,0,1-2.956,2.464c-.018,0-.036-.006-.056-.006s-.038.006-.057.006a2.989,2.989,0,0,1-1.918-.706l-.048,0a8.674,8.674,0,0,0-4.185-2.439,3.4,3.4,0,0,1-.339-.188,13.114,13.114,0,0,0,2.976,2.877Z" transform="translate(-1732.051 -635.82)" fill="#bc8877"/>
  <path id="패스_2349" data-name="패스 2349" d="M1743.859,663.113a3.525,3.525,0,0,0,3.247,2.153l.048,0a2.966,2.966,0,0,0,1.909.706c.019,0,.037,0,.057-.006s.037.006.055.006a2.989,2.989,0,0,0,2.943-2.464l.006-.033.01-2.543c0-.024.007-.1.007-.224a2.023,2.023,0,0,0-.028-.365,1.05,1.05,0,0,0-.061-.209.632.632,0,0,0-.166-.235.383.383,0,0,0-.268-.09.388.388,0,0,0-.272.132.378.378,0,0,0,0,.489h0a.947.947,0,0,1,.03.277l0,.124,0,.036v.027l-.007,2.116a.37.37,0,0,0-.084.191,2.226,2.226,0,1,1-3.388-2.108,1.369,1.369,0,0,0,.865.311,1.413,1.413,0,0,0,.39-.055,1.381,1.381,0,0,0,.61-.375.383.383,0,0,0-.556-.526.607.607,0,0,1-.271.167.634.634,0,0,1-.173.025.614.614,0,0,1-.586-.44.57.57,0,0,1-.026-.172.617.617,0,0,1,.3-.525.383.383,0,0,0-.4-.655,1.383,1.383,0,0,0-.665,1.18,1.41,1.41,0,0,0,.057.39c.006.016.013.031.019.048a2.952,2.952,0,0,0-1,3.95,2.741,2.741,0,0,1-2.107-2.675,2.623,2.623,0,0,1,.028-.393.383.383,0,0,0-.758-.111,3.344,3.344,0,0,0,.009,1.039,2.754,2.754,0,0,1-1.151-4.587,2.725,2.725,0,0,1,1.651-.777,2.829,2.829,0,0,0,5.295-.933,1.883,1.883,0,0,0,1.365-.707.383.383,0,1,0-.6-.474,1.124,1.124,0,0,1-1.959-.366.383.383,0,1,0-.731.226,1.877,1.877,0,0,0,1.172,1.211,2.078,2.078,0,1,1-3.807-1.431.383.383,0,0,0-.648-.41,2.808,2.808,0,0,0-.374,2.141,3.524,3.524,0,0,0-2.771,2.4,3.39,3.39,0,0,1,.21-5.523,2.672,2.672,0,0,0,1.125,1.646.382.382,0,1,0,.424-.635,1.914,1.914,0,0,1-.851-1.586,1.936,1.936,0,0,1,.036-.369,1.9,1.9,0,0,1,1.172-1.405.382.382,0,1,0-.279-.712,2.664,2.664,0,0,0-1.643,1.969c-.015.078-.015.154-.022.23a4.207,4.207,0,0,0-1.071.8,3.4,3.4,0,0,1,4.23-4.474,2.527,2.527,0,0,0,.323.982,2.586,2.586,0,0,0,.767.843,1.773,1.773,0,0,0-.063.461,1.755,1.755,0,0,0,1.044,1.6.383.383,0,0,0,.31-.7h0a.993.993,0,0,1-.462-.42.987.987,0,0,1,.861-1.468.957.957,0,0,1,.269.037.383.383,0,1,0,.206-.737,1.743,1.743,0,0,0-1.33.159,1.691,1.691,0,0,0-.461.39,1.869,1.869,0,0,1-.477-.544,1.711,1.711,0,0,1-.239-.8V648.3a1.551,1.551,0,0,1,1.533-1.551h.023a1.537,1.537,0,0,1,.834.248,1.369,1.369,0,0,0,.788,1.132h0a1.381,1.381,0,0,0,.571.124l.133-.006a.382.382,0,1,0-.075-.761l-.058,0a.6.6,0,0,1-.256-.055.613.613,0,0,1-.358-.556.584.584,0,0,1,.056-.253.611.611,0,0,1,.556-.357l.1.009a.383.383,0,0,0,.133-.754,1.269,1.269,0,0,0-.236-.021,1.374,1.374,0,0,0-1.2.719,2.3,2.3,0,0,0-1-.235h-.033a2.285,2.285,0,0,0-1.063.284l-.07.118a1.588,1.588,0,0,1,1.055-2.778,1.753,1.753,0,0,1,.2.019,1.712,1.712,0,0,0-.136.674,2.015,2.015,0,0,0,.058.476.383.383,0,0,0,.745-.182,1.187,1.187,0,0,1-.037-.293.98.98,0,0,1,.253-.659,1.11,1.11,0,0,1,.09-.084,2.2,2.2,0,0,1,1.413-.517,2.23,2.23,0,0,1,2.226,2.226v3.814c0,.024.006.093.006.187a2.8,2.8,0,0,1-.088.722,1.082,1.082,0,0,1-.135.3.513.513,0,0,1-.1.1,1.67,1.67,0,0,0-2.291,1.559.383.383,0,0,0,.766,0,.913.913,0,1,1,1.826,0,.37.37,0,0,0,.012.058l-.012,3.185-.012,3.291a.922.922,0,0,1-.916.893l-.106,0a.382.382,0,1,0-.034.764l.121.006h.016a1.679,1.679,0,0,0,1.613-1.223.365.365,0,0,0,.07-.2v-.23l0-.028,0-.013.024-6.619a.36.36,0,0,0-.042-.169,1.671,1.671,0,0,0-.4-.822,1.041,1.041,0,0,0,.094-.1,2.676,2.676,0,0,0,.362-1.461c0-.133-.008-.215-.009-.242v-3.759a2.989,2.989,0,0,0-2.379-2.927,2.942,2.942,0,0,0-2.22.414l-.02.006a1.782,1.782,0,0,0-.244.178c-.033,0-.066,0-.1-.006a2.323,2.323,0,0,0-2.925,1.812,3.731,3.731,0,0,0-3.144,3.461c-.081.051-.16.1-.236.159-.03.021-.057.042-.084.063a4.057,4.057,0,0,0-.333.281l-.055.049a4.534,4.534,0,0,0-.341.374c-.015.019-.028.04-.045.06a3.943,3.943,0,0,0-.242.35c-.023.036-.045.072-.067.109-.074.127-.141.257-.2.392l-.027.055a4.361,4.361,0,0,0-.169.474c-.012.04-.021.082-.031.123-.033.127-.06.256-.081.386-.007.048-.016.1-.022.145a4.3,4.3,0,0,0-.036.52,4.141,4.141,0,0,0,.471,1.906c-.052.081-.094.169-.14.253-.027.049-.055.1-.079.15a3.982,3.982,0,0,0-.173.41c-.021.058-.045.113-.063.172a3.981,3.981,0,0,0-.108.44c-.012.058-.03.117-.038.177a4.215,4.215,0,0,0-.051.638,4.327,4.327,0,0,0,.042.594c.01.07.03.138.045.206.023.121.044.244.078.36.024.082.058.161.087.241.036.1.067.2.109.295s.085.161.127.244.087.172.138.254.109.155.164.232.1.151.163.223.131.145.2.215.118.13.184.19.154.13.233.194.13.108.2.156l.066.051c.033.021.067.037.1.058,0,.06-.007.12-.009.181,0,.021,0,.04,0,.06a3.51,3.51,0,0,0,1.7,3,3.331,3.331,0,0,0,.336.188A3.548,3.548,0,0,0,1743.859,663.113Zm.413-17.593a2.329,2.329,0,0,0,.643,1.314,2.3,2.3,0,0,0-.456.9,4.086,4.086,0,0,0-2.513.081A2.982,2.982,0,0,1,1744.271,645.52Z" transform="translate(-1733.252 -635.704)" fill="#555"/>
  <path id="패스_2350" data-name="패스 2350" d="M1748.98,645.263v3.759c0,.027-.007.108-.007.241a3.459,3.459,0,0,0,.118.936,1.787,1.787,0,0,0,.242.526c.025.037.064.069.094.1a1.662,1.662,0,0,0-.405.824.373.373,0,0,0-.042.168l.025,6.628v.263a.365.365,0,0,0,.073.209,1.679,1.679,0,0,0,1.61,1.219h.01l.128-.006a.382.382,0,1,0-.036-.764l-.106,0a.922.922,0,0,1-.917-.912l-.012-3.266-.012-3.194a.335.335,0,0,0,.01-.055.914.914,0,0,1,1.828,0,.383.383,0,0,0,.766,0,1.671,1.671,0,0,0-2.292-1.559.465.465,0,0,1-.1-.1,2.029,2.029,0,0,1-.225-1.024c0-.063,0-.114,0-.148v-.037l0-.009v-3.805a2.23,2.23,0,0,1,2.227-2.226,2.207,2.207,0,0,1,1.447.544.879.879,0,0,1,.079.085.977.977,0,0,1,.23.631,1.216,1.216,0,0,1-.037.293.383.383,0,1,0,.743.182,2.021,2.021,0,0,0,.06-.476,1.7,1.7,0,0,0-.138-.674,1.747,1.747,0,0,1,.2-.019,1.588,1.588,0,0,1,1.057,2.778l-.072-.118a2.282,2.282,0,0,0-1.062-.284h-.034a2.3,2.3,0,0,0-1,.235,1.37,1.37,0,0,0-1.2-.719,1.262,1.262,0,0,0-.236.021.383.383,0,1,0,.133.754l.1-.009a.609.609,0,0,1,.554.357.589.589,0,0,1,.055.253.611.611,0,0,1-.357.556.6.6,0,0,1-.256.055l-.06,0a.382.382,0,1,0-.072.761l.131.006a1.363,1.363,0,0,0,1.362-1.256,1.531,1.531,0,0,1,.833-.248h.024A1.554,1.554,0,0,1,1756,648.3v.016a1.71,1.71,0,0,1-.241.8,1.843,1.843,0,0,1-.477.544,1.7,1.7,0,0,0-.459-.39,1.744,1.744,0,0,0-1.331-.159.382.382,0,0,0,.2.737.969.969,0,0,1,.269-.037.985.985,0,0,1,.987.988.993.993,0,0,1-.586.9.382.382,0,0,0,.308.7,1.748,1.748,0,0,0,1.042-1.6,1.777,1.777,0,0,0-.061-.461,2.566,2.566,0,0,0,.767-.843,2.524,2.524,0,0,0,.324-.982,3.394,3.394,0,0,1,4.229,4.474,4.177,4.177,0,0,0-1.071-.8c-.009-.076-.007-.151-.022-.227a2.66,2.66,0,0,0-1.643-1.971.382.382,0,1,0-.278.712,1.9,1.9,0,0,1,1.171,1.405,1.979,1.979,0,0,1,.036.371,1.911,1.911,0,0,1-.851,1.585.382.382,0,0,0,.425.635,2.671,2.671,0,0,0,1.124-1.646,3.392,3.392,0,0,1,.209,5.523,3.523,3.523,0,0,0-2.769-2.4,2.832,2.832,0,0,0-.375-2.143.383.383,0,0,0-.646.411,2.08,2.08,0,1,1-3.808,1.432,1.882,1.882,0,0,0,1.172-1.214.382.382,0,1,0-.731-.223,1.125,1.125,0,0,1-1.959.365.383.383,0,0,0-.6.474,1.893,1.893,0,0,0,1.365.707,2.83,2.83,0,0,0,5.3.933,2.748,2.748,0,0,1,.5,5.365,3.517,3.517,0,0,0,.045-.535,3.655,3.655,0,0,0-.036-.5.383.383,0,0,0-.758.111,2.65,2.65,0,0,1,.03.393,2.743,2.743,0,0,1-2.108,2.675,2.952,2.952,0,0,0,.383-1.435,2.985,2.985,0,0,0-1.381-2.515c0-.016.014-.031.018-.048a1.361,1.361,0,0,0,.057-.39,1.381,1.381,0,0,0-.664-1.18.383.383,0,1,0-.4.655.615.615,0,0,1,.295.525.637.637,0,0,1-.024.173.615.615,0,0,1-.587.438.609.609,0,0,1-.444-.193.383.383,0,0,0-.556.526,1.363,1.363,0,0,0,1,.431,1.37,1.37,0,0,0,.865-.311,2.224,2.224,0,1,1-3.388,2.108.378.378,0,0,0-.082-.191l-.009-2.116v-.027c0-.024-.006-.088-.006-.163a1.277,1.277,0,0,1,.016-.223l.013-.051h0a.379.379,0,0,0-.537-.531.62.62,0,0,0-.164.233,1.493,1.493,0,0,0-.091.572c0,.121.007.2.009.227l.01,2.543,0,.033a2.992,2.992,0,0,0,2.943,2.464c.019,0,.037-.006.055-.006s.039.006.058.006a2.959,2.959,0,0,0,1.908-.706l.05,0a3.525,3.525,0,0,0,3.246-2.153,3.61,3.61,0,0,0,.886-.272c.051-.024.1-.043.153-.069a3.518,3.518,0,0,0,1.917-3.134c0-.081-.006-.16-.012-.241.057-.036.112-.07.167-.109s.13-.1.2-.154.16-.127.236-.2.122-.126.182-.19.136-.14.2-.215.111-.15.164-.224.112-.151.161-.23.1-.174.142-.26.087-.156.122-.238c.045-.1.076-.2.112-.3.028-.079.061-.154.085-.235.033-.118.055-.242.079-.365.013-.069.033-.133.043-.2a4.107,4.107,0,0,0-.009-1.232c-.009-.061-.027-.12-.039-.179a4.234,4.234,0,0,0-.107-.435c-.02-.06-.044-.117-.065-.175a4.194,4.194,0,0,0-.17-.407c-.025-.052-.054-.1-.082-.151-.045-.085-.087-.172-.139-.253a4.142,4.142,0,0,0,.473-1.906,4.273,4.273,0,0,0-.036-.52c-.007-.049-.015-.1-.022-.145-.021-.13-.048-.259-.08-.384-.01-.042-.02-.084-.032-.126a4.26,4.26,0,0,0-.169-.471c-.009-.021-.021-.04-.03-.061a4.093,4.093,0,0,0-.2-.386c-.022-.039-.046-.076-.069-.114-.074-.118-.154-.232-.237-.342-.018-.021-.033-.043-.049-.066a4.184,4.184,0,0,0-.339-.369c-.019-.021-.042-.039-.063-.058-.1-.1-.209-.185-.321-.272l-.093-.069c-.075-.054-.152-.1-.232-.154a3.733,3.733,0,0,0-3.146-3.463,2.323,2.323,0,0,0-2.924-1.812c-.033,0-.064,0-.1.006a1.748,1.748,0,0,0-.245-.178l-.018-.006a2.97,2.97,0,0,0-1.61-.479,3.063,3.063,0,0,0-.667.081A2.988,2.988,0,0,0,1748.98,645.263Zm8.835,2.309a4.184,4.184,0,0,0-1.126.16,1.387,1.387,0,0,1,.187-2.211,2.985,2.985,0,0,1,2.326,2.294A4.142,4.142,0,0,0,1757.816,647.572Z" transform="translate(-1728.228 -635.704)" fill="#555"/>
  <line id="선_241" data-name="선 241" x2="0.003" transform="translate(26.24 10.193)" fill="none" stroke="#000" stroke-linecap="round" stroke-linejoin="round" stroke-width="0"/>
  <path id="패스_2351" data-name="패스 2351" d="M1748.521,642.346a.447.447,0,0,0,.447-.447v-2.575a.446.446,0,0,0-.893,0V641.9A.446.446,0,0,0,1748.521,642.346Z" transform="translate(-1728.699 -638.879)" fill="#555"/>
  <path id="패스_2352" data-name="패스 2352" d="M1741.566,644.331a.446.446,0,0,0,.631-.631l-1.82-1.82a.447.447,0,0,0-.631.632Z" transform="translate(-1734.432 -637.457)" fill="#555"/>
  <path id="패스_2354" data-name="패스 2354" d="M1756.082,644.331l1.82-1.818a.447.447,0,0,0-.631-.632l-1.82,1.82a.446.446,0,0,0,.631.631Z" transform="translate(-1723.568 -637.457)" fill="#555"/>
  <path id="패스_2356" data-name="패스 2356" d="M1739.169,650.456H1736.6a.446.446,0,1,0,0,.892h2.573a.446.446,0,1,0,0-.892Z" transform="translate(-1736.149 -631.803)" fill="#555"/>
  <path id="패스_2357" data-name="패스 2357" d="M1761.537,650.456h-2.573a.446.446,0,1,0,0,.892h2.573a.446.446,0,0,0,0-.892Z" transform="translate(-1721.985 -631.803)" fill="#555"/>
</svg>
