<svg xmlns="http://www.w3.org/2000/svg" width="38" height="38" viewBox="0 0 38 38">
  <g id="그룹_3303" data-name="그룹 3303" transform="translate(-502.709 -363.182)">
    <g id="그룹_3301" data-name="그룹 3301" transform="translate(502.709 363.182)">
      <path id="패스_13184" data-name="패스 13184" d="M527.712,403.689a15.5,15.5,0,1,1,15.5-15.5A15.522,15.522,0,0,1,527.712,403.689Zm0-29.535a14.031,14.031,0,1,0,14.031,14.031A14.047,14.047,0,0,0,527.712,374.154Z" transform="translate(-508.712 -369.185)" fill="#777"/>
      <g id="그룹_3286" data-name="그룹 3286" transform="translate(0 0)">
        <g id="그룹_3282" data-name="그룹 3282" transform="translate(16.581)">
          <g id="그룹_3280" data-name="그룹 3280">
            <path id="패스_13185" data-name="패스 13185" d="M551.844,364.654h-3.366a.736.736,0,0,1,0-1.472h3.366a.736.736,0,0,1,0,1.472Z" transform="translate(-547.742 -363.182)" fill="#777"/>
            <path id="패스_13186" data-name="패스 13186" d="M551.844,463.867h-3.366a.736.736,0,0,1,0-1.472h3.366a.736.736,0,1,1,0,1.472Z" transform="translate(-547.742 -425.867)" fill="#777"/>
          </g>
          <g id="그룹_3281" data-name="그룹 3281" transform="translate(1.683 0.13)">
            <path id="패스_13187" data-name="패스 13187" d="M553.051,368.113a.736.736,0,0,1-.736-.736V364.27a.736.736,0,1,1,1.472,0v3.107A.736.736,0,0,1,553.051,368.113Z" transform="translate(-552.315 -363.534)" fill="#777"/>
            <path id="패스_13188" data-name="패스 13188" d="M553.051,458.178a.736.736,0,0,1-.736-.736v-3.107a.736.736,0,1,1,1.472,0v3.107A.736.736,0,0,1,553.051,458.178Z" transform="translate(-552.315 -420.438)" fill="#777"/>
          </g>
        </g>
        <g id="그룹_3285" data-name="그룹 3285" transform="translate(0 16.581)">
          <g id="그룹_3283" data-name="그룹 3283">
            <path id="패스_13189" data-name="패스 13189" d="M503.445,413.053a.736.736,0,0,1-.736-.736v-3.366a.736.736,0,0,1,1.472,0v3.366A.736.736,0,0,1,503.445,413.053Z" transform="translate(-502.709 -408.215)" fill="#777"/>
            <path id="패스_13190" data-name="패스 13190" d="M602.658,413.053a.736.736,0,0,1-.736-.736v-3.366a.736.736,0,0,1,1.472,0v3.366A.736.736,0,0,1,602.658,413.053Z" transform="translate(-565.394 -408.215)" fill="#777"/>
          </g>
          <g id="그룹_3284" data-name="그룹 3284" transform="translate(0.129 1.683)">
            <path id="패스_13191" data-name="패스 13191" d="M506.9,414.261H503.8a.736.736,0,1,1,0-1.472H506.9a.736.736,0,1,1,0,1.472Z" transform="translate(-503.06 -412.789)" fill="#777"/>
            <path id="패스_13192" data-name="패스 13192" d="M596.97,414.261h-3.107a.736.736,0,1,1,0-1.472h3.107a.736.736,0,0,1,0,1.472Z" transform="translate(-559.965 -412.789)" fill="#777"/>
          </g>
        </g>
      </g>
      <g id="그룹_3293" data-name="그룹 3293" transform="translate(1.605 1.604)">
        <g id="그룹_3289" data-name="그룹 3289" transform="translate(6.074)">
          <g id="그룹_3287" data-name="그룹 3287">
            <path id="패스_13193" data-name="패스 13193" d="M524.289,370.7a.736.736,0,0,1-.369-1.374l2.915-1.683a.736.736,0,1,1,.736,1.275l-2.915,1.683A.732.732,0,0,1,524.289,370.7Z" transform="translate(-523.552 -367.539)" fill="#777"/>
            <path id="패스_13194" data-name="패스 13194" d="M573.9,456.617a.736.736,0,0,1-.369-1.373l2.915-1.683a.736.736,0,1,1,.736,1.275l-2.915,1.683A.731.731,0,0,1,573.9,456.617Z" transform="translate(-554.903 -421.824)" fill="#777"/>
          </g>
          <g id="그룹_3288" data-name="그룹 3288" transform="translate(1.522 0.954)">
            <path id="패스_13195" data-name="패스 13195" d="M529.979,374.295a.737.737,0,0,1-.638-.368l-1.553-2.691a.736.736,0,0,1,1.275-.736l1.553,2.691a.736.736,0,0,1-.637,1.1Z" transform="translate(-527.689 -370.131)" fill="#777"/>
            <path id="패스_13196" data-name="패스 13196" d="M575.012,452.295a.736.736,0,0,1-.638-.368l-1.554-2.691a.736.736,0,0,1,1.275-.736l1.554,2.691a.737.737,0,0,1-.637,1.1Z" transform="translate(-556.148 -419.41)" fill="#777"/>
          </g>
        </g>
        <g id="그룹_3292" data-name="그룹 3292" transform="translate(0 6.074)">
          <g id="그룹_3290" data-name="그룹 3290">
            <path id="패스_13197" data-name="패스 13197" d="M509.489,438.018a.736.736,0,0,1-.638-.368l-1.683-2.915a.736.736,0,0,1,1.275-.736l1.683,2.915a.737.737,0,0,1-.637,1.1Z" transform="translate(-507.069 -415.373)" fill="#777"/>
            <path id="패스_13198" data-name="패스 13198" d="M595.41,388.411a.737.737,0,0,1-.638-.368l-1.683-2.915a.736.736,0,0,1,1.275-.736l1.683,2.915a.736.736,0,0,1-.637,1.1Z" transform="translate(-561.354 -384.023)" fill="#777"/>
          </g>
          <g id="그룹_3291" data-name="그룹 3291" transform="translate(0.954 1.523)">
            <path id="패스_13199" data-name="패스 13199" d="M510.4,436.22a.736.736,0,0,1-.369-1.374l2.691-1.554a.736.736,0,0,1,.736,1.275l-2.691,1.554A.732.732,0,0,1,510.4,436.22Z" transform="translate(-509.66 -416.62)" fill="#777"/>
            <path id="패스_13200" data-name="패스 13200" d="M588.4,391.186a.736.736,0,0,1-.369-1.374l2.691-1.554a.736.736,0,1,1,.736,1.275l-2.691,1.554A.732.732,0,0,1,588.4,391.186Z" transform="translate(-558.939 -388.16)" fill="#777"/>
          </g>
        </g>
      </g>
      <g id="그룹_3300" data-name="그룹 3300" transform="translate(1.605 1.604)">
        <g id="그룹_3296" data-name="그룹 3296" transform="translate(6.074)">
          <g id="그룹_3294" data-name="그룹 3294">
            <path id="패스_13201" data-name="패스 13201" d="M576.809,370.7a.732.732,0,0,1-.367-.1l-2.916-1.683a.736.736,0,0,1,.736-1.275l2.915,1.683a.736.736,0,0,1-.369,1.374Z" transform="translate(-554.902 -367.539)" fill="#777"/>
            <path id="패스_13202" data-name="패스 13202" d="M527.2,456.617a.732.732,0,0,1-.367-.1l-2.915-1.683a.736.736,0,1,1,.736-1.275l2.915,1.683a.736.736,0,0,1-.369,1.373Z" transform="translate(-523.552 -421.824)" fill="#777"/>
          </g>
          <g id="그룹_3295" data-name="그룹 3295" transform="translate(1.522 0.954)">
            <path id="패스_13203" data-name="패스 13203" d="M573.458,374.295a.736.736,0,0,1-.637-1.1l1.554-2.691a.736.736,0,0,1,1.275.736l-1.553,2.691A.737.737,0,0,1,573.458,374.295Z" transform="translate(-556.149 -370.131)" fill="#777"/>
            <path id="패스_13204" data-name="패스 13204" d="M528.424,452.295a.737.737,0,0,1-.637-1.1l1.554-2.691a.736.736,0,0,1,1.275.736l-1.554,2.691A.736.736,0,0,1,528.424,452.295Z" transform="translate(-527.689 -419.41)" fill="#777"/>
          </g>
        </g>
        <g id="그룹_3299" data-name="그룹 3299" transform="translate(0 6.074)">
          <g id="그룹_3297" data-name="그룹 3297">
            <path id="패스_13205" data-name="패스 13205" d="M593.725,438.018a.737.737,0,0,1-.637-1.1L594.772,434a.736.736,0,0,1,1.275.736l-1.683,2.915A.736.736,0,0,1,593.725,438.018Z" transform="translate(-561.354 -415.373)" fill="#777"/>
            <path id="패스_13206" data-name="패스 13206" d="M507.8,388.411a.736.736,0,0,1-.637-1.1l1.683-2.915a.736.736,0,0,1,1.275.736l-1.683,2.915A.737.737,0,0,1,507.8,388.411Z" transform="translate(-507.069 -384.023)" fill="#777"/>
          </g>
          <g id="그룹_3298" data-name="그룹 3298" transform="translate(0.954 1.523)">
            <path id="패스_13207" data-name="패스 13207" d="M591.087,436.22a.732.732,0,0,1-.367-.1l-2.691-1.554a.736.736,0,1,1,.736-1.275l2.691,1.554a.736.736,0,0,1-.369,1.374Z" transform="translate(-558.939 -416.62)" fill="#777"/>
            <path id="패스_13208" data-name="패스 13208" d="M513.087,391.186a.732.732,0,0,1-.367-.1l-2.691-1.554a.736.736,0,1,1,.736-1.275l2.691,1.554a.736.736,0,0,1-.369,1.374Z" transform="translate(-509.66 -388.16)" fill="#777"/>
          </g>
        </g>
      </g>
    </g>
    <path id="패스_13209" data-name="패스 13209" d="M533.4,406.065a12.192,12.192,0,1,1,12.192-12.192A12.206,12.206,0,0,1,533.4,406.065Zm0-22.911a10.719,10.719,0,1,0,10.719,10.719A10.731,10.731,0,0,0,533.4,383.154Z" transform="translate(-11.691 -11.691)" fill="#bc8877"/>
    <g id="그룹_3302" data-name="그룹 3302" transform="translate(515.063 374.764)">
      <path id="패스_13211" data-name="패스 13211" d="M550.456,413.176a2.248,2.248,0,1,1,2.248-2.247A2.25,2.25,0,0,1,550.456,413.176Zm0-3.023a.776.776,0,1,0,.776.776A.776.776,0,0,0,550.456,410.153Z" transform="translate(-543.81 -403.51)" fill="#777"/>
      <path id="패스_13213" data-name="패스 13213" d="M565.177,421.676h0a2.248,2.248,0,1,1,1.948-1.124A2.251,2.251,0,0,1,565.177,421.676Zm0-3.024a.776.776,0,0,0-.389,1.448.792.792,0,0,0,1.059-.284.776.776,0,0,0-.67-1.164Z" transform="translate(-554.136 -406.839)" fill="#777"/>
      <path id="패스_13214" data-name="패스 13214" d="M535.732,404.677h0a2.248,2.248,0,1,1,1.948-1.124A2.247,2.247,0,0,1,535.732,404.677Zm0-3.024a.776.776,0,0,0-.389,1.447.793.793,0,0,0,1.06-.284.777.777,0,0,0-.284-1.06A.765.765,0,0,0,535.735,401.653Z" transform="translate(-533.485 -400.181)" fill="#777"/>
      <path id="패스_13215" data-name="패스 13215" d="M535.733,421.676a2.255,2.255,0,0,1-1.948-1.124,2.248,2.248,0,0,1,1.945-3.372,2.248,2.248,0,0,1,0,4.5Zm0-3.024a.776.776,0,0,0-.67,1.164.793.793,0,0,0,1.059.284.776.776,0,0,0-.389-1.448Z" transform="translate(-533.482 -406.839)" fill="#777"/>
      <path id="패스_13216" data-name="패스 13216" d="M565.18,404.677a2.248,2.248,0,1,1,1.122-.3A2.255,2.255,0,0,1,565.18,404.677Zm0-3.024a.767.767,0,0,0-.386.1.776.776,0,0,0-.284,1.06.793.793,0,0,0,1.06.284.776.776,0,0,0-.389-1.447Z" transform="translate(-554.136 -400.181)" fill="#777"/>
    </g>
  </g>
</svg>
