<svg id="_12.피딩" data-name="12.피딩" xmlns="http://www.w3.org/2000/svg" width="43" height="40" viewBox="0 0 43 40">
  <g id="패스_949" data-name="패스 949" transform="translate(-1631.904 -587.857)" fill="#386392" stroke-linecap="round" stroke-linejoin="round">
    <path d="M 1666.44677734375 627.4816284179688 C 1666.132568359375 627.4816284179688 1665.002197265625 627.443115234375 1663.65087890625 626.9476318359375 C 1661.788330078125 626.2647705078125 1660.35302734375 625.0411987304688 1659.384887695313 623.3108520507813 C 1659.304443359375 623.163330078125 1659.23095703125 623.0223999023438 1659.162109375 622.8836669921875 C 1658.08447265625 620.6795043945313 1658.097900390625 618.2965087890625 1659.204223632813 615.6005249023438 C 1660.381469726563 612.7318725585938 1662.75244140625 609.5842895507813 1666.448120117188 605.985107421875 C 1666.673828125 606.2046508789063 1666.90771484375 606.437255859375 1667.168579101563 606.7011108398438 C 1670.716552734375 610.2741088867188 1672.927856445313 613.390380859375 1673.929443359375 616.2286987304688 C 1674.851318359375 618.8412475585938 1674.71435546875 621.1578979492188 1673.510620117188 623.3109741210938 C 1672.54248046875 625.041259765625 1671.107055664063 626.2648315429688 1669.244506835938 626.9476318359375 C 1667.892944335938 627.443115234375 1666.761352539063 627.4816284179688 1666.44677734375 627.4816284179688 Z" stroke="none"/>
    <path d="M 1666.447998046875 606.5103759765625 C 1662.983520507813 609.9262084960938 1660.664428710938 613.0302124023438 1659.551147460938 615.7428588867188 C 1658.48779296875 618.3340454101563 1658.471069335938 620.6165771484375 1659.498046875 622.7169189453125 C 1659.564086914063 622.8502197265625 1659.634887695313 622.9857788085938 1659.714111328125 623.13134765625 C 1660.637329101563 624.7793579101563 1662.005249023438 625.9448852539063 1663.779907226563 626.5955810546875 C 1665.073364257813 627.0697631835938 1666.148193359375 627.1066284179688 1666.44677734375 627.1066284179688 C 1666.745727539063 627.1066284179688 1667.821899414063 627.0697631835938 1669.115356445313 626.5955810546875 C 1670.891479492188 625.9444580078125 1672.260131835938 624.7777099609375 1673.183227539063 623.1279907226563 C 1674.331298828125 621.074462890625 1674.459716796875 618.8585205078125 1673.575805664063 616.3534545898438 C 1672.606811523438 613.607421875 1670.36181640625 610.448974609375 1666.90185546875 606.9647216796875 C 1666.741821289063 606.802734375 1666.591918945313 606.6527099609375 1666.447998046875 606.5103759765625 M 1666.412841796875 605.425048828125 L 1666.44677734375 605.4593505859375 C 1666.460693359375 605.4473876953125 1666.47265625 605.4370727539063 1666.482666015625 605.425048828125 L 1666.482666015625 605.4970703125 C 1666.813232421875 605.8139038085938 1667.126953125 606.1255493164063 1667.435302734375 606.4375 C 1674.7421875 613.7958374023438 1676.2548828125 619.1707763671875 1673.837890625 623.4939575195313 C 1671.4140625 627.8258056640625 1666.820556640625 627.8566284179688 1666.44677734375 627.8566284179688 C 1666.0751953125 627.8566284179688 1661.4814453125 627.8258056640625 1659.0576171875 623.4939575195313 C 1658.977294921875 623.3466186523438 1658.900146484375 623.1994018554688 1658.826171875 623.0503540039063 C 1656.65966796875 618.6192016601563 1658.546875 613.086669921875 1666.412841796875 605.4970703125 L 1666.412841796875 605.425048828125 Z" stroke="none" fill="#555"/>
  </g>
  <path id="사각형_623" data-name="사각형 623" d="M.674,0H2.56a.674.674,0,0,1,.674.674v.962a.674.674,0,0,1-.674.674H.675A.675.675,0,0,1,0,1.635V.674A.674.674,0,0,1,.674,0Z" transform="translate(0 16.963)" fill="#555"/>
  <path id="패스_1049" data-name="패스 1049" d="M1651.955,631.08a9.316,9.316,0,0,1-9.133-9.468V614.1a.9.9,0,1,1,1.795,0v7.516a7.343,7.343,0,1,0,14.676,0V604.9a.979.979,0,0,1,.045-.293,9.323,9.323,0,0,1,18.62.957.9.9,0,1,1-1.8,0,7.542,7.542,0,1,0-15.075,0v16.043A9.316,9.316,0,0,1,1651.955,631.08Z" transform="translate(-1642.103 -595.895)" fill="#555"/>
  <path id="패스_2335" data-name="패스 2335" d="M1708.086,610.791h4.747v1.28h-3.207v2.01h2.739v1.291h-2.739v3.123h-1.54Z" transform="translate(-1675.582 -584.172)" fill="#fff"/>
</svg>
