<svg xmlns="http://www.w3.org/2000/svg" xmlns:xlink="http://www.w3.org/1999/xlink" width="108" height="108" viewBox="0 0 108 108">
  <defs>
    <clipPath id="clip-path">
      <circle id="타원_376" data-name="타원 376" cx="54" cy="54" r="54" transform="translate(3067 1525)" fill="#f1f1f1"/>
    </clipPath>
  </defs>
  <g id="woman_02" transform="translate(-3067 -1525)" clip-path="url(#clip-path)">
    <circle id="타원_585" data-name="타원 585" cx="54" cy="54" r="54" transform="translate(3067 1525)" fill="#f6f6f6"/>
    <g id="그룹_2979" data-name="그룹 2979" transform="translate(2644.818 1228.961)">
      <path id="패스_4802" data-name="패스 4802" d="M503.094,360.5a9.822,9.822,0,0,1-2.375-7.452,9.981,9.981,0,0,0,.081-1.271,9.774,9.774,0,0,0-2.121-6.1,9.535,9.535,0,0,1-2.01-5.928v-.707a20,20,0,0,0-.224-2.955h0c-.023-.152-.056-.3-.081-.452-.043-.248-.082-.5-.134-.742-.02-.091-.046-.181-.067-.274a19.944,19.944,0,0,0-.544-1.946c-.014-.042-.026-.086-.041-.129-.1-.289-.212-.572-.324-.854-.04-.1-.076-.2-.118-.3-.114-.275-.239-.545-.365-.813-.047-.1-.092-.2-.141-.3-.132-.27-.274-.535-.418-.8-.049-.091-.1-.181-.148-.27-.153-.27-.314-.534-.479-.8-.047-.075-.094-.149-.142-.224q-.263-.405-.545-.8c-.042-.058-.085-.117-.128-.174-.2-.272-.4-.538-.618-.8-.03-.038-.063-.075-.094-.113-.229-.275-.463-.545-.706-.809l-.028-.03a19.991,19.991,0,0,0-4.381-3.553c-.068-.041-.133-.085-.2-.125-.044-.025-.086-.055-.13-.08-.43-.252-.873-.481-1.323-.7l-.058-.029c-.237-.11-.474-.22-.72-.33l-.039-.015c-.288-.124-.581-.235-.876-.346l-.051-.02c-.05-.02-.1-.037-.151-.057-.548-.2-1.106-.375-1.676-.524l-.011,0c-.025-.008-.052-.012-.078-.018-.479-.124-.967-.227-1.459-.315l-.03-.006c-.052-.01-.109-.017-.164-.026-.537-.091-1.081-.162-1.631-.208l-.161-.019-.065,0c-.485-.036-.974-.057-1.468-.057-.517,0-1.025.017-1.533.059s-1.021.1-1.524.181l-.043.005-.313.051-.041.008c-.5.087-1,.189-1.487.313a.254.254,0,0,1-.039.008c-.049.013-.1.03-.145.043a19.915,19.915,0,0,0-4.311,1.706l-.025.013-.209.113c-.1.053-.2.1-.29.158a20.012,20.012,0,0,0-10.052,17.353v.707a9.531,9.531,0,0,1-2.01,5.928,9.826,9.826,0,0,0-2.039,7.366,9.822,9.822,0,0,1-2.376,7.452,11.62,11.62,0,0,0-2.612,8.475,11.683,11.683,0,0,0,23.318-1.066c0-.027,0-.052,0-.08a19.957,19.957,0,0,0,11.47,0c0,.027,0,.053,0,.08a11.683,11.683,0,1,0,20.705-7.409Z" transform="translate(-0.518)" fill="#7e5449" stroke="#333" stroke-linecap="round" stroke-linejoin="round" stroke-width="1.5"/>
      <path id="패스_4803" data-name="패스 4803" d="M499.587,381.52H452.693c-4.7,0-8.512,4.221-8.512,9.429v23.559H508.1V390.949C508.1,385.741,504.288,381.52,499.587,381.52Z" transform="translate(0 -9.567)" fill="#ffa556" stroke="#333" stroke-linecap="round" stroke-linejoin="round" stroke-width="1.5"/>
      <path id="패스_4804" data-name="패스 4804" d="M474.767,365.483v13.486c0,.032-.005.064-.005.095a6.058,6.058,0,0,0,12.116,0V365.483Z" transform="translate(-4.682 -7.111)" fill="#ffcdbb" stroke="#333" stroke-miterlimit="10" stroke-width="1.5"/>
      <line id="선_299" data-name="선 299" y1="17.972" transform="translate(497.176 386.476)" fill="#ffd24f" stroke="#333" stroke-linecap="round" stroke-linejoin="round" stroke-width="1.5"/>
      <line id="선_300" data-name="선 300" y1="17.972" transform="translate(455.513 386.476)" fill="#ffd24f" stroke="#333" stroke-linecap="round" stroke-linejoin="round" stroke-width="1.5"/>
      <path id="패스_4805" data-name="패스 4805" d="M495.534,340.21v9.612a16.624,16.624,0,0,1-33.249,0V340.21a15.632,15.632,0,0,1,.161-2.287,16.6,16.6,0,0,0,4.743.694c4.565,0,8.706-3.912,11.721-6.884,3.015,2.973,7.156,6.884,11.721,6.884a16.6,16.6,0,0,0,4.743-.694A15.632,15.632,0,0,1,495.534,340.21Z" transform="translate(-2.772 -1.944)" fill="#ffcdbb" stroke="#333" stroke-miterlimit="10" stroke-width="1.5"/>
      <ellipse id="타원_354" data-name="타원 354" cx="3.713" cy="1.867" rx="3.713" ry="1.867" transform="translate(462.667 346.138)" fill="#f2a59e"/>
      <ellipse id="타원_355" data-name="타원 355" cx="3.713" cy="1.867" rx="3.713" ry="1.867" transform="translate(482.187 346.138)" fill="#f2a59e"/>
      <rect id="사각형_1359" data-name="사각형 1359" width="4.37" height="2.088" rx="1.044" transform="translate(468.847 338.617)" fill="#7e5449"/>
      <rect id="사각형_1360" data-name="사각형 1360" width="4.37" height="2.088" rx="1.044" transform="translate(483.433 340.704) rotate(-180)" fill="#7e5449"/>
      <path id="패스_4806" data-name="패스 4806" d="M496.109,342.2v9.612a16.626,16.626,0,0,1-16.624,16.624c-.407,0-.813-.017-1.211-.051-.254-.008-.508-.034-.762-.068l-.195-.025a5.942,5.942,0,0,1-.678-.11,1.806,1.806,0,0,1-.3-.051c-.279-.042-.559-.11-.838-.178-.017,0-.025-.008-.042-.008-.313-.076-.618-.161-.923-.254a.026.026,0,0,0-.017-.008c-.3-.093-.6-.2-.889-.3-.042-.017-.076-.034-.119-.051-.279-.11-.559-.22-.83-.347-.3-.127-.584-.271-.872-.423a16.806,16.806,0,0,1-5.784-5.005,16.758,16.758,0,0,0,4.531,2.329A16.628,16.628,0,0,0,492.4,348.1v-8.477a13.921,13.921,0,0,0,2.676.254c.288,0,.567-.008.855-.025a1.147,1.147,0,0,1,.042.246.447.447,0,0,1,.008.11c.042.313.076.644.093.965C496.1,341.516,496.109,341.855,496.109,342.2Z" transform="translate(-3.345 -3.151)" fill="#ffbfae" style="mix-blend-mode: darken;isolation: isolate"/>
      <path id="사각형_1361" data-name="사각형 1361" d="M3.344,0H4.736a0,0,0,0,1,0,0V9.743a0,0,0,0,1,0,0H3.344A3.344,3.344,0,0,1,0,6.4V3.344A3.344,3.344,0,0,1,3.344,0Z" transform="translate(454.776 339.922)" fill="#ffcdbb" stroke="#333" stroke-miterlimit="10" stroke-width="1.5"/>
      <path id="사각형_1362" data-name="사각형 1362" d="M3.344,0H4.736a0,0,0,0,1,0,0V9.743a0,0,0,0,1,0,0H3.344A3.344,3.344,0,0,1,0,6.4V3.344A3.344,3.344,0,0,1,3.344,0Z" transform="translate(497.503 349.664) rotate(-180)" fill="#ffcdbb" stroke="#333" stroke-miterlimit="10" stroke-width="1.5"/>
      <path id="패스_4807" data-name="패스 4807" d="M478.686,358.2a3.323,3.323,0,0,0,5.474,0" transform="translate(-5.283 -5.996)" fill="#ffcdbb" stroke="#333" stroke-linecap="round" stroke-linejoin="round" stroke-width="1.5"/>
      <rect id="사각형_1363" data-name="사각형 1363" width="2.048" height="3.985" rx="1.024" transform="translate(470.26 343.102)" fill="#333"/>
      <rect id="사각형_1364" data-name="사각형 1364" width="2.048" height="3.985" rx="1.024" transform="translate(482.019 347.087) rotate(180)" fill="#333"/>
      <ellipse id="타원_356" data-name="타원 356" cx="1.366" cy="0.921" rx="1.366" ry="0.921" transform="translate(474.774 347.621)" fill="#e89c8e" style="mix-blend-mode: darken;isolation: isolate"/>
      <circle id="타원_360" data-name="타원 360" cx="1.772" cy="1.772" r="1.772" transform="translate(474.365 385.529)" fill="#cf6f1b" stroke="#333" stroke-linecap="round" stroke-linejoin="round" stroke-width="1.5"/>
      <circle id="타원_361" data-name="타원 361" cx="1.772" cy="1.772" r="1.772" transform="translate(474.365 395.547)" fill="#cf6f1b" stroke="#333" stroke-linecap="round" stroke-linejoin="round" stroke-width="1.5"/>
      <path id="패스_4824" data-name="패스 4824" d="M118.231,326.958l-.988-.794a5.412,5.412,0,0,1,.851-1.11,8.141,8.141,0,0,1,1.536-1.3c.225-.175.887-.571,1.076-.971a1.059,1.059,0,0,0-.092-1.046,1.149,1.149,0,0,0-1.1-.346c-.517.121-.831.565-1.126,1.395a4.014,4.014,0,0,1-.732,1.391,2.52,2.52,0,0,1-1.137.724,2.338,2.338,0,0,1-1.161.047,2.26,2.26,0,0,1-1.027-.519,2.581,2.581,0,0,1-.828-1.832,2.308,2.308,0,0,1,.759-1.739,2.347,2.347,0,0,1,1.171-.628,2.164,2.164,0,0,1,1.052.062,2.73,2.73,0,0,1,.981.544l-.794.863,0,0a1.589,1.589,0,0,0-.562-.3,1.027,1.027,0,0,0-1.046.305,1.147,1.147,0,0,0-.392.87,1.41,1.41,0,0,0,.437.974,1.131,1.131,0,0,0,1.072.224c.293-.088.751-.4,1.071-1.3a4.1,4.1,0,0,1,.787-1.517,2.382,2.382,0,0,1,1.2-.716,2.32,2.32,0,0,1,2.245.713,2.041,2.041,0,0,1,.531,1.512,2.208,2.208,0,0,1-.8,1.488c-.446.408-1.042.75-1.69,1.385a6.665,6.665,0,0,0-1.308,1.612" transform="translate(371.19 65.309)" fill="#fff"/>
    </g>
  </g>
</svg>
