<svg xmlns="http://www.w3.org/2000/svg" xmlns:xlink="http://www.w3.org/1999/xlink" width="108" height="108" viewBox="0 0 108 108">
  <defs>
    <clipPath id="clip-path">
      <circle id="타원_376" data-name="타원 376" cx="54" cy="54" r="54" transform="translate(3067 1909)" fill="#f1f1f1"/>
    </clipPath>
  </defs>
  <g id="woman_08" transform="translate(-3067 -1909)" clip-path="url(#clip-path)">
    <circle id="타원_591" data-name="타원 591" cx="54" cy="54" r="54" transform="translate(3067 1909)" fill="#f1f1f1"/>
    <g id="그룹_2980" data-name="그룹 2980" transform="translate(2826.408 1613.439)">
      <path id="패스_4808" data-name="패스 4808" d="M317.211,337.783V347.5a20.222,20.222,0,0,1-40.445,0v-9.713a20.245,20.245,0,0,1,20.222-20.222,19.832,19.832,0,0,1,3.868.377A20.248,20.248,0,0,1,317.211,337.783Z" transform="translate(-2.621 0)" fill="#bcaeaa" stroke="#333" stroke-linecap="round" stroke-linejoin="round" stroke-width="1.5"/>
      <path id="사각형_1365" data-name="사각형 1365" d="M19.546,0H52A19.546,19.546,0,0,1,71.55,19.546V33.336a0,0,0,0,1,0,0H0a0,0,0,0,1,0,0V19.546A19.546,19.546,0,0,1,19.546,0Z" transform="translate(258.592 370.457)" fill="#3d5e84" stroke="#333" stroke-linecap="round" stroke-linejoin="round" stroke-width="1.5"/>
      <path id="패스_4809" data-name="패스 4809" d="M305.484,378.014l-6.117,5.471-6.121-5.471v-8.053h12.238Z" transform="translate(-4.997 -7.556)" fill="#ffcdbb" stroke="#333" stroke-miterlimit="10" stroke-width="1.5"/>
      <rect id="사각형_1366" data-name="사각형 1366" width="33.605" height="43.314" rx="16.803" transform="translate(277.565 320.982)" fill="#ffcdbb" stroke="#333" stroke-miterlimit="10" stroke-width="1.5"/>
      <ellipse id="타원_357" data-name="타원 357" cx="3.752" cy="1.887" rx="3.752" ry="1.887" transform="translate(280.753 344.945)" fill="#f2a59e"/>
      <ellipse id="타원_358" data-name="타원 358" cx="3.752" cy="1.887" rx="3.752" ry="1.887" transform="translate(300.478 344.945)" fill="#f2a59e"/>
      <rect id="사각형_1367" data-name="사각형 1367" width="4.416" height="1.942" transform="translate(286.997 337.511)" fill="#9b7870"/>
      <rect id="사각형_1368" data-name="사각형 1368" width="4.416" height="1.942" transform="translate(301.737 339.453) rotate(-180)" fill="#9b7870"/>
      <path id="패스_4810" data-name="패스 4810" d="M307.947,325.3a16.708,16.708,0,0,1,3.2,9.842v9.71a16.8,16.8,0,0,1-16.8,16.8h0a16.709,16.709,0,0,1-9.842-3.2,16.789,16.789,0,0,0,30.4-9.842V338.9A16.764,16.764,0,0,0,307.947,325.3Z" transform="translate(-3.737 -1.116)" fill="#ffbfae" style="mix-blend-mode: darken;isolation: isolate"/>
      <path id="사각형_1369" data-name="사각형 1369" d="M3.344,0H4.785a0,0,0,0,1,0,0V9.845a0,0,0,0,1,0,0H3.344A3.344,3.344,0,0,1,0,6.5V3.344A3.344,3.344,0,0,1,3.344,0Z" transform="translate(272.779 338.662)" fill="#ffcdbb" stroke="#333" stroke-miterlimit="10" stroke-width="1.5"/>
      <path id="사각형_1370" data-name="사각형 1370" d="M3.344,0H4.785a0,0,0,0,1,0,0V9.845a0,0,0,0,1,0,0H3.344A3.344,3.344,0,0,1,0,6.5V3.344A3.344,3.344,0,0,1,3.344,0Z" transform="translate(315.955 348.507) rotate(-180)" fill="#ffcdbb" stroke="#333" stroke-miterlimit="10" stroke-width="1.5"/>
      <path id="패스_4811" data-name="패스 4811" d="M304.339,356.494h0a2.281,2.281,0,0,1-2.281,2.282h-4.925a2.281,2.281,0,0,1-2.281-2.282h0" transform="translate(-5.229 -5.614)" fill="#ffcdbb" stroke="#333" stroke-linecap="round" stroke-linejoin="round" stroke-width="1.5"/>
      <rect id="사각형_1371" data-name="사각형 1371" width="2.069" height="4.027" rx="1.035" transform="translate(300.308 345.903) rotate(180)" fill="#333"/>
      <ellipse id="타원_359" data-name="타원 359" cx="1.996" cy="1.345" rx="1.996" ry="1.345" transform="translate(292.372 346.028)" fill="#e89c8e" style="mix-blend-mode: darken;isolation: isolate"/>
      <path id="패스_4812" data-name="패스 4812" d="M292.5,348.99a1.6,1.6,0,0,1,3.194,0" transform="translate(-4.889 -4.302)" fill="#ffcdbb" stroke="#333" stroke-linecap="round" stroke-linejoin="round" stroke-width="1.5"/>
      <line id="선_301" data-name="선 301" y1="17.233" transform="translate(273.013 386.56)" fill="#d0d7dc" stroke="#333" stroke-linecap="round" stroke-linejoin="round" stroke-width="1.5"/>
      <line id="선_302" data-name="선 302" y1="17.233" transform="translate(315.721 386.56)" fill="#d0d7dc" stroke="#333" stroke-linecap="round" stroke-linejoin="round" stroke-width="1.5"/>
      <path id="패스_4813" data-name="패스 4813" d="M300.857,317.938a19.832,19.832,0,0,0-3.868-.377,20.245,20.245,0,0,0-20.222,20.222v.881h8.293a15.8,15.8,0,0,0,15.8-15.807v.265a15.548,15.548,0,0,0,15.55,15.541h.8v-.881A20.248,20.248,0,0,0,300.857,317.938Z" transform="translate(-2.621 0)" fill="#bcaeaa" stroke="#333" stroke-linecap="round" stroke-linejoin="round" stroke-width="1.5"/>
      <path id="패스_4825" data-name="패스 4825" d="M118.231,326.958l-.988-.794a5.412,5.412,0,0,1,.851-1.11,8.141,8.141,0,0,1,1.536-1.3c.225-.175.887-.571,1.076-.971a1.059,1.059,0,0,0-.092-1.046,1.149,1.149,0,0,0-1.1-.346c-.517.121-.831.565-1.126,1.395a4.014,4.014,0,0,1-.732,1.391,2.52,2.52,0,0,1-1.137.724,2.338,2.338,0,0,1-1.161.047,2.26,2.26,0,0,1-1.027-.519,2.581,2.581,0,0,1-.828-1.832,2.308,2.308,0,0,1,.759-1.739,2.347,2.347,0,0,1,1.171-.628,2.164,2.164,0,0,1,1.052.062,2.73,2.73,0,0,1,.981.544l-.794.863,0,0a1.589,1.589,0,0,0-.562-.3,1.027,1.027,0,0,0-1.046.305,1.147,1.147,0,0,0-.392.87,1.41,1.41,0,0,0,.437.974,1.131,1.131,0,0,0,1.072.224c.293-.088.751-.4,1.071-1.3a4.1,4.1,0,0,1,.787-1.517,2.382,2.382,0,0,1,1.2-.716,2.32,2.32,0,0,1,2.245.713,2.041,2.041,0,0,1,.531,1.512,2.208,2.208,0,0,1-.8,1.488c-.446.408-1.042.75-1.69,1.385a6.665,6.665,0,0,0-1.308,1.612" transform="translate(189.601 64.83)" fill="#fff"/>
    </g>
  </g>
</svg>
