<svg xmlns="http://www.w3.org/2000/svg" xmlns:xlink="http://www.w3.org/1999/xlink" width="108" height="108" viewBox="0 0 108 108">
  <defs>
    <clipPath id="clip-path">
      <circle id="타원_379" data-name="타원 379" cx="54" cy="54" r="54" transform="translate(2931 1781)" fill="#f1f1f1"/>
    </clipPath>
  </defs>
  <g id="woman_05" transform="translate(-2931 -1781)" clip-path="url(#clip-path)">
    <circle id="타원_588" data-name="타원 588" cx="54" cy="54" r="54" transform="translate(2931 1781)" fill="#f1f1f1"/>
    <g id="그룹_2977" data-name="그룹 2977" transform="translate(2508.816 1484.809)">
      <circle id="타원_341" data-name="타원 341" cx="10.124" cy="10.124" r="10.124" transform="translate(450.172 336.787)" fill="#d0d7dc" stroke="#333" stroke-linecap="round" stroke-linejoin="round" stroke-width="1.5"/>
      <path id="패스_4790" data-name="패스 4790" d="M499.59,382.1H452.7c-4.7,0-8.512,4.222-8.512,9.429v23.56H508.1v-23.56C508.1,386.318,504.291,382.1,499.59,382.1Z" transform="translate(0 -9.938)" fill="#efa8a8" stroke="#333" stroke-linecap="round" stroke-linejoin="round" stroke-width="1.5"/>
      <path id="패스_4791" data-name="패스 4791" d="M474.769,366.059v13.487c0,.032,0,.063,0,.095a6.058,6.058,0,0,0,12.115,0V366.059Z" transform="translate(-4.683 -7.483)" fill="#ffcdbb" stroke="#333" stroke-miterlimit="10" stroke-width="1.5"/>
      <rect id="사각형_1346" data-name="사각형 1346" width="33.255" height="42.863" rx="16.628" transform="translate(459.515 323.198)" fill="#ffcdbb" stroke="#333" stroke-miterlimit="10" stroke-width="1.5"/>
      <ellipse id="타원_342" data-name="타원 342" cx="3.713" cy="1.867" rx="3.713" ry="1.867" transform="translate(462.67 346.911)" fill="#f2a59e"/>
      <ellipse id="타원_343" data-name="타원 343" cx="3.713" cy="1.867" rx="3.713" ry="1.867" transform="translate(482.189 346.911)" fill="#f2a59e"/>
      <rect id="사각형_1347" data-name="사각형 1347" width="4.37" height="2.088" rx="1.044" transform="translate(468.849 340.694)" fill="#b2b9bf"/>
      <rect id="사각형_1348" data-name="사각형 1348" width="4.37" height="2.088" rx="1.044" transform="translate(483.435 342.781) rotate(180)" fill="#b2b9bf"/>
      <path id="패스_4792" data-name="패스 4792" d="M489.228,328.029a16.532,16.532,0,0,1,3.171,9.74v9.608A16.627,16.627,0,0,1,475.771,364h0a16.529,16.529,0,0,1-9.74-3.172,16.614,16.614,0,0,0,30.084-9.74v-9.608A16.588,16.588,0,0,0,489.228,328.029Z" transform="translate(-3.345 -1.66)" fill="#ffbfae" style="mix-blend-mode: darken;isolation: isolate"/>
      <path id="사각형_1349" data-name="사각형 1349" d="M3.344,0H4.736a0,0,0,0,1,0,0V9.743a0,0,0,0,1,0,0H3.344A3.344,3.344,0,0,1,0,6.4V3.344A3.344,3.344,0,0,1,3.344,0Z" transform="translate(454.779 340.694)" fill="#ffcdbb" stroke="#333" stroke-miterlimit="10" stroke-width="1.5"/>
      <path id="사각형_1350" data-name="사각형 1350" d="M3.344,0H4.736a0,0,0,0,1,0,0V9.743a0,0,0,0,1,0,0H3.344A3.344,3.344,0,0,1,0,6.4V3.344A3.344,3.344,0,0,1,3.344,0Z" transform="translate(497.505 350.436) rotate(-180)" fill="#ffcdbb" stroke="#333" stroke-miterlimit="10" stroke-width="1.5"/>
      <rect id="사각형_1351" data-name="사각형 1351" width="2.048" height="3.985" rx="1.024" transform="translate(470.263 343.874)" fill="#333"/>
      <rect id="사각형_1352" data-name="사각형 1352" width="2.048" height="3.985" rx="1.024" transform="translate(482.022 347.859) rotate(-180)" fill="#333"/>
      <ellipse id="타원_344" data-name="타원 344" cx="1.366" cy="0.921" rx="1.366" ry="0.921" transform="translate(474.777 348.393)" fill="#e89c8e" style="mix-blend-mode: darken;isolation: isolate"/>
      <path id="패스_4793" data-name="패스 4793" d="M497.621,336.354a19.66,19.66,0,0,0-.237-3.015,19.172,19.172,0,0,0-37.864,0,19.664,19.664,0,0,0-.237,3.015v4.133h4.532a3.911,3.911,0,0,0,3.805-3.006l1.075-4.507,1.075,4.507a3.912,3.912,0,0,0,3.805,3.006h0a3.912,3.912,0,0,0,3.806-3.006l1.075-4.507,1.074,4.507a3.912,3.912,0,0,0,3.806,3.006h0a3.912,3.912,0,0,0,3.805-3.006l1.075-4.507,1.075,4.507a3.911,3.911,0,0,0,3.805,3.006h4.527Z" transform="translate(-2.312)" fill="#d0d7dc" stroke="#333" stroke-linecap="round" stroke-linejoin="round" stroke-width="1.5"/>
      <path id="패스_4794" data-name="패스 4794" d="M478.686,358.913a3.322,3.322,0,0,0,5.474,0" transform="translate(-5.283 -6.389)" fill="#ffcdbb" stroke="#333" stroke-linecap="round" stroke-linejoin="round" stroke-width="1.5"/>
      <circle id="타원_345" data-name="타원 345" cx="1.772" cy="1.772" r="1.772" transform="translate(474.368 385.308)" fill="#d0d7dc" stroke="#333" stroke-linecap="round" stroke-linejoin="round" stroke-width="1.5"/>
      <circle id="타원_346" data-name="타원 346" cx="1.772" cy="1.772" r="1.772" transform="translate(474.368 395.326)" fill="#d0d7dc" stroke="#333" stroke-linecap="round" stroke-linejoin="round" stroke-width="1.5"/>
      <line id="선_297" data-name="선 297" y1="17.054" transform="translate(455.824 388.093)" fill="#d0d7dc" stroke="#333" stroke-linecap="round" stroke-linejoin="round" stroke-width="1.5"/>
      <line id="선_298" data-name="선 298" y1="17.054" transform="translate(498.087 388.093)" fill="#d0d7dc" stroke="#333" stroke-linecap="round" stroke-linejoin="round" stroke-width="1.5"/>
      <path id="패스_4822" data-name="패스 4822" d="M118.231,326.958l-.988-.794a5.412,5.412,0,0,1,.851-1.11,8.141,8.141,0,0,1,1.536-1.3c.225-.175.887-.571,1.076-.971a1.059,1.059,0,0,0-.092-1.046,1.149,1.149,0,0,0-1.1-.346c-.517.121-.831.565-1.126,1.395a4.014,4.014,0,0,1-.732,1.391,2.52,2.52,0,0,1-1.137.724,2.338,2.338,0,0,1-1.161.047,2.26,2.26,0,0,1-1.027-.519,2.581,2.581,0,0,1-.828-1.832,2.308,2.308,0,0,1,.759-1.739,2.347,2.347,0,0,1,1.171-.628,2.164,2.164,0,0,1,1.052.062,2.73,2.73,0,0,1,.981.544l-.794.863,0,0a1.589,1.589,0,0,0-.562-.3,1.027,1.027,0,0,0-1.046.305,1.147,1.147,0,0,0-.392.87,1.41,1.41,0,0,0,.437.974,1.131,1.131,0,0,0,1.072.224c.293-.088.751-.4,1.071-1.3a4.1,4.1,0,0,1,.787-1.517,2.382,2.382,0,0,1,1.2-.716,2.32,2.32,0,0,1,2.245.713,2.041,2.041,0,0,1,.531,1.512,2.208,2.208,0,0,1-.8,1.488c-.446.408-1.042.75-1.69,1.385a6.665,6.665,0,0,0-1.308,1.612" transform="translate(372.193 63.557)" fill="#fff"/>
    </g>
  </g>
</svg>
