<svg xmlns="http://www.w3.org/2000/svg" xmlns:xlink="http://www.w3.org/1999/xlink" width="108" height="108" viewBox="0 0 108 108">
  <defs>
    <clipPath id="clip-path">
      <circle id="타원_376" data-name="타원 376" cx="54" cy="54" r="54" transform="translate(3067 2037)" fill="#f1f1f1"/>
    </clipPath>
  </defs>
  <g id="woman_09" transform="translate(-3067 -2037)" clip-path="url(#clip-path)">
    <circle id="타원_593" data-name="타원 593" cx="54" cy="54" r="54" transform="translate(3067 2037)" fill="#f1f1f1"/>
    <g id="그룹_2993" data-name="그룹 2993" transform="translate(2824.652 1927.203)">
      <circle id="타원_369" data-name="타원 369" cx="15.107" cy="15.107" r="15.107" transform="translate(281.602 162.583)" fill="#c65b20" stroke="#333" stroke-linecap="round" stroke-linejoin="round" stroke-width="1.5"/>
      <path id="패스_4839" data-name="패스 4839" d="M317.53,144.468c-2.108-7.275-9.669-12.672-18.639-12.672a21.151,21.151,0,0,0-8.839,1.9,19.2,19.2,0,0,0-4.941,3.2,15.734,15.734,0,0,0-5.453,11.712v8.068c0,9.277,8.627,16.817,19.233,16.817s19.233-7.54,19.233-16.817V148.6A14.552,14.552,0,0,0,317.53,144.468Z" transform="translate(-2.182)" fill="#c65b20" stroke="#333" stroke-linecap="round" stroke-linejoin="round" stroke-width="1.5"/>
      <path id="패스_4840" data-name="패스 4840" d="M320.453,192.663H308.68a5.579,5.579,0,0,1-1.862-.309,5.829,5.829,0,0,1-3.978-5.531v-7.915H290.578v7.915a5.828,5.828,0,0,1-3.978,5.531,5.579,5.579,0,0,1-1.862.309H272.965c-4.758,0-8.617,4.27-8.617,9.544v23.855H329.07V202.207C329.07,196.933,325.212,192.663,320.453,192.663Z" transform="translate(0 -6.714)" fill="#ffd24f" stroke="#333" stroke-linecap="round" stroke-linejoin="round" stroke-width="1.5"/>
      <path id="패스_4841" data-name="패스 4841" d="M310.517,192.354a12.752,12.752,0,0,1-7.7,4.733,12.4,12.4,0,0,1-2.41.232,12.76,12.76,0,0,1-10.109-4.965,5.829,5.829,0,0,0,3.978-5.531v-7.915h12.263v7.915A5.829,5.829,0,0,0,310.517,192.354Z" transform="translate(-3.698 -6.714)" fill="#ffcdbb" stroke="#333" stroke-miterlimit="10" stroke-width="1.5"/>
      <path id="패스_4842" data-name="패스 4842" d="M316.122,155.491v9.724a16.832,16.832,0,1,1-33.665,0v-9.724a15.655,15.655,0,0,1,.19-2.478,9.4,9.4,0,0,0,8.12-5.214,30.4,30.4,0,0,0,16.748,4.682,33.618,33.618,0,0,0,8.128-.978A16.538,16.538,0,0,1,316.122,155.491Z" transform="translate(-2.581 -2.281)" fill="#ffcdbb" stroke="#000" stroke-miterlimit="10" stroke-width="1.5"/>
      <ellipse id="타원_370" data-name="타원 370" cx="3.759" cy="1.891" rx="3.759" ry="1.891" transform="translate(283.068 160.384)" fill="#f2a59e"/>
      <ellipse id="타원_371" data-name="타원 371" cx="3.759" cy="1.891" rx="3.759" ry="1.891" transform="translate(302.832 160.384)" fill="#f2a59e"/>
      <rect id="사각형_1406" data-name="사각형 1406" width="4.425" height="2.114" rx="1.057" transform="translate(289.325 152.768)" fill="#7e5449"/>
      <rect id="사각형_1407" data-name="사각형 1407" width="4.425" height="2.114" rx="1.057" transform="translate(304.094 154.882) rotate(180)" fill="#7e5449"/>
      <path id="패스_4843" data-name="패스 4843" d="M309.685,140.879a16.742,16.742,0,0,1,3.21,9.862v9.729a16.836,16.836,0,0,1-16.836,16.836h0a16.736,16.736,0,0,1-9.862-3.211,16.822,16.822,0,0,0,30.461-9.862V154.5A16.8,16.8,0,0,0,309.685,140.879Z" transform="translate(-3.114 -1.294)" fill="#ffbfae" style="mix-blend-mode: darken;isolation: isolate"/>
      <path id="사각형_1408" data-name="사각형 1408" d="M3.344,0H4.795a0,0,0,0,1,0,0V9.865a0,0,0,0,1,0,0H3.344A3.344,3.344,0,0,1,0,6.521V3.344A3.344,3.344,0,0,1,3.344,0Z" transform="translate(275.079 154.089)" fill="#ffcdbb" stroke="#333" stroke-miterlimit="10" stroke-width="1.5"/>
      <path id="사각형_1409" data-name="사각형 1409" d="M3.344,0H4.795a0,0,0,0,1,0,0V9.865a0,0,0,0,1,0,0H3.344A3.344,3.344,0,0,1,0,6.521V3.344A3.344,3.344,0,0,1,3.344,0Z" transform="translate(318.34 163.954) rotate(-180)" fill="#ffcdbb" stroke="#333" stroke-miterlimit="10" stroke-width="1.5"/>
      <path id="패스_4844" data-name="패스 4844" d="M298.855,172.3a3.365,3.365,0,0,0,5.544,0" transform="translate(-4.918 -5.772)" fill="#ffcdbb" stroke="#333" stroke-linecap="round" stroke-linejoin="round" stroke-width="1.5"/>
      <rect id="사각형_1410" data-name="사각형 1410" width="2.073" height="4.035" rx="1.037" transform="translate(290.756 157.309)" fill="#333"/>
      <rect id="사각형_1411" data-name="사각형 1411" width="2.073" height="4.035" rx="1.037" transform="translate(302.662 161.344) rotate(-180)" fill="#333"/>
      <ellipse id="타원_372" data-name="타원 372" cx="1.383" cy="0.932" rx="1.383" ry="0.932" transform="translate(295.326 161.885)" fill="#f2a59e"/>
      <path id="패스_4845" data-name="패스 4845" d="M314,194.949V209.5H283.784V194.949h-4.126v33.4h38.466v-33.4Z" transform="translate(-2.182 -9)" fill="#f2a59e" stroke="#333" stroke-linecap="round" stroke-linejoin="round" stroke-width="1.5"/>
      <path id="패스_4847" data-name="패스 4847" d="M118.231,326.958l-.988-.794a5.412,5.412,0,0,1,.851-1.11,8.141,8.141,0,0,1,1.536-1.3c.225-.175.887-.571,1.076-.971a1.059,1.059,0,0,0-.092-1.046,1.149,1.149,0,0,0-1.1-.346c-.517.121-.831.565-1.126,1.395a4.014,4.014,0,0,1-.732,1.391,2.52,2.52,0,0,1-1.137.724,2.338,2.338,0,0,1-1.161.047,2.26,2.26,0,0,1-1.027-.519,2.581,2.581,0,0,1-.828-1.832,2.308,2.308,0,0,1,.759-1.739,2.347,2.347,0,0,1,1.171-.628,2.164,2.164,0,0,1,1.052.062,2.73,2.73,0,0,1,.981.544l-.794.863,0,0a1.589,1.589,0,0,0-.562-.3,1.027,1.027,0,0,0-1.046.305,1.147,1.147,0,0,0-.392.87,1.41,1.41,0,0,0,.437.974,1.131,1.131,0,0,0,1.072.224c.293-.088.751-.4,1.071-1.3a4.1,4.1,0,0,1,.787-1.517,2.382,2.382,0,0,1,1.2-.716,2.32,2.32,0,0,1,2.245.713,2.041,2.041,0,0,1,.531,1.512,2.208,2.208,0,0,1-.8,1.488c-.446.408-1.042.75-1.69,1.385a6.665,6.665,0,0,0-1.308,1.612" transform="translate(191.357 -115.935)" fill="#fff"/>
    </g>
  </g>
</svg>
