<svg xmlns="http://www.w3.org/2000/svg" xmlns:xlink="http://www.w3.org/1999/xlink" width="108" height="108" viewBox="0 0 108 108">
  <defs>
    <clipPath id="clip-path">
      <circle id="타원_376" data-name="타원 376" cx="54" cy="54" r="54" transform="translate(3067 1781)" fill="#f1f1f1"/>
    </clipPath>
  </defs>
  <g id="woman_06" transform="translate(-3067 -1781)" clip-path="url(#clip-path)">
    <circle id="타원_589" data-name="타원 589" cx="54" cy="54" r="54" transform="translate(3067 1781)" fill="#f1f1f1"/>
    <g id="그룹_2974" data-name="그룹 2974" transform="translate(3006.863 1672.527)">
      <path id="패스_4770" data-name="패스 4770" d="M111.722,177.34v13.733c0,.033,0,.065,0,.1a6.169,6.169,0,1,0,12.337,0V177.34Z" transform="translate(-4.207 -6.723)" fill="#ffcdbb" stroke="#333" stroke-miterlimit="10" stroke-width="1.5"/>
      <path id="사각형_1325" data-name="사각형 1325" d="M0,0H39.042a0,0,0,0,1,0,0V12.321A12.852,12.852,0,0,1,26.191,25.173H12.852A12.852,12.852,0,0,1,0,12.321V0A0,0,0,0,1,0,0Z" transform="translate(94.158 148.856)" fill="#9b7870" stroke="#333" stroke-linecap="round" stroke-linejoin="round" stroke-width="1.5"/>
      <path id="패스_4771" data-name="패스 4771" d="M137.559,193.377H89.8c-4.787,0-8.668,4.3-8.668,9.6v23.993h65.091V202.979C146.227,197.676,142.346,193.377,137.559,193.377Z" transform="translate(0 -8.929)" fill="#d66d27" stroke="#333" stroke-linecap="round" stroke-linejoin="round" stroke-width="1.5"/>
      <rect id="사각형_1326" data-name="사각형 1326" width="33.866" height="43.65" rx="16.933" transform="translate(96.749 134.589)" fill="#ffcdbb" stroke="#333" stroke-miterlimit="10" stroke-width="1.5"/>
      <ellipse id="타원_332" data-name="타원 332" cx="3.781" cy="1.902" rx="3.781" ry="1.902" transform="translate(99.962 158.737)" fill="#f2a59e"/>
      <ellipse id="타원_333" data-name="타원 333" cx="3.781" cy="1.902" rx="3.781" ry="1.902" transform="translate(119.84 158.737)" fill="#f2a59e"/>
      <rect id="사각형_1327" data-name="사각형 1327" width="4.45" height="2.126" rx="1.063" transform="translate(106.255 151.343)" fill="#7e5449"/>
      <rect id="사각형_1328" data-name="사각형 1328" width="4.45" height="2.126" rx="1.063" transform="translate(121.109 153.469) rotate(180)" fill="#7e5449"/>
      <path id="패스_4772" data-name="패스 4772" d="M126.606,139.309a16.833,16.833,0,0,1,3.23,9.92v9.784A16.933,16.933,0,0,1,112.9,175.946h0a16.833,16.833,0,0,1-9.919-3.23A16.919,16.919,0,0,0,133.62,162.8v-9.784A16.893,16.893,0,0,0,126.606,139.309Z" transform="translate(-3.006 -1.491)" fill="#ffbfae" style="mix-blend-mode: darken;isolation: isolate"/>
      <path id="사각형_1329" data-name="사각형 1329" d="M3.344,0H4.823a0,0,0,0,1,0,0V9.922a0,0,0,0,1,0,0H3.344A3.344,3.344,0,0,1,0,6.578V3.344A3.344,3.344,0,0,1,3.344,0Z" transform="translate(91.927 152.406)" fill="#ffcdbb" stroke="#333" stroke-miterlimit="10" stroke-width="1.5"/>
      <path id="사각형_1330" data-name="사각형 1330" d="M3.344,0H4.823a0,0,0,0,1,0,0V9.922a0,0,0,0,1,0,0H3.344A3.344,3.344,0,0,1,0,6.578V3.344A3.344,3.344,0,0,1,3.344,0Z" transform="translate(135.437 162.328) rotate(-180)" fill="#ffcdbb" stroke="#333" stroke-miterlimit="10" stroke-width="1.5"/>
      <rect id="사각형_1331" data-name="사각형 1331" width="2.085" height="4.058" rx="1.043" transform="translate(107.695 155.645)" fill="#333"/>
      <rect id="사각형_1332" data-name="사각형 1332" width="2.085" height="4.058" rx="1.043" transform="translate(119.669 159.703) rotate(-180)" fill="#333"/>
      <ellipse id="타원_334" data-name="타원 334" cx="1.391" cy="0.938" rx="1.391" ry="0.938" transform="translate(112.291 160.247)" fill="#e89c8e" style="mix-blend-mode: darken;isolation: isolate"/>
      <path id="패스_4773" data-name="패스 4773" d="M135.278,147.987a20.02,20.02,0,0,0-.241-3.07,19.524,19.524,0,0,0-38.559,0,20.021,20.021,0,0,0-.241,3.07v4.208h4.615a3.984,3.984,0,0,0,3.875-3.06l1.094-4.59,1.094,4.59a3.984,3.984,0,0,0,3.875,3.06h0a3.984,3.984,0,0,0,3.876-3.06l1.094-4.59,1.094,4.59a3.984,3.984,0,0,0,3.876,3.06h0a3.984,3.984,0,0,0,3.875-3.06l1.094-4.59,1.094,4.59a3.983,3.983,0,0,0,3.875,3.06h4.611Z" transform="translate(-2.077)" fill="#9b7870" stroke="#333" stroke-linecap="round" stroke-linejoin="round" stroke-width="1.5"/>
      <line id="선_291" data-name="선 291" y1="11.941" transform="translate(131.871 206.245)" fill="#ffcdbb" stroke="#333" stroke-miterlimit="10" stroke-width="1.5"/>
      <line id="선_292" data-name="선 292" y1="11.941" transform="translate(95.015 206.245)" fill="#ffcdbb" stroke="#333" stroke-miterlimit="10" stroke-width="1.5"/>
      <path id="패스_4774" data-name="패스 4774" d="M115.718,171.35a3.384,3.384,0,0,0,5.576,0" transform="translate(-4.757 -5.899)" fill="#ffcdbb" stroke="#333" stroke-linecap="round" stroke-linejoin="round" stroke-width="1.5"/>
      <path id="패스_4757" data-name="패스 4757" d="M118.272,327.016l-1-.8a5.46,5.46,0,0,1,.858-1.119,8.213,8.213,0,0,1,1.55-1.312c.227-.177.9-.575,1.085-.98a1.068,1.068,0,0,0-.093-1.055,1.159,1.159,0,0,0-1.108-.349c-.522.122-.838.57-1.136,1.407a4.049,4.049,0,0,1-.738,1.4,2.542,2.542,0,0,1-1.147.73,2.359,2.359,0,0,1-1.171.047,2.279,2.279,0,0,1-1.036-.523,2.6,2.6,0,0,1-.835-1.848,2.328,2.328,0,0,1,.766-1.754,2.367,2.367,0,0,1,1.181-.633,2.183,2.183,0,0,1,1.061.062,2.754,2.754,0,0,1,.99.549l-.8.871,0,0a1.6,1.6,0,0,0-.567-.3,1.036,1.036,0,0,0-1.055.308,1.157,1.157,0,0,0-.4.878,1.422,1.422,0,0,0,.44.982,1.141,1.141,0,0,0,1.081.226c.3-.088.757-.4,1.081-1.307a4.137,4.137,0,0,1,.794-1.53,2.4,2.4,0,0,1,1.214-.722,2.34,2.34,0,0,1,2.265.719,2.059,2.059,0,0,1,.536,1.525,2.227,2.227,0,0,1-.8,1.5c-.45.411-1.051.756-1.7,1.4a6.723,6.723,0,0,0-1.319,1.626" transform="translate(8.497 -123.758)" fill="#fff"/>
    </g>
  </g>
</svg>
