<svg xmlns="http://www.w3.org/2000/svg" xmlns:xlink="http://www.w3.org/1999/xlink" width="108" height="108" viewBox="0 0 108 108">
  <defs>
    <clipPath id="clip-path">
      <circle id="타원_378" data-name="타원 378" cx="54" cy="54" r="54" transform="translate(2931 1653)" fill="#f1f1f1"/>
    </clipPath>
  </defs>
  <g id="woman_03" transform="translate(-2931 -1653)" clip-path="url(#clip-path)">
    <circle id="타원_586" data-name="타원 586" cx="54" cy="54" r="54" transform="translate(2931 1653)" fill="#f1f1f1"/>
    <g id="그룹_2975" data-name="그룹 2975" transform="translate(2685.342 1171.891)">
      <path id="패스_4775" data-name="패스 4775" d="M323.6,566.726H311.856a5.78,5.78,0,0,1-3.47-1.156H291.46a5.78,5.78,0,0,1-3.47,1.156H276.253c-4.746,0-8.594,4.262-8.594,9.52v23.786h64.53V576.245C332.189,570.988,328.341,566.726,323.6,566.726Z" transform="translate(0 -9.057)" fill="#77b58a" stroke="#333" stroke-linecap="round" stroke-linejoin="round" stroke-width="1.5"/>
      <path id="패스_4777" data-name="패스 4777" d="M323.215,525.026a21.9,21.9,0,0,0-.492-4.609h0c0-.022-.011-.044-.016-.067q-.153-.7-.349-1.374c-.016-.056-.032-.112-.048-.168a21.8,21.8,0,0,0-1.043-2.8l-.068-.15a21.955,21.955,0,0,0-1.421-2.6c-.027-.044-.056-.086-.083-.129a22.219,22.219,0,0,0-1.767-2.363l-.1-.109a22.059,22.059,0,0,0-2.081-2.094l-.1-.089a22.176,22.176,0,0,0-2.366-1.792l-.1-.066c-.408-.264-.823-.516-1.248-.753l-.024-.014q-.662-.368-1.351-.689l-.09-.041q-.653-.3-1.326-.561l-.087-.034q-.712-.271-1.446-.492l-.056-.016q-.7-.208-1.417-.369c-.028-.006-.055-.015-.082-.021l-.067-.013q-.454-.1-.914-.178c-.082-.015-.165-.031-.248-.044-.3-.049-.6-.09-.91-.126-.083-.01-.166-.023-.25-.033-.34-.037-.683-.064-1.028-.085l-.138-.01q-.6-.033-1.2-.034a21.931,21.931,0,0,0-4.692.51l-.062.012c-.028.006-.056.015-.084.022q-.716.161-1.414.368l-.058.016q-.734.222-1.445.492l-.091.036q-.671.258-1.32.559c-.032.015-.063.027-.095.043q-.686.321-1.347.687l-.03.017q-.635.354-1.241.749l-.109.069a22.08,22.08,0,0,0-2.361,1.788l-.108.093a22.091,22.091,0,0,0-2.078,2.09l-.1.114a21.938,21.938,0,0,0-1.765,2.359c-.029.044-.057.088-.086.133a21.8,21.8,0,0,0-1.419,2.593c-.024.05-.046.1-.069.152a21.908,21.908,0,0,0-1.043,2.793c-.016.056-.032.113-.048.169q-.2.678-.349,1.373c0,.022-.012.044-.016.067h0a21.9,21.9,0,0,0-.492,4.609l-2.176,18.121a9.3,9.3,0,0,0,9.239,10.414h29.708a9.3,9.3,0,0,0,9.238-10.414Z" transform="translate(-1.374)" fill="#979493" stroke="#333" stroke-linecap="round" stroke-linejoin="round" stroke-width="1.5"/>
      <path id="패스_4778" data-name="패스 4778" d="M310.074,558.777v-7.892H297.847v7.892a5.8,5.8,0,0,1-2.35,4.664l8.464,5.961,8.463-5.961A5.8,5.8,0,0,1,310.074,558.777Z" transform="translate(-4.037 -6.928)" fill="#ffcdbb" stroke="#333" stroke-miterlimit="10" stroke-width="1.5"/>
      <path id="패스_4779" data-name="패스 4779" d="M319.333,527.643v9.7a16.784,16.784,0,0,1-33.567,0v-9.7a15.781,15.781,0,0,1,.162-2.309,16.791,16.791,0,0,0,16.621-4.164,16.791,16.791,0,0,0,16.621,4.164A15.781,15.781,0,0,1,319.333,527.643Z" transform="translate(-2.626 -2.619)" fill="#ffcdbb" stroke="#333" stroke-miterlimit="10" stroke-width="1.5"/>
      <ellipse id="타원_335" data-name="타원 335" cx="3.748" cy="1.885" rx="3.748" ry="1.885" transform="translate(286.322 532.18)" fill="#f2a59e"/>
      <ellipse id="타원_336" data-name="타원 336" cx="3.748" cy="1.885" rx="3.748" ry="1.885" transform="translate(306.029 532.18)" fill="#f2a59e"/>
      <rect id="사각형_1333" data-name="사각형 1333" width="4.412" height="2.108" rx="1.054" transform="translate(292.561 524.586)" fill="#333"/>
      <rect id="사각형_1334" data-name="사각형 1334" width="4.412" height="2.108" rx="1.054" transform="translate(307.286 526.694) rotate(180)" fill="#333"/>
      <path id="패스_4780" data-name="패스 4780" d="M312.925,512.854a16.693,16.693,0,0,1,3.2,9.834v9.7a16.787,16.787,0,0,1-16.787,16.787h0a16.688,16.688,0,0,1-9.833-3.2,16.773,16.773,0,0,0,30.372-9.833v-9.7A16.749,16.749,0,0,0,312.925,512.854Z" transform="translate(-3.168 -1.413)" fill="#ffbfae" style="mix-blend-mode: darken;isolation: isolate"/>
      <path id="사각형_1335" data-name="사각형 1335" d="M3.344,0H4.781a0,0,0,0,1,0,0V9.836a0,0,0,0,1,0,0H3.344A3.344,3.344,0,0,1,0,6.492V3.344A3.344,3.344,0,0,1,3.344,0Z" transform="translate(278.356 525.904)" fill="#ffcdbb" stroke="#333" stroke-miterlimit="10" stroke-width="1.5"/>
      <path id="사각형_1336" data-name="사각형 1336" d="M3.344,0H4.781a0,0,0,0,1,0,0V9.836a0,0,0,0,1,0,0H3.344A3.344,3.344,0,0,1,0,6.492V3.344A3.344,3.344,0,0,1,3.344,0Z" transform="translate(321.491 535.74) rotate(-180)" fill="#ffcdbb" stroke="#333" stroke-miterlimit="10" stroke-width="1.5"/>
      <path id="패스_4781" data-name="패스 4781" d="M302.163,544.271a3.355,3.355,0,0,0,5.528,0" transform="translate(-5.003 -5.969)" fill="#ffcdbb" stroke="#333" stroke-linecap="round" stroke-linejoin="round" stroke-width="1.5"/>
      <rect id="사각형_1337" data-name="사각형 1337" width="2.067" height="4.023" rx="1.034" transform="translate(293.988 529.114)" fill="#333"/>
      <rect id="사각형_1338" data-name="사각형 1338" width="2.067" height="4.023" rx="1.034" transform="translate(305.859 533.137) rotate(-180)" fill="#333"/>
      <ellipse id="타원_337" data-name="타원 337" cx="1.379" cy="0.93" rx="1.379" ry="0.93" transform="translate(298.545 533.677)" fill="#e89c8e" style="mix-blend-mode: darken;isolation: isolate"/>
      <line id="선_293" data-name="선 293" y1="13.519" transform="translate(322.994 577.456)" fill="#00b39b" stroke="#333" stroke-linecap="round" stroke-linejoin="round" stroke-width="1.5"/>
      <line id="선_294" data-name="선 294" y1="13.519" transform="translate(276.892 577.456)" fill="#00b39b" stroke="#333" stroke-linecap="round" stroke-linejoin="round" stroke-width="1.5"/>
      <path id="패스_4782" data-name="패스 4782" d="M296.315,563.139l-6.375,2.574,7.273,11.747,5.941-6.281Z" transform="translate(-3.231 -8.704)" fill="#fff" stroke="#333" stroke-linecap="round" stroke-linejoin="round" stroke-width="1.5"/>
      <path id="패스_4783" data-name="패스 4783" d="M312.235,563.139l6.375,2.574-7.273,11.747-5.941-6.281Z" transform="translate(-5.472 -8.704)" fill="#fff" stroke="#333" stroke-linecap="round" stroke-linejoin="round" stroke-width="1.5"/>
      <path id="패스_4820" data-name="패스 4820" d="M118.231,326.958l-.988-.794a5.412,5.412,0,0,1,.851-1.11,8.141,8.141,0,0,1,1.536-1.3c.225-.175.887-.571,1.076-.971a1.059,1.059,0,0,0-.092-1.046,1.149,1.149,0,0,0-1.1-.346c-.517.121-.831.565-1.126,1.395a4.014,4.014,0,0,1-.732,1.391,2.52,2.52,0,0,1-1.137.724,2.338,2.338,0,0,1-1.161.047,2.26,2.26,0,0,1-1.027-.519,2.581,2.581,0,0,1-.828-1.832,2.308,2.308,0,0,1,.759-1.739,2.347,2.347,0,0,1,1.171-.628,2.164,2.164,0,0,1,1.052.062,2.73,2.73,0,0,1,.981.544l-.794.863,0,0a1.589,1.589,0,0,0-.562-.3,1.027,1.027,0,0,0-1.046.305,1.147,1.147,0,0,0-.392.87,1.41,1.41,0,0,0,.437.974,1.131,1.131,0,0,0,1.072.224c.293-.088.751-.4,1.071-1.3a4.1,4.1,0,0,1,.787-1.517,2.382,2.382,0,0,1,1.2-.716,2.32,2.32,0,0,1,2.245.713,2.041,2.041,0,0,1,.531,1.512,2.208,2.208,0,0,1-.8,1.488c-.446.408-1.042.75-1.69,1.385a6.665,6.665,0,0,0-1.308,1.612" transform="translate(198.668 249.477)" fill="#fff"/>
    </g>
  </g>
</svg>
