<svg xmlns="http://www.w3.org/2000/svg" xmlns:xlink="http://www.w3.org/1999/xlink" width="108" height="108" viewBox="0 0 108 108">
  <defs>
    <clipPath id="clip-path">
      <circle id="타원_377" data-name="타원 377" cx="54" cy="54" r="54" transform="translate(2931 1525)" fill="#f1f1f1"/>
    </clipPath>
  </defs>
  <g id="woman_01" transform="translate(-2931 -1525)" clip-path="url(#clip-path)">
    <circle id="타원_583" data-name="타원 583" cx="54" cy="54" r="54" transform="translate(2931 1525)" fill="#f6f6f6"/>
    <g id="그룹_2978" data-name="그룹 2978" transform="translate(2509.885 1417.887)">
      <circle id="타원_347" data-name="타원 347" cx="9.562" cy="9.562" r="9.562" transform="translate(446.057 151.658)" fill="#704840" stroke="#333" stroke-linecap="round" stroke-linejoin="round" stroke-width="1.5"/>
      <circle id="타원_348" data-name="타원 348" cx="7.562" cy="7.562" r="7.562" transform="translate(454.759 164.606)" fill="#704840" stroke="#333" stroke-linecap="round" stroke-linejoin="round" stroke-width="1.5"/>
      <circle id="타원_349" data-name="타원 349" cx="9.562" cy="9.562" r="9.562" transform="translate(484.51 151.658)" fill="#704840" stroke="#333" stroke-linecap="round" stroke-linejoin="round" stroke-width="1.5"/>
      <circle id="타원_350" data-name="타원 350" cx="7.562" cy="7.562" r="7.562" transform="translate(479.808 164.606)" fill="#704840" stroke="#333" stroke-linecap="round" stroke-linejoin="round" stroke-width="1.5"/>
      <path id="사각형_1353" data-name="사각형 1353" d="M19.546,0H49.911A19.546,19.546,0,0,1,69.457,19.546V32.362a0,0,0,0,1,0,0H0a0,0,0,0,1,0,0V19.546A19.546,19.546,0,0,1,19.546,0Z" transform="translate(440.115 183.54)" fill="#ffe8c7" stroke="#333" stroke-linecap="round" stroke-linejoin="round" stroke-width="1.5"/>
      <path id="패스_4795" data-name="패스 4795" d="M486.648,193.239l-5.938,5.311-5.942-5.311v-7.818h11.88Z" transform="translate(-5.864 -9.698)" fill="#ffcdbb" stroke="#333" stroke-miterlimit="10" stroke-width="1.5"/>
      <path id="패스_4796" data-name="패스 4796" d="M494.9,153.332v9.421a16.308,16.308,0,1,1-32.616,0v-9.421a16.308,16.308,0,0,1,32.616,0Z" transform="translate(-3.753 -1.508)" fill="#ffcdbb" stroke="#333" stroke-miterlimit="10" stroke-width="1.5"/>
      <path id="패스_4797" data-name="패스 4797" d="M461.34,157.674v9.562h-1.869a2.781,2.781,0,0,1-2.783-2.775v-4a2.783,2.783,0,0,1,2.783-2.783Z" transform="translate(-2.805 -5.003)" fill="#ffcdbb" stroke="#333" stroke-miterlimit="10" stroke-width="1.5"/>
      <path id="사각형_1354" data-name="사각형 1354" d="M3.344,0h1.3a0,0,0,0,1,0,0V9.557a0,0,0,0,1,0,0h-1.3A3.344,3.344,0,0,1,0,6.214V3.344A3.344,3.344,0,0,1,3.344,0Z" transform="translate(495.8 162.232) rotate(-180)" fill="#ffcdbb" stroke="#333" stroke-miterlimit="10" stroke-width="1.5"/>
      <ellipse id="타원_351" data-name="타원 351" cx="3.642" cy="1.832" rx="3.642" ry="1.832" transform="translate(461.627 158.774)" fill="#f2a59e"/>
      <ellipse id="타원_352" data-name="타원 352" cx="3.642" cy="1.832" rx="3.642" ry="1.832" transform="translate(480.775 158.774)" fill="#f2a59e"/>
      <rect id="사각형_1355" data-name="사각형 1355" width="4.287" height="1.311" transform="translate(467.689 151.476)" fill="#333"/>
      <rect id="사각형_1356" data-name="사각형 1356" width="4.287" height="1.311" transform="translate(481.997 152.787) rotate(-180)" fill="#333"/>
      <path id="패스_4798" data-name="패스 4798" d="M488.784,140.764a16.218,16.218,0,0,1,3.11,9.555v9.425a16.311,16.311,0,0,1-16.31,16.311h0a16.213,16.213,0,0,1-9.555-3.111,16.3,16.3,0,0,0,29.511-9.555v-9.425A16.274,16.274,0,0,0,488.784,140.764Z" transform="translate(-4.386 -2.141)" fill="#ffbfae" style="mix-blend-mode: darken;isolation: isolate"/>
      <path id="패스_4799" data-name="패스 4799" d="M495.684,139.341a7.644,7.644,0,0,0-.356-1.635,7.381,7.381,0,0,0-5.579-4.888,7.562,7.562,0,0,0-2.125-.1,5.975,5.975,0,0,1-5.005-2.112,7.388,7.388,0,0,0-11.063,0,5.973,5.973,0,0,1-5.005,2.112,7.564,7.564,0,0,0-2.125.1,7.379,7.379,0,0,0-5.578,4.888,7.6,7.6,0,0,0-.356,1.635,6.773,6.773,0,0,1-2.349,4.675,7.388,7.388,0,0,0-.015,11.514v-.075a2.783,2.783,0,0,1,2.783-2.783h1.869v-.847a16.3,16.3,0,0,1,.984-5.578,7.392,7.392,0,0,0,11.3-4.53,7.374,7.374,0,0,0,8.048,0,7.392,7.392,0,0,0,11.3,4.53,16.279,16.279,0,0,1,.985,5.578v.847h1.869a2.783,2.783,0,0,1,2.783,2.783v.075a7.388,7.388,0,0,0-.016-11.514A6.769,6.769,0,0,1,495.684,139.341Z" transform="translate(-2.245)" fill="#704840" stroke="#333" stroke-linecap="round" stroke-linejoin="round" stroke-width="1.5"/>
      <ellipse id="타원_353" data-name="타원 353" cx="1.937" cy="1.306" rx="1.937" ry="1.306" transform="translate(472.906 159.825)" fill="#e89c8e" style="mix-blend-mode: darken;isolation: isolate"/>
      <path id="패스_4800" data-name="패스 4800" d="M498.07,194.949v13.622H464.124v-14.64l-4.192.92-.444.1v31.263h43.218V194.949Z" transform="translate(-6.254 -10.311)" fill="#bc8877" stroke="#333" stroke-linecap="round" stroke-linejoin="round" stroke-width="1.5"/>
      <rect id="사각형_1357" data-name="사각형 1357" width="2.009" height="3.909" rx="1.004" transform="translate(469.076 155.294)" fill="#333"/>
      <rect id="사각형_1358" data-name="사각형 1358" width="2.009" height="3.909" rx="1.004" transform="translate(480.611 159.203) rotate(-180)" fill="#333"/>
      <path id="패스_4801" data-name="패스 4801" d="M478.686,171.571a3.259,3.259,0,0,0,5.37,0" transform="translate(-6.528 -7.355)" fill="#ffcdbb" stroke="#333" stroke-linecap="round" stroke-linejoin="round" stroke-width="1.5"/>
      <path id="패스_4823" data-name="패스 4823" d="M118.231,326.958l-.988-.794a5.412,5.412,0,0,1,.851-1.11,8.141,8.141,0,0,1,1.536-1.3c.225-.175.887-.571,1.076-.971a1.059,1.059,0,0,0-.092-1.046,1.149,1.149,0,0,0-1.1-.346c-.517.121-.831.565-1.126,1.395a4.014,4.014,0,0,1-.732,1.391,2.52,2.52,0,0,1-1.137.724,2.338,2.338,0,0,1-1.161.047,2.26,2.26,0,0,1-1.027-.519,2.581,2.581,0,0,1-.828-1.832,2.308,2.308,0,0,1,.759-1.739,2.347,2.347,0,0,1,1.171-.628,2.164,2.164,0,0,1,1.052.062,2.73,2.73,0,0,1,.981.544l-.794.863,0,0a1.589,1.589,0,0,0-.562-.3,1.027,1.027,0,0,0-1.046.305,1.147,1.147,0,0,0-.392.87,1.41,1.41,0,0,0,.437.974,1.131,1.131,0,0,0,1.072.224c.293-.088.751-.4,1.071-1.3a4.1,4.1,0,0,1,.787-1.517,2.382,2.382,0,0,1,1.2-.716,2.32,2.32,0,0,1,2.245.713,2.041,2.041,0,0,1,.531,1.512,2.208,2.208,0,0,1-.8,1.488c-.446.408-1.042.75-1.69,1.385a6.665,6.665,0,0,0-1.308,1.612" transform="translate(369.124 -118.52)" fill="#fff"/>
    </g>
  </g>
</svg>
