<svg xmlns="http://www.w3.org/2000/svg" xmlns:xlink="http://www.w3.org/1999/xlink" width="108" height="108" viewBox="0 0 108 108">
  <defs>
    <clipPath id="clip-path">
      <circle id="타원_376" data-name="타원 376" cx="54" cy="54" r="54" transform="translate(3067 1653)" fill="#f1f1f1"/>
    </clipPath>
  </defs>
  <g id="woman_04" transform="translate(-3067 -1653)" clip-path="url(#clip-path)">
    <circle id="타원_587" data-name="타원 587" cx="54" cy="54" r="54" transform="translate(3067 1653)" fill="#f1f1f1"/>
    <g id="그룹_2976" data-name="그룹 2976" transform="translate(3007.863 1357.387)">
      <path id="패스_4784" data-name="패스 4784" d="M134.574,335.778v9.612c0,.517-.025,1.033-.068,1.541v32.859H96.236V335.778a19.66,19.66,0,0,1,.237-3.015,19.172,19.172,0,0,1,37.864,0A19.658,19.658,0,0,1,134.574,335.778Z" transform="translate(-2.312)" fill="#445563" stroke="#333" stroke-linecap="round" stroke-linejoin="round" stroke-width="1.5"/>
      <path id="패스_4785" data-name="패스 4785" d="M136.542,381.52H89.648c-4.7,0-8.512,4.221-8.512,9.429v23.559h63.918V390.949C145.054,385.741,141.243,381.52,136.542,381.52Z" transform="translate(0 -9.938)" fill="#ffd24f" stroke="#333" stroke-linecap="round" stroke-linejoin="round" stroke-width="1.5"/>
      <path id="패스_4786" data-name="패스 4786" d="M111.722,365.483v13.486c0,.032,0,.063,0,.095a6.057,6.057,0,1,0,12.115,0V365.483Z" transform="translate(-4.683 -7.483)" fill="#ffcdbb" stroke="#333" stroke-miterlimit="10" stroke-width="1.5"/>
      <rect id="사각형_1339" data-name="사각형 1339" width="33.255" height="42.863" rx="16.628" transform="translate(96.468 322.621)" fill="#ffcdbb" stroke="#333" stroke-miterlimit="10" stroke-width="1.5"/>
      <ellipse id="타원_338" data-name="타원 338" cx="3.713" cy="1.867" rx="3.713" ry="1.867" transform="translate(99.623 346.334)" fill="#f2a59e"/>
      <ellipse id="타원_339" data-name="타원 339" cx="3.713" cy="1.867" rx="3.713" ry="1.867" transform="translate(119.142 346.334)" fill="#f2a59e"/>
      <rect id="사각형_1340" data-name="사각형 1340" width="4.37" height="2.088" rx="1.044" transform="translate(105.802 338.812)" fill="#445563"/>
      <rect id="사각형_1341" data-name="사각형 1341" width="4.37" height="2.088" rx="1.044" transform="translate(120.388 340.9) rotate(180)" fill="#445563"/>
      <path id="패스_4787" data-name="패스 4787" d="M126.18,327.452a16.529,16.529,0,0,1,3.172,9.74V346.8a16.627,16.627,0,0,1-16.628,16.627h0a16.535,16.535,0,0,1-9.74-3.171,16.614,16.614,0,0,0,30.084-9.74v-9.609A16.588,16.588,0,0,0,126.18,327.452Z" transform="translate(-3.345 -1.66)" fill="#ffbfae" style="mix-blend-mode: darken;isolation: isolate"/>
      <path id="사각형_1342" data-name="사각형 1342" d="M3.344,0H4.736a0,0,0,0,1,0,0V9.743a0,0,0,0,1,0,0H3.344A3.344,3.344,0,0,1,0,6.4V3.344A3.344,3.344,0,0,1,3.344,0Z" transform="translate(91.732 340.117)" fill="#ffcdbb" stroke="#333" stroke-miterlimit="10" stroke-width="1.5"/>
      <path id="사각형_1343" data-name="사각형 1343" d="M3.344,0H4.736a0,0,0,0,1,0,0V9.743a0,0,0,0,1,0,0H3.344A3.344,3.344,0,0,1,0,6.4V3.344A3.344,3.344,0,0,1,3.344,0Z" transform="translate(134.458 349.86) rotate(-180)" fill="#ffcdbb" stroke="#333" stroke-miterlimit="10" stroke-width="1.5"/>
      <rect id="사각형_1344" data-name="사각형 1344" width="2.048" height="3.985" rx="1.024" transform="translate(107.216 343.297)" fill="#333"/>
      <rect id="사각형_1345" data-name="사각형 1345" width="2.048" height="3.985" rx="1.024" transform="translate(118.975 347.282) rotate(180)" fill="#333"/>
      <ellipse id="타원_340" data-name="타원 340" cx="1.366" cy="0.921" rx="1.366" ry="0.921" transform="translate(111.729 347.817)" fill="#e89c8e" style="mix-blend-mode: darken;isolation: isolate"/>
      <path id="패스_4788" data-name="패스 4788" d="M134.574,335.778a19.658,19.658,0,0,0-.237-3.015,19.172,19.172,0,0,0-37.864,0,19.66,19.66,0,0,0-.237,3.015v4.132h7.62l1.791-7.513,1.791,7.513h6.178l1.79-7.513,1.791,7.513h6.178l1.791-7.513,1.79,7.513h7.617Z" transform="translate(-2.312)" fill="#445563" stroke="#333" stroke-linecap="round" stroke-linejoin="round" stroke-width="1.5"/>
      <path id="패스_4789" data-name="패스 4789" d="M117.777,362.124h0a6.507,6.507,0,0,1-5.5-3.039l-.545-.866h12.1l-.545.866A6.505,6.505,0,0,1,117.777,362.124Z" transform="translate(-4.684 -6.371)" fill="#f99273" stroke="#333" stroke-linecap="round" stroke-linejoin="round" stroke-width="1.5"/>
      <line id="선_295" data-name="선 295" y1="17.972" transform="translate(132.812 386.105)" fill="#ffd24f" stroke="#333" stroke-linecap="round" stroke-linejoin="round" stroke-width="1.5"/>
      <line id="선_296" data-name="선 296" y1="17.972" transform="translate(92.436 386.105)" fill="#ffd24f" stroke="#333" stroke-linecap="round" stroke-linejoin="round" stroke-width="1.5"/>
      <path id="패스_4821" data-name="패스 4821" d="M118.231,326.958l-.988-.794a5.412,5.412,0,0,1,.851-1.11,8.141,8.141,0,0,1,1.536-1.3c.225-.175.887-.571,1.076-.971a1.059,1.059,0,0,0-.092-1.046,1.149,1.149,0,0,0-1.1-.346c-.517.121-.831.565-1.126,1.395a4.014,4.014,0,0,1-.732,1.391,2.52,2.52,0,0,1-1.137.724,2.338,2.338,0,0,1-1.161.047,2.26,2.26,0,0,1-1.027-.519,2.581,2.581,0,0,1-.828-1.832,2.308,2.308,0,0,1,.759-1.739,2.347,2.347,0,0,1,1.171-.628,2.164,2.164,0,0,1,1.052.062,2.73,2.73,0,0,1,.981.544l-.794.863,0,0a1.589,1.589,0,0,0-.562-.3,1.027,1.027,0,0,0-1.046.305,1.147,1.147,0,0,0-.392.87,1.41,1.41,0,0,0,.437.974,1.131,1.131,0,0,0,1.072.224c.293-.088.751-.4,1.071-1.3a4.1,4.1,0,0,1,.787-1.517,2.382,2.382,0,0,1,1.2-.716,2.32,2.32,0,0,1,2.245.713,2.041,2.041,0,0,1,.531,1.512,2.208,2.208,0,0,1-.8,1.488c-.446.408-1.042.75-1.69,1.385a6.665,6.665,0,0,0-1.308,1.612" transform="translate(8.145 62.98)" fill="#fff"/>
    </g>
  </g>
</svg>
