<svg xmlns="http://www.w3.org/2000/svg" width="41" height="33" viewBox="0 0 41 33">
  <g id="_27.성별" data-name="27.성별" transform="translate(0.5 0.5)">
    <path id="패스_2358" data-name="패스 2358" d="M1793.086,660.927a9.3,9.3,0,1,0-4.023,0v3.39h-4.776v4h4.776v5.334h4.023v-5.334h4.777v-4h-4.777ZM1785.8,651.9a5.276,5.276,0,1,1,5.276,5.246A5.267,5.267,0,0,1,1785.8,651.9Z" transform="translate(-1781.776 -642.657)" fill="#fff" stroke="#555" stroke-linecap="round" stroke-linejoin="round" stroke-width="1"/>
    <path id="패스_2359" data-name="패스 2359" d="M1803.637,649.488v6.9a9.3,9.3,0,1,0,4.023,0v-6.9l3.024,3.008,2.845-2.83-6.458-6.423a2.02,2.02,0,0,0-2.845,0l-6.457,6.423,2.845,2.83Zm7.288,15.921a5.276,5.276,0,1,1-5.276-5.247A5.268,5.268,0,0,1,1810.925,665.409Z" transform="translate(-1774.948 -642.657)" fill="#fff" stroke="#555" stroke-linecap="round" stroke-linejoin="round" stroke-width="1"/>
  </g>
</svg>
