<svg xmlns="http://www.w3.org/2000/svg" width="16.25" height="16.251" viewBox="0 0 16.25 16.251">
    <path data-name="패스 15238" d="M559 563.713a8 8 0 1 1 8-8 8.01 8.01 0 0 1-8 8zm0-15.247a7.247 7.247 0 1 0 7.247 7.247 7.255 7.255 0 0 0-7.247-7.248z" style="stroke:#333;fill:#333;stroke-width:.25px" transform="translate(-550.875 -547.587)"/>
    <path data-name="패스 60831" d="m64.1 53.563.23 1.668 1.638-.117" transform="translate(-59.75 -48.746)" style="fill:none;stroke-linecap:round;stroke-linejoin:round;stroke:#333"/>
    <path data-name="패스 60832" d="M51.593 54.54A3.9 3.9 0 0 1 57.125 53a4.306 4.306 0 0 1 1.855 2.614" transform="translate(-46.894 -48.18)" style="fill:none;stroke-linecap:round;stroke-linejoin:round;stroke:#333"/>
    <path data-name="패스 60831" d="m53.821 65.855-.23-1.668-1.638.117" transform="translate(-41.919 -54.449)" style="fill:none;stroke-linecap:round;stroke-linejoin:round;stroke:#333"/>
    <path data-name="패스 60832" d="M60.024 63.4a3.9 3.9 0 0 1-5.532 1.536 4.308 4.308 0 0 1-1.855-2.614" transform="translate(-48.473 -53.537)" style="fill:none;stroke-linecap:round;stroke-linejoin:round;stroke:#333"/>
</svg>
