<svg xmlns="http://www.w3.org/2000/svg" width="16" height="16" viewBox="0 0 16 16">
    <path data-name="사각형 9194" style="fill:none" d="M0 0h16v16H0z"/>
    <path data-name="패스 16372" d="M605.719 751.436a7.773 7.773 0 1 1 7.773-7.773 7.782 7.782 0 0 1-7.773 7.773zm0-14.815a7.042 7.042 0 1 0 7.042 7.042 7.049 7.049 0 0 0-7.042-7.042z" transform="translate(-597.719 -735.662)" style="fill:#333;stroke:#333;stroke-width:.25px"/>
    <g data-name="그룹 5943">
        <path data-name="패스 16373" d="M612.521 748.841h-9.834a.392.392 0 1 1 0-.783h9.834a.392.392 0 1 1 0 .783z" transform="translate(-599.603 -739.941)" style="fill:#333;stroke:#333;stroke-width:.25px"/>
        <path data-name="패스 16374" d="M610.017 750.525a.393.393 0 0 1-.371-.264l-1.7-4.948-1.7 4.948a.393.393 0 0 1-.371.264.392.392 0 0 1-.371-.264l-2.073-6.025a.392.392 0 1 1 .741-.255l1.7 4.947 1.7-4.947a.392.392 0 0 1 .741 0l1.7 4.948 1.7-4.948a.392.392 0 0 1 .741.255l-2.074 6.025a.392.392 0 0 1-.363.264z" transform="translate(-599.943 -738.612)" style="fill:#333;stroke:#333;stroke-width:.25px"/>
    </g>
</svg>
