<svg xmlns="http://www.w3.org/2000/svg" width="43.064" height="36.05" viewBox="0 0 43.064 36.05">
    <g transform="translate(-142.395 -342.04)">
        <path data-name="패스 67872" d="M13.238 0h4.678a13.238 13.238 0 0 1 13.238 13.238v6.678c0 7.311-4.067 13.238-11.378 13.238h-8.157c-7.311 0-12.365-7.5-10.494-12.887v-7.029C-4.553 5.868 5.927 0 13.238 0z" transform="translate(147.754 343.928)" style="opacity:.1;fill:#fff"/>
        <path data-name="패스 67872" d="M146.929 355.414h.225a2.856 2.856 0 0 1 2.856 2.856v6.785a2.855 2.855 0 0 1-2.856 2.855h-.654a2.855 2.855 0 0 1-2.855-2.855h0v-6.785a2.856 2.856 0 0 1 2.855-2.856h.429" transform="translate(0 -.132)" style="fill:none;stroke:#fff;stroke-linecap:round;stroke-linejoin:round;stroke-width:2.5px"/>
        <path data-name="패스 67872" d="M181.5 355.414h.226a2.856 2.856 0 0 1 2.856 2.856v6.785a2.856 2.856 0 0 1-2.856 2.855h-.654a2.854 2.854 0 0 1-2.855-2.855h0v-6.785a2.856 2.856 0 0 1 2.855-2.856h.428" transform="translate(-.376 -.132)" style="fill:none;stroke:#fff;stroke-linecap:round;stroke-linejoin:round;stroke-width:2.5px"/>
        <path data-name="패스 67873" d="M179.693 368.465a14.7 14.7 0 0 1-7.173 7.3" transform="translate(-.314 -.274)" style="fill:none;stroke:#fff;stroke-linecap:round;stroke-linejoin:round;stroke-width:2.5px"/>
        <path data-name="패스 67874" d="M146.9 354.712a14.873 14.873 0 0 1 14.566-11.422h4.218a14.887 14.887 0 0 1 14.441 10.935" transform="translate(-.035)" style="fill:none;stroke:#fff;stroke-linecap:round;stroke-linejoin:round;stroke-width:2.5px"/>
        <circle data-name="타원 2893" cx="2.595" cy="2.595" r="2.595" transform="translate(169.565 372.899)" style="fill:#fff"/>
        <path data-name="패스 67876" d="m164.881 368.891-2.346-1.884a12.863 12.863 0 0 1 2.017-2.633 19.39 19.39 0 0 1 3.644-3.087c.531-.417 2.108-1.353 2.555-2.3a2.506 2.506 0 0 0-.219-2.482 2.729 2.729 0 0 0-2.606-.823c-1.228.287-1.971 1.343-2.673 3.311a9.508 9.508 0 0 1-1.735 3.3 5.985 5.985 0 0 1-2.7 1.718 5.578 5.578 0 0 1-2.76.106 5.344 5.344 0 0 1-2.435-1.232 6.113 6.113 0 0 1-1.965-4.346 5.468 5.468 0 0 1 1.806-4.124 5.568 5.568 0 0 1 2.777-1.486 5.141 5.141 0 0 1 2.5.147 6.441 6.441 0 0 1 2.327 1.292l-1.881 2.048.007.008a3.712 3.712 0 0 0-1.332-.706 2.441 2.441 0 0 0-2.485.723 2.724 2.724 0 0 0-.929 2.064 3.339 3.339 0 0 0 1.037 2.311 2.683 2.683 0 0 0 2.548.531c.7-.212 1.78-.938 2.542-3.079a9.716 9.716 0 0 1 1.868-3.6 5.648 5.648 0 0 1 2.856-1.7 5.5 5.5 0 0 1 5.327 1.693 4.842 4.842 0 0 1 1.261 3.585 5.233 5.233 0 0 1-1.887 3.528c-1.062.968-2.473 1.781-4.007 3.292a15.837 15.837 0 0 0-3.1 3.822" transform="translate(.149 .67)" style="fill:#fff"/>
    </g>
</svg>
