<svg xmlns="http://www.w3.org/2000/svg" width="20" height="20" viewBox="0 0 20 20">
    <path data-name="사각형 14113" style="fill:none" d="M0 0h20v20H0z"/>
    <g data-name="그룹 59251">
        <path data-name="패스 67478" d="M17.645 6.927a1.427 1.427 0 0 0-2.159-1.74 1.432 1.432 0 0 0-1.351-.967 1.432 1.432 0 0 0-1.353.967 1.427 1.427 0 0 0-2.156 1.73A1.429 1.429 0 0 0 11 9.727h6.275a1.424 1.424 0 0 0 .373-2.8" transform="translate(-2.849 .225)" style="opacity:.7;fill:#7e4f40"/>
        <path data-name="패스 67479" d="M8.754 8.261h-.082a1.482 1.482 0 0 1-.235-2.927 1.475 1.475 0 0 1 2.233-1.791 1.483 1.483 0 0 1 2.847-.007 1.582 1.582 0 0 1 .911-.3 1.453 1.453 0 0 1 1.027.443.239.239 0 0 1-.343.333.979.979 0 0 0-.692-.3h-.014a.984.984 0 0 0-.871.527.239.239 0 0 1-.449-.132l.006-.054a1.02 1.02 0 0 0-.252-.771 1 1 0 0 0-1.748.619.946.946 0 0 0 0 .1v.05l.006.052a.239.239 0 0 1-.448.135 1 1 0 1 0-1.62 1.141.238.238 0 0 1 .04.257.26.26 0 0 1-.27.137 1 1 0 0 0-.1 2.008 1.091 1.091 0 0 0 .112 0h6.555a1 1 0 0 0 1-1 .239.239 0 1 1 .478 0 1.483 1.483 0 0 1-1.481 1.482H8.755" transform="translate(-1.652 1.137)" style="fill:#333"/>
        <path data-name="패스 67479 - 윤곽선" d="M8.754 8.336h-.086a1.557 1.557 0 0 1-.334-3.056 1.55 1.55 0 0 1 2.3-1.858 1.558 1.558 0 0 1 2.926-.007 1.709 1.709 0 0 1 .868-.257 1.528 1.528 0 0 1 1.084.466.314.314 0 1 1-.45.438.905.905 0 0 0-.639-.276h-.013a.909.909 0 0 0-.8.487.314.314 0 0 1-.279.167.319.319 0 0 1-.087-.012.314.314 0 0 1-.224-.329c0-.011 0-.033.005-.047v-.008a.945.945 0 0 0-.234-.713.929.929 0 0 0-1.617.573.876.876 0 0 0 0 .1l.01.1a.314.314 0 0 1-.588.18.922.922 0 0 0-1.694.18.915.915 0 0 0 .074.7.929.929 0 0 0 .122.174.313.313 0 0 1 .052.337.33.33 0 0 1-.3.184.306.306 0 0 1-.045 0A.929.929 0 0 0 8.7 7.706a1.018 1.018 0 0 0 .1 0h6.559a.93.93 0 0 0 .928-.929.314.314 0 1 1 .628 0 1.558 1.558 0 0 1-1.556 1.557H8.825zm1.022-5.018A1.4 1.4 0 0 0 8.505 5.3l.039.084-.091.02a1.407 1.407 0 0 0 .223 2.778 1.239 1.239 0 0 0 .14 0h6.548a1.408 1.408 0 0 0 1.406-1.407.164.164 0 0 0-.328 0 1.08 1.08 0 0 1-1.078 1.079H8.81a1.142 1.142 0 0 1-.116 0A1.079 1.079 0 0 1 8.809 5.7h.033a.184.184 0 0 0 .163-.1.163.163 0 0 0-.027-.176 1.072 1.072 0 1 1 1.742-1.218.167.167 0 0 0 .192.078.164.164 0 0 0 .116-.171l-.011-.1a1.029 1.029 0 0 1 0-.115 1.079 1.079 0 0 1 1.883-.667 1.092 1.092 0 0 1 .271.825v.054a.165.165 0 0 0 .116.174.167.167 0 0 0 .046.006.164.164 0 0 0 .146-.087 1.059 1.059 0 0 1 .937-.567h.014a1.055 1.055 0 0 1 .745.321.167.167 0 0 0 .232 0 .162.162 0 0 0 .05-.115.164.164 0 0 0-.047-.118 1.377 1.377 0 0 0-.974-.42 1.508 1.508 0 0 0-.864.287l-.087.067-.031-.105a1.407 1.407 0 0 0-1.277-1.008h-.071a1.407 1.407 0 0 0-1.354 1.016l-.03.105-.097-.066a1.415 1.415 0 0 0-.849-.282z" transform="translate(-1.652 1.137)" style="fill:#333"/>
        <path data-name="패스 67480" d="M5.753 15.143a.239.239 0 0 1-.236-.2 7.147 7.147 0 0 0-.094-.458 8.13 8.13 0 0 1-.085-.406.237.237 0 0 0-.265-.228c-.484.009-.939.012-1.391 0a2.1 2.1 0 0 1-2.092-1.782 20.465 20.465 0 0 1-.087-.507c-.05-.306-.1-.623-.177-.924a.487.487 0 0 0-.232-.3C.477 10.09.131 9.791.031 9.411A1.528 1.528 0 0 1 .488 8.1a3.844 3.844 0 0 0 .8-2.322A6.155 6.155 0 0 1 7.294 0a.252.252 0 0 1 .245.233.239.239 0 0 1-.233.245 5.675 5.675 0 0 0-5.54 5.314 4.31 4.31 0 0 1-.9 2.6c-.307.395-.429.688-.373.9s.329.427.808.623a.981.981 0 0 1 .488.607c.081.324.135.651.186.967.027.168.055.336.086.5a1.629 1.629 0 0 0 1.617 1.388h.009c.454.01.9.007 1.349 0a.7.7 0 0 1 .771.6c.025.145.054.273.083.4.036.162.073.323.1.486a.239.239 0 0 1-.2.274.212.212 0 0 1-.039 0m6.149-.049a.239.239 0 0 1-.233-.189c-.053-.25-.1-.5-.154-.75s-.1-.492-.152-.738a3.1 3.1 0 0 1 .4-2.367c.356-.566.734-1.173 1.087-1.8a6.794 6.794 0 0 0 .518-1.144.239.239 0 0 1 .453.154 7.243 7.243 0 0 1-.555 1.236 45.29 45.29 0 0 1-1.1 1.815 2.624 2.624 0 0 0-.336 2.007c.054.253.1.5.154.748s.1.5.153.746a.239.239 0 0 1-.184.283.251.251 0 0 1-.05.005" transform="translate(2.146 2.428)" style="fill:#333"/>
        <path data-name="패스 67480 - 윤곽선" d="M5.753 15.218a.313.313 0 0 1-.31-.264c-.024-.151-.059-.3-.092-.449s-.063-.279-.087-.414c-.016-.112-.093-.184-.177-.168h-.012c-.31.006-.568.009-.81.009-.207 0-.4 0-.585-.006h-.025a2.165 2.165 0 0 1-2.139-1.848 15.49 15.49 0 0 1-.081-.473l-.006-.034c-.047-.287-.1-.613-.176-.918a.409.409 0 0 0-.192-.247c-.645-.264-1-.575-1.1-.979a1.592 1.592 0 0 1 .468-1.376 3.767 3.767 0 0 0 .784-2.277A6.235 6.235 0 0 1 7.292-.075H7.3a.328.328 0 0 1 .316.305.315.315 0 0 1-.306.322A5.6 5.6 0 0 0 1.84 5.8a4.371 4.371 0 0 1-.915 2.636c-.287.37-.408.65-.36.833.035.133.2.34.764.573h.008a1.058 1.058 0 0 1 .524.653c.083.33.136.657.188.974.025.152.054.329.086.5A1.558 1.558 0 0 0 3.678 13.3h.009c.2 0 .4.007.622.007s.447 0 .721-.006a.68.68 0 0 1 .1-.007.786.786 0 0 1 .752.674c.023.137.051.26.082.4.036.16.073.325.1.491a.314.314 0 0 1-.259.36.28.28 0 0 1-.052-.001zm-.641-1.446a.317.317 0 0 1 .3.3c.023.129.052.257.084.4s.07.307.095.463a.163.163 0 0 0 .162.138h.025a.165.165 0 0 0 .137-.189 7.1 7.1 0 0 0-.1-.482 7.475 7.475 0 0 1-.083-.406.634.634 0 0 0-.6-.547.529.529 0 0 0-.082.006h-.01c-.277 0-.509.007-.729.007s-.425 0-.624-.007h-.009A1.707 1.707 0 0 1 1.986 12c-.032-.171-.061-.349-.086-.5-.051-.314-.1-.638-.185-.961a.909.909 0 0 0-.448-.558c-.505-.21-.782-.429-.847-.673s.06-.544.387-.963a4.224 4.224 0 0 0 .884-2.553A5.751 5.751 0 0 1 7.3.4a.165.165 0 0 0 .16-.169.177.177 0 0 0-.167-.156 6.085 6.085 0 0 0-5.93 5.7 3.913 3.913 0 0 1-.816 2.368c-.4.514-.537.9-.444 1.248s.426.639 1.018.88h.008a.56.56 0 0 1 .268.343c.078.312.132.641.179.931l.006.034c.026.157.052.319.081.471a2.017 2.017 0 0 0 1.992 1.723h.026c.188 0 .378.006.584.006.239 0 .494 0 .8-.008a.279.279 0 0 1 .047.001zm6.79 1.4a.315.315 0 0 1-.307-.249c-.053-.248-.1-.5-.155-.751-.044-.218-.1-.477-.152-.738a3.169 3.169 0 0 1 .408-2.423c.356-.566.732-1.17 1.085-1.792a6.717 6.717 0 0 0 .512-1.142.314.314 0 0 1 .3-.212.32.32 0 0 1 .1.016.314.314 0 0 1 .2.4 7.319 7.319 0 0 1-.561 1.249c-.357.63-.739 1.244-1.1 1.818a2.549 2.549 0 0 0-.326 1.95c.054.255.1.5.154.751s.1.495.153.745a.314.314 0 0 1-.242.372.328.328 0 0 1-.071.003zm1.691-7.155a.164.164 0 0 0-.156.11 6.868 6.868 0 0 1-.524 1.167 48.05 48.05 0 0 1-1.089 1.8 3.02 3.02 0 0 0-.389 2.31c.056.263.108.522.153.741.051.253.1.5.154.749a.164.164 0 0 0 .16.13.176.176 0 0 0 .035 0 .164.164 0 0 0 .126-.194c-.053-.251-.105-.507-.154-.747s-.1-.494-.154-.747a2.7 2.7 0 0 1 .346-2.063 50.06 50.06 0 0 0 1.1-1.812 7.169 7.169 0 0 0 .55-1.223.164.164 0 0 0-.1-.208.169.169 0 0 0-.058-.016z" transform="translate(2.146 2.428)" style="fill:#333"/>
        <path data-name="패스 67481" d="M25.759 7.991a.938.938 0 0 1-.665-.274l-.15-.15a.461.461 0 0 0-.654 0l-.083.083a.936.936 0 0 1-1.259.064l-.37-.345a.239.239 0 1 1 .325-.35l.359.334a.458.458 0 0 0 .607-.042l.083-.083a.941.941 0 0 1 1.329 0l.151.151a.464.464 0 0 0 .654 0l.08-.08a.941.941 0 0 1 1.329 0 .239.239 0 0 1-.338.338.462.462 0 0 0-.653 0l-.08.08a.938.938 0 0 1-.665.274" transform="translate(-9.601 -1.202)" style="fill:#333"/>
        <path data-name="패스 67482" d="M30.018 4.99a.938.938 0 0 1-.665-.274l-.15-.15a.472.472 0 0 0-.653 0l-.083.083a.937.937 0 0 1-1.26.064l-.37-.345a.239.239 0 1 1 .325-.35l.359.334a.458.458 0 0 0 .608-.042l.083-.083a.94.94 0 0 1 1.329 0l.151.151a.465.465 0 0 0 .654 0l.08-.08a.941.941 0 0 1 1.329 0 .239.239 0 1 1-.338.338.462.462 0 0 0-.653 0l-.08.08a.938.938 0 0 1-.665.274" transform="translate(-11.824 .365)" style="fill:#333"/>
        <path data-name="패스 67483" d="M29.074 11.193a.938.938 0 0 1-.664-.274l-.15-.151a.473.473 0 0 0-.653 0l-.083.083a.935.935 0 0 1-1.259.064l-.37-.345a.239.239 0 1 1 .325-.349l.359.335a.459.459 0 0 0 .607-.042l.083-.083a.933.933 0 0 1 .664-.275.933.933 0 0 1 .664.275l.151.151a.465.465 0 0 0 .654 0l.079-.079a.942.942 0 0 1 1.33 0 .239.239 0 0 1-.338.338.463.463 0 0 0-.654 0l-.079.079a.939.939 0 0 1-.666.275" transform="translate(-11.332 -2.873)" style="fill:#333"/>
        <g data-name="그룹 67484" style="opacity:.7">
            <path data-name="패스 67484" d="M8.62 21.262a.24.24 0 0 1-.235-.194c-.187-.988-1.339-1.216-1.35-1.219a.239.239 0 1 1 .089-.469 2.2 2.2 0 0 1 1.731 1.6.239.239 0 0 1-.19.28.242.242 0 0 1-.045 0" transform="translate(-1.426 -7.687)" style="fill:#7e4f40"/>
            <path data-name="패스 67484 - 윤곽선" d="M8.62 21.312a.29.29 0 0 1-.284-.235c-.178-.938-1.265-1.17-1.311-1.179a.289.289 0 0 1 .055-.572.3.3 0 0 1 .053 0A2.238 2.238 0 0 1 8.9 20.969a.29.29 0 0 1-.284.343zm-1.54-1.886a.189.189 0 0 0-.186.153.189.189 0 0 0 .15.221 1.8 1.8 0 0 1 1.39 1.259.187.187 0 0 0 .221.15.19.19 0 0 0 .15-.221 2.135 2.135 0 0 0-1.691-1.558.2.2 0 0 0-.033-.004z" transform="translate(-1.426 -7.687)" style="fill:#7e4f40"/>
        </g>
    </g>
</svg>
