<svg width="203" height="130" viewBox="0 0 203 130" fill="none" xmlns="http://www.w3.org/2000/svg">
<path d="M140.886 49.8175C141.837 47.096 143.412 44.6352 145.486 42.6325C147.56 40.6299 150.074 39.1411 152.827 38.2857C150.417 36.2516 148.235 33.9623 146.319 31.4578C143.891 35.3876 140.064 38.1248 137.057 41.5647C135.93 42.8546 135.001 43.8169 136.255 45.2858C136.847 45.9797 141.213 48.8507 140.883 49.8217" fill="#FA8E80"/>
<path d="M57.961 95.5149C56.1 95.6909 54.246 95.9149 52.407 96.2759C53.2107 98.4652 53.5028 100.809 53.261 103.129L60.432 102.72C60.5533 102.716 60.6734 102.696 60.789 102.659C60.3333 100.112 59.3723 97.6831 57.961 95.5149Z" fill="#EA4550"/>
<path d="M73.744 62.7699C74.8806 64.4603 75.4295 66.4777 75.306 68.5109C76.1817 67.8918 77.244 67.5933 78.314 67.6659C78.8721 67.7733 79.4011 67.9974 79.8664 68.3237C80.3318 68.6499 80.7228 69.0709 81.014 69.5589C81.5885 70.5377 82.0208 71.5933 82.298 72.6939C82.5084 71.065 82.5262 69.417 82.351 67.7839C81.733 63.5839 77.845 60.7359 73.744 62.7699Z" fill="#7399C6"/>
<path d="M61.384 33.21L60.245 27.31L60.145 26.646C56.8086 25.6483 53.2327 25.8101 50 27.105C51.5615 29.619 52.8205 32.3086 53.751 35.118C54.7469 34.0452 55.9484 33.1838 57.284 32.585C57.9573 32.2952 58.6982 32.1998 59.4229 32.3098C60.1476 32.4197 60.827 32.7305 61.384 33.207" fill="#EA4550"/>
</svg>
