<svg width="204" height="121" viewBox="0 0 204 121" fill="none" xmlns="http://www.w3.org/2000/svg">
<path d="M82.602 108.69C79.78 108.957 76.968 109.304 74.179 109.843C75.3979 113.163 75.8409 116.718 75.474 120.236L86.349 119.616C86.5331 119.611 86.7156 119.58 86.891 119.524C86.2003 115.662 84.7419 111.978 82.602 108.69Z" fill="#EA4550"/>
<path d="M153.731 9.424C156.306 8.12808 159.149 7.45377 162.032 7.45516C164.915 7.45655 167.757 8.1336 170.331 9.432C170.012 6.29482 170.035 3.13233 170.398 0C165.921 1.138 161.267 0.446002 156.714 0.829002C155.007 0.973002 153.67 1.019 153.551 2.947C153.494 3.857 154.638 8.956 153.726 9.425" fill="#FA8E80"/>
<path d="M106.531 59.03C108.254 61.5936 109.086 64.6528 108.899 67.736C110.227 66.7968 111.838 66.344 113.461 66.454C114.307 66.6168 115.109 66.9566 115.815 67.4513C116.52 67.9459 117.113 68.5841 117.555 69.324C118.426 70.8087 119.082 72.4097 119.502 74.079C119.821 71.6088 119.848 69.1096 119.583 66.633C118.645 60.27 112.75 55.945 106.531 59.033" fill="#7399C6"/>
<path d="M5.459 81.001L0.579 88.686L0 89.524C2.63861 94.0983 6.74951 97.6435 11.662 99.581C12.5556 95.1822 13.9654 90.9043 15.862 86.836C13.647 86.9826 11.4252 86.6816 9.329 85.951C7.288 85.091 5.522 83.213 5.461 81" fill="#EA4550"/>
<path d="M159.585 74.8789L154.704 82.5639L154.125 83.4019C156.764 87.9762 160.875 91.5214 165.787 93.4589C166.68 89.0601 168.09 84.7821 169.987 80.7139C167.772 80.8608 165.55 80.5595 163.454 79.8279C161.413 78.9699 159.647 77.0909 159.586 74.8779" fill="#EDB24C"/>
<path d="M203.135 111.036L201.409 102.093L201.254 101.086C196.194 99.5744 190.771 99.8211 185.869 101.786C188.241 105.596 190.155 109.674 191.569 113.934C193.079 112.306 194.901 111 196.927 110.092C199 109.316 201.574 109.468 203.139 111.035" fill="#EA4550"/>
<path d="M87.787 14.2L86.059 5.26195L85.904 4.25495C80.8442 2.74332 75.4216 2.99006 70.52 4.95495C72.8917 8.7657 74.805 12.8433 76.22 17.103C77.7284 15.475 79.5488 14.167 81.573 13.257C83.646 12.481 86.22 12.634 87.785 14.2" fill="#EA4550"/>
</svg>
