<svg xmlns="http://www.w3.org/2000/svg" width="20" height="20" viewBox="0 0 20 20">
    <defs>
        <clipPath id="ms0mklujia">
            <path data-name="사각형 14141" transform="translate(-19713.375 -9135.375)" style="fill:#fff" d="M0 0h20v20H0z"/>
        </clipPath>
        <clipPath id="l072vbj0hb">
            <path data-name="사각형 14140" style="fill:none" d="M0 0h5.417v5.417H0z"/>
        </clipPath>
    </defs>
    <g data-name="그룹 59580" transform="translate(19713.375 9135.375)" style="clip-path:url(#ms0mklujia)">
        <g data-name="그룹 59579">
            <path data-name="패스 67648" d="M19.582.01a1.779 1.779 0 1 1-1.316.582A1.774 1.774 0 0 1 19.582.01zm0 2.877a1.1 1.1 0 1 0-.739-.286 1.1 1.1 0 0 0 .738.286z" transform="translate(-19719.142 -9133.072)" style="fill:#333"/>
            <path data-name="패스 67649" d="M6.517 2.963a1.779 1.779 0 1 1-1.317.582 1.774 1.774 0 0 1 1.317-.582zm0 2.877a1.1 1.1 0 1 0-.739-.286 1.1 1.1 0 0 0 .738.286z" transform="translate(-19717.191 -9133.399)" style="fill:#333"/>
            <path data-name="패스 67650" d="M16.909 4.978a.34.34 0 0 1-.251-.569l.342-.38a1.483 1.483 0 0 1 1.034-.487.34.34 0 0 1 .032.679.808.808 0 0 0-.563.265l-.346.38a.339.339 0 0 1-.248.112z" transform="translate(-19719.043 -9133.355)" style="fill:#333"/>
            <path data-name="패스 67651" d="M12.151 4.6a.34.34 0 0 1-.1-.016 9.087 9.087 0 0 0-2.128-.409.34.34 0 0 1 .046-.678 9.777 9.777 0 0 1 2.29.439.34.34 0 0 1-.1.664z" transform="translate(-19718.485 -9133.351)" style="fill:#333"/>
            <path data-name="패스 67652" d="M18.311 7.753a.34.34 0 0 1-.324-.444.814.814 0 0 0-.528-1.023l-5.221-1.67a.34.34 0 0 1 .207-.648l5.221 1.67a1.494 1.494 0 0 1 .968 1.878.34.34 0 0 1-.323.237z" transform="translate(-19718.677 -9133.388)" style="fill:#333"/>
            <path data-name="패스 67653" d="M14.3 11.912a1.483 1.483 0 0 1-1-.388 1.5 1.5 0 0 1-.1-2.111l1.3-1.438-2.264-.724a.34.34 0 0 1 .207-.648l2.768.885a.34.34 0 0 1 .148.553L13.7 9.87a.817.817 0 0 0 .055 1.151.814.814 0 0 0 1.149-.056l.967-1.065a.34.34 0 1 1 .5.458l-.969 1.064a1.484 1.484 0 0 1-1.034.488z" transform="translate(-19718.677 -9133.599)" style="fill:#333"/>
            <path data-name="선 3372" d="M.6.886A.339.339 0 0 1 .367.8L-.23.251A.34.34 0 0 1-.251-.23.34.34 0 0 1 .23-.251l.6.546A.34.34 0 0 1 .6.886z" transform="translate(-19698.031 -9123.584)" style="fill:#333"/>
            <path data-name="패스 67654" d="M17.768 16.028a.34.34 0 0 1-.338-.312 29.349 29.349 0 0 0-.513-3.669.34.34 0 0 1 .665-.142 30.036 30.036 0 0 1 .526 3.755.34.34 0 0 1-.311.367z" transform="translate(-19719.07 -9134.003)" style="fill:#333"/>
            <path data-name="패스 67655" d="M17.751 17.367a.34.34 0 0 1-.338-.31 39.642 39.642 0 0 0-.641-4.885l-.052-.261a.34.34 0 1 1 .668-.129l.051.257A40.7 40.7 0 0 1 18.09 17a.34.34 0 0 1-.309.369z" transform="translate(-19712.314 -9136.332)" style="fill:#333"/>
            <path data-name="패스 67656" d="M15.29 16.089a.34.34 0 0 1-.336-.4 9.255 9.255 0 0 0 .014-2.9.34.34 0 1 1 .668-.125 9.827 9.827 0 0 1-.012 3.138.34.34 0 0 1-.334.287z" transform="translate(-19718.913 -9134.064)" style="fill:#333"/>
            <g data-name="그룹 59578" style="opacity:.7">
                <g data-name="그룹 59577">
                    <g data-name="그룹 59576" style="clip-path:url(#l072vbj0hb)" transform="translate(-19704.843 -9128.456)">
                        <path data-name="패스 67657" d="M19.382 7.7a2.709 2.709 0 1 1-2.708-2.708A2.709 2.709 0 0 1 19.382 7.7" transform="translate(-13.965 -4.987)" style="fill:#7e4f40"/>
                    </g>
                </g>
            </g>
            <path data-name="패스 67658" d="M21.51 13.126a1.48 1.48 0 0 1-.89-.3l-4.184-3.135A1.494 1.494 0 1 1 18.228 7.3l2.546 1.908.451-1.41a.34.34 0 0 1 .648.207l-.6 1.865a.34.34 0 0 1-.528.169L17.82 7.845a.814.814 0 1 0-.976 1.3l4.185 3.138a.811.811 0 0 0 1.079-.1l.022-.022a.8.8 0 0 0 .237-.357l1.4-4.372a.339.339 0 0 1 .013-.034.806.806 0 0 0-.116-.85L21.9 4.446a3.99 3.99 0 0 0-.336-.347.34.34 0 1 1 .459-.5 4.615 4.615 0 0 1 .4.414l1.761 2.1a1.481 1.481 0 0 1 .225 1.544l-1.393 4.356a1.684 1.684 0 0 1-1.5 1.113z" transform="translate(-19718.985 -9133.352)" style="fill:#333"/>
            <path data-name="선 3373" d="M.615.514A.34.34 0 0 1 .522.5L-.093.327a.34.34 0 0 1-.235-.42.34.34 0 0 1 .42-.235l.615.174a.34.34 0 0 1-.092.668z" transform="translate(-19704.996 -9130.359)" style="fill:#7e4f40"/>
            <path data-name="패스 67659" d="M12.15 2.807a.34.34 0 0 1-.092-.013 9.249 9.249 0 0 0-2.116-.272.34.34 0 0 1 0-.68 9.82 9.82 0 0 1 2.3.3.34.34 0 0 1-.091.668z" transform="translate(-19718.485 -9133.219)" style="fill:#7e4f40"/>
            <path data-name="패스 67660" d="M2.07 4.736a.338.338 0 0 1-.191-.059A5.26 5.26 0 0 1-.325-.037a.34.34 0 0 1 .375-.3.34.34 0 0 1 .3.374 4.831 4.831 0 0 0 .14 1.5 4.257 4.257 0 0 0 1.77 2.576.34.34 0 0 1-.191.621z" transform="rotate(7 64748.994 -165703.742)" style="fill:#333"/>
            <path data-name="패스 67661" d="M-19703.977-9154.448a.321.321 0 0 1-.092-.013.338.338 0 0 1-.234-.42 10.284 10.284 0 0 0-.672-6.388.34.34 0 0 1 .16-.454.34.34 0 0 1 .453.159 10.807 10.807 0 0 1 .711 6.868.338.338 0 0 1-.326.248z" transform="translate(-5.611 36.174)" style="fill:#333"/>
        </g>
    </g>
</svg>
