<svg xmlns="http://www.w3.org/2000/svg" width="20" height="20" viewBox="0 0 20 20">
    <path data-name="사각형 10579" style="fill:none" d="M0 0h20v20H0z"/>
    <g data-name="그룹 57422">
        <path data-name="패스 63304" d="M14.626 19.078a1.48 1.48 0 0 1-.908-1.474.3.3 0 0 0-.218-.276 4.514 4.514 0 0 0-4.927 1.856.279.279 0 0 0-.022.286c.679.216 1.725.143 2.559.313.3.062.454 1.1.763 1.081a4.917 4.917 0 0 0 2.083-1.035c.228-.146.507-.028.755-.226a.3.3 0 0 0 .124-.288.309.309 0 0 0-.215-.235" transform="translate(-2.744 -5.202)" style="fill:#7e4f40;opacity:.7"/>
        <path data-name="패스 63305" d="M17.121 12.144a.31.31 0 0 1-.265-.149 2.863 2.863 0 0 0-2.471-1.4H7.8a2.865 2.865 0 0 0-2.471 1.4.309.309 0 0 1-.528-.32 3.473 3.473 0 0 1 3-1.694h6.582a3.473 3.473 0 0 1 3 1.694.308.308 0 0 1-.1.423.3.3 0 0 1-.159.044" transform="translate(-1.091 -2.099)" style="fill:#333"/>
        <path data-name="패스 63305 - 윤곽선" d="M17.121 12.169a.336.336 0 0 1-.286-.161 2.849 2.849 0 0 0-2.449-1.386H7.8a2.851 2.851 0 0 0-2.45 1.385.333.333 0 0 1-.458.112.335.335 0 0 1-.112-.458A3.512 3.512 0 0 1 7.8 9.956h6.582a3.512 3.512 0 0 1 3.02 1.706.333.333 0 0 1-.282.506zm-2.724-1.6a2.9 2.9 0 0 1 2.481 1.41.286.286 0 0 0 .24.137.279.279 0 0 0 .146-.041.283.283 0 0 0 .1-.389 3.462 3.462 0 0 0-2.977-1.682H7.8a3.462 3.462 0 0 0-2.977 1.682.285.285 0 0 0 .1.39.283.283 0 0 0 .39-.1A2.9 2.9 0 0 1 7.8 10.572h6.6z" transform="translate(-1.091 -2.099)" style="fill:#333"/>
        <path data-name="패스 63306" d="M20.279 16.938h-.02a1.774 1.774 0 0 1 .018-3.547h.023a1.774 1.774 0 0 1-.02 3.547m-1.157-1.787a1.156 1.156 0 0 0 1.143 1.17h.014a1.157 1.157 0 0 0 .012-2.314 1.112 1.112 0 0 0-.822.33 1.147 1.147 0 0 0-.348.814" transform="translate(-7.136 -3.597)" style="fill:#333"/>
        <path data-name="합치기 1" d="M0 5.128a1.906 1.906 0 0 1 1.534-2l4.249-.57a.342.342 0 0 1 .369.311.338.338 0 0 1-.284.364L1.63 3.8a1.222 1.222 0 0 0 .322 2.419l4.976-.674a1.2 1.2 0 0 0 1.023-1.361 1.9 1.9 0 0 0-.135-.528L7.8 3.619 6.329.441a.314.314 0 0 1 .149-.414.318.318 0 0 1 .414.156L8.361 3.36v.007a1.946 1.946 0 0 1-.486 2.509 1.824 1.824 0 0 1-.857.352l-4.976.667C2 6.9 1.952 6.9 1.907 6.9A1.906 1.906 0 0 1 0 5.128z" transform="translate(10.375 10.722)" style="fill:#333"/>
        <path data-name="합치기 1 - 윤곽선" d="M1.907 6.911a1.916 1.916 0 0 1-.371-3.8l4.249-.57h.032a.35.35 0 0 1 .055.7l-4.242.574a1.207 1.207 0 0 0-.975 1.403 1.21 1.21 0 0 0 1.2 1h.1l4.975-.674a1.182 1.182 0 0 0 .787-.465 1.194 1.194 0 0 0 .227-.889 1.9 1.9 0 0 0-.134-.526l-.019-.035L6.32.445a.322.322 0 0 1 .154-.427A.316.316 0 0 1 6.6-.01a.334.334 0 0 1 .3.188l1.47 3.178v.008a1.958 1.958 0 0 1-.489 2.52 1.843 1.843 0 0 1-.862.354L2.046 6.9a.79.79 0 0 1-.139.011zm3.91-4.348h-.03l-4.248.57a1.9 1.9 0 0 0 .368 3.757c.048 0 .1 0 .136-.006l4.975-.667a1.822 1.822 0 0 0 .852-.35 1.938 1.938 0 0 0 .483-2.5.018.018 0 0 1 0-.007L6.883.187A.313.313 0 0 0 6.6.01a.3.3 0 0 0-.122.026.3.3 0 0 0-.144.4l1.471 3.179.02.036a1.915 1.915 0 0 1 .136.532A1.213 1.213 0 0 1 6.93 5.558l-4.976.674A1.234 1.234 0 0 1 .837 4.3a1.215 1.215 0 0 1 .792-.506l4.241-.575a.33.33 0 0 0-.052-.656z" transform="translate(10.375 10.722)" style="fill:#333"/>
        <path data-name="합치기 2" d="M6.578 6.889 1.6 6.229a2.028 2.028 0 0 1-.859-.359 1.939 1.939 0 0 1-.48-2.508L1.73.184a.313.313 0 0 1 .57.26L.852 3.549a2.323 2.323 0 0 0-.18.629A1.222 1.222 0 0 0 1.7 5.549l4.969.67A1.221 1.221 0 0 0 7 3.8l-4.25-.57a.346.346 0 0 1-.27-.4.325.325 0 0 1 .359-.279l4.246.57a1.9 1.9 0 0 1-.367 3.771 2.195 2.195 0 0 1-.14-.003z" transform="translate(1.001 10.819)" style="fill:#333"/>
        <path data-name="합치기 2 - 윤곽선" d="M6.719 6.9h-.14L1.6 6.238a2.036 2.036 0 0 1-.864-.361 1.949 1.949 0 0 1-.483-2.521L1.721.179a.334.334 0 0 1 .294-.189.315.315 0 0 1 .142.034.321.321 0 0 1 .153.423L.861 3.553a2.354 2.354 0 0 0-.179.628A1.215 1.215 0 0 0 1.7 5.539l4.969.67h.11a1.211 1.211 0 0 0 .215-2.4L2.749 3.24a.357.357 0 0 1-.278-.412.333.333 0 0 1 .37-.287l4.246.57A1.914 1.914 0 0 1 6.719 6.9zM2.015.01a.314.314 0 0 0-.275.178L.271 3.366a1.929 1.929 0 0 0 .478 2.5 2.015 2.015 0 0 0 .855.357l4.976.66h.139a1.887 1.887 0 0 0 1.857-1.525 1.89 1.89 0 0 0-1.492-2.227l-4.246-.57h-.037a.314.314 0 0 0-.311.273.337.337 0 0 0 .262.389L7 3.791a1.231 1.231 0 0 1-.218 2.443c-.037 0-.075 0-.112-.005l-4.97-.67A1.235 1.235 0 0 1 .662 4.178a2.341 2.341 0 0 1 .18-.632L2.292.439a.3.3 0 0 0-.144-.4.3.3 0 0 0-.133-.029z" transform="translate(1.001 10.819)" style="fill:#333"/>
        <path data-name="패스 63311" d="M6.426 2.605a.3.3 0 0 1-.093-.014A2.131 2.131 0 0 1 4.94.724 4.222 4.222 0 0 0 .554 2.289a.309.309 0 0 1-.49-.377A4.952 4.952 0 0 1 5.336.191a.309.309 0 0 1 .212.3A1.531 1.531 0 0 0 6.518 2a.308.308 0 0 1-.093.6" transform="rotate(3 -204.563 108.001)" style="fill:#333"/>
        <path data-name="패스 63312" d="M14.224 4.669a2.334 2.334 0 1 1 2.334-2.335 2.337 2.337 0 0 1-2.334 2.334m0-4.051a1.717 1.717 0 1 0 1.717 1.717A1.717 1.717 0 0 0 14.224.617" transform="translate(-4.222 2.284)" style="fill:#333"/>
        <path data-name="패스 63312 - 윤곽선" d="M14.224 4.694a2.359 2.359 0 1 1 2.36-2.36 2.362 2.362 0 0 1-2.361 2.36zm0-4.669a2.309 2.309 0 0 0 0 4.619 2.309 2.309 0 0 0 0-4.619zm0 4.052a1.742 1.742 0 1 1 0-3.485 1.742 1.742 0 0 1 0 3.485zm0-3.435a1.692 1.692 0 1 0 1.692 1.692A1.694 1.694 0 0 0 14.224.643z" transform="translate(-4.222 2.284)" style="fill:#333"/>
    </g>
</svg>
