<svg xmlns="http://www.w3.org/2000/svg" width="16" height="16" viewBox="0 0 16 16">
    <defs>
        <clipPath id="tuhsxwa78a">
            <path data-name="사각형 14114" transform="translate(-19712 -9085)" style="fill:#fff" d="M0 0h16v16H0z"/>
        </clipPath>
    </defs>
    <g data-name="그룹 59535" transform="translate(19712 9085)" style="clip-path:url(#tuhsxwa78a)">
        <path data-name="패스 67485" d="M1.278 14.271a2.677 2.677 0 1 1 2.677 2.677 2.677 2.677 0 0 1-2.677-2.677" transform="translate(-19711.845 -9090.286)" style="opacity:.7;fill:#7e4f40"/>
        <path data-name="패스 67486" d="M8.683.507a1.014 1.014 0 0 0-1.008.907 1.064 1.064 0 0 0-.006.107h-.507v-.075A1.52 1.52 0 0 1 8.683 0h7.269a1.521 1.521 0 0 1 1.521 1.521v9.847a1.521 1.521 0 0 1-1.521 1.521h-1.784l.324-.507h1.46a1.014 1.014 0 0 0 1.014-1.014V1.521A1.014 1.014 0 0 0 15.952.507z" transform="translate(-19714.461 -9084.063)" style="fill:#333"/>
        <path data-name="패스 67486 - 윤곽선" d="M8.683-.05h7.269a1.573 1.573 0 0 1 1.571 1.571v9.847a1.573 1.573 0 0 1-1.571 1.571h-1.875l.388-.607h1.487a.965.965 0 0 0 .964-.964V1.521a.965.965 0 0 0-.964-.964H8.683a.961.961 0 0 0-.959.862 1.013 1.013 0 0 0-.005.1v.05h-.607v-.128A1.568 1.568 0 0 1 8.683-.05zm7.269 12.889a1.473 1.473 0 0 0 1.471-1.471V1.521A1.473 1.473 0 0 0 15.952.05H8.683a1.468 1.468 0 0 0-1.469 1.4v.023h.406v-.062A1.061 1.061 0 0 1 8.683.457h7.269a1.065 1.065 0 0 1 1.064 1.064v9.847a1.065 1.065 0 0 1-1.064 1.064h-1.433l-.26.407z" transform="translate(-19714.461 -9084.063)" style="fill:#333"/>
        <path data-name="패스 67487" d="M10.636 15.209c-.78 0-1.557 0-2.318-.008h-.741c-.406 0-.827 0-1.242-.009a1.693 1.693 0 0 1-1.444-.633A2.73 2.73 0 0 1 4.5 12.97a.253.253 0 0 1 .507 0 2.276 2.276 0 0 0 .3 1.3 1.216 1.216 0 0 0 1.044.418c.405.012.823.011 1.225.009h.744c1.222.007 2.484.013 3.73 0a44.9 44.9 0 0 1 1.394-1.626c.217-.245.442-.5.659-.75V3.263a.466.466 0 0 0-.308-.467 1.06 1.06 0 0 0-.358-.081c-.156 0-5.728.04-7.245 0A1.358 1.358 0 0 0 5.171 3 .6.6 0 0 0 5 3.422a.171.171 0 0 1 0 .023v2.318a.253.253 0 0 1-.507 0V3.454a1.1 1.1 0 0 1 .3-.794A1.788 1.788 0 0 1 6.2 2.208c1.52.04 7.174 0 7.231 0a1.531 1.531 0 0 1 .569.124.971.971 0 0 1 .609.931v9.152a.255.255 0 0 1-.062.166c-.239.276-.486.558-.725.826-.489.552-.995 1.123-1.453 1.7a.253.253 0 0 1-.2.1c-.5 0-1.019.007-1.533.007" transform="translate(-19713.144 -9085.146)" style="fill:#333"/>
        <path data-name="패스 67487 - 윤곽선" d="M10.636 15.259c-.8 0-1.6 0-2.319-.008H7.166c-.264 0-.547 0-.83-.009h-.122a1.734 1.734 0 0 1-1.362-.656v-.005a2.767 2.767 0 0 1-.4-1.618.3.3 0 0 1 .607 0 2.223 2.223 0 0 0 .291 1.268 1.166 1.166 0 0 0 .882.4c.039 0 .078 0 .116-.006h.002c.233.007.485.01.817.01H8.32c.708 0 1.511.008 2.3.008.511 0 .971 0 1.406-.005.433-.538.9-1.066 1.353-1.577l.028-.032c.2-.227.429-.484.647-.735V3.263a.419.419 0 0 0-.275-.42 1.013 1.013 0 0 0-.344-.078h-.276c-.744 0-2.721.016-4.449.016-1.224 0-2.071-.006-2.519-.018h-.005a1.319 1.319 0 0 0-.981.271.543.543 0 0 0-.15.385.2.2 0 0 1 0 .027v2.317a.3.3 0 0 1-.607 0V3.454a1.154 1.154 0 0 1 .309-.829 1.837 1.837 0 0 1 1.453-.467c.443.011 1.3.017 2.532.017.857 0 2.348 0 4.581-.017h.117a1.574 1.574 0 0 1 .576.128 1.025 1.025 0 0 1 .639.979v9.151a.305.305 0 0 1-.074.2c-.262.3-.506.58-.726.827-.462.522-.986 1.113-1.452 1.7a.3.3 0 0 1-.235.115c-.481-.001-.997.001-1.532.001zm-3.059-.108h.741c.714 0 1.523.008 2.318.008.535 0 1.05 0 1.533-.007a.2.2 0 0 0 .158-.077c.467-.587.992-1.179 1.455-1.7.22-.246.464-.524.725-.825a.2.2 0 0 0 .05-.133V3.263a.925.925 0 0 0-.578-.885 1.477 1.477 0 0 0-.541-.121h-.114c-2.233.014-3.724.017-4.582.017-1.236 0-2.09-.006-2.539-.018a1.81 1.81 0 0 0-.209-.012 1.734 1.734 0 0 0-1.168.456 1.054 1.054 0 0 0-.279.755v2.308a.2.2 0 0 0 .407 0V3.444a.153.153 0 0 0 0-.019.644.644 0 0 1 .18-.461A1.42 1.42 0 0 1 6.2 2.665c.448.012 1.293.018 2.514.018 1.728 0 3.7-.012 4.449-.016h.279a1.109 1.109 0 0 1 .377.085.518.518 0 0 1 .338.517v9.055a.05.05 0 0 1-.012.033c-.221.256-.454.519-.659.75l-.028.032c-.457.516-.929 1.05-1.365 1.592a.05.05 0 0 1-.039.019c-.442 0-.91.006-1.431.006-.789 0-1.591 0-2.3-.008H7.167c-.332 0-.584 0-.817-.01-.041 0-.082.006-.123.006a1.266 1.266 0 0 1-.961-.442l-.005-.008a2.318 2.318 0 0 1-.306-1.326.2.2 0 0 0-.407 0 2.67 2.67 0 0 0 .383 1.56 1.634 1.634 0 0 0 1.282.616h.123c.283.008.566.009.83.009z" transform="translate(-19713.144 -9085.146)" style="fill:#333"/>
        <path data-name="패스 67488" d="M18.1 23.554a.253.253 0 0 1-.253-.253v-1.234a.9.9 0 0 1 .274-.7.912.912 0 0 1 .654-.209h1.048a.253.253 0 0 1 0 .507h-1.085a.409.409 0 0 0-.279.083.418.418 0 0 0-.1.319V23.3a.253.253 0 0 1-.254.252" transform="translate(-19719.728 -9094.494)" style="fill:#333"/>
        <path data-name="패스 67489" d="M19.016 8.19h-2.384a.253.253 0 0 1 0-.507h2.383a.253.253 0 0 1 0 .507" transform="translate(-19719.005 -9087.851)" style="fill:#7e4f40"/>
        <path data-name="패스 67490" d="M19.264 11.238h-2.133a.253.253 0 0 1 0-.507h2.132a.253.253 0 1 1 0 .507" transform="translate(-19719.251 -9089.354)" style="fill:#7e4f40"/>
        <path data-name="패스 67491" d="M19.016 14.287h-2.384a.253.253 0 0 1 0-.507h2.383a.253.253 0 0 1 0 .507" transform="translate(-19719.005 -9090.857)" style="fill:#7e4f40"/>
        <path data-name="패스 67492" d="M17.189 17.336h-4.264a.253.253 0 1 1 0-.507h4.264a.253.253 0 1 1 0 .507" transform="translate(-19717.177 -9092.361)" style="fill:#7e4f40"/>
        <path data-name="선 3356" d="M0 2.88a.5.5 0 0 1-.5-.5V0A.5.5 0 0 1 0-.5a.5.5 0 0 1 .5.5v2.38a.5.5 0 0 1-.5.5z" transform="translate(-19708.336 -9077.814)" style="fill:#fff"/>
        <path data-name="선 3357" d="M2.38.5H0A.5.5 0 0 1-.5 0 .5.5 0 0 1 0-.5h2.38a.5.5 0 0 1 .5.5.5.5 0 0 1-.5.5z" transform="translate(-19709.526 -9076.624)" style="fill:#fff"/>
        <path data-name="패스 67493" d="M3.177 16.415a2.977 2.977 0 1 1 2.977-2.977 2.981 2.981 0 0 1-2.977 2.977zm0-5.354a2.377 2.377 0 1 0 2.377 2.377 2.38 2.38 0 0 0-2.377-2.377z" transform="translate(-19711.513 -9090.062)" style="fill:#333"/>
    </g>
</svg>
