<svg width="112" height="56" viewBox="0 0 112 56" fill="none" xmlns="http://www.w3.org/2000/svg">
<mask id="mask0_73_136" style="mask-type:luminance" maskUnits="userSpaceOnUse" x="8" y="8" width="40" height="40">
<path d="M48 8H8V48H48V8Z" fill="white"/>
</mask>
<g mask="url(#mask0_73_136)">
<path opacity="0.1" d="M25.5268 13.8682H29.4708C32.4306 13.8682 35.2692 15.0439 37.3621 17.1369C39.455 19.2298 40.6308 22.0683 40.6308 25.0282V30.6582C40.6308 36.8222 37.2018 41.8182 31.0388 41.8182H24.1618C17.9988 41.8182 13.7378 35.4942 15.3148 30.9542V25.0282C10.5288 18.8152 19.3628 13.8682 25.5268 13.8682Z" fill="white"/>
<path fill-rule="evenodd" clip-rule="evenodd" d="M13.3093 22.1903H13.8603C14.8302 22.1903 15.7604 22.5756 16.4462 23.2614C17.1321 23.9473 17.5173 24.8775 17.5173 25.8473V31.5673C17.5173 32.5372 17.1321 33.4674 16.4462 34.1532C15.7604 34.8391 14.8302 35.2243 13.8603 35.2243H13.3093C12.3395 35.2243 11.4093 34.8391 10.7234 34.1532C10.0376 33.4674 9.65234 32.5372 9.65234 31.5673V25.8473C9.65274 24.8777 10.0381 23.9474 10.7237 23.2617C11.4094 22.5761 12.3397 22.1907 13.3093 22.1903ZM13.3099 24.6903C13.0031 24.6906 12.7084 24.8126 12.4915 25.0295C12.2746 25.2464 12.1526 25.5406 12.1523 25.8473V31.5673C12.1523 31.8742 12.2742 32.1685 12.4912 32.3855C12.7082 32.6024 13.0025 32.7243 13.3093 32.7243H13.8603C14.1672 32.7243 14.4615 32.6024 14.6785 32.3855C14.8954 32.1685 15.0173 31.8742 15.0173 31.5673V25.8473C15.0173 25.5405 14.8954 25.2462 14.6785 25.0292C14.4615 24.8122 14.1672 24.6903 13.8603 24.6903H13.3099Z" fill="white"/>
<path fill-rule="evenodd" clip-rule="evenodd" d="M42.1414 22.1903H42.6924C43.662 22.1907 44.5923 22.5761 45.278 23.2617C45.9636 23.9474 46.349 24.8772 46.3494 25.8468V31.5673C46.349 32.537 45.9636 33.4673 45.278 34.1529C44.5923 34.8385 43.6625 35.2239 42.6929 35.2243H42.1419C42.1421 35.2243 42.1417 35.2243 42.1419 35.2243C41.6617 35.2245 41.1857 35.13 40.742 34.9463C40.2981 34.7626 39.8949 34.4931 39.5552 34.1535C39.2155 33.8138 38.9461 33.4106 38.7624 32.9667C38.5787 32.5231 38.4842 32.0475 38.4844 31.5673V25.8473C38.4848 24.8777 38.8701 23.9474 39.5558 23.2617C40.2414 22.5761 41.1718 22.1907 42.1414 22.1903ZM42.1419 24.6903C41.8351 24.6906 41.5405 24.8126 41.3236 25.0295C41.1066 25.2464 40.9846 25.5406 40.9844 25.8473V31.5673C40.9843 31.7192 41.0142 31.8701 41.0723 32.0105C41.1304 32.1508 41.2156 32.2783 41.323 32.3857C41.4304 32.4932 41.5579 32.5783 41.6982 32.6364C41.8386 32.6945 41.989 32.7244 42.1409 32.7243H42.6919C42.9988 32.7242 43.2931 32.6022 43.5102 32.3852C43.7273 32.1681 43.8493 31.8737 43.8494 31.5668V25.8479C43.8493 25.5409 43.7273 25.2466 43.5102 25.0295C43.2933 24.8126 42.9991 24.6906 42.6924 24.6903H42.1419Z" fill="white"/>
<path fill-rule="evenodd" clip-rule="evenodd" d="M41.5383 33.1826C42.1684 33.4645 42.4507 34.2039 42.1688 34.8341C40.8336 37.8181 38.4712 40.2234 35.5118 41.6122C34.8868 41.9054 34.1424 41.6365 33.8492 41.0116C33.5559 40.3866 33.8248 39.6422 34.4497 39.349C36.8668 38.2147 38.7963 36.2502 39.8868 33.813C40.1687 33.1829 40.9081 32.9006 41.5383 33.1826Z" fill="white"/>
<path fill-rule="evenodd" clip-rule="evenodd" d="M25.8882 14.5803C23.3368 14.5634 20.8549 15.4113 18.8472 16.9858C16.8395 18.5603 15.4243 20.7685 14.8324 23.2503C14.6723 23.9219 13.9981 24.3364 13.3265 24.1763C12.655 24.0161 12.2404 23.3419 12.4006 22.6704C13.1235 19.6389 14.8521 16.9417 17.3045 15.0185C19.7557 13.0963 22.7856 12.0607 25.9005 12.0804H29.4489C32.4833 12.063 35.4389 13.0464 37.8582 14.8783C40.2785 16.711 42.0269 19.2906 42.8327 22.2176C43.0159 22.8832 42.6248 23.5713 41.9592 23.7545C41.2936 23.9377 40.6055 23.5467 40.4223 22.8811C39.7626 20.4844 38.3309 18.3721 36.349 16.8714C34.3672 15.3707 31.9458 14.5655 29.46 14.5803L29.4525 14.5804L25.8882 14.5803Z" fill="white"/>
<path d="M34.9419 42.668C36.1503 42.668 37.1299 41.6884 37.1299 40.48C37.1299 39.2716 36.1503 38.292 34.9419 38.292C33.7335 38.292 32.7539 39.2716 32.7539 40.48C32.7539 41.6884 33.7335 42.668 34.9419 42.668Z" fill="white"/>
<path d="M28.9311 35.4786L26.9531 33.8907C27.4216 33.0804 27.993 32.3342 28.6531 31.6707C29.5661 30.6808 30.5979 29.8075 31.7251 29.0706C32.1731 28.7196 33.5031 27.9297 33.8791 27.1277C34.0333 26.7931 34.0974 26.424 34.0649 26.057C34.0325 25.6901 33.9046 25.338 33.6941 25.0356C33.421 24.7365 33.0737 24.5147 32.6874 24.3929C32.3011 24.271 31.8894 24.2533 31.4941 24.3416C30.4591 24.5836 29.8331 25.4736 29.2411 27.1336C28.9419 28.1488 28.4447 29.0947 27.7781 29.9167C27.1654 30.5966 26.3794 31.0972 25.5041 31.3647C24.7482 31.5891 23.9479 31.6196 23.1771 31.4536C22.4145 31.2911 21.7071 30.9335 21.1241 30.4156C20.6166 29.947 20.2085 29.3812 19.9241 28.7518C19.6396 28.1224 19.4845 27.4422 19.4681 26.7516C19.4604 26.0973 19.5921 25.4487 19.8546 24.8492C20.117 24.2497 20.5041 23.7129 20.9901 23.2746C21.6336 22.6404 22.4464 22.2053 23.3311 22.0216C24.0307 21.8899 24.7519 21.9325 25.4311 22.1456C26.1539 22.3684 26.8221 22.7397 27.3931 23.2357L25.8111 24.9586L25.8171 24.9656C25.4878 24.6908 25.1056 24.4866 24.6941 24.3656C24.3228 24.2607 23.9295 24.2623 23.5591 24.3701C23.1887 24.478 22.856 24.6878 22.5991 24.9756C22.3517 25.1928 22.1537 25.4604 22.0186 25.7606C21.8836 26.0608 21.8145 26.3865 21.8161 26.7156C21.8403 27.4545 22.1543 28.1543 22.6901 28.6636C22.9808 28.9143 23.3305 29.0868 23.7063 29.165C24.082 29.2432 24.4715 29.2245 24.8381 29.1107C25.4251 28.9317 26.3381 28.3207 26.9811 26.5107C27.2869 25.3998 27.8235 24.366 28.5561 23.4767C29.197 22.7686 30.036 22.2697 30.9641 22.0446C31.7719 21.8598 32.6145 21.8947 33.4042 22.1456C34.194 22.3965 34.9021 22.8544 35.4551 23.4716C35.8269 23.8777 36.1127 24.3547 36.2953 24.874C36.478 25.3934 36.5538 25.9443 36.5181 26.4937C36.4023 27.6572 35.8294 28.7272 34.9251 29.4686C34.0251 30.2846 32.8401 30.9687 31.5471 32.2437C30.512 33.175 29.629 34.2624 28.9301 35.4666" fill="white"/>
</g>
<mask id="mask1_73_136" style="mask-type:alpha" maskUnits="userSpaceOnUse" x="64" y="8" width="40" height="40">
<path d="M104 8H64V48H104V8Z" fill="#D9D9D9"/>
</mask>
<g mask="url(#mask1_73_136)">
<path d="M93.4154 28.9727H95.3628V36.5719H93.4154V28.9727ZM94.821 32.0182H97.1637V33.5995H94.821V32.0182ZM85.2012 34.5366H86.3286C89.2717 34.5366 90.7359 34.4634 92.3611 34.1267L92.5515 35.6641C90.8969 36.0301 89.3449 36.1033 86.3286 36.1033H85.2012V34.5366ZM85.2012 29.8073H91.2191V31.3593H87.1339V35.4444H85.2012V29.8073ZM86.5482 37.1576H95.3628V42.3848H86.5482V37.1576ZM93.4593 38.695H88.4663V40.8474H93.4593V38.695Z" fill="white"/>
<path d="M74.192 29.7048H75.788V30.9054C75.788 33.5995 74.6166 35.9716 72.0396 36.8647L71 35.3273C73.2695 34.5659 74.192 32.7503 74.192 30.9054V29.7048ZM74.5873 29.7048H76.1686V31.0958C76.1686 32.721 77.0765 34.3024 79.1995 34.9613L78.1892 36.4694C75.744 35.6494 74.5873 33.541 74.5873 31.0958V29.7048ZM79.9463 28.9727H81.8937V36.9819H79.9463V28.9727ZM81.3519 32.1061H83.6947V33.7167H81.3519V32.1061ZM77.4718 37.2893C80.2831 37.2893 82.0547 38.2704 82.0547 39.9103C82.0547 41.5648 80.2831 42.5312 77.4718 42.5312C74.6459 42.5312 72.8742 41.5648 72.8742 39.9103C72.8742 38.2704 74.6459 37.2893 77.4718 37.2893ZM77.4718 38.7975C75.744 38.7975 74.8069 39.1635 74.8069 39.9103C74.8069 40.6717 75.744 41.0231 77.4718 41.0231C79.1995 41.0231 80.122 40.6717 80.122 39.9103C80.122 39.1635 79.1995 38.7975 77.4718 38.7975Z" fill="white"/>
<path d="M94.3971 13.5H96.242V21.436H94.3971V13.5ZM92.7425 16.6188H94.9095V18.2001H92.7425V16.6188ZM91.4394 13.7489H93.255V21.3921H91.4394V13.7489ZM86.8418 21.9924H96.242V27.0585H94.3092V23.5444H86.8418V21.9924ZM88.6135 14.4371H90.5609C90.5609 17.8633 88.9649 20.1475 85.4508 21.5238L84.543 20.1036C87.4275 19.0347 88.6135 17.3948 88.6135 15.1692V14.4371ZM85.1872 14.4371H89.2431V15.9891H85.1872V14.4371Z" fill="white"/>
<path d="M72.4789 14.6426H81.0738V16.2093H72.4789V14.6426ZM71.2344 23.8524H83.4898V25.4338H71.2344V23.8524ZM75.5684 19.1963H77.5158V24.6285H75.5684V19.1963ZM80.371 14.6426H82.3184V15.9457C82.3184 17.6442 82.3184 19.5477 81.7767 22.4468L79.8293 22.2272C80.371 19.533 80.371 17.571 80.371 15.9457V14.6426Z" fill="white"/>
</g>
</svg>
