<svg xmlns="http://www.w3.org/2000/svg" width="20" height="20" viewBox="0 0 20 20">
    <path data-name="사각형 10579" style="fill:none" d="M0 0h20v20H0z"/>
    <g data-name="그룹 33562">
        <path data-name="패스 53910" d="M198.216 530.456a.227.227 0 0 1-.227-.227v-.275a1.275 1.275 0 0 1 1.274-1.274h5.791a.227.227 0 0 1 0 .455h-5.791a.82.82 0 0 0-.819.819v.275a.227.227 0 0 1-.228.227z" transform="translate(-195.533 -516.445)" style="fill:#333"/>
        <path data-name="패스 53911" d="M227.564 530.46a.227.227 0 0 1-.227-.227v-.279a.82.82 0 0 0-.819-.819h-1.493a.227.227 0 0 1 0-.455h1.493a1.275 1.275 0 0 1 1.274 1.274v.279a.227.227 0 0 1-.228.227z" transform="translate(-210.009 -516.445)" style="fill:#333"/>
        <path data-name="선 1088" d="M1.364-.045H-.273A.227.227 0 0 1-.5-.273.227.227 0 0 1-.273-.5h1.637a.227.227 0 0 1 .227.227.227.227 0 0 1-.227.228z" transform="translate(12.911 12.735)" style="fill:#333"/>
        <path data-name="선 1089" d="M1.364-.045H-.273A.227.227 0 0 1-.5-.273.227.227 0 0 1-.273-.5h1.637a.227.227 0 0 1 .227.227.227.227 0 0 1-.227.228z" transform="translate(10.534 12.735)" style="fill:#333"/>
        <g data-name="그룹 33561">
            <path data-name="패스 53912" d="M200.813 538.211a.97.97 0 0 1-.969-.969v-1.172a.227.227 0 0 1 .227-.227h1.484a.227.227 0 0 1 .227.227v1.172a.97.97 0 0 1-.969.969zm-.513-1.911v.944a.514.514 0 0 0 1.029 0v-.944z" transform="translate(-196.534 -520.313)" style="fill:#333"/>
            <path data-name="패스 53912 - 윤곽선" d="M200.813 538.261a1.02 1.02 0 0 1-1.019-1.019v-1.172a.278.278 0 0 1 .277-.277h1.484a.278.278 0 0 1 .277.277v1.172a1.02 1.02 0 0 1-1.019 1.019zm-.742-2.368a.177.177 0 0 0-.177.177v1.172a.919.919 0 0 0 1.838 0v-1.172a.177.177 0 0 0-.177-.177zm.742 1.913a.565.565 0 0 1-.565-.564v-.994h1.129v.994a.565.565 0 0 1-.564.564zm-.465-1.459v.894a.464.464 0 0 0 .929 0v-.894z" transform="translate(-196.534 -520.313)" style="fill:#333"/>
            <path data-name="패스 53913" d="M226.2 538.211a.97.97 0 0 1-.969-.969v-1.172a.227.227 0 0 1 .227-.227h1.483a.227.227 0 0 1 .227.227v1.172a.97.97 0 0 1-.968.969zm-.514-1.913v.944a.514.514 0 1 0 1.029 0v-.942z" transform="translate(-210.242 -520.313)" style="fill:#333"/>
            <path data-name="패스 53913 - 윤곽선" d="M226.2 538.261a1.02 1.02 0 0 1-1.019-1.019v-1.172a.278.278 0 0 1 .277-.277h1.483a.278.278 0 0 1 .277.277v1.172a1.02 1.02 0 0 1-1.018 1.019zm-.742-2.368a.177.177 0 0 0-.177.177v1.172a.919.919 0 1 0 1.838 0v-1.172a.177.177 0 0 0-.177-.177zm.742 1.913a.565.565 0 0 1-.564-.564v-.994h1.129v.994a.565.565 0 0 1-.565.564zm-.464-1.459v.894a.464.464 0 1 0 .929 0v-.894z" transform="translate(-210.242 -520.313)" style="fill:#333"/>
        </g>
        <path data-name="패스 53914" d="M209.793 522.57h8.119a.6.6 0 0 1 0 1.195h-1.086v2.735a.6.6 0 1 1-1.195 0v-2.732h-1.182v2.732a.6.6 0 1 1-1.195 0v-2.732h-1.182v2.732a.6.6 0 1 1-1.195 0v-2.732h-1.085a.6.6 0 1 1 0-1.195zm8.119.74a.143.143 0 0 0 0-.286h-8.119a.143.143 0 1 0 0 .286h1.312a.227.227 0 0 1 .227.227v2.963a.143.143 0 0 0 .143.143.145.145 0 0 0 .143-.143v-2.959a.227.227 0 0 1 .227-.227h1.637a.227.227 0 0 1 .227.227v2.959a.143.143 0 0 0 .143.143.145.145 0 0 0 .143-.143v-2.959a.227.227 0 0 1 .227-.227h1.637a.227.227 0 0 1 .227.227v2.959a.143.143 0 0 0 .143.143.145.145 0 0 0 .143-.143v-2.959a.227.227 0 0 1 .227-.227z" transform="translate(-201.584 -513.145)" style="fill:#333"/>
        <path data-name="패스 53916" d="M211.983 526.821h-16.264a1.087 1.087 0 0 1-1.061-.983v-6.53a.967.967 0 1 1 1.935 0v5.17h14.47v-5.17a.967.967 0 1 1 1.935 0v3.508a.227.227 0 1 1-.455 0v-3.508a.513.513 0 1 0-1.026 0v5.4a.227.227 0 0 1-.227.227h-14.924a.227.227 0 0 1-.227-.227v-5.4a.513.513 0 1 0-1.026 0v6.53a.512.512 0 0 0 .448.505l.027.005a.539.539 0 0 0 .132.018h16.264a.561.561 0 0 0 .228-.05h.007a.518.518 0 0 0 .315-.388v-.007a.567.567 0 0 0 .013-.117v-1.952a.227.227 0 1 1 .455 0v1.588a.39.39 0 0 1 0 .057v.3a1.014 1.014 0 0 1-.022.206.976.976 0 0 1-.589.726 1.012 1.012 0 0 1-.408.092z" transform="translate(-193.734 -510.862)" style="fill:#333"/>
        <path data-name="패스 53916 - 윤곽선" d="M211.983 526.871h-16.264a1.136 1.136 0 0 1-1.111-1.033v-6.53a1.017 1.017 0 1 1 2.035 0v5.12h14.37v-5.12a1.017 1.017 0 1 1 2.035 0v3.508a.277.277 0 0 1-.555 0v-3.508a.463.463 0 1 0-.926 0v5.4a.278.278 0 0 1-.277.277h-14.924a.278.278 0 0 1-.277-.277v-5.4a.463.463 0 1 0-.926 0v6.53a.462.462 0 0 0 .4.455l.033.006a.491.491 0 0 0 .12.017h16.264a.511.511 0 0 0 .208-.046h.009a.468.468 0 0 0 .285-.35v-.009a.519.519 0 0 0 .012-.107v-1.948a.277.277 0 0 1 .555 0v1.585a.428.428 0 0 1 0 .061v.3a1.063 1.063 0 0 1-.023.216 1.027 1.027 0 0 1-.619.762 1.061 1.061 0 0 1-.424.091zm-16.358-8.48a.919.919 0 0 0-.917.917v6.53a.92.92 0 0 0 .789.9.946.946 0 0 0 .223.029h16.264a.963.963 0 0 0 .389-.083.927.927 0 0 0 .559-.689.968.968 0 0 0 .021-.2v-.3a.343.343 0 0 0 0-.05.047.047 0 0 1 0-.007v-1.588a.177.177 0 1 0-.355 0v1.645a.05.05 0 0 1 0 .007v.3a.617.617 0 0 1-.014.127v.006a.568.568 0 0 1-.346.426.612.612 0 0 1-.249.055h-16.27a.588.588 0 0 1-.144-.02h-.021a.562.562 0 0 1-.492-.555v-6.53a.563.563 0 1 1 1.126 0v5.4a.177.177 0 0 0 .177.177h14.925a.177.177 0 0 0 .177-.177v-5.4a.563.563 0 1 1 1.126 0v3.508a.177.177 0 1 0 .355 0v-3.508a.917.917 0 1 0-1.835 0v5.17a.05.05 0 0 1-.05.05h-14.47a.05.05 0 0 1-.05-.05v-5.17a.919.919 0 0 0-.918-.92z" transform="translate(-193.734 -510.862)" style="fill:#333"/>
        <g data-name="그룹 33563">
            <path data-name="타원 1317" d="M2.759-.5A3.259 3.259 0 1 1-.5 2.759 3.262 3.262 0 0 1 2.759-.5zm0 6.063a2.8 2.8 0 1 0-2.8-2.8 2.807 2.807 0 0 0 2.8 2.8z" transform="translate(4.213 2.852)" style="fill:#333"/>
            <path data-name="타원 1317 - 윤곽선" d="M2.759-.55A3.309 3.309 0 1 1-.55 2.759 3.313 3.313 0 0 1 2.759-.55zm0 6.518A3.209 3.209 0 1 0-.45 2.759a3.212 3.212 0 0 0 3.209 3.209zm0-6.063A2.854 2.854 0 1 1-.1 2.759 2.857 2.857 0 0 1 2.759-.1zm0 5.608A2.754 2.754 0 1 0 0 2.759a2.757 2.757 0 0 0 2.759 2.754z" transform="translate(4.213 2.852)" style="fill:#333"/>
            <path data-name="패스 53917" d="M207.063 515.484h-.853v-.853a.222.222 0 0 0-.222-.222h-.639a.222.222 0 0 0-.222.222v.853h-.853a.222.222 0 0 0-.222.222v.639a.222.222 0 0 0 .222.222h.853v.853a.222.222 0 0 0 .222.222h.639a.222.222 0 0 0 .222-.222v-.853h.853a.222.222 0 0 0 .222-.222v-.639a.222.222 0 0 0-.222-.222z" transform="translate(-198.3 -510.16)" style="fill:#7e4f40;opacity:.7"/>
            <path data-name="패스 53918" d="M205.265 517.116h-.639a.45.45 0 0 1-.449-.449v-.626h-.626a.45.45 0 0 1-.449-.449v-.639a.45.45 0 0 1 .449-.449h.626v-.626a.45.45 0 0 1 .449-.449h.639a.45.45 0 0 1 .45.449v.626h.161a.227.227 0 1 1 0 .455h-.388a.227.227 0 0 1-.227-.227v-.847h-.629v.847a.227.227 0 0 1-.227.227h-.848v.629h.848a.227.227 0 0 1 .227.227v.848h.629v-.848a.227.227 0 0 1 .227-.227h.848v-.634a.227.227 0 0 1 .455 0v.639a.45.45 0 0 1-.449.449h-.626v.626a.45.45 0 0 1-.451.448z" transform="translate(-197.98 -509.714)" style="fill:#333"/>
        </g>
    </g>
</svg>
