<svg xmlns="http://www.w3.org/2000/svg" width="50" height="50" viewBox="0 0 50 50">
    <path data-name="사각형 14466" style="fill:none" d="M0 0h50v50H0z"/>
    <g data-name="그룹 67605">
        <path data-name="패스 68109" d="m10.994 26.447-.586-1.647-.07-4.733a1.559 1.559 0 0 0-3.117.022v4.131" style="stroke-linecap:round;stroke-linejoin:round;stroke-width:1.2px;stroke:#333;fill:none"/>
        <path data-name="패스 68110" d="M22.192 41.058v-8.531a18.165 18.165 0 0 0 1.233-7.966" style="stroke-linecap:round;stroke-linejoin:round;stroke-width:1.2px;stroke:#333;fill:none"/>
        <path data-name="패스 68111" d="M7.085 25.865h0a12.432 12.432 0 0 0 2.974 6.492l2.062 2.343v6.355" style="stroke-linecap:round;stroke-linejoin:round;stroke-width:1.2px;stroke:#333;fill:none"/>
        <path data-name="패스 68112" d="M11.415 23.945s4.268.858 4.372 5.072" style="stroke-linecap:round;stroke-linejoin:round;stroke-width:1.2px;stroke:#333;fill:none"/>
        <path data-name="패스 68113" d="M9.928 19.041v-6.75a1.666 1.666 0 1 1 3.332 0v7.441" style="stroke-linecap:round;stroke-linejoin:round;stroke-width:1.2px;stroke:#333;fill:none"/>
        <path data-name="패스 68114" d="M13.26 10.624h0a1.683 1.683 0 0 1 1.683-1.682h.17a1.683 1.683 0 0 1 1.687 1.682v9.107" style="stroke-linecap:round;stroke-linejoin:round;stroke-width:1.2px;stroke:#333;fill:none"/>
        <path data-name="패스 68115" d="M20.228 22.2v-9.859a1.716 1.716 0 0 0-3.432 0v7.151" style="stroke-linecap:round;stroke-linejoin:round;stroke-width:1.2px;stroke:#333;fill:none"/>
        <path data-name="패스 68116" d="M23.524 22.866v-6.881a1.648 1.648 0 0 0-3.3 0v6.025" style="stroke-linecap:round;stroke-linejoin:round;stroke-width:1.2px;stroke:#333;fill:none"/>
        <path data-name="선 3841" transform="translate(13.259 10.626)" style="stroke-linecap:round;stroke-linejoin:round;stroke-width:1.2px;stroke:#333;fill:none" d="M0 1.827V0"/>
        <path data-name="패스 68117" d="m39.005 26.447.585-1.647.07-4.732a1.559 1.559 0 0 1 3.117.023v4.127" style="stroke-linecap:round;stroke-linejoin:round;stroke-width:1.2px;stroke:#333;fill:none"/>
        <path data-name="패스 68118" d="M27.808 41.058v-8.531a18.166 18.166 0 0 1-1.234-7.966" style="stroke-linecap:round;stroke-linejoin:round;stroke-width:1.2px;stroke:#333;fill:none"/>
        <path data-name="패스 68119" d="M42.915 25.865h0a12.441 12.441 0 0 1-2.975 6.492L37.877 34.7v6.355" style="stroke-linecap:round;stroke-linejoin:round;stroke-width:1.2px;stroke:#333;fill:none"/>
        <path data-name="패스 68120" d="M38.584 23.945s-4.268.858-4.372 5.072" style="stroke-linecap:round;stroke-linejoin:round;stroke-width:1.2px;stroke:#333;fill:none"/>
        <path data-name="패스 68121" d="M40.072 19.041v-6.75a1.666 1.666 0 0 0-3.332 0v7.441" style="stroke-linecap:round;stroke-linejoin:round;stroke-width:1.2px;stroke:#333;fill:none"/>
        <path data-name="패스 68122" d="M36.739 10.624h0a1.684 1.684 0 0 0-1.684-1.682h-.171a1.684 1.684 0 0 0-1.684 1.682v9.107" style="stroke-linecap:round;stroke-linejoin:round;stroke-width:1.2px;stroke:#333;fill:none"/>
        <path data-name="패스 68123" d="M29.771 22.2v-9.859a1.715 1.715 0 1 1 3.431 0v7.151" style="stroke-linecap:round;stroke-linejoin:round;stroke-width:1.2px;stroke:#333;fill:none"/>
        <path data-name="패스 68124" d="M26.475 22.866v-6.881a1.648 1.648 0 0 1 3.3 0v6.025" style="stroke-linecap:round;stroke-linejoin:round;stroke-width:1.2px;stroke:#333;fill:none"/>
        <path data-name="선 3842" transform="translate(36.74 10.626)" style="stroke-linecap:round;stroke-linejoin:round;stroke-width:1.2px;stroke:#333;fill:none" d="M0 1.827V0"/>
        <path data-name="패스 68125" d="M8.266 38.488c-1.463-.81-1.939-1.468-2.522-3.509-.583 2.045-1.054 2.7-2.52 3.509C4.69 39.3 5.163 39.956 5.744 42c.583-2.044 1.056-2.7 2.522-3.512z" style="stroke:#7e4f40;stroke-linecap:round;stroke-linejoin:round;stroke-width:1.2px;fill:none"/>
        <path data-name="패스 67950" d="M6.479 5.346a3.386 3.386 0 0 1-1.864-2.6 3.386 3.386 0 0 1-1.864 2.6 3.387 3.387 0 0 1 1.864 2.6 3.387 3.387 0 0 1 1.864-2.6z" transform="translate(27.733 -1.407)" style="stroke:#7e4f40;stroke-linecap:round;stroke-linejoin:round;stroke-width:1.2px;fill:none"/>
        <path data-name="패스 67951" d="M6.479 5.346a3.386 3.386 0 0 1-1.864-2.6 3.386 3.386 0 0 1-1.864 2.6 3.387 3.387 0 0 1 1.864 2.6 3.387 3.387 0 0 1 1.864-2.6z" transform="translate(22.567 2.684)" style="stroke:#7e4f40;stroke-linecap:round;stroke-linejoin:round;stroke-width:1.2px;fill:none"/>
    </g>
</svg>
