<svg xmlns="http://www.w3.org/2000/svg" width="72" height="72" viewBox="0 0 72 72">
    <g data-name="그룹 57413">
        <path data-name="패스 63191" d="M1197.99 537.521a23.3 23.3 0 1 0-16.142 26.743" style="stroke:#e1e1e1;stroke-linecap:round;stroke-linejoin:round;stroke-width:3px;fill:none" transform="translate(-1143.769 -506.62)"/>
        <path data-name="패스 63192" d="M1183.022 553.25a10.289 10.289 0 1 1 10.289 10.289 10.288 10.288 0 0 1-10.289-10.289z" transform="translate(-1143.769 -507.068)" style="stroke:#e1e1e1;stroke-linecap:round;stroke-linejoin:round;stroke-width:3px;fill:none"/>
        <path data-name="선 2078" transform="translate(57.062 54.036)" style="stroke:#e1e1e1;stroke-linecap:round;stroke-linejoin:round;stroke-width:3px;fill:none" d="M5.965 5.304 0 0"/>
        <path data-name="패스 63193" d="M1168.864 536.139a6.765 6.765 0 1 1 6.765 6.765 6.765 6.765 0 0 1-6.765-6.765z" style="stroke:#e1e1e1;stroke-linecap:round;stroke-linejoin:round;stroke-width:3px;fill:none" transform="translate(-1143.769 -506.62)"/>
        <path data-name="패스 63194" d="M1162.764 549.959a13.48 13.48 0 0 1 11.622-6.64h2.946a13.425 13.425 0 0 1 6.914 1.905" style="stroke:#e1e1e1;stroke-linecap:round;stroke-linejoin:round;stroke-width:3px;fill:none" transform="translate(-1143.769 -506.62)"/>
    </g>
    <path data-name="사각형 2626" style="fill:none" d="M0 0h72v72H0z"/>
</svg>
