<svg xmlns="http://www.w3.org/2000/svg" width="16.703" height="16.5" viewBox="0 0 16.703 16.5">
    <path data-name="패스 16610" d="m331.34 610.178-.969-3.61s2.172-3.75.609-6.625-4.219-5.109-7.7-4.828-6.563 3.594-6.859 5.938.188 6 2.672 7.7 4.406 1.984 6.094 1.594a7.525 7.525 0 0 0 2.609-1.078z" transform="translate(-315.637 -594.522)" style="fill:none"/>
    <path data-name="패스 16606" d="M323.993 610.772A7.991 7.991 0 0 0 328 609.7l3.351.9a.377.377 0 0 0 .461-.461l-.9-3.351a8 8 0 1 0-6.925 3.99zm3.955-1.857a.38.38 0 0 0-.2.055 7.247 7.247 0 1 1 2.439-2.438.379.379 0 0 0-.042.293l.77 2.874-2.873-.77a.371.371 0 0 0-.094-.014z" transform="translate(-315.75 -594.521)" style="stroke-width:.5px;stroke:#555;fill:#555"/>
    <path data-name="패스 16608" d="M327.44 607.339a1.138 1.138 0 1 0-1.14-1.139 1.139 1.139 0 0 0 1.14 1.139z" transform="translate(-319.19 -601.538)" style="fill:#555"/>
    <path data-name="패스 63108" d="M374.878 696.052a.424.424 0 0 0-.442.4v5.276a.444.444 0 0 0 .884 0v-5.276a.423.423 0 0 0-.442-.4z" transform="translate(-366.621 -689.155)" style="stroke-width:.6px;stroke:#555;fill:#555"/>
</svg>
