<svg xmlns="http://www.w3.org/2000/svg" width="50" height="50" viewBox="0 0 50 50">
    <path data-name="사각형 14459" style="fill:none" d="M0 0h50v50H0z"/>
    <g data-name="그룹 67592">
        <path data-name="패스 68070" d="m39.862 32.973 3.589-3.589a3.032 3.032 0 0 0-4.205-4.364l-.078.078-4.8 4.8" style="stroke-linecap:round;stroke-linejoin:round;stroke-width:1.2px;stroke:#333;fill:none"/>
        <path data-name="패스 68071" d="m21.6 39.236.068-.068a2.641 2.641 0 0 1 1.874-.776H33.2a3 3 0 0 0 2.124-.88l2.108-2.112" style="stroke-linecap:round;stroke-linejoin:round;stroke-width:1.2px;stroke:#333;fill:none"/>
        <path data-name="패스 68072" d="m13.418 30.366 1.376-1.173a11.838 11.838 0 0 1 4.8-2.429 13.172 13.172 0 0 1 3.2-.4h8.346a3.087 3.087 0 0 1 3.3 2.817A3.086 3.086 0 0 1 31.14 32h-7.019" style="stroke-linecap:round;stroke-linejoin:round;stroke-width:1.2px;stroke:#333;fill:none"/>
        <path data-name="패스 68073" d="M29.957 14.622a4.159 4.159 0 0 1 .06.7 4.036 4.036 0 0 1-.861 2.531 14.551 14.551 0 0 1-6.093 4.569 14.594 14.594 0 0 1-6.1-4.569 4.261 4.261 0 0 1-.6-4.05 3.24 3.24 0 0 1 2.7-2.223c.12-.012.241-.022.361-.022a3.75 3.75 0 0 1 3.076 1.699c.131.188.341.53.561.53s.422-.341.548-.53a3.835 3.835 0 0 1 2.706-1.663l.274-.035a3.642 3.642 0 0 1 .478.022 2.183 2.183 0 0 1 .541.114l.22.066a2.3 2.3 0 0 1 .241.113 2.9 2.9 0 0 1 .26.133l.091.066a2.886 2.886 0 0 1 .441.352 2.116 2.116 0 0 1 .212.222.575.575 0 0 1 .1.12 4.07 4.07 0 0 1 .25.353c.01.022.01.034.02.044a4.434 4.434 0 0 1 .514 1.458z" style="stroke:#7e4f40;stroke-linecap:round;stroke-linejoin:round;stroke-width:1.2px;fill:none"/>
        <path data-name="패스 68074" d="M38.035 17.1a1.841 1.841 0 0 1 .026.306 1.754 1.754 0 0 1-.375 1.1 6.335 6.335 0 0 1-2.649 1.994 6.348 6.348 0 0 1-2.654-1.986 1.854 1.854 0 0 1-.263-1.763 1.411 1.411 0 0 1 1.173-.967c.053 0 .1-.009.157-.009a1.629 1.629 0 0 1 1.343.738c.057.082.148.227.244.227s.183-.15.24-.227a1.67 1.67 0 0 1 1.176-.723l.114-.015a1.741 1.741 0 0 1 .2.009 1.064 1.064 0 0 1 .236.048l.1.03a.821.821 0 0 1 .1.047c.038.018.076.037.113.058l.04.029a1.139 1.139 0 0 1 .193.153.916.916 0 0 1 .091.1.2.2 0 0 1 .044.053 1.686 1.686 0 0 1 .114.153l.008.02a1.921 1.921 0 0 1 .229.625z" style="stroke:#7e4f40;stroke-linecap:round;stroke-linejoin:round;stroke-width:1.2px;fill:none"/>
        <path data-name="패스 68075" d="M36.956 6.219a2.367 2.367 0 0 1 .035.4 2.313 2.313 0 0 1-.491 1.457A8.345 8.345 0 0 1 33 10.7a8.365 8.365 0 0 1-3.5-2.62 2.442 2.442 0 0 1-.341-2.325 1.858 1.858 0 0 1 1.541-1.28c.068 0 .138-.013.207-.013a2.152 2.152 0 0 1 1.773.973c.073.108.194.3.322.3s.241-.2.316-.3a2.205 2.205 0 0 1 1.552-.954l.155-.02a1.927 1.927 0 0 1 .274.013 1.257 1.257 0 0 1 .31.064l.127.037a1.428 1.428 0 0 1 .138.063c.052.025.1.045.15.075l.052.039a1.707 1.707 0 0 1 .254.2 1.584 1.584 0 0 1 .12.126.36.36 0 0 1 .058.071 2.375 2.375 0 0 1 .143.2c0 .013 0 .019.012.025a2.541 2.541 0 0 1 .293.845z" style="stroke:#7e4f40;stroke-linecap:round;stroke-linejoin:round;stroke-width:1.2px;fill:none"/>
        <path data-name="사각형 14458" transform="rotate(-45 44.917 10.655)" style="stroke-linecap:round;stroke-linejoin:round;stroke-width:1.2px;stroke:#333;fill:none" d="M0 0h8.224v16.559H0z"/>
    </g>
</svg>
