<svg xmlns="http://www.w3.org/2000/svg" width="38" height="43" viewBox="0 0 38 43">
    <g transform="translate(-174.326 -167.603)">
        <ellipse data-name="타원 1184" cx="8" cy="2.5" rx="8" ry="2.5" transform="translate(185.326 205.603)" style="fill:#3e3e3e;opacity:.4"/>
        <path data-name="패스 48420" d="M-879.806 3441.621a14.476 14.476 0 0 1 10.721-4.538 14.331 14.331 0 0 1 10.675 4.538 14.888 14.888 0 0 1 4.41 10.817 15.319 15.319 0 0 1-4.224 10.725l-10.812 14.025-10.812-14.025a15.148 15.148 0 0 1-4.315-10.725 14.969 14.969 0 0 1 4.357-10.817z" transform="translate(1062.413 -3268.635)" style="fill-rule:evenodd;fill:#7d4e3f"/>
        <path data-name="패스 48421" d="M-845.23 3460.313a10.415 10.415 0 0 1 3.135 7.609 9.913 9.913 0 0 1-3.135 7.424 9.741 9.741 0 0 1-7.359 3.163 10.232 10.232 0 0 1-7.541-3.163 10.139 10.139 0 0 1-3-7.424 10.663 10.663 0 0 1 3-7.609 10.472 10.472 0 0 1 7.541-3.025 9.96 9.96 0 0 1 7.359 3.025z" transform="translate(1045.961 -3284.394)" style="fill:#fff;fill-rule:evenodd"/>
        <path data-name="패스 48653" d="m334.327 147.291-1.637-1.315a8.961 8.961 0 0 1 1.409-1.838 13.537 13.537 0 0 1 2.544-2.155c.374-.29 1.471-.944 1.783-1.608a1.75 1.75 0 0 0-.153-1.732 1.9 1.9 0 0 0-1.819-.574c-.857.2-1.376.937-1.865 2.311a6.634 6.634 0 0 1-1.212 2.3 4.175 4.175 0 0 1-1.883 1.2 3.889 3.889 0 0 1-1.924.078 3.732 3.732 0 0 1-1.7-.86 4.266 4.266 0 0 1-1.371-3.034 3.816 3.816 0 0 1 1.256-2.879 3.892 3.892 0 0 1 1.939-1.04 3.6 3.6 0 0 1 1.742.1 4.506 4.506 0 0 1 1.625.9l-1.314 1.43.006.005a2.612 2.612 0 0 0-.931-.493 1.7 1.7 0 0 0-1.734.506 1.9 1.9 0 0 0-.649 1.441 2.332 2.332 0 0 0 .723 1.613 1.873 1.873 0 0 0 1.775.37c.486-.145 1.242-.654 1.774-2.146a6.8 6.8 0 0 1 1.3-2.512 3.942 3.942 0 0 1 1.993-1.186 3.843 3.843 0 0 1 3.719 1.181 3.382 3.382 0 0 1 .88 2.5 3.654 3.654 0 0 1-1.319 2.464c-.739.676-1.726 1.243-2.8 2.294a11.07 11.07 0 0 0-2.167 2.67" transform="translate(-140.232 42.654)" style="fill:#7e4f40"/>
        <path data-name="사각형 6212" transform="translate(174.326 167.603)" style="fill:none" d="M0 0h38v42H0z"/>
    </g>
</svg>
