<svg xmlns="http://www.w3.org/2000/svg" width="44" height="44" viewBox="0 0 44 44">
    <path data-name="사각형 10579" style="fill:none" d="M0 0h44v44H0z"/>
    <g data-name="그룹 33478">
        <path data-name="패스 53638" d="M398.387 756.282s-.6-1.862-3.83-.493c0 0-2.8.668-2.336 2.709a4.131 4.131 0 0 0-.447 5.518s-.273 2.006 1.581 1.611a1.554 1.554 0 0 0 2.029.573s2.708.7 3.681-1.079c0 0 1.921-.03 1.717-2.734-.001 0 1.911-4.272-2.395-6.105z" transform="translate(-366.413 -724.715)" style="opacity:.7;fill:#7e4f40"/>
        <path data-name="패스 53639" d="M382.394 762.162a2.721 2.721 0 0 1-2.718-2.718v-12.916a2.722 2.722 0 0 1 2.718-2.719 2.682 2.682 0 0 1 1.555.5 13.6 13.6 0 0 0 9.834.9.5.5 0 0 1 .3.954 13.508 13.508 0 0 1-6.578.354 15.833 15.833 0 0 1-4.035-1.324.5.5 0 0 1-.074-.045 1.692 1.692 0 0 0-1-.333 1.721 1.721 0 0 0-1.718 1.719v12.915a1.719 1.719 0 0 0 3.438 0v-.829a.5.5 0 0 1 1 0v.829a2.722 2.722 0 0 1-2.722 2.713z" transform="translate(-367.709 -726.043)" style="fill:#333"/>
        <path data-name="패스 53640" d="M397.958 758.023a.5.5 0 0 1-.5-.5v-11a1.721 1.721 0 0 0-1.719-1.719 1.689 1.689 0 0 0-1.029.356.509.509 0 0 1-.069.044c-.12.064-.231.121-.337.175a.5.5 0 0 1-.451-.893c.09-.046.184-.094.285-.148a2.677 2.677 0 0 1 1.6-.535 2.722 2.722 0 0 1 2.719 2.719v11a.5.5 0 0 1-.499.501z" transform="translate(-366.028 -726.043)" style="fill:#333"/>
        <path data-name="선 951" d="M1.006.5H0A.5.5 0 0 1-.5 0 .5.5 0 0 1 0-.5h1.006a.5.5 0 0 1 .5.5.5.5 0 0 1-.5.5z" transform="translate(22.443 36.887)" style="fill:#333"/>
        <path data-name="패스 53641" d="M392.686 749.61a.5.5 0 0 1-.184-.965 11.316 11.316 0 0 0 1.57-.77.5.5 0 1 1 .507.862 12.316 12.316 0 0 1-1.71.838.5.5 0 0 1-.183.035z" transform="translate(-366.196 -725.559)" style="fill:#333"/>
        <path data-name="패스 53642" d="M389.553 750.413a14.042 14.042 0 0 1-6.59-1.676.5.5 0 0 1 .508-.861 13.113 13.113 0 0 0 7.905 1.393.5.5 0 0 1 .159.987 12.454 12.454 0 0 1-1.982.157z" transform="translate(-367.341 -725.559)" style="fill:#333"/>
        <path data-name="패스 53644" d="M384.445 753.037a.5.5 0 0 1-.354-.146l-.819-.819a2.475 2.475 0 0 1-.41-2.944.5.5 0 1 1 .874.486 1.472 1.472 0 0 0 .242 1.75l.82.82a.5.5 0 0 1-.354.854z" transform="translate(-367.361 -725.431)" style="fill:#7e4f40"/>
        <path data-name="패스 53645" d="M386 754.386a.5.5 0 0 1 0-1 1.465 1.465 0 0 0 1.035-2.5.5.5 0 0 1 .707-.707 2.463 2.463 0 0 1-1.742 4.207z" transform="translate(-367.005 -725.29)" style="fill:#7e4f40"/>
        <path data-name="패스 53646" d="M386.225 758.171h-.985a3.282 3.282 0 1 1 0-6.563h.735a.5.5 0 0 1 0 1h-.735a2.282 2.282 0 1 0 0 4.563h.985a.5.5 0 1 1 0 1z" transform="translate(-367.433 -725.1)" style="fill:#7e4f40"/>
        <path data-name="패스 53647" d="M389.214 756.968a.5.5 0 0 1-.5-.5 3.087 3.087 0 0 1 .872-2.156.5.5 0 0 1 .719.695 2.092 2.092 0 0 0-.592 1.461.5.5 0 0 1-.499.5z" transform="translate(-366.616 -724.791)" style="fill:#7e4f40"/>
        <path data-name="패스 53648" d="M387.942 759.462a2.628 2.628 0 0 1-2.093-4.214.5.5 0 1 1 .8.6 1.629 1.629 0 1 0 2.6 1.966l.132-.175a.5.5 0 1 1 .8.6l-.132.175a2.629 2.629 0 0 1-2.107 1.048z" transform="translate(-367.027 -724.684)" style="fill:#7e4f40"/>
        <path data-name="패스 53649" d="M391.975 754.962a.5.5 0 0 1-.472-.664 1.628 1.628 0 0 0-2.334-1.957.5.5 0 1 1-.485-.874 2.628 2.628 0 0 1 3.764 3.159.5.5 0 0 1-.473.336z" transform="translate(-366.651 -725.157)" style="fill:#7e4f40"/>
        <path data-name="패스 53650" d="M389.315 761.764a2.722 2.722 0 0 1-2.718-2.719 2.677 2.677 0 0 1 .27-1.177.5.5 0 1 1 .9.436 1.685 1.685 0 0 0-.17.741 1.721 1.721 0 0 0 1.718 1.719.5.5 0 0 1 0 1z" transform="translate(-366.872 -724.377)" style="fill:#333"/>
        <path data-name="패스 53651" d="M395.027 755.765h-.049a.5.5 0 0 1-.449-.546 10.855 10.855 0 0 0-.52-4.245l-.009-.026c-.02-.065-.531-1.628-1.986-1.42a1.278 1.278 0 0 0-1.181 1.255.5.5 0 0 1-.992-.126 2.287 2.287 0 0 1 2.032-2.119 2.873 2.873 0 0 1 3.079 2.1 11.762 11.762 0 0 1 .572 4.674.5.5 0 0 1-.497.453z" transform="translate(-366.48 -725.475)" style="fill:#7e4f40"/>
        <path data-name="패스 53652" d="M390.472 759a.5.5 0 0 1-.258-.072 3.078 3.078 0 0 1-1.5-2.655.5.5 0 0 1 1 0 2.086 2.086 0 0 0 1.017 1.8.5.5 0 0 1-.259.928z" transform="translate(-366.616 -724.596)" style="fill:#7e4f40"/>
        <g data-name="그룹 33477">
            <path data-name="패스 53653" d="M391.806 765.4a1.569 1.569 0 0 1-1.12-.407 2.108 2.108 0 0 1-.53-1.63 4.693 4.693 0 0 1-.5-4.243 5.2 5.2 0 0 1 .952-1.585 2.488 2.488 0 0 1 1.859-2.509 2.685 2.685 0 0 0 .3-.132 4.5 4.5 0 0 1 3.646-.7c1.433.292 1.413 1.342 1.372 1.656a1.806 1.806 0 0 1-.16.549l-.894-.447a.859.859 0 0 0 .064-.232c.019-.148.054-.422-.58-.551a3.733 3.733 0 0 0-2.723.415 1.711 1.711 0 0 1-.644.368c-.653.265-1.329.539-1.226 1.725a.5.5 0 0 1-.155.408 3.774 3.774 0 0 0-.371 4.881.5.5 0 0 1 .076.347 1.3 1.3 0 0 0 .211.954.869.869 0 0 0 .774.093.5.5 0 1 1 .2.979 2.7 2.7 0 0 1-.551.061z" transform="translate(-366.538 -724.799)" style="fill:#333"/>
            <path data-name="패스 53654" d="M395.255 765.123a5.158 5.158 0 0 1-1.29-.168 1.96 1.96 0 0 1-1.714-.382 1.841 1.841 0 0 1-.516-1.472.5.5 0 0 1 .995.1.879.879 0 0 0 .2.636 1.207 1.207 0 0 0 .966.111.5.5 0 0 1 .249.016 3.48 3.48 0 0 0 2.317-.105 2.074 2.074 0 0 0 1.018-1.306.5.5 0 0 1 .954.3 3.063 3.063 0 0 1-1.518 1.9 3.63 3.63 0 0 1-1.661.37z" transform="translate(-366.251 -723.818)" style="fill:#333"/>
            <path data-name="패스 53657" d="m397.891 762.058-.12-.993h-.013c.029-.005.713-.143.891-1.429a2.76 2.76 0 0 0-1.578-3.212.5.5 0 1 1 .325-.946 3.477 3.477 0 0 1 1.313.9 3.962 3.962 0 0 1 .93 3.4c-.288 2.08-1.688 2.273-1.748 2.28z" transform="translate(-365.646 -724.635)" style="fill:#333"/>
            <path data-name="패스 53659" d="M396.06 760.944a.5.5 0 0 1-.253-.069c-1.044-.614-.8-2.148-.792-2.213a2.319 2.319 0 0 1 1.423-1.639.5.5 0 0 1 .353.936 1.327 1.327 0 0 0-.79.867c-.037.236-.061.967.313 1.187a.5.5 0 0 1-.254.931z" transform="translate(-365.858 -724.449)" style="fill:#333"/>
            <path data-name="패스 53661" d="M395.084 762.267a.5.5 0 0 1-.485-.379 2.067 2.067 0 0 1 .32-1.715 1.829 1.829 0 0 1 1.637-.545.5.5 0 1 1-.079 1 .98.98 0 0 0-.795.195 1.107 1.107 0 0 0-.113.827.5.5 0 0 1-.485.621z" transform="translate(-365.912 -724.131)" style="fill:#333"/>
            <path data-name="패스 53663" d="M393.118 762.2a.5.5 0 0 1-.449-.718 2.539 2.539 0 0 1 1.379-1.253 1.824 1.824 0 0 1 1.473.216.5.5 0 1 1-.5.863.835.835 0 0 0-.676-.123 1.558 1.558 0 0 0-.775.738.5.5 0 0 1-.452.277z" transform="translate(-366.144 -724.066)" style="fill:#333"/>
        </g>
        <path data-name="패스 53664" d="M374.668 765.183a.5.5 0 0 1-.5-.5v-12.327a13.465 13.465 0 0 1 13.432-13.428h5.79a13.36 13.36 0 0 1 6.933 1.941.5.5 0 0 1-.519.855 12.359 12.359 0 0 0-6.414-1.8h-5.79a12.442 12.442 0 0 0-12.428 12.428v12.328a.5.5 0 0 1-.504.503z" transform="translate(-368.375 -726.633)" style="fill:#333"/>
        <path data-name="패스 53666" d="M403.372 764.833a.5.5 0 0 1-.5-.5v-12.327a12.437 12.437 0 0 0-4.218-9.31.5.5 0 1 1 .662-.75 13.437 13.437 0 0 1 4.556 10.06v12.328a.5.5 0 0 1-.5.499z" transform="translate(-365.435 -726.283)" style="fill:#333"/>
        <path data-name="타원 1286" d="M3.734-.5A4.234 4.234 0 1 1-.5 3.734 4.239 4.239 0 0 1 3.734-.5zm0 7.469A3.234 3.234 0 1 0 .5 3.734a3.238 3.238 0 0 0 3.234 3.235z" transform="translate(18.269 2.912)" style="fill:#333"/>
    </g>
</svg>
