<svg xmlns="http://www.w3.org/2000/svg" width="44" height="44" viewBox="0 0 44 44">
    <path data-name="사각형 10579" style="fill:none" d="M0 0h44v44H0z"/>
    <g data-name="그룹 33496">
        <path data-name="패스 53710" d="M206.3 403.225a.5.5 0 0 1-.5-.5v-.635a2.922 2.922 0 0 1 2.919-2.918h13.386a.5.5 0 1 1 0 1H208.72a1.921 1.921 0 0 0-1.919 1.918v.635a.5.5 0 0 1-.501.5z" transform="translate(-201.26 -376.351)" style="fill:#333"/>
        <path data-name="패스 53711" d="M239.408 403.235a.5.5 0 0 1-.5-.5v-.645a1.921 1.921 0 0 0-1.919-1.918h-10.656a.5.5 0 0 1 0-1h10.656a2.922 2.922 0 0 1 2.919 2.918v.645a.5.5 0 0 1-.5.5z" transform="translate(-199.992 -376.351)" style="fill:#333"/>
        <path data-name="선 961" d="M3.783.5H0A.5.5 0 0 1-.5 0 .5.5 0 0 1 0-.5h3.783a.5.5 0 0 1 .5.5.5.5 0 0 1-.5.5z" transform="translate(22.557 23.321)" style="fill:#333"/>
        <g data-name="그룹 33495">
            <path data-name="패스 53712" d="M209.871 411.757a2.217 2.217 0 0 1-2.214-2.214v-2.708a.5.5 0 0 1 .5-.5h3.428a.5.5 0 0 1 .5.5v2.708a2.217 2.217 0 0 1-2.214 2.214zm-1.214-4.422v2.208a1.214 1.214 0 0 0 2.428 0v-2.208z" transform="translate(-201.143 -375.897)" style="fill:#333"/>
            <path data-name="패스 53713" d="M235.256 411.757a2.217 2.217 0 0 1-2.214-2.214v-2.708a.5.5 0 0 1 .5-.5h3.429a.5.5 0 0 1 .5.5v2.708a2.217 2.217 0 0 1-2.215 2.214zm-1.214-4.422v2.208a1.215 1.215 0 0 0 2.429 0v-2.208z" transform="translate(-199.536 -375.897)" style="fill:#333"/>
        </g>
        <path data-name="타원 1294" d="M2.553-.5A3.053 3.053 0 1 1-.5 2.553 3.056 3.056 0 0 1 2.553-.5zm0 5.105A2.053 2.053 0 1 0 .5 2.553a2.055 2.055 0 0 0 2.053 2.052z" transform="translate(6.758 17.602)" style="fill:#333"/>
        <path data-name="패스 53714" d="M214.532 400.37a.5.5 0 0 1-.5-.5v-5.5a.5.5 0 0 1 .5-.5h18.042a.5.5 0 1 1 0 1h-17.542v5a.5.5 0 0 1-.5.5z" transform="translate(-200.739 -376.687)" style="fill:#333"/>
        <path data-name="패스 53715" d="M235.822 400.319a.5.5 0 0 1-.5-.5v-1.5a3.49 3.49 0 0 0-1.342-2.76.5.5 0 1 1 .618-.786 4.484 4.484 0 0 1 1.724 3.546v1.5a.5.5 0 0 1-.5.5z" transform="translate(-199.489 -376.636)" style="fill:#333"/>
        <path data-name="패스 53717" d="M242.493 408.384H204.9a2.248 2.248 0 0 1-.527-.067 2.211 2.211 0 0 1-1.9-2.18v-15.093a2.211 2.211 0 0 1 4.422 0v11.977h33.5v-11.977a2.211 2.211 0 0 1 4.422 0v8.107a.5.5 0 1 1-1 0v-8.107a1.211 1.211 0 0 0-2.422 0v12.477a.5.5 0 0 1-.5.5h-34.5a.5.5 0 0 1-.5-.5v-12.477a1.211 1.211 0 0 0-2.422 0v15.094a1.209 1.209 0 0 0 1.059 1.193.492.492 0 0 1 .058.011 1.277 1.277 0 0 0 .313.044h37.594a1.31 1.31 0 0 0 .536-.117l.017-.007a1.225 1.225 0 0 0 .745-.916v-.015a1.332 1.332 0 0 0 .029-.275v-.691a.919.919 0 0 1-.009-.1V401.55a.5.5 0 0 1 1 0v3.682a.884.884 0 0 1 .009.122v.7a2.352 2.352 0 0 1-.048.472 2.233 2.233 0 0 1-1.346 1.659 2.3 2.3 0 0 1-.937.199z" transform="translate(-201.471 -377.005)" style="fill:#333"/>
        <path data-name="패스 53718" d="M213.672 393.078a.5.5 0 0 1-.4-.2 3.2 3.2 0 0 0-2.88-1.34.5.5 0 0 1-.153-.988 4.191 4.191 0 0 1 3.832 1.726.5.5 0 0 1-.4.8z" transform="translate(-201.006 -376.898)" style="fill:#7e4f40"/>
        <path data-name="패스 53719" d="M213.819 391.7a.5.5 0 0 1-.4-.2 2.544 2.544 0 0 0-2.28-1.067.5.5 0 1 1-.155-.988 3.538 3.538 0 0 1 3.234 1.453.5.5 0 0 1-.4.8z" transform="translate(-200.577 -378.031)" style="fill:#7e4f40"/>
    </g>
</svg>
