<svg xmlns="http://www.w3.org/2000/svg" width="44" height="44" viewBox="0 0 44 44">
    <path data-name="사각형 14159" style="fill:none" d="M0 0h44v44H0z"/>
    <path d="M22.952 14.589a12.03 12.03 0 1 1-12.03 12.03 12.03 12.03 0 0 1 12.03-12.03" transform="translate(-.905 -3.873)" style="opacity:.7;fill:#7e4f40"/>
    <path data-name="패스 67770" d="M18.021 9.593a.5.5 0 0 1-.5-.462l-.352-4.593.056-4.045A.475.475 0 0 1 17.732 0a.5.5 0 0 1 .493.507l-.055 4 .35 4.548a.5.5 0 0 1-.46.537h-.039" style="fill:#333" transform="translate(12.106 4.757)"/>
    <path data-name="패스 67771" d="M11.846 34.487a1.235 1.235 0 0 1-1.235-1.261L11 12.232a.513.513 0 0 1 .509-.49.5.5 0 0 1 .491.51l-.392 20.994a.235.235 0 0 0 .069.172.232.232 0 0 0 .171.069l6.984-.125v-.37a.236.236 0 0 0-.137-.216l-1.832-.848a1.243 1.243 0 0 1-.715-1.212l1.259-18.9a.512.512 0 0 1 .533-.466.5.5 0 0 1 .465.532l-1.259 18.9a.239.239 0 0 0 .136.235l1.833.848a1.243 1.243 0 0 1 .717 1.126v.86a.5.5 0 0 1-.491.5l-7.474.134z" style="fill:#333" transform="translate(12.106 4.757)"/>
    <path data-name="패스 67772" d="M1.815 9.593a.255.255 0 0 1-.039 0 .5.5 0 0 1-.46-.536l.352-4.593L1.611.507a.5.5 0 0 1 1-.014l.056 4-.354 4.638a.5.5 0 0 1-.5.462" style="fill:#333" transform="translate(12.106 4.757)"/>
    <path data-name="패스 67773" d="M7.99 34.487h-.024l-7.473-.134a.5.5 0 0 1-.491-.5v-.86a1.242 1.242 0 0 1 .717-1.126l1.831-.847a.239.239 0 0 0 .137-.232l-1.26-18.9a.5.5 0 0 1 .466-.532.5.5 0 0 1 .532.466l1.259 18.9a1.243 1.243 0 0 1-.714 1.21l-1.833.848a.237.237 0 0 0-.137.211v.371l6.983.125c.135-.015.146-.042.172-.069a.233.233 0 0 0 .069-.172l-.391-20.994a.5.5 0 0 1 .491-.51.514.514 0 0 1 .509.49l.392 20.994a1.235 1.235 0 0 1-1.235 1.261" style="fill:#333" transform="translate(12.106 4.757)"/>
    <path data-name="패스 67774" d="M11.455 12.722h-4.19a.5.5 0 0 1 0-1h4.19a.5.5 0 0 1 0 1" style="fill:#333" transform="translate(12.106 4.757)"/>
    <path data-name="패스 67775" d="M17.687 4.868H2.208a.5.5 0 1 1 0-1h15.479a.5.5 0 0 1 0 1" style="fill:#333" transform="translate(12.106 4.757)"/>
    <g>
        <g data-name="그룹 59162" style="opacity:.7">
            <path data-name="패스 67301" d="M30.3 5.529a.5.5 0 0 1-.5-.431l-.139-.99a.5.5 0 0 1 .99-.139l.14.991a.5.5 0 0 1-.426.564.563.563 0 0 1-.07 0" style="fill:#7e4f40" transform="translate(4.935 2.207)"/>
            <path data-name="패스 67302" d="M30.982 33.078h-.047a.5.5 0 0 1-.452-.544l.183-1.973a.512.512 0 0 1 .544-.452.5.5 0 0 1 .452.544l-.183 1.973a.5.5 0 0 1-.5.454m.366-3.944h-.047a.5.5 0 0 1-.452-.544l.183-1.972a.512.512 0 0 1 .544-.452.5.5 0 0 1 .452.544l-.183 1.972a.5.5 0 0 1-.5.454m.365-3.944h-.047a.5.5 0 0 1-.452-.544l.183-1.972a.512.512 0 0 1 .544-.452.5.5 0 0 1 .452.544l-.183 1.972a.5.5 0 0 1-.5.454m.365-3.944h-.044a.5.5 0 0 1-.455-.542q.063-.706.063-1.412c0-.17 0-.338-.008-.507a.5.5 0 0 1 .484-.516.522.522 0 0 1 .516.485c.005.179.008.358.008.538q0 .75-.066 1.5a.5.5 0 0 1-.5.456m-.114-3.954a.5.5 0 0 1-.495-.431l-.276-1.969a.5.5 0 0 1 .99-.139l.276 1.961a.5.5 0 0 1-.425.565.576.576 0 0 1-.07.005m-.553-3.918a.5.5 0 0 1-.495-.431l-.276-1.961a.5.5 0 0 1 .99-.138l.276 1.961a.5.5 0 0 1-.425.564.563.563 0 0 1-.07 0m-.552-3.922a.5.5 0 0 1-.5-.431l-.27-1.956a.5.5 0 0 1 .991-.138l.276 1.961a.5.5 0 0 1-.426.564.562.562 0 0 1-.07.005" style="fill:#7e4f40" transform="translate(4.935 2.207)"/>
            <path data-name="패스 67303" d="M30.707 36.048h-.046a.5.5 0 0 1-.453-.544l.093-1a.509.509 0 0 1 .544-.452.5.5 0 0 1 .452.544l-.092 1a.5.5 0 0 1-.5.454" style="fill:#7e4f40" transform="translate(4.935 2.207)"/>
            <path data-name="패스 67304" d="M34.619 27.4h-.047a.5.5 0 0 1-.452-.544l.093-1a.5.5 0 1 1 1 .092l-.092.995a.5.5 0 0 1-.5.454" style="fill:#7e4f40" transform="translate(4.935 2.207)"/>
            <path data-name="패스 67305" d="M34.321 30.617h-.046a.5.5 0 0 1-.453-.544l.149-1.608a.514.514 0 0 1 .544-.452.5.5 0 0 1 .452.543l-.148 1.609a.5.5 0 0 1-.5.454" style="fill:#7e4f40" transform="translate(4.935 2.207)"/>
            <path data-name="패스 67306" d="M34.08 33.222h-.046a.5.5 0 0 1-.453-.544l.093-1a.511.511 0 0 1 .544-.452.5.5 0 0 1 .452.544l-.092 1a.5.5 0 0 1-.5.454" style="fill:#7e4f40" transform="translate(4.935 2.207)"/>
            <path data-name="패스 67307" d="M33.926 9.206a.5.5 0 0 1-.495-.431l-.139-.99a.5.5 0 0 1 .99-.139l.14.991A.5.5 0 0 1 34 9.2a.549.549 0 0 1-.07.005" style="fill:#7e4f40" transform="translate(4.935 2.207)"/>
            <path data-name="패스 67308" d="M35.163 18.075a.5.5 0 0 1-.5-.449c-.02-.189-.044-.379-.07-.567l-.23-1.633a.5.5 0 0 1 .99-.139l.23 1.633c.028.2.053.4.074.6a.5.5 0 0 1-.445.549h-.053m-.609-4.429a.5.5 0 0 1-.495-.431l-.312-2.216a.5.5 0 0 1 .991-.139l.312 2.217a.5.5 0 0 1-.426.564.563.563 0 0 1-.07.005" style="fill:#7e4f40" transform="translate(4.935 2.207)"/>
            <path data-name="패스 67309" d="M35.183 21.31h-.046a.5.5 0 0 1-.453-.544c.03-.323.051-.645.061-.969a.5.5 0 0 1 1 .032c-.011.342-.033.686-.064 1.029a.5.5 0 0 1-.5.454" style="fill:#7e4f40" transform="translate(4.935 2.207)"/>
        </g>
        <g data-name="그룹 59161" style="opacity:.7">
            <path data-name="패스 67310" d="M5.448 5.529a.562.562 0 0 1-.07 0 .5.5 0 0 1-.426-.564l.14-.991a.5.5 0 0 1 .99.139l-.139.99a.5.5 0 0 1-.495.431" style="fill:#7e4f40" transform="translate(3.367 2.205)"/>
            <path data-name="패스 67311" d="M4.762 33.078a.5.5 0 0 1-.5-.454l-.183-1.972a.5.5 0 0 1 1-.092l.183 1.972a.5.5 0 0 1-.452.544h-.047M4.4 29.134a.5.5 0 0 1-.5-.454l-.182-1.972a.5.5 0 1 1 1-.092l.182 1.972a.5.5 0 0 1-.452.544h-.046m-.37-3.942a.5.5 0 0 1-.5-.454l-.182-1.972a.5.5 0 0 1 .45-.544.5.5 0 0 1 .544.452l.182 1.972a.5.5 0 0 1-.452.544h-.046m-.366-3.944a.5.5 0 0 1-.5-.456c-.045-.5-.066-1-.066-1.5 0-.18 0-.359.008-.538a.5.5 0 1 1 1 .031 14.25 14.25 0 0 0-.008.507q0 .706.062 1.412a.5.5 0 0 1-.454.542h-.045m.132-3.942a.576.576 0 0 1-.07-.005.5.5 0 0 1-.425-.565l.276-1.961a.5.5 0 0 1 .99.139l-.276 1.961a.5.5 0 0 1-.495.431m.552-3.923a.563.563 0 0 1-.07 0 .5.5 0 0 1-.425-.564l.276-1.961a.5.5 0 1 1 .99.138l-.276 1.961a.5.5 0 0 1-.495.431m.552-3.922a.562.562 0 0 1-.07-.005.5.5 0 0 1-.425-.572l.276-1.961a.5.5 0 0 1 .991.138L5.39 9.021a.5.5 0 0 1-.495.431" style="fill:#7e4f40" transform="translate(3.367 2.205)"/>
            <path data-name="패스 67312" d="M5.037 36.048a.5.5 0 0 1-.5-.454l-.092-1a.5.5 0 0 1 1-.092l.093 1a.5.5 0 0 1-.453.544h-.046" style="fill:#7e4f40" transform="translate(3.367 2.205)"/>
            <path data-name="패스 67313" d="M1.125 27.4a.5.5 0 0 1-.5-.454l-.091-.995a.5.5 0 1 1 1-.092l.092 1a.5.5 0 0 1-.453.544h-.046" style="fill:#7e4f40" transform="translate(3.367 2.205)"/>
            <path data-name="패스 67314" d="M1.423 30.617a.5.5 0 0 1-.5-.454l-.146-1.609a.5.5 0 0 1 .452-.543.506.506 0 0 1 .544.452l.149 1.608a.5.5 0 0 1-.453.544h-.046" style="fill:#7e4f40" transform="translate(3.367 2.205)"/>
            <path data-name="패스 67315" d="M1.664 33.222a.5.5 0 0 1-.5-.454l-.091-1a.5.5 0 0 1 .452-.544.5.5 0 0 1 .544.452l.092 1a.5.5 0 0 1-.453.544h-.046" style="fill:#7e4f40" transform="translate(3.367 2.205)"/>
            <path data-name="패스 67316" d="M1.819 9.206a.562.562 0 0 1-.07-.005.5.5 0 0 1-.426-.564l.14-.991a.5.5 0 0 1 .99.139l-.139.99a.5.5 0 0 1-.495.431" style="fill:#7e4f40" transform="translate(3.367 2.205)"/>
            <path data-name="패스 67317" d="M.582 18.075a.471.471 0 0 1-.053 0 .5.5 0 0 1-.445-.549c.021-.2.046-.4.074-.6l.23-1.633a.5.5 0 0 1 .99.139l-.23 1.633c-.026.188-.05.378-.07.567a.5.5 0 0 1-.5.449M1.2 13.64a.563.563 0 0 1-.07-.005.5.5 0 0 1-.43-.564l.312-2.217a.5.5 0 0 1 .988.139l-.31 2.216a.5.5 0 0 1-.5.431" style="fill:#7e4f40" transform="translate(3.367 2.205)"/>
            <path data-name="패스 67318" d="M.561 21.31a.5.5 0 0 1-.5-.454Q.017 20.342 0 19.828a.5.5 0 0 1 .483-.517.536.536 0 0 1 .517.483q.016.486.061.97a.5.5 0 0 1-.453.544H.562" style="fill:#7e4f40" transform="translate(3.367 2.205)"/>
        </g>
    </g>
</svg>
