<svg xmlns="http://www.w3.org/2000/svg" width="44" height="44" viewBox="0 0 44 44">
    <path data-name="사각형 10579" style="fill:none" d="M0 0h44v44H0z"/>
    <g data-name="그룹 33458">
        <path data-name="선 914" d="M5.1 9.929a.5.5 0 0 1-.44-.262L-.44.238a.5.5 0 0 1 .2-.678.5.5 0 0 1 .678.2l5.1 9.429a.5.5 0 0 1-.439.738z" transform="translate(36.685 17.412)" style="fill:#333"/>
        <path data-name="선 915" d="M1.978 4.154a.5.5 0 0 1-.44-.262L-.44.238a.5.5 0 0 1 .2-.678.5.5 0 0 1 .678.2l1.979 3.656a.5.5 0 0 1-.439.738z" transform="translate(33.644 21.924)" style="fill:#333"/>
        <path data-name="패스 53552" d="M141.919 98.294h-7.887a2.911 2.911 0 0 1 0-5.822h5.721a.5.5 0 0 1 0 1h-5.721a1.911 1.911 0 0 0 0 3.822h7.887a1.913 1.913 0 0 0 1.911-1.911 1.875 1.875 0 0 0-.223-.892.5.5 0 1 1 .882-.471 2.908 2.908 0 0 1-2.57 4.275z" style="fill:#333" transform="translate(-102.295 -67.396)"/>
        <path data-name="타원 1276" d="M1.655-.5C2.863-.5 3.81.223 3.81 1.146s-.947 1.647-2.155 1.647S-.5 2.07-.5 1.146.447-.5 1.655-.5zm0 2.293c.661 0 1.155-.341 1.155-.646S2.316.5 1.655.5.5.841.5 1.146s.494.647 1.155.647z" transform="rotate(-.199 7739.989 -6053.877)" style="fill:#333"/>
        <path data-name="선 916" d="M0 .516a.5.5 0 0 1-.5-.5.5.5 0 0 1 .5-.5L4.729-.5a.5.5 0 0 1 .5.5.5.5 0 0 1-.5.5L0 .516z" transform="translate(24.386 27.965)" style="fill:#333"/>
        <path data-name="패스 53553" d="M131.383 100.957a.5.5 0 0 1-.5-.5v-2.416a8.228 8.228 0 0 0-8.219-8.219h-6.6a8.288 8.288 0 0 0-7.391 4.635.5.5 0 0 1-.9-.439 9.3 9.3 0 0 1 3.344-3.748 9.16 9.16 0 0 1 4.945-1.448h6.6a9.245 9.245 0 0 1 9.219 9.219v2.416a.5.5 0 0 1-.498.5z" style="fill:#333" transform="translate(-102.295 -67.396)"/>
        <path data-name="패스 53554" d="M107.347 100.943a.5.5 0 0 1-.5-.5v-2.4a9.082 9.082 0 0 1 .93-4.024.5.5 0 0 1 .9.439 8.09 8.09 0 0 0-.828 3.584v2.4a.5.5 0 0 1-.502.501z" style="fill:#333" transform="translate(-102.295 -67.396)"/>
        <path data-name="패스 53555" d="M115.8 89.754a.5.5 0 0 1-.2-.959l1.1-.479.987-1.086a.5.5 0 0 1 .74.673l-1.062 1.168a.5.5 0 0 1-.2.135l-1.17.507a.5.5 0 0 1-.195.041z" style="fill:#333" transform="translate(-102.295 -67.396)"/>
        <path data-name="패스 53556" d="M123.67 89.822a.5.5 0 0 1-.5-.5v-.905l-.964 1.06a.5.5 0 1 1-.74-.673l1.834-2.017a.5.5 0 0 1 .87.336v2.2a.5.5 0 0 1-.5.499z" style="fill:#333" transform="translate(-102.295 -67.396)"/>
        <path data-name="패스 53557" d="M119.3 88.31a3.746 3.746 0 1 1 3.743-3.744 3.748 3.748 0 0 1-3.743 3.744zm0-6.487a2.741 2.741 0 1 0 2.686 2.187 2.747 2.747 0 0 0-2.686-2.187z" style="fill:#333" transform="translate(-102.295 -67.396)"/>
        <path data-name="타원 1277" d="M3.243-.5A3.743 3.743 0 1 1-.5 3.243 3.748 3.748 0 0 1 3.243-.5zm0 6.487A2.743 2.743 0 1 0 .5 3.243a2.747 2.747 0 0 0 2.743 2.744z" transform="translate(24.476 7)" style="fill:#333"/>
        <path data-name="패스 53558" d="M139.553 86.367a.5.5 0 0 1-.467-.322 3.914 3.914 0 0 0-1.6-1.941.5.5 0 1 1 .536-.844 4.893 4.893 0 0 1 2 2.429.5.5 0 0 1-.467.678z" style="fill:#333" transform="translate(-102.295 -67.396)"/>
        <path data-name="패스 53559" d="M122.322 83.892a.5.5 0 0 1-.216-.951 7.649 7.649 0 0 1 3.683-.766l8.815-.008a.5.5 0 0 1 0 1h-1.838l-6.987.008h-.024a6.659 6.659 0 0 0-3.217.668.5.5 0 0 1-.216.049z" style="fill:#333" transform="translate(-102.295 -67.396)"/>
        <path data-name="패스 53560" d="M133.22 87.635h-1.442v-1.442a.375.375 0 0 0-.375-.376h-1.081a.375.375 0 0 0-.375.376v1.442h-1.442a.374.374 0 0 0-.375.375v1.081a.375.375 0 0 0 .375.375h1.442v1.442a.375.375 0 0 0 .375.375h1.078a.375.375 0 0 0 .375-.375v-1.442h1.442a.375.375 0 0 0 .375-.375V88.01a.374.374 0 0 0-.372-.375z" style="fill:#7e4f40;opacity:.7" transform="translate(-102.295 -67.396)"/>
        <path data-name="패스 53561" d="M130.745 91.128h-1.081a.876.876 0 0 1-.876-.875v-.942h-.942a.876.876 0 0 1-.875-.875v-1.081a.876.876 0 0 1 .875-.875h.942v-.942a.876.876 0 0 1 .876-.875h1.081a.876.876 0 0 1 .875.875v.942h.157a.5.5 0 0 1 0 1h-.657a.5.5 0 0 1-.5-.5v-1.317h-.832v1.317a.5.5 0 0 1-.5.5h-1.317v.831h1.317a.5.5 0 0 1 .5.5v1.317h.832v-1.317a.5.5 0 0 1 .5-.5h1.317v-.956a.5.5 0 0 1 1 0v1.081a.876.876 0 0 1-.875.875h-.942v.942a.876.876 0 0 1-.875.875z" style="fill:#333" transform="translate(-102.295 -67.396)"/>
        <path data-name="패스 53562" d="M145.046 103.791H103.3l2.432-3.316h36.887z" style="fill:#7e4f40;opacity:.7" transform="translate(-102.295 -67.396)"/>
        <path data-name="선 917" d="M37.514.5H0A.5.5 0 0 1-.5 0 .5.5 0 0 1 0-.5h37.514a.5.5 0 0 1 .5.5.5.5 0 0 1-.5.5z" transform="translate(3.118 33.061)" style="fill:#333"/>
    </g>
</svg>
