<svg xmlns="http://www.w3.org/2000/svg" width="44" height="44" viewBox="0 0 44 44">
    <path data-name="사각형 10579" style="fill:none" d="M0 0h44v44H0z"/>
    <g data-name="그룹 33520">
        <path data-name="타원 1300" d="M1.666-.5A2.166 2.166 0 1 1-.5 1.666 2.168 2.168 0 0 1 1.666-.5zm0 3.331A1.166 1.166 0 1 0 .5 1.666a1.167 1.167 0 0 0 1.166 1.165z" transform="translate(18.665 3.917)" style="fill:#333"/>
        <path data-name="타원 1301" d="M1.666-.5A2.166 2.166 0 1 1-.5 1.666 2.168 2.168 0 0 1 1.666-.5zm0 3.331A1.166 1.166 0 1 0 .5 1.666a1.167 1.167 0 0 0 1.166 1.165z" transform="translate(25.207 3.493)" style="fill:#333"/>
        <path data-name="패스 53752" d="M315.471 108.939a2.651 2.651 0 0 1-2.53-3.454l3.351-10.535-2.109-8.28a.5.5 0 0 1 .969-.247l2.144 8.419a.5.5 0 0 1-.008.275l-3.394 10.671a1.65 1.65 0 1 0 3.144 1L320.47 96a.5.5 0 0 1 .039-.091 1.639 1.639 0 0 0 .158-1.205l-1.743-6.843a.5.5 0 0 1 .969-.247l1.743 6.843a2.633 2.633 0 0 1-.228 1.892l-3.417 10.74a2.653 2.653 0 0 1-2.521 1.848z" transform="translate(-303.548 -67.947)" style="fill:#333"/>
        <path data-name="패스 53753" d="M313.408 102.776a.5.5 0 0 1-.5-.555l.911-8.284c0-.047.013-.091.02-.128a2.571 2.571 0 0 1 .116-.651l.553-1.739a.5.5 0 0 1 .953.3l-.553 1.739a1.578 1.578 0 0 0-.071.422.5.5 0 0 1-.008.073v.026c0 .023-.009.046-.01.059l-.911 8.287a.5.5 0 0 1-.5.451z" transform="translate(-303.54 -67.51)" style="fill:#333"/>
        <path data-name="패스 53754" d="M331.178 108.382a2.448 2.448 0 0 1-2.388-1.942l-2.19-10.369a2.418 2.418 0 0 1 0-1.011 2.456 2.456 0 0 1 .113-.464l1.115-3.183a.5.5 0 0 1 .944.331l-1.115 3.183a1.453 1.453 0 0 0-.069.287c0 .014 0 .027-.007.041a1.429 1.429 0 0 0 0 .609l2.188 10.37a1.447 1.447 0 0 0 2.832-.6l-2.087-9.884a.5.5 0 0 1 .017-.269l2.6-7.429a.5.5 0 1 1 .944.331l-2.557 7.3 2.058 9.747a2.446 2.446 0 0 1-1.889 2.9 2.468 2.468 0 0 1-.509.052z" transform="translate(-302.355 -67.801)" style="fill:#333"/>
        <path data-name="패스 53755" d="M333.516 103.237a.5.5 0 0 1-.5-.456l-.692-7.765a.5.5 0 0 1 .007-.139l.986-5.116a.5.5 0 1 1 .982.189l-.971 5.05.686 7.7a.5.5 0 0 1-.454.542z" transform="translate(-301.854 -67.659)" style="fill:#333"/>
        <path data-name="선 993" d="M0 4.7a.5.5 0 0 1-.311-.108.5.5 0 0 1-.081-.7l3.332-4.2a.5.5 0 0 1 .7-.081.5.5 0 0 1 .081.7L.392 4.508A.5.5 0 0 1 0 4.7z" transform="translate(26.972 10.056)" style="fill:#333"/>
        <path data-name="패스 53757" d="M325.952 81.776a.5.5 0 0 1-.051-1l1.325-.138 2.664-3.355a.5.5 0 0 1 .783.622l-2.795 3.52a.5.5 0 0 1-.34.186l-1.534.16z" transform="translate(-302.451 -68.724)" style="fill:#333"/>
        <path data-name="선 994" d="M1.58 2.554a.5.5 0 0 1-.4-.2L-.4.3a.5.5 0 0 1 .1-.7.5.5 0 0 1 .7.1l1.576 2.05a.5.5 0 0 1-.4.8z" transform="translate(13.935 7.283)" style="fill:#333"/>
        <path data-name="패스 53759" d="M317.173 76.784a.5.5 0 0 1-.4-.2 1.836 1.836 0 0 1 .336-2.575.5.5 0 0 1 .61.793.836.836 0 0 0-.153 1.173.5.5 0 0 1-.4.8z" transform="translate(-303.237 -69.001)" style="fill:#333"/>
        <path data-name="패스 53760" d="M317.376 75a.5.5 0 0 1-.362-.845 6.023 6.023 0 0 1 2.954-1.276.5.5 0 1 1 .156.988 5.119 5.119 0 0 0-2.385.978.5.5 0 0 1-.363.155z" transform="translate(-303.195 -69.091)" style="fill:#333"/>
        <path data-name="패스 53761" d="M314.57 87.123a.5.5 0 0 1-.484-.376 4.943 4.943 0 0 1-.149-1.058.5.5 0 1 1 1-.034 3.944 3.944 0 0 0 .118.844.5.5 0 0 1-.485.625z" transform="translate(-303.451 -68.023)" style="fill:#333"/>
        <path data-name="패스 53762" d="M314.672 84.51a.5.5 0 0 1-.481-.639 9.27 9.27 0 0 1 .274-.8.5.5 0 0 1 .93.367 6.63 6.63 0 0 0-.243.709.5.5 0 0 1-.48.363z" transform="translate(-303.43 -68.232)" style="fill:#333"/>
        <path data-name="패스 53763" d="M315.9 80.217h-.012a.5.5 0 0 1-.488-.512c.005-.229 0-.456-.005-.674a6.671 6.671 0 0 1 .337-2.736.5.5 0 0 1 .917.4 5.968 5.968 0 0 0-.254 2.3c.01.239.012.487.006.737a.5.5 0 0 1-.501.485z" transform="translate(-303.325 -68.82)" style="fill:#333"/>
        <path data-name="패스 53764" d="M334.082 89.76a.5.5 0 0 1-.475-.658 6.878 6.878 0 0 0 .277-3.428.5.5 0 0 1 .983-.183 7.88 7.88 0 0 1-.312 3.926.5.5 0 0 1-.473.343z" transform="translate(-301.744 -68.03)" style="fill:#333"/>
        <path data-name="패스 53765" d="M334.121 85.113a.5.5 0 0 1-.5-.439 24.318 24.318 0 0 1 .11-4.861c.271-3.064-1.792-3.869-1.88-3.9a.5.5 0 1 1 .34-.94A3.836 3.836 0 0 1 333.62 76a4.98 4.98 0 0 1 1.111 3.9 22.105 22.105 0 0 0-.114 4.651.5.5 0 0 1-.436.557.505.505 0 0 1-.06.005z" transform="translate(-301.923 -68.911)" style="fill:#333"/>
        <path data-name="패스 53766" d="M328.59 91.065a.5.5 0 0 1-.492-.59 9.9 9.9 0 0 0-.164-3.8.5.5 0 0 1 .966-.259 10.816 10.816 0 0 1 .182 4.238.5.5 0 0 1-.492.411z" transform="translate(-302.236 -67.947)" style="fill:#333"/>
        <path data-name="패스 53768" d="M331.9 79.862a.5.5 0 0 1-.391-.811l1.224-1.54a.836.836 0 0 0-.136-1.174.5.5 0 1 1 .621-.783 1.836 1.836 0 0 1 .3 2.58l-1.224 1.54a.5.5 0 0 1-.394.188z" transform="translate(-301.934 -68.868)" style="fill:#333"/>
        <path data-name="패스 53770" d="M320.507 83.318a1.329 1.329 0 0 1 .221-.873 5.714 5.714 0 0 0-1.335-.272 12.933 12.933 0 0 1-3.446-1.221 9.314 9.314 0 0 1-.584 2.562c-.353.463 1.716-.474 3.149.392s2.548 1.857 3.29 1.38l.118-.779a1.333 1.333 0 0 1-1.413-1.189z" transform="translate(-303.374 -68.432)" style="opacity:.7;fill:#7e4f40"/>
        <path data-name="패스 53771" d="M321.3 84.659a1.836 1.836 0 0 1-.19-3.663.5.5 0 1 1 .1.995.836.836 0 0 0 .174 1.664l2.578-.27a.5.5 0 0 1 .1.995l-2.578.27a1.853 1.853 0 0 1-.184.009z" transform="translate(-302.971 -68.386)" style="fill:#333"/>
        <path data-name="패스 53772" d="M320.405 84.869a.5.5 0 0 1-.172-.031 8.548 8.548 0 0 1-1.585-.9c-.275-.18-.56-.366-.858-.547a3.692 3.692 0 0 0-2.329-.23c-.463.061-.828.11-1.029-.237a.569.569 0 0 1 .071-.657 8.681 8.681 0 0 0 .484-2.313.5.5 0 0 1 .724-.391 12.021 12.021 0 0 0 3.254 1.167 6.378 6.378 0 0 1 1.726.389.5.5 0 1 1-.349.937 5.4 5.4 0 0 0-1.448-.328 10.647 10.647 0 0 1-3-.97 11.477 11.477 0 0 1-.278 1.375 4.249 4.249 0 0 1 2.695.4c.313.189.605.381.888.566a8.011 8.011 0 0 0 1.382.8.5.5 0 0 1-.173.969z" transform="translate(-303.414 -68.514)" style="fill:#333"/>
        <path data-name="선 995" d="M12.435.5H0A.5.5 0 0 1-.5 0 .5.5 0 0 1 0-.5h12.435a.5.5 0 0 1 .5.5.5.5 0 0 1-.5.5z" transform="translate(26.954 16.664)" style="fill:#7e4f40"/>
        <path data-name="선 996" d="M22.154.5H0A.5.5 0 0 1-.5 0 .5.5 0 0 1 0-.5h22.154a.5.5 0 0 1 .5.5.5.5 0 0 1-.5.5z" transform="translate(1.349 16.664)" style="fill:#7e4f40"/>
        <path data-name="선 997" d="M0 24.94a.5.5 0 0 1-.5-.5V0A.5.5 0 0 1 0-.5a.5.5 0 0 1 .5.5v24.44a.5.5 0 0 1-.5.5z" transform="translate(4.068 16.778)" style="fill:#7e4f40"/>
        <path data-name="선 998" d="M0 24.94a.5.5 0 0 1-.5-.5V0A.5.5 0 0 1 0-.5a.5.5 0 0 1 .5.5v24.44a.5.5 0 0 1-.5.5z" transform="translate(36.608 16.778)" style="fill:#7e4f40"/>
        <path data-name="선 999" d="M8.86.5H0A.5.5 0 0 1-.5 0 .5.5 0 0 1 0-.5h8.86a.5.5 0 0 1 .5.5.5.5 0 0 1-.5.5z" transform="translate(33.79 13.531)" style="fill:#7e4f40"/>
        <path data-name="선 1000" d="M5.891.5H0A.5.5 0 0 1-.5 0 .5.5 0 0 1 0-.5h5.891a.5.5 0 0 1 .5.5.5.5 0 0 1-.5.5z" transform="translate(4.61 13.531)" style="fill:#7e4f40"/>
        <path data-name="선 1001" d="M0 20.935a.5.5 0 0 1-.5-.5V0A.5.5 0 0 1 0-.5a.5.5 0 0 1 .5.5v20.435a.5.5 0 0 1-.5.5z" transform="translate(7.838 17.65)" style="fill:#7e4f40"/>
        <path data-name="선 1002" d="M0 2.71a.5.5 0 0 1-.5-.5V0A.5.5 0 0 1 0-.5a.5.5 0 0 1 .5.5v2.21a.5.5 0 0 1-.5.5z" transform="translate(7.838 13.645)" style="fill:#7e4f40"/>
        <path data-name="선 1003" d="M0 20.865a.5.5 0 0 1-.5-.5V0A.5.5 0 0 1 0-.5a.5.5 0 0 1 .5.5v20.365a.5.5 0 0 1-.5.5z" transform="translate(40.379 17.72)" style="fill:#7e4f40"/>
        <path data-name="선 1004" d="M0 2.628a.5.5 0 0 1-.5-.5V0A.5.5 0 0 1 0-.5a.5.5 0 0 1 .5.5v2.128a.5.5 0 0 1-.5.5z" transform="translate(40.379 13.645)" style="fill:#7e4f40"/>
        <path data-name="패스 53773" d="M328.078 86.176a1.823 1.823 0 0 1-1.018-.311l-1.384-.927a.5.5 0 0 1 .556-.831l1.385.927a.837.837 0 0 0 1.161-.229.5.5 0 0 1 .831.557 1.825 1.825 0 0 1-1.17.779 1.856 1.856 0 0 1-.361.035z" transform="translate(-302.451 -68.122)" style="fill:#333"/>
        <path data-name="패스 53774" d="M326.542 85.523a.5.5 0 0 1-.278-.085l-5.059-3.388a1.823 1.823 0 0 1-.485-.475 1.187 1.187 0 0 1-.117-.131l-1.835-2.387a.5.5 0 0 1 .793-.61l1.837 2.389v.007l.028.028.036.036a.5.5 0 0 1 .06.075.828.828 0 0 0 .235.237l5.06 3.388a.5.5 0 0 1-.279.916z" transform="translate(-303.04 -68.624)" style="fill:#333"/>
        <path data-name="패스 53775" d="M329.839 85.668a.5.5 0 0 1-.5-.567.832.832 0 0 0-.364-.81l-6.293-4.214a.5.5 0 0 1-.076-.063.543.543 0 0 1-.044-.05l-1.984-2.581a.5.5 0 1 1 .793-.609l1.935 2.518 6.226 4.169a1.826 1.826 0 0 1 .8 1.775.5.5 0 0 1-.493.432z" transform="translate(-302.883 -68.769)" style="fill:#333"/>
        <path data-name="패스 53776" d="M328.933 85.583a.5.5 0 0 1-.416-.777.848.848 0 0 0 .135-.354.5.5 0 0 1 .99.138 1.839 1.839 0 0 1-.293.77.5.5 0 0 1-.416.223z" transform="translate(-302.192 -68.123)" style="fill:#333"/>
    </g>
</svg>
