<svg xmlns="http://www.w3.org/2000/svg" width="44" height="44" viewBox="0 0 44 44">
    <path data-name="사각형 10579" style="fill:none" d="M0 0h44v44H0z"/>
    <g data-name="그룹 59311">
        <g data-name="그룹 59424">
            <path data-name="패스 67667" d="M14.871.518z" style="opacity:.7;fill:#386392" transform="translate(4.241 35.406)"/>
            <path data-name="패스 67668" d="m14.741.5-.3.7-.978 1.24-1.537.278-1.149-.833-.5-1.367H2.069L0 7.551h35.518L33.454.518H24.2L24.111.9l.166 1.37-.037.8-.407 1.018-1.482.612-1.629-.111-.908-.537-.573-1.518-.649-2.113z" style="fill:#7e4f40;opacity:.7" transform="translate(4.241 35.406)"/>
            <path data-name="패스 67669" d="M33.822 1a.478.478 0 0 0 .452-.5.478.478 0 0 0-.452-.5h-9.675l.3 1z" style="fill:#333" transform="translate(4.241 35.406)"/>
            <path data-name="패스 67670" d="M18.887 1h-4.308l.292-1h3.791z" style="fill:#333" transform="translate(4.241 35.406)"/>
            <path data-name="패스 67671" d="M10.329 1H1.692A.478.478 0 0 1 1.24.5a.478.478 0 0 1 .452-.5h8.818z" style="fill:#333" transform="translate(4.241 35.406)"/>
        </g>
        <path data-name="패스 67548" d="M20.811 0a2.725 2.725 0 1 1-2.725 2.725A2.725 2.725 0 0 1 20.811 0m-.083 4.449A1.725 1.725 0 1 0 19 2.724a1.727 1.727 0 0 0 1.725 1.724" style="fill:#333" transform="translate(4.241 1.042)"/>
        <path data-name="패스 67549" d="M21.192 20.47a.5.5 0 0 1-.427-.655 58.417 58.417 0 0 0 1.8-6.824.5.5 0 1 1 .987.183 59.415 59.415 0 0 1-1.837 6.955.5.5 0 0 1-.526.341" style="fill:#333" transform="translate(4.241 1.042)"/>
        <path data-name="패스 67550" d="M14.529 7.61a.5.5 0 0 1-.459-.81 5.029 5.029 0 0 1 3.13-1.577.5.5 0 0 1 .122.992 4.031 4.031 0 0 0-2.482 1.219.5.5 0 0 1-.311.176" style="fill:#333" transform="translate(4.241 1.042)"/>
        <path data-name="패스 67551" d="M22.674 10.274a.5.5 0 0 0 .907-.223 5.034 5.034 0 0 0-1-3.356.5.5 0 1 0-.807.591 4.031 4.031 0 0 1 .812 2.641.5.5 0 0 0 .085.347" style="fill:#333" transform="translate(4.241 1.042)"/>
        <path data-name="패스 67552" d="M14.906 21.456a2.3 2.3 0 0 1-2.168-1.18l-2.686-5.117a1.976 1.976 0 0 1-.217-.716v-.063c0-.04 0-.077-.006-.105v-.017a2 2 0 0 1 .24-1.081L12.3 9.049a.52.52 0 0 1 .672-.213.453.453 0 0 1 .222.628v.006l-2.237 4.13a1.134 1.134 0 0 0-.131.613V14.329a1.135 1.135 0 0 0 .123.412l2.686 5.117a1.319 1.319 0 0 0 1.72.538 1.181 1.181 0 0 0 .585-1.62l-2.314-4.4a.448.448 0 0 1 0-.421l2.385-4.385a.518.518 0 0 1 .671-.213.454.454 0 0 1 .222.628v.006l-2.262 4.177 2.2 4.187a2.1 2.1 0 0 1-1.04 2.879 2.429 2.429 0 0 1-.892.224z" style="fill:#333" transform="translate(4.241 1.042)"/>
        <path data-name="패스 67553" d="M24.1 20.927a2.234 2.234 0 0 1-1.069-.268l-1.231-.672a.5.5 0 1 1 .482-.877l1.226.671a1.279 1.279 0 0 0 1.018.077 1.417 1.417 0 0 0 .843-.739 1.1 1.1 0 0 0-.38-1.437l-2.307-1.474a.5.5 0 1 1 .538-.842l2.306 1.473a2.1 2.1 0 0 1 .75 2.7 2.422 2.422 0 0 1-1.44 1.265 2.374 2.374 0 0 1-.738.119" style="fill:#333" transform="translate(4.241 1.042)"/>
        <path data-name="패스 67555" d="M21.8 39.68a3.082 3.082 0 0 1-3.035-2.365l-1.5-6.558-2.638-4.64a8.081 8.081 0 0 1-1.038-4.677.517.517 0 0 1 .539-.457.5.5 0 0 1 .457.539 7.084 7.084 0 0 0 .911 4.1l2.674 4.7a.469.469 0 0 1 .053.136l1.518 6.63a2.163 2.163 0 0 0 3.864.652 1.923 1.923 0 0 0 .289-1.481L22.5 29.754l-2.8-4.9a.5.5 0 1 1 .869-.5l2.837 4.972a.477.477 0 0 1 .055.143l1.407 6.585a2.917 2.917 0 0 1-.436 2.246 3.1 3.1 0 0 1-2.041 1.326 3.337 3.337 0 0 1-.593.054" style="fill:#333" transform="translate(4.241 1.042)"/>
        <path data-name="패스 67556" d="M12.465 30.018a.517.517 0 0 1-.187-.036.5.5 0 0 1-.278-.651l1.815-4.518a.5.5 0 1 1 .927.373L12.929 29.7a.5.5 0 0 1-.464.313" style="fill:#333" transform="translate(4.241 1.042)"/>
        <path data-name="패스 67557" d="M12.369 37.6a2.538 2.538 0 0 1-1.021-.213 2.387 2.387 0 0 1-1.3-3.075l.5-1.261a.5.5 0 0 1 .927.371l-.5 1.261a1.4 1.4 0 0 0 .773 1.788 1.538 1.538 0 0 0 1.99-.694l2.85-5.87a.5.5 0 1 1 .9.437l-2.848 5.873a2.519 2.519 0 0 1-2.271 1.383" style="fill:#333" transform="translate(4.241 1.042)"/>
        <path data-name="패스 67558" d="M9.059 27.74a.5.5 0 0 1-.93-.053 13.321 13.321 0 0 1 .075-8.55.5.5 0 1 1 .951.325 12.329 12.329 0 0 0-.069 7.913.5.5 0 0 1-.027.365" style="fill:#7e4f40" transform="translate(4.241 1.042)"/>
        <path data-name="패스 67559" d="M6.956 26.206a.5.5 0 0 1-.931-.053 9.468 9.468 0 0 1 .053-6.078.5.5 0 0 1 .952.325 8.472 8.472 0 0 0-.047 5.442.509.509 0 0 1-.027.364" style="fill:#7e4f40" transform="translate(4.241 1.042)"/>
    </g>
</svg>
