<svg xmlns="http://www.w3.org/2000/svg" width="44" height="44" viewBox="0 0 44 44">
    <path data-name="사각형 10579" style="fill:none" d="M0 0h44v44H0z"/>
    <g data-name="그룹 33416">
        <path data-name="패스 53478" d="M338.431 467.029a.5.5 0 0 1-.5-.5v-1.72a1.32 1.32 0 0 0-1.319-1.319h-3.795a.5.5 0 0 1 0-1h3.795a2.321 2.321 0 0 1 2.319 2.319v1.72a.5.5 0 0 1-.5.5z" transform="translate(-298.081 -433.203)" style="fill:#333"/>
        <path data-name="선 866" d="M4.119.5H0A.5.5 0 0 1-.5 0 .5.5 0 0 1 0-.5h4.119a.5.5 0 0 1 .5.5.5.5 0 0 1-.5.5z" transform="translate(28.755 29.786)" style="fill:#333"/>
        <path data-name="선 867" d="M4.021.5H0A.5.5 0 0 1-.5 0 .5.5 0 0 1 0-.5h4.021a.5.5 0 0 1 .5.5.5.5 0 0 1-.5.5z" transform="translate(22.773 29.786)" style="fill:#333"/>
        <path data-name="패스 53479" d="M304.163 467.018a.5.5 0 0 1-.5-.5v-1.709a2.321 2.321 0 0 1 2.319-2.319h15.467a.5.5 0 0 1 0 1h-15.467a1.32 1.32 0 0 0-1.319 1.319v1.709a.5.5 0 0 1-.5.5z" transform="translate(-300.539 -433.203)" style="fill:#333"/>
        <path data-name="패스 53480" d="M308.735 463.313a3.279 3.279 0 0 1-.262-6.548.5.5 0 1 1 .081 1 2.279 2.279 0 1 0 1.871 3.8 2.247 2.247 0 0 0 .586-1.352.5.5 0 1 1 1 .077 3.28 3.28 0 0 1-3.113 3.018q-.083.005-.163.005z" transform="translate(-300.385 -433.695)" style="fill:#333"/>
        <path data-name="패스 53481" d="M303.416 454.635a1.389 1.389 0 0 1 1.387 1.387v10.619h35.727v-8.233a1.387 1.387 0 1 1 2.774 0v15.656a1.387 1.387 0 0 1-2.774 0v-1.673H304.8v1.673a1.387 1.387 0 0 1-2.774 0c-.007-1.5-.012-9.7 0-18.043a1.389 1.389 0 0 1 1.39-1.386zm.887 13.056a.5.5 0 0 1-.5-.5v-11.169a.387.387 0 0 0-.387-.387.392.392 0 0 0-.387.387c-.012 8.343-.007 16.537 0 18.04a.387.387 0 1 0 .774 0v-2.223a.5.5 0 0 1 .6-.489 1.746 1.746 0 0 0 .364.039h35.753a1.776 1.776 0 0 0 .394-.048.5.5 0 0 1 .611.488v2.233a.387.387 0 0 0 .774 0v-15.653a.388.388 0 0 0-.387-.387.392.392 0 0 0-.387.387v8.791a.5.5 0 0 1-.611.488 1.778 1.778 0 0 0-.394-.048h-35.748a1.792 1.792 0 0 0-.368.04.5.5 0 0 1-.104.012z" transform="translate(-300.679 -433.877)" style="fill:#333"/>
        <path data-name="패스 53482" d="M333.565 450.969a.5.5 0 0 1-.455-.293l-1.508-3.311-1.085 1.788a.5.5 0 0 1-.8.075l-1.216-1.351-.764 1.274a.5.5 0 0 1-.429.243h-1.634a.5.5 0 1 1 0-1h1.351l.967-1.611a.5.5 0 0 1 .8-.077l1.219 1.354 1.227-2.021a.5.5 0 0 1 .882.052l1.44 3.16.476-1.07a.5.5 0 0 1 .457-.3h4.079a.5.5 0 0 1 0 1h-3.754l-.8 1.789a.5.5 0 0 1-.455.3z" transform="translate(-299.919 -437.843)" style="fill:#7e4f40"/>
        <path data-name="패스 53483" d="M312.721 451.463a.979.979 0 0 0 1.959 0v-1.426h-1.959z" transform="translate(-299.805 -437.154)" style="opacity:.7;fill:#7e4f40"/>
        <path data-name="패스 53484" d="M317.251 450.037v1.426a.98.98 0 0 0 1.96 0v-1.426z" transform="translate(-299.416 -437.154)" style="opacity:.7;fill:#7e4f40"/>
        <path data-name="선 870" d="M0 17.4a.5.5 0 0 1-.5-.5V0A.5.5 0 0 1 0-.5a.5.5 0 0 1 .5.5v16.9a.5.5 0 0 1-.5.5z" transform="translate(15.759 6.599)" style="fill:#333"/>
        <path data-name="패스 53485" d="M317.937 448.873a.5.5 0 0 1-.5-.5v-1.854h-3.817v1.854a.5.5 0 0 1-1 0v-2.354a.5.5 0 0 1 .5-.5h4.817a.5.5 0 0 1 .5.5v2.354a.5.5 0 0 1-.5.5z" transform="translate(-299.771 -437.498)" style="fill:#333"/>
        <path data-name="사각형 10580" d="M.9-.5h.155A1.4 1.4 0 0 1 2.46.9v1.825a1.4 1.4 0 0 1-1.4 1.4H.9a1.4 1.4 0 0 1-1.4-1.4V.9A1.4 1.4 0 0 1 .9-.5zm.155 3.627a.4.4 0 0 0 .4-.4V.9a.4.4 0 0 0-.4-.4H.9a.4.4 0 0 0-.4.4v1.825a.4.4 0 0 0 .4.4z" transform="translate(12.267 11.297)" style="fill:#333"/>
        <path data-name="사각형 10581" d="M.9-.5h.155A1.4 1.4 0 0 1 2.46.9v1.825a1.4 1.4 0 0 1-1.4 1.4H.9a1.4 1.4 0 0 1-1.4-1.4V.9A1.4 1.4 0 0 1 .9-.5zm.155 3.627a.4.4 0 0 0 .4-.4V.9a.4.4 0 0 0-.4-.4H.9a.4.4 0 0 0-.4.4v1.825a.4.4 0 0 0 .4.4z" transform="translate(17.187 11.297)" style="fill:#333"/>
        <path data-name="패스 53486" d="M313.01 463.825a.5.5 0 0 1-.5-.5v-5.992a.5.5 0 0 1 .5-.5h3.445a.5.5 0 0 1 0 1h-2.945v5.492a.5.5 0 0 1-.5.5z" transform="translate(-299.78 -433.689)" style="fill:#333"/>
        <path data-name="패스 53487" d="M335.746 463.752a.5.5 0 0 1-.5-.5v-1.631a3.842 3.842 0 0 0-1.479-3.039.5.5 0 1 1 .618-.786 4.836 4.836 0 0 1 1.861 3.825v1.631a.5.5 0 0 1-.5.5z" transform="translate(-297.973 -433.615)" style="fill:#333"/>
        <path data-name="패스 53488" d="M310.233 456.605a2.877 2.877 0 0 0-.709.092 2.582 2.582 0 0 0-.094.683 2.715 2.715 0 0 0 2.763 2.664 2.862 2.862 0 0 0 .708-.092 2.539 2.539 0 0 0 .1-.683 2.716 2.716 0 0 0-2.768-2.664z" transform="translate(-300.087 -433.751)" style="opacity:.7;fill:#7e4f40"/>
        <path data-name="패스 53489" d="M309.878 457.435a.5.5 0 0 1-.329-.876 7.536 7.536 0 0 1 2.784-1.358 11.435 11.435 0 0 1 7.567.73.5.5 0 1 1-.388.922 10.472 10.472 0 0 0-6.86-.7 6.729 6.729 0 0 0-2.447 1.163.5.5 0 0 1-.327.119z" transform="translate(-300.049 -433.858)" style="fill:#7e4f40"/>
        <path data-name="패스 53490" d="M311.658 459.088a.5.5 0 0 1-.478-.645 8.654 8.654 0 0 1 1.346-2.492 7.144 7.144 0 0 1 5.042-2.868 8.22 8.22 0 0 1 5.468 1.323 7.348 7.348 0 0 1 1.843 1.714.5.5 0 1 1-.822.57 6.506 6.506 0 0 0-1.611-1.476 7.157 7.157 0 0 0-4.778-1.136 6.083 6.083 0 0 0-4.327 2.455 7.8 7.8 0 0 0-1.2 2.2.5.5 0 0 1-.483.355z" transform="translate(-299.896 -434.014)" style="fill:#7e4f40"/>
        <path data-name="패스 53491" d="M339.043 443.256h-11.452a2.745 2.745 0 0 0-2.746 2.744v7.723a2.745 2.745 0 0 0 2.746 2.745h11.452a2.745 2.745 0 0 0 2.745-2.745V446a2.745 2.745 0 0 0-2.745-2.744zm.891 9.277a2.051 2.051 0 0 1-2.052 2.051h-9.132a2.051 2.051 0 0 1-2.051-2.051v-5.341a2.051 2.051 0 0 1 2.051-2.051h9.132a2.051 2.051 0 0 1 2.052 2.051z" transform="translate(-300.064 -438.378)" style="opacity:.7;fill:#7e4f40"/>
        <path data-name="사각형 10582" d="M2.335-.5h12.274a2.838 2.838 0 0 1 2.835 2.835v8.545a2.838 2.838 0 0 1-2.835 2.835H2.335A2.838 2.838 0 0 1-.5 10.879V2.335A2.838 2.838 0 0 1 2.335-.5zm12.274 13.214a1.837 1.837 0 0 0 1.835-1.835V2.335A1.837 1.837 0 0 0 14.609.5H2.335A1.837 1.837 0 0 0 .5 2.335v8.545a1.837 1.837 0 0 0 1.835 1.835z" transform="translate(23.9 4.786)" style="fill:#333"/>
        <path data-name="사각형 10583" d="M1.744-.5h9.746a2.247 2.247 0 0 1 2.244 2.244V7.7a2.247 2.247 0 0 1-2.244 2.244H1.744A2.247 2.247 0 0 1-.5 7.7V1.744A2.247 2.247 0 0 1 1.744-.5zm9.746 9.444A1.246 1.246 0 0 0 12.735 7.7V1.744A1.246 1.246 0 0 0 11.491.5H1.744A1.246 1.246 0 0 0 .5 1.744V7.7a1.246 1.246 0 0 0 1.244 1.244z" transform="translate(25.755 6.671)" style="fill:#333"/>
        <path data-name="패스 53492" d="M317.115 455.975h20.433a1.432 1.432 0 0 1 0 2.863h-2.8v6.946a1.432 1.432 0 1 1-2.863 0v-6.946h-3.119v6.946a1.431 1.431 0 1 1-2.862 0v-6.946h-3.119v6.946a1.432 1.432 0 0 1-2.863 0v-6.946h-2.8a1.432 1.432 0 0 1 0-2.863zm20.433 1.863a.432.432 0 0 0 0-.863h-20.433a.432.432 0 0 0 0 .863h3.3a.5.5 0 0 1 .5.5v7.446a.432.432 0 0 0 .863 0v-7.446a.5.5 0 0 1 .5-.5h4.122a.5.5 0 0 1 .5.5v7.446a.431.431 0 1 0 .862 0v-7.446a.5.5 0 0 1 .5-.5h4.119a.5.5 0 0 1 .5.5v7.446a.432.432 0 1 0 .863 0v-7.446a.5.5 0 0 1 .5-.5z" transform="translate(-299.508 -433.762)" style="fill:#333"/>
        <path data-name="패스 53493" d="M309.257 456.344a3.219 3.219 0 0 1 3.264 3.165 3.089 3.089 0 0 1-.113.814.5.5 0 0 1-.357.352 3.32 3.32 0 0 1-.834.108 3.219 3.219 0 0 1-3.263-3.164 3.091 3.091 0 0 1 .112-.815.5.5 0 0 1 .359-.353 3.385 3.385 0 0 1 .832-.107zm2.247 3.42a1.92 1.92 0 0 0 .018-.255 2.264 2.264 0 0 0-2.55-2.146 1.971 1.971 0 0 0-.017.256 2.262 2.262 0 0 0 2.549 2.146z" transform="translate(-300.171 -433.731)" style="fill:#333"/>
    </g>
</svg>
