<svg xmlns="http://www.w3.org/2000/svg" width="44" height="44" viewBox="0 0 44 44">
    <path data-name="사각형 4917" style="fill:none" d="M0 0h44v44H0z"/>
    <g data-name="그룹 59380">
        <path data-name="패스 67642" d="M21.3 14.7a2.756 2.756 0 1 1 2.756-2.756A2.759 2.759 0 0 1 21.3 14.7m0-4.512a1.756 1.756 0 1 0 1.756 1.756 1.758 1.758 0 0 0-1.756-1.758" style="fill:#333" transform="translate(.141 7.106)"/>
        <path data-name="패스 67643" d="M18.435 10.764a5.661 5.661 0 0 0 0 2.052c.242.518 5.249-2.169 5.56-2.052 0 0-.691-1.235-1.071-1.335a13.654 13.654 0 0 0-4.489 1.335" style="fill:#7e4f40;opacity:.7" transform="translate(.141 7.106)"/>
        <path data-name="패스 67644" d="M20.651 28.858h-1.3a.5.5 0 0 1 0-1h1.3a1.736 1.736 0 0 0 .7-3.322.5.5 0 0 1 .408-.913 2.736 2.736 0 0 1-1.111 5.235" style="fill:#333" transform="translate(.141 7.106)"/>
        <path data-name="패스 67645" d="M11.786 22.1a.484.484 0 0 1-.17-.03.5.5 0 0 1-.3-.64l1.159-3.213a2.727 2.727 0 0 1 .961-1.28.5.5 0 0 1 .588.81 1.713 1.713 0 0 0-.607.809l-1.159 3.214a.5.5 0 0 1-.471.33" style="fill:#333" transform="translate(.141 7.106)"/>
        <path data-name="패스 67646" d="M26.277 27.45a.5.5 0 0 1-.492-.416l-.779-4.569a.5.5 0 1 1 .986-.168l.779 4.569a.5.5 0 0 1-.409.577.488.488 0 0 1-.085.007" style="fill:#333" transform="translate(.141 7.106)"/>
        <path data-name="패스 67647" d="M26.57 16.306c.217.226-.414 1.27-.414 1.27l-5.812 11.272a1.788 1.788 0 0 1-1.41.93h-5c-2.215 0-2.987-.93-2.987-.93a2.423 2.423 0 0 1-.369-2.757s3.6-6.01 13.138-10.15a6.726 6.726 0 0 1 2.855.365" style="fill:#7e4f40;opacity:.7" transform="translate(.141 7.106)"/>
        <path data-name="패스 67648" d="M30.685 26.7a.5.5 0 0 1-.492-.416l-1.224-7.192a3.656 3.656 0 0 0-2.587-2.11.5.5 0 0 1-.382-.594.506.506 0 0 1 .589-.388 4.657 4.657 0 0 1 3.319 2.739.674.674 0 0 1 .029.1.514.514 0 0 1 .014.065l1.228 7.211a.5.5 0 0 1-.409.577.487.487 0 0 1-.085.007" style="fill:#333" transform="translate(.141 7.106)"/>
        <path data-name="패스 67649" d="M13.8 17.8a.5.5 0 0 1-.271-.92 9.836 9.836 0 0 1 5.737-1.559.508.508 0 0 1 .489.509.492.492 0 0 1-.49.49 8.916 8.916 0 0 0-5.194 1.4.5.5 0 0 1-.271.08" style="fill:#333" transform="translate(.141 7.106)"/>
        <path data-name="패스 67650" d="M12.942 29.787c-2.382 0-3.278-1-3.372-1.11a2.916 2.916 0 0 1-.428-3.307c.164-.278 3.8-6.221 13.379-10.378a.492.492 0 0 1 .155-.04 7.2 7.2 0 0 1 3.069.393.507.507 0 0 1 .194.125c.132.138.481.5-.348 1.874l-5.8 11.243a2.279 2.279 0 0 1-1.807 1.2zm9.9-13.845c-9.206 4.019-12.794 9.856-12.829 9.915a1.92 1.92 0 0 0 .308 2.162 3.558 3.558 0 0 0 2.62.768h5a1.264 1.264 0 0 0 .967-.666l5.81-11.265a4.938 4.938 0 0 0 .343-.682 6.2 6.2 0 0 0-2.219-.232" style="fill:#333" transform="translate(.141 7.106)"/>
        <path data-name="패스 67651" d="M20.134 24.384h-4.865a.5.5 0 1 1 0-1h4.865a.5.5 0 0 1 0 1" style="fill:#333" transform="translate(.141 7.106)"/>
        <path data-name="패스 67652" d="M21.558 24.579a.51.51 0 0 1-.208-.045 1.71 1.71 0 0 0-.7-.155h-.51a.5.5 0 0 1 0-1h.512a2.737 2.737 0 0 1 1.117.245.5.5 0 0 1-.208.955" style="fill:#333" transform="translate(.141 7.106)"/>
        <path data-name="패스 67653" d="M11.494 12.116A3.076 3.076 0 0 1 9.281 6.9a.596.596 0 0 1 .034-.037 3.141 3.141 0 0 1 2.182-.9 3.08 3.08 0 0 1 3.072 3.079 3.147 3.147 0 0 1-.069.658 3.071 3.071 0 0 1-3 2.419zm-1.442-4.572a.385.385 0 0 1-.027.03 2.076 2.076 0 0 0 1.47 3.542 2.074 2.074 0 0 0 2.026-1.631 2.236 2.236 0 0 0 .047-.444 2.079 2.079 0 0 0-2.074-2.078 2.062 2.062 0 0 0-1.44.581m4.017 1.5z" style="fill:#333" transform="translate(.141 7.106)"/>
        <path data-name="패스 67654" d="M.5 25.882a.5.5 0 0 1-.5-.5V22.2a9.468 9.468 0 0 1 9.418-9.419h4.005a9.362 9.362 0 0 1 1.457.114.5.5 0 0 1 .416.571.506.506 0 0 1-.572.417 8.351 8.351 0 0 0-1.3-.1h-4A8.464 8.464 0 0 0 1 22.2v3.179a.5.5 0 0 1-.5.5" style="fill:#333" transform="translate(.141 7.106)"/>
        <path data-name="패스 67655" d="M22.521 6.152a3.075 3.075 0 0 1-3.006-2.416 3.186 3.186 0 0 1-.069-.656A3.08 3.08 0 0 1 22.517 0 3.1 3.1 0 0 1 24.7.9l.033.037a3.075 3.075 0 0 1-2.212 5.211m0-5.152a2.077 2.077 0 0 0-2.072 2.079 2.109 2.109 0 0 0 .047.443 2.076 2.076 0 1 0 3.5-1.911.2.2 0 0 1-.028-.03A2.089 2.089 0 0 0 22.521 1" style="fill:#333" transform="translate(.141 7.106)"/>
        <path data-name="패스 67656" d="M29.188 9.1a.5.5 0 0 1-.259-.072 8.431 8.431 0 0 0-4.335-1.208H20.6a6.635 6.635 0 0 0-1.311.1.509.509 0 0 1-.572-.416.5.5 0 0 1 .417-.572A9.817 9.817 0 0 1 20.6 6.82h3.993a9.438 9.438 0 0 1 4.852 1.355.5.5 0 0 1-.259.928" style="fill:#333" transform="translate(.141 7.106)"/>
        <path data-name="패스 67657" d="M32.224 14.338a3.078 3.078 0 0 1-3-2.416 3.243 3.243 0 0 1-.07-.656 3.08 3.08 0 0 1 3.072-3.079h.005a3.054 3.054 0 0 1 2.177.9.392.392 0 0 1 .034.037 3.076 3.076 0 0 1-2.213 5.212m-2.075-3.075a2.263 2.263 0 0 0 .048.445 2.072 2.072 0 0 0 2.025 1.63A2.076 2.076 0 0 0 33.693 9.8a.384.384 0 0 1-.027-.03 2.062 2.062 0 0 0-1.44-.581 2.079 2.079 0 0 0-2.074 2.078" style="fill:#333" transform="translate(.141 7.106)"/>
        <path data-name="패스 67658" d="M43.219 26.668a.5.5 0 0 1-.5-.5v-1.744A8.464 8.464 0 0 0 34.3 16h-4a8.351 8.351 0 0 0-1.3.1.508.508 0 0 1-.572-.417.5.5 0 0 1 .416-.571 7.555 7.555 0 0 1 1.468-.114H34.3a9.468 9.468 0 0 1 9.419 9.417v1.746a.5.5 0 0 1-.5.5" style="fill:#333" transform="translate(.141 7.106)"/>
    </g>
</svg>
