<svg xmlns="http://www.w3.org/2000/svg" width="44" height="44" viewBox="0 0 44 44">
    <path data-name="사각형 10579" style="fill:none" d="M0 0h44v44H0z"/>
    <g data-name="그룹 57625">
        <path data-name="패스 63603" d="m1291.7 1218.813.263 1.291s-1.493-.372-2.054 1.585l-1.021.375a2.344 2.344 0 0 0 1.957 2.423 6.544 6.544 0 0 1 1.593 3.077 10.051 10.051 0 0 0 1.962 5.409 4.252 4.252 0 0 1-.28 1.959s-.931-.563-.843.843h11.114a6.867 6.867 0 0 0-.468-6.617c-2.145-3.639-7.49-3.731-9.17-7a7.208 7.208 0 0 0-2.971-3.385c-.079-.047-.085.04-.085.04" style="opacity:.7;isolation:isolate;fill:#7e4f40" transform="translate(-1278.598 -1199.833)"/>
        <path data-name="패스 63604" d="M1313.026 1224.127a.5.5 0 0 1-.481-.639 11.538 11.538 0 0 0-.19-6.941 13.428 13.428 0 0 1-.439 2.163.5.5 0 1 1-.96-.279 12.407 12.407 0 0 0 .481-4 .5.5 0 0 1 .934-.268 12.464 12.464 0 0 1 1.135 9.6.5.5 0 0 1-.48.364z" style="fill:#333" transform="translate(-1278.598 -1199.833)"/>
        <path data-name="패스 63605" d="M1311.958 1236.393h-8.582a.5.5 0 0 1 0-1h8.171l1.131-5.714c0-.008 0-.016.005-.024 1.039-4.159-.663-6.69-2.658-8.806a.5.5 0 1 1 .728-.686 12.433 12.433 0 0 1 2.613 3.831 9.3 9.3 0 0 1 .291 5.891l-1.209 6.1a.5.5 0 0 1-.49.408z" style="fill:#333" transform="translate(-1278.598 -1199.833)"/>
        <path data-name="패스 63606" d="M1309.157 1219.736a.5.5 0 0 1-.379-.173 17.36 17.36 0 0 1-3.168-5.378.5.5 0 1 1 .939-.345 16.358 16.358 0 0 0 2.986 5.07.5.5 0 0 1-.378.827z" style="fill:#333" transform="translate(-1278.598 -1199.833)"/>
        <path data-name="패스 63607" d="M1290.5 1218.337a.5.5 0 0 1 .246.065 7.684 7.684 0 0 1 3.279 3.676c.751 1.438 2.535 2.23 4.422 3.069 2.1.931 4.264 1.894 5.437 3.875a7.37 7.37 0 0 1 .5 7.09.5.5 0 0 1-.454.29h-11.85a.5.5 0 0 1-.5-.469 1.558 1.558 0 0 1 .305-1.208.877.877 0 0 1 .656-.278h.057a3.709 3.709 0 0 0 .117-1.169 10.547 10.547 0 0 1-1.966-5.522 6.024 6.024 0 0 0-1.349-2.688 2.849 2.849 0 0 1-2.2-2.9.5.5 0 0 1 .329-.447l.8-.29a2.315 2.315 0 0 1 1.841-1.7l-.16-.789a.5.5 0 0 1 .49-.6zm13.1 17.064a6.334 6.334 0 0 0-.559-5.845l-.011-.018c-1.009-1.711-3.031-2.609-4.987-3.478-2.06-.915-4.006-1.78-4.914-3.541a.543.543 0 0 1-.016-.035 6.68 6.68 0 0 0-1.875-2.532l.036.178a.5.5 0 0 1-.143.467.489.489 0 0 1-.465.119.94.94 0 0 0-.172-.014c-.422 0-.987.217-1.282 1.25a.5.5 0 0 1-.31.333l-.688.25a1.848 1.848 0 0 0 1.527 1.585.5.5 0 0 1 .286.155 7.025 7.025 0 0 1 1.706 3.314.5.5 0 0 1 .01.074 9.55 9.55 0 0 0 1.86 5.141.5.5 0 0 1 .1.25 4.707 4.707 0 0 1-.315 2.193.536.536 0 0 1-.1.157z" style="fill:#333" transform="translate(-1278.598 -1199.833)"/>
        <path data-name="패스 63608" d="M1304.682 1233.692a.5.5 0 0 1-.238-.94c.1-.057 2.364-1.353.9-4.772a28.876 28.876 0 0 0-1.287-2.62 4.506 4.506 0 0 1-.6-4.126.5.5 0 0 1 .974.228 3.6 3.6 0 0 0 .509 3.421c.335.616.794 1.46 1.328 2.7a5 5 0 0 1 .047 4.617 3.868 3.868 0 0 1-1.389 1.43.5.5 0 0 1-.244.062z" style="fill:#333" transform="translate(-1278.598 -1199.833)"/>
        <path data-name="패스 63609" d="M1298.619 1224.027a.5.5 0 0 1-.484-.627l.38-1.453a8.991 8.991 0 0 0-.028-4.661l-.289-1.053-2.748-1.277a2.323 2.323 0 0 1-1.12-3.089 2.333 2.333 0 0 1 2.1-1.338h.958l.908-1.718a2.816 2.816 0 0 1 2.4-1.491l1.923-.056a.483.483 0 0 1 .078 0 3.036 3.036 0 0 1 2.342 1.675 11.759 11.759 0 0 0 .64 1.038 10.952 10.952 0 0 1 1.219 2.189 1.752 1.752 0 0 1-.531 2.257 2.508 2.508 0 0 1-2.174.468 3.835 3.835 0 0 1-2.2-2.433 5.71 5.71 0 0 1-.7-2.429.5.5 0 1 1 1-.057 4.7 4.7 0 0 0 .59 2.022.466.466 0 0 1 .025.051c.448 1.065.99 1.718 1.567 1.887a1.547 1.547 0 0 0 1.326-.332c.142-.1.437-.3.155-1.1a10.278 10.278 0 0 0-1.111-1.972 12.324 12.324 0 0 1-.7-1.144 2.04 2.04 0 0 0-1.537-1.123l-1.88.055a1.814 1.814 0 0 0-1.544.96l-1.049 1.983a.5.5 0 0 1-.442.266h-1.258a1.328 1.328 0 0 0-1.193.762 1.323 1.323 0 0 0 .637 1.759l2.957 1.375a.5.5 0 0 1 .271.321l.35 1.276a9.992 9.992 0 0 1 .031 5.179l-.38 1.453a.5.5 0 0 1-.489.377z" style="fill:#333" transform="translate(-1278.598 -1199.833)"/>
        <path data-name="패스 63610" d="M1299.862 1218.275c-.581 0-.955-.028-1.01-.032a.5.5 0 0 1 .078-1c.049 0 4.94.357 7.88-1.728a.5.5 0 1 1 .579.815c-2.409 1.713-5.839 1.945-7.527 1.945z" style="fill:#7e4f40" transform="translate(-1278.598 -1199.833)"/>
    </g>
</svg>
