<svg xmlns="http://www.w3.org/2000/svg" width="44" height="44" viewBox="0 0 44 44">
    <defs>
        <clipPath id="qm1m8gieba">
            <path style="fill:none" d="M0 0h3.014v7.941H0z"/>
        </clipPath>
    </defs>
    <path data-name="사각형 10579" style="fill:none" d="M0 0h44v44H0z"/>
    <g data-name="그룹 33523">
        <g data-name="그룹 33521" transform="translate(14.515 10.779)">
            <path data-name="패스 53777" d="M388.034 91.017v4.573a3.113 3.113 0 0 0 3.1 3.1h6.06a3.113 3.113 0 0 0 3.1-3.1v-4.573z" transform="translate(-386.683 -78.51)" style="fill:#7e4f40;opacity:.7"/>
            <path data-name="패스 53778" d="M394.327 79.492a2.742 2.742 0 0 1 1.025.207 2.6 2.6 0 0 1 1.582 1.948h1.183a4.207 4.207 0 0 1 4.168 3.726.5.5 0 0 1 0 .052l.023 3.5v8.9a4.2 4.2 0 0 1-4.194 4.194h-.5a1.33 1.33 0 0 1-1.23.828h-4.111a1.33 1.33 0 0 1-1.23-.828h-.5a4.2 4.2 0 0 1-4.194-4.194V85.84a4.2 4.2 0 0 1 4.194-4.194h1.184a2.63 2.63 0 0 1 .485-1.092 2.834 2.834 0 0 1 2.115-1.062zm6.962 5.967a3.191 3.191 0 0 0-3.171-2.812h-1.638a.5.5 0 0 1-.5-.5 1.642 1.642 0 0 0-1-1.521 1.747 1.747 0 0 0-.651-.134 1.842 1.842 0 0 0-1.324.665 1.636 1.636 0 0 0-.329.989.5.5 0 0 1-.5.5h-1.637a3.2 3.2 0 0 0-3.194 3.194v11.983a3.2 3.2 0 0 0 3.194 3.194h.906a.5.5 0 0 1 .5.5.333.333 0 0 0 .328.328h4.111a.333.333 0 0 0 .328-.328.5.5 0 0 1 .5-.5h.906a3.2 3.2 0 0 0 3.194-3.194v-8.9z" transform="translate(-386.843 -79.992)" style="fill:#333"/>
            <circle data-name="타원 1302" cx=".826" cy=".826" r=".826" transform="translate(6.658 1.257)" style="fill:#7e4f40;opacity:.7"/>
            <g data-name="반복 그리드 2" transform="translate(9.466 8.363)" style="clip-path:url(#qm1m8gieba)">
                <path data-name="선 1010" transform="translate(.5 .5)" style="stroke:#7e4f40;stroke-linecap:round;stroke-linejoin:round;fill:none" d="M0 0h1.656"/>
                <path data-name="선 1010" transform="translate(.5 2.5)" style="stroke:#7e4f40;stroke-linecap:round;stroke-linejoin:round;fill:none" d="M0 0h1.656"/>
                <path data-name="선 1010" transform="translate(.5 4.5)" style="stroke:#7e4f40;stroke-linecap:round;stroke-linejoin:round;fill:none" d="M0 0h1.656"/>
                <path data-name="선 1010" transform="translate(.5 6.5)" style="stroke:#7e4f40;stroke-linecap:round;stroke-linejoin:round;fill:none" d="M0 0h1.656"/>
            </g>
        </g>
        <g data-name="그룹 33522">
            <path data-name="패스 53779" d="M409.588 90.76a.5.5 0 0 1-.348-.141l-2.34-2.276a.5.5 0 1 1 .7-.717l1.945 1.889 1.68-2.129a.5.5 0 0 1 .785.62l-2.03 2.564a.5.5 0 0 1-.36.189z" transform="translate(-369.584 -68.177)" style="fill:#333"/>
            <path data-name="패스 53780" d="M380.156 92.733a.5.5 0 0 1-.389-.185l-1.706-2.108-1.921 1.913a.5.5 0 0 1-.706-.709l2.314-2.3a.5.5 0 0 1 .741.04l2.055 2.538a.5.5 0 0 1-.388.815z" transform="translate(-373.814 -67.908)" style="fill:#333"/>
            <path data-name="패스 53781" d="M395.668 108.2a18.341 18.341 0 0 1-18.356-18.356.5.5 0 0 1 1 0 17.359 17.359 0 0 0 33.888 5.283.5.5 0 1 1 .953.3 18.364 18.364 0 0 1-17.49 12.769z" transform="translate(-373.541 -67.888)" style="fill:#333"/>
            <path data-name="패스 53782" d="M413.423 92.46a.5.5 0 0 1-.5-.5 17.359 17.359 0 0 0-33.893-5.284.5.5 0 1 1-.953-.3 18.356 18.356 0 0 1 35.846 5.588.5.5 0 0 1-.5.496z" transform="translate(-373.442 -70.004)" style="fill:#333"/>
        </g>
    </g>
</svg>
