<svg xmlns="http://www.w3.org/2000/svg" width="44" height="44" viewBox="0 0 44 44">
    <g transform="translate(-48.424 -694.424)">
        <path data-name="사각형 10579" transform="translate(48.424 694.424)" style="fill:none" d="M0 0h44v44H0z"/>
        <path data-name="패스 53862" d="M1791.558 658.458a8.042 8.042 0 1 0-3.479 0v2.932h-4.131v3.46h4.131v4.613h3.479v-4.613h4.132v-3.46h-4.132zm-6.3-7.8a4.563 4.563 0 1 1 4.563 4.537 4.556 4.556 0 0 1-4.565-4.541z" transform="translate(-1719.258 60.417)" style="fill:#fff"/>
        <path data-name="패스 53862 - 윤곽선" d="M1791.558 669.963h-3.479a.5.5 0 0 1-.5-.5v-4.113h-3.631a.5.5 0 0 1-.5-.5v-3.46a.5.5 0 0 1 .5-.5h3.631v-2.04a8.606 8.606 0 0 1-4.388-2.844 8.543 8.543 0 1 1 13.256 0 8.605 8.605 0 0 1-4.389 2.844v2.04h3.632a.5.5 0 0 1 .5.5v3.46a.5.5 0 0 1-.5.5h-3.632v4.113a.5.5 0 0 1-.5.5zm-2.979-1h2.479v-4.113a.5.5 0 0 1 .5-.5h3.632v-2.46h-3.632a.5.5 0 0 1-.5-.5v-2.932a.5.5 0 0 1 .392-.488 7.542 7.542 0 1 0-3.264 0 .5.5 0 0 1 .392.488v2.932a.5.5 0 0 1-.5.5h-3.631v2.46h3.631a.5.5 0 0 1 .5.5zm1.24-13.271a5.037 5.037 0 1 1 5.063-5.037 5.056 5.056 0 0 1-5.064 5.037zm0-9.075a4.037 4.037 0 1 0 4.063 4.037 4.055 4.055 0 0 0-4.064-4.037z" transform="translate(-1719.258 60.417)" style="fill:#333"/>
        <circle data-name="타원 1313" cx="4.709" cy="4.709" r="4.709" transform="translate(67.953 707.059)" style="fill:#7e4f40;opacity:.7"/>
    </g>
</svg>
