<svg xmlns="http://www.w3.org/2000/svg" width="44" height="44" viewBox="0 0 44 44">
    <path data-name="사각형 10579" style="fill:none" d="M0 0h44v44H0z"/>
    <g data-name="그룹 33457">
        <path data-name="패스 53546" d="M78.5 100.475H36.752l2.432-3.316H76.07z" style="fill:#7e4f40;opacity:.7" transform="translate(-35.752 -65.469)"/>
        <g data-name="그룹 33456">
            <path data-name="타원 1274" d="M3.073-.5A3.573 3.573 0 1 1-.5 3.073 3.577 3.577 0 0 1 3.073-.5zm0 6.146A2.573 2.573 0 1 0 .5 3.073a2.576 2.576 0 0 0 2.573 2.573z" transform="translate(19.335 9)" style="fill:#333"/>
            <path data-name="패스 53547" d="M44.659 97.66a2.786 2.786 0 0 1-2.343-4.282l5.869-9.191a.5.5 0 0 1 .038-.052 7.123 7.123 0 0 1 1.448-1.269 8.713 8.713 0 0 1 3.6-1.325 67.421 67.421 0 0 1 8.375 0h.037a10.588 10.588 0 0 1 5.448 2.519.5.5 0 1 1-.7.711 9.65 9.65 0 0 0-4.858-2.237 67.273 67.273 0 0 0-8.179 0 7.707 7.707 0 0 0-3.178 1.174 6.191 6.191 0 0 0-1.2 1.047l-5.85 9.161a1.784 1.784 0 0 0 2.389 2.508.5.5 0 1 1 .492.87 2.8 2.8 0 0 1-1.388.366z" style="fill:#333" transform="translate(-35.752 -65.469)"/>
            <path data-name="선 909" d="M0 2a.5.5 0 0 1-.269-.079.5.5 0 0 1-.152-.691l.957-1.5a.5.5 0 0 1 .69-.152.5.5 0 0 1 .152.691l-.957 1.5A.5.5 0 0 1 0 2z" transform="translate(15.747 21.446)" style="fill:#333"/>
            <path data-name="패스 53548" d="M44.714 97.615a2.853 2.853 0 0 1-.3-.016 2.764 2.764 0 0 1-1.872-1.016 2.8 2.8 0 0 1-.22-3.185.5.5 0 0 1 .858.514 1.794 1.794 0 0 0 .14 2.043 1.79 1.79 0 0 0 2.509.267l5.563-4.5a1.784 1.784 0 0 0-2.243-2.775l-3.43 2.772a.5.5 0 0 1-.629-.778l3.43-2.772a2.784 2.784 0 0 1 3.5 4.331L46.456 97a2.757 2.757 0 0 1-1.742.615z" style="fill:#333" transform="translate(-35.752 -65.469)"/>
            <path data-name="선 910" d="M2.824 5.719a.5.5 0 0 1-.44-.262L-.44.238a.5.5 0 0 1 .2-.678.5.5 0 0 1 .678.2l2.826 5.221a.5.5 0 0 1-.439.738z" transform="translate(27.845 22.074)" style="fill:#333"/>
            <path data-name="선 911" d="M4.3 8.448a.5.5 0 0 1-.44-.262L-.44.238a.5.5 0 0 1 .2-.678.5.5 0 0 1 .678.2l4.3 7.948a.5.5 0 0 1-.439.738z" transform="translate(32.248 20.709)" style="fill:#333"/>
            <path data-name="패스 53549" d="M70.289 98h-7.474a2.785 2.785 0 0 1 0-5.569h6.38a.5.5 0 0 1 0 1h-6.38a1.785 1.785 0 0 0 0 3.569h7.474a1.787 1.787 0 0 0 1.784-1.785 1.768 1.768 0 0 0-.218-.851.5.5 0 0 1 .876-.482A2.782 2.782 0 0 1 70.289 98z" style="fill:#333" transform="translate(-35.752 -65.469)"/>
            <path data-name="패스 53550" d="M75.829 97.46h-4.075a.5.5 0 0 1 0-1h4.075a.5.5 0 0 1 0 1z" style="fill:#333" transform="translate(-35.752 -65.469)"/>
            <path data-name="패스 53551" d="M61.234 97.46H48.167a.5.5 0 0 1 0-1h13.067a.5.5 0 0 1 0 1z" style="fill:#333" transform="translate(-35.752 -65.469)"/>
            <path data-name="선 912" d="M2.1.5H0A.5.5 0 0 1-.5 0 .5.5 0 0 1 0-.5h2.1a.5.5 0 0 1 .5.5.5.5 0 0 1-.5.5z" transform="translate(3.673 31.491)" style="fill:#333"/>
            <path data-name="타원 1275" d="M1.568-.5c1.16 0 2.068.7 2.068 1.586s-.908 1.587-2.068 1.587S-.5 1.976-.5 1.086.408-.5 1.568-.5zm0 2.173c.611 0 1.068-.31 1.068-.586S2.179.5 1.568.5.5.81.5 1.086s.457.587 1.068.587z" transform="rotate(-32.54 44.36 -22.477)" style="fill:#333"/>
            <path data-name="선 913" d="M0 2.648a.5.5 0 0 1-.422-.231.5.5 0 0 1 .153-.69L3.1-.422a.5.5 0 0 1 .69.153.5.5 0 0 1-.153.69L.269 2.57A.5.5 0 0 1 0 2.648z" transform="translate(16.274 21.253)" style="fill:#333"/>
        </g>
    </g>
</svg>
