<svg xmlns="http://www.w3.org/2000/svg" width="44" height="44" viewBox="0 0 44 44">
    <path data-name="사각형 10579" style="fill:none" d="M0 0h44v44H0z"/>
    <g data-name="그룹 33588" transform="translate(-368.524 -439.202)">
        <path data-name="패스 53961" d="M409.166 475.62h-20.13a.5.5 0 0 1 0-1h19.629v-26.278a.5.5 0 0 1 1 0v26.778a.5.5 0 0 1-.499.5z" transform="translate(1.674 .223)" style="fill:#333"/>
        <path data-name="패스 53962" d="M407.532 475.62h-18.5a.5.5 0 0 1 0-1h18v-26.278a.5.5 0 0 1 1 0v26.778a.5.5 0 0 1-.5.5z" transform="translate(1.674 .223)" style="fill:#333"/>
        <path data-name="선 1090" d="M0 1.515a.5.5 0 0 1-.5-.5V0A.5.5 0 0 1 0-.5a.5.5 0 0 1 .5.5v1.015a.5.5 0 0 1-.5.5z" transform="translate(380.554 449.842)" style="fill:#333"/>
        <path data-name="선 1091" d="M0 1.64a.5.5 0 0 1-.5-.5V0A.5.5 0 0 1 0-.5a.5.5 0 0 1 .5.5v1.14a.5.5 0 0 1-.5.5z" transform="translate(380.554 453.213)" style="fill:#333"/>
        <path data-name="패스 53963" d="M406 472.078a.5.5 0 0 1-.445-.271l-7.038-13.619h-8.168a.5.5 0 0 1 0-1h8.472a.5.5 0 0 1 .444.27l7.177 13.889a.5.5 0 0 1-.444.73z" transform="translate(1.785 1.013)" style="fill:#333"/>
        <path data-name="선 1092" d="M0 9.359a.5.5 0 0 1-.5-.5V0A.5.5 0 0 1 0-.5a.5.5 0 0 1 .5.5v8.859a.5.5 0 0 1-.5.5z" transform="translate(400.606 449.842)" style="fill:#333"/>
        <path data-name="선 1093" d="M0 7.382a.5.5 0 0 1-.23-.057.5.5 0 0 1-.213-.674L3.136-.231a.5.5 0 0 1 .674-.213.5.5 0 0 1 .213.674L.444 7.112a.5.5 0 0 1-.444.27z" transform="translate(372.618 467.185)" style="fill:#333"/>
        <path data-name="패스 53964" d="M390.5 459.067a.5.5 0 0 1-.5-.5v-9.725h-18.259a.5.5 0 1 1 0-1H390.5a.5.5 0 0 1 .5.5v10.225a.5.5 0 0 1-.5.5z" transform="translate(.213 .223)" style="fill:#333"/>
        <path data-name="선 1094" d="M17.285.5H0A.5.5 0 0 1-.5 0 .5.5 0 0 1 0-.5h17.285a.5.5 0 0 1 .5.5.5.5 0 0 1-.5.5z" transform="translate(371.954 474.066)" style="fill:#333"/>
        <path data-name="선 1095" d="M11.969.5H0A.5.5 0 0 1-.5 0 .5.5 0 0 1 0-.5h11.969a.5.5 0 0 1 .5.5.5.5 0 0 1-.5.5z" transform="translate(377.269 465.116)" style="fill:#333"/>
        <path data-name="선 1096" d="M11.97.5H0A.5.5 0 0 1-.5 0 .5.5 0 0 1 0-.5h11.97a.5.5 0 0 1 .5.5.5.5 0 0 1-.5.5z" transform="translate(377.268 462.674)" style="fill:#333"/>
        <path data-name="선 1097" d="M8.7.5H0A.5.5 0 0 1-.5 0 .5.5 0 0 1 0-.5h8.7a.5.5 0 0 1 .5.5.5.5 0 0 1-.5.5z" transform="translate(380.542 454.353)" style="fill:#333"/>
        <path data-name="선 1098" d="M0 2.454A.5.5 0 0 1-.23 2.4a.5.5 0 0 1-.215-.674L.566-.23a.5.5 0 0 1 .674-.215.5.5 0 0 1 .214.675L.444 2.184a.5.5 0 0 1-.444.27z" transform="translate(379.532 454.353)" style="fill:#333"/>
        <path data-name="선 1099" d="M0 3.128a.5.5 0 0 1-.23-.056.5.5 0 0 1-.214-.672L.914-.23a.5.5 0 0 1 .674-.215A.5.5 0 0 1 1.8.23L.444 2.858a.5.5 0 0 1-.444.27z" transform="translate(377.397 457.81)" style="fill:#333"/>
        <path data-name="선 1100" d="M0 8.821a.5.5 0 0 1-.5-.5V0A.5.5 0 0 1 0-.5a.5.5 0 0 1 .5.5v8.321a.5.5 0 0 1-.5.5z" transform="translate(390.71 456.348)" style="fill:#333"/>
        <path data-name="타원 1322" d="M1.019-.5A1.519 1.519 0 1 1-.5 1.019 1.521 1.521 0 0 1 1.019-.5zm0 2.038A.519.519 0 1 0 .5 1.019a.52.52 0 0 0 .519.519z" transform="translate(377.054 466.662)" style="fill:#333"/>
        <path data-name="패스 53966" d="M387.758 467.568a1.519 1.519 0 0 1 0-3.038.5.5 0 0 1 0 1 .519.519 0 0 0 0 1.038.5.5 0 0 1 0 1z" transform="translate(1.48 1.633)" style="fill:#333"/>
        <path data-name="패스 53967" d="M405.163 460.041a.5.5 0 0 1-.339-.132l-4.928-4.546a.5.5 0 0 1-.161-.368v-5.477a.5.5 0 0 1 1 0v5.258l4.767 4.4a.5.5 0 0 1-.339.868z" transform="translate(2.62 .322)" style="fill:#333"/>
        <path data-name="패스 53968" d="M405.162 457.679a.5.5 0 0 1-.294-.1l-3.456-2.514h-1.177a.5.5 0 0 1 0-1h1.34a.5.5 0 0 1 .294.1l3.588 2.61a.5.5 0 0 1-.295.9z" transform="translate(2.62 .749)" style="fill:#333"/>
        <path data-name="선 1101" d="M0 5.734a.5.5 0 0 1-.5-.5V0A.5.5 0 0 1 0-.5a.5.5 0 0 1 .5.5v5.234a.5.5 0 0 1-.5.5z" transform="translate(404.195 450.084)" style="fill:#333"/>
        <path data-name="사각형 10626" transform="translate(392.133 456.4)" style="fill:#7e4f40;opacity:.7" d="M0 0h15.65v9.052H0z"/>
        <path data-name="사각형 10627" transform="translate(371.954 462.132)" style="fill:#7e4f40;opacity:.7" d="M0 0h17.285v13.389H0z"/>
        <path data-name="선 1102" d="M0 27.278a.5.5 0 0 1-.5-.5V0A.5.5 0 0 1 0-.5a.5.5 0 0 1 .5.5v26.778a.5.5 0 0 1-.5.5z" transform="translate(370.32 448.565)" style="fill:#333"/>
        <path data-name="패스 53969" d="M390.625 477.064h-20.39a.5.5 0 0 1-.5-.5v-28.222a.5.5 0 0 1 .5-.5h1.634a.5.5 0 0 1 0 1h-1.134v27.222h19.39v-17.5a.5.5 0 0 1 1 0v18a.5.5 0 0 1-.5.5z" transform="translate(.086 .223)" style="fill:#333"/>
        <path data-name="패스 53970" d="M390.625 477.064h-20.39a.5.5 0 0 1-.5-.5v-28.222a.5.5 0 0 1 1 0v27.722h19.39v-27.722a.5.5 0 0 1 1 0v28.222a.5.5 0 0 1-.5.5z" transform="translate(.086 .223)" style="fill:#333"/>
        <path data-name="패스 53971" d="M411.114 449.065h-41.069a1.325 1.325 0 0 1-1.323-1.323v-1.215a1.325 1.325 0 0 1 1.323-1.323h30.561a.5.5 0 0 1 0 1h-30.561a.324.324 0 0 0-.323.323v1.215a.324.324 0 0 0 .323.323h41.069a.323.323 0 0 0 .323-.323v-1.215a.323.323 0 0 0-.323-.323h-2.554a.5.5 0 0 1 0-1h2.554a1.325 1.325 0 0 1 1.323 1.323v1.215a1.325 1.325 0 0 1-1.323 1.323z" style="fill:#333"/>
        <path data-name="선 1103" d="M5.612.5H0A.5.5 0 0 1-.5 0 .5.5 0 0 1 0-.5h5.612a.5.5 0 0 1 .5.5.5.5 0 0 1-.5.5z" transform="translate(400.606 445.704)" style="fill:#333"/>
        <path data-name="패스 53972" d="M389.026 475.521h-17.285a.5.5 0 0 1-.5-.5v-25.5a.5.5 0 0 1 .5-.5h17.285a.5.5 0 0 1 .5.5v8.859a.5.5 0 0 1-1 0v-8.359h-16.285v24.5h16.785a.5.5 0 0 1 0 1z" transform="translate(.213 .322)" style="fill:#333"/>
        <path data-name="사각형 10628" d="M0-.5h15.649a.5.5 0 0 1 .5.5v24.225a.5.5 0 0 1-.5.5H0a.5.5 0 0 1-.5-.5V0A.5.5 0 0 1 0-.5zm15.149 1H.5v23.225h14.649z" transform="translate(392.134 449.842)" style="fill:#333"/>
        <circle data-name="타원 1323" cx=".327" cy=".327" r=".327" transform="translate(377.745 467.354)" style="fill:#7e4f40;opacity:.7"/>
        <circle data-name="타원 1324" cx=".327" cy=".327" r=".327" transform="translate(388.746 467.354)" style="fill:#7e4f40;opacity:.7"/>
        <path data-name="선 1104" d="M0 17.142a.5.5 0 0 1-.5-.5V0A.5.5 0 0 1 0-.5a.5.5 0 0 1 .5.5v16.642a.5.5 0 0 1-.5.5z" transform="translate(389.239 458.701)" style="fill:#333"/>
        <path data-name="패스 53973" d="M376.13 466.816a1.109 1.109 0 0 1-1.107-1.107v-8.14a2.5 2.5 0 0 1 2.5-2.5h10.3a2.476 2.476 0 0 1 1.1.256.5.5 0 1 1-.441.9 1.485 1.485 0 0 0-.661-.154h-10.3a1.5 1.5 0 0 0-1.5 1.5v8.14a.107.107 0 1 0 .215 0v-7.887a1.663 1.663 0 0 1 1.662-1.661h9.543a1.658 1.658 0 0 1 1.479.907.5.5 0 1 1-.89.456.662.662 0 0 0-.59-.364h-9.54a.662.662 0 0 0-.662.661V465.713a1.109 1.109 0 0 1-1.108 1.103z" transform="translate(.532 .833)" style="fill:#333"/>
        <path data-name="선 1105" d="M11.737.5H0A.5.5 0 0 1-.5 0 .5.5 0 0 1 0-.5h11.737a.5.5 0 0 1 .5.5.5.5 0 0 1-.5.5z" transform="translate(377.397 460.438)" style="fill:#333"/>
        <path data-name="선 1106" d="M0 3.315a.5.5 0 0 1-.5-.5V0A.5.5 0 0 1 0-.5a.5.5 0 0 1 .5.5v2.815a.5.5 0 0 1-.5.5z" transform="translate(379.276 457.49)" style="fill:#333"/>
        <path data-name="선 1107" d="M0 3.315a.5.5 0 0 1-.5-.5V0A.5.5 0 0 1 0-.5a.5.5 0 0 1 .5.5v2.815a.5.5 0 0 1-.5.5z" transform="translate(381.242 457.49)" style="fill:#333"/>
        <path data-name="선 1108" d="M0 3.315a.5.5 0 0 1-.5-.5V0A.5.5 0 0 1 0-.5a.5.5 0 0 1 .5.5v2.815a.5.5 0 0 1-.5.5z" transform="translate(383.207 457.49)" style="fill:#333"/>
        <path data-name="선 1109" d="M0 3.315a.5.5 0 0 1-.5-.5V0A.5.5 0 0 1 0-.5a.5.5 0 0 1 .5.5v2.815a.5.5 0 0 1-.5.5z" transform="translate(385.173 457.49)" style="fill:#333"/>
        <path data-name="선 1110" d="M0 3.315a.5.5 0 0 1-.5-.5V0A.5.5 0 0 1 0-.5a.5.5 0 0 1 .5.5v2.815a.5.5 0 0 1-.5.5z" transform="translate(387.138 457.49)" style="fill:#333"/>
        <path data-name="선 1111" d="M8.734.5H0A.5.5 0 0 1-.5 0 .5.5 0 0 1 0-.5h8.734a.5.5 0 0 1 .5.5.5.5 0 0 1-.5.5z" transform="translate(380.339 451.978)" style="fill:#333"/>
        <path data-name="선 1112" d="M0 2.793a.5.5 0 0 1-.5-.5V0A.5.5 0 0 1 0-.5a.5.5 0 0 1 .5.5v2.293a.5.5 0 0 1-.5.5z" transform="translate(382.911 451.978)" style="fill:#333"/>
        <path data-name="선 1113" d="M0 2.793a.5.5 0 0 1-.5-.5V0A.5.5 0 0 1 0-.5a.5.5 0 0 1 .5.5v2.293a.5.5 0 0 1-.5.5z" transform="translate(384.997 451.978)" style="fill:#333"/>
        <path data-name="선 1114" d="M0 2.793a.5.5 0 0 1-.5-.5V0A.5.5 0 0 1 0-.5a.5.5 0 0 1 .5.5v2.293a.5.5 0 0 1-.5.5z" transform="translate(387.083 451.978)" style="fill:#333"/>
    </g>
</svg>
