<svg xmlns="http://www.w3.org/2000/svg" width="44" height="44" viewBox="0 0 44 44">
    <path data-name="사각형 14100" style="fill:none" d="M0 0h44v44H0z"/>
    <g data-name="그룹 59249">
        <path data-name="패스 67459" d="M22.784 6.25a3.72 3.72 0 0 1-4.7.78 2.9 2.9 0 0 1-1.191-1.191 3.766 3.766 0 0 1 .124-3.976.579.579 0 0 1 .483-.243h4.8a.6.6 0 0 1 .6.59l.022 3.652a.6.6 0 0 1-.134.39" transform="translate(1.358 3.257)" style="fill:#7e4f40;opacity:.7"/>
        <path data-name="패스 67460" d="M20.758 12.058H9.187A2.16 2.16 0 0 1 7.03 9.9V2.157A2.16 2.16 0 0 1 9.187 0h11.571a2.16 2.16 0 0 1 2.158 2.158V9.9a2.16 2.16 0 0 1-2.158 2.158M9.187 1A1.158 1.158 0 0 0 8.03 2.157V9.9a1.158 1.158 0 0 0 1.157 1.158h11.571A1.159 1.159 0 0 0 21.916 9.9V2.158A1.16 1.16 0 0 0 20.758 1z" transform="translate(1.358 3.257)" style="fill:#333"/>
        <path data-name="패스 67461" d="M39.008 29.74a.5.5 0 0 1-.5-.5v-1.72a1.322 1.322 0 0 0-1.319-1.32H33.4a.5.5 0 0 1 0-1h3.8a2.321 2.321 0 0 1 2.319 2.319v1.72a.5.5 0 0 1-.5.5" transform="translate(1.358 3.257)" style="fill:#333"/>
        <path data-name="패스 67462" d="M33.452 26.2H21.431a.5.5 0 0 1 0-1h12.021a.5.5 0 0 1 0 1" transform="translate(1.358 3.257)" style="fill:#333"/>
        <path data-name="패스 67463" d="M1.4 16.672a1.388 1.388 0 0 1 1.387 1.387v10.619h35.722v-8.233a1.387 1.387 0 0 1 2.774-.009V36.1a1.387 1.387 0 0 1-2.774 0v-1.672H2.779V36.1A1.387 1.387 0 1 1 0 36.1V18.058a1.389 1.389 0 0 1 1.4-1.386m.887 13.056a.5.5 0 0 1-.5-.5V18.059a.387.387 0 0 0-.387-.387.392.392 0 0 0-.387.387C1 26.4 1 34.6 1.008 36.1a.387.387 0 1 0 .774.005v-2.229a.5.5 0 0 1 .5-.5.478.478 0 0 1 .1.01 1.719 1.719 0 0 0 .364.039H38.5a1.741 1.741 0 0 0 .394-.048.5.5 0 0 1 .6.374.517.517 0 0 1 .012.111V36.1a.387.387 0 0 0 .774 0V20.446a.387.387 0 0 0-.774 0v8.793a.5.5 0 0 1-.5.5.469.469 0 0 1-.112-.012 1.741 1.741 0 0 0-.394-.048H2.751a1.819 1.819 0 0 0-.368.04.421.421 0 0 1-.1.012z" transform="translate(1.358 3.257)" style="fill:#333"/>
        <path data-name="패스 67464" d="M36.431 26.051a.5.5 0 0 1-.5-.5V23.92a3.842 3.842 0 0 0-1.479-3.039.5.5 0 0 1 .606-.8l.012.01a4.835 4.835 0 0 1 1.861 3.825v1.631a.5.5 0 0 1-.5.5" transform="translate(1.358 3.257)" style="fill:#333"/>
        <path data-name="패스 67465" d="M8.717 19.331a3.169 3.169 0 1 1 3.169-3.169 3.172 3.172 0 0 1-3.169 3.169m0-5.338a2.169 2.169 0 1 0 2.169 2.169 2.171 2.171 0 0 0-2.169-2.169" transform="translate(1.358 3.257)" style="fill:#333"/>
        <path data-name="패스 67466" d="M19.412 26.195h-5.584a.5.5 0 0 1-.337-.131l-8.747-7.982a.781.781 0 0 0-1.082.03l-.992.988a.5.5 0 1 1-.707-.707l.991-.992a1.781 1.781 0 0 1 2.462-.063l8.606 7.853h5.39a.5.5 0 0 1 0 1" transform="translate(1.358 3.257)" style="fill:#333"/>
        <path data-name="패스 67467" d="M10.9 29.408a.5.5 0 0 1-.354-.146l-8.583-8.588a.5.5 0 0 1 .707-.707l8.588 8.587a.5.5 0 0 1-.354.854" transform="translate(1.358 3.257)" style="fill:#333"/>
        <path data-name="패스 67468" d="M27.053 7.972a2.942 2.942 0 1 1-2.361 3.428 2.942 2.942 0 0 1 2.361-3.428m.884 4.8a1.942 1.942 0 1 0-2.262-1.558 1.942 1.942 0 0 0 2.262 1.558" transform="translate(1.358 3.257)" style="fill:#333"/>
        <path data-name="패스 67469" d="m20.453 18.033 1.413-2.62a2.206 2.206 0 0 1 1.256-1.055.5.5 0 0 1 .314.95 1.222 1.222 0 0 0-.69.579l-1.474 2.73" transform="translate(1.358 3.257)" style="fill:#333"/>
        <path data-name="패스 67470" d="M29.324 15.186a.505.505 0 0 1-.11.008l-4.782-.175a1.563 1.563 0 0 0-.888.236.5.5 0 0 1-.531-.847 2.554 2.554 0 0 1 1.454-.388l4.781.174a.5.5 0 0 1 .073.991z" transform="translate(1.358 3.257)" style="fill:#333"/>
        <path data-name="패스 67471" d="M29.02 23.986a2.224 2.224 0 0 1-1.59-4.07l2.2-1.385-.331-.345a.5.5 0 1 1 .718-.7l.76.784a.5.5 0 0 1-.011.706.571.571 0 0 1-.082.065l-2.721 1.712a1.225 1.225 0 0 0 1.3 2.073l4.388-2.76.042-.024a1.136 1.136 0 0 0 .571-.595v-.007a1.211 1.211 0 0 0-.388-1.492.445.445 0 0 1-.061-.054l-2.048-2.111a1.229 1.229 0 0 0-.825-.371.5.5 0 0 1 .045-1 2.216 2.216 0 0 1 1.5.675l2.02 2.083a2.22 2.22 0 0 1-.346 3.754l-4.374 2.75a2.222 2.222 0 0 1-.768.308" transform="translate(1.358 3.257)" style="fill:#333"/>
        <path data-name="패스 67472" d="M9.106 21.475a.5.5 0 0 1-.329-.876l4.583-4a.5.5 0 0 1 .688.028l3.046 3.133h8.893a.5.5 0 0 1 0 1h-9.1a.5.5 0 0 1-.353-.146L15.925 20l-2.265-2.34-4.225 3.691a.5.5 0 0 1-.329.124" transform="translate(1.358 3.257)" style="fill:#333"/>
        <path data-name="패스 67473" d="M17.2 20.732a.5.5 0 0 1-.5-.5 1.568 1.568 0 0 1 1.184-1.521l2.87-.917a.5.5 0 1 1 .3.954l-2.9.925a.579.579 0 0 0-.458.559.5.5 0 0 1-.5.5" transform="translate(1.358 3.257)" style="fill:#333"/>
        <path data-name="패스 67474" d="M19.44 7A4.126 4.126 0 0 1 16.22.3a.5.5 0 1 1 .78.625 3.128 3.128 0 0 0 4.887 3.906.54.54 0 0 1 .723-.118.465.465 0 0 1 .121.661l-.063.082A4.125 4.125 0 0 1 19.44 7" transform="translate(1.358 3.257)" style="fill:#333"/>
        <path data-name="패스 67475" d="M19.428 9.792a.5.5 0 0 1-.5-.5v-.951a.5.5 0 0 1 1 0v.951a.5.5 0 0 1-.5.5" transform="translate(1.358 3.257)" style="fill:#333"/>
        <path data-name="패스 67476" d="M13.986 3.4h-.931a.5.5 0 0 1 0-1h.931a.5.5 0 0 1 0 1" transform="translate(1.358 3.257)" style="fill:#333"/>
        <path data-name="패스 67477" d="M14.8 8.031a.5.5 0 0 1-.354-.854l.786-.785a.5.5 0 0 1 .707.707l-.785.786a.5.5 0 0 1-.354.146" transform="translate(1.358 3.257)" style="fill:#333"/>
    </g>
</svg>
