<svg xmlns="http://www.w3.org/2000/svg" width="44" height="44" viewBox="0 0 44 44">
    <defs>
        <clipPath id="w0gcc4me4a">
            <path data-name="사각형 12304" style="fill:none;stroke:#bebebe" d="M0 0h44v44H0z"/>
        </clipPath>
        <clipPath id="9z45mal6ub">
            <path data-name="사각형 12301" style="stroke:#7e4f40;fill:#7e4f40" d="M0 0h8.995v26.132H0z"/>
        </clipPath>
        <clipPath id="hz7w89kivc">
            <path data-name="사각형 12302" style="stroke:#7492b3;fill:#7e4f40" d="M0 0h16.889v6.687H0z"/>
        </clipPath>
    </defs>
    <g data-name="그룹 36039" style="clip-path:url(#w0gcc4me4a)">
        <g data-name="그룹 36038">
            <g data-name="그룹 36037" style="clip-path:url(#w0gcc4me4a)">
                <g data-name="그룹 36040">
                    <path data-name="패스 60542" d="M13.667 23.515a.5.5 0 0 1-.409-.788 21.058 21.058 0 0 1 1.7-2.111 12.537 12.537 0 0 1 7.309-4.083.5.5 0 0 1 .117.993 11.694 11.694 0 0 0-6.668 3.742l-.014.016a20.081 20.081 0 0 0-1.63 2.018.5.5 0 0 1-.405.213z" transform="translate(-3.864 -4.16)" style="fill:#333"/>
                    <path data-name="패스 60543" d="M35.413 18.935a.5.5 0 0 1-.256-.071 9.448 9.448 0 0 0-3.74-1.337.5.5 0 1 1 .117-.993 10.438 10.438 0 0 1 4.137 1.472.5.5 0 0 1-.257.929z" transform="translate(-5.421 -4.16)" style="fill:#333"/>
                    <g data-name="그룹 36033" style="isolation:isolate">
                        <g data-name="그룹 36032">
                            <g data-name="그룹 36031" style="clip-path:url(#9z45mal6ub)" transform="translate(28.188 11.967)">
                                <path data-name="패스 60544" d="M38.337 42.156a1.71 1.71 0 0 1-1.662-1.33.5.5 0 0 1-.012-.111V26.959a4.153 4.153 0 0 1-2.25-2.01c-.805-1.614-.588-3.793.646-6.477l.01-.021a5.5 5.5 0 0 1 1.966-2.173.5.5 0 0 1 .441.9 4.54 4.54 0 0 0-1.514 1.722c-1.093 2.38-1.315 4.26-.662 5.587a3.142 3.142 0 0 0 1.971 1.617.5.5 0 0 1 .391.488v14.06a.709.709 0 0 0 1.368-.043V26.593a.5.5 0 0 1 .473-.5 3.147 3.147 0 0 0 1.926-1.6c.654-1.327.432-3.207-.661-5.588a4.235 4.235 0 0 0-1.613-1.769.5.5 0 0 1 .355-.935 5.164 5.164 0 0 1 2.151 2.255l.01.02c1.234 2.684 1.451 4.864.646 6.478a4.155 4.155 0 0 1-2.287 2.022v13.683a.5.5 0 0 1-.008.087 1.714 1.714 0 0 1-1.686 1.41z" transform="translate(-33.868 -16.095)" style="fill:#7e4f40"/>
                            </g>
                        </g>
                    </g>
                    <g data-name="그룹 36036" style="isolation:isolate">
                        <g data-name="그룹 36035">
                            <g data-name="그룹 36034" style="clip-path:url(#hz7w89kivc)" transform="translate(11.669 19.67)">
                                <path data-name="합치기 52" d="M18212.6 13504.878h-.055a40.134 40.134 0 0 1-5.646-.4 14.919 14.919 0 0 1-2.076-.421l.01-.438h-1.039l-.059-.434a1.9 1.9 0 0 1-.02-.233v-.01a1.9 1.9 0 0 1 1.922-1.838c.068 0 .137 0 .205.014a1.874 1.874 0 0 1 1.842-1.358 2.1 2.1 0 0 1 .48.06 1.879 1.879 0 0 1 1.67-1.006h.027a1.98 1.98 0 0 1 .777.174 2.128 2.128 0 0 1 1.537-.658h.027a2.116 2.116 0 0 1 1.49.612 1.862 1.862 0 0 1 .631-.123h.041a1.883 1.883 0 0 1 1.688 1.056 1.854 1.854 0 0 1 .635-.109 1.884 1.884 0 0 1 1.84 1.345h.059a1.887 1.887 0 0 1 1.879 1.838v.585h-.2a3.428 3.428 0 0 1-2.094.869 31.548 31.548 0 0 1-5.451.476z" transform="translate(-18203.645 -13498.26)" style="opacity:.7;fill:#7e4f40"/>
                            </g>
                        </g>
                    </g>
                    <path data-name="패스 60547" d="M22.232 32.444a29.584 29.584 0 0 1-9.038-1.412.5.5 0 0 1 .306-.952 28.593 28.593 0 0 0 13.816.907.5.5 0 0 1 .179.984 29.421 29.421 0 0 1-5.263.473z" transform="translate(-3.836 -5.342)" style="fill:#333"/>
                    <path data-name="패스 60548" d="M31.188 30.418a.5.5 0 0 1 .14.982l-.079.025-.038.01-.251.058-.25.058a.5.5 0 1 1-.226-.974l.25-.058c.048-.011.126-.033.192-.051a.894.894 0 0 1 .262-.05z" transform="translate(-5.345 -5.373)" style="fill:#333"/>
                    <path data-name="패스 60549" d="M22.062 42.509h-1.056a.5.5 0 0 1-.156-.029c-3.728-.158-4.833-1.695-5.135-2.344a10.175 10.175 0 0 1-2.311-1.26 6.779 6.779 0 0 1-2.941-4.765.5.5 0 0 1 0-.054v-5.078a.681.681 0 0 1 .062-.372c.147-.317.6-.81 2.838-1.425a.5.5 0 0 1 .265.964 6.108 6.108 0 0 0-2.165.859v5.022a5.73 5.73 0 0 0 2.51 4.021 8.974 8.974 0 0 0 2.281 1.214.469.469 0 0 1 .335.362 1.848 1.848 0 0 0 .695.853 6.486 6.486 0 0 0 3.753 1.005.5.5 0 0 1 .141.025h.995a.5.5 0 0 1 .142-.025 6.486 6.486 0 0 0 3.753-1.006 1.85 1.85 0 0 0 .7-.853.468.468 0 0 1 .335-.362 8.975 8.975 0 0 0 2.28-1.214 5.73 5.73 0 0 0 2.51-4.021v-4.919a8.691 8.691 0 0 0-2.05-.794.5.5 0 0 1 .288-.958 10.422 10.422 0 0 1 2.265.886c.252.157.528.406.5.727v5.087a.5.5 0 0 1 0 .054 6.779 6.779 0 0 1-2.941 4.765 10.175 10.175 0 0 1-2.311 1.26c-.3.649-1.408 2.186-5.135 2.344a.5.5 0 0 1-.154.029l-.293.002z" transform="translate(-3.628 -5.089)" style="fill:#333"/>
                    <path data-name="패스 60550" d="M13.539 28.7a.5.5 0 0 1-.495-.433 1.886 1.886 0 0 1-.017-.25 2 2 0 0 1 2-2 1.937 1.937 0 0 1 .245.017 2 2 0 0 1 2.468-1.448 2 2 0 0 1 1.792-1.123h.006a1.97 1.97 0 0 1 .827.191 2.221 2.221 0 0 1 3.254-.056 1.949 1.949 0 0 1 .673-.135h.008a1.989 1.989 0 0 1 1.824 1.178 2 2 0 0 1 2.63 1.376h.083a1.986 1.986 0 0 1 1.961 2v.083a.5.5 0 0 1-1 0V28.009a.985.985 0 0 0-.972-1 1 1 0 0 0-.349.059.5.5 0 0 1-.669-.471.76.76 0 0 1 .008-.107 1 1 0 0 0-1.677-.712.5.5 0 0 1-.842-.351 1 1 0 0 0-.992-.971.95.95 0 0 0-.532.18.5.5 0 0 1-.719-.144 1.22 1.22 0 0 0-2.119.069.5.5 0 0 1-.776.141.967.967 0 0 0-.632-.245 1 1 0 0 0-.983.87.5.5 0 0 1-.775.353 1 1 0 0 0-1.558.823.868.868 0 0 0 .011.109.5.5 0 0 1-.734.521.989.989 0 0 0-.467-.121 1 1 0 0 0-1 1 .884.884 0 0 0 .008.117.5.5 0 0 1-.429.562.505.505 0 0 1-.061.009z" transform="translate(-3.852 -4.716)" style="fill:#333"/>
                    <path data-name="패스 60551" d="M16.845 29.687a.5.5 0 0 1-.421-.769 4.07 4.07 0 0 1 1.476-1.377l.036-.018a4.29 4.29 0 0 1 1.217-.34.5.5 0 1 1 .124.992 3.291 3.291 0 0 0-.915.252 3.067 3.067 0 0 0-1.093 1.028.5.5 0 0 1-.424.232z" transform="translate(-4.143 -5.091)" style="fill:#333"/>
                    <path data-name="타원 2493" d="M2.337-.5A2.837 2.837 0 1 1-.5 2.337 2.84 2.84 0 0 1 2.337-.5zm0 4.674A1.837 1.837 0 1 0 .5 2.337a1.839 1.839 0 0 0 1.837 1.837z" transform="translate(19.791 6.409)" style="fill:#333"/>
                </g>
            </g>
        </g>
    </g>
</svg>
