<svg xmlns="http://www.w3.org/2000/svg" width="44" height="44" viewBox="0 0 44 44">
    <path data-name="사각형 14128" style="fill:none" d="M0 0h44v44H0z"/>
    <g data-name="그룹 59338">
        <path data-name="패스 67596" d="M3.876 19.419a.5.5 0 0 1-.5-.5c0-.688.036-1.374.1-2.041a.507.507 0 0 1 .546-.45.5.5 0 0 1 .45.546 22.676 22.676 0 0 0-.1 1.948.5.5 0 0 1-.5.5m.392-3.972a.572.572 0 0 1-.1-.009.5.5 0 0 1-.391-.589 17.933 17.933 0 0 1 .517-1.988.5.5 0 1 1 .952.306 17.191 17.191 0 0 0-.489 1.879.5.5 0 0 1-.489.4m1.227-3.795a.5.5 0 0 1-.454-.708A16.557 16.557 0 0 1 6.01 9.13a.5.5 0 0 1 .85.527 15.5 15.5 0 0 0-.915 1.706.5.5 0 0 1-.454.291m2.1-3.39a.494.494 0 0 1-.314-.112.5.5 0 0 1-.074-.7A16.315 16.315 0 0 1 8.6 5.928a.5.5 0 0 1 .691.722 15.654 15.654 0 0 0-1.307 1.426.5.5 0 0 1-.389.186M10.478 5.5a.5.5 0 0 1-.3-.9 11.114 11.114 0 0 1 1.797-1.11.5.5 0 0 1 .415.909 10.5 10.5 0 0 0-1.616 1 .5.5 0 0 1-.3.1" style="fill:#7e4f40;opacity:.7" transform="translate(3.606 6.843)"/>
        <path data-name="패스 67597" d="M2.212 25.662a.5.5 0 0 1-.429-.242 8.01 8.01 0 0 1-.3-.541.5.5 0 1 1 .882-.469c.089.167.183.331.281.5a.5.5 0 0 1-.429.757M1.129 23.31a.5.5 0 0 1-.474-.341 12.734 12.734 0 0 1-.5-2.02.5.5 0 0 1 .989-.158 11.454 11.454 0 0 0 .457 1.86.5.5 0 0 1-.315.633.49.49 0 0 1-.159.026M.5 19.378a.5.5 0 0 1-.5-.5A12.434 12.434 0 0 1 .188 16.8a.5.5 0 1 1 .984.173A11.518 11.518 0 0 0 1 18.882a.5.5 0 0 1-.5.5" style="fill:#7e4f40;opacity:.7" transform="translate(3.606 6.843)"/>
        <path data-name="패스 67598" d="M28.773 8.509A4.255 4.255 0 1 1 28.77 0a4.255 4.255 0 0 1 3.01 7.262 4.223 4.223 0 0 1-3.008 1.247m0-7.509a3.254 3.254 0 1 0 2.3.953A3.233 3.233 0 0 0 28.77 1" style="fill:#333" transform="translate(3.606 6.843)"/>
        <path data-name="패스 67599" d="M17.335 6.392a.5.5 0 0 1-.358-.849c2.123-2.181 5.541-1.532 5.684-1.505a.5.5 0 0 1 .394.587.507.507 0 0 1-.587.395c-.029-.006-3.034-.566-4.775 1.221a.5.5 0 0 1-.358.151" style="fill:#333" transform="translate(3.606 6.843)"/>
        <path data-name="패스 67600" d="M23.316 30.313a3.344 3.344 0 0 1-2.979-1.836L15.863 20.7a4.553 4.553 0 0 1-.335-3.832L18 10.035a.5.5 0 1 1 .939.34l-2.474 6.837a3.565 3.565 0 0 0 .263 3L21.217 28a2.332 2.332 0 0 0 3.141 1.061 2.33 2.33 0 0 0 1.036-3.128 2.126 2.126 0 0 0-.138-.237l-4.1-7.081a.5.5 0 0 1-.033-.432l3.015-7.772a.5.5 0 1 1 .932.361l-2.929 7.548 3.965 6.849a2.808 2.808 0 0 1 .182.316 3.334 3.334 0 0 1-2.972 4.825" style="fill:#333" transform="translate(3.606 6.843)"/>
        <path data-name="패스 67601" d="M23.588 22.345a.518.518 0 0 1-.209-.045.5.5 0 0 1-.245-.663L27.19 12.8a.5.5 0 1 1 .908.417l-4.056 8.836a.5.5 0 0 1-.454.292" style="fill:#333" transform="translate(3.606 6.843)"/>
        <path data-name="패스 67602" d="M27.951 29.7a2.783 2.783 0 0 1-2.241-1.129l-.117-.157a.5.5 0 0 1 .8-.6l.119.158a1.774 1.774 0 0 0 3.052-.325A1.76 1.76 0 0 0 29.6 26.3l-2.4-6.363a.508.508 0 0 1-.03-.128l-.547-5.583a.5.5 0 0 1 .449-.546.506.506 0 0 1 .547.448l.54 5.517 2.384 6.294a2.777 2.777 0 0 1-2.592 3.761" style="fill:#333" transform="translate(3.606 6.843)"/>
        <path data-name="패스 67603" d="M8.47 29.214a.5.5 0 0 1-.47-.33 19.769 19.769 0 0 1 5.991-21.9.5.5 0 1 1 .636.77 18.768 18.768 0 0 0-5.685 20.79.5.5 0 0 1-.3.641.533.533 0 0 1-.17.029" style="fill:#333" transform="translate(3.606 6.843)"/>
        <path data-name="패스 67604" d="M33.057 30.028a.5.5 0 0 1-.4-.8 4.322 4.322 0 0 0 .767-1.606.5.5 0 1 1 .971.236 5.286 5.286 0 0 1-.944 1.977.5.5 0 0 1-.4.2m.78-3.743a.5.5 0 0 1-.466-.319l-.717-1.873a.5.5 0 1 1 .931-.362L34.3 25.6a.5.5 0 0 1-.466.681m-1.444-3.725a.5.5 0 0 1-.466-.319l-.724-1.864a.5.5 0 1 1 .931-.362l.724 1.864a.5.5 0 0 1-.466.681" style="fill:#7e4f40;opacity:.7" transform="translate(3.606 6.843)"/>
        <path data-name="패스 67605" d="M36.288 22.627a.5.5 0 0 1-.463-.31c-.231-.562-.5-1.2-.769-1.846a.5.5 0 0 1 .922-.388c.272.645.54 1.29.773 1.854a.5.5 0 0 1-.273.653.49.49 0 0 1-.19.037m-1.55-3.7a.5.5 0 0 1-.46-.305l-.786-1.847a.5.5 0 1 1 .92-.393l.786 1.85a.5.5 0 0 1-.46.695" style="fill:#7e4f40;opacity:.7" transform="translate(3.606 6.843)"/>
    </g>
</svg>
