<svg xmlns="http://www.w3.org/2000/svg" width="44" height="44" viewBox="0 0 44 44">
    <path data-name="사각형 14113" style="fill:none" d="M0 0h44v44H0z"/>
    <g data-name="그룹 59251">
        <path data-name="패스 67478" d="M26.467 9.884a2.986 2.986 0 0 0-4.517-3.641 3 3 0 0 0-2.827-2.023 3 3 0 0 0-2.83 2.024 2.985 2.985 0 0 0-4.511 3.62 2.991 2.991 0 0 0 .779 5.878h13.125a2.98 2.98 0 0 0 .781-5.858" style="fill:#7e4f40;opacity:.7" transform="translate(3.324 6.159)"/>
        <path data-name="패스 67479" d="M10.37 14.583c-.055 0-.113 0-.171-.005a3.1 3.1 0 0 1-.492-6.123 3.086 3.086 0 0 1 4.671-3.743 3.1 3.1 0 0 1 5.956-.012 3.31 3.31 0 0 1 1.906-.632 3.039 3.039 0 0 1 2.149.927.5.5 0 0 1-.717.7 2.049 2.049 0 0 0-1.447-.624h-.03a2.059 2.059 0 0 0-1.822 1.1.5.5 0 0 1-.94-.277c0-.009.012-.1.013-.113a2.134 2.134 0 0 0-.528-1.613 2.1 2.1 0 0 0-3.657 1.3 1.982 1.982 0 0 0 0 .218l.009.1.013.108a.5.5 0 0 1-.937.283 2.086 2.086 0 1 0-3.389 2.387.5.5 0 0 1 .083.537.544.544 0 0 1-.564.287 2.1 2.1 0 0 0-.223 4.195 2.283 2.283 0 0 0 .234 0H24.2a2.1 2.1 0 0 0 2.1-2.1.5.5 0 0 1 1 0 3.1 3.1 0 0 1-3.1 3.1H10.37" style="fill:#333" transform="translate(3.324 6.159)"/>
        <path data-name="패스 67480" d="M12.036 31.683a.5.5 0 0 1-.493-.42c-.052-.323-.124-.64-.2-.958a19.403 19.403 0 0 1-.178-.849.5.5 0 0 0-.554-.477C9.6 29 8.651 29 7.7 28.984a4.383 4.383 0 0 1-4.378-3.733c-.065-.343-.123-.7-.182-1.061-.1-.64-.213-1.3-.371-1.933a1.02 1.02 0 0 0-.486-.621C1 21.11.275 20.484.064 19.689s.087-1.63.957-2.748a8.042 8.042 0 0 0 1.674-4.859A12.877 12.877 0 0 1 15.261 0a.526.526 0 0 1 .513.487.5.5 0 0 1-.488.513A11.874 11.874 0 0 0 3.694 12.118a9.018 9.018 0 0 1-1.883 5.436c-.642.826-.9 1.439-.781 1.879s.689.893 1.69 1.3a2.051 2.051 0 0 1 1.021 1.27c.17.678.282 1.362.39 2.023.057.351.115.7.18 1.051a3.409 3.409 0 0 0 3.383 2.9h.019c.949.021 1.887.015 2.823 0a1.462 1.462 0 0 1 1.614 1.26c.052.3.112.572.173.841.076.338.152.676.207 1.017a.5.5 0 0 1-.413.574.443.443 0 0 1-.081.007m12.865-.1a.5.5 0 0 1-.488-.4c-.111-.523-.217-1.045-.323-1.569s-.209-1.03-.318-1.545a6.483 6.483 0 0 1 .833-4.952 97.75 97.75 0 0 0 2.275-3.756 14.213 14.213 0 0 0 1.084-2.415.5.5 0 0 1 .947.322 15.154 15.154 0 0 1-1.162 2.586c-.748 1.321-1.546 2.6-2.3 3.8a5.489 5.489 0 0 0-.7 4.2c.112.53.217 1.047.322 1.565s.211 1.041.321 1.56a.5.5 0 0 1-.386.593.525.525 0 0 1-.1.011" style="fill:#333" transform="translate(3.324 6.159)"/>
        <path data-name="패스 67481" d="M29.317 9.124a1.962 1.962 0 0 1-1.391-.574l-.314-.314a.965.965 0 0 0-1.368 0l-.173.173a1.959 1.959 0 0 1-2.635.134l-.775-.721a.5.5 0 1 1 .681-.732l.751.7a.958.958 0 0 0 1.271-.09l.173-.173a1.969 1.969 0 0 1 2.78 0l.315.315a.972.972 0 0 0 1.369 0l.167-.167a1.969 1.969 0 0 1 2.78 0 .5.5 0 0 1-.707.707.967.967 0 0 0-1.366 0l-.167.167a1.962 1.962 0 0 1-1.391.574" style="fill:#333" transform="translate(3.324 6.159)"/>
        <path data-name="패스 67482" d="M33.576 6.124a1.962 1.962 0 0 1-1.391-.574l-.314-.314a.988.988 0 0 0-1.367 0l-.173.173a1.96 1.96 0 0 1-2.636.134l-.775-.721a.5.5 0 1 1 .681-.732l.751.7a.958.958 0 0 0 1.272-.09l.173-.173a1.967 1.967 0 0 1 2.78 0l.315.316a.972.972 0 0 0 1.368 0l.167-.167a1.969 1.969 0 0 1 2.78 0 .5.5 0 0 1-.707.707.967.967 0 0 0-1.366 0l-.167.167a1.962 1.962 0 0 1-1.391.574" style="fill:#333" transform="translate(3.324 6.159)"/>
        <path data-name="패스 67483" d="M32.631 12.327a1.962 1.962 0 0 1-1.39-.574l-.314-.315a.99.99 0 0 0-1.367 0l-.173.173a1.957 1.957 0 0 1-2.635.133l-.775-.722a.5.5 0 1 1 .681-.73l.751.7a.961.961 0 0 0 1.271-.092l.173-.173a1.952 1.952 0 0 1 1.389-.576 1.951 1.951 0 0 1 1.39.575l.315.316a.972.972 0 0 0 1.368 0l.165-.166a1.971 1.971 0 0 1 2.783 0 .5.5 0 1 1-.707.707.969.969 0 0 0-1.368 0l-.165.166a1.964 1.964 0 0 1-1.393.575" style="fill:#333" transform="translate(3.324 6.159)"/>
        <path data-name="패스 67484" d="M10.564 23.322a.5.5 0 0 1-.491-.406c-.392-2.068-2.8-2.545-2.825-2.55a.5.5 0 1 1 .186-.982c.126.023 3.1.616 3.622 3.344a.5.5 0 0 1-.4.585.507.507 0 0 1-.094.009" style="fill:#7e4f40;opacity:.7" transform="translate(3.324 6.159)"/>
    </g>
</svg>
