<svg xmlns="http://www.w3.org/2000/svg" width="44" height="44" viewBox="0 0 44 44">
    <path data-name="사각형 14114" style="fill:none" d="M0 0h44v44H0z"/>
    <g data-name="그룹 59253" transform="translate(3.978 3.118)">
        <path data-name="패스 67487" d="M12.033 34.673a.5.5 0 0 1-.492-.42 14.43 14.43 0 0 0-.2-.963c-.063-.281-.126-.561-.177-.844a.531.531 0 0 0-.2-.385.465.465 0 0 0-.356-.091c-1.016.012-1.965.02-2.911 0a4.38 4.38 0 0 1-4.379-3.734c-.064-.339-.121-.695-.18-1.049-.1-.645-.214-1.312-.373-1.945a1.017 1.017 0 0 0-.486-.62C1 24.1.273 23.47.061 22.674a3.413 3.413 0 0 1 .957-2.752 8.035 8.035 0 0 0 1.674-4.859A12.878 12.878 0 0 1 15.258 2.981a.539.539 0 0 1 .513.487.5.5 0 0 1-.487.513A11.875 11.875 0 0 0 3.691 15.1a9.021 9.021 0 0 1-1.883 5.437c-.642.825-.9 1.44-.78 1.88.121.457.689.9 1.688 1.306a2.053 2.053 0 0 1 1.023 1.269c.171.682.283 1.37.391 2.035.057.348.114.694.178 1.04a3.409 3.409 0 0 0 3.384 2.9h.018c.949.021 1.887.013 2.828.005a1.413 1.413 0 0 1 1.031.285 1.478 1.478 0 0 1 .578.975c.052.3.111.568.172.835.076.34.153.679.208 1.023a.5.5 0 0 1-.413.573.451.451 0 0 1-.081.007m12.867-.109a.5.5 0 0 1-.488-.4c-.111-.523-.217-1.046-.323-1.57s-.209-1.03-.317-1.544A6.481 6.481 0 0 1 24.6 26.1a98.4 98.4 0 0 0 2.275-3.755 14.049 14.049 0 0 0 1.084-2.414.5.5 0 0 1 .947.32 14.976 14.976 0 0 1-1.162 2.587c-.739 1.3-1.54 2.591-2.3 3.8a5.493 5.493 0 0 0-.7 4.2c.112.53.216 1.047.321 1.565s.212 1.041.321 1.56a.5.5 0 0 1-.386.587.525.525 0 0 1-.1.011" style="fill:#333"/>
        <path data-name="패스 67818" d="M29.221 10.505h-4.667a.5.5 0 0 1 0-1h4.667a.5.5 0 0 1 0 1" transform="translate(2 2)" style="fill:#333"/>
        <path data-name="패스 67819" d="M33.545 12.8h-7.694a.5.5 0 0 1 0-1h7.694a.5.5 0 0 1 0 1" transform="translate(2 2)" style="fill:#333"/>
        <path data-name="패스 67820" d="M31.184 14.876h-9.333a.5.5 0 0 1 0-1h9.333a.5.5 0 0 1 0 1" transform="translate(2 2)" style="fill:#333"/>
        <path data-name="패스 67822" d="M10.824 7.787a5.348 5.348 0 0 0-.046-1.436 4.36 4.36 0 0 0-5-3.6 3.488 3.488 0 0 0-2.878 4h0a2.787 2.787 0 0 0 3.2 2.3h0A2.233 2.233 0 0 0 7.934 6.5c-.159-.972-.924-1.312-1.9-1.153" transform="translate(10.892 7.524)" style="stroke:#7e4f40;stroke-linecap:round;stroke-linejoin:round;fill:none"/>
        <path data-name="패스 67823" d="M13.935 13.679c3.012-2.645 1.379-8.187 1.379-8.187C14.091 0 7.369.513 7.369.513a7.139 7.139 0 0 0-4.636 2.035 7.047 7.047 0 0 0-2 6.927 5.823 5.823 0 0 0 .512 1.29c1.846 3.279 5.7 4.506 8.616 2.741l.151-.094A5.351 5.351 0 0 0 12.4 8.9" transform="translate(9.35 6.083)" style="stroke:#7e4f40;stroke-linecap:round;stroke-linejoin:round;fill:none"/>
        <circle data-name="타원 2840" cx="6" cy="6" r="6" transform="translate(17.022 2.882)" style="fill:#7e4f40;opacity:.7"/>
    </g>
</svg>
