<svg xmlns="http://www.w3.org/2000/svg" width="44" height="44" viewBox="0 0 44 44">
    <path data-name="사각형 12735" style="fill:none" d="M0 0h44v44H0z"/>
    <g data-name="그룹 38286">
        <path data-name="사각형 12746" transform="translate(0 7)" style="fill:none" d="M0 0h44v30H0z"/>
        <g data-name="그룹 38287">
            <path data-name="패스 60409" d="M5.035 29.323v-5.458a14.112 14.112 0 0 1 12.72-14.247 5.677 5.677 0 1 1 8.173 0 14.111 14.111 0 0 1 12.724 14.247v5.457z" transform="translate(.161 7.338)" style="opacity:.7;fill:#7e4f40"/>
            <path data-name="패스 60410" d="M12.429 19.064h-.047a.5.5 0 0 0-.447.537v8.506a.5.5 0 0 0 .447.447.389.389 0 0 0 .047 0 .5.5 0 0 0 .494-.454v-8.5a.713.713 0 0 0 0-.092.5.5 0 0 0-.494-.45" transform="translate(.081 7.118)" style="fill:#7e4f40"/>
            <path data-name="패스 60411" d="M21.991 8.724a3 3 0 1 1 0-6 .5.5 0 0 0 0-.987h-.1a3.991 3.991 0 0 0 .088 7.981h.061v-.012a.5.5 0 0 0 .4-.441.488.488 0 0 0-.112-.363.494.494 0 0 0-.341-.178" transform="translate(.012 7.318)" style="fill:#7e4f40"/>
            <path data-name="패스 60412" d="M21.751 11.1h-2.706a12.66 12.66 0 0 0-12.6 12.6v4.317a.713.713 0 0 0 0 .092.5.5 0 0 0 .494.45h.047a.494.494 0 0 0 .447-.536v-4.329a11.642 11.642 0 0 1 11.612-11.611h2.711a.5.5 0 0 0 0-.987M6.5 28.008h-.048z" transform="translate(.145 7.21)" style="fill:#7e4f40"/>
            <path data-name="패스 60413" d="M31.681 19.151a.483.483 0 0 0-.363.112.494.494 0 0 0-.178.341v8.506a.5.5 0 0 0 .447.447h.047a.5.5 0 0 0 .494-.449V19.6a.5.5 0 0 0-.448-.448" transform="translate(-.14 7.117)" style="fill:#7e4f40"/>
            <path data-name="패스 60414" d="M22.046 1.738h-.013a.476.476 0 0 0-.092 0 .5.5 0 0 0 .088.988 3 3 0 0 1 0 6 .583.583 0 0 0-.093 0 .5.5 0 0 0-.27.876.49.49 0 0 0 .315.115h.143a3.991 3.991 0 0 0-.084-7.982" transform="translate(-.029 7.318)" style="fill:#7e4f40"/>
            <path data-name="패스 60415" d="M24.846 11.1h-2.705a.6.6 0 0 0-.094 0 .5.5 0 0 0 .043.99h2.754A11.642 11.642 0 0 1 36.453 23.7v4.319a.494.494 0 0 0 .5.493.493.493 0 0 0 .493-.5v-4.32a12.661 12.661 0 0 0-12.6-12.592" transform="translate(-.03 7.21)" style="fill:#7e4f40"/>
            <path data-name="패스 60416" d="M40.727 28.628a.512.512 0 0 1-.067 0 .447.447 0 0 1-.376-.508c.038-.249.131-.931.207-1.871a.447.447 0 0 1 .894.027v.044a28.933 28.933 0 0 1-.214 1.932.447.447 0 0 1-.441.381m.307-3.814h-.011a.446.446 0 0 1-.436-.458 30.606 30.606 0 0 0-.011-1.885.447.447 0 0 1 .421-.468.437.437 0 0 1 .462.412v.017c.015.4.022.791.021 1.163 0 .265 0 .526-.01.778a.446.446 0 0 1-.447.435m-.151-3.822a.447.447 0 0 1-.443-.4 20.582 20.582 0 0 0-.286-1.851.447.447 0 0 1 .876-.177c.125.614.224 1.263.3 1.932a.447.447 0 0 1-.393.494h-.051m-.774-3.742a.446.446 0 0 1-.424-.306 11.763 11.763 0 0 0-.7-1.7.447.447 0 0 1 .756-.476.539.539 0 0 1 .035.067 12.749 12.749 0 0 1 .758 1.831.448.448 0 0 1-.424.586m-1.774-3.359a.447.447 0 0 1-.346-.164 8.3 8.3 0 0 0-1.285-1.272.447.447 0 0 1 .555-.7 9.147 9.147 0 0 1 1.43 1.4.447.447 0 0 1-.346.729M35.375 11.5a.447.447 0 0 1-.216-.056c-.453-.253-.9-.473-1.33-.686l-.355-.176a.447.447 0 1 1 .349-.822.4.4 0 0 1 .046.023l.352.175c.442.218.9.447 1.369.706a.447.447 0 0 1-.218.837m-3.35-1.839a.446.446 0 0 1-.273-.093 3.453 3.453 0 0 1-1.262-1.733.45.45 0 1 1 .86-.264 2.562 2.562 0 0 0 .953 1.286.447.447 0 0 1-.274.8m-1.445-3.385a.445.445 0 0 1-.433-.34 8.278 8.278 0 0 0-.624-1.7.447.447 0 0 1 .776-.443.986.986 0 0 1 .023.046 9.2 9.2 0 0 1 .692 1.884.448.448 0 0 1-.329.541.417.417 0 0 1-.1.013m-1.687-3.4a.448.448 0 0 1-.348-.166 8.313 8.313 0 0 0-1.285-1.278.447.447 0 0 1 .557-.7 9.173 9.173 0 0 1 1.423 1.414.447.447 0 0 1-.348.728" transform="translate(-.094 7.331)" style="opacity:.7;fill:#7e4f40"/>
            <path data-name="패스 60417" d="M43.531 20.241h-.012a.448.448 0 0 1-.435-.458v-.223a7.365 7.365 0 0 0-.169-1.572.446.446 0 1 1 .872-.19 8.181 8.181 0 0 1 .19 1.761v.245a.447.447 0 0 1-.447.436m-.784-3.711a.447.447 0 0 1-.406-.262 11.094 11.094 0 0 0-.9-1.6.447.447 0 0 1 .741-.494 11.973 11.973 0 0 1 .973 1.729.446.446 0 0 1-.22.59.454.454 0 0 1-.187.041m-2.107-3.175a.447.447 0 0 1-.336-.152c-.4-.447-.829-.9-1.3-1.342a.447.447 0 0 1 .612-.65c.494.463.95.936 1.36 1.4a.446.446 0 0 1-.335.74m-2.774-2.626a.443.443 0 0 1-.28-.1c-.471-.38-.978-.761-1.5-1.136a.447.447 0 0 1 .484-.751l.032.023c.543.385 1.065.778 1.549 1.168a.447.447 0 0 1-.28.791" transform="translate(-.195 7.238)" style="opacity:.7;fill:#7e4f40"/>
            <path data-name="패스 60418" d="M33.022 5.7a.446.446 0 0 1-.437-.357 5.409 5.409 0 0 0-.659-1.631.447.447 0 1 1 .757-.473l.013.021a6.271 6.271 0 0 1 .764 1.9.447.447 0 0 1-.348.527.455.455 0 0 1-.09.009M31.18 2.385a.448.448 0 0 1-.336-.153A13.8 13.8 0 0 0 29.607.993a1.537 1.537 0 0 1-.126-.12.448.448 0 1 1 .663-.6l.056.053a14.778 14.778 0 0 1 1.315 1.319.447.447 0 0 1-.336.74" transform="translate(-.12 7.337)" style="opacity:.7;fill:#7e4f40"/>
            <path data-name="패스 60419" d="M3.179 28.627a.445.445 0 0 1-.441-.382 31.392 31.392 0 0 1-.213-1.932.447.447 0 0 1 .409-.48.453.453 0 0 1 .48.409c.071.89.159 1.557.206 1.878a.447.447 0 0 1-.377.506h-.064m-.306-3.814a.446.446 0 0 1-.446-.435 32.582 32.582 0 0 1 .011-1.942.433.433 0 0 1 .436-.435H2.9a.447.447 0 0 1 .43.463q-.022.58-.021 1.13 0 .388.009.757a.446.446 0 0 1-.436.458zm.151-3.822h-.05a.445.445 0 0 1-.4-.49c.075-.672.175-1.323.3-1.93a.452.452 0 0 1 .526-.35.447.447 0 0 1 .355.523 21.278 21.278 0 0 0-.286 1.853.447.447 0 0 1-.443.4M3.8 17.25a.448.448 0 0 1-.446-.45.428.428 0 0 1 .022-.136 12.638 12.638 0 0 1 .758-1.831.447.447 0 1 1 .827.337.4.4 0 0 1-.037.071 11.763 11.763 0 0 0-.7 1.7.447.447 0 0 1-.424.307m1.77-3.361a.447.447 0 0 1-.345-.729 9.147 9.147 0 0 1 1.43-1.4.447.447 0 0 1 .582.678l-.028.022a8.308 8.308 0 0 0-1.294 1.268.447.447 0 0 1-.346.164m2.96-2.39a.447.447 0 0 1-.216-.837c.465-.258.924-.486 1.363-.7l.359-.178a.447.447 0 0 1 .454.77.455.455 0 0 1-.058.029l-.362.18c-.427.212-.874.432-1.326.682a.437.437 0 0 1-.216.056m3.352-1.839a.447.447 0 0 1-.273-.8 2.551 2.551 0 0 0 .958-1.29.447.447 0 0 1 .863.231c0 .011-.006.022-.01.033a3.445 3.445 0 0 1-1.26 1.733.446.446 0 0 1-.273.093m1.446-3.39a.485.485 0 0 1-.107-.013.448.448 0 0 1-.326-.541 9.2 9.2 0 0 1 .692-1.884.447.447 0 0 1 .8.4 8.278 8.278 0 0 0-.624 1.7.447.447 0 0 1-.434.34m1.687-3.4a.447.447 0 0 1-.347-.728A9.216 9.216 0 0 1 16.094.73a.447.447 0 0 1 .593.668.453.453 0 0 1-.036.029 8.364 8.364 0 0 0-1.285 1.279.448.448 0 0 1-.348.166" transform="translate(.191 7.331)" style="opacity:.7;fill:#7e4f40"/>
            <path data-name="패스 60420" d="M.451 20.242A.448.448 0 0 1 0 19.808v-.247A8.18 8.18 0 0 1 .189 17.8a.447.447 0 0 1 .873.19 7.305 7.305 0 0 0-.172 1.571v.221a.446.446 0 0 1-.432.46H.451zm.783-3.711a.446.446 0 0 1-.447-.445.451.451 0 0 1 .04-.186 12.074 12.074 0 0 1 .973-1.729.447.447 0 0 1 .741.494 11.164 11.164 0 0 0-.9 1.6.447.447 0 0 1-.406.262m2.106-3.177a.447.447 0 0 1-.335-.74c.41-.469.868-.941 1.36-1.4a.447.447 0 0 1 .645.618.356.356 0 0 1-.035.033 19.79 19.79 0 0 0-1.3 1.342.448.448 0 0 1-.337.152m2.775-2.626a.44.44 0 0 1-.348-.166.447.447 0 0 1 .064-.624c.483-.388 1-.782 1.549-1.168a.447.447 0 1 1 .548.706l-.027.017c-.531.377-1.037.758-1.5 1.136a.443.443 0 0 1-.28.1" transform="translate(.219 7.238)" style="opacity:.7;fill:#7e4f40"/>
            <path data-name="패스 60421" d="M11.007 5.7a.453.453 0 0 1-.089-.009.447.447 0 0 1-.348-.527 6.294 6.294 0 0 1 .763-1.9.447.447 0 1 1 .771.452 5.384 5.384 0 0 0-.659 1.631.448.448 0 0 1-.438.358m1.841-3.312a.447.447 0 0 1-.335-.74A14.734 14.734 0 0 1 13.825.328l.063-.056a.43.43 0 0 1 .6-.051l.012.01a.46.46 0 0 1 .044.641 1.682 1.682 0 0 1-.129.124 14.06 14.06 0 0 0-1.238 1.238.447.447 0 0 1-.336.152" transform="translate(.097 7.337)" style="opacity:.7;fill:#7e4f40"/>
        </g>
    </g>
</svg>
