<svg xmlns="http://www.w3.org/2000/svg" width="44" height="44" viewBox="0 0 44 44">
    <path data-name="사각형 10579" style="fill:none" d="M0 0h44v44H0z"/>
    <g data-name="그룹 33562">
        <path data-name="패스 53910" d="M198.489 532.586a.5.5 0 0 1-.5-.5v-.6a2.805 2.805 0 0 1 2.8-2.8h12.74a.5.5 0 0 1 0 1h-12.74a1.8 1.8 0 0 0-1.8 1.8v.6a.5.5 0 0 1-.5.5z" transform="translate(-192.585 -501.76)" style="fill:#333"/>
        <path data-name="패스 53911" d="M230.884 532.6a.5.5 0 0 1-.5-.5v-.614a1.8 1.8 0 0 0-1.8-1.8H225.3a.5.5 0 0 1 0-1h3.285a2.805 2.805 0 0 1 2.8 2.8v.614a.5.5 0 0 1-.501.5z" transform="translate(-192.263 -501.76)" style="fill:#333"/>
        <path data-name="선 1088" d="M3.6.5H0A.5.5 0 0 1-.5 0 .5.5 0 0 1 0-.5h3.6a.5.5 0 0 1 .5.5.5.5 0 0 1-.5.5z" transform="translate(27.804 27.42)" style="fill:#333"/>
        <path data-name="선 1089" d="M3.6.5H0A.5.5 0 0 1-.5 0 .5.5 0 0 1 0-.5h3.6a.5.5 0 0 1 .5.5.5.5 0 0 1-.5.5z" transform="translate(22.575 27.42)" style="fill:#333"/>
        <g data-name="그룹 33561">
            <path data-name="패스 53912" d="M201.976 541.052a2.134 2.134 0 0 1-2.132-2.131v-2.578a.5.5 0 0 1 .5-.5h3.264a.5.5 0 0 1 .5.5v2.578a2.134 2.134 0 0 1-2.132 2.131zm-1.132-4.209v2.078a1.132 1.132 0 0 0 2.264 0v-2.078z" transform="translate(-192.563 -501.674)" style="fill:#333"/>
            <path data-name="패스 53913" d="M227.361 541.052a2.134 2.134 0 0 1-2.131-2.131v-2.578a.5.5 0 0 1 .5-.5h3.263a.5.5 0 0 1 .5.5v2.578a2.134 2.134 0 0 1-2.132 2.131zm-1.131-4.209v2.078a1.131 1.131 0 1 0 2.263 0v-2.078z" transform="translate(-192.258 -501.674)" style="fill:#333"/>
        </g>
        <path data-name="패스 53914" d="M210.51 522.57h17.862a1.314 1.314 0 0 1 0 2.628h-2.388v6.009a1.314 1.314 0 1 1-2.628 0V525.2h-2.6v6.009a1.314 1.314 0 1 1-2.628 0V525.2h-2.6v6.009a1.314 1.314 0 1 1-2.628 0V525.2h-2.39a1.314 1.314 0 1 1 0-2.628zm17.862 1.628a.314.314 0 0 0 0-.628H210.51a.314.314 0 1 0 0 .628h2.89a.5.5 0 0 1 .5.5v6.509a.315.315 0 0 0 .315.315.318.318 0 0 0 .314-.315V524.7a.5.5 0 0 1 .5-.5h3.6a.5.5 0 0 1 .5.5v6.509a.315.315 0 0 0 .315.315.318.318 0 0 0 .314-.315V524.7a.5.5 0 0 1 .5-.5h3.6a.5.5 0 0 1 .5.5v6.509a.315.315 0 0 0 .315.315.318.318 0 0 0 .314-.315V524.7a.5.5 0 0 1 .5-.5z" transform="translate(-192.451 -501.834)" style="fill:#333"/>
        <path data-name="패스 53916" d="M232.773 537h-35.78a2.391 2.391 0 0 1-2.335-2.163v-14.368a2.128 2.128 0 0 1 4.257 0v11.375h31.834v-11.375a2.128 2.128 0 0 1 4.257 0v7.716a.5.5 0 0 1-1 0v-7.716a1.128 1.128 0 0 0-2.257 0v11.875a.5.5 0 0 1-.5.5h-32.834a.5.5 0 0 1-.5-.5v-11.875a1.128 1.128 0 0 0-2.257 0v14.365a1.127 1.127 0 0 0 .986 1.111.507.507 0 0 1 .059.011 1.185 1.185 0 0 0 .29.041h35.78a1.235 1.235 0 0 0 .5-.11l.016-.007a1.14 1.14 0 0 0 .693-.853v-.016a1.247 1.247 0 0 0 .028-.257v-.654c0-.019-.007-.048-.009-.083V530.465a.5.5 0 0 1 1 0v3.495a.859.859 0 0 1 .01.125v.668a2.229 2.229 0 0 1-.047.454 2.147 2.147 0 0 1-1.295 1.6 2.226 2.226 0 0 1-.896.193z" transform="translate(-192.625 -501.884)" style="fill:#333"/>
        <g data-name="그룹 33563">
            <path data-name="타원 1317" d="M6.669-.5A7.169 7.169 0 1 1-.5 6.669 7.177 7.177 0 0 1 6.669-.5zm0 13.338A6.169 6.169 0 1 0 .5 6.669a6.176 6.176 0 0 0 6.169 6.169z" style="fill:#333" transform="translate(8.668 5.677)"/>
            <path data-name="패스 53917" d="M210.677 516.773H208.8V514.9a.488.488 0 0 0-.489-.488H206.9a.488.488 0 0 0-.488.488v1.877h-1.872a.488.488 0 0 0-.488.488v1.407a.488.488 0 0 0 .488.488h1.876v1.876a.488.488 0 0 0 .488.489h1.407a.489.489 0 0 0 .489-.489v-1.876h1.876a.488.488 0 0 0 .488-.488v-1.407a.488.488 0 0 0-.487-.492z" transform="translate(-191.399 -505.058)" style="fill:#7e4f40;opacity:.7"/>
            <path data-name="패스 53918" d="M207.861 521.541h-1.407a.989.989 0 0 1-.988-.988v-1.376h-1.376a.989.989 0 0 1-.988-.988v-1.407a.989.989 0 0 1 .988-.988h1.376v-1.376a.989.989 0 0 1 .988-.988h1.407a.99.99 0 0 1 .989.988v1.376h.354a.5.5 0 0 1 0 1h-.854a.5.5 0 0 1-.5-.5v-1.864h-1.384v1.864a.5.5 0 0 1-.5.5H204.1v1.383h1.864a.5.5 0 0 1 .5.5v1.864h1.384v-1.864a.5.5 0 0 1 .5-.5h1.864v-1.395a.5.5 0 0 1 1 0v1.407a.989.989 0 0 1-.988.988h-1.374v1.376a.99.99 0 0 1-.989.988z" transform="translate(-191.835 -505.254)" style="fill:#333"/>
        </g>
    </g>
</svg>
