<svg xmlns="http://www.w3.org/2000/svg" width="44" height="44" viewBox="0 0 44 44">
    <path data-name="사각형 14105" style="fill:none" d="M0 0h44v44H0z"/>
    <g data-name="그룹 59431">
        <path data-name="패스 67674" d="m14.547 18.149-1.783.6a.876.876 0 0 0 .832.6h4.042a.876.876 0 0 0 .873-.863h.476v1.287a.493.493 0 0 1-.16.358L17.4 21.485a1.5 1.5 0 0 0-.472 1.085v14.023h-.2a.439.439 0 0 0-.212.06l-1.811-.908a.5.5 0 0 0-.723.448v1.085a.489.489 0 0 0 .2.392.5.5 0 0 0-.3.449v.952a1.024 1.024 0 0 0-.8.987v1a.5.5 0 0 0 .5.5h1.617a.5.5 0 0 0 .5-.5v-1a1.022 1.022 0 0 0-.822-.992v-.54l1.438-.3a.452.452 0 0 0 .4.249h1.429a.451.451 0 0 0 .4-.242l1.405.294v.543a1.022 1.022 0 0 0-.808.989v1a.5.5 0 0 0 .5.5h1.617a.5.5 0 0 0 .5-.5v-1a1.022 1.022 0 0 0-.809-.989v-.95a.493.493 0 0 0-.3-.448.494.494 0 0 0 .2-.393v-1.086a.5.5 0 0 0-.724-.448l-1.79.9a.448.448 0 0 0-.2-.049h-.233V22.57a.5.5 0 0 1 .159-.359l1.424-1.348a1.5 1.5 0 0 0 .473-1.085v-1.787a.5.5 0 0 0-.5-.5h-.974v-.022a.876.876 0 0 0-.875-.875h-2.825zM19.93 37.5l-.735-.154.68-.341v.276a.493.493 0 0 0 .055.219m-4.941-.5.679.341-.735.154a.494.494 0 0 0 .056-.219zm-.27 3.551h-.6l.018-.53.582.035zm6.055 0h-.6l.019-.53.581.035z" style="fill:#7e4f40" transform="translate(11.113 1.224)"/>
        <path data-name="패스 67675" d="M13.144 0a2.725 2.725 0 1 1-2.726 2.725A2.725 2.725 0 0 1 13.144 0m0 4.449a1.725 1.725 0 1 0-1.726-1.725 1.727 1.727 0 0 0 1.726 1.724" style="fill:#333" transform="translate(11.113 1.224)"/>
        <path data-name="패스 67676" d="M14.058 16.128a.5.5 0 0 1-.5-.5.466.466 0 0 1 .012-.111 58.166 58.166 0 0 0 1.13-6.966.5.5 0 1 1 1 .087 59.567 59.567 0 0 1-1.156 7.1.5.5 0 0 1-.491.39" style="fill:#333" transform="translate(11.113 1.224)"/>
        <path data-name="패스 67677" d="M4.97 6.2a.5.5 0 0 1-.676-.644 5.028 5.028 0 0 1 2.534-2.42.5.5 0 0 1 .406.914 4.029 4.029 0 0 0-2.017 1.887.5.5 0 0 1-.247.263" style="fill:#333" transform="translate(11.113 1.224)"/>
        <path data-name="패스 67678" d="M2.456 28.155a.5.5 0 0 1-.5-.454l-.546-5.879v-.065l.079-2.149a7.285 7.285 0 0 1 1.177-4.259.5.5 0 1 1 .79.614l-.012.014a6.548 6.548 0 0 0-.956 3.654v.01l-.078 2.121.546 5.838a.5.5 0 0 1-.452.544z" style="fill:#333" transform="translate(11.113 1.224)"/>
        <path data-name="패스 67679" d="M3.249 40.837a.5.5 0 1 1-.048-1 2.1 2.1 0 0 0 1.839-1.6l2.052-8.577a.52.52 0 0 1 .025-.076 2.1 2.1 0 0 0 .152-1l-.577-6.2a.5.5 0 1 1 1-.093l.577 6.2a3.1 3.1 0 0 1-.209 1.439l-2.043 8.54A3.1 3.1 0 0 1 3.3 40.835z" style="fill:#333" transform="translate(11.113 1.224)"/>
        <path data-name="패스 67680" d="M3.042 40.844a3.07 3.07 0 0 1-.7-.08 3.036 3.036 0 0 1-2.253-3.7L2 29.61a.5.5 0 1 1 .969.25l-1.906 7.446A2.038 2.038 0 0 0 5 38.374l.743-2.558a.5.5 0 1 1 .957.284l-.743 2.559a3.039 3.039 0 0 1-2.915 2.19" style="fill:#333" transform="translate(11.113 1.224)"/>
        <path data-name="패스 67681" d="M9.555 40.967c-.09 0-.181 0-.271-.013a3.07 3.07 0 0 1-2.762-3.278l.167-2.157a.484.484 0 0 1 .537-.459.5.5 0 0 1 .459.537l-.167 2.156a2.067 2.067 0 0 0 1.859 2.205 2.188 2.188 0 0 0 2.272-1.835l.962-9.753-.526-7.824a.5.5 0 0 1 1-.066l.525 7.906-.967 9.859a3.183 3.183 0 0 1-3.086 2.722" style="fill:#333" transform="translate(11.113 1.224)"/>
        <path data-name="패스 67682" d="M14.43 15.137a.5.5 0 0 1-.378-.827c4.512-5.218 2.842-8.092 2.824-8.12a.5.5 0 0 1 .159-.687.5.5 0 0 1 .686.151c.089.138 2.134 3.473-2.913 9.31a.5.5 0 0 1-.378.173" style="fill:#333" transform="translate(11.113 1.224)"/>
        <path data-name="패스 67683" d="M14.464 18.872a2.451 2.451 0 0 1-2.69.366L5.747 16.36a2.611 2.611 0 0 1-.711-.51v-.007l-.029-.033-.019-.01-.082-.092-.014-.015a2.523 2.523 0 0 1-.6-1.146L3.127 9.294a.527.527 0 0 1 .406-.641.559.559 0 0 1 .651.425v.007l1.168 5.249a1.439 1.439 0 0 0 .342.647l.012.012.023.026.026.029.031.034a1.469 1.469 0 0 0 .406.294l6.028 2.879a1.364 1.364 0 0 0 1.841-.655 1.432 1.432 0 0 0-.7-1.865l-5.186-2.469a.565.565 0 0 1-.308-.385L6.624 7.3a.527.527 0 0 1 .406-.64.559.559 0 0 1 .651.425v.007L8.865 12.4l4.935 2.357a2.544 2.544 0 0 1 1.251 3.316 2.4 2.4 0 0 1-.584.8z" style="fill:#333" transform="translate(11.113 1.224)"/>
        <path data-name="패스 67684" d="M14.04 14.589a3.118 3.118 0 1 1-3.118 3.118 3.118 3.118 0 0 1 3.118-3.118" style="opacity:.7;fill:#7e4f40" transform="translate(11.113 1.224)"/>
    </g>
</svg>
