<svg xmlns="http://www.w3.org/2000/svg" width="44" height="44" viewBox="0 0 44 44">
    <path data-name="사각형 4917" style="fill:none" d="M0 0h44v44H0z"/>
    <g data-name="그룹 32896" transform="translate(5.033 7.146)">
        <path data-name="패스 48671" d="M46.189 746.81a2.912 2.912 0 0 1-.293-.015 2.844 2.844 0 0 1-1.515-5.033l3.989-3.256a.5.5 0 1 1 .632.775l-3.988 3.256A1.844 1.844 0 0 0 46 745.8a1.83 1.83 0 0 0 1.352-.4l12.874-10.512a.679.679 0 0 1 .863 0L73.957 745.4a1.846 1.846 0 1 0 2.334-2.86L61.73 730.645a1.646 1.646 0 0 0-1.05-.363h-.054a1.648 1.648 0 0 0-1.051.363l-9.075 7.414a.5.5 0 1 1-.633-.775l9.078-7.414a2.619 2.619 0 0 1 1.71-.588h.028a2.628 2.628 0 0 1 1.68.588l14.562 11.892a2.846 2.846 0 0 1-3.6 4.409l-12.673-10.347-12.671 10.347a2.817 2.817 0 0 1-1.792.639z" transform="translate(-43.838 -729.782)" style="fill:#333"/>
        <path data-name="패스 48673" d="M68.527 738.115a.5.5 0 0 1-.5-.5v-5.27a1.908 1.908 0 1 0-3.817 0v1.35a.5.5 0 1 1-1 0v-1.35a2.908 2.908 0 1 1 5.817 0v5.27a.5.5 0 0 1-.5.5z" transform="translate(-41.167 -729.761)" style="fill:#333"/>
        <path data-name="패스 48675" d="M70.028 758.873h-20.11a2.156 2.156 0 0 1-1.651-.658 2.963 2.963 0 0 1-.656-2.024v-13.036h1v13.086a1.983 1.983 0 0 0 .392 1.3 1.186 1.186 0 0 0 .916.336h20.109a1.185 1.185 0 0 0 .915-.336 1.985 1.985 0 0 0 .393-1.3v-13.086h1v13.036a2.965 2.965 0 0 1-.657 2.024 2.155 2.155 0 0 1-1.651.658z" transform="translate(-43.264 -727.985)" style="fill:#333"/>
        <g data-name="그룹 32898" transform="translate(12.882 18.396)">
            <rect data-name="사각형 4925" width="7.173" height="7.825" rx="1" transform="translate(1.51 2.055)" style="fill:#a48379"/>
            <path data-name="패스 48661" d="M56.271 472.562h-5.084a1.937 1.937 0 0 1-2.018-1.841.5.5 0 0 1 1 0 .943.943 0 0 0 1.018.841h5.085a.943.943 0 0 0 1.018-.841v-4.691a.5.5 0 0 1 1 0v4.691a1.937 1.937 0 0 1-2.019 1.841z" transform="translate(-49.669 -462.592)" style="fill:#333"/>
            <path data-name="패스 48662" d="M49.669 469.079a.5.5 0 0 1-.5-.5v-4.309a1.882 1.882 0 0 1 2.018-1.7h5.085a1.882 1.882 0 0 1 2.018 1.7.5.5 0 0 1-1 0c0-.38-.466-.7-1.018-.7h-5.085c-.552 0-1.018.321-1.018.7v4.309a.5.5 0 0 1-.5.5z" transform="translate(-49.669 -463.069)" style="fill:#333"/>
            <path data-name="선 797" d="M0 9.97a.5.5 0 0 1-.5-.5V0A.5.5 0 0 1 0-.5a.5.5 0 0 1 .5.5v9.47a.5.5 0 0 1-.5.5z" transform="translate(4.06)" style="fill:#333"/>
        </g>
        <rect data-name="사각형 4921" width="7.821" height="3.215" rx=".688" transform="translate(12.695 12.043)" style="fill:#fff"/>
        <path data-name="사각형 4921 - 윤곽선" d="M.688-.5h6.444A1.19 1.19 0 0 1 8.321.688v1.838a1.19 1.19 0 0 1-1.189 1.189H.688A1.19 1.19 0 0 1-.5 2.526V.688A1.19 1.19 0 0 1 .688-.5zm6.444 3.215a.189.189 0 0 0 .188-.188V.688A.189.189 0 0 0 7.132.5H.688A.189.189 0 0 0 .5.688v1.838a.189.189 0 0 0 .188.188z" transform="translate(12.695 12.043)" style="fill:#333"/>
        <path data-name="선 798" d="M28.4.5H0A.5.5 0 0 1-.5 0 .5.5 0 0 1 0-.5h28.4a.5.5 0 0 1 .5.5.5.5 0 0 1-.5.5z" transform="translate(2.749 30.388)" style="fill:#333"/>
    </g>
</svg>
