<svg xmlns="http://www.w3.org/2000/svg" width="44" height="44" viewBox="0 0 44 44">
    <path data-name="사각형 10579" style="fill:none" d="M0 0h44v44H0z"/>
    <g data-name="그룹 33440">
        <path data-name="선 891" d="M2.874.5H0A.5.5 0 0 1-.5 0 .5.5 0 0 1 0-.5h2.874a.5.5 0 0 1 .5.5.5.5 0 0 1-.5.5z" transform="translate(30.594 28.336)" style="fill:#333"/>
        <path data-name="선 892" d="M2.679.5H0A.5.5 0 0 1-.5 0 .5.5 0 0 1 0-.5h2.679a.5.5 0 0 1 .5.5.5.5 0 0 1-.5.5z" transform="translate(9.712 28.336)" style="fill:#333"/>
        <path data-name="선 893" d="M2.874.5H0A.5.5 0 0 1-.5 0 .5.5 0 0 1 0-.5h2.874a.5.5 0 0 1 .5.5.5.5 0 0 1-.5.5z" transform="translate(30.594 30.312)" style="fill:#333"/>
        <path data-name="선 894" d="M3.242.5H0A.5.5 0 0 1-.5 0 .5.5 0 0 1 0-.5h3.242a.5.5 0 0 1 .5.5.5.5 0 0 1-.5.5z" transform="translate(9.712 30.312)" style="fill:#333"/>
        <path data-name="패스 53514" d="M458.583 458.488h-1.615a1.662 1.662 0 0 1-1.66-1.66.5.5 0 0 1 1 0 .661.661 0 0 0 .66.66h1.615a.5.5 0 0 1 0 1z" transform="translate(-434.645 -437.641)" style="fill:#333"/>
        <path data-name="패스 53515" d="M460.7 457.5a.5.5 0 0 1-.5-.5v-6.918a.661.661 0 0 0-.659-.66h-2.57a.661.661 0 0 0-.66.66v4.19a.5.5 0 1 1-1 0v-4.19a1.662 1.662 0 0 1 1.66-1.66h2.57a1.662 1.662 0 0 1 1.659 1.66V457a.5.5 0 0 1-.5.5z" transform="translate(-434.645 -438.58)" style="fill:#333"/>
        <path data-name="선 895" d="M2.208 2.373a.5.5 0 0 1-.323-.119L-.323.381a.5.5 0 0 1-.058-.7.5.5 0 0 1 .7-.058l2.213 1.869a.5.5 0 0 1-.324.881z" transform="translate(7.503 5.127)" style="fill:#333"/>
        <path data-name="선 896" d="M0 2.373A.5.5 0 0 1-.381 2.2a.5.5 0 0 1 .058-.7L1.885-.381a.5.5 0 0 1 .7.058.5.5 0 0 1-.058.7L.323 2.254A.5.5 0 0 1 0 2.373z" transform="translate(33.468 5.127)" style="fill:#333"/>
        <path data-name="선 897" d="M0 10.266a.5.5 0 0 1-.5-.5V0A.5.5 0 0 1 0-.5a.5.5 0 0 1 .5.5v9.766a.5.5 0 0 1-.5.5z" transform="translate(18.241 7)" style="fill:#333"/>
        <path data-name="패스 53516" d="m443.6 475.958 2.209-1.873h23.756l2.209 1.873z" transform="translate(-436.097 -435.588)" style="fill:#7e4f40;opacity:.7"/>
        <g data-name="그룹 33439">
            <path data-name="패스 53517" d="m458.13 473.672-1.861-1.495a10.227 10.227 0 0 1 1.6-2.088 15.339 15.339 0 0 1 2.891-2.449c.425-.33 1.672-1.073 2.026-1.828a1.99 1.99 0 0 0-.173-1.968 2.166 2.166 0 0 0-2.068-.652c-.973.228-1.563 1.064-2.119 2.626a7.535 7.535 0 0 1-1.377 2.619 4.73 4.73 0 0 1-2.139 1.362 4.417 4.417 0 0 1-2.186.088 4.234 4.234 0 0 1-1.932-.977 4.849 4.849 0 0 1-1.558-3.449 4.333 4.333 0 0 1 1.428-3.272 4.416 4.416 0 0 1 2.2-1.183 4.084 4.084 0 0 1 1.98.116 5.117 5.117 0 0 1 1.846 1.025l-1.493 1.625.007.006a2.987 2.987 0 0 0-1.059-.561 1.936 1.936 0 0 0-1.97.575 2.161 2.161 0 0 0-.737 1.638 2.653 2.653 0 0 0 .822 1.833 2.131 2.131 0 0 0 2.017.421c.553-.166 1.412-.744 2.016-2.439a7.709 7.709 0 0 1 1.483-2.854 4.477 4.477 0 0 1 2.266-1.348 4.366 4.366 0 0 1 4.226 1.343 3.843 3.843 0 0 1 1 2.844 4.148 4.148 0 0 1-1.5 2.8c-.839.768-1.961 1.412-3.179 2.607a12.566 12.566 0 0 0-2.463 3.035" transform="translate(-435.427 -437.152)" style="fill:#7e4f40;opacity:.7"/>
            <path data-name="패스 53518" d="M456.9 473.186a.5.5 0 0 1-.436-.744 13.013 13.013 0 0 1 2.549-3.148 19.288 19.288 0 0 1 2.061-1.718c.413-.31.8-.6 1.13-.9a3.645 3.645 0 0 0 1.337-2.465 3.353 3.353 0 0 0-.876-2.481 3.859 3.859 0 0 0-3.737-1.186 3.985 3.985 0 0 0-2.013 1.2 5.069 5.069 0 0 0-.936 1.527.5.5 0 1 1-.919-.393 6 6 0 0 1 1.12-1.812 4.98 4.98 0 0 1 2.52-1.495 4.87 4.87 0 0 1 4.715 1.5 4.332 4.332 0 0 1 1.123 3.209 4.652 4.652 0 0 1-1.66 3.136c-.363.332-.772.639-1.2.964a18.461 18.461 0 0 0-1.961 1.631 12.154 12.154 0 0 0-2.376 2.922.5.5 0 0 1-.441.253z" transform="translate(-434.679 -437.27)" style="fill:#333"/>
            <path data-name="패스 53519" d="M453.214 469.5a4.868 4.868 0 0 1-1.023-.108 4.735 4.735 0 0 1-2.16-1.094 5.362 5.362 0 0 1-1.725-3.813 4.821 4.821 0 0 1 1.584-3.642 4.9 4.9 0 0 1 2.452-1.31 4.579 4.579 0 0 1 2.22.129 5.6 5.6 0 0 1 2.038 1.138.5.5 0 0 1 .028.7l-1.429 1.556a.5.5 0 0 1-.724.137l-.021-.017-.007-.006a2.487 2.487 0 0 0-.859-.452 1.445 1.445 0 0 0-1.494.457 1.656 1.656 0 0 0-.581 1.267 2.155 2.155 0 0 0 .656 1.468 1.628 1.628 0 0 0 1.542.314 1.959 1.959 0 0 0 .928-.692.5.5 0 0 1 .777.63 2.942 2.942 0 0 1-1.418 1.02 2.635 2.635 0 0 1-2.494-.526 3.142 3.142 0 0 1-.989-2.2 2.674 2.674 0 0 1 .894-2.008 2.424 2.424 0 0 1 2.446-.694 3.359 3.359 0 0 1 .848.375l.829-.9a4.658 4.658 0 0 0-1.256-.607 3.591 3.591 0 0 0-1.741-.1 3.923 3.923 0 0 0-1.955 1.055 3.846 3.846 0 0 0-1.271 2.9 4.331 4.331 0 0 0 1.391 3.082 3.734 3.734 0 0 0 1.7.862 3.915 3.915 0 0 0 1.939-.079 4.1 4.1 0 0 0 1.364-.711.5.5 0 0 1 .617.787 5.09 5.09 0 0 1-1.7.883 4.935 4.935 0 0 1-1.406.199z" transform="translate(-435.478 -437.269)" style="fill:#333"/>
            <path data-name="패스 53520" d="M456.953 472.952a.5.5 0 0 1-.313-.11l-1.861-1.495a.5.5 0 0 1-.108-.659c.074-.115.135-.214.191-.3a10.392 10.392 0 0 1 1.461-1.851 12.354 12.354 0 0 1 2.341-2.059c.21-.148.408-.289.615-.449.1-.074.22-.162.365-.263a5.071 5.071 0 0 0 1.515-1.383 1.516 1.516 0 0 0-.1-1.425 1.675 1.675 0 0 0-1.579-.5c-.557.131-.963.527-1.356 1.323a.5.5 0 0 1-.9-.443 3.061 3.061 0 0 1 2.025-1.854 2.677 2.677 0 0 1 2.557.809 2.466 2.466 0 0 1 .251 2.511 5.561 5.561 0 0 1-1.847 1.777 8.516 8.516 0 0 0-.325.233c-.224.174-.441.327-.65.475a11.493 11.493 0 0 0-2.177 1.914 9.789 9.789 0 0 0-1.312 1.642l1.514 1.217a.5.5 0 0 1-.313.89z" transform="translate(-434.73 -437.035)" style="fill:#333"/>
            <path data-name="패스 53521" d="M456.1 462.864a1.751 1.751 0 0 1 1.717 1.779 1.8 1.8 0 0 1-.657 1.4v.515a1.06 1.06 0 0 1-2.12 0v-.514a1.8 1.8 0 0 1-.657-1.4 1.75 1.75 0 0 1 1.717-1.78zm0 3.751a.062.062 0 0 0 .061-.059v-.779a.5.5 0 0 1 .26-.439.784.784 0 0 0 .4-.695.719.719 0 1 0-1.434 0 .782.782 0 0 0 .4.694.5.5 0 0 1 .261.439v.779a.061.061 0 0 0 .052.06z" transform="translate(-434.754 -436.863)" style="fill:#333"/>
            <path data-name="패스 53522" d="M461.267 460.486a.5.5 0 0 1-.5-.5v-.54a4.283 4.283 0 1 0-8.567 0v.54a.5.5 0 0 1-1 0v-.54a5.283 5.283 0 1 1 10.567 0v.54a.5.5 0 0 1-.5.5z" transform="translate(-435.133 -437.898)" style="fill:#333"/>
            <path data-name="패스 53523" d="M459.942 460.2a.5.5 0 0 1-.5-.5v-.322a3.054 3.054 0 0 0-3.05-3.05h-.072a3.053 3.053 0 0 0-3.049 3.05v.322a.5.5 0 0 1-1 0v-.322a4.054 4.054 0 0 1 4.049-4.05h.072a4.055 4.055 0 0 1 4.05 4.05v.322a.5.5 0 0 1-.5.5z" transform="translate(-435.006 -437.759)" style="fill:#333"/>
        </g>
        <path data-name="패스 53524" d="M443.6 476.258a.5.5 0 0 1-.324-.881l2.209-1.873a.5.5 0 0 1 .647.763l-2.209 1.873a.5.5 0 0 1-.323.118z" transform="translate(-436.097 -435.612)" style="fill:#333"/>
        <path data-name="패스 53525" d="M466.805 473.385a.5.5 0 0 1 .323.119l2.209 1.873a.5.5 0 0 1-.647.763l-2.209-1.873a.5.5 0 0 1 .324-.881z" transform="translate(-433.337 -435.612)" style="fill:#333"/>
        <path data-name="패스 53526" d="M469.167 479.781a.5.5 0 0 1-.5-.5v-34.519h-3.146a.5.5 0 0 1 0-1h3.646a.5.5 0 0 1 .5.5v35.019a.5.5 0 0 1-.5.5z" transform="translate(-433.49 -439.135)" style="fill:#333"/>
        <path data-name="패스 53527" d="M443.6 479.781a.5.5 0 0 1-.5-.5v-35.019a.5.5 0 0 1 .5-.5h22.349a.5.5 0 0 1 0 1H444.1v34.519a.5.5 0 0 1-.5.5z" transform="translate(-436.097 -439.135)" style="fill:#333"/>
        <path data-name="사각형 10587" d="M0-.5h23.756a.5.5 0 0 1 .5.5v31.273a.5.5 0 0 1-.5.5H0a.5.5 0 0 1-.5-.5V0A.5.5 0 0 1 0-.5zm23.256 1H.5v30.273h22.756z" transform="translate(9.712 7)" style="fill:#333"/>
        <path data-name="선 898" d="M0 4.956a.5.5 0 0 1-.5-.5V0A.5.5 0 0 1 0-.5a.5.5 0 0 1 .5.5v4.456a.5.5 0 0 1-.5.5z" transform="translate(18.241 33.817)" style="fill:#333"/>
    </g>
</svg>
