<svg xmlns="http://www.w3.org/2000/svg" xmlns:xlink="http://www.w3.org/1999/xlink" width="44" height="44" viewBox="0 0 44 44">
  <defs>
    <clipPath id="clip-path">
      <rect id="사각형_14191" data-name="사각형 14191" width="44" height="44" transform="translate(-21694 -14470)" fill="#fff"/>
    </clipPath>
  </defs>
  <g id="ic_hospital_44" transform="translate(21694 14470)" clip-path="url(#clip-path)">
    <g id="그룹_59462" data-name="그룹 59462" transform="translate(-21727 -14906.015)">
      <path id="패스_67797" data-name="패스 67797" d="M44.909,474.121a.5.5,0,0,1-.494-.429,3.353,3.353,0,0,1-.034-.476v-17.6a.5.5,0,0,1,1,0v17.6a2.35,2.35,0,0,0,.024.334.5.5,0,0,1-.5.571Z" transform="translate(1.639)" fill="#333"/>
      <path id="패스_67798" data-name="패스 67798" d="M63.945,474.21a.5.5,0,0,1-.493-.589,2.278,2.278,0,0,0,.035-.4v-17.6a.5.5,0,0,1,1,0v17.6a3.28,3.28,0,0,1-.051.583A.5.5,0,0,1,63.945,474.21Z" fill="#333"/>
      <path id="패스_67799" data-name="패스 67799" d="M35.415,474.218a.5.5,0,0,1-.489-.4,3.807,3.807,0,0,1-.076-.761v-11.14a3.365,3.365,0,0,1,3.213-3.491h5.923a.5.5,0,0,1,0,1H38.062a2.367,2.367,0,0,0-2.213,2.491v11.14a2.806,2.806,0,0,0,.056.561.5.5,0,0,1-.49.6Z" transform="translate(2.288)" fill="#333"/>
      <g id="그룹_59461" data-name="그룹 59461" transform="translate(0.258)">
        <path id="패스_67800" data-name="패스 67800" d="M56.312,473.4H51.2a2.029,2.029,0,0,1-2.027-2.027.5.5,0,0,1,1,0A1.028,1.028,0,0,0,51.2,472.4h5.116a1.028,1.028,0,0,0,1.027-1.027V467.2a.5.5,0,0,1,1,0v4.176A2.029,2.029,0,0,1,56.312,473.4Z" transform="translate(1.424 -1.985)" fill="#333"/>
        <path id="패스_67801" data-name="패스 67801" d="M49.669,469.873a.5.5,0,0,1-.5-.5V464.6a2.029,2.029,0,0,1,2.027-2.027h5.116a2.029,2.029,0,0,1,2.027,2.027.5.5,0,0,1-1,0,1.028,1.028,0,0,0-1.027-1.027H51.2a1.028,1.028,0,0,0-1.027,1.027v4.777A.5.5,0,0,1,49.669,469.873Z" transform="translate(1.424 -1.604)" fill="#333"/>
        <path id="선_3693" data-name="선 3693" d="M0,9.62a.5.5,0,0,1-.5-.5V0A.5.5,0,0,1,0-.5.5.5,0,0,1,.5,0V9.12A.5.5,0,0,1,0,9.62Z" transform="translate(55.178 461.794)" fill="#333"/>
      </g>
      <path id="패스_67802" data-name="패스 67802" d="M58.132,459.307H49.345a2.856,2.856,0,0,1-2.853-2.853v-8.787a2.856,2.856,0,0,1,2.853-2.853h6.163a.5.5,0,0,1,0,1H49.345a1.855,1.855,0,0,0-1.853,1.853v8.787a1.855,1.855,0,0,0,1.853,1.853h8.787a1.855,1.855,0,0,0,1.853-1.853v-8.787a1.855,1.855,0,0,0-1.853-1.853h-.785a.5.5,0,0,1,0-1h.785a2.856,2.856,0,0,1,2.853,2.853v8.787A2.856,2.856,0,0,1,58.132,459.307Z" transform="translate(1.262 -3.497)" fill="#333"/>
      <path id="패스_67803" data-name="패스 67803" d="M58.741,451.833H56.462v-2.278a.592.592,0,0,0-.593-.593H54.162a.592.592,0,0,0-.593.593v2.278H51.291a.593.593,0,0,0-.593.593v1.709a.593.593,0,0,0,.593.593h2.279v2.278a.592.592,0,0,0,.593.593H55.87a.592.592,0,0,0,.593-.593v-2.278h2.279a.593.593,0,0,0,.593-.593v-1.709A.593.593,0,0,0,58.741,451.833Z" transform="translate(1.015 -3.741)" fill="#7e4f40" opacity="0.7"/>
      <path id="패스_67804" data-name="패스 67804" d="M54.71,456.613H53.189a1.028,1.028,0,0,1-1.027-1.027v-1.529H50.633a1.029,1.029,0,0,1-1.028-1.027v-1.521a1.029,1.029,0,0,1,1.028-1.028h1.529v-1.528a1.029,1.029,0,0,1,1.027-1.028H54.71a1.029,1.029,0,0,1,1.027,1.028v1.528h.424a.5.5,0,0,1,.395.193.5.5,0,0,1,.395-.193h.315a1.029,1.029,0,0,1,1.027,1.028v1.521a1.028,1.028,0,0,1-1.027,1.027H55.738v1.529A1.028,1.028,0,0,1,54.71,456.613Zm-4.077-5.133a.028.028,0,0,0-.028.028v1.521a.027.027,0,0,0,.028.027h2.029a.5.5,0,0,1,.5.5v2.029a.027.027,0,0,0,.027.027H54.71a.027.027,0,0,0,.027-.027v-2.029a.5.5,0,0,1,.5-.5h2.029a.027.027,0,0,0,.027-.027v-1.521a.028.028,0,0,0-.027-.028h-.315a.5.5,0,0,1-.395-.193.5.5,0,0,1-.395.193h-.924a.5.5,0,0,1-.5-.5v-2.028a.027.027,0,0,0-.027-.028H53.189a.027.027,0,0,0-.027.028v2.028a.5.5,0,0,1-.5.5Z" transform="translate(1.054 -3.705)" fill="#333"/>
      <path id="패스_67805" data-name="패스 67805" d="M41.076,465.836H38.963a1.155,1.155,0,0,1-1.154-1.154V462.57a1.155,1.155,0,0,1,1.154-1.155h.516a.5.5,0,1,1,0,1h-.516a.154.154,0,0,0-.154.155v2.113a.154.154,0,0,0,.154.154h2.113a.154.154,0,0,0,.155-.154V462.57a.155.155,0,0,0-.155-.155h-.157a.5.5,0,0,1,0-1h.157a1.156,1.156,0,0,1,1.155,1.155v2.113A1.155,1.155,0,0,1,41.076,465.836Z" transform="translate(1.846 0.286)" fill="#333"/>
      <path id="사각형_14189" data-name="사각형 14189" d="M.688-.5H2.733A1.19,1.19,0,0,1,3.921.688V2.733A1.19,1.19,0,0,1,2.733,3.921H.688A1.19,1.19,0,0,1-.5,2.733V.688A1.19,1.19,0,0,1,.688-.5ZM2.733,2.921a.189.189,0,0,0,.188-.188V.688A.189.189,0,0,0,2.733.5H.688A.189.189,0,0,0,.5.688V2.733a.189.189,0,0,0,.188.188Z" transform="translate(40.154 467.45)" fill="#333"/>
      <path id="사각형_14190" data-name="사각형 14190" d="M.688-.5H2.733A1.19,1.19,0,0,1,3.921.688V2.733A1.19,1.19,0,0,1,2.733,3.921H.688A1.19,1.19,0,0,1-.5,2.733V.688A1.19,1.19,0,0,1,.688-.5ZM2.733,2.921a.189.189,0,0,0,.188-.188V.688A.189.189,0,0,0,2.733.5H.688A.189.189,0,0,0,.5.688V2.733a.189.189,0,0,0,.188.188Z" transform="translate(66.696 462.201)" fill="#333"/>
      <path id="패스_67806" data-name="패스 67806" d="M64.1,455.811H59.521v-1H64.1a.633.633,0,0,0,.632-.632v-.125a.633.633,0,0,0-.632-.632H61.777v-1H64.1a1.634,1.634,0,0,1,1.632,1.632v.125A1.634,1.634,0,0,1,64.1,455.811Z" fill="#333"/>
      <path id="패스_67807" data-name="패스 67807" d="M49.209,455.811H44.342a1.634,1.634,0,0,1-1.632-1.632v-.125a1.634,1.634,0,0,1,1.632-1.632h2.65v1h-2.65a.633.633,0,0,0-.632.632v.125a.633.633,0,0,0,.632.632h4.867Z" transform="translate(1.639)" fill="#333"/>
      <path id="패스_67808" data-name="패스 67808" d="M69.853,471.362H67.74a1.155,1.155,0,0,1-1.154-1.155v-2.113a1.155,1.155,0,0,1,1.154-1.154h.517a.5.5,0,0,1,0,1H67.74a.154.154,0,0,0-.154.154v2.113a.154.154,0,0,0,.154.155h2.113a.155.155,0,0,0,.155-.155v-2.113a.154.154,0,0,0-.155-.154H69.7a.5.5,0,0,1,0-1h.157a1.155,1.155,0,0,1,1.155,1.154v2.113A1.156,1.156,0,0,1,69.853,471.362Z" transform="translate(-0.39 0.01)" fill="#333"/>
      <path id="패스_67809" data-name="패스 67809" d="M43.92,474.218a.5.5,0,0,1-.49-.6,2.8,2.8,0,0,0,.056-.561v-11.14a2.367,2.367,0,0,0-2.213-2.491H35.349a.5.5,0,1,1,0-1h5.923a3.365,3.365,0,0,1,3.213,3.491v11.14a3.807,3.807,0,0,1-.076.761A.5.5,0,0,1,43.92,474.218Z" transform="translate(28.883)" fill="#333"/>
      <path id="선_3694" data-name="선 3694" d="M39.5.5H0A.5.5,0,0,1-.5,0,.5.5,0,0,1,0-.5H39.5A.5.5,0,0,1,40,0,.5.5,0,0,1,39.5.5Z" transform="translate(35.25 474.211)" fill="#333"/>
    </g>
  </g>
</svg>
