<svg xmlns="http://www.w3.org/2000/svg" width="44" height="44" viewBox="0 0 44 44">
    <path data-name="사각형 10579" style="fill:none" d="M0 0h44v44H0z"/>
    <g data-name="그룹 33434">
        <path data-name="선 871" d="M0 4.626a.5.5 0 0 1-.5-.5V0A.5.5 0 0 1 0-.5a.5.5 0 0 1 .5.5v4.126a.5.5 0 0 1-.5.5z" transform="translate(16.164 34.089)" style="fill:#333"/>
        <path data-name="선 872" d="M4.736.5H0A.5.5 0 0 1-.5 0 .5.5 0 0 1 0-.5h4.736a.5.5 0 0 1 .5.5.5.5 0 0 1-.5.5z" transform="translate(13.796 38.215)" style="fill:#333"/>
        <path data-name="패스 53494" d="M179.6 451.438a.963.963 0 1 0 1.925 0v-1.4H179.6z" transform="translate(-166.231 -437.862)" style="fill:#7e4f40;opacity:.7"/>
        <path data-name="패스 53495" d="M184.131 450.037v1.4a.963.963 0 0 0 1.927 0v-1.4z" transform="translate(-165.926 -437.862)" style="fill:#7e4f40;opacity:.7"/>
        <path data-name="선 873" d="M0 14.465a.5.5 0 0 1-.5-.5V0A.5.5 0 0 1 0-.5a.5.5 0 0 1 .5.5v13.965a.5.5 0 0 1-.5.5z" transform="translate(16.164 5.997)" style="fill:#333"/>
        <path data-name="패스 53496" d="M184.736 448.833a.5.5 0 0 1-.5-.5v-1.814H180.5v1.814a.5.5 0 0 1-1 0v-2.314a.5.5 0 0 1 .5-.5h4.736a.5.5 0 0 1 .5.5v2.314a.5.5 0 0 1-.5.5z" transform="translate(-166.204 -438.133)" style="fill:#333"/>
        <path data-name="사각형 10584" d="M.9-.5h.122A1.4 1.4 0 0 1 2.426.9v1.763a1.4 1.4 0 0 1-1.4 1.4H.9a1.4 1.4 0 0 1-1.4-1.4V.9A1.4 1.4 0 0 1 .9-.5zm.122 3.566a.4.4 0 0 0 .4-.4V.9a.4.4 0 0 0-.4-.4H.9a.4.4 0 0 0-.4.4v1.763a.4.4 0 0 0 .4.4z" transform="translate(12.732 10.616)" style="fill:#333"/>
        <path data-name="사각형 10585" d="M.9-.5h.122A1.4 1.4 0 0 1 2.426.9v1.763a1.4 1.4 0 0 1-1.4 1.4H.9a1.4 1.4 0 0 1-1.4-1.4V.9A1.4 1.4 0 0 1 .9-.5zm.122 3.566a.4.4 0 0 0 .4-.4V.9a.4.4 0 0 0-.4-.4H.9a.4.4 0 0 0-.4.4v1.763a.4.4 0 0 0 .4.4z" transform="translate(17.568 10.616)" style="fill:#333"/>
        <path data-name="패스 53497" d="M171.572 466.677a.5.5 0 0 1-.5-.5v-.637a2.932 2.932 0 0 1 2.928-2.928h13.437a.5.5 0 0 1 0 1H174a1.93 1.93 0 0 0-1.928 1.928v.637a.5.5 0 0 1-.5.5z" transform="translate(-166.772 -436.982)" style="fill:#333"/>
        <path data-name="패스 53498" d="M204.273 466.688a.5.5 0 0 1-.5-.5v-.648a1.93 1.93 0 0 0-1.928-1.928h-3.466a.5.5 0 0 1 0-1h3.466a2.932 2.932 0 0 1 2.928 2.928v.648a.5.5 0 0 1-.5.5z" transform="translate(-164.966 -436.982)" style="fill:#333"/>
        <path data-name="선 874" d="M3.8.5H0A.5.5 0 0 1-.5 0 .5.5 0 0 1 0-.5h3.8a.5.5 0 0 1 .5.5.5.5 0 0 1-.5.5z" transform="translate(27.897 26.13)" style="fill:#333"/>
        <path data-name="선 875" d="M3.8.5H0A.5.5 0 0 1-.5 0 .5.5 0 0 1 0-.5h3.8a.5.5 0 0 1 .5.5.5.5 0 0 1-.5.5z" transform="translate(22.383 26.13)" style="fill:#333"/>
        <g data-name="그룹 33433">
            <path data-name="패스 53499" d="M175.148 475.214a2.223 2.223 0 0 1-2.221-2.221v-2.719a.5.5 0 0 1 .5-.5h3.441a.5.5 0 0 1 .5.5v2.719a2.223 2.223 0 0 1-2.22 2.221zm-1.221-4.439v2.219a1.221 1.221 0 0 0 2.441 0v-2.219z" transform="translate(-166.647 -436.499)" style="fill:#333"/>
            <path data-name="패스 53500" d="M200.534 475.214a2.224 2.224 0 0 1-2.222-2.221v-2.719a.5.5 0 0 1 .5-.5h3.442a.5.5 0 0 1 .5.5v2.719a2.223 2.223 0 0 1-2.22 2.221zm-1.222-4.439v2.219a1.221 1.221 0 0 0 2.442 0v-2.219z" transform="translate(-164.938 -436.499)" style="fill:#333"/>
        </g>
        <path data-name="타원 1268" d="M2.562-.5A3.062 3.062 0 1 1-.5 2.562 3.066 3.066 0 0 1 2.562-.5zm0 5.124A2.062 2.062 0 1 0 .5 2.562a2.065 2.065 0 0 0 2.062 2.062z" transform="translate(6.523 20.39)" style="fill:#333"/>
        <path data-name="패스 53501" d="M179.8 463.831a.5.5 0 0 1-.5-.5v-5.524a.5.5 0 0 1 .5-.5h3.177a.5.5 0 1 1 0 1H180.3v5.024a.5.5 0 0 1-.5.5z" transform="translate(-166.217 -437.339)" style="fill:#333"/>
        <path data-name="패스 53502" d="M201.1 463.776a.5.5 0 0 1-.5-.5v-1.5a3.505 3.505 0 0 0-1.35-2.776.5.5 0 1 1 .618-.786 4.5 4.5 0 0 1 1.731 3.558v1.5a.5.5 0 0 1-.499.504z" transform="translate(-164.887 -437.285)" style="fill:#333"/>
        <path data-name="패스 53503" d="M183.637 456.5h18.838a1.359 1.359 0 1 1 0 2.717h-2.545v6.365a1.359 1.359 0 1 1-2.717 0v-6.365h-2.8v6.365a1.359 1.359 0 1 1-2.717 0v-6.365h-2.8v6.365a1.359 1.359 0 1 1-2.717 0v-6.365h-2.545a1.359 1.359 0 1 1 0-2.717zm18.838 1.717a.359.359 0 1 0 0-.717h-18.838a.359.359 0 1 0 0 .717h3.045a.5.5 0 0 1 .5.5v6.865a.359.359 0 1 0 .717 0v-6.865a.5.5 0 0 1 .5-.5h3.8a.5.5 0 0 1 .5.5v6.865a.359.359 0 1 0 .717 0v-6.865a.5.5 0 0 1 .5-.5h3.8a.5.5 0 0 1 .5.5v6.865a.359.359 0 1 0 .717 0v-6.865a.5.5 0 0 1 .5-.5z" transform="translate(-166.017 -437.393)" style="fill:#333"/>
        <path data-name="패스 53504" d="M207.913 471.895h-37.737a2.252 2.252 0 0 1-.529-.067 2.218 2.218 0 0 1-1.907-2.187V454.49a2.217 2.217 0 0 1 4.435 0v12.024h33.631V454.49a2.217 2.217 0 0 1 4.435 0v8.137a.5.5 0 0 1-1 0v-8.137a1.217 1.217 0 0 0-2.435 0v12.524a.5.5 0 0 1-.5.5h-34.631a.5.5 0 0 1-.5-.5V454.49a1.217 1.217 0 0 0-2.435 0v15.151a1.216 1.216 0 0 0 1.064 1.2.5.5 0 0 1 .058.011 1.28 1.28 0 0 0 .314.044h37.737a1.318 1.318 0 0 0 .539-.118l.017-.007a1.232 1.232 0 0 0 .749-.921v-.015a1.343 1.343 0 0 0 .03-.277v-.693c0-.02-.007-.049-.009-.085V465.036a.5.5 0 0 1 1 0v3.689a.887.887 0 0 1 .011.129v.7a2.327 2.327 0 0 1-.05.474 2.239 2.239 0 0 1-1.35 1.663 2.311 2.311 0 0 1-.937.204z" transform="translate(-166.996 -437.678)" style="fill:#333"/>
    </g>
</svg>
