<svg xmlns="http://www.w3.org/2000/svg" width="44" height="44" viewBox="0 0 44 44">
    <path data-name="사각형 10579" style="fill:none" d="M0 0h44v44H0z"/>
    <g data-name="그룹 33507" transform="translate(-434.894 -726.994)">
        <rect data-name="사각형 10597" width="4.648" height="16.055" rx=".641" transform="translate(464.137 752.135)" style="opacity:.7;fill:#7e4f40"/>
        <path data-name="패스 53739" d="M440 760.346h4.631a5.12 5.12 0 0 0 5.1-5.106v-5.1z" transform="translate(.093 2.343)" style="opacity:.7;fill:#7e4f40"/>
        <path data-name="타원 1299" d="M4.168-.5A4.668 4.668 0 1 1-.5 4.168 4.674 4.674 0 0 1 4.168-.5zm0 8.337A3.668 3.668 0 1 0 .5 4.168a3.672 3.672 0 0 0 3.668 3.669z" transform="translate(452.698 737.918)" style="fill:#333"/>
        <path data-name="패스 53740" d="M446.462 749.823a.5.5 0 0 1-.308-.894 12.093 12.093 0 0 1 7.408-2.538h5.086a12.086 12.086 0 0 1 7.394 2.528.5.5 0 1 1-.614.789 11.081 11.081 0 0 0-6.78-2.317h-5.086a11.088 11.088 0 0 0-6.793 2.327.5.5 0 0 1-.307.105z" transform="translate(.856 1.96)" style="fill:#333"/>
        <path data-name="패스 53741" d="M453.421 741.411a1.02 1.02 0 0 0 1.007-1.034l-2.04.027a1.019 1.019 0 0 0 1.033 1.007z" transform="translate(1.555 1.192)" style="opacity:.7;fill:#7e4f40"/>
        <path data-name="패스 53742" d="M456.826 741.411a1.021 1.021 0 0 0 1.007-1.034l-2.041.027a1.021 1.021 0 0 0 1.034 1.007z" transform="translate(1.956 1.192)" style="opacity:.7;fill:#7e4f40"/>
        <path data-name="선 963" d="M0 5.154a.5.5 0 0 1-.5-.5V0A.5.5 0 0 1 0-.5a.5.5 0 0 1 .5.5v4.654a.5.5 0 0 1-.5.5z" transform="translate(474.742 761.991)" style="fill:#333"/>
        <path data-name="패스 53743" d="M471.852 757.682a.5.5 0 0 1-.5-.5v-3.031a4.61 4.61 0 0 0-4.606-4.6h-3.033a.5.5 0 0 1 0-1h3.033a5.612 5.612 0 0 1 5.606 5.6v3.031a.5.5 0 0 1-.5.5z" transform="translate(2.891 2.214)" style="fill:#333"/>
        <path data-name="패스 53744" d="M439.209 764.932a.5.5 0 0 1-.5-.5v-10.281a5.612 5.612 0 0 1 5.606-5.6H466.6a.5.5 0 1 1 0 1h-22.285a4.61 4.61 0 0 0-4.606 4.6v10.281a.5.5 0 0 1-.5.5z" transform="translate(0 2.214)" style="fill:#333"/>
        <path data-name="패스 53745" d="M443.841 759.755h-4.632a.5.5 0 0 1 0-1h4.632a4.61 4.61 0 0 0 4.6-4.6v-5.106a.5.5 0 0 1 1 0v5.106a5.611 5.611 0 0 1-5.6 5.6z" transform="translate(0 2.214)" style="fill:#333"/>
        <path data-name="선 964" d="M0 4.073a.5.5 0 0 1-.345-.138.5.5 0 0 1-.017-.707L3.045-.345a.5.5 0 0 1 .707-.017.5.5 0 0 1 .017.707L.362 3.918A.5.5 0 0 1 0 4.073z" transform="translate(445.538 751.26)" style="fill:#333"/>
        <path data-name="선 965" d="M0 7.137A.5.5 0 0 1-.345 7a.5.5 0 0 1-.017-.707L5.967-.345a.5.5 0 0 1 .707-.017.5.5 0 0 1 .017.707L.362 6.982A.5.5 0 0 1 0 7.137z" transform="translate(439.21 754.833)" style="fill:#333"/>
        <path data-name="선 966" d="M0 1.417a.5.5 0 0 1-.5-.5V0A.5.5 0 0 1 0-.5a.5.5 0 0 1 .5.5v.917a.5.5 0 0 1-.5.5z" transform="translate(447.242 739.235)" style="fill:#7e4f40"/>
        <path data-name="선 967" d="M0 1.417a.5.5 0 0 1-.5-.5V0A.5.5 0 0 1 0-.5a.5.5 0 0 1 .5.5v.917a.5.5 0 0 1-.5.5z" transform="translate(447.242 743.179)" style="fill:#7e4f40"/>
        <path data-name="선 968" d="M.917.5H0A.5.5 0 0 1-.5 0 .5.5 0 0 1 0-.5h.917a.5.5 0 0 1 .5.5.5.5 0 0 1-.5.5z" transform="translate(448.756 741.665)" style="fill:#7e4f40"/>
        <path data-name="선 969" d="M.917.5H0A.5.5 0 0 1-.5 0 .5.5 0 0 1 0-.5h.917a.5.5 0 0 1 .5.5.5.5 0 0 1-.5.5z" transform="translate(444.812 741.665)" style="fill:#7e4f40"/>
        <path data-name="선 970" d="M0 1.148A.5.5 0 0 1-.354 1a.5.5 0 0 1 0-.707l.649-.647a.5.5 0 0 1 .705 0 .5.5 0 0 1 0 .708L.354 1A.5.5 0 0 1 0 1.148z" transform="translate(448.427 739.832)" style="fill:#7e4f40"/>
        <path data-name="선 971" d="M0 1.148A.5.5 0 0 1-.354 1a.5.5 0 0 1 0-.707l.649-.647a.5.5 0 0 1 .705 0 .5.5 0 0 1 0 .708L.354 1A.5.5 0 0 1 0 1.148z" transform="translate(445.408 742.851)" style="fill:#7e4f40"/>
        <path data-name="선 972" d="M.648 1.148A.5.5 0 0 1 .295 1L-.354.354a.5.5 0 0 1 0-.707.5.5 0 0 1 .707 0L1 .295a.5.5 0 0 1-.354.854z" transform="translate(445.408 739.832)" style="fill:#7e4f40"/>
        <path data-name="선 973" d="M.648 1.148A.5.5 0 0 1 .295 1L-.354.354a.5.5 0 0 1 0-.707.5.5 0 0 1 .707 0L1 .295a.5.5 0 0 1-.354.854z" transform="translate(448.427 742.851)" style="fill:#7e4f40"/>
        <path data-name="선 974" d="M0 1.417a.5.5 0 0 1-.5-.5V0A.5.5 0 0 1 0-.5a.5.5 0 0 1 .5.5v.917a.5.5 0 0 1-.5.5z" transform="translate(465.925 738.51)" style="fill:#7e4f40"/>
        <path data-name="선 975" d="M0 1.417a.5.5 0 0 1-.5-.5V0A.5.5 0 0 1 0-.5a.5.5 0 0 1 .5.5v.917a.5.5 0 0 1-.5.5z" transform="translate(465.925 742.454)" style="fill:#7e4f40"/>
        <path data-name="선 976" d="M.917.5H0A.5.5 0 0 1-.5 0 .5.5 0 0 1 0-.5h.917a.5.5 0 0 1 .5.5.5.5 0 0 1-.5.5z" transform="translate(467.438 740.94)" style="fill:#7e4f40"/>
        <path data-name="선 977" d="M.917.5H0A.5.5 0 0 1-.5 0 .5.5 0 0 1 0-.5h.917a.5.5 0 0 1 .5.5.5.5 0 0 1-.5.5z" transform="translate(463.494 740.94)" style="fill:#7e4f40"/>
        <path data-name="선 978" d="M0 1.148A.5.5 0 0 1-.354 1a.5.5 0 0 1 0-.707l.649-.647a.5.5 0 0 1 .705 0 .5.5 0 0 1 0 .708L.354 1A.5.5 0 0 1 0 1.148z" transform="translate(467.11 739.106)" style="fill:#7e4f40"/>
        <path data-name="선 979" d="M0 1.148A.5.5 0 0 1-.354 1a.5.5 0 0 1 0-.707l.649-.647a.5.5 0 0 1 .705 0 .5.5 0 0 1 0 .708L.354 1A.5.5 0 0 1 0 1.148z" transform="translate(464.091 742.125)" style="fill:#7e4f40"/>
        <path data-name="선 980" d="M.648 1.148A.5.5 0 0 1 .295 1L-.354.354a.5.5 0 0 1 0-.707.5.5 0 0 1 .707 0L1 .295a.5.5 0 0 1-.354.854z" transform="translate(464.091 739.106)" style="fill:#7e4f40"/>
        <path data-name="선 981" d="M.648 1.148A.5.5 0 0 1 .295 1L-.354.354a.5.5 0 0 1 0-.707.5.5 0 0 1 .707 0L1 .295a.5.5 0 0 1-.354.854z" transform="translate(467.11 742.125)" style="fill:#7e4f40"/>
        <path data-name="선 982" d="M0 1.417a.5.5 0 0 1-.5-.5V0A.5.5 0 0 1 0-.5a.5.5 0 0 1 .5.5v.917a.5.5 0 0 1-.5.5z" transform="translate(458.769 730.624)" style="fill:#7e4f40"/>
        <path data-name="선 983" d="M0 1.417a.5.5 0 0 1-.5-.5V0A.5.5 0 0 1 0-.5a.5.5 0 0 1 .5.5v.917a.5.5 0 0 1-.5.5z" transform="translate(458.769 734.568)" style="fill:#7e4f40"/>
        <path data-name="선 984" d="M.917.5H0A.5.5 0 0 1-.5 0 .5.5 0 0 1 0-.5h.917a.5.5 0 0 1 .5.5.5.5 0 0 1-.5.5z" transform="translate(460.283 733.054)" style="fill:#7e4f40"/>
        <path data-name="선 985" d="M.917.5H0A.5.5 0 0 1-.5 0 .5.5 0 0 1 0-.5h.917a.5.5 0 0 1 .5.5.5.5 0 0 1-.5.5z" transform="translate(456.339 733.054)" style="fill:#7e4f40"/>
        <path data-name="선 986" d="M0 1.148A.5.5 0 0 1-.354 1a.5.5 0 0 1 0-.707l.649-.647a.5.5 0 0 1 .705 0 .5.5 0 0 1 0 .708L.354 1A.5.5 0 0 1 0 1.148z" transform="translate(459.955 731.221)" style="fill:#7e4f40"/>
        <path data-name="선 987" d="M0 1.148A.5.5 0 0 1-.354 1a.5.5 0 0 1 0-.707l.649-.647a.5.5 0 0 1 .705 0 .5.5 0 0 1 0 .708L.354 1A.5.5 0 0 1 0 1.148z" transform="translate(456.936 734.24)" style="fill:#7e4f40"/>
        <path data-name="선 988" d="M.648 1.148A.5.5 0 0 1 .295 1L-.354.354a.5.5 0 0 1 0-.707.5.5 0 0 1 .707 0L1 .295a.5.5 0 0 1-.354.854z" transform="translate(456.936 731.221)" style="fill:#7e4f40"/>
        <path data-name="선 989" d="M.648 1.148A.5.5 0 0 1 .295 1L-.354.354a.5.5 0 0 1 0-.707.5.5 0 0 1 .707 0L1 .295a.5.5 0 0 1-.354.854z" transform="translate(459.955 734.24)" style="fill:#7e4f40"/>
        <path data-name="선 990" d="M0 16.327a.5.5 0 0 1-.5-.5V0A.5.5 0 0 1 0-.5a.5.5 0 0 1 .5.5v15.827a.5.5 0 0 1-.5.5z" transform="translate(462.868 751.26)" style="fill:#333"/>
        <path data-name="선 991" d="M0 16.327a.5.5 0 0 1-.5-.5V0A.5.5 0 0 1 0-.5a.5.5 0 0 1 .5.5v15.827a.5.5 0 0 1-.5.5z" transform="translate(467.516 751.26)" style="fill:#333"/>
        <path data-name="패스 53746" d="M442.9 749.974a.5.5 0 0 1-.451-.284 14.81 14.81 0 0 1 7.206-19.87.5.5 0 0 1 .7.531 13.847 13.847 0 0 0 1.854 9.262.5.5 0 0 1-.854.52 14.862 14.862 0 0 1-2.1-9 13.812 13.812 0 0 0-5.9 18.125.5.5 0 0 1-.451.716z" transform="translate(.269)" style="fill:#333"/>
        <path data-name="패스 53747" d="M466.381 748.969a.5.5 0 0 1-.44-.737 13.827 13.827 0 0 0 1.332-3.573 14.163 14.163 0 0 1-1.678.535 14.828 14.828 0 0 1-7.262-.018.5.5 0 1 1 .249-.969 13.671 13.671 0 0 0 9.147-.825.5.5 0 0 1 .7.531 14.808 14.808 0 0 1-1.608 4.793.5.5 0 0 1-.44.263z" transform="translate(2.271 1.6)" style="fill:#333"/>
    </g>
</svg>
