<svg xmlns="http://www.w3.org/2000/svg" width="44" height="44" viewBox="0 0 44 44">
    <path data-name="사각형 10579" style="fill:none" d="M0 0h44v44H0z"/>
    <g data-name="그룹 33550" transform="translate(-85.16 -233.514)">
        <path data-name="사각형 10611" d="M.763-.5H3A1.265 1.265 0 0 1 4.265.763v.448A1.265 1.265 0 0 1 3 2.474H.763A1.265 1.265 0 0 1-.5 1.211V.763A1.265 1.265 0 0 1 .763-.5zM3 1.474a.263.263 0 0 0 .263-.263V.763A.263.263 0 0 0 3 .5H.763A.263.263 0 0 0 .5.763v.448a.263.263 0 0 0 .263.263z" transform="translate(116.781 268.658)" style="fill:#333"/>
        <path data-name="사각형 10613" d="M2.933-.5H28.8a3.437 3.437 0 0 1 3.433 3.433v20.814A3.438 3.438 0 0 1 28.8 27.18H2.934A3.438 3.438 0 0 1-.5 23.747V2.933A3.437 3.437 0 0 1 2.933-.5zM28.8 26.18a2.437 2.437 0 0 0 2.434-2.434V2.933A2.436 2.436 0 0 0 28.8.5H2.933A2.436 2.436 0 0 0 .5 2.933v20.814a2.437 2.437 0 0 0 2.434 2.433z" transform="translate(91.295 241.977)" style="fill:#333"/>
        <rect data-name="사각형 10614" width="26.47" height="18.061" rx=".297" transform="translate(93.924 245.292)" style="fill:#fff"/>
        <path data-name="사각형 10614 - 윤곽선" d="M.3-.5h25.873a.8.8 0 0 1 .8.8v17.464a.8.8 0 0 1-.8.8H.3a.8.8 0 0 1-.8-.8V.3a.8.8 0 0 1 .8-.8zm25.67 1H.5v17.061h25.47z" transform="translate(93.924 245.292)" style="fill:#333"/>
        <path data-name="사각형 10615" d="M.3-.5h25.873a.8.8 0 0 1 .8.8v17.464a.8.8 0 0 1-.8.8H.3a.8.8 0 0 1-.8-.8V.3a.8.8 0 0 1 .8-.8zm25.67 1H.5v17.061h25.47z" transform="translate(93.924 245.292)" style="fill:#333"/>
        <path data-name="사각형 10616" d="M.763-.5H3A1.265 1.265 0 0 1 4.265.763v.448A1.265 1.265 0 0 1 3 2.474H.763A1.265 1.265 0 0 1-.5 1.211V.763A1.265 1.265 0 0 1 .763-.5zM3 1.474a.263.263 0 0 0 .263-.263V.763A.263.263 0 0 0 3 .5H.763A.263.263 0 0 0 .5.763v.448a.263.263 0 0 0 .263.263z" transform="translate(93.418 268.658)" style="fill:#333"/>
        <path data-name="패스 53889" d="M101.511 262.292a.5.5 0 0 1-.482-.374l-1.9-7.261-.96 2.42a.5.5 0 0 1-.465.316h-3.772a.5.5 0 0 1 0-1h3.434l1.4-3.523a.5.5 0 0 1 .949.058l1.8 6.906 2.636-9.874a.5.5 0 0 1 .968.008l1.648 6.633.8-2.438a.5.5 0 0 1 .933-.044l1.117 2.551h1.913l.73-2.084a.5.5 0 0 1 .95.018l1.748 5.668 1.28-3.284a.5.5 0 0 1 .466-.318h3.696a.5.5 0 1 1 0 1h-3.351l-1.676 4.3a.5.5 0 0 1-.944-.034l-1.724-5.588-.345.985a.5.5 0 0 1-.472.335H109.3a.5.5 0 0 1-.458-.3l-.724-1.654-.938 2.843a.5.5 0 0 1-.96-.036l-1.6-6.431-2.624 9.828a.5.5 0 0 1-.485.374z" transform="translate(-.007 -1.039)" style="fill:#333"/>
        <path d="M3.348 5.167A7.874 7.874 0 0 0 5.8 2.777 1.778 1.778 0 0 0 4.53 0a1.517 1.517 0 0 0-1.263.634.281.281 0 0 1-.455 0A1.517 1.517 0 0 0 1.548 0 1.778 1.778 0 0 0 .274 2.777a7.873 7.873 0 0 0 2.456 2.39.559.559 0 0 0 .618 0z" transform="translate(112.472 247.286)" style="fill:#a48379"/>
    </g>
</svg>
