<svg xmlns="http://www.w3.org/2000/svg" width="44" height="44" viewBox="0 0 44 44">
    <path data-name="사각형 10579" style="fill:none" d="M0 0h44v44H0z"/>
    <g data-name="그룹 59369">
        <path data-name="패스 67624" d="M25.111 30.625c.079-.53.88-1.1.756-1.587-.127-.51-1.106-.63-1.414-1.045s-.138-1.387-.587-1.658-1.207.341-1.739.261-1.1-.879-1.588-.756c-.509.127-.629 1.106-1.045 1.414s-1.386.137-1.657.588c-.261.433.34 1.207.261 1.739s-.879 1.1-.756 1.587c.127.51 1.106.63 1.414 1.045s.138 1.387.588 1.657c.433.261 1.206-.339 1.738-.26s1.1.88 1.588.756c.508-.127.629-1.106 1.045-1.415s1.386-.137 1.657-.587c.26-.429-.34-1.206-.261-1.739" style="fill:#7e4f40;opacity:.7" transform="translate(5.395 .749)"/>
        <path data-name="패스 67625" d="M20.438 10.672a.5.5 0 0 1-.4-.793l4.885-6.749a1.366 1.366 0 0 0-2.212-1.6l-4.337 5.992a.5.5 0 1 1-.823-.568l.013-.018L21.9.945a2.366 2.366 0 0 1 3.833 2.775l-4.885 6.748a.5.5 0 0 1-.41.2" style="fill:#333" transform="translate(5.395 .749)"/>
        <path data-name="패스 67626" d="M14.232 15.22h-.024a.5.5 0 0 1-.475-.523c.079-1.635 2.63-4.681 2.985-5.1l.641-.884a1.366 1.366 0 0 0-2.213-1.6l-2.624 3.624a.5.5 0 0 1-.81-.586l2.624-3.624A2.366 2.366 0 0 1 18.169 9.3l-.653.9-.025.032c-1.041 1.218-2.712 3.519-2.759 4.511a.5.5 0 0 1-.5.475" style="fill:#333" transform="translate(5.395 .749)"/>
        <path data-name="패스 67627" d="M23.461 12.861a.5.5 0 0 1-.4-.793l5.864-8.1a1.366 1.366 0 0 0-2.213-1.6l-5.864 8.1a.5.5 0 0 1-.81-.586l5.864-8.1a2.366 2.366 0 0 1 3.833 2.775l-5.864 8.1a.5.5 0 0 1-.41.2" style="fill:#333" transform="translate(5.395 .749)"/>
        <path data-name="패스 67628" d="M25.041 17.042a.5.5 0 0 1-.4-.793l6.328-8.741A1.366 1.366 0 1 0 28.8 5.843a1.536 1.536 0 0 0-.047.065l-4.885 6.748a.5.5 0 0 1-.81-.586l4.885-6.749A2.366 2.366 0 1 1 31.779 8.1l-6.328 8.742a.5.5 0 0 1-.41.2" style="fill:#333" transform="translate(5.395 .749)"/>
        <path data-name="패스 67629" d="M29.507 17.238a.5.5 0 0 1-.4-.793l2.843-3.928a1.366 1.366 0 0 0-2.213-1.6l-4.286 5.921a.5.5 0 1 1-.823-.568l.013-.018 4.286-5.921a2.366 2.366 0 1 1 3.833 2.775l-2.843 3.928a.5.5 0 0 1-.41.2" style="fill:#333" transform="translate(5.395 .749)"/>
        <path data-name="패스 67630" d="M.5 36.842a.5.5 0 0 1-.4-.793l9.6-13.271a30.49 30.49 0 0 1-1.01-6.037c-.029-2.515 2.047-5.243 2.136-5.358a.5.5 0 1 1 .793.61c-.02.025-1.954 2.57-1.929 4.736a31.569 31.569 0 0 0 1.039 6.018.5.5 0 0 1-.077.425L.9 36.635a.5.5 0 0 1-.409.207" style="fill:#333" transform="translate(5.395 .749)"/>
        <path data-name="패스 67631" d="M16.854 20.535a.5.5 0 0 1-.413-.781 4.722 4.722 0 0 0 .649-4.639 5.429 5.429 0 0 0-1.252-1.853.5.5 0 1 1 .662-.75 6.437 6.437 0 0 1 1.517 2.226 5.7 5.7 0 0 1-.748 5.577.5.5 0 0 1-.415.22" style="fill:#333" transform="translate(5.395 .749)"/>
        <path data-name="패스 67632" d="M8.315 42.5a.507.507 0 0 1-.406-.8l6.691-9.24a.5.5 0 0 1 .7-.113.5.5 0 0 1 .113.7l-6.7 9.247a.5.5 0 0 1-.405.207" style="fill:#333" transform="translate(5.395 .749)"/>
        <path data-name="패스 67633" d="M26.764 20.851a.5.5 0 0 1-.306-.794c.9-1.178 1.654-2.182 1.662-2.192a.5.5 0 1 1 .8.6c-.008.01-.767 1.017-1.664 2.2a.5.5 0 0 1-.5.187" style="fill:#333" transform="translate(5.395 .749)"/>
        <path data-name="패스 67634" d="M6.791 36.832a.972.972 0 1 1-.972.972.972.972 0 0 1 .972-.972" style="fill:#7e4f40;opacity:.7" transform="translate(5.395 .749)"/>
        <path data-name="패스 67635" d="M10.679 25.345a.864.864 0 1 1-.864.864.864.864 0 0 1 .864-.864" style="fill:#7e4f40;opacity:.7" transform="translate(5.395 .749)"/>
        <path data-name="패스 67636" d="M12.106 32.192a.864.864 0 1 1-.864.864.864.864 0 0 1 .864-.864" style="fill:#7e4f40;opacity:.7" transform="translate(5.395 .749)"/>
        <path data-name="패스 67637" d="M3.378 35.5a.864.864 0 1 1-.864.864.864.864 0 0 1 .864-.864" style="fill:#7e4f40;opacity:.7" transform="translate(5.395 .749)"/>
        <path data-name="패스 67638" d="M2.822 34.573a2.205 2.205 0 0 0 1.753.368 1.6 1.6 0 0 0 2.95-.9A2.543 2.543 0 1 0 7 29.091" style="fill:#7e4f40;opacity:.7" transform="translate(5.395 .749)"/>
        <path data-name="패스 67639" d="M5.645 35.132a2.1 2.1 0 0 1-1.232-.4 2.024 2.024 0 0 1-.334-.3 2.713 2.713 0 0 1-1.827-.5.5.5 0 1 1 .568-.823l.018.013a1.7 1.7 0 0 0 1.358.284.5.5 0 0 1 .522.219 1.1 1.1 0 0 0 1.827.054 1.087 1.087 0 0 0 .2-.671.5.5 0 0 1 .487-.512.423.423 0 0 1 .062 0 2.026 2.026 0 0 0 1.863-.827 2.048 2.048 0 0 0-2.288-3.15.5.5 0 1 1-.307-.952A3.044 3.044 0 1 1 7.7 33.5a2.065 2.065 0 0 1-.343.763 2.092 2.092 0 0 1-1.374.846 2.183 2.183 0 0 1-.333.022" style="fill:#333" transform="translate(5.395 .749)"/>
        <path data-name="패스 67640" d="M24.635 21.805c.051-.34.561-.7.482-1.012s-.706-.4-.9-.667-.085-.88-.375-1.057-.77.217-1.109.166-.7-.568-1.013-.484-.4.706-.667.9-.879.085-1.058.374.217.77.167 1.108-.561.7-.482 1.012.706.4.9.666.085.88.374 1.058.77-.216 1.109-.166.7.561 1.011.482.4-.706.668-.9.879-.085 1.058-.374-.217-.77-.167-1.108" style="fill:#7e4f40;opacity:.7" transform="translate(5.395 .749)"/>
        <path data-name="패스 67641" d="M22.562 34.879a1.9 1.9 0 0 1-1.056-.476 1.722 1.722 0 0 0-.5-.3 1.65 1.65 0 0 0-.564.14 1.593 1.593 0 0 1-1.36.054 1.609 1.609 0 0 1-.6-1.255 1.742 1.742 0 0 0-.128-.533 1.765 1.765 0 0 0-.474-.279c-.4-.19-.9-.427-1.025-.942a1.583 1.583 0 0 1 .449-1.284 1.754 1.754 0 0 0 .3-.5 1.69 1.69 0 0 0-.14-.564 1.584 1.584 0 0 1-.054-1.359 1.606 1.606 0 0 1 1.254-.6 1.749 1.749 0 0 0 .534-.128 1.786 1.786 0 0 0 .277-.473c.191-.4.428-.9.945-1.026a1.575 1.575 0 0 1 1.28.446 1.761 1.761 0 0 0 .5.3 1.7 1.7 0 0 0 .563-.141 1.586 1.586 0 0 1 1.36-.055 1.608 1.608 0 0 1 .6 1.255 1.717 1.717 0 0 0 .129.534 1.752 1.752 0 0 0 .473.278c.4.19.9.427 1.025.943a1.586 1.586 0 0 1-.45 1.286 1.725 1.725 0 0 0-.3.5 1.709 1.709 0 0 0 .14.568 1.577 1.577 0 0 1 .054 1.357 1.612 1.612 0 0 1-1.254.6 1.72 1.72 0 0 0-.534.128 1.768 1.768 0 0 0-.278.473c-.19.4-.428.9-.943 1.025a.925.925 0 0 1-.229.028M20.981 33.1a1.136 1.136 0 0 1 .175.013 2.223 2.223 0 0 1 .942.48 1.768 1.768 0 0 0 .466.283 2.56 2.56 0 0 0 .268-.484 2.121 2.121 0 0 1 .584-.845 2.128 2.128 0 0 1 .982-.315 1.7 1.7 0 0 0 .552-.136 2.847 2.847 0 0 0-.148-.5 2.248 2.248 0 0 1-.186-1.044 2.208 2.208 0 0 1 .479-.94 1.721 1.721 0 0 0 .284-.469 2.577 2.577 0 0 0-.483-.267 2.135 2.135 0 0 1-.846-.584 2.135 2.135 0 0 1-.314-.981 1.72 1.72 0 0 0-.137-.552 2 2 0 0 0-.506.148 2.232 2.232 0 0 1-1.041.185 2.217 2.217 0 0 1-.943-.481 1.741 1.741 0 0 0-.466-.283 2.45 2.45 0 0 0-.267.484 2.133 2.133 0 0 1-.583.844 2.136 2.136 0 0 1-.983.315 1.765 1.765 0 0 0-.551.136 2.682 2.682 0 0 0 .148.507 2.246 2.246 0 0 1 .185 1.041 2.235 2.235 0 0 1-.481.943 1.757 1.757 0 0 0-.283.466 2.577 2.577 0 0 0 .483.267 2.122 2.122 0 0 1 .847.586 2.13 2.13 0 0 1 .313.979 1.727 1.727 0 0 0 .137.552 1.893 1.893 0 0 0 .507-.147 2.689 2.689 0 0 1 .865-.2" style="fill:#333" transform="translate(5.395 .749)"/>
    </g>
</svg>
