<svg xmlns="http://www.w3.org/2000/svg" width="44" height="44" viewBox="0 0 44 44">
    <path data-name="사각형 10579" style="fill:none" d="M0 0h44v44H0z"/>
    <g data-name="그룹 57965">
        <path data-name="패스 64805" d="M1.278 17.37a5.776 5.776 0 1 1 5.777 5.776 5.777 5.777 0 0 1-5.777-5.776" transform="translate(6.555 6.755)" style="opacity:.7;fill:#7e4f40"/>
        <path data-name="패스 64806" d="M10.443 1.094a2.188 2.188 0 0 0-2.175 1.957 2.3 2.3 0 0 0-.012.231H7.162V3.12A3.281 3.281 0 0 1 10.443 0h15.685a3.281 3.281 0 0 1 3.281 3.281v21.247a3.281 3.281 0 0 1-3.281 3.281h-3.85l.7-1.094h3.15a2.187 2.187 0 0 0 2.188-2.188V3.281a2.187 2.187 0 0 0-2.188-2.188z" transform="translate(7.722 6.76)" style="fill:#333"/>
        <path data-name="패스 64807" d="M17.748 30.274c-1.682 0-3.359-.009-5-.017h-1.6c-.875 0-1.785.007-2.68-.02a3.652 3.652 0 0 1-3.116-1.366 5.891 5.891 0 0 1-.852-3.428.547.547 0 0 1 1.094 0 4.912 4.912 0 0 0 .646 2.8 2.625 2.625 0 0 0 2.253.9c.874.026 1.776.023 2.644.02h1.613c2.637.014 5.359.028 8.047.005.961-1.2 2-2.37 3.008-3.508.469-.529.954-1.076 1.422-1.618V4.5a1.006 1.006 0 0 0-.664-1.008 2.287 2.287 0 0 0-.772-.175c-.337 0-12.359.086-15.632 0a2.93 2.93 0 0 0-2.2.613 1.288 1.288 0 0 0-.359.912.37.37 0 0 1 0 .049v5a.547.547 0 0 1-1.094 0V4.91a2.371 2.371 0 0 1 .635-1.71 3.858 3.858 0 0 1 3.045-.973c3.28.086 15.48 0 15.6 0h.014a3.3 3.3 0 0 1 1.2.263 2.1 2.1 0 0 1 1.312 2.01v19.746a.551.551 0 0 1-.133.358c-.516.6-1.048 1.2-1.564 1.782-1.056 1.191-2.146 2.424-3.136 3.668a.546.546 0 0 1-.423.207c-1.085.01-2.2.014-3.308.014" transform="translate(7.472 6.966)" style="fill:#333"/>
        <path data-name="패스 64808" d="M18.4 26.33a.546.546 0 0 1-.547-.547v-2.661a1.931 1.931 0 0 1 .591-1.508 1.967 1.967 0 0 1 1.411-.451h2.261a.547.547 0 0 1 0 1.094h-2.287a.532.532 0 0 1-.059 0 .883.883 0 0 0-.6.178.9.9 0 0 0-.22.689v2.661a.546.546 0 0 1-.549.545" transform="translate(8.726 8.745)" style="fill:#333"/>
        <path data-name="패스 64809" d="M22.068 8.777h-5.142a.547.547 0 0 1 0-1.094h5.142a.547.547 0 0 1 0 1.094" transform="translate(8.588 7.481)" style="fill:#7e4f40"/>
        <path data-name="패스 64810" d="M22.025 11.825h-4.6a.547.547 0 1 1 0-1.094h4.6a.547.547 0 1 1 0 1.094" transform="translate(8.634 7.767)" style="fill:#7e4f40"/>
        <path data-name="패스 64811" d="M22.068 14.874h-5.142a.547.547 0 0 1 0-1.094h5.142a.547.547 0 1 1 0 1.094" transform="translate(8.588 8.053)" style="fill:#7e4f40"/>
        <path data-name="패스 64812" d="M22.419 17.923h-9.2a.547.547 0 1 1 0-1.094h9.2a.547.547 0 0 1 0 1.094" transform="translate(8.24 8.338)" style="fill:#7e4f40"/>
        <path data-name="선 3354" transform="translate(12.646 20.244)" style="stroke-linecap:round;stroke-linejoin:round;stroke:#fff;fill:none" d="M0 0v5.134"/>
        <path data-name="선 3355" transform="translate(10.079 22.811)" style="stroke-linecap:round;stroke-linejoin:round;stroke:#fff;fill:none" d="M5.134 0H0"/>
        <path data-name="패스 64813" d="M.5 16.537a5.776 5.776 0 1 1 5.777 5.776A5.777 5.777 0 0 1 .5 16.537z" transform="translate(6.371 6.274)" style="stroke:#333;stroke-linecap:round;stroke-linejoin:round;fill:none"/>
    </g>
</svg>
