<svg xmlns="http://www.w3.org/2000/svg" width="44" height="44" viewBox="0 0 44 44">
    <path data-name="사각형 10579" style="fill:none" d="M0 0h44v44H0z"/>
    <g data-name="그룹 33549">
        <path data-name="패스 53871" d="M216.18 302.4v-15.119s2.433-4.015 5.849-4.178c0 0 .984 8.571 15.762 7.367 0 0 3.011-.423 3.011 3.508v8.385z" transform="translate(-209.403 -265.123)" style="fill:#7e4f40;opacity:.7"/>
        <path data-name="타원 1316" d="M4.568-.5a5.218 5.218 0 0 1 5.069 5.344 5.218 5.218 0 0 1-5.068 5.344A5.218 5.218 0 0 1-.5 4.844 5.218 5.218 0 0 1 4.568-.5zm0 9.689a4.218 4.218 0 0 0 4.069-4.345A4.218 4.218 0 0 0 4.568.5 4.218 4.218 0 0 0 .5 4.844a4.218 4.218 0 0 0 4.068 4.345z" transform="translate(17.318 3.722)" style="fill:#333"/>
        <path data-name="패스 53872" d="M250.874 303.3a.5.5 0 0 1-.5-.5v-5.363a15.168 15.168 0 0 0-15.152-15.151h-6.181a15.168 15.168 0 0 0-15.151 15.151v5.363a.5.5 0 0 1-1 0v-5.363a15.955 15.955 0 0 1 1.275-6.272 16.3 16.3 0 0 1 8.6-8.6 15.955 15.955 0 0 1 6.273-1.275h6.181a15.956 15.956 0 0 1 6.273 1.275 16.3 16.3 0 0 1 8.6 8.6 15.953 15.953 0 0 1 1.275 6.272v5.363a.5.5 0 0 1-.493.5z" transform="translate(-210.245 -265.52)" style="fill:#333"/>
        <path data-name="패스 53873" d="M230.266 289.625a.5.5 0 0 1-.167-.971 8.717 8.717 0 0 0 5.493-6.044.5.5 0 0 1 .97.241 9.662 9.662 0 0 1-6.13 6.746.5.5 0 0 1-.166.028z" transform="translate(-205.155 -265.235)" style="fill:#333"/>
        <path data-name="패스 53874" d="M216.18 301.988a.5.5 0 0 1-.5-.5v-15.357a.5.5 0 0 1 1 0v15.358a.5.5 0 0 1-.5.499z" transform="translate(-209.403 -264.21)" style="fill:#333"/>
        <path data-name="선 1035" d="M0 15.725a.5.5 0 0 1-.5-.5V0A.5.5 0 0 1 0-.5a.5.5 0 0 1 .5.5v15.225a.5.5 0 0 1-.5.5z" transform="translate(36.784 21.966)" style="fill:#333"/>
        <path data-name="패스 53876" d="M239.246 302.885a.5.5 0 0 1-.5-.5v-9.674a1.709 1.709 0 0 0-1.746-1.668h-1.6l-.765.018h-.005a22.845 22.845 0 0 1-8.085-1.159 11.014 11.014 0 0 1-4.367-2.785 7.349 7.349 0 0 1-2.04-4.228.5.5 0 0 1 1-.056 6.506 6.506 0 0 0 1.824 3.656c2.267 2.406 6.3 3.641 11.655 3.572l.768-.018H237a2.71 2.71 0 0 1 2.744 2.668v9.674a.5.5 0 0 1-.498.5z" transform="translate(-208.058 -265.195)" style="fill:#333"/>
        <path data-name="패스 53877" d="m224.8 298.721-1.294-1.04a7.049 7.049 0 0 1 1.113-1.453 10.669 10.669 0 0 1 2.011-1.7c.3-.229 1.164-.747 1.41-1.272a1.381 1.381 0 0 0-.121-1.369 1.506 1.506 0 0 0-1.437-.454c-.678.159-1.088.741-1.475 1.827a5.273 5.273 0 0 1-.958 1.822 3.31 3.31 0 0 1-1.489.948 3.073 3.073 0 0 1-1.52.061 2.952 2.952 0 0 1-1.345-.681 3.373 3.373 0 0 1-1.084-2.4 3.018 3.018 0 0 1 .994-2.277 3.069 3.069 0 0 1 1.532-.823 2.84 2.84 0 0 1 1.377.081 3.557 3.557 0 0 1 1.285.713l-1.039 1.13h.005a2.058 2.058 0 0 0-.735-.389 1.345 1.345 0 0 0-1.371.4 1.5 1.5 0 0 0-.513 1.139 1.838 1.838 0 0 0 .571 1.276 1.479 1.479 0 0 0 1.4.293c.385-.115.983-.518 1.4-1.7a5.35 5.35 0 0 1 1.031-1.985 3.118 3.118 0 0 1 1.576-.938 3.038 3.038 0 0 1 2.939.935 2.676 2.676 0 0 1 .7 1.978 2.891 2.891 0 0 1-1.043 1.949c-.584.534-1.365.981-2.211 1.813a8.712 8.712 0 0 0-1.713 2.111" transform="translate(-208.671 -263.085)" style="fill:#fff"/>
    </g>
</svg>
