<svg xmlns="http://www.w3.org/2000/svg" width="44" height="44" viewBox="0 0 44 44">
    <path data-name="사각형 10579" style="fill:none" d="M0 0h44v44H0z"/>
    <g data-name="그룹 33525">
        <path data-name="패스 53783" d="M206.3 403.092a.5.5 0 0 1-.5-.5v-.607a2.817 2.817 0 0 1 2.814-2.813h12.806a.5.5 0 1 1 0 1h-12.805a1.816 1.816 0 0 0-1.814 1.813v.607a.5.5 0 0 1-.501.5z" transform="translate(-200.668 -374.454)" style="fill:#333"/>
        <path data-name="패스 53784" d="M238.841 403.1a.5.5 0 0 1-.5-.5v-.617a1.816 1.816 0 0 0-1.814-1.813h-10.194a.5.5 0 0 1 0-1h10.194a2.817 2.817 0 0 1 2.814 2.813v.617a.5.5 0 0 1-.5.5z" transform="translate(-200.324 -374.454)" style="fill:#333"/>
        <path data-name="선 1011" d="M3.619.5H0A.5.5 0 0 1-.5 0 .5.5 0 0 1 0-.5h3.619a.5.5 0 0 1 .5.5.5.5 0 0 1-.5.5z" transform="translate(22.39 25.217)" style="fill:#333"/>
        <g data-name="그룹 33524">
            <path data-name="패스 53785" d="M209.8 411.565a2.142 2.142 0 0 1-2.14-2.14v-2.591a.5.5 0 0 1 .5-.5h3.279a.5.5 0 0 1 .5.5v2.591a2.142 2.142 0 0 1-2.139 2.14zm-1.14-4.23v2.091a1.14 1.14 0 1 0 2.279 0v-2.091z" transform="translate(-200.636 -374.331)" style="fill:#333"/>
            <path data-name="패스 53786" d="M235.182 411.565a2.142 2.142 0 0 1-2.14-2.14v-2.591a.5.5 0 0 1 .5-.5h3.28a.5.5 0 0 1 .5.5v2.591a2.143 2.143 0 0 1-2.14 2.14zm-1.14-4.23v2.091a1.14 1.14 0 0 0 2.28 0v-2.091z" transform="translate(-200.2 -374.331)" style="fill:#333"/>
        </g>
        <path data-name="타원 1303" d="M2.442-.5A2.942 2.942 0 1 1-.5 2.442 2.945 2.945 0 0 1 2.442-.5zm0 4.884A1.942 1.942 0 1 0 .5 2.442a1.944 1.944 0 0 0 1.942 1.942z" transform="translate(7.276 19.747)" style="fill:#333"/>
        <path data-name="타원 1304" d="M2.442-.5A2.942 2.942 0 1 1-.5 2.442 2.945 2.945 0 0 1 2.442-.5zm0 4.884A1.942 1.942 0 1 0 .5 2.442a1.944 1.944 0 0 0 1.942 1.942z" transform="translate(25.085 7.755)" style="fill:#333"/>
        <path data-name="패스 53787" d="M214.532 400.131a.5.5 0 0 1-.5-.5v-5.265a.5.5 0 0 1 .5-.5h9.44a.5.5 0 1 1 0 1h-8.94v4.765a.5.5 0 0 1-.5.5z" transform="translate(-200.526 -374.545)" style="fill:#333"/>
        <path data-name="패스 53788" d="M235.756 400.117a.5.5 0 0 1-.5-.5v-1.432a3.317 3.317 0 0 0-1.276-2.623.5.5 0 1 1 .618-.786 4.311 4.311 0 0 1 1.658 3.409v1.432a.5.5 0 0 1-.5.5z" transform="translate(-200.187 -374.531)" style="fill:#333"/>
        <path data-name="패스 53790" d="M240.778 407.58h-35.963a2.169 2.169 0 0 1-.508-.064 2.137 2.137 0 0 1-1.837-2.107V390.97a2.137 2.137 0 0 1 4.273 0v11.436h32V390.97a2.137 2.137 0 0 1 4.273 0v7.755a.5.5 0 0 1-1 0v-7.755a1.137 1.137 0 0 0-2.273 0v11.936a.5.5 0 0 1-.5.5h-33a.5.5 0 0 1-.5-.5V390.97a1.137 1.137 0 0 0-2.273 0v14.439a1.135 1.135 0 0 0 .994 1.119.5.5 0 0 1 .058.011 1.2 1.2 0 0 0 .294.041h35.963a1.232 1.232 0 0 0 .5-.11l.017-.007a1.15 1.15 0 0 0 .7-.86v-.015a1.253 1.253 0 0 0 .027-.259v-.658a.9.9 0 0 1-.009-.1v-3.556a.5.5 0 0 1 1 0v3.519a.862.862 0 0 1 .009.119v.672a2.271 2.271 0 0 1-.047.456 2.158 2.158 0 0 1-1.3 1.6 2.224 2.224 0 0 1-.898.199z" transform="translate(-200.725 -374.632)" style="fill:#333"/>
        <path data-name="패스 53791" d="M235.789 393.382a.5.5 0 0 1-.451-.284 12.57 12.57 0 0 0-3.279-4.2.5.5 0 0 1 .639-.769 13.578 13.578 0 0 1 3.542 4.539.5.5 0 0 1-.451.716z" transform="translate(-200.22 -374.646)" style="fill:#7e4f40"/>
        <path data-name="패스 53792" d="M232.39 389.02a.5.5 0 0 1-.32-.116c-.21-.175-.437-.352-.676-.524a.5.5 0 0 1 .585-.811c.257.186.5.376.732.567a.5.5 0 0 1-.321.884z" transform="translate(-200.232 -374.655)" style="fill:#7e4f40"/>
        <path data-name="패스 53793" d="M215.273 389.882a.5.5 0 0 1-.339-.868 13.322 13.322 0 0 1 7.807-3.488.5.5 0 0 1 .1 1 12.33 12.33 0 0 0-7.225 3.229.5.5 0 0 1-.343.127z" transform="translate(-200.514 -374.689)" style="fill:#7e4f40"/>
        <path data-name="패스 53794" d="M215.784 387.358a.5.5 0 0 1-.339-.868 9.476 9.476 0 0 1 5.55-2.48.5.5 0 0 1 .1 1 8.483 8.483 0 0 0-4.969 2.221.5.5 0 0 1-.342.127z" transform="translate(-200.505 -374.715)" style="fill:#7e4f40"/>
        <path data-name="패스 53795" d="M215.643 394.785a.5.5 0 0 1-.494-.429 2.231 2.231 0 0 1 1.334-2.369l3.24-1.376 1.864-2.321a2.212 2.212 0 0 1 1.426-.81.5.5 0 0 1 .137.991 1.216 1.216 0 0 0-.783.445l-1.943 2.419a.5.5 0 0 1-.194.147l-3.356 1.425a1.23 1.23 0 0 0-.735 1.307.5.5 0 0 1-.5.571z" transform="translate(-200.508 -374.655)" style="fill:#333"/>
        <path data-name="패스 53796" d="M228.836 389.42a.5.5 0 0 1-.109-.012l-4.671-1.038a1.556 1.556 0 0 0-.916.071.5.5 0 0 1-.369-.929 2.552 2.552 0 0 1 1.5-.118l4.671 1.037a.5.5 0 0 1-.108.988z" transform="translate(-200.382 -374.658)" style="fill:#333"/>
        <path data-name="패스 53797" d="M226.906 397.991a2.224 2.224 0 0 1-.827-4.291l2.414-.963-.263-.4a.5.5 0 0 1 .832-.555l.605.908a.5.5 0 0 1-.231.742l-2.986 1.191a1.225 1.225 0 0 0 .907 2.275l4.816-1.92.045-.016a1.138 1.138 0 0 0 .67-.482v-.007a1.212 1.212 0 0 0-.111-1.538.5.5 0 0 1-.051-.064l-1.632-2.447a1.218 1.218 0 0 0-.744-.514.5.5 0 0 1 .225-.974 2.213 2.213 0 0 1 1.352.935l1.61 2.414a2.222 2.222 0 0 1-1.02 3.63l-4.8 1.912a2.217 2.217 0 0 1-.811.164z" transform="translate(-200.344 -374.63)" style="fill:#333"/>
    </g>
</svg>
