<svg xmlns="http://www.w3.org/2000/svg" width="44" height="44" viewBox="0 0 44 44">
    <path data-name="사각형 10579" style="fill:none" d="M0 0h44v44H0z"/>
    <g data-name="그룹 33529">
        <path data-name="타원 1305" d="M3.268-.5A3.768 3.768 0 1 1-.5 3.268 3.772 3.772 0 0 1 3.268-.5zm0 6.536A2.768 2.768 0 1 0 .5 3.268a2.771 2.771 0 0 0 2.768 2.768z" transform="translate(18.826 11)" style="fill:#333"/>
        <g data-name="그룹 33530">
            <path data-name="패스 53805" d="M63.433 365.725a1.255 1.255 0 1 0 2.51 0V363.9h-2.51z" transform="translate(-33.977 -353.953)" style="fill:#7e4f40;opacity:.7"/>
            <path data-name="패스 53806" d="M68.732 363.9v1.825a1.255 1.255 0 1 0 2.51 0V363.9z" transform="translate(-32.974 -353.953)" style="fill:#7e4f40;opacity:.7"/>
            <path data-name="선 1020" d="M0 15.883a.5.5 0 0 1-.5-.5V0A.5.5 0 0 1 0-.5a.5.5 0 0 1 .5.5v15.383a.5.5 0 0 1-.5.5z" transform="translate(33.096 1.896)" style="fill:#333"/>
            <path data-name="패스 53807" d="M70.071 362.715a.5.5 0 0 1-.5-.5V359.7H64.4v2.515a.5.5 0 0 1-1 0V359.2a.5.5 0 0 1 .5-.5h6.171a.5.5 0 0 1 .5.5v3.015a.5.5 0 0 1-.5.5z" transform="translate(-33.89 -354.842)" style="fill:#333"/>
            <path data-name="사각형 10606" d="M1.055-.5h.4A1.557 1.557 0 0 1 3.01 1.055v2.536a1.557 1.557 0 0 1-1.555 1.556h-.4A1.557 1.557 0 0 1-.5 3.591V1.055A1.557 1.557 0 0 1 1.055-.5zm.4 4.647a.556.556 0 0 0 .555-.555V1.055A.556.556 0 0 0 1.455.5h-.4a.556.556 0 0 0-.555.555v2.536a.556.556 0 0 0 .555.555z" transform="translate(28.626 7.915)" style="fill:#333"/>
            <path data-name="사각형 10607" d="M1.055-.5h.4A1.557 1.557 0 0 1 3.01 1.055v2.536a1.557 1.557 0 0 1-1.555 1.556h-.4A1.557 1.557 0 0 1-.5 3.591V1.055A1.557 1.557 0 0 1 1.055-.5zm.4 4.647a.556.556 0 0 0 .555-.555V1.055A.556.556 0 0 0 1.455.5h-.4a.556.556 0 0 0-.555.555v2.536a.556.556 0 0 0 .555.555z" transform="translate(34.927 7.915)" style="fill:#333"/>
        </g>
        <path data-name="패스 53808" d="M54.67 366.409a8.181 8.181 0 0 0 0 2.97c.351.75 7.6-3.142 8.054-2.97 0 0-1-1.788-1.551-1.935s-4.302.814-6.503 1.935z" transform="translate(-36.727 -353.847)" style="fill:#7e4f40;opacity:.7"/>
        <path data-name="패스 53809" d="M57.637 389.016h-1.878a.5.5 0 0 1 0-1h1.878a2.739 2.739 0 0 0 1.114-5.242.5.5 0 1 1 .41-.912 3.739 3.739 0 0 1-1.524 7.154z" transform="translate(-36.491 -350.469)" style="fill:#333"/>
        <path data-name="패스 53810" d="M46.546 380.781a.5.5 0 0 1-.47-.67l1.679-4.654a3.709 3.709 0 0 1 1.312-1.747.5.5 0 0 1 .588.809 2.712 2.712 0 0 0-.955 1.281l-1.679 4.654a.5.5 0 0 1-.475.327z" transform="translate(-38.234 -352.021)" style="fill:#333"/>
        <path data-name="선 1021" d="M1.128 7.119A.5.5 0 0 1 .635 6.7L-.493.084a.5.5 0 0 1 .409-.577.5.5 0 0 1 .577.409l1.128 6.619a.5.5 0 0 1-.493.584z" transform="translate(28.176 29.39)" style="fill:#333"/>
        <path data-name="패스 53812" d="M68.3 372.937c.314.327-.6 1.84-.6 1.84L59.28 391.1a2.587 2.587 0 0 1-2.042 1.347H50c-3.209 0-4.327-1.347-4.327-1.347a3.507 3.507 0 0 1-.535-3.994s5.208-8.7 19.031-14.7a9.746 9.746 0 0 1 4.137.529" transform="translate(-38.574 -352.348)" style="fill:#7e4f40;opacity:.7"/>
        <path data-name="패스 53813" d="M70.539 387.637a.5.5 0 0 1-.492-.416l-1.783-10.457c-.445-1.423-1.779-2.5-3.966-3.213a.5.5 0 1 1 .308-.951c2.514.815 4.066 2.117 4.612 3.868a.956.956 0 0 1 .029.12l1.784 10.465a.5.5 0 0 1-.493.584z" transform="translate(-34.847 -352.217)" style="fill:#333"/>
        <path data-name="패스 53814" d="M48.993 374.907A.5.5 0 0 1 48.7 374a13.95 13.95 0 0 1 8.184-2.239.577.577 0 0 1 .086 0 .5.5 0 0 1-.075 1h-.035a13.113 13.113 0 0 0-7.575 2.05.5.5 0 0 1-.292.096z" transform="translate(-37.771 -352.373)" style="fill:#333"/>
        <path data-name="패스 53815" d="M63.706 371.287a9.7 9.7 0 0 1 3.584.593.5.5 0 0 1 .163.113c.38.4.152 1.06-.089 1.594a9.1 9.1 0 0 1-.436.834l-8.413 16.315-.013.024a3.083 3.083 0 0 1-2.466 1.593h-7.251c-3.152 0-4.461-1.255-4.679-1.491a4 4 0 0 1-.619-4.6l.006-.011a28.387 28.387 0 0 1 4.414-5.2 45.572 45.572 0 0 1 5.96-4.826 53.779 53.779 0 0 1 8.888-4.874.5.5 0 0 1 .169-.04c.261-.016.524-.024.782-.024zm2.925 1.418a9.7 9.7 0 0 0-2.925-.418c-.209 0-.422.006-.634.017a49.029 49.029 0 0 0-14.438 9.436 28.282 28.282 0 0 0-4.28 5.026 3 3 0 0 0 .435 3.367.374.374 0 0 1 .052.053c.052.057 1.113 1.168 3.943 1.168h7.238a2.093 2.093 0 0 0 1.61-1.088l8.414-16.317.016-.029a5.819 5.819 0 0 0 .57-1.22z" transform="translate(-38.803 -352.461)" style="fill:#333"/>
        <path data-name="패스 53816" d="M57.836 382.581h-7.047a.5.5 0 0 1 0-1h7.048a.5.5 0 0 1 0 1z" transform="translate(-37.431 -350.514)" style="fill:#333"/>
        <path data-name="패스 53817" d="M58.774 382.863a.5.5 0 0 1-.2-.044 2.706 2.706 0 0 0-1.114-.238h-.741a.5.5 0 0 1 0-1h.741a3.7 3.7 0 0 1 1.523.326.5.5 0 0 1-.2.956z" transform="translate(-36.31 -350.514)" style="fill:#333"/>
    </g>
</svg>
