<svg xmlns="http://www.w3.org/2000/svg" width="44" height="44" viewBox="0 0 44 44">
    <path data-name="사각형 10579" style="fill:none" d="M0 0h44v44H0z"/>
    <g data-name="그룹 33468" transform="translate(-166.996 -582.979)">
        <path data-name="패스 53573" d="M189.116 622.467q-.152 0-.306-.015a3.107 3.107 0 0 1-2.207-1.263.5.5 0 0 1 .808-.589 2.1 2.1 0 0 0 2.326.772.5.5 0 1 1 .3.955 3.079 3.079 0 0 1-.921.14z" transform="translate(-.437 2.096)" style="fill:#333"/>
        <path data-name="합치기 50" d="M17587.678 17847.258a.683.683 0 0 1-.68-.686v-2.414a1.18 1.18 0 0 1 2.359 0v2.414a.684.684 0 0 1-.682.686zm.318-1h.363v-2.1a.184.184 0 0 0-.18-.18.181.181 0 0 0-.184.18v2.1z" transform="translate(-17397.32 -17221.029)" style="fill:#7e4f40"/>
        <path data-name="패스 53576" d="M190.608 620.968h-.049a.5.5 0 0 1-.449-.546l.889-9.107a2.082 2.082 0 0 0-.13-.95.5.5 0 0 1-.031-.132l-.346-3.718a.5.5 0 1 1 1-.093l.34 3.653a3.069 3.069 0 0 1 .166 1.336l-.889 9.108a.5.5 0 0 1-.501.449z" transform="translate(.652 1.273)" style="fill:#333"/>
        <path data-name="타원 1280" d="M2.225-.5A2.725 2.725 0 1 1-.5 2.225 2.728 2.728 0 0 1 2.225-.5zm0 4.449A1.725 1.725 0 1 0 .5 2.225a1.727 1.727 0 0 0 1.725 1.724z" transform="translate(191.352 584.843)" style="fill:#333"/>
        <path data-name="패스 53577" d="M190.429 600.912a.5.5 0 0 1-.488-.611 58.248 58.248 0 0 0 1.135-6.966.5.5 0 1 1 1 .087 59.4 59.4 0 0 1-1.156 7.1.5.5 0 0 1-.491.39z" transform="translate(.642 .503)" style="fill:#333"/>
        <path data-name="패스 53578" d="M186.106 588.949a.5.5 0 0 1-.334-.872 5.033 5.033 0 0 1 3.326-1.094.5.5 0 1 1-.026 1 4.028 4.028 0 0 0-2.632.838.5.5 0 0 1-.334.128z" transform="translate(.387 .155)" style="fill:#333"/>
        <path data-name="패스 53579" d="M181.5 610.85a.5.5 0 0 1-.5-.454l-.546-5.879a.5.5 0 0 1 0-.065l.079-2.149a7.285 7.285 0 0 1 1.177-4.259.5.5 0 1 1 .778.628 6.545 6.545 0 0 0-.956 3.654v.01l-.078 2.121.546 5.843a.5.5 0 0 1-.452.544z" transform="translate(.084 .796)" style="fill:#333"/>
        <path data-name="패스 53580" d="M190.276 616.424a.5.5 0 0 1-.5-.5v-12.115a.941.941 0 0 0-.576-.867.5.5 0 1 1 .391-.921 1.939 1.939 0 0 1 1.186 1.787v12.116a.5.5 0 0 1-.501.5z" transform="translate(.581 1.039)" style="fill:#7e4f40"/>
        <path data-name="패스 53581" d="M185.224 604.306a.5.5 0 0 1-.5-.5 1.943 1.943 0 0 1 1.021-1.708.5.5 0 1 1 .477.879.944.944 0 0 0-.5.829.5.5 0 0 1-.498.5z" transform="translate(.335 1.042)" style="fill:#7e4f40"/>
        <path data-name="패스 53582" d="M195.041 620.047a.5.5 0 0 1-.5-.5v-8.514a1.466 1.466 0 0 0-1.464-1.465h-.933a.5.5 0 0 1 0-1h.933a2.468 2.468 0 0 1 2.464 2.465v8.514a.5.5 0 0 1-.5.5z" transform="translate(.743 1.426)" style="fill:#7e4f40"/>
        <path data-name="패스 53583" d="M194.933 615.183a.5.5 0 0 1-.5-.5v-12.115a.947.947 0 0 0-.619-.884.5.5 0 1 1 .346-.938 1.951 1.951 0 0 1 1.274 1.822v12.115a.5.5 0 0 1-.501.5z" transform="translate(.851 .964)" style="fill:#7e4f40"/>
        <path data-name="패스 53584" d="M189.877 603.065a.5.5 0 0 1-.5-.5 1.954 1.954 0 0 1 1.089-1.743.5.5 0 1 1 .44.9.948.948 0 0 0-.529.845.5.5 0 0 1-.5.498z" transform="translate(.609 .967)" style="fill:#7e4f40"/>
        <path data-name="패스 53585" d="M188.88 603.467h-2.129a1.094 1.094 0 0 1-1.031-.734.5.5 0 0 1 .944-.329.094.094 0 0 0 .087.063h2.129a.093.093 0 0 0 .092-.092.5.5 0 0 1 1 0 1.093 1.093 0 0 1-1.092 1.092z" transform="translate(.392 1.032)" style="fill:#7e4f40"/>
        <path data-name="패스 53586" d="M189.364 602.908a.5.5 0 0 1-.5-.5.093.093 0 0 0-.092-.092h-.742a.5.5 0 1 1 0-1h.742a1.093 1.093 0 0 1 1.092 1.092.5.5 0 0 1-.5.5z" transform="translate(.501 .999)" style="fill:#7e4f40"/>
        <path data-name="패스 53587" d="M193.535 602.224h-2.129a1.093 1.093 0 0 1-1.092-1.092.5.5 0 0 1 1 0 .093.093 0 0 0 .092.092h2.129a.093.093 0 0 0 .092-.092.5.5 0 0 1 1 0 1.093 1.093 0 0 1-1.092 1.092z" transform="translate(.665 .959)" style="fill:#7e4f40"/>
        <path data-name="패스 53588" d="M186.322 603.181a2.29 2.29 0 0 1-2.1-1.382l-2.4-5.6a2.272 2.272 0 0 1-.176-.775V595.227a2.258 2.258 0 0 1 .3-1.136l2.459-4.259a.5.5 0 1 1 .866.5l-2.459 4.259a1.273 1.273 0 0 0-.165.645v.123a1.3 1.3 0 0 0 .1.446l2.4 5.6a1.287 1.287 0 0 0 1.689.673 1.285 1.285 0 0 0 .673-1.688l-2.068-4.812a.5.5 0 0 1 .026-.447l2.614-4.527a.5.5 0 1 1 .866.5l-2.489 4.31 1.969 4.582a2.285 2.285 0 0 1-2.1 3.187z" transform="translate(.154 .309)" style="fill:#333"/>
        <path data-name="패스 53589" d="M192.275 601.982a2.278 2.278 0 0 1-1.172-.325.5.5 0 1 1 .514-.858 1.285 1.285 0 0 0 1.918-1.361l-.772-3.766a.5.5 0 0 1-.009-.132l.253-4.015a1.28 1.28 0 0 0-.174-.73.5.5 0 1 1 .863-.505 2.277 2.277 0 0 1 .309 1.3l-.249 3.949.759 3.7a2.288 2.288 0 0 1-2.24 2.745z" transform="translate(.697 .336)" style="fill:#333"/>
        <path data-name="패스 53590" d="M182.218 623.161a.5.5 0 0 1-.048-1 2.1 2.1 0 0 0 1.839-1.6l2.052-8.577a.5.5 0 0 1 .025-.076 2.1 2.1 0 0 0 .152-1l-.577-6.2a.5.5 0 1 1 1-.093l.577 6.2a3.1 3.1 0 0 1-.209 1.439l-2.043 8.54a3.1 3.1 0 0 1-2.716 2.365z" transform="translate(.159 1.167)" style="fill:#333"/>
        <path data-name="패스 53591" d="M179.826 621.118a.5.5 0 0 1-.443-.267 3.1 3.1 0 0 1-.273-2.166l.68-2.84a.5.5 0 1 1 .973.233l-.68 2.84a2.1 2.1 0 0 0 .185 1.466.5.5 0 0 1-.442.733z" transform="translate(0 1.832)" style="fill:#333"/>
        <path data-name="패스 53592" d="M190.775 621.45a.5.5 0 0 1-.5-.5v-8.675a1.466 1.466 0 0 0-1.464-1.464h-5.925a1.466 1.466 0 0 0-1.464 1.464v8.675a.5.5 0 0 1-1 0v-8.675a2.467 2.467 0 0 1 2.464-2.464h5.925a2.467 2.467 0 0 1 2.464 2.464v8.675a.5.5 0 0 1-.5.5z" transform="translate(.082 1.499)" style="fill:#7e4f40"/>
        <path data-name="패스 53593" d="M186.19 621.632a.5.5 0 0 1-.407-.209 3.1 3.1 0 0 1-.562-2.1l.23-2.348a.5.5 0 1 1 1 .1l-.23 2.348a2.1 2.1 0 0 0 .38 1.423.5.5 0 0 1-.406.791z" transform="translate(.364 1.895)" style="fill:#333"/>
        <circle data-name="타원 1281" cx="3.118" cy="3.118" r="3.118" transform="translate(182.953 600.881)" style="opacity:.7;fill:#7e4f40"/>
        <circle data-name="타원 1282" cx="3.118" cy="3.118" r="3.118" transform="translate(190.049 599.12)" style="opacity:.7;fill:#7e4f40"/>
        <path data-name="패스 53596" d="M195.6 622.059a.5.5 0 0 1-.5-.5v-1.915a.181.181 0 0 0-.363 0v1.915a.5.5 0 0 1-1 0v-1.915a1.181 1.181 0 0 1 2.363 0v1.915a.5.5 0 0 1-.5.5z" transform="translate(.866 2.009)" style="fill:#7e4f40"/>
        <path data-name="패스 53597" d="M195.418 622.65h-1a.682.682 0 0 1-.681-.682v-1.39a.5.5 0 0 1 1 0v1.073h.363v-1.139a.5.5 0 0 1 1 0v1.457a.683.683 0 0 1-.682.681z" transform="translate(.866 2.1)" style="fill:#7e4f40"/>
        <path data-name="선 923" d="M0 1.978a.5.5 0 0 1-.478-.356A.5.5 0 0 1-.145 1L4.749-.479a.5.5 0 0 1 .623.334.5.5 0 0 1-.334.623L.145 1.957A.5.5 0 0 1 0 1.978z" transform="translate(190.891 605.377)" style="fill:#7e4f40"/>
        <path data-name="합치기 49" d="M17587.682 17847.258a.684.684 0 0 1-.68-.686v-.43a.379.379 0 0 1 0-.066v-1.918a1.18 1.18 0 0 1 2.359 0v.893a.379.379 0 0 1 0 .066v1.455a.684.684 0 0 1-.68.686zm.318-2.074v1.076h.363v-.117a.379.379 0 0 1 0-.066v-1.918a.184.184 0 0 0-.18-.18.181.181 0 0 0-.184.18v.959l.001.066z" transform="translate(-17407.174 -17221.029)" style="fill:#7e4f40"/>
    </g>
</svg>
