<svg xmlns="http://www.w3.org/2000/svg" width="44" height="44" viewBox="0 0 44 44">
    <path data-name="사각형 14133" style="fill:none" d="M0 0h44v44H0z"/>
    <g data-name="그룹 59280" style="opacity:.7">
        <path data-name="패스 67503" d="M10.237 19.708a.5.5 0 0 0-.676.209l-.414.785a.5.5 0 1 0 .885.467l.414-.785a.5.5 0 0 0-.209-.676" style="fill:#7e4f40" transform="translate(5.106 3.7)"/>
        <path data-name="패스 67504" d="M18.022 19.708a.5.5 0 0 0-.676.209l-.933 1.769a.5.5 0 1 0 .884.466l.934-1.768a.5.5 0 0 0-.209-.676" style="fill:#7e4f40" transform="translate(5.106 3.7)"/>
        <path data-name="패스 67505" d="M12.017 23.546a.5.5 0 0 0-.676.209l-.182.347a.5.5 0 0 0 .209.675.488.488 0 0 0 .233.058.5.5 0 0 0 .442-.267l.183-.346a.5.5 0 0 0-.209-.676" style="fill:#7e4f40" transform="translate(5.106 3.7)"/>
        <path data-name="패스 67506" d="M13.884 20.008a.5.5 0 0 0-.676.209l-.933 1.77a.5.5 0 1 0 .884.466l.934-1.769a.5.5 0 0 0-.209-.676" style="fill:#7e4f40" transform="translate(5.106 3.7)"/>
        <path data-name="패스 67507" d="M20.149 23.411a.5.5 0 0 0-.676.209l-.182.347a.5.5 0 0 0 .209.675.49.49 0 0 0 .233.058.5.5 0 0 0 .442-.267l.183-.346a.5.5 0 0 0-.209-.676" style="fill:#7e4f40" transform="translate(5.106 3.7)"/>
        <path data-name="패스 67508" d="M22.016 19.873a.5.5 0 0 0-.676.209l-.933 1.77a.5.5 0 1 0 .884.466l.934-1.769a.5.5 0 0 0-.209-.676" style="fill:#7e4f40" transform="translate(5.106 3.7)"/>
        <path data-name="패스 67509" d="M25.687 12.712c-.024 0-.046.009-.068.009A2.486 2.486 0 0 0 22 9.312a2.4 2.4 0 0 0-.41.57c.007-.074.022-.144.022-.221a2.49 2.49 0 0 0-2.49-2.49 2.489 2.489 0 0 0-2.49 2.488c0 .077.022.147.022.221a2.342 2.342 0 0 0-.412-.57 2.485 2.485 0 1 0-3.614 3.412c-.024 0-.046-.008-.068-.008a2.49 2.49 0 0 0-2.491 2.486 2.475 2.475 0 0 0 .954 1.943l-.528 1a.5.5 0 1 0 .885.467l.537-1.018a2.471 2.471 0 0 0 .642.094h1.983l-.4.757a.5.5 0 0 0 .885.467l.646-1.223h2.848l-.241.456a.5.5 0 1 0 .885.467l.487-.922H22.6l-.327.62a.5.5 0 1 0 .885.467l.573-1.086h1.955a2.491 2.491 0 0 0 0-4.982" style="fill:#7e4f40" transform="translate(5.106 3.7)"/>
    </g>
    <path data-name="패스 67510" d="M10.37 17.03c-.055 0-.113 0-.171-.005a3.105 3.105 0 0 1-2.919-3.258A3.1 3.1 0 0 1 9.706 10.9a3.088 3.088 0 0 1 4.673-3.744 3.132 3.132 0 0 1 3.139-2.235 3.106 3.106 0 0 1 2.816 2.22 3.076 3.076 0 0 1 1.907-.632 3.04 3.04 0 0 1 2.148.928.5.5 0 1 1-.717.7 2.052 2.052 0 0 0-1.447-.625h-.031a2.041 2.041 0 0 0-1.431.581 2.076 2.076 0 0 0-.39.522.5.5 0 0 1-.584.247.5.5 0 0 1-.356-.524l.012-.108.01-.1a2.1 2.1 0 0 0-4.194-.219 1.513 1.513 0 0 0 0 .213l.009.113.012.1a.5.5 0 0 1-.937.284 2.086 2.086 0 0 0-3.664 1.994 2.123 2.123 0 0 0 .277.394.5.5 0 0 1 .082.537.548.548 0 0 1-.564.286 2.1 2.1 0 0 0-2.2 1.988 2.1 2.1 0 0 0 1.976 2.207 2.013 2.013 0 0 0 .233 0H24.2a2.1 2.1 0 0 0 2.1-2.1.5.5 0 0 1 1 0 3.1 3.1 0 0 1-3.1 3.1H10.37" style="fill:#333" transform="translate(5.106 3.7)"/>
    <path data-name="패스 67511" d="M12.036 34.13a.5.5 0 0 1-.492-.42 14.458 14.458 0 0 0-.2-.964c-.063-.28-.126-.561-.177-.842a.534.534 0 0 0-.2-.387.466.466 0 0 0-.356-.09 67.29 67.29 0 0 1-2.912 0h-.018A4.395 4.395 0 0 1 3.326 27.7c-.065-.342-.123-.7-.182-1.059-.1-.641-.213-1.3-.372-1.935a1.015 1.015 0 0 0-.485-.62C1 23.558.276 22.932.064 22.136s.087-1.629.957-2.748a8.035 8.035 0 0 0 1.674-4.859A12.878 12.878 0 0 1 15.261 2.447a.5.5 0 1 1 .026 1A11.874 11.874 0 0 0 3.694 14.565 9.021 9.021 0 0 1 1.811 20c-.642.825-.9 1.439-.78 1.878.121.455.689.894 1.689 1.3a2.048 2.048 0 0 1 1.021 1.27c.17.678.282 1.362.39 2.024.057.351.115.7.18 1.049a3.409 3.409 0 0 0 3.383 2.9h.018c.952.021 1.889.013 2.825 0a1.416 1.416 0 0 1 1.034.285 1.477 1.477 0 0 1 .579.974c.052.3.111.568.172.835.076.34.153.681.208 1.024a.5.5 0 0 1-.413.573.451.451 0 0 1-.081.007m12.865-.1a.5.5 0 0 1-.488-.4c-.111-.523-.217-1.046-.323-1.57s-.209-1.03-.317-1.544a6.481 6.481 0 0 1 .832-4.952 97.481 97.481 0 0 0 2.275-3.756 14 14 0 0 0 1.084-2.397.5.5 0 0 1 .947.32 14.976 14.976 0 0 1-1.162 2.587 98.244 98.244 0 0 1-2.3 3.8 5.493 5.493 0 0 0-.7 4.2c.112.53.216 1.047.321 1.565s.212 1.041.321 1.56a.5.5 0 0 1-.386.593.525.525 0 0 1-.1.011" style="fill:#333" transform="translate(5.106 3.7)"/>
    <path data-name="패스 67512" d="M24.942 13.367a.5.5 0 0 1-.474-.66l1.817-5.425-1.719-.463a.5.5 0 0 1-.316-.708L27.2.275a.5.5 0 0 1 .576-.257L30.685.8a.5.5 0 0 1 .3.743L28.629 5.4l1.812.486a.5.5 0 0 1 .255.8l-5.368 6.5a.5.5 0 0 1-.386.182m.478-7.354 1.638.441a.5.5 0 0 1 .342.645l-1.13 3.376 3.16-3.828-1.7-.457a.5.5 0 0 1-.3-.744l2.35-3.857-1.87-.5z" style="fill:#333" transform="translate(5.106 3.7)"/>
    <path data-name="패스 67513" d="M29.316 17.522a.5.5 0 0 1-.474-.658l1.231-3.7-1.062-.284a.5.5 0 0 1-.316-.709l2.09-4.132a.5.5 0 0 1 .576-.258l2.059.552a.5.5 0 0 1 .3.744l-1.566 2.564 1.095.294a.5.5 0 0 1 .256.8l-3.8 4.6a.5.5 0 0 1-.386.181m.549-5.445.98.262a.5.5 0 0 1 .345.641l-.552 1.657 1.6-1.934-.988-.266a.49.49 0 0 1-.334-.3.5.5 0 0 1 .037-.446l1.558-2.555-1.02-.274z" style="fill:#333" transform="translate(5.106 3.7)"/>
</svg>
