<svg xmlns="http://www.w3.org/2000/svg" width="44" height="44" viewBox="0 0 44 44">
    <g data-name="그룹 33412" transform="translate(1.796 1.678)">
        <circle data-name="타원 1257" cx="2.254" cy="2.254" r="2.254" transform="translate(0 31.185)" style="fill:#7e4f40;opacity:.7"/>
        <circle data-name="타원 1258" cx="2.254" cy="2.254" r="2.254" transform="translate(9.479)" style="fill:#7e4f40;opacity:.7"/>
        <circle data-name="타원 1263" cx="1.632" cy="1.632" r="1.632" transform="translate(36.943 10.01)" style="fill:#7e4f40;opacity:.7"/>
        <g data-name="그룹 33411" transform="translate(1.045 1.217)">
            <path data-name="패스 53462" d="M125.982 245.859a.5.5 0 0 1-.165-.028 13.893 13.893 0 0 1-8.521-8.512.5.5 0 0 1 .944-.33 12.963 12.963 0 0 0 7.906 7.9.5.5 0 0 1-.165.972z" transform="translate(-110.851 -213.262)" style="fill:#333"/>
            <path data-name="패스 53463" d="M130.137 245.839a.5.5 0 0 1-.165-.972 12.977 12.977 0 0 0 7.881-7.832.5.5 0 1 1 .942.335 13.9 13.9 0 0 1-8.493 8.441.5.5 0 0 1-.165.028z" transform="translate(-106.206 -213.243)" style="fill:#333"/>
            <path data-name="패스 53464" d="M138.469 233.528a.5.5 0 0 1-.472-.335 12.907 12.907 0 0 0-8.32-8.043.5.5 0 0 1 .3-.955 13.911 13.911 0 0 1 8.967 8.669.5.5 0 0 1-.472.665z" transform="translate(-106.323 -217.949)" style="fill:#333"/>
            <path data-name="패스 53465" d="M117.658 233.992a.5.5 0 0 1-.478-.648 13.887 13.887 0 0 1 9.26-9.181.5.5 0 0 1 .287.958 12.83 12.83 0 0 0-8.591 8.519.5.5 0 0 1-.478.352z" transform="translate(-110.892 -217.96)" style="fill:#333"/>
            <path data-name="패스 53467" d="M124.7 230.333a.5.5 0 0 1-.4-.8 5.414 5.414 0 0 0 .758-1.585 4.028 4.028 0 0 0-.409-3.361 3.953 3.953 0 0 1-.481-3.352c.439-1 1.491-1.647 3.128-1.921a2.893 2.893 0 0 1 .674-.014 4.042 4.042 0 0 1 3.139 1.646 3.6 3.6 0 0 1-.282 3.479 5.317 5.317 0 0 0-.344 1.661 4.057 4.057 0 0 0 1.159 3.134.5.5 0 0 1-.716.7 5.09 5.09 0 0 1-1.436-3.92 6.177 6.177 0 0 1 .43-1.99l.013-.027a2.712 2.712 0 0 0 .31-2.546c-.567-1-2.156-1.129-2.335-1.141a2.045 2.045 0 0 0-.444 0c-1.282.215-2.082.664-2.376 1.336a3.043 3.043 0 0 0 .407 2.41l.007.011a5.059 5.059 0 0 1 .509 4.207 6.322 6.322 0 0 1-.912 1.874.5.5 0 0 1-.399.199z" transform="translate(-108.341 -219.784)" style="fill:#333"/>
            <path data-name="패스 53468" d="M127.66 251.424a2.122 2.122 0 0 1-.363-.029c-1.634-.273-2.686-.919-3.125-1.919a3.952 3.952 0 0 1 .481-3.352c1.511-2.463-.33-4.922-.348-4.947a.5.5 0 0 1 .795-.607 6.328 6.328 0 0 1 .912 1.875 5.06 5.06 0 0 1-.509 4.208l-.007.011a3.015 3.015 0 0 0-.405 2.413c.3.67 1.095 1.118 2.376 1.332a1.966 1.966 0 0 0 .443 0 2.969 2.969 0 0 0 2.336-1.142 2.713 2.713 0 0 0-.311-2.544l-.013-.028a6.181 6.181 0 0 1-.429-1.99 5.088 5.088 0 0 1 1.44-3.916.5.5 0 1 1 .715.7 4.591 4.591 0 0 0-.815 4.8 3.6 3.6 0 0 1 .283 3.477 4.049 4.049 0 0 1-3.14 1.647c-.104.005-.209.011-.316.011z" transform="translate(-108.341 -211.865)" style="fill:#333"/>
            <path data-name="패스 53469" d="M134.1 238.833a.5.5 0 0 1-.349-.858 5.088 5.088 0 0 1 3.916-1.44 6.18 6.18 0 0 1 1.99.429l.028.013a2.712 2.712 0 0 0 2.544.311 2.968 2.968 0 0 0 1.142-2.336 1.972 1.972 0 0 0 0-.44c-.215-1.283-.663-2.083-1.332-2.378a3.016 3.016 0 0 0-2.414.406l-.01.007a5.06 5.06 0 0 1-4.208.509 6.327 6.327 0 0 1-1.875-.912.5.5 0 0 1 .606-.8 5.418 5.418 0 0 0 1.586.758 4.029 4.029 0 0 0 3.362-.409 3.952 3.952 0 0 1 3.352-.481c1 .439 1.646 1.491 1.92 3.128a2.82 2.82 0 0 1 .015.674 4.048 4.048 0 0 1-1.647 3.14 3.6 3.6 0 0 1-3.477-.282 5.32 5.32 0 0 0-1.662-.344 4.054 4.054 0 0 0-3.134 1.159.5.5 0 0 1-.353.146z" transform="translate(-104.82 -215.386)" style="fill:#333"/>
            <path data-name="패스 53470" d="M122.521 238.833a.5.5 0 0 1-.349-.142 4.057 4.057 0 0 0-3.134-1.159 5.317 5.317 0 0 0-1.662.344 3.6 3.6 0 0 1-3.478.281 4.043 4.043 0 0 1-1.646-3.14 2.89 2.89 0 0 1 .014-.672c.275-1.638.921-2.69 1.921-3.129a3.953 3.953 0 0 1 3.352.481 4.63 4.63 0 0 0 4.945-.348.5.5 0 0 1 .607.794 6.322 6.322 0 0 1-1.874.912 5.059 5.059 0 0 1-4.207-.509l-.011-.007a3.016 3.016 0 0 0-2.414-.405c-.67.3-1.118 1.095-1.333 2.376a2.043 2.043 0 0 0 0 .443c.012.18.143 1.769 1.141 2.336a2.712 2.712 0 0 0 2.546-.31l.027-.013a6.176 6.176 0 0 1 1.99-.43 5.09 5.09 0 0 1 3.917 1.44.5.5 0 0 1-.349.858z" transform="translate(-112.739 -215.386)" style="fill:#333"/>
            <path data-name="패스 53471" d="M135.327 230.064h-.012a.5.5 0 0 1-.488-.512 3.67 3.67 0 0 1 2.325-3.208l.029-.01c.454-.14 1.023-.4 1.153-.848a1.725 1.725 0 0 0-.473-1.373 1.176 1.176 0 0 0-.165-.169 1.76 1.76 0 0 0-1.462-.456 1.668 1.668 0 0 0-.786 1.1v.013a3.685 3.685 0 0 1-3.06 2.621.5.5 0 0 1-.122-.993 2.685 2.685 0 0 0 2.211-1.868 2.666 2.666 0 0 1 1.407-1.813 2.54 2.54 0 0 1 2.406.585 2.024 2.024 0 0 1 .333.324 2.627 2.627 0 0 1 .675 2.3 2.419 2.419 0 0 1-1.8 1.52 2.661 2.661 0 0 0-1.667 2.292.5.5 0 0 1-.504.495z" transform="translate(-105.385 -218.6)" style="fill:#333"/>
            <path data-name="패스 53472" d="M118.46 246.578a2.911 2.911 0 0 1-1.816-.765 1.945 1.945 0 0 1-.321-.338 2.537 2.537 0 0 1-.557-2.41 2.666 2.666 0 0 1 1.829-1.386 2.708 2.708 0 0 0 1.894-2.189.5.5 0 1 1 .991.132 3.685 3.685 0 0 1-2.658 3.031h-.013a1.659 1.659 0 0 0-1.113.775 1.764 1.764 0 0 0 .441 1.464 1.117 1.117 0 0 0 .166.166 1.723 1.723 0 0 0 1.367.49c.449-.124.716-.689.862-1.142l.01-.028a3.669 3.669 0 0 1 3.236-2.288.5.5 0 0 1 .012 1 2.66 2.66 0 0 0-2.312 1.642 2.419 2.419 0 0 1-1.542 1.781 1.787 1.787 0 0 1-.476.065z" transform="translate(-111.46 -212.36)" style="fill:#333"/>
            <path data-name="패스 53473" d="M136.98 246.807a1.783 1.783 0 0 1-.477-.063 2.42 2.42 0 0 1-1.541-1.781 2.66 2.66 0 0 0-2.311-1.641.5.5 0 0 1 .012-1 3.669 3.669 0 0 1 3.236 2.288l.01.028c.146.452.413 1.018.862 1.142a1.728 1.728 0 0 0 1.368-.49 1.261 1.261 0 0 0 .168-.169 1.756 1.756 0 0 0 .437-1.464 1.669 1.669 0 0 0-1.113-.773h-.013a3.684 3.684 0 0 1-2.658-3.03.5.5 0 0 1 .991-.134 2.686 2.686 0 0 0 1.894 2.189 2.667 2.667 0 0 1 1.83 1.386 2.538 2.538 0 0 1-.557 2.411 2.057 2.057 0 0 1-.318.335 2.922 2.922 0 0 1-1.82.766z" transform="translate(-105.26 -212.273)" style="fill:#333"/>
            <path data-name="패스 53474" d="M120.091 230.387a.5.5 0 0 1-.5-.48 2.66 2.66 0 0 0-1.706-2.265 2.419 2.419 0 0 1-1.822-1.491 2.629 2.629 0 0 1 .637-2.312 1.936 1.936 0 0 1 .33-.331 2.537 2.537 0 0 1 2.393-.622 2.666 2.666 0 0 1 1.436 1.79 2.7 2.7 0 0 0 2.241 1.832.5.5 0 0 1-.1.995 3.683 3.683 0 0 1-3.1-2.572v-.013a1.659 1.659 0 0 0-.806-1.091 1.764 1.764 0 0 0-1.451.481 1.159 1.159 0 0 0-.162.171 1.727 1.727 0 0 0-.451 1.381c.136.445.709.7 1.165.83l.028.009a3.669 3.669 0 0 1 2.378 3.17.5.5 0 0 1-.48.519z" transform="translate(-111.333 -218.471)" style="fill:#333"/>
            <circle data-name="타원 1264" cx="4.222" cy="4.222" r="4.222" transform="translate(13.59 15.525)" style="fill:#7e4f40;opacity:.7"/>
            <circle data-name="타원 1265" cx="2.325" cy="2.325" r="2.325" transform="translate(23.174 12.754)" style="fill:#7e4f40;opacity:.7"/>
            <circle data-name="타원 1266" cx="1.984" cy="1.984" r="1.984" transform="translate(22.897 23.877)" style="fill:#7e4f40;opacity:.7"/>
            <g data-name="그룹 33410">
                <path data-name="패스 53475" d="M125.734 238.9a4.328 4.328 0 0 1 0-8.656.5.5 0 0 1 0 1 3.325 3.325 0 1 0 2.748 1.451.5.5 0 0 1 .825-.565 4.33 4.33 0 0 1-3.574 6.77z" transform="translate(-109.297 -215.668)" style="fill:#333"/>
                <path data-name="패스 53476" d="M130.085 233.138a.5.5 0 0 1-.219-.051 2.606 2.606 0 1 1 2.374-.041.5.5 0 1 1-.471-.882 1.608 1.608 0 1 0-1.463.025.5.5 0 0 1-.22.949z" transform="translate(-106.669 -216.461)" style="fill:#333"/>
                <path data-name="패스 53477" d="M129.837 240.557a.5.5 0 0 1-.22-.051 2.3 2.3 0 1 1 3.075-1.056.5.5 0 0 1-.9-.44 1.3 1.3 0 0 0-2.334-1.14 1.3 1.3 0 0 0 .6 1.738.5.5 0 0 1-.22.949z" transform="translate(-106.698 -213.455)" style="fill:#333"/>
            </g>
        </g>
    </g>
    <path data-name="사각형 10579" style="fill:none" d="M0 0h44v44H0z"/>
</svg>
