<svg xmlns="http://www.w3.org/2000/svg" width="44" height="44" viewBox="0 0 44 44">
    <g transform="translate(-48.424 -694.424)">
        <path data-name="사각형 10579" transform="translate(48.424 694.424)" style="fill:none" d="M0 0h44v44H0z"/>
        <path data-name="패스 53863" d="M1802.653 648.565v5.965a8.043 8.043 0 1 0 3.48 0v-5.965l2.615 2.6 2.461-2.447-5.585-5.555a1.747 1.747 0 0 0-2.461 0l-5.584 5.555 2.46 2.447zm6.3 13.77a4.563 4.563 0 1 1-4.563-4.538 4.556 4.556 0 0 1 4.566 4.537z" transform="translate(-1733.928 60.417)" style="fill:#fff"/>
        <path data-name="패스 53863 - 윤곽선" d="M1804.393 642.157a2.26 2.26 0 0 1 1.582.652l5.585 5.555a.5.5 0 0 1 0 .709l-2.461 2.447a.5.5 0 0 1-.705 0l-1.763-1.753v4.37a8.6 8.6 0 0 1 4.389 2.844 8.542 8.542 0 1 1-13.256 0 8.6 8.6 0 0 1 4.388-2.844v-4.37l-1.762 1.753a.5.5 0 0 1-.705 0l-2.46-2.447a.5.5 0 0 1 0-.709l5.584-5.555a2.267 2.267 0 0 1 1.584-.652zm6.106 6.562-5.229-5.2a1.247 1.247 0 0 0-1.756 0l-5.227 5.2 1.751 1.742 2.262-2.25a.5.5 0 0 1 .853.354v5.965a.5.5 0 0 1-.392.488 7.543 7.543 0 1 0 3.264 0 .5.5 0 0 1-.392-.488v-5.965a.5.5 0 0 1 .853-.354l2.263 2.251zm-6.106 8.577a5.038 5.038 0 1 1-5.063 5.038 5.056 5.056 0 0 1 5.063-5.034zm0 9.076a4.038 4.038 0 1 0-4.063-4.038 4.055 4.055 0 0 0 4.063 4.038z" transform="translate(-1733.928 60.417)" style="fill:#333"/>
        <circle data-name="타원 1314" cx="4.709" cy="4.709" r="4.709" transform="translate(67.213 719.059)" style="fill:#7e4f40;opacity:.7"/>
    </g>
</svg>
