<svg xmlns="http://www.w3.org/2000/svg" width="50" height="50" viewBox="0 0 50 50">
    <path data-name="사각형 14468" style="fill:none" d="M0 0h50v50H0z"/>
    <g data-name="그룹 67624">
        <path data-name="패스 68143" d="m5.531 27.955-.04-.029" style="stroke-width:1.7px;stroke-linecap:round;stroke-linejoin:round;stroke:#7e4f40;fill:none" transform="translate(4.609 6.183)"/>
        <path data-name="패스 68144" d="M3.357 25.9a11.253 11.253 0 0 1 1.028-15.27" style="stroke-dasharray:.098 2.951;stroke-width:1.7px;stroke-linecap:round;stroke-linejoin:round;stroke:#7e4f40;fill:none" transform="translate(4.609 6.183)"/>
        <path data-name="패스 68145" d="m5.52 9.691.041-.029" style="stroke-width:1.7px;stroke-linecap:round;stroke-linejoin:round;stroke:#7e4f40;fill:none" transform="translate(4.609 6.183)"/>
        <path data-name="패스 68146" d="m35.251 9.683.041.029" style="stroke-width:1.7px;stroke-linecap:round;stroke-linejoin:round;stroke:#7e4f40;fill:none" transform="translate(4.609 6.183)"/>
        <path data-name="패스 68147" d="M37.426 11.739a11.255 11.255 0 0 1-1.026 15.27" style="stroke-dasharray:.098 2.95;stroke-width:1.7px;stroke-linecap:round;stroke-linejoin:round;stroke:#7e4f40;fill:none" transform="translate(4.609 6.183)"/>
        <path data-name="패스 68148" d="m35.263 27.946-.04.029" style="stroke-width:1.7px;stroke-linecap:round;stroke-linejoin:round;stroke:#7e4f40;fill:none" transform="translate(4.609 6.183)"/>
        <path data-name="패스 68149" d="M30.627 36.992c-.482-4.565-4.612-8.084-9.626-8.2-5.069.119-9.226 3.713-9.643 8.334" style="stroke-width:1.2px;stroke-linecap:round;stroke-linejoin:round;stroke:#7e4f40;fill:none" transform="translate(4.609 6.183)"/>
        <path data-name="패스 68150" d="M15.951.5h16.136v6.818a11.5 11.5 0 0 1-23 0V.5h2.657" style="stroke:#333;stroke-width:1.2px;stroke-linecap:round;stroke-linejoin:round;fill:none" transform="translate(4.609 6.183)"/>
        <path data-name="패스 68151" d="M30.051 37.134h2.037v-6.818a11.5 11.5 0 0 0-23 0v6.818h15.539" style="stroke:#333;stroke-width:1.2px;stroke-linecap:round;stroke-linejoin:round;fill:none" transform="translate(4.609 6.183)"/>
        <path data-name="선 3854" transform="translate(21.007 6.683)" style="stroke:#333;stroke-width:1.2px;stroke-linecap:round;stroke-linejoin:round;fill:none" d="M0 0h19.419"/>
        <path data-name="선 3855" transform="translate(10.828 6.683)" style="stroke:#333;stroke-width:1.2px;stroke-linecap:round;stroke-linejoin:round;fill:none" d="M0 0h5.866"/>
        <path data-name="선 3856" transform="translate(34.391 43.31)" style="stroke:#333;stroke-linecap:round;stroke-linejoin:round;fill:none" d="M0 0h6.035"/>
        <path data-name="선 3857" transform="translate(10.828 43.31)" style="stroke:#333;stroke-linecap:round;stroke-linejoin:round;fill:none" d="M0 0h19.491"/>
        <path data-name="패스 68152" d="M29.388 9.661c-.517 3.678-4.358 6.535-9.024 6.535-4.617 0-8.432-2.8-9.006-6.428z" style="stroke-width:1.2px;stroke-linecap:round;stroke-linejoin:round;stroke:#7e4f40;fill:none" transform="translate(4.609 6.183)"/>
    </g>
</svg>
