<svg xmlns="http://www.w3.org/2000/svg" width="44" height="44" viewBox="0 0 44 44">
    <path data-name="사각형 14126" style="fill:none" d="M0 0h44v44H0z"/>
    <g data-name="그룹 59194">
        <g data-name="그룹 59419">
            <path data-name="패스 67664" d="M28.75.518h8.227l2.282 6.214H0L2.287.518h8.6l.93 1.1 1.612.43.958.514.305.986-.055.556.1.472 10.556-.014.07-2.072 1.555-.8 1.139-.43.388-.4z" style="fill:#7e4f40;opacity:.7" transform="translate(2.371 31.839)"/>
            <path data-name="패스 67665" d="M37.384 1H28.7l.833-1h7.847a.5.5 0 0 1 0 1" style="fill:#333" transform="translate(2.371 31.839)"/>
            <path data-name="패스 67666" d="M10.889 1H1.87a.5.5 0 0 1 0-1h8.186z" style="fill:#333" transform="translate(2.371 31.839)"/>
        </g>
        <path data-name="선 3678" transform="translate(18.251 8.578)" style="stroke:#7e4f40;stroke-linecap:round;fill:none" d="M7.498 0 0 7.498"/>
        <path data-name="선 3679" transform="translate(18.251 8.578)" style="stroke:#7e4f40;stroke-linecap:round;fill:none" d="m0 0 7.498 7.498"/>
        <g>
            <path data-name="패스 67776" d="M2.214 4.3a.5.5 0 0 1-.487-.39 10.831 10.831 0 0 1-.189-1.1H.9a1.418 1.418 0 0 1-.623-.146.5.5 0 1 1 .444-.9.4.4 0 0 0 .179.049h1.09a.5.5 0 0 1 .5.461A10.036 10.036 0 0 0 2.7 3.69a.5.5 0 0 1-.378.6.459.459 0 0 1-.11.013" style="fill:#333" transform="translate(7.047 23)"/>
            <path data-name="패스 67777" d="M6.858 10.9a.512.512 0 0 1-.267-.077 11.031 11.031 0 0 1-2.014-1.64.5.5 0 1 1 .723-.695 10.052 10.052 0 0 0 1.826 1.489.5.5 0 0 1-.268.923M3.881 8.061a.5.5 0 0 1-.409-.212 11.051 11.051 0 0 1-1.237-2.284.5.5 0 1 1 .93-.369 10.041 10.041 0 0 0 1.124 2.077.5.5 0 0 1-.12.7.49.49 0 0 1-.288.092" style="fill:#333" transform="translate(7.047 23)"/>
            <path data-name="패스 67778" d="m11.246 14.156-1.5-.005a.5.5 0 0 1-.5-.5v-1.6a10.753 10.753 0 0 1-1.116-.416.5.5 0 1 1 .4-.916 9.981 9.981 0 0 0 1.348.476.5.5 0 0 1 .368.482v1.475h1a.5.5 0 0 1 0 1" style="fill:#333" transform="translate(7.047 23)"/>
            <path data-name="패스 67779" d="m16.846 14.17-3.36-.011a.5.5 0 0 1 0-1l3.359.011a.5.5 0 0 1 0 1" style="fill:#333" transform="translate(7.047 23)"/>
            <path data-name="패스 67780" d="M20.587 14.178h-1.5a.5.5 0 0 1 0-1h1v-1.631a.5.5 0 0 1 .353-.477 10.076 10.076 0 0 0 1.333-.519.5.5 0 0 1 .428.9 10.785 10.785 0 0 1-1.114.454v1.769a.5.5 0 0 1-.5.5" style="fill:#333" transform="translate(7.047 23)"/>
            <path data-name="패스 67781" d="M23.367 10.716a.5.5 0 0 1-.28-.914 10.045 10.045 0 0 0 1.722-1.473.5.5 0 1 1 .732.682 11.058 11.058 0 0 1-1.9 1.619.488.488 0 0 1-.279.086m2.8-2.788a.5.5 0 0 1-.281-.087.5.5 0 0 1-.132-.7 9.971 9.971 0 0 0 1.058-2 .5.5 0 1 1 .931.363 11 11 0 0 1-1.162 2.2.5.5 0 0 1-.414.218" style="fill:#333" transform="translate(7.047 23)"/>
            <path data-name="패스 67782" d="M27.743 4.3a.522.522 0 0 1-.11-.012.5.5 0 0 1-.378-.6 9.989 9.989 0 0 0 .21-1.413.5.5 0 0 1 .5-.462h.843a.4.4 0 0 0 .266-.1.5.5 0 0 1 .67.742 1.394 1.394 0 0 1-.936.36h-.39a10.8 10.8 0 0 1-.187 1.093.5.5 0 0 1-.487.391" style="fill:#333" transform="translate(7.047 23)"/>
            <path data-name="패스 67783" d="M.538 1.078a.5.5 0 0 1-.2-.957A1.411 1.411 0 0 1 .906 0h2.666a.5.5 0 0 1 0 1H.906a.424.424 0 0 0-.167.035.5.5 0 0 1-.2.043m28.414-.067A.443.443 0 0 1 28.871 1a.473.473 0 0 0-.065 0h-2.9a.5.5 0 0 1 0-1h2.9a1.309 1.309 0 0 1 .226.018.5.5 0 0 1-.08.993M23.876 1H20.83a.5.5 0 0 1 0-1h3.046a.5.5 0 0 1 0 1M18.8 1h-3.046a.5.5 0 1 1 0-1H18.8a.5.5 0 0 1 0 1m-5.076 0h-3.046a.5.5 0 0 1 0-1h3.046a.5.5 0 0 1 0 1M8.648 1H5.6a.5.5 0 0 1 0-1h3.048a.5.5 0 0 1 0 1" style="fill:#333" transform="translate(7.047 23)"/>
        </g>
    </g>
</svg>
