<svg xmlns="http://www.w3.org/2000/svg" width="50" height="50" viewBox="0 0 50 50">
    <path data-name="사각형 14460" style="fill:none" d="M0 0h50v50H0z"/>
    <g data-name="그룹 67594">
        <path data-name="패스 68076" d="M34.294 37.783a9.691 9.691 0 0 0 4.305 2.75l2.543 2.543" style="stroke-linecap:round;stroke-linejoin:round;stroke-width:1.2px;stroke:#333;fill:none"/>
        <path data-name="패스 68077" d="m49.1 35.131-1.721-1.716a10.337 10.337 0 0 0-1.018-5.721 16.5 16.5 0 0 1-2.223-8.327c0-3.051-.637-3.686-1.716-3.818-1.831-.216-2.677 2.625-2.625 7.46l-2.7-2.7a1.8 1.8 0 0 0-2.616 2.491c.021.021.041.042.063.062l2.173 2.159-2.16-2.173a1.8 1.8 0 0 0-2.544 2.542l2.159 2.168.016-.017-2.159-2.159a1.8 1.8 0 0 0-2.543 2.544l2.166 2.167.017-.017-7.539-7.548a1.8 1.8 0 0 0-2.542 2.534l7.54 7.538 1.932 1.932" style="stroke-linecap:round;stroke-linejoin:round;stroke-width:1.2px;stroke:#333;fill:none"/>
        <path data-name="패스 68078" d="m24.978 28.5-4.108 4.112-5.17 5.172a9.68 9.68 0 0 1-4.3 2.755l-2.549 2.537" style="stroke-linecap:round;stroke-linejoin:round;stroke-width:1.2px;stroke:#333;fill:none"/>
        <path data-name="패스 68079" d="m25.209 23.178.658-.658a1.8 1.8 0 1 1 2.678 2.406c-.023.026-.048.051-.072.076s-.041.042-.063.062l-.757.758" style="stroke-linecap:round;stroke-linejoin:round;stroke-width:1.2px;stroke:#333;fill:none"/>
        <path data-name="패스 68080" d="M4.325 26.284a15.35 15.35 0 0 0 1.54-6.92c0-3.052.635-3.687 1.716-3.819 1.83-.214 2.677 2.625 2.625 7.461l2.7-2.7a1.8 1.8 0 0 1 2.605 2.483l-.062.062-2.174 2.159 2.159-2.174a1.8 1.8 0 0 1 2.548 2.553l-2.167 2.167-.017-.017 2.167-2.167a1.8 1.8 0 1 1 2.678 2.405c-.024.026-.048.052-.073.076l-.062.063-2.167 2.162-.017-.017 4.049-4.05" style="stroke-linecap:round;stroke-linejoin:round;stroke-width:1.2px;stroke:#333;fill:none"/>
        <path data-name="패스 68081" d="m.906 35.131 1.716-1.716a10.218 10.218 0 0 1 .278-3.762" style="stroke-linecap:round;stroke-linejoin:round;stroke-width:1.2px;stroke:#333;fill:none"/>
        <path data-name="선 3817" transform="translate(24.979 6.924)" style="stroke:#7e4f40;stroke-linecap:round;stroke-linejoin:round;stroke-width:1.2px;fill:none" d="M0 3.385V0"/>
        <path data-name="선 3818" transform="translate(30.095 10.125)" style="stroke:#7e4f40;stroke-linecap:round;stroke-linejoin:round;stroke-width:1.2px;fill:none" d="M0 2.393 2.393 0"/>
        <path data-name="선 3819" transform="translate(17.508 10.125)" style="stroke:#7e4f40;stroke-linecap:round;stroke-linejoin:round;stroke-width:1.2px;fill:none" d="M2.393 2.393 0 0"/>
    </g>
</svg>
