<svg width="56" height="56" viewBox="0 0 56 56" fill="none" xmlns="http://www.w3.org/2000/svg">
<g clip-path="url(#clip0_8_2)">
<path d="M56 0H28C20.5739 0 13.452 2.94999 8.20101 8.20101C2.94999 13.452 0 20.5739 0 28C0 35.4261 2.94999 42.548 8.20101 47.799C13.452 53.05 20.5739 56 28 56H56V0Z" fill="black" fill-opacity="0.15"/>
<path d="M24.1226 18C23.9733 18.0008 23.8257 18.0324 23.6891 18.0928C23.5525 18.1532 23.4298 18.2411 23.3287 18.351C23.1173 18.5812 23 18.8824 23 19.195C23 19.5075 23.1173 19.8087 23.3287 20.039L31.2884 28.4998L23.3287 36.9627C23.1173 37.1929 23 37.4941 23 37.8067C23 38.1192 23.1173 38.4204 23.3287 38.6507C23.4296 38.7608 23.5522 38.8487 23.6889 38.9088C23.8256 38.9689 23.9733 39 24.1226 39C24.272 39 24.4197 38.9689 24.5563 38.9088C24.693 38.8487 24.8157 38.7608 24.9166 38.6507L33.6713 29.3428C33.8827 29.1126 34 28.8114 34 28.4988C34 28.1863 33.8827 27.8851 33.6713 27.6548L24.9166 18.355C24.816 18.2442 24.6934 18.1555 24.5568 18.0944C24.4201 18.0333 24.2723 18.0011 24.1226 18Z" fill="white"/>
</g>
<defs>
<clipPath id="clip0_8_2">
<rect width="56" height="56" fill="white"/>
</clipPath>
</defs>
</svg>
