<svg width="56" height="56" viewBox="0 0 56 56" fill="none" xmlns="http://www.w3.org/2000/svg">
<g clip-path="url(#clip0_8_2)">
<path d="M0 0H28C35.4261 0 42.548 2.94999 47.799 8.20101C53.05 13.452 56 20.5739 56 28C56 35.4261 53.05 42.548 47.799 47.799C42.548 53.05 35.4261 56 28 56H0V0Z" fill="black" fill-opacity="0.15"/>
<path d="M31.8771 17.9999C32.0264 18.0007 32.174 18.0323 32.3106 18.0927C32.4473 18.1531 32.57 18.241 32.6711 18.3509C32.8825 18.5812 32.9998 18.8823 32.9998 19.1949C32.9998 19.5075 32.8825 19.8087 32.6711 20.0389L24.7111 28.4999L32.6711 36.9629C32.8825 37.1932 32.9998 37.4943 32.9998 37.8069C32.9998 38.1195 32.8825 38.4207 32.6711 38.6509C32.5702 38.761 32.4475 38.8489 32.3108 38.909C32.1741 38.9692 32.0264 39.0002 31.8771 39.0002C31.7278 39.0002 31.58 38.9692 31.4434 38.909C31.3067 38.8489 31.184 38.761 31.0831 38.6509L22.3281 29.3429C22.1167 29.1127 21.9994 28.8115 21.9994 28.4989C21.9994 28.1863 22.1167 27.8852 22.3281 27.6549L31.0831 18.3549C31.1837 18.2441 31.3063 18.1554 31.4429 18.0943C31.5796 18.0332 31.7274 18.0011 31.8771 17.9999Z" fill="white"/>
</g>
<defs>
<clipPath id="clip0_8_2">
<rect width="56" height="56" fill="white"/>
</clipPath>
</defs>
</svg>
