<svg xmlns="http://www.w3.org/2000/svg" width="50" height="50" viewBox="0 0 50 50">
    <path data-name="사각형 14465" style="fill:none" d="M0 0h50v50H0z"/>
    <g data-name="그룹 67603">
        <path data-name="패스 68099" d="M17.239 9.217a3.529 3.529 0 1 1-3.53 3.53 3.53 3.53 0 0 1 3.53-3.53z" style="stroke-linecap:round;stroke-linejoin:round;stroke-width:1.2px;stroke:#333;fill:none"/>
        <path data-name="패스 68100" d="M30.6 9.76a3.53 3.53 0 1 1-3.53 3.53 3.53 3.53 0 0 1 3.53-3.53z" style="stroke-linecap:round;stroke-linejoin:round;stroke-width:1.2px;stroke:#333;fill:none"/>
        <path data-name="패스 68101" d="M36.838 19.823a4.262 4.262 0 0 0-1.274-.176l-9.025.026a7.577 7.577 0 0 0-7.727 7.386v5.264" style="stroke-linecap:round;stroke-linejoin:round;stroke-width:1.2px;stroke:#333;fill:none"/>
        <path data-name="패스 68102" d="M22.524 38.786a3.351 3.351 0 0 0 3.106 1.994h13.7a4.34 4.34 0 0 0 4.385-5.227l-2.236-9.386" style="stroke-linecap:round;stroke-linejoin:round;stroke-width:1.2px;stroke:#333;fill:none"/>
        <path data-name="패스 68103" d="M36.357 34.407H25.625a3.544 3.544 0 0 0-.8.09" style="stroke-linecap:round;stroke-linejoin:round;stroke-width:1.2px;stroke:#333;fill:none"/>
        <path data-name="선 3838" transform="translate(34.996 30.728)" style="stroke-linecap:round;stroke-linejoin:round;stroke-width:1.2px;stroke:#333;fill:none" d="m0 0 .055 3.68"/>
        <path data-name="패스 68104" d="M10.477 32.323H21.2a3.192 3.192 0 1 1 .341 6.375 3.234 3.234 0 0 1-.341 0H7.509a4.342 4.342 0 0 1-4.387-5.231l2.238-9.386" style="stroke-linecap:round;stroke-linejoin:round;stroke-width:1.2px;stroke:#333;fill:none"/>
        <path data-name="선 3839" transform="translate(11.784 28.641)" style="stroke-linecap:round;stroke-linejoin:round;stroke-width:1.2px;stroke:#333;fill:none" d="M.055 0 0 3.68"/>
        <path data-name="패스 68105" d="M6.433 21.675h0a6.741 6.741 0 0 1 5.356-2.593h7.749a6.867 6.867 0 0 1 3.65 1.041" style="stroke-linecap:round;stroke-linejoin:round;stroke-width:1.2px;stroke:#333;fill:none"/>
        <path data-name="패스 68106" d="M42.539 23.225a3.616 3.616 0 0 1-3.714.65 3.331 3.331 0 0 1-2.146-2.975 3.243 3.243 0 0 1 1-2.408 2.159 2.159 0 0 1 2.933.1l1.884 1.8a1.932 1.932 0 0 1 .151 2.728l-.108.105z" style="stroke-linecap:round;stroke-linejoin:round;stroke-width:1.2px;stroke:#333;fill:none"/>
        <path data-name="선 3840" transform="translate(6.433 39.028)" style="stroke-linecap:round;stroke-linejoin:round;stroke-width:1.2px;stroke:#333;fill:none" d="M0 0v1.694"/>
        <path data-name="패스 68107" d="M39.908 12.431s3.922.378 4.944 3.845" style="stroke:#7e4f40;stroke-linecap:round;stroke-linejoin:round;stroke-width:1.2px;fill:none"/>
        <path data-name="패스 68108" d="M43.138 10.96a6.552 6.552 0 0 1 3.855 4.659" style="stroke:#7e4f40;stroke-linecap:round;stroke-linejoin:round;stroke-width:1.2px;fill:none"/>
    </g>
</svg>
