<svg width="18" height="16" viewBox="0 0 18 16" fill="none" xmlns="http://www.w3.org/2000/svg">
<g id="ic_re_examination">
<g id="icon_error">
<path id="&#237;&#140;&#168;&#236;&#138;&#164; 16281" fill-rule="evenodd" clip-rule="evenodd" d="M8.16546 1.59686L1.2998 13.5211L1.51202 14.6285L2.5224 15.0897L15.9243 14.9281L16.6535 13.7287L9.95185 1.73547L8.91804 1.32031L8.16546 1.59686Z" fill="#DC3545"/>
<g id="&#234;&#183;&#184;&#235;&#163;&#185; 5868">
<path id="&#237;&#140;&#168;&#236;&#138;&#164; 16279" fill-rule="evenodd" clip-rule="evenodd" d="M9.1351 10.4919C8.85871 10.4919 8.63464 10.324 8.63464 10.1173V5.20001C8.63464 4.99334 8.85871 4.82617 9.1351 4.82617C9.41142 4.82617 9.63464 4.99335 9.63464 5.20001V10.1173C9.63464 10.324 9.41142 10.4919 9.1351 10.4919Z" fill="white" stroke="white" stroke-width="0.5"/>
<path id="&#237;&#140;&#168;&#236;&#138;&#164; 16280" fill-rule="evenodd" clip-rule="evenodd" d="M9.57898 12.6137C9.57898 12.3374 9.35564 12.1133 9.07934 12.1133C8.80232 12.1133 8.57898 12.3374 8.57898 12.6137C8.57898 12.8893 8.80232 13.1133 9.07934 13.1133C9.35564 13.1133 9.57898 12.8893 9.57898 12.6137Z" fill="white" stroke="white" stroke-width="0.5"/>
</g>
<g id="&#237;&#140;&#168;&#236;&#138;&#164; 16278">
<path fill-rule="evenodd" clip-rule="evenodd" d="M15.3974 15.4H2.60201C2.03127 15.4 1.49928 15.0903 1.21401 14.5916C0.928665 14.0935 0.928665 13.475 1.21401 12.9762L7.61061 1.80762C7.89528 1.30945 8.42732 1 8.99794 1C9.56862 1 10.1007 1.30896 10.386 1.80762L16.7387 12.8997C16.9093 13.1627 17 13.4684 17 13.7839C17 14.6754 16.2813 15.4 15.3974 15.4ZM8.99842 1.75781C8.69648 1.75781 8.41444 1.92212 8.26313 2.18652L1.86646 13.3551C1.71509 13.6196 1.71509 13.9475 1.86646 14.2113C2.01777 14.4757 2.29975 14.6399 2.60248 14.6399H15.3978C15.8665 14.6399 16.2471 14.2557 16.2471 13.7832C16.2471 13.6136 16.1984 13.4493 16.1052 13.3092L16.0925 13.2883L9.73443 2.18652C9.58312 1.92212 9.30114 1.75781 8.99841 1.75781H8.99842Z" fill="#DC3545"/>
<path d="M1.21401 14.5916L1.43102 14.4674L1.43093 14.4673L1.21401 14.5916ZM1.21401 12.9762L0.997066 12.852L0.997005 12.8521L1.21401 12.9762ZM7.61061 1.80762L7.82755 1.93187L7.82768 1.93166L7.61061 1.80762ZM10.386 1.80762L10.169 1.93178L10.1691 1.93187L10.386 1.80762ZM16.7387 12.8997L16.5214 13.0241L16.5289 13.0357L16.7387 12.8997ZM8.26313 2.18652L8.48007 2.31077L8.48011 2.3107L8.26313 2.18652ZM1.86646 13.3551L1.64952 13.2309L1.64947 13.2309L1.86646 13.3551ZM1.86646 14.2113L2.08344 14.0871L2.08329 14.0869L1.86646 14.2113ZM16.1052 13.3092L15.8914 13.4393L15.897 13.4477L16.1052 13.3092ZM16.0925 13.2883L15.8754 13.4126L15.8789 13.4183L16.0925 13.2883ZM9.73443 2.18652L9.51745 2.3107L9.51749 2.31077L9.73443 2.18652ZM15.3974 15.15H2.60201V15.65H15.3974V15.15ZM2.60201 15.15C2.12161 15.15 1.67211 14.889 1.43102 14.4674L0.996994 14.7157C1.32646 15.2917 1.94092 15.65 2.60201 15.65V15.15ZM1.43093 14.4673C1.18972 14.0463 1.18963 13.5223 1.43101 13.1003L0.997005 12.8521C0.667697 13.4277 0.667607 14.1407 0.997083 14.7158L1.43093 14.4673ZM1.43094 13.1004L7.82755 1.93187L7.39368 1.68337L0.997066 12.852L1.43094 13.1004ZM7.82768 1.93166C8.06807 1.51096 8.51752 1.25 8.99794 1.25V0.75C8.33713 0.75 7.7225 1.10794 7.39355 1.68358L7.82768 1.93166ZM8.99794 1.25C9.4785 1.25 9.92798 1.51055 10.169 1.93178L10.603 1.68346C10.2734 1.10737 9.65874 0.75 8.99794 0.75V1.25ZM10.1691 1.93187L16.5217 13.0239L16.9556 12.7754L10.6029 1.68337L10.1691 1.93187ZM16.5289 13.0357C16.6733 13.2582 16.75 13.5166 16.75 13.7839H17.25C17.25 13.4202 17.1454 13.0672 16.9484 12.7636L16.5289 13.0357ZM16.75 13.7839C16.75 14.5393 16.1413 15.15 15.3974 15.15V15.65C16.4214 15.65 17.25 14.8115 17.25 13.7839H16.75ZM8.99842 1.50781C8.60595 1.50781 8.24155 1.72089 8.04615 2.06235L8.48011 2.3107C8.58732 2.12335 8.787 2.00781 8.99842 2.00781V1.50781ZM8.04619 2.06227L1.64952 13.2309L2.0834 13.4794L8.48007 2.31077L8.04619 2.06227ZM1.64947 13.2309C1.45414 13.5723 1.45397 13.9948 1.64962 14.3357L2.08329 14.0869C1.9762 13.9003 1.97603 13.667 2.08344 13.4793L1.64947 13.2309ZM1.64948 14.3355C1.84497 14.6771 2.2094 14.8899 2.60248 14.8899V14.3899C2.3901 14.3899 2.19056 14.2743 2.08344 14.0871L1.64948 14.3355ZM2.60248 14.8899H15.3978V14.3899H2.60248V14.8899ZM15.3978 14.8899C16.0066 14.8899 16.4971 14.3917 16.4971 13.7832H15.9971C15.9971 14.1197 15.7263 14.3899 15.3978 14.3899V14.8899ZM16.4971 13.7832C16.4971 13.5655 16.4345 13.3528 16.3133 13.1707L15.897 13.4477C15.9624 13.5459 15.9971 13.6618 15.9971 13.7832H16.4971ZM16.3187 13.1792L16.306 13.1584L15.8789 13.4183L15.8916 13.4392L16.3187 13.1792ZM16.3094 13.1641L9.95137 2.06228L9.51749 2.31077L15.8755 13.4126L16.3094 13.1641ZM9.95141 2.06235C9.75594 1.72079 9.39155 1.50781 8.99841 1.50781V2.00781C9.21072 2.00781 9.41029 2.12345 9.51745 2.3107L9.95141 2.06235ZM8.99841 2.00781H8.99842V1.50781H8.99841V2.00781Z" fill="#DC3545"/>
</g>
</g>
</g>
</svg>
