<svg xmlns="http://www.w3.org/2000/svg" width="44" height="44" viewBox="0 0 44 44">
  <g id="icon_walk-self" transform="translate(-51.24 -697.24)">
    <rect id="사각형_10579" data-name="사각형 10579" width="44" height="44" transform="translate(51.24 697.24)" fill="none"/>
    <g id="그룹_33468" data-name="그룹 33468" transform="translate(-115.756 114.261)">
      <path id="패스_53573" data-name="패스 53573" d="M189.116,622.467q-.152,0-.306-.015a3.107,3.107,0,0,1-2.207-1.263.5.5,0,0,1,.808-.589,2.1,2.1,0,0,0,2.326.772.5.5,0,1,1,.3.955A3.079,3.079,0,0,1,189.116,622.467Z" transform="translate(-0.437 2.096)" fill="#333"/>
      <path id="합치기_50" data-name="합치기 50" d="M17587.678,17847.258a.683.683,0,0,1-.68-.686v-2.414a1.18,1.18,0,0,1,2.359,0v2.414a.684.684,0,0,1-.682.686Zm.318-1h.363v-2.1a.184.184,0,0,0-.18-.18.181.181,0,0,0-.184.18v2.1Z" transform="translate(-17397.32 -17221.029)" fill="#7e4f40"/>
      <path id="패스_53576" data-name="패스 53576" d="M190.608,620.968l-.049,0a.5.5,0,0,1-.449-.546l.889-9.107a2.082,2.082,0,0,0-.13-.95.5.5,0,0,1-.031-.132l-.346-3.718a.5.5,0,1,1,1-.093l.34,3.653a3.069,3.069,0,0,1,.166,1.336l-.889,9.108A.5.5,0,0,1,190.608,620.968Z" transform="translate(0.652 1.273)" fill="#333"/>
      <path id="타원_1280" data-name="타원 1280" d="M2.225-.5A2.725,2.725,0,1,1-.5,2.225,2.728,2.728,0,0,1,2.225-.5Zm0,4.449A1.725,1.725,0,1,0,.5,2.225,1.727,1.727,0,0,0,2.225,3.949Z" transform="translate(191.352 584.843)" fill="#333"/>
      <path id="패스_53577" data-name="패스 53577" d="M190.429,600.912a.5.5,0,0,1-.488-.611,58.248,58.248,0,0,0,1.135-6.966.5.5,0,1,1,1,.087,59.4,59.4,0,0,1-1.156,7.1A.5.5,0,0,1,190.429,600.912Z" transform="translate(0.642 0.503)" fill="#333"/>
      <path id="패스_53578" data-name="패스 53578" d="M186.106,588.949a.5.5,0,0,1-.334-.872,5.033,5.033,0,0,1,3.326-1.094.5.5,0,1,1-.026,1,4.028,4.028,0,0,0-2.632.838A.5.5,0,0,1,186.106,588.949Z" transform="translate(0.387 0.155)" fill="#333"/>
      <path id="패스_53579" data-name="패스 53579" d="M181.5,610.85a.5.5,0,0,1-.5-.454l-.546-5.879a.5.5,0,0,1,0-.065l.079-2.149a7.285,7.285,0,0,1,1.177-4.259.5.5,0,1,1,.778.628,6.545,6.545,0,0,0-.956,3.654v.01l-.078,2.121L182,610.3a.5.5,0,0,1-.452.544Z" transform="translate(0.084 0.796)" fill="#333"/>
      <path id="패스_53580" data-name="패스 53580" d="M190.276,616.424a.5.5,0,0,1-.5-.5V603.809a.941.941,0,0,0-.576-.867.5.5,0,1,1,.391-.921,1.939,1.939,0,0,1,1.186,1.787v12.116A.5.5,0,0,1,190.276,616.424Z" transform="translate(0.581 1.039)" fill="#7e4f40"/>
      <path id="패스_53581" data-name="패스 53581" d="M185.224,604.306a.5.5,0,0,1-.5-.5,1.943,1.943,0,0,1,1.021-1.708.5.5,0,1,1,.477.879.944.944,0,0,0-.5.829A.5.5,0,0,1,185.224,604.306Z" transform="translate(0.335 1.042)" fill="#7e4f40"/>
      <path id="패스_53582" data-name="패스 53582" d="M195.041,620.047a.5.5,0,0,1-.5-.5v-8.514a1.466,1.466,0,0,0-1.464-1.465h-.933a.5.5,0,0,1,0-1h.933a2.468,2.468,0,0,1,2.464,2.465v8.514A.5.5,0,0,1,195.041,620.047Z" transform="translate(0.743 1.426)" fill="#7e4f40"/>
      <path id="패스_53583" data-name="패스 53583" d="M194.933,615.183a.5.5,0,0,1-.5-.5V602.568a.947.947,0,0,0-.619-.884.5.5,0,1,1,.346-.938,1.951,1.951,0,0,1,1.274,1.822v12.115A.5.5,0,0,1,194.933,615.183Z" transform="translate(0.851 0.964)" fill="#7e4f40"/>
      <path id="패스_53584" data-name="패스 53584" d="M189.877,603.065a.5.5,0,0,1-.5-.5,1.954,1.954,0,0,1,1.089-1.743.5.5,0,1,1,.44.9.948.948,0,0,0-.529.845A.5.5,0,0,1,189.877,603.065Z" transform="translate(0.609 0.967)" fill="#7e4f40"/>
      <path id="패스_53585" data-name="패스 53585" d="M188.88,603.467h-2.129a1.094,1.094,0,0,1-1.031-.734.5.5,0,0,1,.944-.329.094.094,0,0,0,.087.063h2.129a.093.093,0,0,0,.092-.092.5.5,0,0,1,1,0A1.093,1.093,0,0,1,188.88,603.467Z" transform="translate(0.392 1.032)" fill="#7e4f40"/>
      <path id="패스_53586" data-name="패스 53586" d="M189.364,602.908a.5.5,0,0,1-.5-.5.093.093,0,0,0-.092-.092h-.742a.5.5,0,1,1,0-1h.742a1.093,1.093,0,0,1,1.092,1.092A.5.5,0,0,1,189.364,602.908Z" transform="translate(0.501 0.999)" fill="#7e4f40"/>
      <path id="패스_53587" data-name="패스 53587" d="M193.535,602.224h-2.129a1.093,1.093,0,0,1-1.092-1.092.5.5,0,0,1,1,0,.093.093,0,0,0,.092.092h2.129a.093.093,0,0,0,.092-.092.5.5,0,0,1,1,0A1.093,1.093,0,0,1,193.535,602.224Z" transform="translate(0.665 0.959)" fill="#7e4f40"/>
      <path id="패스_53588" data-name="패스 53588" d="M186.322,603.181a2.29,2.29,0,0,1-2.1-1.382l-2.4-5.6a2.272,2.272,0,0,1-.176-.775v-.008c0-.013,0-.026,0-.04s0-.013,0-.019c0-.043,0-.082,0-.112v-.018a2.258,2.258,0,0,1,.3-1.136l2.459-4.259a.5.5,0,1,1,.866.5l-2.459,4.259a1.273,1.273,0,0,0-.165.645s0,.01,0,.015v.032c0,.012,0,.023,0,.035s0,.027,0,.041a1.3,1.3,0,0,0,.1.446l2.4,5.6a1.287,1.287,0,0,0,1.689.673,1.285,1.285,0,0,0,.673-1.688l-2.068-4.812a.5.5,0,0,1,.026-.447l2.614-4.527a.5.5,0,1,1,.866.5l-2.489,4.31,1.969,4.582a2.285,2.285,0,0,1-2.1,3.187Z" transform="translate(0.154 0.309)" fill="#333"/>
      <path id="패스_53589" data-name="패스 53589" d="M192.275,601.982a2.278,2.278,0,0,1-1.172-.325.5.5,0,1,1,.514-.858,1.285,1.285,0,0,0,1.918-1.361l-.772-3.766a.5.5,0,0,1-.009-.132l.253-4.015a1.28,1.28,0,0,0-.174-.73.5.5,0,1,1,.863-.505,2.277,2.277,0,0,1,.309,1.3l-.249,3.949.759,3.7a2.288,2.288,0,0,1-2.24,2.745Z" transform="translate(0.697 0.336)" fill="#333"/>
      <path id="패스_53590" data-name="패스 53590" d="M182.218,623.161a.5.5,0,0,1-.048-1,2.1,2.1,0,0,0,1.839-1.6l2.052-8.577a.5.5,0,0,1,.025-.076,2.1,2.1,0,0,0,.152-1l-.577-6.2a.5.5,0,1,1,1-.093l.577,6.2a3.1,3.1,0,0,1-.209,1.439l-2.043,8.54a3.1,3.1,0,0,1-2.716,2.365Z" transform="translate(0.159 1.167)" fill="#333"/>
      <path id="패스_53591" data-name="패스 53591" d="M179.826,621.118a.5.5,0,0,1-.443-.267,3.1,3.1,0,0,1-.273-2.166l.68-2.84a.5.5,0,1,1,.973.233l-.68,2.84a2.1,2.1,0,0,0,.185,1.466.5.5,0,0,1-.442.733Z" transform="translate(0 1.832)" fill="#333"/>
      <path id="패스_53592" data-name="패스 53592" d="M190.775,621.45a.5.5,0,0,1-.5-.5v-8.675a1.466,1.466,0,0,0-1.464-1.464h-5.925a1.466,1.466,0,0,0-1.464,1.464v8.675a.5.5,0,0,1-1,0v-8.675a2.467,2.467,0,0,1,2.464-2.464h5.925a2.467,2.467,0,0,1,2.464,2.464v8.675A.5.5,0,0,1,190.775,621.45Z" transform="translate(0.082 1.499)" fill="#7e4f40"/>
      <path id="패스_53593" data-name="패스 53593" d="M186.19,621.632a.5.5,0,0,1-.407-.209,3.1,3.1,0,0,1-.562-2.1l.23-2.348a.5.5,0,1,1,1,.1l-.23,2.348a2.1,2.1,0,0,0,.38,1.423.5.5,0,0,1-.406.791Z" transform="translate(0.364 1.895)" fill="#333"/>
      <circle id="타원_1281" data-name="타원 1281" cx="3.118" cy="3.118" r="3.118" transform="translate(182.953 600.881)" fill="#7e4f40" opacity="0.7"/>
      <circle id="타원_1282" data-name="타원 1282" cx="3.118" cy="3.118" r="3.118" transform="translate(190.049 599.12)" fill="#7e4f40" opacity="0.7"/>
      <path id="패스_53596" data-name="패스 53596" d="M195.6,622.059a.5.5,0,0,1-.5-.5v-1.915a.181.181,0,0,0-.363,0v1.915a.5.5,0,0,1-1,0v-1.915a1.181,1.181,0,0,1,2.363,0v1.915A.5.5,0,0,1,195.6,622.059Z" transform="translate(0.866 2.009)" fill="#7e4f40"/>
      <path id="패스_53597" data-name="패스 53597" d="M195.418,622.65h-1a.682.682,0,0,1-.681-.682v-1.39a.5.5,0,0,1,1,0v1.073h.363v-1.139a.5.5,0,0,1,1,0v1.457A.683.683,0,0,1,195.418,622.65Z" transform="translate(0.866 2.1)" fill="#7e4f40"/>
      <path id="선_923" data-name="선 923" d="M0,1.978a.5.5,0,0,1-.478-.356A.5.5,0,0,1-.145,1L4.749-.479a.5.5,0,0,1,.623.334.5.5,0,0,1-.334.623L.145,1.957A.5.5,0,0,1,0,1.978Z" transform="translate(190.891 605.377)" fill="#7e4f40"/>
      <path id="합치기_49" data-name="합치기 49" d="M17587.682,17847.258a.684.684,0,0,1-.68-.686v-.43a.379.379,0,0,1,0-.066v-1.918a1.18,1.18,0,0,1,2.359,0v.893a.379.379,0,0,1,0,.066v1.455a.684.684,0,0,1-.68.686Zm.318-2.074v1.076h.363v-.117a.379.379,0,0,1,0-.066v-1.918a.184.184,0,0,0-.18-.18.181.181,0,0,0-.184.18v.959C17588,17845.141,17588,17845.162,17588,17845.184Z" transform="translate(-17407.174 -17221.029)" fill="#7e4f40"/>
    </g>
  </g>
</svg>
