<svg data-name="그룹 33578" xmlns="http://www.w3.org/2000/svg" width="28.004" height="28.004" viewBox="0 0 28.004 28.004">
    <path data-name="패스 54288" d="M62.783 94.82a11.808 11.808 0 0 0-2.891-6.68 11.79 11.79 0 0 0-6.678-2.89 24.054 24.054 0 0 0-4.186-.234 29.056 29.056 0 0 0-4.186.234 11.8 11.8 0 0 0-6.678 2.89 11.8 11.8 0 0 0-2.889 6.68 26.912 26.912 0 0 0-.266 4.187 29.08 29.08 0 0 0 .234 4.187 11.8 11.8 0 0 0 2.889 6.679 11.8 11.8 0 0 0 6.678 2.89A24.148 24.148 0 0 0 49 113a29.153 29.153 0 0 0 4.188-.234 11.786 11.786 0 0 0 6.676-2.89 11.794 11.794 0 0 0 2.891-6.679 24.353 24.353 0 0 0 .234-4.187 22.04 22.04 0 0 0-.2-4.187" transform="translate(-35.005 -85.005)" style="fill:#1e4bc6"/>
    <path data-name="패스 54289" d="M46.027 106.2H48.5a2.585 2.585 0 0 1 1.042.206 2.74 2.74 0 0 1 1.367 1.446 3.015 3.015 0 0 1 0 2.136 2.562 2.562 0 0 1-.555.861 2.733 2.733 0 0 1-.812.585 2.479 2.479 0 0 1-1.042.206h-1.106v2.17H46.06v-7.61zm1.336 1.309v2.791H48.4a1.445 1.445 0 0 0 .555-.1 1.276 1.276 0 0 0 .683-.757 1.591 1.591 0 0 0 0-1.1 2 2 0 0 0-.261-.448 1.242 1.242 0 0 0-.421-.309 1.454 1.454 0 0 0-.555-.1h-1.04zm6.836 6.3a2.819 2.819 0 0 1-1.042-.206 2.785 2.785 0 0 1-1.562-1.55 3.623 3.623 0 0 1-.033-2.617 3.284 3.284 0 0 1 .651-.966 2.668 2.668 0 0 1 .911-.585 2.87 2.87 0 0 1 1.075-.206 2.471 2.471 0 0 1 1.042.206 2.423 2.423 0 0 1 .812.585v-.792h1.337v6.132h-1.336v-.859a2.277 2.277 0 0 1-.812.655 2.584 2.584 0 0 1-1.042.206m.229-1.275a1.448 1.448 0 0 0 .683-.137 2.026 2.026 0 0 0 .553-.379 2 2 0 0 0 .36-.553 1.8 1.8 0 0 0-.36-1.928 1.61 1.61 0 0 0-.553-.38 1.265 1.265 0 0 0-.683-.172 1.636 1.636 0 0 0-.684.137 1.61 1.61 0 0 0-.553.38 1.43 1.43 0 0 0-.358.551 1.871 1.871 0 0 0 0 1.377 3.425 3.425 0 0 0 .358.587 2.033 2.033 0 0 0 .553.379 2.054 2.054 0 0 0 .684.137m4.817-4.822 1.628 4.168 1.5-4.168h1.4l-3.417 8.885h-1.372l1.2-3.065-2.344-5.821z" transform="translate(-40.684 -96.493)" style="fill:#fff"/>
</svg>
