<svg xmlns="http://www.w3.org/2000/svg" width="78.007" height="82.007" viewBox="0 0 78.007 82.007">
    <path data-name="패스 13218" d="m341.434 473.386 5.477-5.477-13.263-13.264-2.542 2.544-2.028 2.028a11.745 11.745 0 0 0-1.67 14.591 101.768 101.768 0 0 0 30.435 30.435 11.745 11.745 0 0 0 14.591-1.67l2.028-2.028L377 498l-13.263-13.263-5.478 5.478a102.981 102.981 0 0 1-16.829-16.83z" transform="translate(-324.592 -425.051)" style="stroke:#555;stroke-linecap:round;stroke-linejoin:round;stroke-width:2px;fill:#bc8877"/>
    <path data-name="패스 13219" d="M393.623 454.242A22.424 22.424 0 1 0 369.1 476.56c-.037.039-.064.083-.1.122a14.57 14.57 0 0 1-7.207 4.127c.177.1.348.21.531.3 5.19 2.641 12.723.813 15.363-4.377a8.236 8.236 0 0 0 .483-1.187 22.424 22.424 0 0 0 15.453-21.303z" transform="translate(-316.616 -430.817)" style="fill:#fff;stroke:#555;stroke-linecap:round;stroke-linejoin:round;stroke-width:2px"/>
    <g data-name="그룹 3318">
        <g data-name="그룹 3317">
            <path data-name="패스 13220" d="M370.3 443.216a7.886 7.886 0 0 1 2.736.453 6.493 6.493 0 0 1 2.143 1.276 6.05 6.05 0 0 1 1.376 2.043 6.89 6.89 0 0 1 .5 2.667 5.527 5.527 0 0 1-.241 1.673 6.443 6.443 0 0 1-.638 1.419 6.952 6.952 0 0 1-.965 1.22 9.128 9.128 0 0 1-1.136.965 9.931 9.931 0 0 1-.879.723 6.226 6.226 0 0 0-.88.78 4.416 4.416 0 0 0-.71 1.007 2.732 2.732 0 0 0-.283 1.262v1.531h-3.263V458.7a5.244 5.244 0 0 1 .865-2.993 8.3 8.3 0 0 1 2.369-2.284 6.684 6.684 0 0 0 .865-.625 4.831 4.831 0 0 0 .809-.879 4.883 4.883 0 0 0 .61-1.05 3.114 3.114 0 0 0 .241-1.22 3.552 3.552 0 0 0-.966-2.752 3.643 3.643 0 0 0-2.552-.88 2.959 2.959 0 0 0-1.262.284 3.428 3.428 0 0 0-1.065.765 4.146 4.146 0 0 0-.78 1.191 3.648 3.648 0 0 0-.3 1.476h-3.262a5.891 5.891 0 0 1 .554-2.54 7.363 7.363 0 0 1 1.461-2.085 6.859 6.859 0 0 1 2.113-1.39 6.448 6.448 0 0 1 2.54-.502zm1.333 20.907a1.931 1.931 0 0 1-.511 1.333 1.811 1.811 0 0 1-1.419.568 1.9 1.9 0 0 1-1.446-.568 1.877 1.877 0 0 1-.54-1.333 1.945 1.945 0 0 1 .54-1.39 1.9 1.9 0 0 1 1.446-.568 1.811 1.811 0 0 1 1.419.568 2 2 0 0 1 .513 1.39z" transform="translate(-315.138 -429.834)" style="fill:#555"/>
        </g>
    </g>
</svg>
