<svg xmlns="http://www.w3.org/2000/svg" xmlns:xlink="http://www.w3.org/1999/xlink" width="40" height="40" viewBox="0 0 40 40">
  <defs>
    <clipPath id="clip-path">
      <rect id="사각형_12449" data-name="사각형 12449" width="40" height="40" transform="translate(1006 602)" fill="#fff"/>
    </clipPath>
  </defs>
  <g id="ic_application_40" transform="translate(-1006 -602)" clip-path="url(#clip-path)">
    <g id="그룹_35641" data-name="그룹 35641" transform="translate(15266.143 5383.389)">
      <path id="패스_57318" data-name="패스 57318" d="M6.305,29.115a.6.6,0,0,1,0-1.2c1.772,0,2.2-2.976,2.247-3.3V1a.6.6,0,1,1,1.2,0V24.651a.6.6,0,0,1,0,.064,8.3,8.3,0,0,1-.554,2.1C8.392,28.716,7.181,29.115,6.305,29.115Z" transform="translate(-14257.452 -4776.458)" fill="#333"/>
      <path id="선_617" data-name="선 617" d="M11.147.6H0A.6.6,0,0,1-.6,0,.6.6,0,0,1,0-.6H11.147a.6.6,0,0,1,.6.6A.6.6,0,0,1,11.147.6Z" transform="translate(-14243.782 -4770.105)" fill="#7e4f40"/>
      <path id="선_618" data-name="선 618" d="M11.147.6H0A.6.6,0,0,1-.6,0,.6.6,0,0,1,0-.6H11.147a.6.6,0,0,1,.6.6A.6.6,0,0,1,11.147.6Z" transform="translate(-14243.782 -4765.866)" fill="#7e4f40"/>
      <path id="선_619" data-name="선 619" d="M9.282.6H0A.6.6,0,0,1-.6,0,.6.6,0,0,1,0-.6H9.282a.6.6,0,0,1,.6.6A.6.6,0,0,1,9.282.6Z" transform="translate(-14243.782 -4761.627)" fill="#7e4f40"/>
      <path id="선_620" data-name="선 620" d="M7.282.6H0A.6.6,0,0,1-.6,0,.6.6,0,0,1,0-.6H7.282a.6.6,0,0,1,.6.6A.6.6,0,0,1,7.282.6Z" transform="translate(-14243.782 -4757.387)" fill="#7e4f40"/>
      <path id="패스_57319" data-name="패스 57319" d="M5.973,29.737a5.9,5.9,0,0,1-3.908-1.4A4.838,4.838,0,0,1,.4,24.651V20.172a.6.6,0,0,1,.6-.6H5.788L5.874,1a.6.6,0,0,1,.6-.6H26.123a.6.6,0,0,1,.6.6V25.718q.006.169,0,.332v.1a.6.6,0,0,1-.013.123,3.384,3.384,0,0,1-.994,2.21,5.465,5.465,0,0,1-3.721,1.246ZM1.6,20.772v3.879c0,2.215,1.88,3.886,4.372,3.886l16.035-.014h.032a4.335,4.335,0,0,0,2.84-.906,2.248,2.248,0,0,0,.644-1.587v-.3s0,0,0-.006V1.6H7.071L6.985,20.175a.6.6,0,0,1-.6.6Z" transform="translate(-14254.686 -4776.458)" fill="#333"/>
      <g id="그룹_35640" data-name="그룹 35640" transform="matrix(0.966, -0.259, 0.259, 0.966, 745.697, -3846.5)">
        <path id="패스_57320" data-name="패스 57320" d="M1,27.241l1.5-4.856,3.438,3.438Z" transform="translate(-14237.891 -4775.246)" fill="#fbfbfb"/>
        <path id="패스_57320_-_윤곽선" data-name="패스 57320 - 윤곽선" d="M1,27.741a.5.5,0,0,1-.478-.648l1.5-4.856a.5.5,0,0,1,.831-.206L6.3,25.469a.5.5,0,0,1-.216.834L1.138,27.721A.5.5,0,0,1,1,27.741Zm1.737-4.416L1.751,26.5l3.237-.929Z" transform="translate(-14237.891 -4775.246)" fill="#333"/>
        <rect id="사각형_12447" data-name="사각형 12447" width="12.64" height="4.861" transform="translate(-14235.387 -4752.861) rotate(-45)" fill="#fbfbfb"/>
        <path id="사각형_12447_-_윤곽선" data-name="사각형 12447 - 윤곽선" d="M0-.5H12.64a.5.5,0,0,1,.5.5V4.861a.5.5,0,0,1-.5.5H0a.5.5,0,0,1-.5-.5V0A.5.5,0,0,1,0-.5ZM12.14.5H.5V4.361H12.14Z" transform="translate(-14235.387 -4752.861) rotate(-45)" fill="#333"/>
        <path id="패스_57321" data-name="패스 57321" d="M26.948,2.8,25.573,1.427a1.458,1.458,0,0,0-2.063,0L22.479,2.458,25.917,5.9l1.031-1.031A1.458,1.458,0,0,0,26.948,2.8Z" transform="translate(-14248.929 -4764.258)" fill="#fff"/>
        <path id="패스_57321_-_윤곽선" data-name="패스 57321 - 윤곽선" d="M24.541.5a1.946,1.946,0,0,1,1.385.574L27.3,2.449a1.961,1.961,0,0,1,0,2.77L26.27,6.25a.5.5,0,0,1-.707,0L22.125,2.812a.5.5,0,0,1,0-.707l1.031-1.031A1.945,1.945,0,0,1,24.541.5Zm1.375,4.689.678-.678a.96.96,0,0,0,0-1.356L25.219,1.781a.958.958,0,0,0-1.355,0l-.678.678Z" transform="translate(-14248.929 -4764.258)" fill="#333"/>
        <rect id="사각형_12448" data-name="사각형 12448" width="12.64" height="3.861" transform="translate(-14234.11 -4752.185) rotate(-45)" fill="#a48379" style="mix-blend-mode: multiply;isolation: isolate"/>
      </g>
    </g>
  </g>
</svg>
