<svg xmlns="http://www.w3.org/2000/svg" width="40" height="40" viewBox="0 0 40 40">
    <g style="fill:#fff">
        <path d="M20 39.375A19.311 19.311 0 0 1 6.3 33.7 19.311 19.311 0 0 1 .625 20 19.311 19.311 0 0 1 6.3 6.3 19.311 19.311 0 0 1 20 .625 19.311 19.311 0 0 1 33.7 6.3 19.311 19.311 0 0 1 39.375 20 19.311 19.311 0 0 1 33.7 33.7 19.311 19.311 0 0 1 20 39.375z" style="stroke:none"/>
        <path d="M20 1.25A18.69 18.69 0 0 0 6.742 6.742 18.69 18.69 0 0 0 1.25 20a18.69 18.69 0 0 0 5.492 13.258A18.689 18.689 0 0 0 20 38.75a18.689 18.689 0 0 0 13.258-5.492A18.689 18.689 0 0 0 38.75 20a18.689 18.689 0 0 0-5.492-13.258A18.69 18.69 0 0 0 20 1.25M20 0c11.046 0 20 8.954 20 20s-8.954 20-20 20S0 31.046 0 20 8.954 0 20 0z" style="fill:#7e4f40;stroke:none"/>
    </g>
    <g data-name="그룹 32878">
        <path data-name="선 1131" transform="translate(13.078 20)" style="fill:none;stroke:#7e4f40;stroke-linecap:round;stroke-linejoin:round;stroke-width:2px" d="M0 0h13.845"/>
        <path data-name="선 1132" transform="translate(20 13.077)" style="fill:none;stroke:#7e4f40;stroke-linecap:round;stroke-linejoin:round;stroke-width:2px" d="M0 0v13.844"/>
    </g>
</svg>
