<svg xmlns="http://www.w3.org/2000/svg" width="20" height="20" viewBox="0 0 20 20">
    <path data-name="사각형 3132" style="fill:none" d="M0 0h20v20H0z"/>
    <g data-name="icon_call" style="stroke-miterlimit:10;fill:none">
        <path d="m164.348 837.752 1.436-1.449a1 1 0 0 1 1.422 0l2.987 3.012a.469.469 0 0 1 0 .66l-1.726 1.741a.279.279 0 0 0-.069.285 11.2 11.2 0 0 0 5.916 6.18.277.277 0 0 0 .318-.053l1.938-1.954a.459.459 0 0 1 .653 0l3.261 3.289a.469.469 0 0 1 0 .66l-2.132 2.151a2.142 2.142 0 0 1-1.951.6c-3.194-.652-11.886-3.346-12.683-13.415a2.181 2.181 0 0 1 .63-1.707z" style="stroke:none" transform="translate(-162.166 -834.461)"/>
        <path d="M166.495 836.005a.998.998 0 0 0-.711.297l-1.436 1.45a2.181 2.181 0 0 0-.63 1.704c.797 10.07 9.488 12.763 12.683 13.415.709.145 1.44-.08 1.951-.597l2.132-2.15a.47.47 0 0 0 0-.66l-3.26-3.29a.459.459 0 0 0-.654-.001l-1.938 1.954a.276.276 0 0 1-.318.053c-4.386-2.176-5.667-5.416-5.916-6.18a.279.279 0 0 1 .07-.285l1.725-1.74a.47.47 0 0 0 0-.66l-2.987-3.013a.998.998 0 0 0-.711-.297m0-1.5c.671 0 1.302.264 1.776.741l2.987 3.012c.76.766.76 2.01-.002 2.775l-1.158 1.168c.478.993 1.623 2.776 4.112 4.222l1.294-1.305c.374-.376.867-.58 1.392-.58.527 0 1.022.206 1.394.582l3.26 3.287c.759.766.758 2.01-.002 2.774l-2.13 2.15a3.625 3.625 0 0 1-3.318 1.01c-1.674-.342-4.919-1.245-7.843-3.448-1.642-1.238-2.977-2.728-3.967-4.43-1.17-2.01-1.865-4.327-2.067-6.889a3.671 3.671 0 0 1 1.06-2.88l1.436-1.448a2.485 2.485 0 0 1 1.776-.74z" style="fill:#fff;stroke:none" transform="translate(-162.166 -834.461)"/>
    </g>
</svg>
