<svg xmlns="http://www.w3.org/2000/svg" width="16" height="16">
    <defs>
        <style>
            .cls-4{fill:none}.cls-2,.cls-3{fill:#333}.cls-3,.cls-4{stroke:#333}.cls-3{stroke-width:.25px}
        </style>
    </defs>
    <g id="iconMore" transform="translate(-168 -433)">
        <path id="사각형_2604" data-name="사각형 2604" transform="translate(168 433)" style="fill:none" d="M0 0h16v16H0z"/>
        <g id="icon_re" transform="translate(168.667 433.67)">
            <g id="그룹_2513" data-name="그룹 2513">
                <g id="그룹_2512" data-name="그룹 2512">
                    <g id="그룹_2511" data-name="그룹 2511">
                        <path id="패스_3997" data-name="패스 3997" class="cls-2" d="M458.426 797.691a.447.447 0 0 1-.083-.008.413.413 0 0 1-.108-.038.427.427 0 0 1-.11-.079.444.444 0 0 1-.078-.107.431.431 0 0 1-.039-.115.432.432 0 0 1-.008-.082v-4.532a.427.427 0 0 1 .125-.3l9.278-9.28a.426.426 0 0 1 .6 0l4.533 4.534a.427.427 0 0 1 0 .6l-9.278 9.28a.426.426 0 0 1-.3.125h-4.533zm.426-.853h3.93l8.852-8.853-3.93-3.93-8.851 8.853z" transform="translate(-458 -783.024)"/>
                    </g>
                    <path id="패스_3998" data-name="패스 3998" class="cls-2" d="M472.078 790.7a.4.4 0 0 1-.284-.117l-3.951-3.928a.4.4 0 0 1 0-.564.4.4 0 0 1 .568 0l3.951 3.928a.4.4 0 0 1-.284.681z" transform="translate(-460.2 -783.671)"/>
                </g>
            </g>
            <path id="사각형_1112" data-name="사각형 1112" class="cls-3" transform="rotate(-45.002 11.936 4.444)" d="M0 0h.707v6.666H0z"/>
            <path id="패스_16596" data-name="패스 16596" class="cls-3" d="M.353 0a.353.353 0 0 1 .354.353l.028 1.9c0 .2-.186-.078-.381-.078A.353.353 0 0 1 0 1.817V.353A.353.353 0 0 1 .353 0z" transform="rotate(-45 15.606 6.415)"/>
            <path id="패스_16593" data-name="패스 16593" class="cls-4" d="m462.442 797.212 7.04-7.147" transform="translate(-460.147 -786.034)"/>
            <path id="패스_16594" data-name="패스 16594" class="cls-4" d="m462.442 797.212 7.04-7.147" transform="translate(-458.814 -784.697)"/>
            <path id="패스_16595" data-name="패스 16595" d="M-10053.974-18258h6.218" transform="translate(10061.881 18272.205)" style="stroke-linecap:round;stroke:#333;fill:none"/>
        </g>
    </g>
</svg>
