<svg xmlns="http://www.w3.org/2000/svg" width="16.093" height="16" viewBox="0 0 16.093 16">
    <defs>
        <style>
            .cls-2{fill:#333;stroke:#333;stroke-width:.2px}
        </style>
    </defs>
    <g id="icon_review" transform="translate(-212.907 -819)">
        <path id="사각형_2614" data-name="사각형 2614" transform="translate(213 819)" style="fill:none" d="M0 0h16v16H0z"/>
        <g id="aa" transform="translate(-337.8 177.363)">
            <g id="그룹_2735" data-name="그룹 2735" transform="translate(551 641.839)">
                <g id="그룹_2734" data-name="그룹 2734">
                    <path id="패스_4295" data-name="패스 4295" class="cls-2" d="M558.8 657.434a7.786 7.786 0 0 1-3.909-1.049l-3.266.875a.367.367 0 0 1-.45-.45l.875-3.266a7.8 7.8 0 1 1 6.749 3.889zm-3.855-1.811a.364.364 0 0 1 .191.054 7.065 7.065 0 1 0-2.377-2.377.367.367 0 0 1 .041.285l-.751 2.8 2.8-.751a.372.372 0 0 1 .1-.011z" transform="translate(-551 -641.839)"/>
                </g>
            </g>
            <path id="패스_4296" data-name="패스 4296" class="cls-2" d="M563.013 656.06a1.183 1.183 0 0 1-.7-.228l-1.09-.791-1.09.791a1.212 1.212 0 0 1-1.4 0 1.189 1.189 0 0 1-.434-1.333l.416-1.281-1.09-.791a1.193 1.193 0 0 1 .7-2.158h1.346l.416-1.281a1.194 1.194 0 0 1 2.27 0l.416 1.281h1.346a1.193 1.193 0 0 1 .7 2.158l-1.089.791.416 1.28a1.193 1.193 0 0 1-1.136 1.561zm-1.791-1.9a.392.392 0 0 1 .231.075l1.321.959a.414.414 0 0 0 .479 0 .406.406 0 0 0 .148-.454l-.5-1.552a.392.392 0 0 1 .143-.439l1.321-.959a.407.407 0 0 0-.24-.736h-1.633a.392.392 0 0 1-.373-.271l-.5-1.552a.407.407 0 0 0-.774 0l-.5 1.552a.392.392 0 0 1-.374.271h-1.632a.407.407 0 0 0-.239.736l1.321.959a.392.392 0 0 1 .143.439l-.5 1.552a.408.408 0 0 0 .148.455.414.414 0 0 0 .478 0l1.321-.959a.391.391 0 0 1 .212-.074z" transform="translate(-2.42 -2.476)"/>
        </g>
    </g>
</svg>
