<svg xmlns="http://www.w3.org/2000/svg" width="18" height="18" viewBox="0 0 18 18">
    <path data-name="사각형 6283" style="fill:none" d="M0 0h18v18H0z"/>
    <g data-name="그룹 31766">
        <path data-name="패스 48721" d="M94.7 223.084a2.486 2.486 0 1 1-2.486-2.486 2.485 2.485 0 0 1 2.486 2.486z" transform="translate(-80.262 -218.121)" style="stroke:#333;stroke-linecap:round;stroke-linejoin:round;stroke-width:1.25px;fill:none"/>
        <path data-name="패스 48722" d="M89.812 243.1h6.044v-4.146a2.149 2.149 0 0 0-2.149-2.15h-4.568a2.14 2.14 0 0 0-.738.133" transform="translate(-79.471 -227.777)" style="stroke:#333;stroke-linecap:round;stroke-linejoin:round;stroke-width:1.25px;fill:none"/>
        <path data-name="패스 48723" d="M77.407 236.935a2.139 2.139 0 0 0-.738-.133H72.1a2.149 2.149 0 0 0-2.149 2.15v4.148h8.867v-4.146a2.148 2.148 0 0 0-1.411-2.019z" transform="translate(-68.477 -227.777)" style="stroke:#333;stroke-linecap:round;stroke-linejoin:round;stroke-width:1.25px;fill:none"/>
        <path data-name="패스 48724" d="M79.742 223.084a2.486 2.486 0 1 1-2.486-2.486 2.485 2.485 0 0 1 2.486 2.486z" transform="translate(-71.349 -218.121)" style="stroke:#333;stroke-linecap:round;stroke-linejoin:round;stroke-width:1.25px;fill:none"/>
    </g>
</svg>
