<svg xmlns="http://www.w3.org/2000/svg" width="16" height="16" viewBox="0 0 16 16">
  <g id="그룹_6904" data-name="그룹 6904" transform="translate(-135 -584)">
    <rect id="사각형_2701" data-name="사각형 2701" width="16" height="16" transform="translate(135 584)" fill="none"/>
    <path id="패스_677" data-name="패스 677" d="M485.8,399.606a4.645,4.645,0,0,0,6.786-6.337l3.15-3.15v2.123a.317.317,0,1,0,.635,0v-2.83a.317.317,0,0,0-.317-.317h-2.83a.317.317,0,1,0,0,.635h2.006l-3.093,3.093a4.645,4.645,0,0,0-6.337,6.785Zm.449-6.124a4.013,4.013,0,1,1,0,5.675A3.987,3.987,0,0,1,486.252,393.483Z" transform="translate(-347.409 196.971)" fill="#858585" stroke="#858585" stroke-width="0.5"/>
  </g>
</svg>
