<svg xmlns="http://www.w3.org/2000/svg" width="16" height="16" viewBox="0 0 16 16">
  <g id="iconWoman" transform="translate(-153 -899)">
    <rect id="사각형_2701" data-name="사각형 2701" width="16" height="16" transform="translate(153 899)" fill="none"/>
    <path id="패스_640" data-name="패스 640" d="M-151.711,373.417v2.175H-154a.314.314,0,0,0-.313.316.314.314,0,0,0,.313.316h2.287v2.308a.314.314,0,0,0,.313.316.314.314,0,0,0,.313-.316v-2.308h2.287a.314.314,0,0,0,.313-.316.314.314,0,0,0-.313-.316h-2.287v-2.175a4.61,4.61,0,0,0,4.27-4.609,4.609,4.609,0,0,0-4.583-4.625,4.609,4.609,0,0,0-4.583,4.625A4.609,4.609,0,0,0-151.711,373.417Zm.313-8.6a3.98,3.98,0,0,1,3.957,3.994A3.98,3.98,0,0,1-151.4,372.8a3.98,3.98,0,0,1-3.957-3.994A3.98,3.98,0,0,1-151.4,364.815Z" transform="translate(312.398 535.817)" fill="#858585" stroke="#858585" stroke-width="0.5"/>
  </g>
</svg>
 