<svg xmlns="http://www.w3.org/2000/svg" width="20" height="20" viewBox="0 0 20 20">
    <g data-name="그룹 38288">
        <path data-name="패스 60828" d="M66.038 56.579a7.62 7.62 0 0 0-10.822-3 8.448 8.448 0 0 0-3.7 5.41" transform="translate(-49.338 -50.006)" style="stroke:#7e4f40;stroke-linecap:round;stroke-linejoin:round;stroke-width:1.5px;fill:none"/>
        <path data-name="패스 60831" d="m67.753 53.563-.45 3.263L64.1 56.6" transform="translate(-50.367 -50.006)" style="stroke:#7e4f40;stroke-linecap:round;stroke-linejoin:round;stroke-width:1.5px;fill:none"/>
        <path data-name="패스 60832" d="M66.038 56.579a7.616 7.616 0 0 0-10.818-3 8.422 8.422 0 0 0-3.627 5.113" transform="translate(-49.338 -50.006)" style="stroke:#7e4f40;stroke-linecap:round;stroke-linejoin:round;stroke-width:1.5px;fill:none"/>
        <path data-name="패스 60828" d="M52.637 64.433a7.62 7.62 0 0 0 10.822 3 8.453 8.453 0 0 0 3.7-5.41" transform="translate(-49.338 -51.006)" style="stroke:#7e4f40;stroke-linecap:round;stroke-linejoin:round;stroke-width:1.5px;fill:none"/>
        <path data-name="패스 60831" d="m51.952 67.449.45-3.262 3.2.228" transform="translate(-49.338 -51.006)" style="stroke:#7e4f40;stroke-linecap:round;stroke-linejoin:round;stroke-width:1.5px;fill:none"/>
        <path data-name="패스 60832" d="M52.637 64.433a7.617 7.617 0 0 0 10.818 3 8.425 8.425 0 0 0 3.627-5.113" transform="translate(-49.338 -51.006)" style="stroke:#7e4f40;stroke-linecap:round;stroke-linejoin:round;stroke-width:1.5px;fill:none"/>
    </g>
    <path data-name="사각형 12483" style="fill:none" d="M0 0h20v20H0z"/>
</svg>
