<svg width="40" height="40" viewBox="0 0 40 40" fill="none" xmlns="http://www.w3.org/2000/svg">
<g id="ic_contract_40">
<mask id="mask0_6437_2292" style="mask-type:luminance" maskUnits="userSpaceOnUse" x="0" y="0" width="40" height="40">
<path id="&#236;&#130;&#172;&#234;&#176;&#129;&#237;&#152;&#149; 12439" fill-rule="evenodd" clip-rule="evenodd" d="M0 0H40V40H0V0Z" fill="white"/>
</mask>
<g mask="url(#mask0_6437_2292)">
</g>
<g id="text" clip-path="url(#clip0_6437_2292)">
<path id="Vector" fill-rule="evenodd" clip-rule="evenodd" d="M31.9678 30.0294C34.2878 30.0294 36.1778 28.1394 36.1778 25.8194C36.1778 23.4994 34.2878 21.6094 31.9678 21.6094C29.6478 21.6094 27.7578 23.4994 27.7578 25.8194C27.7578 28.1394 29.6478 30.0294 31.9678 30.0294Z" fill="#7E4F40" fill-opacity="0.7"/>
<path id="Vector_2" fill-rule="evenodd" clip-rule="evenodd" d="M8.13906 33.71C7.80906 33.71 7.53906 33.44 7.53906 33.11C7.53906 32.78 7.80906 32.51 8.13906 32.51C9.90906 32.51 10.3391 29.53 10.3891 29.21V5.6C10.3891 5.27 10.6591 5 10.9891 5C11.3191 5 11.5891 5.27 11.5891 5.6V29.25C11.5891 29.25 11.5891 29.29 11.5891 29.31C11.5891 29.35 11.4691 30.38 11.0391 31.41C10.2391 33.31 9.02906 33.71 8.14906 33.71H8.13906Z" fill="#333333"/>
<path id="Vector_3" fill-rule="evenodd" clip-rule="evenodd" d="M26.6484 11.5496H15.4984C15.1684 11.5496 14.8984 11.2796 14.8984 10.9496C14.8984 10.6196 15.1684 10.3496 15.4984 10.3496H26.6484C26.9784 10.3496 27.2484 10.6196 27.2484 10.9496C27.2484 11.2796 26.9784 11.5496 26.6484 11.5496Z" fill="#7E4F40"/>
<path id="Vector_4" fill-rule="evenodd" clip-rule="evenodd" d="M26.6484 15.7898H15.4984C15.1684 15.7898 14.8984 15.5198 14.8984 15.1898C14.8984 14.8598 15.1684 14.5898 15.4984 14.5898H26.6484C26.9784 14.5898 27.2484 14.8598 27.2484 15.1898C27.2484 15.5198 26.9784 15.7898 26.6484 15.7898Z" fill="#7E4F40"/>
<path id="Vector_5" fill-rule="evenodd" clip-rule="evenodd" d="M20.7484 20.0301H15.4984C15.1684 20.0301 14.8984 19.7601 14.8984 19.4301C14.8984 19.1001 15.1684 18.8301 15.4984 18.8301H20.7484C21.0784 18.8301 21.3484 19.1001 21.3484 19.4301C21.3484 19.7601 21.0784 20.0301 20.7484 20.0301Z" fill="#7E4F40"/>
<path id="Vector_6" fill-rule="evenodd" clip-rule="evenodd" d="M20.7484 24.2703H15.4984C15.1684 24.2703 14.8984 24.0003 14.8984 23.6703C14.8984 23.3403 15.1684 23.0703 15.4984 23.0703H20.7484C21.0784 23.0703 21.3484 23.3403 21.3484 23.6703C21.3484 24.0003 21.0784 24.2703 20.7484 24.2703Z" fill="#7E4F40"/>
<path id="Vector_7" fill-rule="evenodd" clip-rule="evenodd" d="M25.75 34.3402H10.57C9.08 34.3402 7.69 33.8402 6.66 32.9402C5.59 32.0002 5 30.6902 5 29.2502V24.7702C5 24.4402 5.27 24.1702 5.6 24.1702H10.39L10.48 5.59023C10.48 5.26023 10.75 4.99023 11.08 4.99023H30.73C31.06 4.99023 31.33 5.26023 31.33 5.59023V18.0802C31.33 18.4102 31.06 18.6802 30.73 18.6802C30.4 18.6802 30.13 18.4102 30.13 18.0802V6.20023H11.67L11.58 24.7702C11.58 25.1002 11.31 25.3702 10.98 25.3702H6.2V29.2502C6.2 31.4702 8.08 33.1402 10.57 33.1402H25.75C26.08 33.1402 26.35 33.4102 26.35 33.7402C26.35 34.0702 26.08 34.3402 25.75 34.3402Z" fill="#333333"/>
<path id="Vector_8" fill-rule="evenodd" clip-rule="evenodd" d="M29.8702 29.3106C32.1902 29.3106 34.0802 27.4206 34.0802 25.1006C34.0802 22.7806 32.1902 20.8906 29.8702 20.8906C27.5502 20.8906 25.6602 22.7806 25.6602 25.1006C25.6602 27.4206 27.5502 29.3106 29.8702 29.3106Z" stroke="#333333" stroke-width="1.2" stroke-miterlimit="10"/>
<path id="Vector_9" fill-rule="evenodd" clip-rule="evenodd" d="M29.8612 31.6795C33.4913 31.6795 36.4412 28.7295 36.4412 25.0995C36.4412 21.4695 33.4913 18.5195 29.8612 18.5195C26.2312 18.5195 23.2812 21.4695 23.2812 25.0995C23.2812 28.7295 26.2312 31.6795 29.8612 31.6795Z" stroke="#333333" stroke-width="1.2" stroke-miterlimit="10"/>
<path id="Vector_10" d="M35.0191 28.6289L38.2291 31.5789C38.6791 31.9889 38.6491 32.7389 38.1691 33.2589C37.6891 33.7789 36.9391 33.8689 36.4991 33.4589L33.2891 30.5089" stroke="#333333" stroke-width="1.2" stroke-miterlimit="10"/>
<path id="Vector_11" d="M25.6602 33.7104H29.8702V32.1504" stroke="#333333" stroke-width="1.2" stroke-linejoin="round"/>
</g>
</g>
<defs>
<clipPath id="clip0_6437_2292">
<rect width="34.14" height="29.34" fill="white" transform="translate(5 5)"/>
</clipPath>
</defs>
</svg>
