<svg xmlns="http://www.w3.org/2000/svg" width="36" height="36" viewBox="0 0 36 36">
    <g transform="translate(-34 -224)">
        <circle data-name="타원 1314" cx="18" cy="18" r="18" transform="translate(34 224)" style="fill:#d9000d"/>
        <g data-name="그룹 33369">
            <path data-name="패스 54471" d="M54.446 117.513a.739.739 0 1 1 .031 0h-.031" transform="translate(-5.712 131.93)" style="fill:#fff"/>
            <path data-name="패스 54472" d="M58.609 29.467a1.333 1.333 0 0 0-.988.386 4.642 4.642 0 0 0-.834 3.258c.032 1.9.484 5.625 1.978 7.543a3.313 3.313 0 0 0 .774.738 1.719 1.719 0 0 0 1.019.344 2.282 2.282 0 0 0 .4-.038 5.4 5.4 0 0 0 2.727-2.428.66.66 0 0 1 1.117.7 6.474 6.474 0 0 1-3.564 3.015l-.031.007a3.648 3.648 0 0 1-.654.062 3.047 3.047 0 0 1-1.741-.562 4.652 4.652 0 0 1-1.088-1.028c-2.1-2.7-2.247-7.764-2.256-8.332-.023-1.347.171-3.173 1.224-4.217a2.62 2.62 0 0 1 1.913-.768h.123a2.623 2.623 0 0 1 1.915.768c1.052 1.045 1.246 2.87 1.224 4.217a13.625 13.625 0 0 1-1.737 6.56.664.664 0 0 1-.567.321.66.66 0 0 1-.566-1 11.438 11.438 0 0 0 1.55-5.906 4.641 4.641 0 0 0-.834-3.258 1.329 1.329 0 0 0-.986-.386z" transform="translate(-7.2 206.397)" style="fill:#fff"/>
        </g>
    </g>
</svg>
