<svg xmlns="http://www.w3.org/2000/svg" width="14" height="14" viewBox="0 0 14 14">
    <g>
        <path fill="#cc2121" d="M674.755 652.612a6.994 6.994 0 0 0-9.56 2.565 3.5 3.5 0 1 0 6.061 3.5 3.5 3.5 0 1 1 6.061 3.5 7.012 7.012 0 0 0-2.562-9.565z" transform="translate(-663.11 -651.672) translate(-1.146)"/>
        <path fill="#1747a6" d="M674.889 665.946a3.5 3.5 0 0 0-4.78 1.282 3.5 3.5 0 1 1-6.061-3.5 7 7 0 1 0 12.122 7.006 3.506 3.506 0 0 0-1.281-4.788z" transform="translate(-663.11 -651.672) translate(0 -8.564)"/>
    </g>
</svg>
