<svg xmlns="http://www.w3.org/2000/svg" width="36" height="36" viewBox="0 0 36 36">
    <g transform="translate(-52 -124)">
        <circle data-name="타원 1313" cx="18" cy="18" r="18" transform="translate(52 124)" style="fill:#1434cb"/>
        <path data-name="패스 66741" d="M13.712 0c-1.495 0-2.831.775-2.831 2.206 0 1.642 2.369 1.755 2.369 2.58 0 .347-.4.658-1.078.658a3.578 3.578 0 0 1-1.685-.434l-.308 1.444a5.261 5.261 0 0 0 1.933.367c1.634 0 2.92-.813 2.92-2.269 0-1.735-2.379-1.845-2.379-2.61 0-.272.327-.57 1-.57a3.414 3.414 0 0 1 1.389.316l.3-1.4A4.518 4.518 0 0 0 13.712 0M.036.105 0 .316a7.029 7.029 0 0 1 1.2.345c.729.263.781.417.9.892l1.338 5.159h1.794L8 .105H6.206L4.43 4.6 3.7.79a.783.783 0 0 0-.81-.685zm8.679 0-1.4 6.607h1.703l1.4-6.607h-1.7zm9.52 0a.805.805 0 0 0-.79.605l-2.5 6h1.79l.346-1h2.181l.211 1h1.579L19.674.105zm.233 1.785L19 4.37h-1.423l.891-2.479z" transform="translate(59.474 138.59)" style="fill:#fff"/>
    </g>
</svg>
