<svg xmlns="http://www.w3.org/2000/svg" width="36" height="36" viewBox="0 0 36 36">
    <defs>
        <clipPath id="yv2jx8014a">
            <path data-name="패스 66948" d="M.936 18.007A18 18 0 1 0 18.94.014a17.992 17.992 0 0 0-18 17.993" transform="translate(-.936 -.014)" style="fill:none"/>
        </clipPath>
    </defs>
    <g data-name="그룹 58717">
        <path data-name="패스 66884" d="M18.943 36A18 18 0 1 0 .936 18a18 18 0 0 0 18.007 18" transform="translate(-.936)" style="fill:#0082c9"/>
        <g data-name="그룹 58713" transform="translate(0 .014)" style="clip-path:url(#yv2jx8014a)">
            <path data-name="패스 66885" d="M19.1 26.684c7.922 0 14.7 2.211 17.612 5.339a18.381 18.381 0 0 0 1.5-7.28A18.9 18.9 0 0 0 19.1 6.052 18.906 18.906 0 0 0 0 24.751a18.363 18.363 0 0 0 1.5 7.272c2.909-3.128 9.692-5.339 17.6-5.339" transform="translate(-.936 -.014)" style="fill:#0082c9"/>
            <path data-name="패스 66886" d="M19.1 26.7c7.9 0 14.656 2.2 17.564 5.3a18.114 18.114 0 0 0 1.495-7.221A18.824 18.824 0 0 0 19.1 6.212 18.83 18.83 0 0 0 .046 24.785 18.1 18.1 0 0 0 1.545 32c2.9-3.1 9.666-5.3 17.553-5.3" transform="translate(-.936 -.014)" style="fill:#0184ca"/>
            <path data-name="패스 66887" d="M19.1 26.724c7.881 0 14.621 2.175 17.521 5.252a17.877 17.877 0 0 0 1.491-7.163c0-10.166-8.516-18.442-19.012-18.442S.1 14.651.1 24.82a17.86 17.86 0 0 0 1.495 7.156C4.481 28.9 11.23 26.724 19.1 26.724" transform="translate(-.936 -.014)" style="fill:#0286cc"/>
            <path data-name="패스 66888" d="M19.093 26.744c7.861 0 14.583 2.156 17.476 5.209a17.657 17.657 0 0 0 1.488-7.1c0-10.083-8.495-18.318-18.964-18.318C8.64 6.531.138 14.769.138 24.855a17.639 17.639 0 0 0 1.492 7.1c2.886-3.053 9.617-5.209 17.463-5.209" transform="translate(-.936 -.014)" style="fill:#0388cd"/>
            <path data-name="패스 66889" d="M19.091 26.764c7.84 0 14.546 2.138 17.43 5.166a17.4 17.4 0 0 0 1.485-7.046c0-10-8.472-18.194-18.915-18.194C8.665 6.69.185 14.887.185 24.89a17.384 17.384 0 0 0 1.489 7.04c2.878-3.028 9.592-5.166 17.417-5.166" transform="translate(-.936 -.014)" style="fill:#048ace"/>
            <path data-name="패스 66890" d="M19.088 26.785c7.82 0 14.508 2.12 17.385 5.123a17.166 17.166 0 0 0 1.481-6.988c0-9.92-8.454-18.069-18.866-18.069C8.689 6.851.231 15.007.231 24.925a17.149 17.149 0 0 0 1.485 6.983c2.871-3 9.567-5.123 17.372-5.123" transform="translate(-.936 -.014)" style="fill:#058cd0"/>
            <path data-name="패스 66891" d="M19.086 26.805c7.8 0 14.471 2.1 17.339 5.08a16.915 16.915 0 0 0 1.479-6.93c0-9.833-8.429-17.945-18.818-17.945C8.714 7.01.278 15.125.278 24.96a16.933 16.933 0 0 0 1.481 6.925c2.864-2.978 9.543-5.08 17.327-5.08" transform="translate(-.936 -.014)" style="fill:#068fd1"/>
            <path data-name="패스 66892" d="M19.084 26.825c7.779 0 14.433 2.084 17.294 5.036a16.692 16.692 0 0 0 1.475-6.871c0-9.75-8.407-17.82-18.769-17.82C8.739 7.17.324 15.243.324 25A16.675 16.675 0 0 0 1.8 31.861c2.855-2.952 9.518-5.036 17.281-5.036" transform="translate(-.936 -.014)" style="fill:#0791d2"/>
            <path data-name="패스 66893" d="M19.081 26.845c7.759 0 14.4 2.066 17.249 4.993a16.463 16.463 0 0 0 1.47-6.813c0-9.666-8.384-17.7-18.72-17.7C8.763 7.329.37 15.361.37 25.03a16.462 16.462 0 0 0 1.475 6.808c2.848-2.927 9.493-4.993 17.236-4.993" transform="translate(-.936 -.014)" style="fill:#0893d4"/>
            <path data-name="패스 66894" d="M19.079 26.865c7.738 0 14.359 2.048 17.2 4.95a16.217 16.217 0 0 0 1.469-6.755c0-9.583-8.363-17.571-18.672-17.571C8.788 7.489.417 15.48.417 25.065a16.23 16.23 0 0 0 1.471 6.75c2.841-2.9 9.469-4.95 17.191-4.95" transform="translate(-.936 -.014)" style="fill:#0995d5"/>
            <path data-name="패스 66895" d="M19.076 26.885c7.718 0 14.321 2.03 17.158 4.907A15.985 15.985 0 0 0 37.7 25.1c0-9.5-8.341-17.448-18.623-17.448C8.813 7.648.463 15.6.463 25.1a15.985 15.985 0 0 0 1.468 6.693c2.833-2.877 9.443-4.907 17.145-4.907" transform="translate(-.936 -.014)" style="fill:#0a97d7"/>
            <path data-name="패스 66896" d="M19.074 26.906c7.7 0 14.284 2.011 17.112 4.864a15.745 15.745 0 0 0 1.462-6.638c0-9.417-8.319-17.323-18.574-17.323C8.838 7.809.509 15.717.509 25.135a15.775 15.775 0 0 0 1.465 6.635c2.826-2.853 9.419-4.864 17.1-4.864" transform="translate(-.936 -.014)" style="fill:#0b99d8"/>
            <path data-name="패스 66897" d="M19.071 26.926c7.677 0 14.246 1.993 17.067 4.82a15.525 15.525 0 0 0 1.462-6.579c0-9.334-8.3-17.2-18.526-17.2C8.862 7.968.555 15.835.555 25.17a15.539 15.539 0 0 0 1.461 6.576c2.819-2.827 9.394-4.82 17.055-4.82" transform="translate(-.936 -.014)" style="fill:#0c9bd9"/>
            <path data-name="패스 66898" d="M19.069 26.946c7.657 0 14.209 1.975 17.022 4.777a15.3 15.3 0 0 0 1.455-6.523c0-9.25-8.275-17.074-18.477-17.074C8.887 8.128.6 15.954.6 25.205a15.3 15.3 0 0 0 1.46 6.518c2.81-2.8 9.369-4.777 17.009-4.777" transform="translate(-.936 -.014)" style="fill:#0d9ddb"/>
            <path data-name="패스 66899" d="M19.066 26.966c7.636 0 14.171 1.957 16.976 4.734a15.059 15.059 0 0 0 1.452-6.463c0-9.167-8.253-16.95-18.428-16.95C8.911 8.287.648 16.072.648 25.24A15.091 15.091 0 0 0 2.1 31.7c2.8-2.777 9.344-4.734 16.964-4.734" transform="translate(-.936 -.014)" style="fill:#0e9fdc"/>
            <path data-name="패스 66900" d="M19.064 26.986c7.616 0 14.134 1.939 16.931 4.691a14.843 14.843 0 0 0 1.449-6.405c0-9.084-8.232-16.825-18.38-16.825C8.936 8.447.694 16.19.694 25.274a14.872 14.872 0 0 0 1.451 6.4c2.8-2.752 9.32-4.691 16.919-4.691" transform="translate(-.936 -.014)" style="fill:#0fa1dd"/>
            <path data-name="패스 66901" d="M19.062 27.006c7.595 0 14.095 1.921 16.885 4.648a14.633 14.633 0 0 0 1.445-6.346c0-9-8.209-16.7-18.33-16.7-10.1 0-18.321 7.7-18.321 16.7a14.636 14.636 0 0 0 1.448 6.345c2.788-2.727 9.294-4.648 16.873-4.648" transform="translate(-.936 -.014)" style="fill:#0fa4df"/>
            <path data-name="패스 66902" d="M19.059 27.026c7.575 0 14.059 1.9 16.84 4.605a14.394 14.394 0 0 0 1.442-6.287c0-8.918-8.187-16.577-18.282-16.577C8.986 8.767.787 16.427.787 25.345a14.424 14.424 0 0 0 1.444 6.286c2.781-2.7 9.27-4.605 16.828-4.605" transform="translate(-.936 -.014)" style="fill:#10a6e0"/>
            <path data-name="패스 66903" d="M19.057 27.047c7.555 0 14.021 1.884 16.795 4.561a14.172 14.172 0 0 0 1.439-6.229c0-8.835-8.166-16.453-18.234-16.453C9.011 8.926.834 16.546.834 25.38a14.2 14.2 0 0 0 1.44 6.228c2.774-2.677 9.245-4.561 16.783-4.561" transform="translate(-.936 -.014)" style="fill:#11a8e1"/>
            <path data-name="패스 66904" d="M19.054 27.067c7.534 0 13.984 1.866 16.749 4.518a13.944 13.944 0 0 0 1.436-6.171c0-8.751-8.144-16.328-18.185-16.328C9.035 9.086.879 16.664.879 25.415a13.986 13.986 0 0 0 1.438 6.17c2.765-2.652 9.22-4.518 16.737-4.518" transform="translate(-.936 -.014)" style="fill:#12aae3"/>
            <path data-name="패스 66905" d="M19.052 27.087c7.514 0 13.947 1.848 16.7 4.475a13.741 13.741 0 0 0 1.432-6.113c0-8.668-8.122-16.2-18.136-16.2C9.06 9.245.926 16.783.926 25.449a13.77 13.77 0 0 0 1.434 6.113c2.758-2.627 9.195-4.475 16.692-4.475" transform="translate(-.936 -.014)" style="fill:#13ace4"/>
            <path data-name="패스 66906" d="M19.049 27.107c7.494 0 13.909 1.83 16.659 4.432a13.528 13.528 0 0 0 1.428-6.055c0-8.584-8.1-16.079-18.087-16.079C9.084 9.4.972 16.9.972 25.484A13.557 13.557 0 0 0 2.4 31.539c2.751-2.6 9.171-4.432 16.647-4.432" transform="translate(-.936 -.014)" style="fill:#14aee5"/>
            <path data-name="패스 66907" d="M19.047 27.127c7.473 0 13.872 1.812 16.613 4.389a13.3 13.3 0 0 0 1.426-6c0-8.5-8.078-15.955-18.039-15.955-9.938 0-18.028 7.455-18.028 15.955a13.343 13.343 0 0 0 1.427 6c2.743-2.577 9.145-4.389 16.6-4.389" transform="translate(-.936 -.014)" style="fill:#15b0e7"/>
            <path data-name="패스 66908" d="M19.044 27.147c7.453 0 13.834 1.794 16.568 4.345a13.085 13.085 0 0 0 1.422-5.937c0-8.419-8.056-15.831-17.99-15.831-9.91 0-17.98 7.413-17.98 15.83a13.126 13.126 0 0 0 1.424 5.938c2.736-2.551 9.121-4.345 16.556-4.345" transform="translate(-.936 -.014)" style="fill:#16b2e8"/>
            <path data-name="패스 66909" d="M19.042 27.168c7.432 0 13.8 1.776 16.522 4.3a12.862 12.862 0 0 0 1.419-5.879c0-8.335-8.034-15.706-17.941-15.706-9.883 0-17.931 7.372-17.931 15.705a12.914 12.914 0 0 0 1.42 5.88c2.729-2.526 9.1-4.3 16.511-4.3" transform="translate(-.936 -.014)" style="fill:#17b4ea"/>
            <path data-name="패스 66910" d="M19.039 27.188c7.412 0 13.759 1.757 16.477 4.259a12.665 12.665 0 0 0 1.416-5.821c0-8.252-8.013-15.582-17.893-15.582-9.856 0-17.882 7.331-17.882 15.58a12.709 12.709 0 0 0 1.417 5.823c2.72-2.5 9.071-4.259 16.465-4.259" transform="translate(-.936 -.014)" style="fill:#18b6eb"/>
            <path data-name="패스 66911" d="M19.037 27.208c7.392 0 13.722 1.739 16.432 4.216a12.457 12.457 0 0 0 1.412-5.763c0-8.168-7.99-15.457-17.844-15.457C9.208 10.2 1.2 17.493 1.2 25.659a12.5 12.5 0 0 0 1.413 5.765c2.713-2.477 9.046-4.216 16.42-4.216" transform="translate(-.936 -.014)" style="fill:#19b9ec"/>
            <path data-name="패스 66912" d="M19.035 27.228c7.37 0 13.683 1.721 16.385 4.173a12.229 12.229 0 0 0 1.409-5.701c0-8.085-7.968-15.333-17.794-15.333-9.8 0-17.785 7.248-17.785 15.331A12.3 12.3 0 0 0 2.66 31.4c2.706-2.452 9.021-4.173 16.375-4.173" transform="translate(-.936 -.014)" style="fill:#1abbee"/>
            <path data-name="패스 66913" d="M19.032 27.248c7.351 0 13.647 1.7 16.341 4.13a12.04 12.04 0 0 0 1.406-5.647c0-8-7.947-15.208-17.747-15.208C9.257 10.523 1.3 17.73 1.3 25.729a12.09 12.09 0 0 0 1.4 5.649c2.7-2.427 9-4.13 16.329-4.13" transform="translate(-.936 -.014)" style="fill:#1bbdef"/>
            <path data-name="패스 66914" d="M19.03 27.268c7.33 0 13.609 1.685 16.295 4.086a11.83 11.83 0 0 0 1.4-5.588c0-7.918-7.925-15.084-17.7-15.084-9.748 0-17.687 7.166-17.687 15.081a11.883 11.883 0 0 0 1.4 5.591c2.691-2.4 8.972-4.086 16.284-4.086" transform="translate(-.936 -.014)" style="fill:#1cbff0"/>
            <path data-name="패스 66915" d="M19.027 27.288c7.31 0 13.572 1.668 16.25 4.044a11.629 11.629 0 0 0 1.4-5.529c0-7.836-7.9-14.96-17.649-14.96-9.72 0-17.638 7.124-17.638 14.956a11.7 11.7 0 0 0 1.4 5.533c2.684-2.376 8.948-4.044 16.239-4.044" transform="translate(-.936 -.014)" style="fill:#1dc1f2"/>
            <path data-name="패스 66916" d="M19.025 27.309c7.29 0 13.535 1.649 16.2 4a11.429 11.429 0 0 0 1.4-5.471c0-7.753-7.881-14.836-17.6-14.836-9.693 0-17.59 7.083-17.59 14.832a11.479 11.479 0 0 0 1.4 5.475c2.675-2.351 8.922-4 16.193-4" transform="translate(-.936 -.014)" style="fill:#1ec3f3"/>
            <path data-name="패스 66917" d="M19.025 27.354c7.28 0 13.517 1.638 16.183 3.974a11.315 11.315 0 0 0 1.392-5.434c0-7.7-7.871-14.745-17.577-14.745-9.68 0-17.566 7.042-17.566 14.741a11.361 11.361 0 0 0 1.394 5.438c2.672-2.336 8.911-3.974 16.172-3.974" transform="translate(-.936 -.014)" style="fill:#25c5f3"/>
            <path data-name="패스 66918" d="M19.025 27.4c7.27 0 13.5 1.628 16.161 3.948a11.193 11.193 0 0 0 1.392-5.4c0-7.652-7.86-14.653-17.553-14.653-9.668 0-17.542 7-17.542 14.65a11.241 11.241 0 0 0 1.392 5.4c2.668-2.32 8.9-3.948 16.15-3.948" transform="translate(-.936 -.014)" style="fill:#2dc7f4"/>
            <path data-name="패스 66919" d="M19.025 27.446c7.26 0 13.48 1.617 16.139 3.922A11.081 11.081 0 0 0 36.554 26c0-7.6-7.849-14.562-17.529-14.562C9.37 11.442 1.507 18.4 1.507 26A11.132 11.132 0 0 0 2.9 31.368c2.664-2.305 8.886-3.922 16.128-3.922" transform="translate(-.936 -.014)" style="fill:#34c9f4"/>
            <path data-name="패스 66920" d="M19.025 27.492c7.25 0 13.462 1.607 16.117 3.9a10.973 10.973 0 0 0 1.388-5.332c0-7.552-7.839-14.471-17.5-14.471-9.642 0-17.494 6.919-17.494 14.467a11.009 11.009 0 0 0 1.388 5.332c2.66-2.289 8.874-3.9 16.106-3.9" transform="translate(-.936 -.014)" style="fill:#3bcbf5"/>
            <path data-name="패스 66921" d="M19.025 27.538c7.24 0 13.444 1.6 16.095 3.87a10.851 10.851 0 0 0 1.386-5.292c0-7.5-7.828-14.381-17.481-14.381-9.629 0-17.47 6.879-17.47 14.377a10.893 10.893 0 0 0 1.386 5.3c2.656-2.275 8.862-3.87 16.084-3.871" transform="translate(-.936 -.014)" style="fill:#42cdf5"/>
            <path data-name="패스 66922" d="M19.025 27.583c7.23 0 13.426 1.586 16.073 3.845a10.741 10.741 0 0 0 1.384-5.257c0-7.452-7.818-14.289-17.457-14.289-9.617 0-17.446 6.837-17.446 14.286a10.784 10.784 0 0 0 1.383 5.261c2.652-2.26 8.851-3.844 16.063-3.846" transform="translate(-.936 -.014)" style="fill:#4acff5"/>
            <path data-name="패스 66923" d="M19.025 27.629c7.22 0 13.408 1.575 16.051 3.818a10.623 10.623 0 0 0 1.382-5.221c0-7.4-7.807-14.2-17.433-14.2-9.6 0-17.422 6.8-17.422 14.194a10.664 10.664 0 0 0 1.381 5.226c2.648-2.244 8.839-3.818 16.041-3.819" transform="translate(-.936 -.014)" style="fill:#51d1f6"/>
            <path data-name="패스 66924" d="M19.025 27.675c7.211 0 13.39 1.565 16.029 3.792a10.513 10.513 0 0 0 1.38-5.185c0-7.352-7.8-14.107-17.409-14.107-9.591 0-17.4 6.755-17.4 14.1a10.554 10.554 0 0 0 1.38 5.19c2.644-2.228 8.826-3.792 16.019-3.793" transform="translate(-.936 -.014)" style="fill:#58d2f6"/>
            <path data-name="패스 66925" d="M19.025 27.721c7.2 0 13.372 1.554 16.007 3.766a10.407 10.407 0 0 0 1.379-5.149c0-7.3-7.787-14.016-17.386-14.016-9.578 0-17.375 6.714-17.375 14.012a10.434 10.434 0 0 0 1.378 5.154c2.64-2.213 8.814-3.766 16-3.767" transform="translate(-.936 -.014)" style="fill:#5fd4f6"/>
            <path data-name="패스 66926" d="M19.025 27.767c7.191 0 13.354 1.544 15.985 3.74a10.285 10.285 0 0 0 1.377-5.113c0-7.252-7.776-13.925-17.362-13.925-9.566 0-17.351 6.673-17.351 13.921a10.324 10.324 0 0 0 1.375 5.118c2.637-2.2 8.8-3.74 15.976-3.741" transform="translate(-.936 -.014)" style="fill:#67d6f7"/>
            <path data-name="패스 66927" d="M19.025 27.812c7.181 0 13.336 1.533 15.963 3.714a10.178 10.178 0 0 0 1.375-5.078c0-7.2-7.765-13.833-17.338-13.833-9.553 0-17.325 6.632-17.325 13.83a10.208 10.208 0 0 0 1.373 5.082c2.633-2.182 8.791-3.714 15.954-3.715" transform="translate(-.936 -.014)" style="fill:#6ed8f7"/>
            <path data-name="패스 66928" d="M19.025 27.858c7.171 0 13.318 1.523 15.94 3.688a10.053 10.053 0 0 0 1.374-5.046c0-7.151-7.755-13.742-17.314-13.742-9.54 0-17.3 6.591-17.3 13.738a10.093 10.093 0 0 0 1.371 5.047c2.628-2.166 8.779-3.688 15.932-3.689" transform="translate(-.936 -.014)" style="fill:#75daf8"/>
            <path data-name="패스 66929" d="M19.025 27.9c7.161 0 13.3 1.512 15.918 3.662a9.946 9.946 0 0 0 1.372-5.006c0-7.1-7.744-13.651-17.29-13.651-9.527 0-17.279 6.55-17.279 13.647a9.989 9.989 0 0 0 1.369 5.012c2.624-2.152 8.766-3.662 15.91-3.664" transform="translate(-.936 -.014)" style="fill:#7cdcf8"/>
            <path data-name="패스 66930" d="M19.025 27.95c7.151 0 13.282 1.5 15.9 3.636a9.841 9.841 0 0 0 1.37-4.97c0-7.052-7.733-13.561-17.266-13.561-9.519 0-17.259 6.509-17.259 13.557a9.883 9.883 0 0 0 1.366 4.976c2.621-2.136 8.755-3.636 15.889-3.638" transform="translate(-.936 -.014)" style="fill:#84def8"/>
            <path data-name="패스 66931" d="M19.025 28c7.141 0 13.263 1.491 15.874 3.61a9.726 9.726 0 0 0 1.368-4.935c0-7-7.723-13.469-17.242-13.469-9.5 0-17.232 6.468-17.232 13.466a9.767 9.767 0 0 0 1.365 4.94C5.775 29.487 11.9 28 19.025 28" transform="translate(-.936 -.014)" style="fill:#8be0f9"/>
            <path data-name="패스 66932" d="M19.025 28.041c7.131 0 13.245 1.481 15.852 3.584a9.62 9.62 0 0 0 1.366-4.9c0-6.951-7.712-13.378-17.218-13.378-9.489 0-17.208 6.427-17.208 13.374a9.654 9.654 0 0 0 1.363 4.906c2.613-2.105 8.731-3.584 15.845-3.586" transform="translate(-.936 -.014)" style="fill:#92e2f9"/>
            <path data-name="패스 66933" d="M19.025 28.087c7.121 0 13.227 1.47 15.83 3.558a9.514 9.514 0 0 0 1.364-4.863c0-6.9-7.7-13.287-17.194-13.287-9.476 0-17.184 6.386-17.184 13.283A9.536 9.536 0 0 0 3.2 31.647c2.609-2.09 8.718-3.558 15.823-3.56" transform="translate(-.936 -.014)" style="fill:#99e4fa"/>
            <path data-name="패스 66934" d="M19.025 28.133c7.112 0 13.209 1.46 15.808 3.532a9.4 9.4 0 0 0 1.362-4.827c0-6.851-7.691-13.2-17.17-13.2s-17.16 6.349-17.16 13.196a9.433 9.433 0 0 0 1.359 4.833c2.6-2.074 8.706-3.532 15.8-3.534" transform="translate(-.936 -.014)" style="fill:#a1e6fa"/>
            <path data-name="패스 66935" d="M19.025 28.179c7.1 0 13.191 1.449 15.786 3.506a9.3 9.3 0 0 0 1.36-4.791c0-6.8-7.68-13.105-17.146-13.105s-17.136 6.3-17.136 13.1a9.327 9.327 0 0 0 1.356 4.8c2.6-2.059 8.695-3.506 15.78-3.508" transform="translate(-.936 -.014)" style="fill:#a8e8fa"/>
            <path data-name="패스 66936" d="M19.025 28.225c7.092 0 13.173 1.439 15.764 3.48a9.186 9.186 0 0 0 1.359-4.756c0-6.751-7.671-13.013-17.123-13.013S1.913 20.2 1.913 26.945a9.217 9.217 0 0 0 1.354 4.762c2.6-2.043 8.683-3.48 15.758-3.482" transform="translate(-.936 -.014)" style="fill:#afeafb"/>
            <path data-name="패스 66937" d="M19.025 28.27c7.082 0 13.155 1.428 15.742 3.454A9.082 9.082 0 0 0 36.124 27c0-6.7-7.66-12.922-17.1-12.922S1.937 20.3 1.937 27a9.1 9.1 0 0 0 1.352 4.726c2.593-2.026 8.671-3.454 15.736-3.456" transform="translate(-.936 -.014)" style="fill:#b6ecfb"/>
            <path data-name="패스 66938" d="M19.025 28.316c7.072 0 13.137 1.418 15.72 3.428A8.982 8.982 0 0 0 36.1 27.06c0-6.651-7.649-12.832-17.075-12.832S1.961 20.409 1.961 27.056a9 9 0 0 0 1.35 4.691c2.589-2.013 8.658-3.428 15.714-3.431" transform="translate(-.936 -.014)" style="fill:#beeefc"/>
            <path data-name="패스 66939" d="M19.025 28.362c7.062 0 13.119 1.407 15.7 3.4a8.87 8.87 0 0 0 1.353-4.648c0-6.6-7.639-12.741-17.051-12.741S1.984 20.515 1.984 27.112a8.9 8.9 0 0 0 1.348 4.655c2.586-2 8.647-3.4 15.693-3.405" transform="translate(-.936 -.014)" style="fill:#c5f0fc"/>
            <path data-name="패스 66940" d="M19.025 28.408c7.052 0 13.1 1.4 15.676 3.376a8.769 8.769 0 0 0 1.351-4.613c0-6.55-7.628-12.649-17.027-12.649S2.008 20.621 2.008 27.168a8.794 8.794 0 0 0 1.346 4.619c2.581-1.982 8.635-3.376 15.671-3.379" transform="translate(-.936 -.014)" style="fill:#ccf1fc"/>
            <path data-name="패스 66941" d="M19.025 28.454c7.042 0 13.083 1.386 15.654 3.35a8.658 8.658 0 0 0 1.349-4.577c0-6.5-7.617-12.558-17-12.558S2.032 20.727 2.032 27.223a8.681 8.681 0 0 0 1.344 4.584c2.577-1.967 8.624-3.35 15.649-3.353" transform="translate(-.936 -.014)" style="fill:#d3f3fd"/>
            <path data-name="패스 66942" d="M19.025 28.5c7.032 0 13.065 1.376 15.632 3.324A8.557 8.557 0 0 0 36 27.282c0-6.45-7.607-12.467-16.979-12.467S2.056 20.832 2.056 27.278A8.574 8.574 0 0 0 3.4 31.826c2.571-1.951 8.609-3.326 15.625-3.326" transform="translate(-.936 -.014)" style="fill:#dbf5fd"/>
            <path data-name="패스 66943" d="M19.025 28.545c7.022 0 13.047 1.365 15.61 3.3a8.459 8.459 0 0 0 1.345-4.505c0-6.4-7.6-12.376-16.955-12.376S2.08 20.937 2.08 27.334a8.472 8.472 0 0 0 1.339 4.512c2.57-1.936 8.6-3.3 15.606-3.3" transform="translate(-.936 -.014)" style="fill:#e2f7fd"/>
            <path data-name="패스 66944" d="M19.025 28.591c7.013 0 13.028 1.355 15.588 3.272a8.35 8.35 0 0 0 1.343-4.469c0-6.351-7.586-12.285-16.931-12.285S2.1 21.043 2.1 27.39a8.374 8.374 0 0 0 1.337 4.476c2.566-1.92 8.587-3.272 15.584-3.275" transform="translate(-.936 -.014)" style="fill:#e9f9fe"/>
            <path data-name="패스 66945" d="M19.025 28.637c7 0 13.01 1.344 15.566 3.246a8.251 8.251 0 0 0 1.341-4.434c0-6.3-7.575-12.193-16.907-12.193s-16.9 5.893-16.9 12.189a8.264 8.264 0 0 0 1.335 4.441c2.562-1.905 8.575-3.246 15.562-3.249" transform="translate(-.936 -.014)" style="fill:#f0fbfe"/>
            <path data-name="패스 66946" d="M19.025 28.683c6.993 0 12.992 1.334 15.544 3.22a8.156 8.156 0 0 0 1.34-4.4c0-6.25-7.565-12.1-16.884-12.1S2.152 21.255 2.152 27.5a8.164 8.164 0 0 0 1.333 4.406c2.558-1.89 8.563-3.22 15.54-3.224" transform="translate(-.936 -.014)" style="fill:#f8fdff"/>
            <path data-name="패스 66947" d="M19.025 28.728c6.983 0 12.974 1.323 15.522 3.194a8.049 8.049 0 0 0 1.338-4.362c0-6.2-7.555-12.012-16.86-12.012S2.175 21.36 2.175 27.556a8.065 8.065 0 0 0 1.331 4.37c2.554-1.875 8.552-3.194 15.519-3.2" transform="translate(-.936 -.014)" style="fill:#fff"/>
        </g>
        <path data-name="패스 66949" d="M18.968 22.543a48.28 48.28 0 0 0-16.482 2.745 18.2 18.2 0 0 0 32.956 0 48.3 48.3 0 0 0-16.475-2.745" transform="translate(-.963 .24)" style="fill:#0082c9"/>
    </g>
</svg>
