<svg xmlns="http://www.w3.org/2000/svg" width="14.498" height="14.499" viewBox="0 0 14.498 14.499">
    <path data-name="패스 15238" d="M558.124 561.961a7.124 7.124 0 1 1 7.124-7.125 7.132 7.132 0 0 1-7.124 7.125zm0-13.578a6.453 6.453 0 1 0 6.453 6.453 6.46 6.46 0 0 0-6.453-6.453z" transform="translate(-550.875 -547.587)" style="fill:#333;stroke:#333;stroke-width:.25px"/>
    <g data-name="그룹 67485">
        <path data-name="패스 291" d="M374.829 701.38a.375.375 0 0 1-.394-.352V696.4a.4.4 0 0 1 .787 0v4.624a.374.374 0 0 1-.393.356z" transform="translate(-367.579 -692.856)" style="fill:#333;stroke:#333;stroke-width:.25px"/>
        <path data-name="패스 292" d="M375.257 706.806a.455.455 0 1 0-.454.466.461.461 0 0 0 .454-.466z" transform="translate(-367.553 -695.969)" style="fill:#333;stroke:#333;stroke-width:.25px"/>
    </g>
</svg>
