<svg xmlns="http://www.w3.org/2000/svg" width="16" height="16" viewBox="0 0 16 16">
    <defs>
        <style>
            .cls-1{fill:#fff}
        </style>
    </defs>
    <g id="icon_search">
        <path id="패스_1105" d="M422.754 755.637a6.885 6.885 0 1 1 6.886-6.884 6.892 6.892 0 0 1-6.886 6.884zm0-12.223a5.339 5.339 0 1 0 5.339 5.339 5.344 5.344 0 0 0-5.339-5.339z" class="cls-1" transform="translate(-415.868 -741.867)"/>
        <path id="패스_1106" d="M428.165 754.932a.765.765 0 0 1-.543-.226L424 751.08a.768.768 0 0 1 1.087-1.085l3.626 3.627a.768.768 0 0 1-.543 1.311z" class="cls-1" transform="translate(-412.933 -738.933)"/>
    </g>
</svg>
