<svg xmlns="http://www.w3.org/2000/svg" width="36" height="36" viewBox="0 0 36 36">
    <g transform="translate(-214 -79)">
        <circle data-name="타원 517" cx="18" cy="18" r="18" transform="translate(214 79)" style="fill:#0046ff"/>
        <path data-name="패스 66817" d="M19.142 9.151c.007.14.011.279.012.418v.008a9.582 9.582 0 0 1-7.094 9.253 9.682 9.682 0 0 1-2.052.314q-.311.015-.623.009A9.58 9.58 0 0 1 .057 10.63q-.033-.307-.045-.616Q0 9.806 0 9.6v-.02a9.575 9.575 0 0 1 19.142-.426zm-4.511-4.38c-.56-.155-.974-.288-1.1-.546a.24.24 0 0 1 .057-.3c.086-.063.2-.042.339.025a2.475 2.475 0 0 0 .634.264c.549.066.449-.774-.538-1.261a3.719 3.719 0 0 0-1.917-.378 4.1 4.1 0 0 1-.792-.036c-.36-.056-.8-.208-1.1-.27-.227-.048-.356-.042-.41.034s-.034.177.1.352A1.624 1.624 0 0 1 10.4 4.3c-.554 2.259.2 3.293.978 3.462a1.129 1.129 0 0 0 1.076-.258.813.813 0 0 0 .108-1c-.341-.531-.461-.993-.157-1.186.279-.175.675-.013.976.66.481 1.079 1.108 1.365 1.735.6a1.05 1.05 0 0 0-.49-1.81m-1.743 5.9C10.291 9.11 9 8.495 7.951 7.744 6.21 6.5 5.934 5.577 5.881 4.933a3.02 3.02 0 0 1 1.665-2.679c.068-.042.186-.138.134-.269s-.21-.107-.27-.094c-1.985.422-3.915 2.17-3.615 4.5.12.925.708 2.486 3.753 4.279 1.038.611 1.935 1.075 3.343 1.881 1.906 1.089 2.783 2.493 1.6 4.025-.09.107-.167.218-.135.315s.184.131.322.069a4.762 4.762 0 0 0 2.011-1.624c.63-1.019.943-3.024-1.801-4.67zM9.85 16.881a7.317 7.317 0 0 1-.871-.3 3.214 3.214 0 0 1-.845-.481.228.228 0 0 1-.034-.317 5.571 5.571 0 0 0 .685-1.183c.261-.629 0-.69-.4-.574-.44.126-.788.255-1.058.356-.378.141-.612.227-.749.16s-.17-.318-.221-.731a9.019 9.019 0 0 0-.177-.955c-.163-.656-.443-.53-.675-.262a5.1 5.1 0 0 0-.567 1.011c-.064.122-.137.162-.227.143-.2-.043-.464-.352-.752-.72-.42-.538-.608-.951-.827-.976-.466-.052-.259 1.048.178 1.957A5.8 5.8 0 0 0 5.5 16.47a7.125 7.125 0 0 0 4.274.929c.362-.051.434-.414.073-.518" transform="translate(222.423 87.423)" style="fill:#fff"/>
    </g>
</svg>
