<svg xmlns="http://www.w3.org/2000/svg" width="36" height="36" viewBox="0 0 36 36">
    <g transform="translate(-57 -260)">
        <circle data-name="타원 1311" cx="18" cy="18" r="18" transform="translate(57 260)"/>
        <path data-name="합치기 48" d="M-10931.687 27.238c0-1.061.008-2.094 0-3.128a1.841 1.841 0 0 0-1.95-2.056c-2.53-.008-5.066-.011-7.6-.011s-5.066 0-7.6.011a1.839 1.839 0 0 0-1.95 2.056c-.011 1.033 0 2.067 0 3.128h-1.028c0-1.281-.065-2.5.019-3.7a2.6 2.6 0 0 1 2.661-2.534q3.949-.012 7.9-.011t7.9.011a2.6 2.6 0 0 1 2.662 2.534c.082 1.207.016 2.421.016 3.7z" transform="translate(11016.236 254.009)" style="fill:#fff"/>
    </g>
</svg>
