<svg xmlns="http://www.w3.org/2000/svg" width="36" height="36" viewBox="0 0 36 36">
    <defs>
        <clipPath id="p7svu6ptpa">
            <path data-name="사각형 9522" style="fill:none" d="M0 0h36v36H0z"/>
        </clipPath>
        <clipPath id="5ooxz9qphb">
            <path data-name="패스 54001" d="M88.509 49.138z" transform="translate(-88.509 -49.135)" style="fill:none"/>
        </clipPath>
        <linearGradient id="henns0ujoc" x1="-2772.88" y1="1782.81" x2="-2741.546" y2="1782.81" gradientUnits="objectBoundingBox">
            <stop offset="0" stop-color="#f6f6f6"/>
            <stop offset=".374" stop-color="#ededed"/>
            <stop offset=".982" stop-color="#d4d5d5"/>
            <stop offset="1" stop-color="#d4d5d5"/>
        </linearGradient>
    </defs>
    <g data-name="그룹 33352">
        <g data-name="그룹 33351" style="clip-path:url(#p7svu6ptpa)">
            <path data-name="패스 54000" d="M36 18A18 18 0 1 1 18 0a18 18 0 0 1 18 18" transform="translate(.001 .001)" style="fill:#df2534"/>
        </g>
    </g>
    <g data-name="그룹 33354">
        <g data-name="그룹 33353" style="clip-path:url(#5ooxz9qphb)" transform="translate(26.535 14.731)">
            <path data-name="패스 54004" d="m0 0 .024.01.012.024-.024-.01z" transform="rotate(-38.74 -.003 .039)" style="fill:url(#henns0ujoc)"/>
        </g>
    </g>
    <g data-name="그룹 33356">
        <g data-name="그룹 33355" style="clip-path:url(#p7svu6ptpa)">
            <path data-name="패스 54002" d="M11.566 30.568a2.775 2.775 0 0 0-1.854-.342 5.921 5.921 0 0 0 1.82-4 3.2 3.2 0 0 0-.019-.38 1.833 1.833 0 0 0-1.069-1.719c-.613-.23-1.738-.113-3.524 1.713l-1.073 1.2a8.82 8.82 0 0 0-1.633 3.846 22.491 22.491 0 0 0 .644 8.714 2.047 2.047 0 0 0 1.069 1.346 2.425 2.425 0 0 0 2.053-.38l.165-.082.637-.285.619-.273.754-.331a5.365 5.365 0 0 0 1.548-.843 4.476 4.476 0 0 0 1.391-2.135 7.139 7.139 0 0 0 .264-1.44 6.734 6.734 0 0 0-.074-1.937 3.847 3.847 0 0 0-1.719-2.668m-5.727 2.253c0 .012.034.4.034.4a.2.2 0 0 0 .343.161 2.86 2.86 0 0 1 2.507-.786c.64.222 1.076.883 1.3 1.966a3.278 3.278 0 0 1-2.062 3.811l-.034.015L6.684 39a.191.191 0 0 1-.147-.006c-.076-.04-.1-.089-.15-.224a26.315 26.315 0 0 1-.818-9.462 1.619 1.619 0 0 1 .316-.736l1.045-1.114.117-.127c.567-.552 1.1-.828 1.388-.708.239.1.3.484.3.785.049 1.627-.861 3.29-2.767 5.081a.406.406 0 0 0-.129.337" transform="translate(-2.838 -16.83)" style="fill:#fff"/>
            <path data-name="패스 54003" d="M46.377 9.6c-.35-1.2-.919-1.449-1.085-1.5a9.524 9.524 0 0 0-4.557-.313 8.815 8.815 0 0 0-5.522 3.347 8.265 8.265 0 0 0-1.486 6.427 8.041 8.041 0 0 0 3.4 5.428 10.377 10.377 0 0 0 8 1.238 9.847 9.847 0 0 0 4.419-2.075 1.8 1.8 0 0 0 .61-1.407 5.108 5.108 0 0 0-.221-1.33c-.067-.245-.174-.319-.346-.319-.126 0-.257.144-.282.175a6.562 6.562 0 0 1-3.784 2c-4.177.8-7.388-1.147-8.185-4.972a5.694 5.694 0 0 1 .806-4.475 5.807 5.807 0 0 1 4-2.335 7.229 7.229 0 0 1 3.824.469s.512.148.4-.353" transform="translate(-23.523 -5.348)" style="fill:#fff"/>
        </g>
    </g>
</svg>
