<svg xmlns="http://www.w3.org/2000/svg" width="36" height="36" viewBox="0 0 36 36">
    <defs>
        <clipPath id="8bpj0l2oxa">
            <path data-name="사각형 9529" style="fill:none" d="M0 0h10v13.333H0z"/>
        </clipPath>
    </defs>
    <g transform="translate(-52 -124)">
        <circle data-name="타원 1313" cx="18" cy="18" r="18" transform="translate(52 124)" style="fill:#187afb"/>
        <g data-name="그룹 33367">
            <g data-name="그룹 33366" transform="translate(65 135.333)" style="clip-path:url(#8bpj0l2oxa)">
                <path data-name="패스 54469" d="M9.515 7.717a2.984 2.984 0 0 1 .465 2.041 3.623 3.623 0 0 1-1.389 2.494 5.227 5.227 0 0 1-3.5 1.083 4.969 4.969 0 0 1-3.82-1.522A4.74 4.74 0 0 1 0 9.537l2.227.01a2.237 2.237 0 0 0 .742.974 3.087 3.087 0 0 0 2.118.763 3.125 3.125 0 0 0 1.769-.419 1.764 1.764 0 0 0 .771-1.091 1.236 1.236 0 0 0-.194-1.049 2.3 2.3 0 0 0-.923-.715 6.008 6.008 0 0 0-1.728-.57A8.858 8.858 0 0 1 2.9 6.886 4.548 4.548 0 0 1 1 5.55a2.927 2.927 0 0 1-.6-2.123 3.681 3.681 0 0 1 1.185-2.31A4.568 4.568 0 0 1 4.968 0a4.146 4.146 0 0 1 3.65 1.537 3.182 3.182 0 0 1 .708 2.176H7.159A1.256 1.256 0 0 0 6.84 2.7 2.367 2.367 0 0 0 5 2.05a2.423 2.423 0 0 0-1.745.487 1.62 1.62 0 0 0-.507 1.04 1.077 1.077 0 0 0 .465 1.016 4.778 4.778 0 0 0 1.142.613 14.956 14.956 0 0 0 1.67.453 8.4 8.4 0 0 1 2.009.741 3.9 3.9 0 0 1 1.481 1.317" transform="translate(0 -.001)" style="fill:#fff"/>
            </g>
        </g>
    </g>
</svg>
