<svg xmlns="http://www.w3.org/2000/svg" width="28.004" height="28.004" viewBox="0 0 28.004 28.004">
    <g data-name="그룹 33590">
        <g data-name="그룹 33585">
            <path data-name="패스 54424" d="M62.783 94.82a11.808 11.808 0 0 0-2.891-6.68 11.79 11.79 0 0 0-6.678-2.89 24.054 24.054 0 0 0-4.186-.234 29.056 29.056 0 0 0-4.186.234 11.8 11.8 0 0 0-6.678 2.89 11.8 11.8 0 0 0-2.889 6.68 26.912 26.912 0 0 0-.266 4.187 29.08 29.08 0 0 0 .234 4.187 11.8 11.8 0 0 0 2.889 6.679 11.8 11.8 0 0 0 6.678 2.89A24.148 24.148 0 0 0 49 113a29.153 29.153 0 0 0 4.188-.234 11.786 11.786 0 0 0 6.676-2.89 11.794 11.794 0 0 0 2.891-6.679 24.353 24.353 0 0 0 .234-4.187 22.04 22.04 0 0 0-.2-4.187" transform="translate(-35.005 -85.005)" style="fill:#92695c"/>
        </g>
        <g data-name="그룹 33588" transform="translate(-47 -490)">
            <g transform="translate(-217.487 -67.181)">
                <path data-name="사각형 251" d="M2.494.831A1.665 1.665 0 0 0 .831 2.494v7.483a1.665 1.665 0 0 0 1.663 1.663h12.471a1.665 1.665 0 0 0 1.663-1.663V2.494A1.665 1.665 0 0 0 14.965.831H2.494m0-.831h12.471a2.494 2.494 0 0 1 2.494 2.494v7.483a2.494 2.494 0 0 1-2.494 2.494H2.494A2.494 2.494 0 0 1 0 9.977V2.494A2.494 2.494 0 0 1 2.494 0z" transform="translate(269.76 564.947)" style="fill:#fff"/>
                <rect data-name="사각형 1533" width="6.321" height=".903" rx=".452" transform="translate(278.49 573.806)" style="fill:#fff"/>
            </g>
            <rect data-name="사각형 10811" width="17.459" height="3.002" rx=".5" transform="translate(52.273 501)" style="fill:#fff"/>
        </g>
    </g>
</svg>
