<svg xmlns="http://www.w3.org/2000/svg" width="16" height="16" viewBox="0 0 16 16">
    <path data-name="사각형 10576" style="fill:none" d="M0 0h16v16H0z"/>
    <g transform="translate(3.058 .312)">
        <g data-name="그룹 3249">
            <path data-name="패스 13123" d="M417.5 172.621v.266a1.133 1.133 0 0 0 1.133 1.132h1.93a1.132 1.132 0 0 0 1.132-1.132v-.266z" transform="translate(-414.731 -158.826)" style="fill:#fd0"/>
            <path data-name="패스 13124" d="M419.746 173.385h-1.93a1.317 1.317 0 0 1-1.315-1.315v-.27a.183.183 0 0 1 .183-.183h4.195a.183.183 0 0 1 .183.183v.266a1.317 1.317 0 0 1-1.316 1.319zm-2.88-1.4v.083a.951.951 0 0 0 .95.949h1.93a.95.95 0 0 0 .949-.949v-.083z" transform="translate(-413.914 -158.009)" style="fill:#1e1e1e"/>
        </g>
        <g data-name="그룹 3250">
            <path data-name="패스 13125" d="M412.868 103.754a4.76 4.76 0 1 0-8.169 3.358 28.643 28.643 0 0 1 .982 2.747h4.759a17.425 17.425 0 0 1 .734-2.421 4.833 4.833 0 0 0 1.694-3.684z" transform="translate(-403.166 -98.751)" style="fill:#fff"/>
            <path data-name="패스 13126" d="M409.622 109.225h-4.759a.183.183 0 0 1-.175-.133c0-.014-.412-1.4-.961-2.695a4.94 4.94 0 1 1 6.785.332 16.832 16.832 0 0 0-.708 2.339.184.184 0 0 1-.182.157zm-4.624-.37h4.472a20.108 20.108 0 0 1 .714-2.3.184.184 0 0 1 .054-.078 4.58 4.58 0 1 0-6.226-.314.185.185 0 0 1 .037.056c.465 1.093.831 2.252.951 2.636z" transform="translate(-402.349 -97.934)" style="fill:#1e1e1e"/>
        </g>
        <g data-name="그룹 3251">
            <path data-name="사각형 1468" transform="translate(2.365 11.06)" style="fill:#fd0" d="M0 0h4.934v2.736H0z"/>
            <path data-name="패스 13127" d="M419.411 159.772h-4.934a.183.183 0 0 1-.183-.183v-2.736a.183.183 0 0 1 .183-.183h4.934a.183.183 0 0 1 .183.183v2.736a.183.183 0 0 1-.183.183zm-4.751-.366h4.568v-2.37h-4.568z" transform="translate(-412.112 -145.794)" style="fill:#1e1e1e"/>
        </g>
        <path data-name="패스 13128" d="M418.356 134.323a.183.183 0 0 1-.178-.141l-1.194-5.042a.183.183 0 0 1 .178-.225h3.859a.183.183 0 0 1 .18.214l-.879 5.032a.183.183 0 0 1-.36-.063l.842-4.817h-3.41l1.14 4.817a.183.183 0 0 1-.136.22.188.188 0 0 1-.042.005z" transform="translate(-414.306 -123.172)" style="fill:#1e1e1e"/>
        <path data-name="패스 13129" d="M417.168 161.775H414.7a.137.137 0 0 1 0-.274h2.464a.137.137 0 0 1 0 .274z" transform="translate(-412.334 -149.77)" style="fill:#1e1e1e"/>
        <path data-name="패스 13130" d="M416 166.323h-.932a.137.137 0 0 1 0-.274H416a.137.137 0 0 1 0 .274z" transform="translate(-412.632 -153.456)" style="fill:#1e1e1e"/>
        <rect data-name="사각형 1470" width="2.839" height="1.419" rx=".71" transform="translate(3.523 5.234)" style="fill:#fd0"/>
    </g>
</svg>
