<svg xmlns="http://www.w3.org/2000/svg" xmlns:xlink="http://www.w3.org/1999/xlink" width="36" height="36" viewBox="0 0 36 36">
    <defs>
        <radialGradient id="923dd99pva" cx=".015" cy=".313" r=".947" gradientTransform="matrix(0 -1 1.41 0 -1.41 1)" gradientUnits="objectBoundingBox">
            <stop offset="0" stop-color="#cce0ee"/>
            <stop offset=".067" stop-color="#c4dbeb"/>
            <stop offset=".17" stop-color="#aecfe4"/>
            <stop offset=".25" stop-color="#99c4de"/>
            <stop offset=".347" stop-color="#88b1d3"/>
            <stop offset=".54" stop-color="#5e81b8"/>
            <stop offset=".7" stop-color="#37569f"/>
            <stop offset=".81" stop-color="#28448c"/>
            <stop offset="1" stop-color="#0a1d64"/>
        </radialGradient>
        <radialGradient id="1tpc81k6ld" cx="1.005" cy="-.021" r="1.107" gradientTransform="matrix(1.1 0 0 -1 .041 3.69)" xlink:href="#923dd99pva"/>
        <radialGradient id="sz8fqnx6lf" cx=".977" cy=".687" r=".947" gradientTransform="matrix(0 1 -1.398 0 .966 2.134)" xlink:href="#923dd99pva"/>
        <radialGradient id="5lwgxm80qh" cx="-.005" cy="1.021" r="1.107" gradientTransform="matrix(-1.1 0 0 1 -2.558 0)" xlink:href="#923dd99pva"/>
        <clipPath id="h03ckwluab">
            <path data-name="패스 66729" d="M.2 47a1.424 1.424 0 0 0-.2.745v.008a1.383 1.383 0 0 0 .2.734l2.857 4.49a1.829 1.829 0 0 0 1.455.744h3.824L3.1 45.49a3.115 3.115 0 0 1-.387-2.431z" transform="translate(0 -43.059)" style="fill:none"/>
        </clipPath>
        <clipPath id="m3nccnb26c">
            <path data-name="패스 66730" d="M37.669 25.96a1.7 1.7 0 0 0-1.48.744l-.315.493a3.114 3.114 0 0 0 .387 2.431l1.77 2.778a1.293 1.293 0 0 1 .055-1.157l3.349-5.289z" transform="translate(-35.752 -25.96)" style="fill:none"/>
        </clipPath>
        <clipPath id="tfte0i9nfe">
            <path data-name="패스 66731" d="m97.743 0 5.24 8.225a3.117 3.117 0 0 1 .387 2.431l2.511-3.936a1.5 1.5 0 0 0 0-1.487L103.025.742A1.826 1.826 0 0 0 101.571 0z" transform="translate(-97.743 .001)" style="fill:none"/>
        </clipPath>
        <clipPath id="w15q7aoe4g">
            <path data-name="패스 66732" d="m102.009 76.426-3.348 5.29h3.766a1.694 1.694 0 0 0 1.48-.745l.315-.493a3.118 3.118 0 0 0-.387-2.431l-1.77-2.779a1.292 1.292 0 0 1-.055 1.157" transform="translate(-98.661 -75.269)" style="fill:none"/>
        </clipPath>
    </defs>
    <g transform="translate(-52 -124)">
        <circle data-name="타원 1313" cx="18" cy="18" r="18" transform="translate(52 124)" style="fill:#00367f"/>
        <g data-name="그룹 58678">
            <g data-name="그룹 58671">
                <g data-name="그룹 58670" style="clip-path:url(#h03ckwluab)" transform="translate(62.295 138.23)">
                    <path data-name="사각형 13350" style="fill:url(#923dd99pva)" d="M0 0h8.336v10.657H0z"/>
                </g>
            </g>
            <g data-name="그룹 58673">
                <g data-name="그룹 58672" style="clip-path:url(#m3nccnb26c)" transform="translate(64.882 136.993)">
                    <path data-name="사각형 13351" transform="translate(-.18)" style="fill:url(#1tpc81k6ld)" d="M0 0h5.863v6.446H0z"/>
                </g>
            </g>
            <g data-name="그룹 58675">
                <g data-name="그룹 58674" transform="translate(69.368 135.114)" style="clip-path:url(#tfte0i9nfe)">
                    <path data-name="사각형 13352" style="fill:url(#sz8fqnx6lf)" d="M0 0h8.408v10.656H0z"/>
                </g>
            </g>
            <g data-name="그룹 58677">
                <g data-name="그룹 58676" style="clip-path:url(#w15q7aoe4g)" transform="translate(69.434 140.56)">
                    <path data-name="사각형 13353" style="fill:url(#5lwgxm80qh)" d="M0 0h5.862v6.447H0z"/>
                </g>
            </g>
        </g>
    </g>
</svg>
