<svg xmlns="http://www.w3.org/2000/svg" width="36" height="36" viewBox="0 0 36 36">
    <g transform="translate(-52 -124)">
        <circle data-name="타원 1313" cx="18" cy="18" r="18" transform="translate(52 124)" style="fill:#44c7f4"/>
        <g data-name="그룹 58730">
            <path data-name="합치기 49" d="M11.741 14.32h-.2l-.107-.005h-.009l-.11-.008h-.037l-.071-.007h-.055l-.05-.006h-.092l-.043-.007h-.016l-.034-.006h-.016l-.044-.008-.05-.01h-.009l-.049-.01a4.924 4.924 0 0 1-.76-.222q-.184-.07-.363-.156l-.028-.013q-.124-.06-.245-.128v-3.2a2.292 2.292 0 1 0 1.085-3.562 2.454 2.454 0 0 0 .407-1.356 2.471 2.471 0 0 0-.245-1.078l-.039-.081a2.472 2.472 0 1 0-4.27 2.476 2.289 2.289 0 0 0-2.423.615 2.293 2.293 0 0 0 3 3.436l.01-.007q.077-.054.149-.115l.023-.019q.087-.075.167-.16l.063-.07.041-.049.007-.009.042-.054v3.2A4.96 4.96 0 1 1 3.262 4.7 5.108 5.108 0 0 1 8.354 0H8.971L9 .04h.06l.037.005h.024l.036.006h.025l.036.006h.022l.037.007h.021l.038.007h.02l.039.008h.021l.034.039h.022l.037.008h.021l.038.009h.018l.04.01h.018l.04.011L9.7.18l.04.011.02.009.04.008h.016l.041.012.016.01.04.013.016.005.041.013.015.005.041.014.014.005.043.015.017.005.042.016h.012l.043.016.013.005.042.017h.012l.036.027h.011l.044.019h.01l.044.019h.01l.044.02h.009l.044.021h.009l.044.021h.008l.045.022h.007l.051.052h.005l.047.025.047.026.048.027.048.027.064.035.049.029A5.11 5.11 0 0 1 13.44 4.64c0 .021 0 .041.006.062a4.909 4.909 0 0 0-1.372-.287 4.958 4.958 0 0 1-.323 9.906zM3.847 7.513v-.007zm-.019-.036zm-.543-1.734zm0-.034V5.69c0-.006-.004.01-.004.019zm0-.036v-.03c-.01.01-.009.02-.008.03zm0-.036a5.222 5.222 0 0 1-.027-.527 5.058 5.058 0 0 0 .015.527zm-.027-.53V5.05v.057zm0-.087v-.023c-.011.003-.011.015-.011.022zm8.809-.606h-.042zm-.065 0h-.035zm-.062 0zm-.06 0zm-.06 0zm-.06 0z" transform="translate(61.646 134.84)" style="fill:#fff;stroke:transparent;stroke-miterlimit:10"/>
        </g>
    </g>
</svg>
