<svg xmlns="http://www.w3.org/2000/svg" width="36" height="36" viewBox="0 0 36 36">
    <g transform="translate(-52 -124)">
        <circle data-name="타원 1313" cx="18" cy="18" r="18" transform="translate(52 124)" style="fill:#0056a7"/>
        <path data-name="패스 66733" d="m9.149 8.385 3.008 1.759-.027-.015a4.762 4.762 0 0 1-2.99 1.136 4.761 4.761 0 0 1-2.99-1.131l-.027.015zM7.621 2.219h.017l-.017 3.61L4.6 7.519a4.5 4.5 0 0 1 3.021-5.3m6.061 5.294L10.66 5.829l-.017-3.61h.017a4.5 4.5 0 0 1 3.022 5.294m2.857 1.942a4.619 4.619 0 0 1-2.162 2.577 7.616 7.616 0 0 0 1.551-8.69c-.588-1.043.16-1.5.16-1.5a1.376 1.376 0 0 0-1.176 1.848 7.089 7.089 0 0 1 .395 4.741l-.564-.316.009-.013A5.943 5.943 0 0 0 10.638.991V0H9.484v6.524l5.348 3.048q-.142.287-.308.56L9.152 7.021l-5.394 3.112q-.167-.273-.308-.56L8.8 6.524V0H7.647v.991A5.943 5.943 0 0 0 3.53 8.1l.009.013-.564.316a7.088 7.088 0 0 1 .394-4.739 1.376 1.376 0 0 0-1.176-1.845s.749.455.16 1.5A7.616 7.616 0 0 0 3.9 12.033a4.618 4.618 0 0 1-2.158-2.577A1.57 1.57 0 0 0 0 8.69 1.758 1.758 0 0 1 .769 9.8a6.684 6.684 0 0 0 5.622 4.241v2.029h2.192v-2.994a6.088 6.088 0 0 1-4.1-1.973l.551-.322a6.676 6.676 0 0 0 4.094 1.7h.027a6.676 6.676 0 0 0 4.094-1.7l.551.322a6.088 6.088 0 0 1-4.1 1.973v2.994h2.19v-2.032A6.684 6.684 0 0 0 17.512 9.8a1.758 1.758 0 0 1 .769-1.107 1.57 1.57 0 0 0-1.742.766" transform="translate(60.86 133.965)" style="fill:#fff"/>
    </g>
</svg>
