<svg xmlns="http://www.w3.org/2000/svg" width="16.25" height="16.25" viewBox="0 0 16.25 16.25">
    <defs>
        <style>
            .cls-2{stroke:#333;stroke-width:.25px;fill:#343333}
        </style>
    </defs>
    <g id="iconMoney" transform="translate(-597.821 -735.764)">
        <path id="패스_16372" data-name="패스 16372" d="M605.946 751.889a8 8 0 1 1 8-8 8.009 8.009 0 0 1-8 8zm0-15.246a7.247 7.247 0 1 0 7.247 7.247 7.255 7.255 0 0 0-7.247-7.248z" style="stroke:#333;stroke-width:.25px;fill:#3d3736"/>
        <g id="그룹_5943" data-name="그룹 5943" transform="translate(600.845 741.107)">
            <path id="패스_16373" data-name="패스 16373" class="cls-2" d="M612.12 748.811h-9.449a.376.376 0 1 1 0-.753h9.449a.376.376 0 1 1 0 .753z" transform="translate(-602.295 -745.164)"/>
            <path id="패스_16374" data-name="패스 16374" class="cls-2" d="M609.758 750.258a.378.378 0 0 1-.358-.258l-1.637-4.754-1.634 4.754a.378.378 0 0 1-.356.254.377.377 0 0 1-.356-.254l-1.991-5.789a.376.376 0 1 1 .712-.245l1.635 4.753 1.636-4.753a.376.376 0 0 1 .712 0l1.637 4.754 1.637-4.754a.376.376 0 0 1 .712.245L610.113 750a.377.377 0 0 1-.355.258z" transform="translate(-602.665 -743.716)"/>
        </g>
    </g>
</svg>
