<svg xmlns="http://www.w3.org/2000/svg" width="36" height="36" viewBox="0 0 36 36">
    <defs>
        <clipPath id="goh6764nea">
            <path data-name="사각형 13349" style="fill:none" d="M0 0h20.799v13.011H0z"/>
        </clipPath>
    </defs>
    <g data-name="타원 529" style="stroke:#e1e1e1;fill:#fff">
        <circle cx="18" cy="18" r="18" style="stroke:none"/>
        <circle cx="18" cy="18" r="17.5" style="fill:none"/>
    </g>
    <g data-name="그룹 58669">
        <g data-name="그룹 58668" style="clip-path:url(#goh6764nea)" transform="translate(7.6 11.495)">
            <path data-name="패스 66708" d="M4.073 0h5.192a1.012 1.012 0 0 1 1.007 1.318L7.854 11.695a1.764 1.764 0 0 1-1.621 1.316H1.042a1.011 1.011 0 0 1-1.007-1.316L2.454 1.318A1.758 1.758 0 0 1 4.073 0" style="fill:#ed171f"/>
            <path data-name="패스 66709" d="M23.669 0h5.97c.724 0 .4.591.227 1.318L27.45 11.695c-.169.725-.116 1.316-.842 1.316h-5.97a1.009 1.009 0 0 1-1-1.316l2.411-10.377A1.762 1.762 0 0 1 23.669 0" transform="translate(-14.836)" style="fill:#082f67"/>
            <path data-name="패스 66710" d="M47.268 0h5.19a1.011 1.011 0 0 1 1.006 1.318l-2.416 10.377a1.762 1.762 0 0 1-1.622 1.316h-5.189a1.01 1.01 0 0 1-1.006-1.316l2.416-10.377A1.761 1.761 0 0 1 47.268 0" transform="translate(-32.701)" style="fill:#006a65"/>
            <path data-name="패스 66711" d="M53.675 32.3h.489l.142-.47h-.49zm.392-1.3-.168.556a2.413 2.413 0 0 1 .286-.125c.1-.023.253-.042.253-.042l.119-.389zm.243-.8-.163.535a2.7 2.7 0 0 1 .282-.109 1.715 1.715 0 0 1 .252-.036l.118-.39zm1.082 0-.633 2.093h.17l-.131.433h-.17l-.04.134h-.6l.041-.134H52.8l.123-.4h.124l.642-2.126.128-.429h.614l-.064.217a1.148 1.148 0 0 1 .319-.158c.155-.041 1.045-.056 1.045-.056l-.131.426z" transform="translate(-39.976 -22.538)" style="fill-rule:evenodd;fill:#fff"/>
            <path data-name="패스 66712" d="M64.576 29.784h.655l.008.244c0 .041.031.06.107.06h.133l-.122.4H65c-.307.023-.423-.109-.416-.257z" transform="translate(-48.888 -22.548)" style="fill:#fff"/>
            <path data-name="패스 66713" d="M61.848 34.257h-.625l.107-.36h.714l.1-.328h-.705l.121-.4h1.963l-.123.4h-.658l-.1.328h.66l-.108.36h-.714l-.126.151h.29l.07.453a.243.243 0 0 0 .023.093.349.349 0 0 0 .152.025h.088l-.134.44h-.223c-.035 0-.086 0-.155-.007a.436.436 0 0 1-.16-.066.215.215 0 0 1-.116-.154l-.07-.452-.324.446a.554.554 0 0 1-.478.247h-.455l.119-.393h.174a.278.278 0 0 0 .124-.04.2.2 0 0 0 .1-.08z" transform="translate(-46.074 -25.108)" style="fill:#fff"/>
            <path data-name="패스 66714" d="M35.679 33.613h1.654l-.122.4h-.662l-.1.336h.677l-.126.403h-.676l-.164.547c-.02.061.16.069.225.069l.339-.047-.136.451h-.763a.727.727 0 0 1-.173-.024.18.18 0 0 1-.121-.088.175.175 0 0 1-.041-.177l.219-.725h-.376l.125-.415h.378l.1-.336h-.376z" transform="translate(-26.749 -25.447)" style="fill:#fff"/>
            <path data-name="패스 66715" d="M37.636 29.99h.679l-.124.413h-.927l-.1.087c-.043.042-.058.024-.114.055a.668.668 0 0 1-.305.079h-.3l.121-.4h.089a.32.32 0 0 0 .153-.023.36.36 0 0 0 .1-.129l.17-.31h.675z" transform="translate(-27.592 -22.533)" style="fill:#fff"/>
            <path data-name="패스 66716" d="M42.983 30.677a1.064 1.064 0 0 1 .5-.224c.072-.014.523-.009.523-.009l.068-.227h-.955zm.9.173h-.948l-.058.191h.82a.682.682 0 0 1 .125 0zm-1.228-1.073h.578l-.084.291a1.677 1.677 0 0 1 .31-.2 2.9 2.9 0 0 1 .416-.091h.935l-.319 1.061a1.224 1.224 0 0 1-.155.353.4.4 0 0 1-.159.145.594.594 0 0 1-.216.073c-.062 0-.157.007-.288.008h-.9l-.254.84c-.024.083-.036.122-.02.145a.1.1 0 0 0 .086.043l.4-.037-.135.46h-.45c-.142 0-.245 0-.317-.009a.35.35 0 0 1-.188-.037c-.042-.036-.1-.084-.1-.133a1.554 1.554 0 0 1 .052-.225z" transform="translate(-31.637 -22.542)" style="fill-rule:evenodd;fill:#fff"/>
            <path data-name="패스 66717" d="m48.094 36.837-.053.255a.353.353 0 0 1-.1.191.417.417 0 0 1-.311.109l-.32.013v.289c0 .082.018.073.031.087a.1.1 0 0 0 .043.025h.1l.307-.018-.126.421h-.352a1.113 1.113 0 0 1-.49-.053c-.059-.037-.067-.085-.065-.165l.022-1.124h.561l-.007.23h.135a.194.194 0 0 0 .1-.017.118.118 0 0 0 .038-.059l.055-.179z" transform="translate(-35.394 -27.888)" style="fill:#fff"/>
            <path data-name="패스 66718" d="M11.972 13.645c-.02.09-.38 1.753-.382 1.754a1.217 1.217 0 0 1-.325.731.585.585 0 0 1-.383.133.355.355 0 0 1-.4-.341v-.076l.073-.453c.001-.002.378-1.515.446-1.715L11 13.656a5.9 5.9 0 0 1-.876-.011c0 .015-.024.109-.024.109l-.382 1.706-.034.146-.063.473a.7.7 0 0 0 .082.352c.176.308.678.354.962.354a1.873 1.873 0 0 0 .94-.219 1.4 1.4 0 0 0 .6-.94l.043-.169s.39-1.574.456-1.778a.087.087 0 0 1 .006-.023 5.847 5.847 0 0 1-.741-.011" transform="translate(-7.284 -10.33)" style="fill:#fff"/>
            <path data-name="패스 66719" d="M22.789 20.7c-.261 0-.353 0-.658.012l-.012-.023c.027-.116.056-.231.082-.348l.037-.159c.057-.248.112-.535.119-.622.005-.053.023-.185-.128-.185a.506.506 0 0 0-.2.061c-.037.132-.112.5-.146.669-.076.355-.081.4-.115.57l-.022.023c-.269 0-.362 0-.672.012l-.015-.026c.052-.211.1-.423.153-.634a9.248 9.248 0 0 0 .2-1.08l.024-.017c.3-.042.375-.051.7-.118l.028.031-.049.182c.055-.033.107-.066.164-.095a1.023 1.023 0 0 1 .42-.1.355.355 0 0 1 .365.206c.062.147.021.33-.06.688l-.042.182c-.084.4-.1.472-.144.745z" transform="translate(-15.946 -14.257)" style="fill:#fff"/>
            <path data-name="패스 66720" d="M30.3 21.925h-.357c-.099 0-.194.006-.34.013l-.009-.013-.01-.013a2.247 2.247 0 0 1 .082-.258 1.7 1.7 0 0 0 .074-.26 7.34 7.34 0 0 0 .142-.798l.012-.009.013-.011.357-.052c.1-.015.206-.035.368-.066l.006.014v.014c-.03.124-.061.247-.09.373s-.06.248-.087.373c-.059.263-.082.361-.1.431s-.017.1-.041.24l-.014.012z" transform="translate(-22.397 -15.487)" style="fill:#fff"/>
            <path data-name="패스 66721" d="M35.675 19.863a1.393 1.393 0 0 1-.154.427.251.251 0 0 1-.2.126c-.021 0-.15 0-.152-.191a1.273 1.273 0 0 1 .042-.3c.069-.3.15-.559.357-.559.163 0 .173.19.1.495m.682.029a.783.783 0 0 0-.068-.7.77.77 0 0 0-.626-.23 1.148 1.148 0 0 0-.785.273 1.3 1.3 0 0 0-.349.678c-.056.245-.121.689.286.853a1.213 1.213 0 0 0 .423.068 1.1 1.1 0 0 0 .833-.326 1.46 1.46 0 0 0 .287-.612" transform="translate(-26.109 -14.352)" style="fill:#fff"/>
            <path data-name="패스 66722" d="M66.227 20.874c-.315 0-.406 0-.7.01l-.02-.024c.08-.3.159-.6.23-.9a6.933 6.933 0 0 0 .143-.79l.024-.019c.312-.045.4-.057.725-.118l.01.027c-.06.246-.12.493-.177.74-.12.518-.164.781-.21 1.052z" transform="translate(-49.596 -14.409)" style="fill:#fff"/>
            <path data-name="패스 66723" d="M62.628 19.97a1.431 1.431 0 0 1-.155.425.36.36 0 0 1-.254.123c-.021 0-.149 0-.153-.19a1.292 1.292 0 0 1 .043-.3c.069-.3.15-.552.357-.552.163 0 .232.185.163.49m.623.03c.092-.4-.277-.035-.336-.167-.09-.206-.034-.623-.4-.762a.873.873 0 0 0-.747.272 1.284 1.284 0 0 0-.348.674c-.056.242-.121.684.284.843a.815.815 0 0 0 .362.065c.407-.022.718-.636.947-.88.177-.192.208.072.235-.045" transform="translate(-46.47 -14.425)" style="fill:#fff"/>
            <path data-name="패스 66724" d="M44.157 20.7c-.262 0-.351 0-.658.012l-.011-.023c.026-.116.056-.231.083-.348l.037-.159a6.39 6.39 0 0 0 .118-.622c.005-.053.022-.185-.127-.185a.508.508 0 0 0-.2.061c-.036.132-.111.5-.147.669-.075.355-.079.4-.114.57l-.022.023c-.269 0-.361 0-.67.012l-.014-.026c.052-.211.1-.423.152-.634a9.248 9.248 0 0 0 .2-1.08l.024-.017c.3-.042.376-.051.7-.118l.026.031-.047.182c.054-.033.109-.066.164-.095a1.02 1.02 0 0 1 .419-.1.359.359 0 0 1 .367.206c.062.147.02.33-.062.688l-.041.182c-.086.4-.1.472-.144.745z" transform="translate(-32.125 -14.257)" style="fill:#fff"/>
            <path data-name="패스 66725" d="M53.129 13.619h-.217c-.564.006-.791 0-.883-.008a9.836 9.836 0 0 0-.024.115l-.2.938-.506 2.086c.492-.005.695-.005.779 0l.135-.65s.1-.409.1-.424a.235.235 0 0 1 .062-.059h.045a2.087 2.087 0 0 0 1.281-.277 1.365 1.365 0 0 0 .509-.81 1.2 1.2 0 0 0 .035-.283.59.59 0 0 0-.1-.36c-.191-.269-.572-.272-1.014-.275m.283.976a.686.686 0 0 1-.354.467 1.117 1.117 0 0 1-.5.077h-.116l.009-.046.215-.933.006-.048v-.037l.086.009.454.04a.369.369 0 0 1 .2.47" transform="translate(-38.835 -10.307)" style="fill:#fff"/>
            <path data-name="패스 66726" d="m72.445 18.934-.025-.028c-.322.064-.38.076-.677.115l-.022.021v.014c-.221.51-.214.4-.394.8v-.05l-.045-.868-.028-.028c-.337.064-.346.076-.657.115l-.025.021v.035a4.344 4.344 0 0 1 .069.469c.018.154.042.31.06.462.031.255.048.381.085.769-.21.348-.26.48-.461.785l.011.028c.3-.011.375-.011.6-.011l.05-.056c.17-.367 1.468-2.593 1.468-2.593" transform="translate(-53.234 -14.313)" style="fill:#fff"/>
            <path data-name="패스 66727" d="M31.6 18.589c.172-.12.194-.286.048-.373a.591.591 0 0 0-.579.061c-.175.119-.194.285-.048.372a.6.6 0 0 0 .579-.06" transform="translate(-23.415 -13.752)" style="fill:#fff"/>
            <path data-name="패스 66728" d="m69.443 29.821-.254.434a.5.5 0 0 1-.466.261l-.4-.007.118-.391h.078a.22.22 0 0 0 .1-.014.107.107 0 0 0 .051-.045l.149-.237z" transform="translate(-51.722 -22.576)" style="fill:#fff"/>
        </g>
    </g>
</svg>
