<svg xmlns="http://www.w3.org/2000/svg" xmlns:xlink="http://www.w3.org/1999/xlink" width="24" height="24" viewBox="0 0 24 24">
  <defs>
    <clipPath id="clip-path">
      <rect id="사각형_6187" data-name="사각형 6187" width="14" height="14" transform="translate(319 14)" fill="none"/>
    </clipPath>
  </defs>
  <g id="그룹_31553" data-name="그룹 31553" transform="translate(-20 -102)">
    <circle id="타원_1168" data-name="타원 1168" cx="12" cy="12" r="12" transform="translate(20 102)" fill="#e1e1e1"/>
    <g id="마스크_그룹_173" data-name="마스크 그룹 173" transform="translate(-294 93)" clip-path="url(#clip-path)">
      <g id="icon_search_phone_book" transform="translate(320.061 14.848)">
        <path id="패스_48385" data-name="패스 48385" d="M421.163,752.455a5.294,5.294,0,1,1,5.295-5.294A5.3,5.3,0,0,1,421.163,752.455Zm0-9.4a4.105,4.105,0,1,0,4.105,4.105A4.109,4.109,0,0,0,421.163,743.056Z" transform="translate(-415.868 -741.867)" fill="#fff"/>
        <path id="패스_48386" data-name="패스 48386" d="M427.15,753.739a.588.588,0,0,1-.417-.174l-2.789-2.789a.59.59,0,1,1,.836-.834l2.788,2.789a.591.591,0,0,1-.417,1.008Z" transform="translate(-415.437 -741.436)" fill="#fff"/>
      </g>
    </g>
  </g>
</svg>
