<svg xmlns="http://www.w3.org/2000/svg" width="16" height="16">
    <defs>
        <style>
            .cls-1{fill:none}
        </style>
    </defs>
    <g id="iconIden" transform="translate(-8.834 -25.834)">
        <path id="사각형_2691" data-name="사각형 2691" class="cls-1" transform="translate(8.834 25.834)" d="M0 0h16v16H0z"/>
        <g id="그룹_6808" data-name="그룹 6808" transform="translate(11.042 26)">
            <path id="패스_20615" data-name="패스 20615" class="cls-1" d="M161.143 829.835a4.535 4.535 0 1 0 4.535-4.536 4.541 4.541 0 0 0-4.535 4.536zm7.466 0a2.931 2.931 0 1 1-2.931-2.931 2.931 2.931 0 0 1 2.931 2.931z" transform="translate(-159.887 -824.042)"/>
            <circle id="타원_725" data-name="타원 725" cx="2.931" cy="2.931" r="2.931" transform="rotate(-40.98 8.19 .535)" style="fill:#f8b62d"/>
            <path id="패스_20616" data-name="패스 20616" class="cls-1" d="M175.986 821.319a5.298 5.298 0 0 0-.4-.02c.136.001.268.011.4.02z" transform="translate(-169.794 -821.299)"/>
            <path id="패스_20617" data-name="패스 20617" class="cls-1" d="M165.678 825.3a4.536 4.536 0 1 0 4.536 4.536 4.541 4.541 0 0 0-4.536-4.536z" transform="translate(-159.887 -824.042)"/>
            <path id="패스_20618" data-name="패스 20618" class="cls-1" d="M166.112 855.534v3.3l2.709-1.264a.629.629 0 0 1 .531 0l2.709 1.264v-3.3a5.736 5.736 0 0 1-5.949 0z" transform="translate(-163.295 -844.781)"/>
            <path id="패스_20619" data-name="패스 20619" d="M175.578 821.3z" transform="translate(-169.788 -821.299)" style="fill:#595757"/>
            <path id="패스_20620" data-name="패스 20620" d="M164.677 821.573a6.53 6.53 0 0 0-1.342-.254c-.132-.009-.264-.02-.4-.02a5.783 5.783 0 0 0-4.23 9.735v5.3a.628.628 0 0 0 .894.569l3.337-1.558 3.337 1.558a.629.629 0 0 0 .894-.569v-5.3a5.776 5.776 0 0 0-2.489-9.461zm1.232 13.779-2.709-1.264a.629.629 0 0 0-.531 0l-2.709 1.264v-3.3a5.736 5.736 0 0 0 5.949 0zm-2.975-3.725a4.536 4.536 0 1 1 4.536-4.536 4.541 4.541 0 0 1-4.535 4.537z" transform="translate(-157.143 -821.299)" style="fill:#f8a14b"/>
        </g>
    </g>
</svg>
