<svg xmlns="http://www.w3.org/2000/svg" width="22" height="22" viewBox="0 0 22 22">
    <g data-name="타원 829" style="stroke:#999;fill:none">
        <circle cx="11" cy="11" r="11" style="stroke:none"/>
        <circle cx="11" cy="11" r="10.5" style="fill:none"/>
    </g>
    <path data-name="패스 24327" d="M2.687-5.852h1.052a1.483 1.483 0 0 0 1.114-.376 1.378 1.378 0 0 0 .362-1 1.218 1.218 0 0 0-.359-.937 1.391 1.391 0 0 0-.987-.335 1.458 1.458 0 0 0-.95.311 1 1 0 0 0-.383.81H.561a2.43 2.43 0 0 1 .42-1.4 2.8 2.8 0 0 1 1.176-.967 3.924 3.924 0 0 1 1.665-.349 3.722 3.722 0 0 1 2.478.761 2.577 2.577 0 0 1 .9 2.082A2.094 2.094 0 0 1 6.774-6a2.709 2.709 0 0 1-1.094.882 2.473 2.473 0 0 1 1.254.9 2.448 2.448 0 0 1 .414 1.422 2.62 2.62 0 0 1-.967 2.133 3.889 3.889 0 0 1-2.56.8 3.688 3.688 0 0 1-2.437-.786 2.567 2.567 0 0 1-.946-2.079h1.975a1.145 1.145 0 0 0 .42.916 1.549 1.549 0 0 0 1.036.355 1.556 1.556 0 0 0 1.1-.373 1.286 1.286 0 0 0 .4-.988q0-1.49-1.641-1.49H2.687z" transform="translate(7 16)" style="fill:#777"/>
</svg>
