<svg xmlns="http://www.w3.org/2000/svg" width="40" height="40" viewBox="0 0 40 40">
    <defs>
        <clipPath id="p75whv6k7a">
            <path data-name="사각형 12439" transform="translate(-14282 -4802)" style="fill:#fff" d="M0 0h40v40H0z"/>
        </clipPath>
    </defs>
    <g data-name="ic_insurance notice_40" transform="translate(14282 4802)" style="clip-path:url(#p75whv6k7a)">
        <g data-name="그룹 35629">
            <g data-name="그룹 35628">
                <path data-name="패스 57315" d="M6.305 29.115a.6.6 0 0 1 0-1.2c1.772 0 2.2-2.976 2.247-3.3V1a.6.6 0 1 1 1.2 0v23.651a.6.6 0 0 1 0 .064 8.3 8.3 0 0 1-.554 2.1c-.806 1.901-2.017 2.3-2.893 2.3z" transform="translate(-14280.245 -4797.609)" style="fill:#333"/>
                <path data-name="선 1280" d="M11.147.6H0A.6.6 0 0 1-.6 0 .6.6 0 0 1 0-.6h11.147a.6.6 0 0 1 .6.6.6.6 0 0 1-.6.6z" transform="translate(-14266.575 -4791.257)" style="fill:#7e4f40"/>
                <path data-name="선 1281" d="M11.147.6H0A.6.6 0 0 1-.6 0 .6.6 0 0 1 0-.6h11.147a.6.6 0 0 1 .6.6.6.6 0 0 1-.6.6z" transform="translate(-14266.575 -4787.017)" style="fill:#7e4f40"/>
                <path data-name="선 1282" d="M5.249.6H0A.6.6 0 0 1-.6 0 .6.6 0 0 1 0-.6h5.249a.6.6 0 0 1 .6.6.6.6 0 0 1-.6.6z" transform="translate(-14266.575 -4782.778)" style="fill:#7e4f40"/>
                <path data-name="선 1283" d="M5.249.6H0A.6.6 0 0 1-.6 0 .6.6 0 0 1 0-.6h5.249a.6.6 0 0 1 .6.6.6.6 0 0 1-.6.6z" transform="translate(-14266.575 -4778.538)" style="fill:#7e4f40"/>
                <path data-name="패스 57316" d="M21.15 29.737H5.972a5.894 5.894 0 0 1-3.908-1.4A4.838 4.838 0 0 1 .4 24.651v-4.479a.6.6 0 0 1 .6-.6h4.788L5.874 1a.6.6 0 0 1 .6-.6h19.649a.6.6 0 0 1 .6.6v12.07a.6.6 0 1 1-1.2 0V1.6H7.071l-.086 18.575a.6.6 0 0 1-.6.6H1.6v3.879c0 2.215 1.88 3.886 4.372 3.886H21.15a.6.6 0 0 1 0 1.2z" transform="translate(-14277.479 -4797.609)" style="fill:#333"/>
                <path data-name="패스 57317" d="M43.632 37.739a5.623 5.623 0 1 1 5.623-5.622 5.628 5.628 0 0 1-5.623 5.622z" transform="translate(-14296.778 -4810.903)" style="fill:#fbfbfb"/>
                <path data-name="패스 57317 - 윤곽선" d="M43.632 38.339a6.223 6.223 0 1 1 6.223-6.222 6.229 6.229 0 0 1-6.223 6.222zm0-11.245a5.023 5.023 0 1 0 5.023 5.023 5.028 5.028 0 0 0-5.023-5.023z" transform="translate(-14296.778 -4810.903)" style="fill:#333"/>
                <path data-name="타원 2292" d="M3.213-.6A3.813 3.813 0 1 1-.6 3.213 3.817 3.817 0 0 1 3.213-.6zm0 6.426A2.613 2.613 0 1 0 .6 3.213a2.616 2.616 0 0 0 2.613 2.613z" transform="translate(-14256.359 -4782)" style="fill:#333"/>
                <path data-name="패스 57318" d="M49.78 55.544a.6.6 0 0 1-.294-.077l-2.577-1.448-2.577 1.448a.6.6 0 0 1-.894-.523v-5.95a.6.6 0 0 1 1.2 0v4.925l1.977-1.111a.6.6 0 0 1 .588 0l1.977 1.111v-4.925a.6.6 0 0 1 1.2 0v5.95a.6.6 0 0 1-.6.6z" transform="translate(-14299.922 -4822.637)" style="fill:#333"/>
            </g>
            <circle data-name="타원 2293" cx="4" cy="4" r="4" transform="translate(-14256 -4782)" style="fill:#a48379;mix-blend-mode:multiply;isolation:isolate"/>
        </g>
    </g>
</svg>
