<svg xmlns="http://www.w3.org/2000/svg" width="60" height="60" viewBox="0 0 60 60" fill="none">
  <path fill-rule="evenodd" clip-rule="evenodd" d="M30 60.001C46.5685 60.001 60 46.5695 60 30.001C60 13.4324 46.5685 0.000976562 30 0.000976562C13.4315 0.000976562 0 13.4324 0 30.001C0 46.5695 13.4315 60.001 30 60.001Z" fill="#FFD241"/>
  <path fill-rule="evenodd" clip-rule="evenodd" d="M26.4333 39.001C26.1141 39.001 25.8077 38.8806 25.5843 38.6642L16.3527 29.811C15.8824 29.36 15.8824 28.6314 16.3527 28.1804C16.8231 27.7313 17.5828 27.7313 18.053 28.1804L26.4333 36.2192L41.9492 21.3393C42.4173 20.8882 43.1792 20.8882 43.6473 21.3393C44.1176 21.7882 44.1176 22.5189 43.6473 22.9699L27.2825 38.6642C27.0568 38.8806 26.7525 39.001 26.4333 39.001Z" fill="white"/>
</svg>