<svg xmlns="http://www.w3.org/2000/svg" width="14.502" height="14.503" viewBox="0 0 14.502 14.503">
    <defs>
        <style>
            .cls-2{fill:#37c887}
        </style>
    </defs>
    <g id="icon_other" transform="translate(-765.039 -330.372)">
        <path id="패스_649" fill="#cff2f8" stroke="#82cdd9" stroke-linecap="round" stroke-linejoin="round" stroke-width="0.5px" d="M779.281 337.259a7 7 0 1 1-6.626-6.627 7 7 0 0 1 6.626 6.627z"/>
        <path id="패스_650" d="M813.773 335.875c-.1.107-.1.233-.2.436-.462.948-1.738.627-2.385 1.308-.243.256-.274.677-.442.982-.188.34-.755.761-.788 1.157-.072.868 1.507.476 1.825 1.034s-.466 1.628-.039 2.2c.371.495 1.372-.305 1.949.258.281.274.39.738.8.871a.8.8 0 0 0 .942-.445c.125-.25-.022-.626.108-.834.168-.269.683-.211.952-.207.439.006.822.078 1.152.088.013-.174.021-.349.021-.526a7.074 7.074 0 0 0-3.895-6.322z" class="cls-2" transform="translate(-38.375 -4.495)"/>
        <path id="패스_651" d="M770.707 331.994a7.007 7.007 0 0 0-5.416 6.792 6.937 6.937 0 0 0 .121 1.282c.226.039.444.067.63.091.96.121 1.37-.28 2.124-.847.3.324.284.807.443 1.213.254.646.46.436 1.015.568.962.229 1.136 2.1 1.622 2.807.16-.435.49-.9.32-1.375-.159-.449-.6-.582-.814-.945-.191-.326-.131-.606-.4-.928a2.464 2.464 0 0 1-.61-1.379c-.037-.41-.142-.795.153-1.138.311-.361.836-.29.422-.82-.27-.347-.933-.458-1-.929-.061-.456.41-.689.675-.943.24-.23.579-.555.463-.919a1.867 1.867 0 0 0-.629-.728 2.665 2.665 0 0 1 .656-1.543c.07-.073.144-.163.225-.259z" class="cls-2" transform="translate(-.001 -1.173)"/>
    </g>
</svg>
