<svg xmlns="http://www.w3.org/2000/svg" width="22" height="22" viewBox="0 0 22 22">
    <g data-name="타원 13" style="stroke:#999;fill:none">
        <circle cx="11" cy="11" r="11" style="stroke:none"/>
        <circle cx="11" cy="11" r="10.5" style="fill:none"/>
    </g>
    <path data-name="패스 24326" d="M7.5 0H.677v-1.354L3.9-4.785a7.943 7.943 0 0 0 .977-1.265A2.032 2.032 0 0 0 5.2-7.075a1.52 1.52 0 0 0-.34-1.043A1.209 1.209 0 0 0 3.9-8.5a1.3 1.3 0 0 0-1.056.461 1.828 1.828 0 0 0-.386 1.213H.479a3.263 3.263 0 0 1 .434-1.657 3.059 3.059 0 0 1 1.227-1.18 3.73 3.73 0 0 1 1.8-.427 3.531 3.531 0 0 1 2.389.738 2.612 2.612 0 0 1 .851 2.085 3.347 3.347 0 0 1-.383 1.5 8.357 8.357 0 0 1-1.315 1.788L3.22-1.593H7.5z" transform="translate(7 16)" style="fill:#777"/>
</svg>
