<svg xmlns="http://www.w3.org/2000/svg" width="16" height="16">
    <g data-name="그룹 6749">
        <path data-name="사각형 2685" style="fill:none" d="M0 0h16v16H0z"/>
        <g data-name="그룹 6741">
            <path data-name="패스 20601" d="M430.352 1201.141a.8.8 0 0 1-.236-.035.567.567 0 0 1-.435-.638l1.069-5.061h-3.73a.748.748 0 0 1-.486-.171.522.522 0 0 1-.2-.41l1.65-8.139c.005-.313.485-.614.857-.614l5.292-.733a.733.733 0 0 1 .545.23.5.5 0 0 1 .11.5l-2.021 5.893h3.184a.711.711 0 0 1 .591.289.5.5 0 0 1 0 .576l-5.6 8.027a.712.712 0 0 1-.59.286zm-2.642-6.882h3.853a.743.743 0 0 1 .522.205.513.513 0 0 1 .149.469l-.547 2.588 3.077-4.408h-2.9a.732.732 0 0 1-.545-.229.5.5 0 0 1-.111-.5l2.021-5.894-4.1.717z" transform="translate(-422.829 -1185.24)" style="fill:#989898"/>
        </g>
    </g>
</svg>
