<svg xmlns="http://www.w3.org/2000/svg" width="13.999" height="14" viewBox="0 0 13.999 14">
    <g fill="none" stroke-miterlimit="10">
        <path d="M164.163 837.245l1.019-1.029a.709.709 0 0 1 1.009 0l2.12 2.138a.333.333 0 0 1 0 .469l-1.225 1.235a.2.2 0 0 0-.049.2 7.945 7.945 0 0 0 4.2 4.386.2.2 0 0 0 .226-.037l1.375-1.387a.326.326 0 0 1 .464 0l2.315 2.334a.333.333 0 0 1 0 .469l-1.513 1.526a1.52 1.52 0 0 1-1.385.424c-2.267-.463-8.436-2.375-9-9.521a1.548 1.548 0 0 1 .444-1.207z" transform="translate(-162.711 -835.005)"/>
        <path fill="#3d3736" d="M165.687 836.005c-.183 0-.365.07-.505.211l-1.02 1.029c-.315.318-.482.76-.446 1.21.565 7.145 6.734 9.057 9 9.52.102.02.203.03.303.03.402 0 .792-.16 1.083-.454l1.513-1.526c.128-.13.128-.34 0-.469l-2.314-2.334c-.065-.065-.149-.097-.233-.097-.083 0-.167.032-.231.096l-1.375 1.387c-.038.038-.089.058-.14.058-.03 0-.059-.007-.086-.02-3.112-1.545-4.022-3.844-4.198-4.386-.024-.072-.004-.15.049-.202l1.224-1.236c.129-.129.129-.339 0-.468l-2.12-2.138c-.139-.14-.322-.21-.504-.21m0-1c.459 0 .89.18 1.214.506l2.12 2.137c.515.519.514 1.361 0 1.879l-.855.861c.334.71 1.162 2.032 3.007 3.09.319-.32.71-.716.953-.961.253-.254.587-.393.942-.393.357 0 .693.14.944.395l2.313 2.332c.514.519.514 1.361-.001 1.878l-1.512 1.525c-.48.484-1.116.75-1.793.75-.168 0-.337-.017-.503-.05-1.182-.242-3.475-.88-5.54-2.436-1.158-.873-2.1-1.924-2.798-3.125-.825-1.417-1.316-3.053-1.459-4.86-.058-.739.21-1.465.734-1.994l1.02-1.028c.323-.327.755-.507 1.214-.507z" transform="translate(-162.711 -835.005)"/>
    </g>
</svg>
