<svg xmlns="http://www.w3.org/2000/svg" xmlns:xlink="http://www.w3.org/1999/xlink" width="912" height="112" viewBox="0 0 912 112">
  <defs>
    <clipPath id="clip-_1-1-3._간병요청알림모달_ai_frame">
      <rect width="912" height="112"/>
    </clipPath>
  </defs>
  <g id="_1-1-3._간병요청알림모달_ai_frame" data-name="1-1-3. 간병요청알림모달_ai_frame" clip-path="url(#clip-_1-1-3._간병요청알림모달_ai_frame)">
    <g id="ic_ai_00" transform="translate(-124 -210)">
      <text id="AI" transform="translate(170 273)" fill="#a47768" font-size="21" font-family="NotoSansKR-Black, Noto Sans KR" font-weight="800" opacity="0.19"><tspan x="0" y="0">AI</tspan></text>
      <rect id="사각형_12137" data-name="사각형 12137" width="80" height="80" transform="translate(140 226)" fill="none"/>
    </g>
    <g id="ic_ai_01" transform="translate(-24 -210)">
      <g id="그룹_35509" data-name="그룹 35509" transform="translate(148 234)">
        <circle id="타원_2489" data-name="타원 2489" cx="7" cy="7" r="7" transform="translate(36)" fill="#7e4f40"/>
      </g>
      <text id="AI-2" data-name="AI" transform="translate(170 273)" fill="#a47768" font-size="21" font-family="NotoSansKR-Black, Noto Sans KR" font-weight="800" opacity="0.19"><tspan x="0" y="0">AI</tspan></text>
      <rect id="사각형_12137-2" data-name="사각형 12137" width="80" height="80" transform="translate(140 226)" fill="none"/>
    </g>
    <g id="ic_ai_02" transform="translate(76 -210)">
      <circle id="타원_2490" data-name="타원 2490" cx="7" cy="7" r="7" transform="translate(198 249)" fill="#7e4f40" opacity="0.85"/>
      <g id="그룹_35509-2" data-name="그룹 35509" transform="translate(148 234)">
        <circle id="타원_2489-2" data-name="타원 2489" cx="7" cy="7" r="7" transform="translate(36)" fill="#7e4f40"/>
      </g>
      <text id="AI-3" data-name="AI" transform="translate(170 273)" fill="#a47768" font-size="21" font-family="NotoSansKR-Black, Noto Sans KR" font-weight="800" opacity="0.19"><tspan x="0" y="0">AI</tspan></text>
      <rect id="사각형_12137-3" data-name="사각형 12137" width="80" height="80" transform="translate(140 226)" fill="none"/>
    </g>
    <g id="ic_ai_03" transform="translate(176 -210)">
      <circle id="타원_2490-2" data-name="타원 2490" cx="7" cy="7" r="7" transform="translate(198 249)" fill="#7e4f40" opacity="0.85"/>
      <g id="그룹_35509-3" data-name="그룹 35509" transform="translate(148 234)">
        <circle id="타원_2489-3" data-name="타원 2489" cx="7" cy="7" r="7" transform="translate(36)" fill="#7e4f40"/>
        <circle id="타원_2491" data-name="타원 2491" cx="7" cy="7" r="7" transform="translate(50 35)" fill="#7e4f40" opacity="0.7"/>
      </g>
      <text id="AI-4" data-name="AI" transform="translate(170 273)" fill="#a47768" font-size="21" font-family="NotoSansKR-Black, Noto Sans KR" font-weight="800" opacity="0.19"><tspan x="0" y="0">AI</tspan></text>
      <rect id="사각형_12137-4" data-name="사각형 12137" width="80" height="80" transform="translate(140 226)" fill="none"/>
    </g>
    <g id="ic_ai_04" transform="translate(276 -210)">
      <circle id="타원_2490-3" data-name="타원 2490" cx="7" cy="7" r="7" transform="translate(198 249)" fill="#7e4f40" opacity="0.85"/>
      <g id="그룹_35509-4" data-name="그룹 35509" transform="translate(148 234)">
        <circle id="타원_2489-4" data-name="타원 2489" cx="7" cy="7" r="7" transform="translate(36)" fill="#7e4f40"/>
        <circle id="타원_2491-2" data-name="타원 2491" cx="7" cy="7" r="7" transform="translate(50 35)" fill="#7e4f40" opacity="0.7"/>
        <circle id="타원_2492" data-name="타원 2492" cx="7" cy="7" r="7" transform="translate(36 50)" fill="#7e4f40" opacity="0.6"/>
      </g>
      <text id="AI-5" data-name="AI" transform="translate(170 273)" fill="#a47768" font-size="21" font-family="NotoSansKR-Black, Noto Sans KR" font-weight="800" opacity="0.19"><tspan x="0" y="0">AI</tspan></text>
      <rect id="사각형_12137-5" data-name="사각형 12137" width="80" height="80" transform="translate(140 226)" fill="none"/>
    </g>
    <g id="ic_ai_05" transform="translate(376 -210)">
      <circle id="타원_2490-4" data-name="타원 2490" cx="7" cy="7" r="7" transform="translate(198 249)" fill="#7e4f40" opacity="0.85"/>
      <circle id="타원_2528" data-name="타원 2528" cx="7" cy="7" r="7" transform="translate(163 284)" fill="#7e4f40" opacity="0.5"/>
      <g id="그룹_35509-5" data-name="그룹 35509" transform="translate(148 234)">
        <circle id="타원_2489-5" data-name="타원 2489" cx="7" cy="7" r="7" transform="translate(36)" fill="#7e4f40"/>
        <circle id="타원_2491-3" data-name="타원 2491" cx="7" cy="7" r="7" transform="translate(50 35)" fill="#7e4f40" opacity="0.7"/>
        <circle id="타원_2492-2" data-name="타원 2492" cx="7" cy="7" r="7" transform="translate(36 50)" fill="#7e4f40" opacity="0.6"/>
      </g>
      <text id="AI-6" data-name="AI" transform="translate(170 273)" fill="#a47768" font-size="21" font-family="NotoSansKR-Black, Noto Sans KR" font-weight="800" opacity="0.19"><tspan x="0" y="0">AI</tspan></text>
      <rect id="사각형_12137-6" data-name="사각형 12137" width="80" height="80" transform="translate(140 226)" fill="none"/>
    </g>
    <g id="ic_ai_06" transform="translate(476 -210)">
      <circle id="타원_2490-5" data-name="타원 2490" cx="7" cy="7" r="7" transform="translate(198 249)" fill="#7e4f40" opacity="0.85"/>
      <circle id="타원_2528-2" data-name="타원 2528" cx="7" cy="7" r="7" transform="translate(163 284)" fill="#7e4f40" opacity="0.5"/>
      <g id="그룹_35509-6" data-name="그룹 35509" transform="translate(148 234)">
        <circle id="타원_2489-6" data-name="타원 2489" cx="7" cy="7" r="7" transform="translate(36)" fill="#7e4f40"/>
        <circle id="타원_2491-4" data-name="타원 2491" cx="7" cy="7" r="7" transform="translate(50 35)" fill="#7e4f40" opacity="0.7"/>
        <circle id="타원_2492-3" data-name="타원 2492" cx="7" cy="7" r="7" transform="translate(36 50)" fill="#7e4f40" opacity="0.6"/>
        <circle id="타원_2494" data-name="타원 2494" cx="7" cy="7" r="7" transform="translate(0 35)" fill="#7e4f40" opacity="0.35"/>
      </g>
      <text id="AI-7" data-name="AI" transform="translate(170 273)" fill="#a47768" font-size="21" font-family="NotoSansKR-Black, Noto Sans KR" font-weight="800" opacity="0.19"><tspan x="0" y="0">AI</tspan></text>
      <rect id="사각형_12137-7" data-name="사각형 12137" width="80" height="80" transform="translate(140 226)" fill="none"/>
    </g>
    <g id="ic_ai_07" transform="translate(576 -210)">
      <circle id="타원_2490-6" data-name="타원 2490" cx="7" cy="7" r="7" transform="translate(198 249)" fill="#7e4f40" opacity="0.85"/>
      <circle id="타원_2528-3" data-name="타원 2528" cx="7" cy="7" r="7" transform="translate(163 284)" fill="#7e4f40" opacity="0.5"/>
      <circle id="타원_2495" data-name="타원 2495" cx="7" cy="7" r="7" transform="translate(148 249)" fill="#7e4f40" opacity="0.2"/>
      <g id="그룹_35509-7" data-name="그룹 35509" transform="translate(148 234)">
        <circle id="타원_2489-7" data-name="타원 2489" cx="7" cy="7" r="7" transform="translate(36)" fill="#7e4f40"/>
        <circle id="타원_2491-5" data-name="타원 2491" cx="7" cy="7" r="7" transform="translate(50 35)" fill="#7e4f40" opacity="0.7"/>
        <circle id="타원_2492-4" data-name="타원 2492" cx="7" cy="7" r="7" transform="translate(36 50)" fill="#7e4f40" opacity="0.6"/>
        <circle id="타원_2494-2" data-name="타원 2494" cx="7" cy="7" r="7" transform="translate(0 35)" fill="#7e4f40" opacity="0.35"/>
      </g>
      <text id="AI-8" data-name="AI" transform="translate(170 273)" fill="#a47768" font-size="21" font-family="NotoSansKR-Black, Noto Sans KR" font-weight="800" opacity="0.19"><tspan x="0" y="0">AI</tspan></text>
      <rect id="사각형_12137-8" data-name="사각형 12137" width="80" height="80" transform="translate(140 226)" fill="none"/>
    </g>
    <g id="ic_ai_08" transform="translate(676 -210)">
      <circle id="타원_2490-7" data-name="타원 2490" cx="7" cy="7" r="7" transform="translate(198 249)" fill="#7e4f40" opacity="0.85"/>
      <circle id="타원_2528-4" data-name="타원 2528" cx="7" cy="7" r="7" transform="translate(163 284)" fill="#7e4f40" opacity="0.5"/>
      <circle id="타원_2893" data-name="타원 2893" cx="7" cy="7" r="7" transform="translate(163 234)" fill="#7e4f40" opacity="0.08"/>
      <circle id="타원_2495-2" data-name="타원 2495" cx="7" cy="7" r="7" transform="translate(148 249)" fill="#7e4f40" opacity="0.2"/>
      <g id="그룹_35509-8" data-name="그룹 35509" transform="translate(148 234)">
        <circle id="타원_2489-8" data-name="타원 2489" cx="7" cy="7" r="7" transform="translate(36)" fill="#7e4f40"/>
        <circle id="타원_2491-6" data-name="타원 2491" cx="7" cy="7" r="7" transform="translate(50 35)" fill="#7e4f40" opacity="0.7"/>
        <circle id="타원_2492-5" data-name="타원 2492" cx="7" cy="7" r="7" transform="translate(36 50)" fill="#7e4f40" opacity="0.6"/>
        <circle id="타원_2494-3" data-name="타원 2494" cx="7" cy="7" r="7" transform="translate(0 35)" fill="#7e4f40" opacity="0.35"/>
      </g>
      <text id="AI-9" data-name="AI" transform="translate(170 273)" fill="#a47768" font-size="21" font-family="NotoSansKR-Black, Noto Sans KR" font-weight="800" opacity="0.19"><tspan x="0" y="0">AI</tspan></text>
      <rect id="사각형_12137-9" data-name="사각형 12137" width="80" height="80" transform="translate(140 226)" fill="none"/>
    </g>
  </g>
</svg>
