<svg xmlns="http://www.w3.org/2000/svg" width="16.079" height="16.078" viewBox="0 0 16.079 16.078">
    <path data-name="사각형 1182" transform="translate(.016 .039)" style="fill:none" d="M0 0h16v16H0z"/>
    <g data-name="그룹 7479" transform="translate(.625 .625)">
        <path data-name="패스 21144" d="M329.464 210.768a7.414 7.414 0 1 1-7.414-7.414 7.389 7.389 0 0 1 7.414 7.414z" transform="translate(-314.635 -203.354)" style="stroke:#7e4f40;stroke-linecap:round;stroke-linejoin:round;stroke-width:1.25px;fill:none"/>
        <circle data-name="타원 769" cx="2.273" cy="2.273" r="2.273" transform="translate(5.141 2.615)" style="stroke:#7e4f40;stroke-linecap:round;stroke-linejoin:round;stroke-width:1.25px;fill:none"/>
        <path data-name="패스 21145" d="M330.259 229.061a7.415 7.415 0 0 1-12.231 0 3.783 3.783 0 0 1 3.673-2.86h4.885a3.783 3.783 0 0 1 3.673 2.86z" transform="translate(-316.729 -217.453)" style="stroke:#7e4f40;stroke-linecap:round;stroke-linejoin:round;stroke-width:1.25px;fill:none"/>
    </g>
</svg>
