<svg xmlns="http://www.w3.org/2000/svg" width="36" height="36" viewBox="0 0 36 36">
    <g transform="translate(-52 -136)">
        <circle data-name="타원 522" cx="18" cy="18" r="18" transform="translate(52 136)" style="fill:#007262"/>
        <g data-name="그룹 5168">
            <path data-name="패스 15868" d="M179.79 237.529a2.452 2.452 0 0 0-.173-.59 2.9 2.9 0 0 0-1.168-1.352 2.622 2.622 0 0 0-2.7.017 2.372 2.372 0 0 0-.891.954 2.843 2.843 0 0 0-.169.418 2.932 2.932 0 0 0 .185 2.283 1.152 1.152 0 0 0 .546.477.794.794 0 0 0 .707-.055.751.751 0 0 0 .264-.792 2.075 2.075 0 0 1 .026-1.1.863.863 0 0 1 .2-.315.743.743 0 0 1 .187-.128.783.783 0 0 1 .467-.076.894.894 0 0 1 .627.512 2.07 2.07 0 0 1 .169.817 12.323 12.323 0 0 1-.545 3.659c-.032.121-.065.241-.1.361-.027.093-.074.211-.015.3a.234.234 0 0 0 .109.083.411.411 0 0 0 .45-.16 6.523 6.523 0 0 0 1.489-2.6 8.293 8.293 0 0 0 .286-1.09 4.769 4.769 0 0 0 .049-1.623z" transform="translate(-107.497 -82.28)" style="fill:#fff"/>
            <path data-name="패스 15869" d="M172.209 221.529a.311.311 0 0 0-.337-.3 1.64 1.64 0 0 0-.5.16 20.373 20.373 0 0 1-10.02.947c-.568-.082-1.143-.2-1.714-.286-.357-.056-.711-.136-1.07-.164a1.3 1.3 0 0 0-.938.179.991.991 0 0 0-.118 1.173 2.643 2.643 0 0 0 1.019.986 2.468 2.468 0 0 0 1.336.456q1.9-.121 3.794-.367a25.362 25.362 0 0 0 6.423-1.377 8.1 8.1 0 0 0 1.878-1.052c.1-.077.247-.206.247-.355z" transform="translate(-94.791 -71.924)" style="fill:#fff"/>
            <path data-name="패스 15870" d="M179.709 214.61a1.239 1.239 0 0 0 2.478 0 .694.694 0 0 0-.068-.3c-.106-.225-.225-.335-.213-.6.015-.365-.452-.369-.7-.369a1.815 1.815 0 0 0-.811.162 1.256 1.256 0 0 0-.486.438 1.232 1.232 0 0 0-.2.641v.028z" transform="translate(-111.323 -66.084)" style="fill:#fff"/>
        </g>
    </g>
</svg>
