<svg xmlns="http://www.w3.org/2000/svg" width="36" height="36" viewBox="0 0 36 36">
    <g transform="translate(-124 -79)">
        <circle data-name="타원 515" cx="18" cy="18" r="18" transform="translate(124 79)" style="fill:#64594e"/>
        <g data-name="그룹 5121">
            <path data-name="패스 15248" d="m364.574 166.123-.154-.1a2.759 2.759 0 0 0-2.233-.694 4.2 4.2 0 0 0-1.952.672v-.022a7.74 7.74 0 0 1 .057-.8 8.114 8.114 0 0 0 .057-.813 1.9 1.9 0 0 0-.123-.739.144.144 0 0 0-.14-.089 2.132 2.132 0 0 0-.9.295l-.068.148a5.906 5.906 0 0 1-.134 1.2l-.034.1a14.684 14.684 0 0 0-.011 3.058c.012.088.181.219.311.267a1.981 1.981 0 0 0 .848-.164l.1-.015a.148.148 0 0 0 .126-.171l.006-.252a2.513 2.513 0 0 1 1.83-1.795 1.267 1.267 0 0 1 1.215.392 1.664 1.664 0 0 1-.2 1.232 2.545 2.545 0 0 1-1.392 1.1 5.325 5.325 0 0 1-2.129.3l-.783-.53a11.327 11.327 0 0 0-2.234-1.328 2.709 2.709 0 0 1-.508-.363l-.077-.063c-.431-.345-1.25-.892-1.909-1.33l-.354-.238v-.075c.019-.021.433-.269.433-.269a4.408 4.408 0 0 0 .9-.591c-.012.014.077-.045.077-.045l1.436-.812a17.571 17.571 0 0 0 3.76-2.466l.04-.13.018-.115a.79.79 0 0 0 .012-.482.152.152 0 0 0-.111-.11 3.131 3.131 0 0 0-2.218 1.026 2.007 2.007 0 0 1-.463.319l-.115.064c-.829.471-2.7 1.63-3.674 2.256a32.845 32.845 0 0 1 .5-3.793l-.026-.149-.1-.189-.076-.135-.022-.006a.62.62 0 0 0-.472-.029l-.2.072-.261.094a.141.141 0 0 0-.108.092 15.855 15.855 0 0 0-.948 4.469 22.33 22.33 0 0 0-2.219-1.226l-.012-.007-.05-.011a1.558 1.558 0 0 1-.516-.24l-.355-.23-.542-.347-.143-.033a1.692 1.692 0 0 0-.812.545.16.16 0 0 0-.025.087.519.519 0 0 0 .025.129l.024.11.025.066a7.81 7.81 0 0 0 1.558 1.056l.745.395 1.141.623c0 .005.194.155.194.155l.134.077.025.015-2.075 1.386-1.091.723a6.359 6.359 0 0 1-.629.3.9.9 0 0 0-.49.4l-.029.063.029.042.083.063.112.073.12.082.114.018a2.888 2.888 0 0 0 1.007-.335c.488-.216 1.813-1.016 2.38-1.357l.242-.145a.538.538 0 0 0 .308-.15 2.988 2.988 0 0 1 .511-.309l.172-.094v.065a23.113 23.113 0 0 0 .314 3.964v.017l.018.039a4.365 4.365 0 0 1 .294.91l.215.724c.005.009.061.068.061.068a1.422 1.422 0 0 0 .75.2l.063-.008.039-.088a1.694 1.694 0 0 0 .029-.332c0-.132-.009-.277-.021-.456l-.017-.261c-.079-1.21-.159-2.956-.159-4.118v-.093l1.1.7a26.065 26.065 0 0 0 5.239 2.889.2.2 0 0 0 .2-.046l.215-.138.04-.016a.391.391 0 0 0 .143-.32 5.239 5.239 0 0 0 3.7-1.617 2.3 2.3 0 0 0 .493-1.4 1.189 1.189 0 0 0-.287-.86" style="fill:#ff9d00" transform="translate(-214.105 -68.815)"/>
        </g>
    </g>
</svg>
