<svg xmlns="http://www.w3.org/2000/svg" width="28.504" height="28.504" viewBox="0 0 28.504 28.504">
    <defs>
        <clipPath id="vy5lw30s1a">
            <path data-name="패스 54436" d="M62.783 94.82a11.808 11.808 0 0 0-2.891-6.68 11.79 11.79 0 0 0-6.678-2.89 24.053 24.053 0 0 0-4.186-.234 29.057 29.057 0 0 0-4.186.234 11.8 11.8 0 0 0-6.678 2.89 11.8 11.8 0 0 0-2.889 6.68 26.913 26.913 0 0 0-.266 4.187 29.08 29.08 0 0 0 .234 4.187 11.8 11.8 0 0 0 2.889 6.679 11.8 11.8 0 0 0 6.678 2.89A24.148 24.148 0 0 0 49 113a29.154 29.154 0 0 0 4.188-.234 11.786 11.786 0 0 0 6.676-2.89 11.794 11.794 0 0 0 2.891-6.679 24.353 24.353 0 0 0 .234-4.187 22.039 22.039 0 0 0-.2-4.187" transform="translate(-35.005 -85.005)" style="fill:#fff"/>
        </clipPath>
        <clipPath id="72i9qwyv1b">
            <path data-name="패스 54441" d="M0 0h23.729v6.281H0z" style="fill:none"/>
        </clipPath>
    </defs>
    <g data-name="그룹 33580">
        <path data-name="패스 54288" d="M62.783 94.82a11.808 11.808 0 0 0-2.891-6.68 11.79 11.79 0 0 0-6.678-2.89 24.053 24.053 0 0 0-4.186-.234 29.057 29.057 0 0 0-4.186.234 11.8 11.8 0 0 0-6.678 2.89 11.8 11.8 0 0 0-2.889 6.68 26.913 26.913 0 0 0-.266 4.187 29.08 29.08 0 0 0 .234 4.187 11.8 11.8 0 0 0 2.889 6.679 11.8 11.8 0 0 0 6.678 2.89A24.148 24.148 0 0 0 49 113a29.154 29.154 0 0 0 4.188-.234 11.786 11.786 0 0 0 6.676-2.89 11.794 11.794 0 0 0 2.891-6.679 24.353 24.353 0 0 0 .234-4.187 22.039 22.039 0 0 0-.2-4.187" transform="translate(-34.755 -84.755)" style="fill:#fff"/>
        <g data-name="마스크 그룹 323" transform="translate(.25 .25)" style="clip-path:url(#vy5lw30s1a)">
            <path data-name="패스 54440" d="M1.15 0h24.86a1.15 1.15 0 0 1 1.15 1.15v7.243a1.15 1.15 0 0 1-1.15 1.15H1.15A1.15 1.15 0 0 1 0 8.393V1.15A1.15 1.15 0 0 1 1.15 0z" transform="rotate(-16 47.922 -1.32)" style="fill:#ff2225"/>
            <g data-name="마스크 그룹 322" transform="rotate(-16 53.549 -13.088)" style="clip-path:url(#72i9qwyv1b)">
                <g data-name="그룹 33568">
                    <path data-name="패스 54431" d="M0 .553A.549.549 0 0 1 .553 0h1.5a1.722 1.722 0 0 1 1.928 1.739v.014a1.8 1.8 0 0 1-2.034 1.768h-.84v1.041a.549.549 0 0 1-.553.553A.549.549 0 0 1 0 4.562zm1.983 1.983a.779.779 0 0 0 .877-.762V1.76c0-.5-.345-.762-.9-.762h-.853v1.538z" transform="translate(.273 .472)" style="fill:#fff"/>
                    <path data-name="패스 54432" d="M.065 4.4 1.818.438A.684.684 0 0 1 2.464 0h.065a.674.674 0 0 1 .64.438L4.922 4.4a.539.539 0 0 1 .058.223.524.524 0 0 1-.524.532.563.563 0 0 1-.532-.381l-.338-.79H1.372l-.352.826a.543.543 0 0 1-.51.345.509.509 0 0 1-.51-.521.587.587 0 0 1 .065-.234zM3.176 3l-.7-1.66L1.782 3z" transform="translate(4.013 .436)" style="fill:#fff"/>
                    <path data-name="패스 54433" d="M1.76 3.14.136.934A.655.655 0 0 1 0 .539.54.54 0 0 1 .553.007.636.636 0 0 1 1.1.345l1.222 1.76L3.564.33A.634.634 0 0 1 4.1 0a.513.513 0 0 1 .539.539.688.688 0 0 1-.144.388L2.867 3.118V4.57a.553.553 0 0 1-1.107 0z" transform="translate(8.402 .465)" style="fill:#fff"/>
                    <path data-name="패스 54434" d="M0 2.615V2.6A2.556 2.556 0 0 1 2.623 0 2.663 2.663 0 0 1 4.3.51a.553.553 0 0 1 .216.438.54.54 0 0 1-.546.539.581.581 0 0 1-.331-.108 1.654 1.654 0 0 0-1.024-.359 1.49 1.49 0 0 0-1.458 1.567V2.6a1.494 1.494 0 0 0 1.458 1.582 1.615 1.615 0 0 0 1.092-.4.512.512 0 1 1 .661.783 2.527 2.527 0 0 1-1.789.635A2.539 2.539 0 0 1 0 2.615z" transform="translate(13.07 .429)" style="fill:#fff"/>
                    <path data-name="패스 54435" d="M0 2.615V2.6A2.6 2.6 0 0 1 2.68 0a2.577 2.577 0 0 1 2.666 2.587V2.6a2.6 2.6 0 0 1-2.68 2.6A2.577 2.577 0 0 1 0 2.615zm4.189 0V2.6a1.528 1.528 0 0 0-1.523-1.58 1.5 1.5 0 0 0-1.509 1.567V2.6A1.528 1.528 0 0 0 2.68 4.182a1.5 1.5 0 0 0 1.509-1.567z" transform="translate(17.914 .429)" style="fill:#fff"/>
                </g>
            </g>
        </g>
        <path data-name="패스 54437" d="M62.783 94.82a11.808 11.808 0 0 0-2.891-6.68 11.79 11.79 0 0 0-6.678-2.89 24.053 24.053 0 0 0-4.186-.234 29.057 29.057 0 0 0-4.186.234 11.8 11.8 0 0 0-6.678 2.89 11.8 11.8 0 0 0-2.889 6.68 26.913 26.913 0 0 0-.266 4.187 29.08 29.08 0 0 0 .234 4.187 11.8 11.8 0 0 0 2.889 6.679 11.8 11.8 0 0 0 6.678 2.89A24.148 24.148 0 0 0 49 113a29.154 29.154 0 0 0 4.188-.234 11.786 11.786 0 0 0 6.676-2.89 11.794 11.794 0 0 0 2.891-6.679 24.353 24.353 0 0 0 .234-4.187 22.039 22.039 0 0 0-.2-4.187" transform="translate(-34.755 -84.755)" style="stroke:#e1e1e1;stroke-width:.5px;fill:none"/>
    </g>
</svg>
