<svg xmlns="http://www.w3.org/2000/svg" width="36" height="36" viewBox="0 0 36 36">
    <g transform="translate(-52 -124)">
        <circle data-name="타원 1313" cx="18" cy="18" r="18" transform="translate(52 124)" style="fill:#140064"/>
        <path data-name="패스 66734" d="M5.48 0H3.858L1.3 2.982V0H0v6.507h1.3v-2.99l2.642 2.99h1.623l-2.88-3.253zm21.461 6.507L25 4.257l1.887-2.251h-1.4l-1.646 1.948V0h-1.3v6.507h1.3V4.554l1.676 1.953zm-18.5-1.024a1.231 1.231 0 0 1-1.231-1.2v-.034a1.232 1.232 0 1 1 1.232 1.234m.227-3.636a2.147 2.147 0 0 0-1.392.553V0h-1.3v4.286a2.282 2.282 0 0 0 2.459 2.37A2.332 2.332 0 0 0 10.9 4.262a2.256 2.256 0 0 0-2.232-2.415m11.388 0a2.174 2.174 0 0 0-1.494.571v-.429h-1.3V6.51h1.3V3.975a.955.955 0 1 1 1.91 0V6.51h1.3V3.561a1.726 1.726 0 0 0-1.72-1.714m-6.029 3.63a1.232 1.232 0 1 1 1.232-1.232 1.232 1.232 0 0 1-1.232 1.232M14 1.851a2.346 2.346 0 0 0-2.487 2.4 2.267 2.267 0 0 0 2.258 2.409 1.994 1.994 0 0 0 1.545-.776v.626h1.171V4.247h-.01l.01-.026A2.3 2.3 0 0 0 14 1.851" transform="translate(56.529 138.67)" style="fill:#fff"/>
    </g>
</svg>
