<svg xmlns="http://www.w3.org/2000/svg" width="66" height="30" viewBox="0 0 66 30">
    <defs>
        <clipPath id="lxkongo57a">
            <path data-name="사각형 10812" transform="translate(229 488)" style="fill:none" d="M0 0h66v30H0z"/>
        </clipPath>
        <clipPath id="4c6sxsp3eb">
            <path data-name="사각형 10810" transform="translate(79.339 489)" style="fill:none" d="M0 0h41v30H0z"/>
        </clipPath>
        <clipPath id="uwez4glrcc">
            <path data-name="사각형 4163" style="stroke:transparent;fill:#a47768" d="M0 0h6.785v6.785H0z"/>
        </clipPath>
    </defs>
    <g data-name="마스크 그룹 327" transform="translate(-229 -488)" style="clip-path:url(#lxkongo57a)">
        <g data-name="그룹 33587">
            <g data-name="그룹 33586">
                <path data-name="패스 54443" d="M6158.873-14059.566h-6.106" transform="translate(-5917.708 14567.566)" style="stroke-linecap:round;stroke:#111;fill:none"/>
                <path data-name="패스 54445" d="M6160.182-14059.566h-7.416" transform="translate(-5917.708 14573.566)" style="stroke-linecap:round;stroke:#111;fill:none"/>
                <path data-name="패스 54444" d="M6163.681-14059.566h-10.914" transform="translate(-5922.516 14570.566)" style="stroke-linecap:round;stroke:#111;fill:none"/>
            </g>
            <g data-name="마스크 그룹 326" transform="translate(165.411 -1)" style="clip-path:url(#4c6sxsp3eb)">
                <g data-name="그룹 33582">
                    <g data-name="그룹 33434" transform="translate(79.34 490.071)">
                        <path data-name="사각형 4899" transform="translate(0 -.071)" style="fill:none" d="M0 0h40v29H0z"/>
                        <g data-name="그룹 23205" transform="translate(.697 4.303)">
                            <path data-name="패스 24792" d="M2652.594 561.338v-15.285a3 3 0 0 1 3-3h28.283a3 3 0 0 1 3 3v15.286a3 3 0 0 1-3 3h-28.283a3 3 0 0 1-3-3" transform="translate(-2652.594 -540.342)" style="fill:#a47768"/>
                            <rect data-name="사각형 4161" width="34.283" height="21.286" rx="3" transform="translate(0 2.711)" style="stroke-linejoin:round;stroke-linecap:round;stroke:#111;fill:none"/>
                            <path data-name="패스 24793" d="M2652.594 555.817v-15.285a3 3 0 0 1 3-3h28.283a3 3 0 0 1 3 3v15.285a3 3 0 0 1-3 3h-28.283a3 3 0 0 1-3-3" transform="translate(-2652.594 -537.532)" style="fill:#fff;stroke:transparent"/>
                            <rect data-name="사각형 4162" width="34.283" height="21.286" rx="3" style="stroke-linejoin:round;stroke-linecap:round;stroke:#111;fill:none"/>
                            <g data-name="그룹 23204" style="mix-blend-mode:darken;isolation:isolate">
                                <g data-name="그룹 23203">
                                    <g data-name="그룹 23202" style="clip-path:url(#uwez4glrcc)" transform="translate(3.904 4.715)">
                                        <path data-name="패스 24794" d="M2670.207 564.167h-4.373a1.206 1.206 0 0 1-1.206-1.206v-4.374a1.205 1.205 0 0 1 1.206-1.206h4.373a1.206 1.206 0 0 1 1.206 1.206v4.374a1.206 1.206 0 0 1-1.206 1.206" transform="translate(-2664.627 -557.382)" style="stroke:transparent;fill:#a47768"/>
                                    </g>
                                </g>
                            </g>
                            <path data-name="선 961" transform="translate(14.973 15.54)" style="fill:#fff;stroke:transparent" d="M0 0h1.496"/>
                            <path data-name="선 963" transform="translate(18.951 15.54)" style="fill:#fff;stroke:transparent" d="M0 0h1.496"/>
                            <path data-name="선 965" transform="translate(22.929 15.54)" style="fill:#fff;stroke:transparent" d="M0 0h1.496"/>
                            <path data-name="선 967" transform="translate(26.907 15.54)" style="fill:#fff;stroke:transparent" d="M0 0h1.495"/>
                            <g data-name="그룹 23761">
                                <path data-name="선 962" style="stroke:#a47768;stroke-linejoin:round;stroke-linecap:round;fill:none" d="M0 0h1.496" transform="translate(14.973 15.539)"/>
                                <path data-name="선 964" transform="translate(18.951 15.539)" style="stroke:#a47768;stroke-linejoin:round;stroke-linecap:round;fill:none" d="M0 0h1.496"/>
                                <path data-name="선 966" transform="translate(22.93 15.539)" style="stroke:#a47768;stroke-linejoin:round;stroke-linecap:round;fill:none" d="M0 0h1.496"/>
                                <path data-name="선 968" transform="translate(26.908 15.539)" style="stroke:#a47768;stroke-linejoin:round;stroke-linecap:round;fill:none" d="M0 0h1.495"/>
                            </g>
                        </g>
                        <ellipse data-name="타원 1034" cx="6.898" cy="6.9" rx="6.898" ry="6.9" transform="translate(25.841 .396)" style="stroke-linejoin:round;stroke-linecap:round;stroke:#111;fill:#a47768"/>
                        <path data-name="패스 24798" d="m2859.849 585.586-1.888 4.506h2.229l-1.636 3.812 4.272-5.125h-2.636l2.229-3.194z" transform="translate(-2827.654 -582.115)" style="fill:#fff"/>
                    </g>
                </g>
            </g>
        </g>
    </g>
</svg>
