<svg xmlns="http://www.w3.org/2000/svg" width="36" height="36" viewBox="0 0 36 36">
    <g transform="translate(-410 -136)">
        <circle data-name="타원 529" cx="18" cy="18" r="18" transform="translate(410 136)" style="fill:#003375"/>
        <g data-name="그룹 5185">
            <g data-name="그룹 5184">
                <path data-name="패스 15930" d="M186.114 244.134a6.453 6.453 0 0 0-10.566 0l-.062.089h1.53l.016-.018a5.213 5.213 0 0 1 7.6 0l.017.018h1.529l-.061-.089z" transform="translate(249.906 -93.787)" style="fill:#dc000c;fill-rule:evenodd"/>
                <g data-name="그룹 5183">
                    <g data-name="그룹 5182">
                        <g data-name="그룹 5181">
                            <g data-name="그룹 5180">
                                <g data-name="그룹 5179">
                                    <g data-name="그룹 5178">
                                        <g data-name="그룹 5177">
                                            <g data-name="그룹 5176">
                                                <g data-name="그룹 5175">
                                                    <path data-name="패스 15931" d="m129.113 281.006-.029.029a2.213 2.213 0 0 1-1.574.732 2.088 2.088 0 0 1 0-4.173 2.211 2.211 0 0 1 1.574.734l.029.029.752-.91-.02-.024a2.869 2.869 0 0 0-2.3-1.1 3.487 3.487 0 0 0-2.381.873 3.551 3.551 0 0 0 0 4.966 3.477 3.477 0 0 0 2.381.874 2.869 2.869 0 0 0 2.3-1.1l.02-.023z" transform="translate(295.672 -124.936)" style="fill:#fff"/>
                                                    <path data-name="사각형 2259" transform="translate(426.297 151.494)" style="fill:#fff" d="M0 0h1.328v6.484H0z"/>
                                                    <path data-name="패스 15932" d="M210.939 265.827a1.921 1.921 0 0 1-.98.324c-.429 0-.623-.226-.623-.731v-3.44h1.353v-1.221h-1.353v-2.018l-1.3.7v1.321h-1.126v1.221h1.123v3.661a1.529 1.529 0 0 0 1.473 1.7 2.082 2.082 0 0 0 1.178-.3l.013-.009.32-1.25z" transform="translate(221.889 -109.259)" style="fill:#fff"/>
                                                    <path data-name="사각형 2260" transform="translate(433.929 151.494)" style="fill:#fff" d="M0 0h1.329v6.484H0z"/>
                                                </g>
                                            </g>
                                        </g>
                                    </g>
                                </g>
                            </g>
                        </g>
                    </g>
                </g>
            </g>
        </g>
    </g>
</svg>
