<svg width="40" height="40" viewBox="0 0 40 40" fill="none" xmlns="http://www.w3.org/2000/svg">
<g id="ic_whitecjeck_40">
<path id="&#237;&#131;&#128;&#236;&#155;&#144; 2" d="M39.375 20C39.375 30.7005 30.7005 39.375 20 39.375C9.29948 39.375 0.625 30.7005 0.625 20C0.625 9.29948 9.29948 0.625 20 0.625C30.7005 0.625 39.375 9.29948 39.375 20Z" stroke="white" stroke-width="1.25"/>
<g id="&#234;&#183;&#184;&#235;&#163;&#185; 113">
<path id="&#237;&#140;&#168;&#236;&#138;&#164; 291" fill-rule="evenodd" clip-rule="evenodd" d="M19.9096 25.8185C19.2769 25.8185 18.764 25.291 18.764 24.6421V9.19647C18.764 8.54773 19.2769 8.02246 19.9096 8.02246C20.5424 8.02246 21.0536 8.54773 21.0536 9.19647V24.6421C21.0536 25.291 20.5424 25.8185 19.9096 25.8185Z" fill="white" stroke="white" stroke-width="0.5"/>
<path id="&#237;&#140;&#168;&#236;&#138;&#164; 292" fill-rule="evenodd" clip-rule="evenodd" d="M21.2296 30.2433C21.2296 29.493 20.6393 28.8848 19.9093 28.8848C19.1771 28.8848 18.587 29.493 18.587 30.2433C18.587 30.9915 19.1771 31.5999 19.9093 31.5999C20.6393 31.5999 21.2296 30.9915 21.2296 30.2433Z" fill="white" stroke="white" stroke-width="0.5"/>
</g>
</g>
</svg>
