<svg xmlns="http://www.w3.org/2000/svg" width="14" height="14" viewBox="0 0 14 14">
  <g id="icon_check" transform="translate(-203 -367)">
    <rect id="사각형_3176" data-name="사각형 3176" width="14" height="14" transform="translate(203 367)" fill="#fff"/>
    <g id="icon_check-2" data-name="icon_check" transform="translate(-349.369 -182.711)">
      <path id="패스_4160" data-name="패스 4160" d="M561.168,565.556h0a.511.511,0,0,1-.387-.188l-4.2-4.922a.721.721,0,0,1,0-.907.492.492,0,0,1,.774,0l3.813,4.469,7.058-8.273a.492.492,0,0,1,.774,0,.719.719,0,0,1,0,.906l-7.445,8.727A.509.509,0,0,1,561.168,565.556Z" transform="translate(-3.421 -3.835)" fill="#333" stroke="#333" stroke-width="0.75"/>
    </g>
  </g>
</svg>
