<svg xmlns="http://www.w3.org/2000/svg" width="44" height="44" viewBox="0 0 44 44">
  <g id="icon_uniform" transform="translate(-48.424 -694.424)">
    <rect id="사각형_10579" data-name="사각형 10579" width="44" height="44" transform="translate(48.424 694.424)" fill="none"/>
    <g id="그룹_33549" data-name="그룹 33549" transform="translate(-161.821 426.229)">
      <path id="패스_53871" data-name="패스 53871" d="M216.18,302.4V287.281s2.433-4.015,5.849-4.178c0,0,.984,8.571,15.762,7.367,0,0,3.011-.423,3.011,3.508v8.385Z" transform="translate(0.842 3.072)" fill="#7e4f40" opacity="0.7"/>
      <path id="타원_1316" data-name="타원 1316" d="M4.568-.5A5.218,5.218,0,0,1,9.637,4.844a5.218,5.218,0,0,1-5.068,5.344A5.218,5.218,0,0,1-.5,4.844,5.218,5.218,0,0,1,4.568-.5Zm0,9.689A4.218,4.218,0,0,0,8.637,4.844,4.218,4.218,0,0,0,4.568.5,4.218,4.218,0,0,0,.5,4.844,4.218,4.218,0,0,0,4.568,9.189Z" transform="translate(227.563 271.917)" fill="#333"/>
      <path id="패스_53872" data-name="패스 53872" d="M250.874,303.3a.5.5,0,0,1-.5-.5v-5.363a15.168,15.168,0,0,0-15.152-15.151h-6.181a15.168,15.168,0,0,0-15.151,15.151V302.8a.5.5,0,0,1-1,0v-5.363a15.955,15.955,0,0,1,1.275-6.272,16.3,16.3,0,0,1,8.6-8.6,15.955,15.955,0,0,1,6.273-1.275h6.181a15.956,15.956,0,0,1,6.273,1.275,16.3,16.3,0,0,1,8.6,8.6,15.953,15.953,0,0,1,1.275,6.272V302.8A.5.5,0,0,1,250.874,303.3Z" transform="translate(0 2.675)" fill="#333"/>
      <path id="패스_53873" data-name="패스 53873" d="M230.266,289.625a.5.5,0,0,1-.167-.971,8.717,8.717,0,0,0,5.493-6.044.5.5,0,0,1,.97.241,9.662,9.662,0,0,1-6.13,6.746A.5.5,0,0,1,230.266,289.625Z" transform="translate(5.09 2.96)" fill="#333"/>
      <path id="패스_53874" data-name="패스 53874" d="M216.18,301.988a.5.5,0,0,1-.5-.5V286.131a.5.5,0,0,1,1,0v15.358A.5.5,0,0,1,216.18,301.988Z" transform="translate(0.842 3.985)" fill="#333"/>
      <path id="선_1035" data-name="선 1035" d="M0,15.725a.5.5,0,0,1-.5-.5V0A.5.5,0,0,1,0-.5.5.5,0,0,1,.5,0V15.225A.5.5,0,0,1,0,15.725Z" transform="translate(247.029 290.161)" fill="#333"/>
      <path id="패스_53876" data-name="패스 53876" d="M239.246,302.885a.5.5,0,0,1-.5-.5v-9.674A1.709,1.709,0,0,0,237,291.043h-1.6l-.765.018h-.005a22.845,22.845,0,0,1-8.085-1.159,11.014,11.014,0,0,1-4.367-2.785,7.349,7.349,0,0,1-2.04-4.228.5.5,0,0,1,1-.056h0a6.506,6.506,0,0,0,1.824,3.656c2.267,2.406,6.3,3.641,11.655,3.572l.768-.018H237a2.71,2.71,0,0,1,2.744,2.668v9.674A.5.5,0,0,1,239.246,302.885Z" transform="translate(2.187 3)" fill="#333"/>
      <path id="패스_53877" data-name="패스 53877" d="M224.8,298.721l-1.294-1.04a7.049,7.049,0,0,1,1.113-1.453,10.669,10.669,0,0,1,2.011-1.7c.3-.229,1.164-.747,1.41-1.272a1.381,1.381,0,0,0-.121-1.369,1.506,1.506,0,0,0-1.437-.454c-.678.159-1.088.741-1.475,1.827a5.273,5.273,0,0,1-.958,1.822,3.31,3.31,0,0,1-1.489.948,3.073,3.073,0,0,1-1.52.061,2.952,2.952,0,0,1-1.345-.681,3.373,3.373,0,0,1-1.084-2.4,3.018,3.018,0,0,1,.994-2.277,3.069,3.069,0,0,1,1.532-.823,2.84,2.84,0,0,1,1.377.081,3.557,3.557,0,0,1,1.285.713l-1.039,1.13.005,0a2.058,2.058,0,0,0-.735-.389,1.345,1.345,0,0,0-1.371.4,1.5,1.5,0,0,0-.513,1.139,1.838,1.838,0,0,0,.571,1.276,1.479,1.479,0,0,0,1.4.293c.385-.115.983-.518,1.4-1.7a5.35,5.35,0,0,1,1.031-1.985,3.118,3.118,0,0,1,1.576-.938,3.038,3.038,0,0,1,2.939.935,2.676,2.676,0,0,1,.7,1.978,2.891,2.891,0,0,1-1.043,1.949c-.584.534-1.365.981-2.211,1.813a8.712,8.712,0,0,0-1.713,2.111" transform="translate(1.574 5.11)" fill="#fff"/>
    </g>
  </g>
</svg>
