<svg xmlns="http://www.w3.org/2000/svg" width="44" height="44" viewBox="0 0 44 44">
  <g id="icon_cure" transform="translate(-48.424 -694.424)">
    <rect id="사각형_10579" data-name="사각형 10579" width="44" height="44" transform="translate(48.424 694.424)" fill="none"/>
    <g id="그룹_33529" data-name="그룹 33529" transform="translate(9.621 339.191)">
      <path id="타원_1305" data-name="타원 1305" d="M3.268-.5A3.768,3.768,0,1,1-.5,3.268,3.772,3.772,0,0,1,3.268-.5Zm0,6.536A2.768,2.768,0,1,0,.5,3.268,2.771,2.771,0,0,0,3.268,6.036Z" transform="translate(57.629 366.233)" fill="#333"/>
      <g id="그룹_33530" data-name="그룹 33530" transform="translate(67.429 357.129)">
        <path id="패스_53805" data-name="패스 53805" d="M63.433,365.725a1.255,1.255,0,1,0,2.51,0V363.9h-2.51Z" transform="translate(-62.603 -355.849)" fill="#7e4f40" opacity="0.7"/>
        <path id="패스_53806" data-name="패스 53806" d="M68.732,363.9v1.825a1.255,1.255,0,1,0,2.51,0V363.9Z" transform="translate(-61.6 -355.849)" fill="#7e4f40" opacity="0.7"/>
        <path id="선_1020" data-name="선 1020" d="M0,15.883a.5.5,0,0,1-.5-.5V0A.5.5,0,0,1,0-.5.5.5,0,0,1,.5,0V15.383A.5.5,0,0,1,0,15.883Z" transform="translate(4.47)" fill="#333"/>
        <path id="패스_53807" data-name="패스 53807" d="M70.071,362.715a.5.5,0,0,1-.5-.5V359.7H64.4v2.515a.5.5,0,0,1-1,0V359.2a.5.5,0,0,1,.5-.5h6.171a.5.5,0,0,1,.5.5v3.015A.5.5,0,0,1,70.071,362.715Z" transform="translate(-62.516 -356.738)" fill="#333"/>
        <path id="사각형_10606" data-name="사각형 10606" d="M1.055-.5h.4A1.557,1.557,0,0,1,3.01,1.055V3.591A1.557,1.557,0,0,1,1.455,5.147h-.4A1.557,1.557,0,0,1-.5,3.591V1.055A1.557,1.557,0,0,1,1.055-.5Zm.4,4.647a.556.556,0,0,0,.555-.555V1.055A.556.556,0,0,0,1.455.5h-.4A.556.556,0,0,0,.5,1.055V3.591a.556.556,0,0,0,.555.555Z" transform="translate(0 6.019)" fill="#333"/>
        <path id="사각형_10607" data-name="사각형 10607" d="M1.055-.5h.4A1.557,1.557,0,0,1,3.01,1.055V3.591A1.557,1.557,0,0,1,1.455,5.147h-.4A1.557,1.557,0,0,1-.5,3.591V1.055A1.557,1.557,0,0,1,1.055-.5Zm.4,4.647a.556.556,0,0,0,.555-.555V1.055A.556.556,0,0,0,1.455.5h-.4A.556.556,0,0,0,.5,1.055V3.591a.556.556,0,0,0,.555.555Z" transform="translate(6.301 6.019)" fill="#333"/>
      </g>
      <path id="패스_53808" data-name="패스 53808" d="M54.67,366.409a8.181,8.181,0,0,0,0,2.97c.351.75,7.6-3.142,8.054-2.97,0,0-1-1.788-1.551-1.935S56.871,365.288,54.67,366.409Z" transform="translate(2.076 1.386)" fill="#7e4f40" opacity="0.7"/>
      <path id="패스_53809" data-name="패스 53809" d="M57.637,389.016H55.759a.5.5,0,0,1,0-1h1.878a2.739,2.739,0,0,0,1.114-5.242.5.5,0,1,1,.41-.912,3.739,3.739,0,0,1-1.524,7.154Z" transform="translate(2.312 4.764)" fill="#333"/>
      <path id="패스_53810" data-name="패스 53810" d="M46.546,380.781a.5.5,0,0,1-.47-.67l1.679-4.654a3.709,3.709,0,0,1,1.312-1.747.5.5,0,0,1,.588.809A2.712,2.712,0,0,0,48.7,375.8l-1.679,4.654A.5.5,0,0,1,46.546,380.781Z" transform="translate(0.569 3.212)" fill="#333"/>
      <path id="선_1021" data-name="선 1021" d="M1.128,7.119A.5.5,0,0,1,.635,6.7L-.493.084A.5.5,0,0,1-.084-.493a.5.5,0,0,1,.577.409L1.621,6.535a.5.5,0,0,1-.493.584Z" transform="translate(66.979 384.623)" fill="#333"/>
      <path id="패스_53812" data-name="패스 53812" d="M68.3,372.937c.314.327-.6,1.84-.6,1.84L59.28,391.1a2.587,2.587,0,0,1-2.042,1.347H50c-3.209,0-4.327-1.347-4.327-1.347a3.507,3.507,0,0,1-.535-3.994s5.208-8.7,19.031-14.7a9.746,9.746,0,0,1,4.137.529" transform="translate(0.229 2.885)" fill="#7e4f40" opacity="0.7"/>
      <path id="패스_53813" data-name="패스 53813" d="M70.539,387.637a.5.5,0,0,1-.492-.416l-1.783-10.457c-.445-1.423-1.779-2.5-3.966-3.213a.5.5,0,1,1,.308-.951c2.514.815,4.066,2.117,4.612,3.868a.956.956,0,0,1,.029.12l1.784,10.465a.5.5,0,0,1-.493.584Z" transform="translate(3.956 3.016)" fill="#333"/>
      <path id="패스_53814" data-name="패스 53814" d="M48.993,374.907A.5.5,0,0,1,48.7,374a13.95,13.95,0,0,1,8.184-2.239.577.577,0,0,1,.086,0,.5.5,0,0,1-.075,1h-.035a13.113,13.113,0,0,0-7.575,2.05A.5.5,0,0,1,48.993,374.907Z" transform="translate(1.032 2.86)" fill="#333"/>
      <path id="패스_53815" data-name="패스 53815" d="M63.706,371.287a9.7,9.7,0,0,1,3.584.593.5.5,0,0,1,.163.113c.38.4.152,1.06-.089,1.594a9.1,9.1,0,0,1-.436.834l-8.413,16.315-.013.024a3.083,3.083,0,0,1-2.466,1.593H48.785c-3.152,0-4.461-1.255-4.679-1.491a4,4,0,0,1-.619-4.6l.006-.011a28.387,28.387,0,0,1,4.414-5.2,45.572,45.572,0,0,1,5.96-4.826,53.779,53.779,0,0,1,8.888-4.874.5.5,0,0,1,.169-.04C63.185,371.295,63.448,371.287,63.706,371.287Zm2.925,1.418a9.7,9.7,0,0,0-2.925-.418c-.209,0-.422.006-.634.017a49.029,49.029,0,0,0-14.438,9.436,28.282,28.282,0,0,0-4.28,5.026,3,3,0,0,0,.435,3.367.374.374,0,0,1,.052.053c.052.057,1.113,1.168,3.943,1.168h7.238a2.093,2.093,0,0,0,1.61-1.088l8.414-16.317.016-.029A5.819,5.819,0,0,0,66.632,372.7Z" transform="translate(0 2.772)" fill="#333"/>
      <path id="패스_53816" data-name="패스 53816" d="M57.836,382.581H50.789a.5.5,0,0,1,0-1h7.048a.5.5,0,0,1,0,1Z" transform="translate(1.372 4.719)" fill="#333"/>
      <path id="패스_53817" data-name="패스 53817" d="M58.774,382.863a.5.5,0,0,1-.2-.044,2.706,2.706,0,0,0-1.114-.238h-.741a.5.5,0,0,1,0-1h.741a3.7,3.7,0,0,1,1.523.326.5.5,0,0,1-.2.956Z" transform="translate(2.493 4.719)" fill="#333"/>
    </g>
  </g>
</svg>
