<svg xmlns="http://www.w3.org/2000/svg" width="44" height="44" viewBox="0 0 44 44">
  <g id="icon_bedsore" transform="translate(-51.24 -697.24)">
    <rect id="사각형_10579" data-name="사각형 10579" width="44" height="44" transform="translate(51.24 697.24)" fill="none"/>
    <g id="그룹_33501" data-name="그룹 33501" transform="translate(-247.775 114.608)">
      <path id="패스_53720" data-name="패스 53720" d="M307.824,606.889a2.939,2.939,0,0,1-.912-.138,1.745,1.745,0,0,1-1.206-1.151,1.89,1.89,0,0,1,.826-1.963.5.5,0,1,1,.616.787c-.37.29-.553.638-.478.91a.8.8,0,0,0,.553.466,2.324,2.324,0,0,0,1.3-.008,2.115,2.115,0,0,0,1.269-.864.642.642,0,0,0,.088-.475.871.871,0,0,0-.71-.51.5.5,0,1,1,.216-.976,1.806,1.806,0,0,1,1.458,1.221,1.6,1.6,0,0,1-.182,1.234,3.091,3.091,0,0,1-1.873,1.334A3.638,3.638,0,0,1,307.824,606.889Z" transform="translate(0.303 0.344)" fill="#333"/>
      <path id="선_962" data-name="선 962" d="M18.5.5H0A.5.5,0,0,1-.5,0,.5.5,0,0,1,0-.5H18.5A.5.5,0,0,1,19,0,.5.5,0,0,1,18.5.5Z" transform="translate(300.481 611.78)" fill="#333"/>
      <path id="패스_53721" data-name="패스 53721" d="M330.767,613.718a27.7,27.7,0,0,1-4.7-.416c-2.767-.479-5.288-1.333-6.132-2.075a7.858,7.858,0,0,0-3.213-1.465l-.01,0c-.244-.051-.489-.1-.734-.151-.272-.055-.553-.112-.83-.171a2.5,2.5,0,0,0-1.931.319c-.672.422-1.28.8-1.919,1.16a6.863,6.863,0,0,1-9.091-2,7.383,7.383,0,0,1-1.252-4.5,6.9,6.9,0,0,1,1.892-4.507,6.42,6.42,0,0,1,4.406-2.043,3.778,3.778,0,0,0,2.307-.788,1.926,1.926,0,0,1,1.6-.525,1.971,1.971,0,0,1,1.151,1.274.358.358,0,0,0,.136.086c.309.078.626.13.962.185.174.028.354.058.533.091a2.458,2.458,0,0,1,2.073,2.437c.006.309.007.616.006.925l4.217-.051c.968-.623,7.016-4.4,11.446-4.475,1.4-.024,5.128-.08,9.559-.07a.5.5,0,0,1,0,1h0c-4.422-.01-8.145.045-9.54.069-4.44.079-10.973,4.347-11.038,4.391a.5.5,0,0,1-.269.082l-4.871.059a.5.5,0,0,1-.506-.5c0-.476.007-.942,0-1.407a1.472,1.472,0,0,0-1.257-1.475c-.167-.031-.341-.06-.51-.087-.342-.056-.695-.113-1.045-.2a1.241,1.241,0,0,1-.81-.661c-.237-.579-.421-.684-.489-.7s-.26-.016-.728.348a4.781,4.781,0,0,1-2.88,1,5.712,5.712,0,0,0-5.34,5.585,5.924,5.924,0,0,0,3.725,5.991,5.789,5.789,0,0,0,5.128-.4c.62-.349,1.217-.721,1.878-1.136a3.505,3.505,0,0,1,2.669-.45c.274.058.552.115.822.169.246.05.492.1.737.151a8.783,8.783,0,0,1,3.683,1.7,15.108,15.108,0,0,0,5.642,1.84,22.488,22.488,0,0,0,9.346-.172c2.334-.624,4.087-1.066,5.517-1.391a.5.5,0,1,1,.222.975c-1.417.322-3.159.761-5.481,1.382A19.842,19.842,0,0,1,330.767,613.718Z" transform="translate(0.052)" fill="#333"/>
      <circle id="타원_1295" data-name="타원 1295" cx="2.709" cy="2.709" r="2.709" transform="translate(305.544 608.47)" fill="#7e4f40" opacity="0.7"/>
      <ellipse id="타원_1296" data-name="타원 1296" cx="8.668" cy="2.709" rx="8.668" ry="2.709" transform="translate(322.607 609.467)" fill="#7e4f40" opacity="0.7"/>
      <path id="패스_53722" data-name="패스 53722" d="M332.887,620.015h-.011a.5.5,0,0,1-.489-.511l.036-1.673-.757.272a.5.5,0,0,1-.661-.562l.4-2.168a.5.5,0,1,1,.983.182l-.243,1.312.622-.224a.5.5,0,0,1,.669.481l-.052,2.4A.5.5,0,0,1,332.887,620.015Z" transform="translate(1.657 0.986)" fill="#7e4f40"/>
      <path id="패스_53723" data-name="패스 53723" d="M338.541,618.829a.5.5,0,0,1-.5-.436l-.259-2.006-.607.585a.5.5,0,0,1-.825-.214l-.551-1.81a.5.5,0,1,1,.957-.291l.314,1.03.735-.708a.5.5,0,0,1,.843.3l.386,2.992a.5.5,0,0,1-.5.564Z" transform="translate(1.913 0.95)" fill="#7e4f40"/>
      <path id="패스_53724" data-name="패스 53724" d="M324.451,620.787a.5.5,0,0,1-.484-.626l.7-2.7a.5.5,0,0,1,.742-.3l.525.316.329-2.044a.5.5,0,0,1,.987.159l-.447,2.775a.5.5,0,0,1-.752.349l-.585-.352-.532,2.053A.5.5,0,0,1,324.451,620.787Z" transform="translate(1.281 0.988)" fill="#7e4f40"/>
    </g>
  </g>
</svg>
