<svg xmlns="http://www.w3.org/2000/svg" width="44" height="44" viewBox="0 0 44 44">
  <g id="icon_urineline" transform="translate(-51.24 -697.24)">
    <rect id="사각형_10579" data-name="사각형 10579" width="44" height="44" transform="translate(51.24 697.24)" fill="none"/>
    <g id="그룹_33476" data-name="그룹 33476" transform="translate(-248.104 -28.438)">
      <g id="그룹_33472" data-name="그룹 33472" transform="translate(316.935 728.242)">
        <path id="패스_53625" data-name="패스 53625" d="M317.2,733.163h-.252a.718.718,0,0,1-.717-.717v-2.131a.711.711,0,0,1,.163-.454l.361-.524V728.29a.616.616,0,0,1,.615-.616h.7a.616.616,0,0,1,.615.616v1.047l.361.524a.711.711,0,0,1,.163.454v.414a.5.5,0,0,1-1,0v-.32l-.37-.537a.126.126,0,1,0-.235,0l-.37.537v1.755a.5.5,0,0,1-.031,1Z" transform="translate(-316.729 -728.174)" fill="#333"/>
        <path id="선_936" data-name="선 936" d="M0,1.29A.5.5,0,0,1-.5.79V0A.5.5,0,0,1,0-.5.5.5,0,0,1,.5,0V.79A.5.5,0,0,1,0,1.29Z" transform="translate(1.975 2.555)" fill="#333"/>
        <path id="패스_53626" data-name="패스 53626" d="M318.435,733.048h-.252a.5.5,0,0,1-.031-1V731.4a.5.5,0,0,1,1,0v.927A.718.718,0,0,1,318.435,733.048Z" transform="translate(-316.677 -728.059)" fill="#333"/>
      </g>
      <g id="그룹_33473" data-name="그룹 33473" transform="translate(322.738 728.242)">
        <path id="패스_53627" data-name="패스 53627" d="M322.8,733.163h-.251a.718.718,0,0,1-.717-.717v-2.131a.711.711,0,0,1,.163-.453l.36-.524V728.29a.617.617,0,0,1,.616-.616h.7a.617.617,0,0,1,.616.616v1.049l.36.522a.71.71,0,0,1,.163.454v.414a.5.5,0,0,1-1,0v-.32l-.372-.54a.125.125,0,1,0-.232,0l-.369.537v1.755a.5.5,0,0,1-.032,1Z" transform="translate(-322.333 -728.174)" fill="#333"/>
        <path id="선_937" data-name="선 937" d="M0,1.29A.5.5,0,0,1-.5.79V0A.5.5,0,0,1,0-.5.5.5,0,0,1,.5,0V.79A.5.5,0,0,1,0,1.29Z" transform="translate(1.974 2.555)" fill="#333"/>
        <path id="패스_53628" data-name="패스 53628" d="M324.038,733.048h-.251a.5.5,0,0,1-.032-1V731.4a.5.5,0,0,1,1,0v.927A.718.718,0,0,1,324.038,733.048Z" transform="translate(-322.281 -728.059)" fill="#333"/>
      </g>
      <g id="그룹_33474" data-name="그룹 33474" transform="translate(312.746 741.355)">
        <path id="패스_53629" data-name="패스 53629" d="M317.774,765.223a.5.5,0,0,1-.171-.03,8.292,8.292,0,0,1-5.4-7.221,3.311,3.311,0,0,1-.024-.376V748a3.174,3.174,0,0,1,3.139-3.2h1.886v-3.962a.5.5,0,0,1,1,0V745.3a.5.5,0,0,1-.5.5h-2.386a2.173,2.173,0,0,0-2.139,2.2V757.6a2.381,2.381,0,0,0,.018.273c0,.007,0,.015,0,.022a7.291,7.291,0,0,0,4.74,6.362.5.5,0,0,1-.171.97Z" transform="translate(-312.684 -740.837)" fill="#333"/>
        <path id="패스_53630" data-name="패스 53630" d="M327.059,762.513a.5.5,0,0,1-.4-.794,7.369,7.369,0,0,0,1.395-3.828c0-.009,0-.018,0-.026a2.179,2.179,0,0,0,.019-.269V748a2.173,2.173,0,0,0-2.139-2.2h-2.294a.5.5,0,0,1-.5-.5v-4.462a.5.5,0,0,1,1,0V744.8h1.794a3.174,3.174,0,0,1,3.139,3.2V757.6a3.109,3.109,0,0,1-.025.378,8.368,8.368,0,0,1-1.583,4.334A.5.5,0,0,1,327.059,762.513Z" transform="translate(-312.295 -740.837)" fill="#333"/>
        <path id="패스_53631" data-name="패스 53631" d="M323.581,764.429a.5.5,0,0,1-.178-.968,7.191,7.191,0,0,0,2.542-1.662.5.5,0,0,1,.711.7,8.2,8.2,0,0,1-2.9,1.894A.5.5,0,0,1,323.581,764.429Z" transform="translate(-312.297 -740.079)" fill="#333"/>
        <path id="사각형_10590" data-name="사각형 10590" d="M.693-.5H.742A1.2,1.2,0,0,1,1.936.693V4.7A1.2,1.2,0,0,1,.742,5.891H.693A1.2,1.2,0,0,1-.5,4.7V.693A1.2,1.2,0,0,1,.693-.5ZM.742,4.891A.193.193,0,0,0,.936,4.7V.693A.193.193,0,0,0,.742.5H.693A.193.193,0,0,0,.5.693V4.7a.193.193,0,0,0,.193.193Z" transform="translate(7.42 22.285)" fill="#333"/>
        <path id="패스_53632" data-name="패스 53632" d="M326.106,754.387v1.479h0v.159a2.094,2.094,0,0,1-.014.229,5.217,5.217,0,0,1-5.022,5.021h-.683a5.217,5.217,0,0,1-5.022-5.021,2.079,2.079,0,0,1-.014-.229v-1.638Z" transform="translate(-312.589 -740.355)" fill="#7e4f40" opacity="0.7"/>
        <path id="패스_53633" data-name="패스 53633" d="M319.2,766.27a.5.5,0,0,1-.284-.089,1.957,1.957,0,0,1-.845-1.608V762.74a6.454,6.454,0,0,1-4.408-5.5,2.423,2.423,0,0,1-.02-.3v-7.2a2.592,2.592,0,0,1,2.649-2.526h2.166a2.561,2.561,0,0,1,.763-.784.5.5,0,1,1,.552.834,1.558,1.558,0,0,0-.561.656.5.5,0,0,1-.455.294h-2.465a1.593,1.593,0,0,0-1.649,1.526v7.2a1.453,1.453,0,0,0,.014.184c0,.008,0,.017,0,.025a5.474,5.474,0,0,0,4.048,4.742.5.5,0,0,1,.364.481v2.2a.957.957,0,0,0,.414.786.5.5,0,0,1-.285.911Z" transform="translate(-312.632 -740.623)" fill="#333"/>
        <path id="패스_53634" data-name="패스 53634" d="M322.054,766.281a.5.5,0,0,1-.281-.914.961.961,0,0,0,.425-.794v-2.2a.5.5,0,0,1,.364-.481,5.474,5.474,0,0,0,4.048-4.742c0-.009,0-.017,0-.026a1.453,1.453,0,0,0,.014-.184v-7.2a1.593,1.593,0,0,0-1.649-1.526h-2.465a.5.5,0,0,1-.455-.293,1.559,1.559,0,0,0-.561-.655.5.5,0,0,1,.551-.834,2.563,2.563,0,0,1,.763.783h2.166a2.592,2.592,0,0,1,2.649,2.526v7.2a2.412,2.412,0,0,1-.02.3,6.454,6.454,0,0,1-4.408,5.5v1.834a1.96,1.96,0,0,1-.863,1.621A.5.5,0,0,1,322.054,766.281Z" transform="translate(-312.361 -740.623)" fill="#333"/>
        <path id="선_938" data-name="선 938" d="M1.818.5H0A.5.5,0,0,1-.5,0,.5.5,0,0,1,0-.5H1.818a.5.5,0,0,1,.5.5A.5.5,0,0,1,1.818.5Z" transform="translate(9.767 9.624)" fill="#7e4f40"/>
        <path id="선_939" data-name="선 939" d="M1.818.5H0A.5.5,0,0,1-.5,0,.5.5,0,0,1,0-.5H1.818a.5.5,0,0,1,.5.5A.5.5,0,0,1,1.818.5Z" transform="translate(9.767 11.976)" fill="#7e4f40"/>
        <path id="선_940" data-name="선 940" d="M1.818.5H0A.5.5,0,0,1-.5,0,.5.5,0,0,1,0-.5H1.818a.5.5,0,0,1,.5.5A.5.5,0,0,1,1.818.5Z" transform="translate(9.767 14.328)" fill="#7e4f40"/>
        <path id="패스_53635" data-name="패스 53635" d="M322.942,746.926h-4.289a1.111,1.111,0,1,1,0-2.213h4.289a.867.867,0,0,1,.895.833v.546A.867.867,0,0,1,322.942,746.926Zm-4.289-1.213a.225.225,0,0,0-.218.106c0,.027.077.107.218.107h4.184v-.213Z" transform="translate(-312.497 -740.681)" fill="#333"/>
      </g>
      <g id="그룹_33475" data-name="그룹 33475" transform="translate(314.883 734.076)">
        <path id="패스_53636" data-name="패스 53636" d="M319.478,745.541a.5.5,0,0,1-.457-.3l-.8-1.813a.5.5,0,0,1-.043-.2v-2.55c-2.3-.525-3.925-2.2-3.925-4.116v-2.753a.5.5,0,0,1,.5-.5h12a.5.5,0,0,1,.5.5v2.753c0,1.912-1.627,3.591-3.925,4.116v2.55a.5.5,0,0,1-.05.218l-.868,1.789a.5.5,0,0,1-.9-.436l.818-1.686v-2.847a.5.5,0,0,1,.42-.494c2.031-.328,3.5-1.678,3.5-3.211v-2.253h-11v2.253c0,1.533,1.474,2.883,3.5,3.211a.5.5,0,0,1,.42.494v2.856l.762,1.716a.5.5,0,0,1-.457.7Z" transform="translate(-314.748 -733.808)" fill="#333"/>
        <path id="선_945" data-name="선 945" d="M1.212.5H0A.5.5,0,0,1-.5,0,.5.5,0,0,1,0-.5H1.212a.5.5,0,0,1,.5.5A.5.5,0,0,1,1.212.5Z" transform="translate(7.63 2.019)" fill="#7e4f40"/>
        <path id="선_946" data-name="선 946" d="M1.212.5H0A.5.5,0,0,1-.5,0,.5.5,0,0,1,0-.5H1.212a.5.5,0,0,1,.5.5A.5.5,0,0,1,1.212.5Z" transform="translate(7.63 3.671)" fill="#7e4f40"/>
      </g>
      <path id="선_948" data-name="선 948" d="M6.605.5H0A.5.5,0,0,1-.5,0,.5.5,0,0,1,0-.5H6.605a.5.5,0,0,1,.5.5A.5.5,0,0,1,6.605.5Z" transform="translate(325.13 728.915)" fill="#333"/>
      <path id="선_949" data-name="선 949" d="M2.938.5H0A.5.5,0,0,1-.5,0,.5.5,0,0,1,0-.5H2.938a.5.5,0,0,1,.5.5A.5.5,0,0,1,2.938.5Z" transform="translate(319.35 728.915)" fill="#333"/>
      <path id="선_950" data-name="선 950" d="M5.6.5H0A.5.5,0,0,1-.5,0,.5.5,0,0,1,0-.5H5.6a.5.5,0,0,1,.5.5A.5.5,0,0,1,5.6.5Z" transform="translate(310.943 728.915)" fill="#333"/>
      <path id="패스_53637" data-name="패스 53637" d="M329.473,736.474a1.983,1.983,0,0,1-.427-.047,2.558,2.558,0,0,1-1.831-1.815,3.423,3.423,0,0,1,1.118-3.381l.033-.03a3.731,3.731,0,0,1,2.285-.8,6.414,6.414,0,0,0-.438-1.2,4.182,4.182,0,0,0-4.263-2.443,5.074,5.074,0,0,0-3.743,1.6,6.012,6.012,0,0,0-1.229,4.026.5.5,0,0,1-1,.09,6.975,6.975,0,0,1,1.469-4.771,6.03,6.03,0,0,1,4.447-1.939,5.485,5.485,0,0,1,3.29.785,5.334,5.334,0,0,1,1.923,2.218,7.619,7.619,0,0,1,.62,1.9,5.128,5.128,0,0,1,2.337,3.25.5.5,0,1,1-.95.313,5.588,5.588,0,0,0-1.235-2.239,5.807,5.807,0,0,1-.917,3.767A1.963,1.963,0,0,1,329.473,736.474Zm-.458-4.512a2.423,2.423,0,0,0-.84,2.372,1.57,1.57,0,0,0,1.086,1.116.936.936,0,0,0,.95-.345,5.449,5.449,0,0,0,.63-3.678A2.618,2.618,0,0,0,329.016,731.962Z" transform="translate(0.339)" fill="#7e4f40"/>
      <path id="사각형_10591" data-name="사각형 10591" d="M.65-.5H9.891A1.151,1.151,0,0,1,11.04.65V.7a1.151,1.151,0,0,1-1.15,1.15H.65A1.151,1.151,0,0,1-.5.7V.65A1.151,1.151,0,0,1,.65-.5ZM9.891.846A.15.15,0,0,0,10.04.7V.65A.15.15,0,0,0,9.891.5H.65A.15.15,0,0,0,.5.65V.7a.15.15,0,0,0,.15.15Z" transform="translate(315.614 732.731)" fill="#333"/>
    </g>
  </g>
</svg>
