<svg xmlns="http://www.w3.org/2000/svg" width="80" height="80" viewBox="0 0 80 80">
    <g data-name="그룹 35507" transform="translate(-64.046 -87.397)">
        <rect data-name="사각형 12480" width="62" height="41" rx="3" transform="translate(76.045 105.396)" style="fill:#fff"/>
        <path data-name="패스 58674" d="M75.573 126.052v22.029a5.579 5.579 0 0 0 5.773 5.362h29.319a10.471 10.471 0 0 1-1.392 6.523 1.347 1.347 0 0 0 1.5 1.9 21.154 21.154 0 0 0 13.917-8.422h6.91a5.578 5.578 0 0 0 5.772-5.362v-5.156" transform="translate(.825 -2.075)" style="stroke-linecap:round;stroke-linejoin:round;stroke-width:2.5px;stroke:#333;fill:#fff"/>
        <path data-name="패스 58675" d="M141.111 136.349v-26.865a5.54 5.54 0 0 0-5.707-5.357h-31.558" transform="translate(-2.914 .767)" style="stroke-linecap:round;stroke-linejoin:round;stroke-width:2.5px;stroke:#333;fill:#fff"/>
        <path data-name="선 1753" transform="translate(107.588 118.933)" style="stroke:rgba(126,79,64,.7);stroke-linecap:round;stroke-linejoin:round;stroke-width:2.5px;fill:#fff" d="M0 0h21.484"/>
        <path data-name="선 1754" transform="translate(95.515 129.074)" style="stroke:rgba(126,79,64,.7);stroke-linecap:round;stroke-linejoin:round;stroke-width:2.5px;fill:#fff" d="M0 0h33.557"/>
        <path data-name="선 1755" transform="translate(90.184 139.215)" style="stroke:rgba(126,79,64,.7);stroke-linecap:round;stroke-linejoin:round;stroke-width:2.5px;fill:#fff" d="M0 0h38.888"/>
        <path data-name="선 1756" transform="translate(83.892 139.215)" style="stroke:rgba(126,79,64,.7);stroke-linecap:round;stroke-linejoin:round;stroke-width:2.5px;fill:#fff" d="M0 0h2.388"/>
        <g data-name="그룹 35593">
            <path data-name="패스 58782" d="M3056.68 200.369h21.762v-10.607a10.573 10.573 0 0 0-6.777-9.873 10.705 10.705 0 0 0-11.531 2.1 11.419 11.419 0 0 0-3.454 7.338c-.123 4.32 0 11.042 0 11.042z" transform="translate(-2980.443 -81.648)" style="fill:#7e4f40;opacity:.7"/>
            <path data-name="패스 58778" d="M81.718 181.805h-2.556v-7.287" transform="translate(-6.514 -63.849)" style="fill:none;stroke-linecap:round;stroke-linejoin:round;stroke-width:2.5px;stroke:#333"/>
            <path data-name="패스 58779" d="M100.2 164.174a11.439 11.439 0 0 1 2.023 6.513v11.444H85.45" transform="translate(-6.315 -64.176)" style="fill:none;stroke-linecap:round;stroke-linejoin:round;stroke-width:2.5px;stroke:#333"/>
            <path data-name="패스 58780" d="M79.162 175.186v-4.076a11.765 11.765 0 0 1 11.765-11.765h0a11.44 11.44 0 0 1 6.652 2.12" transform="translate(-6.514 -64.328)" style="fill:none;stroke-linecap:round;stroke-linejoin:round;stroke-width:2.5px;stroke:#333"/>
            <path data-name="선 1757" transform="translate(79.346 117.956)" style="fill:none;stroke-linecap:round;stroke-linejoin:round;stroke-width:2.5px;stroke:#333" d="M0 0h19.881"/>
            <path data-name="선 1758" transform="translate(69.701 117.956)" style="fill:none;stroke-linecap:round;stroke-linejoin:round;stroke-width:2.5px;stroke:#333" d="M0 0h5.715"/>
            <path data-name="패스 58781" d="M87.714 182.536a2.994 2.994 0 1 0 5.988 0" transform="translate(-6.244 -63.596)" style="fill:none;stroke-linecap:round;stroke-linejoin:round;stroke-width:2.5px;stroke:#333"/>
        </g>
    </g>
    <path data-name="사각형 12137" style="fill:none" d="M0 0h80v80H0z"/>
</svg>
