<svg xmlns="http://www.w3.org/2000/svg" width="44" height="44" viewBox="0 0 44 44">
  <g id="icon_diaper" transform="translate(-51.24 -697.24)">
    <rect id="사각형_10579" data-name="사각형 10579" width="44" height="44" transform="translate(51.24 697.24)" fill="none"/>
    <g id="그룹_33471" data-name="그룹 33471" transform="translate(-181.416 -26.249)">
      <rect id="사각형_10588" data-name="사각형 10588" width="3.902" height="1.87" rx="0.354" transform="translate(247.176 740.558)" fill="#7e4f40" opacity="0.7"/>
      <path id="패스_53615" data-name="패스 53615" d="M260.777,742.429h-.489a.356.356,0,0,1-.354-.355v-1.161a.356.356,0,0,1,.354-.355h3.194a.356.356,0,0,1,.354.355v1.161a.356.356,0,0,1-.354.355h-2.7" fill="#7e4f40" opacity="0.7"/>
      <path id="패스_53616" data-name="패스 53616" d="M255.774,759.672H253.6a14.658,14.658,0,0,1-14.616-14.617v-1.76a.5.5,0,0,1,1,0v1.76A13.632,13.632,0,0,0,253.6,758.672h2.172a13.515,13.515,0,0,0,9.615-4,.5.5,0,1,1,.707.707A14.508,14.508,0,0,1,255.774,759.672Z" fill="#333"/>
      <path id="패스_53617" data-name="패스 53617" d="M269.89,739.049a.5.5,0,0,1-.5-.5v-1.56h-29.4v1.56a.5.5,0,0,1-1,0v-2.06a.5.5,0,0,1,.5-.5h30.4a.5.5,0,0,1,.5.5v2.06A.5.5,0,0,1,269.89,739.049Z" fill="#333"/>
      <path id="패스_53618" data-name="패스 53618" d="M267.789,752.943a.5.5,0,0,1-.425-.763,13.541,13.541,0,0,0,2.026-7.125v-1.76a.5.5,0,0,1,1,0v1.76a14.541,14.541,0,0,1-2.176,7.651A.5.5,0,0,1,267.789,752.943Z" fill="#333"/>
      <path id="패스_53619" data-name="패스 53619" d="M248.452,743.795h-8.859a1.438,1.438,0,0,1-1.436-1.436v-2.874a1.438,1.438,0,0,1,1.436-1.436h8.859a1.437,1.437,0,0,1,1.435,1.436v.5a.5.5,0,0,1-1,0v-.5a.436.436,0,0,0-.435-.436h-8.859a.436.436,0,0,0-.436.436v2.874a.436.436,0,0,0,.436.436h8.859a.436.436,0,0,0,.435-.436v-.5a.5.5,0,0,1,1,0v.5A1.437,1.437,0,0,1,248.452,743.795Z" fill="#333"/>
      <path id="패스_53620" data-name="패스 53620" d="M269.849,743.795a.5.5,0,0,1,0-1,.439.439,0,0,0,.438-.439v-2.868a.439.439,0,0,0-.438-.439h-8.922a.439.439,0,0,0-.439.439v.5a.5.5,0,0,1-1,0v-.5a1.441,1.441,0,0,1,1.439-1.439h8.922a1.44,1.44,0,0,1,1.438,1.439v2.868A1.44,1.44,0,0,1,269.849,743.795Z" fill="#333"/>
      <path id="패스_53621" data-name="패스 53621" d="M269.849,743.795h-8.922a1.441,1.441,0,0,1-1.439-1.439v-.5a.5.5,0,0,1,1,0v.5a.445.445,0,0,0,.439.439h8.922a.5.5,0,0,1,0,1Z" fill="#333"/>
      <path id="선_932" data-name="선 932" d="M0,13.774a.5.5,0,0,1-.5-.5V0A.5.5,0,0,1,0-.5.5.5,0,0,1,.5,0V13.274A.5.5,0,0,1,0,13.774Z" transform="translate(260.702 744.847)" fill="#333"/>
      <path id="선_933" data-name="선 933" d="M0,1.63a.5.5,0,0,1-.5-.5V0A.5.5,0,0,1,0-.5.5.5,0,0,1,.5,0V1.13A.5.5,0,0,1,0,1.63Z" transform="translate(260.702 736.489)" fill="#333"/>
      <path id="사각형_10589" data-name="사각형 10589" d="M.354-.5H3.548A.855.855,0,0,1,4.4.354V1.516a.855.855,0,0,1-.854.854H.354A.855.855,0,0,1-.5,1.516V.354A.855.855,0,0,1,.354-.5ZM3.4.5H.5v.87H3.4Z" transform="translate(246.388 739.987)" fill="#333"/>
      <path id="패스_53622" data-name="패스 53622" d="M262.693,742.357H259.5a.855.855,0,0,1-.854-.854v-1.162a.855.855,0,0,1,.854-.854h3.194a.855.855,0,0,1,.855.854V741.5A.855.855,0,0,1,262.693,742.357Zm-3.048-1h2.9v-.87h-2.9Z" fill="#333"/>
      <path id="선_934" data-name="선 934" d="M0,1.63a.5.5,0,0,1-.5-.5V0A.5.5,0,0,1,0-.5.5.5,0,0,1,.5,0V1.13A.5.5,0,0,1,0,1.63Z" transform="translate(248.733 736.489)" fill="#333"/>
      <path id="선_935" data-name="선 935" d="M0,13.774a.5.5,0,0,1-.5-.5V0A.5.5,0,0,1,0-.5.5.5,0,0,1,.5,0V13.274A.5.5,0,0,1,0,13.774Z" transform="translate(248.733 744.847)" fill="#333"/>
      <path id="패스_53623" data-name="패스 53623" d="M247.605,753.414a.5.5,0,0,1-.471-.333,6.772,6.772,0,0,0-4.353-4.452,7.624,7.624,0,0,0-2.968-.362.5.5,0,0,1-.124-.992,8.49,8.49,0,0,1,3.364.391,7.787,7.787,0,0,1,5.024,5.081.5.5,0,0,1-.471.667Z" fill="#333"/>
      <path id="패스_53624" data-name="패스 53624" d="M262,752.942a.5.5,0,0,1-.463-.688,7.619,7.619,0,0,1,4.9-4.634,8.189,8.189,0,0,1,3.164-.344.5.5,0,0,1-.126.992,7.324,7.324,0,0,0-2.779.319,6.594,6.594,0,0,0-4.232,4.044A.5.5,0,0,1,262,752.942Z" fill="#333"/>
    </g>
  </g>
</svg>
