<svg xmlns="http://www.w3.org/2000/svg" width="44" height="44" viewBox="0 0 44 44">
  <g id="icon_walk-help" transform="translate(-51.24 -697.24)">
    <rect id="사각형_10579" data-name="사각형 10579" width="44" height="44" transform="translate(51.24 697.24)" fill="none"/>
    <g id="그룹_33494" data-name="그룹 33494" transform="translate(-185.178 112.002)">
      <path id="타원_1290" data-name="타원 1290" d="M2.673-.5A3.173,3.173,0,1,1-.5,2.673,3.176,3.176,0,0,1,2.673-.5Zm0,5.345A2.173,2.173,0,1,0,.5,2.673,2.175,2.175,0,0,0,2.673,4.845Z" transform="translate(249.853 587.396)" fill="#333"/>
      <path id="패스_53684" data-name="패스 53684" d="M262.326,603.766a2.2,2.2,0,0,1-.425-.042,2.158,2.158,0,0,1-1.385-.922.5.5,0,0,1,.831-.556,1.173,1.173,0,0,0,1.627.321,1.176,1.176,0,0,0,.322-1.629l-.971-1.447h0l-.016-.017c-.017-.019-.034-.039-.051-.059s-.018-.024-.027-.036a1.165,1.165,0,0,0-.76-.5l-5.622-1.048a.5.5,0,0,1-.324-.213l-2.091-3.119a1.173,1.173,0,1,0-1.949,1.307l1.192,1.779a.5.5,0,1,1-.831.557l-1.192-1.779a2.173,2.173,0,0,1,3.61-2.421l1.974,2.944,5.416,1.009a2.156,2.156,0,0,1,1.391.905l.008.009a1.069,1.069,0,0,1,.1.129l.97,1.445a2.174,2.174,0,0,1-1.8,3.385Z" transform="translate(2.263 1.415)" fill="#333"/>
      <path id="패스_53685" data-name="패스 53685" d="M252.016,609.155a.5.5,0,0,1-.361-.154,3.631,3.631,0,0,1-.918-3.319.5.5,0,0,1,.975.223,2.645,2.645,0,0,0,.026,1.273,2.6,2.6,0,0,0,.639,1.13.5.5,0,0,1-.361.846Z" transform="translate(2.347 4.281)" fill="#333"/>
      <path id="패스_53686" data-name="패스 53686" d="M251.493,620.755a.5.5,0,0,1-.179-.033,9.991,9.991,0,0,1-5.346-13.794.5.5,0,1,1,.894.449,8.886,8.886,0,0,0-.949,4.022,9.042,9.042,0,0,0,5.761,8.389.5.5,0,0,1-.18.967Z" transform="translate(1.013 4.598)" fill="#333"/>
      <path id="패스_53687" data-name="패스 53687" d="M253.165,619.412c-.217,0-.443-.007-.669-.022a.5.5,0,1,1,.064-1c.205.013.409.02.605.02A8.986,8.986,0,0,0,259,616.255a.5.5,0,1,1,.65.76A9.987,9.987,0,0,1,253.165,619.412Z" transform="translate(2.669 6.804)" fill="#333"/>
      <path id="패스_53689" data-name="패스 53689" d="M249.46,603.773a.5.5,0,0,1-.482-.369l-.152-.561a.5.5,0,1,1,.965-.262l.03.11,5.613-1.129a.5.5,0,1,1,.2.98l-6.071,1.221A.5.5,0,0,1,249.46,603.773Z" transform="translate(1.919 3.411)" fill="#333"/>
      <path id="패스_53690" data-name="패스 53690" d="M253.3,606.044a.5.5,0,0,1-.1-.99l5.306-1.068a.389.389,0,0,0,.224-.134.5.5,0,1,1,.775.632,1.391,1.391,0,0,1-.8.482l-5.306,1.068A.5.5,0,0,1,253.3,606.044Z" transform="translate(2.849 3.903)" fill="#333"/>
      <path id="패스_53691" data-name="패스 53691" d="M248.153,607c-.041,0-.081,0-.121-.006a1.6,1.6,0,0,1-1.432-1.171.5.5,0,0,1,.965-.262.6.6,0,0,0,.542.436c.015,0,.029,0,.046,0h.021l.035,0,.045,0,.066-.013.027-.006,3.7-.745a.5.5,0,1,1,.2.98l-3.687.741-.036.008-.1.02-.015,0a.706.706,0,0,1-.073.008A1.34,1.34,0,0,1,248.153,607Z" transform="translate(1.401 4.257)" fill="#333"/>
      <path id="패스_53692" data-name="패스 53692" d="M247.037,606.331a.5.5,0,0,1-.482-.369l-2.022-7.446a1.6,1.6,0,0,1,1.125-1.963l1.4-.38a1.6,1.6,0,0,1,1.964,1.126l.753,2.772a.5.5,0,0,1-.965.262l-.753-2.772a.6.6,0,0,0-.736-.423l-1.4.38a.6.6,0,0,0-.423.737l2.022,7.445a.5.5,0,0,1-.483.631Z" transform="translate(0.911 2.146)" fill="#333"/>
      <path id="패스_53694" data-name="패스 53694" d="M262.06,616.471a.5.5,0,0,1-.495-.432l-1.572-11.4a.211.211,0,0,0-.043-.1l-.005-.006-.026-.028-.014-.013-.015-.011-.022-.017-2.568-1.483a.5.5,0,1,1,.5-.866l2.573,1.485a.981.981,0,0,1,.128.089.491.491,0,0,1,.044.034c.025.022.052.046.081.075s.056.057.09.1l.011.013a1.218,1.218,0,0,1,.256.589l1.572,11.4a.5.5,0,0,1-.5.568Z" transform="translate(3.838 3.527)" fill="#333"/>
      <path id="패스_53695" data-name="패스 53695" d="M261.632,616.936a.5.5,0,0,1-.495-.432l-1.493-10.822-6.6-3.812a.5.5,0,1,1,.5-.866l6.814,3.934a.5.5,0,0,1,.245.365l1.526,11.065a.5.5,0,0,1-.427.564A.508.508,0,0,1,261.632,616.936Z" transform="translate(2.847 3.268)" fill="#333"/>
      <path id="패스_53696" data-name="패스 53696" d="M249.243,602.37a1.217,1.217,0,0,1-.239-2.41.5.5,0,0,1,.2.98.219.219,0,0,0-.17.256.22.22,0,0,0,.256.169l1.679-.338a.5.5,0,1,1,.2.98l-1.679.338A1.219,1.219,0,0,1,249.243,602.37Z" transform="translate(1.737 3.038)" fill="#333"/>
      <path id="패스_53697" data-name="패스 53697" d="M256.343,609.992a.5.5,0,0,1-.1-.99l3.018-.608a.405.405,0,0,0,.316-.474l-.045-.225a.4.4,0,0,0-.173-.255.4.4,0,0,0-.3-.06l-3.674.739a.5.5,0,1,1-.2-.98l3.674-.738a1.4,1.4,0,0,1,1.651,1.1l.046.226a1.405,1.405,0,0,1-1.1,1.652l-3.017.608A.5.5,0,0,1,256.343,609.992Z" transform="translate(3.311 4.532)" fill="#333"/>
      <path id="패스_53698" data-name="패스 53698" d="M248.965,611.588a1.407,1.407,0,0,1-1.377-1.124l-.045-.23a1.4,1.4,0,0,1,1.1-1.649l6.474-1.3a.5.5,0,1,1,.2.98l-6.473,1.3a.4.4,0,0,0-.255.173.4.4,0,0,0-.06.3l.045.23a.4.4,0,0,0,.475.312l7.111-1.43a.5.5,0,1,1,.2.98l-7.112,1.43A1.4,1.4,0,0,1,248.965,611.588Z" transform="translate(1.619 4.742)" fill="#333"/>
      <path id="패스_53699" data-name="패스 53699" d="M259.514,604.779a2.622,2.622,0,0,1-1.61-.551l-1.709-1.32h-4.05a2.577,2.577,0,0,1-.91-.167,2.683,2.683,0,0,1-.776-.264.5.5,0,0,1,.464-.886,1.69,1.69,0,0,0,.523.171.5.5,0,0,1,.108.03,1.587,1.587,0,0,0,.591.116h4.221a.5.5,0,0,1,.306.1l1.844,1.424a1.644,1.644,0,0,0,2.009-2.6l-2.146-1.657a.5.5,0,0,1-.058-.052,1.582,1.582,0,0,0-1.067-.492l-.03,0-.026,0-.062-.006H252.92a.5.5,0,0,1-.415-.221l-3.222-4.805a1.645,1.645,0,1,0-2.732,1.832l.56.835a.5.5,0,0,1-.831.557l-.56-.835a2.645,2.645,0,0,1,4.393-2.946l3.074,4.584h3.978a.624.624,0,0,1,.087.006l.074.008h0a2.577,2.577,0,0,1,1.692.773l2.117,1.634a2.644,2.644,0,0,1-1.277,4.716A2.681,2.681,0,0,1,259.514,604.779Z" transform="translate(1.096 1.156)" fill="#333"/>
      <path id="패스_53701" data-name="패스 53701" d="M250.179,601.1a.5.5,0,0,1-.482-.369l-1.4-5.147a.974.974,0,0,0-1.194-.684l-.362.1a.5.5,0,0,1-.263-.965l.362-.1a1.976,1.976,0,0,1,2.421,1.387l1.4,5.147a.5.5,0,0,1-.483.631Z" transform="translate(1.292 1.623)" fill="#333"/>
      <path id="패스_53702" data-name="패스 53702" d="M245,595.542a.5.5,0,0,1-.135-.981l1.029-.29.967-.262a.5.5,0,0,1,.262.965l-.962.261-1.025.289A.5.5,0,0,1,245,595.542Z" transform="translate(0.916 1.651)" fill="#333"/>
      <path id="선_958" data-name="선 958" d="M.841,3.49A.5.5,0,0,1,.36,3.125L-.481.135A.5.5,0,0,1-.135-.481a.5.5,0,0,1,.617.346l.841,2.99a.5.5,0,0,1-.482.636Z" transform="translate(249.885 610.753)" fill="#333"/>
      <path id="선_959" data-name="선 959" d="M.759,3.2a.5.5,0,0,1-.481-.365L-.481.135A.5.5,0,0,1-.135-.481a.5.5,0,0,1,.617.346l.759,2.7A.5.5,0,0,1,.759,3.2Z" transform="translate(251.753 610.685)" fill="#333"/>
      <path id="패스_53703" data-name="패스 53703" d="M242.254,597.183a1.315,1.315,0,0,1-.292-2.6l2.778-.63a1.315,1.315,0,0,1,.583,2.564l-2.778.63A1.306,1.306,0,0,1,242.254,597.183Zm2.777-2.26a.312.312,0,0,0-.069.008l-2.778.63a.315.315,0,0,0,.07.622.309.309,0,0,0,.069-.008l2.778-.63a.314.314,0,0,0,.2-.14.31.31,0,0,0,.041-.236A.317.317,0,0,0,245.031,594.923Z" transform="translate(0.088 1.635)" fill="#333"/>
      <path id="타원_1291" data-name="타원 1291" d="M9.486-.5A9.986,9.986,0,1,1-.5,9.486,10,10,0,0,1,9.486-.5Zm0,18.971A8.986,8.986,0,1,0,.5,9.486,9,9,0,0,0,9.486,18.471Z" transform="translate(241.06 607.75)" fill="#333"/>
      <path id="선_960" data-name="선 960" d="M.266,7.2a.5.5,0,0,1-.5-.48L-.5.02A.5.5,0,0,1-.02-.5.5.5,0,0,1,.5-.02l.266,6.7a.5.5,0,0,1-.48.519Z" transform="translate(253.003 616.637)" fill="#333"/>
      <path id="패스_53706" data-name="패스 53706" d="M268.2,620.425a3.628,3.628,0,0,1-3.515-2.767l-2.227-9.126-.024,0-1.4.379a.5.5,0,0,1-.261-.965l1.425-.386.042-.01a.921.921,0,0,1,1.169.648l2.249,9.219a2.624,2.624,0,1,0,5.1-1.243l-3.1-12.716a2.627,2.627,0,0,0-3.172-1.928l-.077.023-.057.018a.491.491,0,0,1-.079.017,2.812,2.812,0,0,0-.357.068l-5.114,1.387a.5.5,0,1,1-.262-.965l5.117-1.388a3.733,3.733,0,0,1,.443-.087l.009,0c.041-.013.087-.028.139-.041a3.629,3.629,0,0,1,4.383,2.662l3.1,12.715a3.624,3.624,0,0,1-2.663,4.38A3.648,3.648,0,0,1,268.2,620.425Z" transform="translate(4.097 3.156)" fill="#333"/>
      <path id="패스_53707" data-name="패스 53707" d="M262.666,621.061a3.925,3.925,0,0,1-3.312-6.027.5.5,0,1,1,.843.537,2.924,2.924,0,0,0,4.583,3.586.5.5,0,1,1,.723.691A3.892,3.892,0,0,1,262.666,621.061Z" transform="translate(4.231 6.494)" fill="#333"/>
      <path id="패스_53708" data-name="패스 53708" d="M260.868,615.506a1.22,1.22,0,0,1-1.2-1.05l-.1-.744a.5.5,0,0,1,.991-.136l.1.743a.217.217,0,0,0,.43-.059l-.1-.754a.5.5,0,1,1,.991-.136l.1.753a1.217,1.217,0,0,1-1.04,1.371A1.225,1.225,0,0,1,260.868,615.506Z" transform="translate(4.421 6.06)" fill="#333"/>
      <path id="패스_53709" data-name="패스 53709" d="M267.218,620.789a2.668,2.668,0,0,1-2.313-1.331l-3.21-5.562a.5.5,0,1,1,.866-.5l3.21,5.562a1.668,1.668,0,0,0,2.275.609l3.43-1.981a.5.5,0,1,1,.5.866l-3.431,1.981A2.65,2.65,0,0,1,267.218,620.789Z" transform="translate(4.903 6.109)" fill="#333"/>
      <circle id="타원_1292" data-name="타원 1292" cx="4.669" cy="4.669" r="4.669" transform="translate(247.856 609.355)" fill="#7e4f40" opacity="0.7"/>
      <circle id="타원_1293" data-name="타원 1293" cx="4.669" cy="4.669" r="4.669" transform="translate(266.586 618.762)" fill="#7e4f40" opacity="0.7"/>
    </g>
  </g>
</svg>
