<svg xmlns="http://www.w3.org/2000/svg" width="44" height="44" viewBox="0 0 44 44">
  <g id="icon_no-uniform" transform="translate(-48.424 -694.424)">
    <rect id="사각형_10579" data-name="사각형 10579" width="44" height="44" transform="translate(48.424 694.424)" fill="none"/>
    <g id="그룹_33548" data-name="그룹 33548" transform="translate(-193.135 425.308)">
      <path id="패스_53864" data-name="패스 53864" d="M249.305,302.115V287.19s3.014-3.571,6.405-3.732c0,0,.27,5.883,14.642,5.607,0,0,2.745-.331,2.745,3.572v9.479Z" transform="translate(1.148 3.077)" fill="#e2e2e2" opacity="0.7"/>
      <g id="그룹_33547" data-name="그룹 33547" transform="translate(245.372 272.917)">
        <path id="패스_53866" data-name="패스 53866" d="M281.907,303.027a.5.5,0,0,1-.5-.5V297.3a14.771,14.771,0,0,0-14.755-14.753h-6.025A14.771,14.771,0,0,0,245.872,297.3v5.227a.5.5,0,0,1-1,0V297.3a15.56,15.56,0,0,1,1.244-6.118,15.9,15.9,0,0,1,8.393-8.392,15.563,15.563,0,0,1,6.118-1.243h6.025a15.563,15.563,0,0,1,6.118,1.243,15.9,15.9,0,0,1,8.393,8.392,15.56,15.56,0,0,1,1.244,6.118v5.227A.5.5,0,0,1,281.907,303.027Z" transform="translate(-245.372 -270.252)" fill="#333"/>
        <path id="패스_53867" data-name="패스 53867" d="M261.945,289.706a.5.5,0,0,1-.167-.971,8.485,8.485,0,0,0,5.345-5.882.5.5,0,1,1,.97.241,9.431,9.431,0,0,1-5.982,6.583A.5.5,0,0,1,261.945,289.706Z" transform="translate(-240.535 -269.981)" fill="#333"/>
        <path id="패스_53868" data-name="패스 53868" d="M248.113,301.782a.5.5,0,0,1-.5-.5V286.313a.5.5,0,0,1,1,0v14.969A.5.5,0,0,1,248.113,301.782Z" transform="translate(-244.572 -269.007)" fill="#333"/>
        <path id="선_1034" data-name="선 1034" d="M0,15.339a.5.5,0,0,1-.5-.5V0A.5.5,0,0,1,0-.5.5.5,0,0,1,.5,0V14.839A.5.5,0,0,1,0,15.339Z" transform="translate(32.787 17.35)" fill="#333"/>
        <path id="패스_53870" data-name="패스 53870" d="M270.627,302.631a.5.5,0,0,1-.5-.5V292.7a1.653,1.653,0,0,0-1.687-1.613h-1.556l-.746.018h-.005a22.262,22.262,0,0,1-7.885-1.131,10.746,10.746,0,0,1-4.261-2.718,7.177,7.177,0,0,1-1.992-4.129.5.5,0,0,1,1-.056h0a6.331,6.331,0,0,0,1.775,3.557c2.207,2.342,6.131,3.543,11.348,3.476l.749-.018h1.574a2.654,2.654,0,0,1,2.687,2.613v9.428A.5.5,0,0,1,270.627,302.631Z" transform="translate(-243.293 -269.943)" fill="#333"/>
        <path id="타원_1315" data-name="타원 1315" d="M4.534-.5A5.183,5.183,0,0,1,9.568,4.808a5.183,5.183,0,0,1-5.034,5.308A5.183,5.183,0,0,1-.5,4.808,5.183,5.183,0,0,1,4.534-.5Zm0,9.616A4.183,4.183,0,0,0,8.568,4.808,4.183,4.183,0,0,0,4.534.5,4.183,4.183,0,0,0,.5,4.808,4.183,4.183,0,0,0,4.534,9.116Z" transform="translate(13.733)" fill="#333"/>
      </g>
    </g>
  </g>
</svg>
