<svg xmlns="http://www.w3.org/2000/svg" width="44" height="44" viewBox="0 0 44 44">
  <g id="icon_rehabilitation" transform="translate(-48.424 -694.424)">
    <rect id="사각형_10579" data-name="사각형 10579" width="44" height="44" transform="translate(48.424 694.424)" fill="none"/>
    <g id="그룹_33520" data-name="그룹 33520" transform="translate(-255.797 625.27)">
      <path id="타원_1300" data-name="타원 1300" d="M1.666-.5A2.166,2.166,0,1,1-.5,1.666,2.168,2.168,0,0,1,1.666-.5Zm0,3.331A1.166,1.166,0,1,0,.5,1.666,1.167,1.167,0,0,0,1.666,2.831Z" transform="translate(322.886 73.071)" fill="#333"/>
      <path id="타원_1301" data-name="타원 1301" d="M1.666-.5A2.166,2.166,0,1,1-.5,1.666,2.168,2.168,0,0,1,1.666-.5Zm0,3.331A1.166,1.166,0,1,0,.5,1.666,1.167,1.167,0,0,0,1.666,2.831Z" transform="translate(329.428 72.647)" fill="#333"/>
      <path id="패스_53752" data-name="패스 53752" d="M315.471,108.939a2.651,2.651,0,0,1-2.53-3.454l3.351-10.535-2.109-8.28a.5.5,0,0,1,.969-.247l2.144,8.419a.5.5,0,0,1-.008.275l-3.394,10.671a1.65,1.65,0,1,0,3.144,1L320.47,96a.5.5,0,0,1,.039-.091,1.639,1.639,0,0,0,.158-1.205l-1.743-6.843a.5.5,0,0,1,.969-.247l1.743,6.843a2.633,2.633,0,0,1-.228,1.892l-3.417,10.74a2.653,2.653,0,0,1-2.521,1.848Z" transform="translate(0.673 1.207)" fill="#333"/>
      <path id="패스_53753" data-name="패스 53753" d="M313.408,102.776a.5.5,0,0,1-.5-.555l.911-8.284c0-.047.013-.091.02-.128a2.571,2.571,0,0,1,.116-.651l.553-1.739a.5.5,0,0,1,.953.3l-.553,1.739a1.578,1.578,0,0,0-.071.422.5.5,0,0,1-.008.073l0,.026c0,.023-.009.046-.01.059l-.911,8.287A.5.5,0,0,1,313.408,102.776Z" transform="translate(0.681 1.644)" fill="#333"/>
      <path id="패스_53754" data-name="패스 53754" d="M331.178,108.382a2.448,2.448,0,0,1-2.388-1.942L326.6,96.071a2.418,2.418,0,0,1,0-1.011,2.456,2.456,0,0,1,.113-.464l1.115-3.183a.5.5,0,0,1,.944.331l-1.115,3.183a1.453,1.453,0,0,0-.069.287c0,.014,0,.027-.007.041a1.429,1.429,0,0,0,0,.609l2.188,10.37a1.447,1.447,0,0,0,2.832-.6l-2.087-9.884a.5.5,0,0,1,.017-.269l2.6-7.429a.5.5,0,1,1,.944.331l-2.557,7.3,2.058,9.747a2.446,2.446,0,0,1-1.889,2.9A2.468,2.468,0,0,1,331.178,108.382Z" transform="translate(1.866 1.353)" fill="#333"/>
      <path id="패스_53755" data-name="패스 53755" d="M333.516,103.237a.5.5,0,0,1-.5-.456l-.692-7.765a.5.5,0,0,1,.007-.139l.986-5.116a.5.5,0,1,1,.982.189L333.328,95l.686,7.7a.5.5,0,0,1-.454.542Z" transform="translate(2.367 1.495)" fill="#333"/>
      <path id="선_993" data-name="선 993" d="M0,4.7a.5.5,0,0,1-.311-.108.5.5,0,0,1-.081-.7l3.332-4.2a.5.5,0,0,1,.7-.081.5.5,0,0,1,.081.7L.392,4.508A.5.5,0,0,1,0,4.7Z" transform="translate(331.193 79.21)" fill="#333"/>
      <path id="패스_53757" data-name="패스 53757" d="M325.952,81.776a.5.5,0,0,1-.051-1l1.325-.138,2.664-3.355a.5.5,0,0,1,.783.622l-2.795,3.52a.5.5,0,0,1-.34.186l-1.534.16Z" transform="translate(1.77 0.43)" fill="#333"/>
      <path id="선_994" data-name="선 994" d="M1.58,2.554a.5.5,0,0,1-.4-.2L-.4.3A.5.5,0,0,1-.3-.4.5.5,0,0,1,.4-.3L1.976,1.75a.5.5,0,0,1-.4.8Z" transform="translate(318.156 76.437)" fill="#333"/>
      <path id="패스_53759" data-name="패스 53759" d="M317.173,76.784a.5.5,0,0,1-.4-.2,1.836,1.836,0,0,1,.336-2.575.5.5,0,0,1,.61.793.836.836,0,0,0-.153,1.173.5.5,0,0,1-.4.8Z" transform="translate(0.984 0.153)" fill="#333"/>
      <path id="패스_53760" data-name="패스 53760" d="M317.376,75a.5.5,0,0,1-.362-.845,6.023,6.023,0,0,1,2.954-1.276.5.5,0,1,1,.156.988,5.119,5.119,0,0,0-2.385.978A.5.5,0,0,1,317.376,75Z" transform="translate(1.026 0.063)" fill="#333"/>
      <path id="패스_53761" data-name="패스 53761" d="M314.57,87.123a.5.5,0,0,1-.484-.376,4.943,4.943,0,0,1-.149-1.058.5.5,0,1,1,1-.034,3.944,3.944,0,0,0,.118.844.5.5,0,0,1-.485.625Z" transform="translate(0.77 1.131)" fill="#333"/>
      <path id="패스_53762" data-name="패스 53762" d="M314.672,84.51a.5.5,0,0,1-.481-.639c.074-.257.167-.526.274-.8a.5.5,0,0,1,.93.367c-.1.243-.178.481-.243.709A.5.5,0,0,1,314.672,84.51Z" transform="translate(0.791 0.922)" fill="#333"/>
      <path id="패스_53763" data-name="패스 53763" d="M315.9,80.217h-.012a.5.5,0,0,1-.488-.512c.005-.229,0-.456-.005-.674a6.671,6.671,0,0,1,.337-2.736.5.5,0,0,1,.917.4,5.968,5.968,0,0,0-.254,2.3c.01.239.012.487.006.737A.5.5,0,0,1,315.9,80.217Z" transform="translate(0.896 0.334)" fill="#333"/>
      <path id="패스_53764" data-name="패스 53764" d="M334.082,89.76a.5.5,0,0,1-.475-.658,6.878,6.878,0,0,0,.277-3.428.5.5,0,0,1,.983-.183,7.88,7.88,0,0,1-.312,3.926A.5.5,0,0,1,334.082,89.76Z" transform="translate(2.477 1.124)" fill="#333"/>
      <path id="패스_53765" data-name="패스 53765" d="M334.121,85.113a.5.5,0,0,1-.5-.439,24.318,24.318,0,0,1,.11-4.861c.271-3.064-1.792-3.869-1.88-3.9a.5.5,0,1,1,.34-.94A3.836,3.836,0,0,1,333.62,76a4.98,4.98,0,0,1,1.111,3.9,22.105,22.105,0,0,0-.114,4.651.5.5,0,0,1-.436.557A.505.505,0,0,1,334.121,85.113Z" transform="translate(2.298 0.243)" fill="#333"/>
      <path id="패스_53766" data-name="패스 53766" d="M328.59,91.065a.5.5,0,0,1-.492-.59,9.9,9.9,0,0,0-.164-3.8.5.5,0,0,1,.966-.259,10.816,10.816,0,0,1,.182,4.238A.5.5,0,0,1,328.59,91.065Z" transform="translate(1.985 1.207)" fill="#333"/>
      <path id="패스_53768" data-name="패스 53768" d="M331.9,79.862a.5.5,0,0,1-.391-.811l1.224-1.54a.836.836,0,0,0-.136-1.174.5.5,0,1,1,.621-.783,1.836,1.836,0,0,1,.3,2.58l-1.224,1.54A.5.5,0,0,1,331.9,79.862Z" transform="translate(2.287 0.286)" fill="#333"/>
      <path id="패스_53770" data-name="패스 53770" d="M320.507,83.318h0a1.329,1.329,0,0,1,.221-.873,5.714,5.714,0,0,0-1.335-.272,12.933,12.933,0,0,1-3.446-1.221,9.314,9.314,0,0,1-.584,2.562c-.353.463,1.716-.474,3.149.392s2.548,1.857,3.29,1.38l.118-.779A1.333,1.333,0,0,1,320.507,83.318Z" transform="translate(0.847 0.722)" fill="#7e4f40" opacity="0.7"/>
      <path id="패스_53771" data-name="패스 53771" d="M321.3,84.659a1.836,1.836,0,0,1-.19-3.663.5.5,0,1,1,.1.995.836.836,0,0,0,.174,1.664l2.578-.27a.5.5,0,0,1,.1.995l-2.578.27A1.853,1.853,0,0,1,321.3,84.659Z" transform="translate(1.25 0.768)" fill="#333"/>
      <path id="패스_53772" data-name="패스 53772" d="M320.405,84.869a.5.5,0,0,1-.172-.031,8.548,8.548,0,0,1-1.585-.9c-.275-.18-.56-.366-.858-.547a3.692,3.692,0,0,0-2.329-.23c-.463.061-.828.11-1.029-.237a.569.569,0,0,1,.071-.657,8.681,8.681,0,0,0,.484-2.313.5.5,0,0,1,.724-.391,12.021,12.021,0,0,0,3.254,1.167,6.378,6.378,0,0,1,1.726.389.5.5,0,1,1-.349.937,5.4,5.4,0,0,0-1.448-.328,10.647,10.647,0,0,1-3-.97,11.477,11.477,0,0,1-.278,1.375,4.249,4.249,0,0,1,2.695.4c.313.189.605.381.888.566a8.011,8.011,0,0,0,1.382.8.5.5,0,0,1-.173.969Z" transform="translate(0.807 0.64)" fill="#333"/>
      <path id="선_995" data-name="선 995" d="M12.435.5H0A.5.5,0,0,1-.5,0,.5.5,0,0,1,0-.5H12.435a.5.5,0,0,1,.5.5A.5.5,0,0,1,12.435.5Z" transform="translate(331.175 85.818)" fill="#7e4f40"/>
      <path id="선_996" data-name="선 996" d="M22.154.5H0A.5.5,0,0,1-.5,0,.5.5,0,0,1,0-.5H22.154a.5.5,0,0,1,.5.5A.5.5,0,0,1,22.154.5Z" transform="translate(305.57 85.818)" fill="#7e4f40"/>
      <path id="선_997" data-name="선 997" d="M0,24.94a.5.5,0,0,1-.5-.5V0A.5.5,0,0,1,0-.5.5.5,0,0,1,.5,0V24.44A.5.5,0,0,1,0,24.94Z" transform="translate(308.289 85.932)" fill="#7e4f40"/>
      <path id="선_998" data-name="선 998" d="M0,24.94a.5.5,0,0,1-.5-.5V0A.5.5,0,0,1,0-.5.5.5,0,0,1,.5,0V24.44A.5.5,0,0,1,0,24.94Z" transform="translate(340.829 85.932)" fill="#7e4f40"/>
      <path id="선_999" data-name="선 999" d="M8.86.5H0A.5.5,0,0,1-.5,0,.5.5,0,0,1,0-.5H8.86a.5.5,0,0,1,.5.5A.5.5,0,0,1,8.86.5Z" transform="translate(338.011 82.685)" fill="#7e4f40"/>
      <path id="선_1000" data-name="선 1000" d="M5.891.5H0A.5.5,0,0,1-.5,0,.5.5,0,0,1,0-.5H5.891a.5.5,0,0,1,.5.5A.5.5,0,0,1,5.891.5Z" transform="translate(308.831 82.685)" fill="#7e4f40"/>
      <path id="선_1001" data-name="선 1001" d="M0,20.935a.5.5,0,0,1-.5-.5V0A.5.5,0,0,1,0-.5.5.5,0,0,1,.5,0V20.435A.5.5,0,0,1,0,20.935Z" transform="translate(312.059 86.804)" fill="#7e4f40"/>
      <path id="선_1002" data-name="선 1002" d="M0,2.71a.5.5,0,0,1-.5-.5V0A.5.5,0,0,1,0-.5.5.5,0,0,1,.5,0V2.21A.5.5,0,0,1,0,2.71Z" transform="translate(312.059 82.799)" fill="#7e4f40"/>
      <path id="선_1003" data-name="선 1003" d="M0,20.865a.5.5,0,0,1-.5-.5V0A.5.5,0,0,1,0-.5.5.5,0,0,1,.5,0V20.365A.5.5,0,0,1,0,20.865Z" transform="translate(344.6 86.874)" fill="#7e4f40"/>
      <path id="선_1004" data-name="선 1004" d="M0,2.628a.5.5,0,0,1-.5-.5V0A.5.5,0,0,1,0-.5.5.5,0,0,1,.5,0V2.128A.5.5,0,0,1,0,2.628Z" transform="translate(344.6 82.799)" fill="#7e4f40"/>
      <path id="패스_53773" data-name="패스 53773" d="M328.078,86.176a1.823,1.823,0,0,1-1.018-.311l-1.384-.927a.5.5,0,0,1,.556-.831l1.385.927a.837.837,0,0,0,1.161-.229.5.5,0,0,1,.831.557,1.825,1.825,0,0,1-1.17.779A1.856,1.856,0,0,1,328.078,86.176Z" transform="translate(1.77 1.032)" fill="#333"/>
      <path id="패스_53774" data-name="패스 53774" d="M326.542,85.523a.5.5,0,0,1-.278-.085l-5.059-3.388a1.823,1.823,0,0,1-.485-.475,1.187,1.187,0,0,1-.117-.131l-1.835-2.387a.5.5,0,0,1,.793-.61l1.837,2.389,0,.007.028.028.036.036a.5.5,0,0,1,.06.075.828.828,0,0,0,.235.237l5.06,3.388a.5.5,0,0,1-.279.916Z" transform="translate(1.181 0.53)" fill="#333"/>
      <path id="패스_53775" data-name="패스 53775" d="M329.839,85.668a.5.5,0,0,1-.5-.567.832.832,0,0,0-.364-.81l-6.293-4.214a.5.5,0,0,1-.076-.063.543.543,0,0,1-.044-.05l-1.984-2.581a.5.5,0,1,1,.793-.609l1.935,2.518,6.226,4.169a1.826,1.826,0,0,1,.8,1.775A.5.5,0,0,1,329.839,85.668Z" transform="translate(1.338 0.385)" fill="#333"/>
      <path id="패스_53776" data-name="패스 53776" d="M328.933,85.583a.5.5,0,0,1-.416-.777.848.848,0,0,0,.135-.354.5.5,0,0,1,.99.138,1.839,1.839,0,0,1-.293.77A.5.5,0,0,1,328.933,85.583Z" transform="translate(2.029 1.031)" fill="#333"/>
    </g>
  </g>
</svg>
