<svg width="936" height="234" viewBox="0 0 936 234" fill="none" xmlns="http://www.w3.org/2000/svg">
<g clip-path="url(#clip0_126_2)">
<path d="M351 234C415.617 234 468 181.617 468 117C468 52.3827 415.617 0 351 0C286.383 0 234 52.3827 234 117C234 181.617 286.383 234 351 234Z" fill="#F6F6F6"/>
<path d="M386.144 76.0139H330.896C329.239 76.0139 327.896 77.3571 327.896 79.0139V149.574C327.896 151.231 329.239 152.574 330.896 152.574H386.144C387.801 152.574 389.144 151.231 389.144 149.574V79.0139C389.144 77.3571 387.801 76.0139 386.144 76.0139Z" fill="white"/>
<path d="M336.93 79.0249C335.333 79.0268 333.802 79.6619 332.673 80.7911C331.544 81.9202 330.909 83.4511 330.907 85.0479V143.54C330.909 145.137 331.544 146.668 332.673 147.797C333.802 148.926 335.333 149.561 336.93 149.563H380.11C381.707 149.561 383.238 148.926 384.367 147.797C385.496 146.668 386.131 145.137 386.133 143.54V85.0479C386.131 83.4511 385.496 81.9202 384.367 80.7911C383.238 79.6619 381.707 79.0268 380.11 79.0249H336.93ZM336.93 76.0139H380.11C382.506 76.0139 384.804 76.9657 386.498 78.6599C388.192 80.3541 389.144 82.652 389.144 85.0479V143.54C389.144 145.936 388.192 148.234 386.498 149.928C384.804 151.622 382.506 152.574 380.11 152.574H336.93C335.744 152.574 334.569 152.34 333.473 151.886C332.377 151.432 331.381 150.767 330.542 149.928C329.703 149.089 329.038 148.093 328.584 146.997C328.13 145.901 327.896 144.726 327.896 143.54V85.0479C327.896 82.652 328.848 80.3541 330.542 78.6599C332.236 76.9657 334.534 76.0139 336.93 76.0139Z" fill="#333333"/>
<path d="M321.406 103.816V90.0418C321.406 90.0418 320.817 83.9608 329.999 84.2028C339.181 84.4448 373.006 84.2028 373.006 84.2028C373.006 84.2028 378.458 84.2438 378.458 88.9688V143.335C374.143 148.335 369.566 153.247 365.483 158.384C357.642 158.456 349.801 158.412 341.961 158.371C338.261 158.352 334.545 158.431 330.85 158.321C327.95 158.239 325.134 157.581 323.456 155.199C321.709 152.715 321.401 149.514 321.401 146.628" fill="white"/>
<path d="M356.353 159.928C351.725 159.928 347.108 159.904 342.583 159.88H341.951C340.699 159.873 339.42 159.88 338.184 159.88C335.766 159.889 333.266 159.899 330.803 159.826C326.731 159.711 323.924 158.481 322.223 156.065C320.158 153.129 319.893 149.479 319.893 146.627C319.888 146.426 319.923 146.226 319.996 146.039C320.07 145.852 320.18 145.681 320.32 145.537C320.46 145.393 320.628 145.279 320.813 145.2C320.998 145.122 321.197 145.082 321.398 145.082C321.6 145.082 321.799 145.122 321.984 145.2C322.169 145.279 322.337 145.393 322.477 145.537C322.617 145.681 322.727 145.852 322.801 146.039C322.874 146.226 322.909 146.426 322.904 146.627C322.904 149.035 323.104 152.087 324.685 154.327C325.816 155.934 327.785 156.727 330.885 156.811C333.3 156.883 335.774 156.874 338.167 156.864C339.41 156.864 340.696 156.854 341.962 156.864H342.594C349.857 156.902 357.359 156.941 364.748 156.88C367.396 153.587 370.258 150.354 373.031 147.222C374.322 145.763 375.654 144.26 376.946 142.769V88.9678C376.983 88.3694 376.825 87.7751 376.495 87.2743C376.166 86.7735 375.682 86.3933 375.118 86.1908C374.443 85.9082 373.724 85.7448 372.993 85.7078C372.066 85.7138 338.97 85.9448 329.953 85.7078C327.111 85.6328 325.015 86.2168 323.886 87.3948C323.24 88.0693 322.885 88.9709 322.899 89.9048C322.904 89.9499 322.906 89.9954 322.905 90.0408V103.815C322.91 104.016 322.875 104.216 322.802 104.403C322.728 104.59 322.618 104.761 322.478 104.905C322.338 105.049 322.17 105.163 321.985 105.241C321.8 105.319 321.601 105.36 321.399 105.36C321.198 105.36 320.999 105.319 320.814 105.241C320.629 105.163 320.461 105.049 320.321 104.905C320.181 104.761 320.071 104.59 319.997 104.403C319.924 104.216 319.889 104.016 319.894 103.815V90.0978C319.859 89.234 319.997 88.3719 320.298 87.5616C320.6 86.7513 321.059 86.0091 321.65 85.3778C323.401 83.4988 326.222 82.5968 330.032 82.6978C339.081 82.9368 372.65 82.6978 372.988 82.6978H373.01C374.154 82.7338 375.281 82.9845 376.332 83.4368C377.431 83.8756 378.368 84.6419 379.016 85.6315C379.664 86.6211 379.993 87.7863 379.956 88.9688V143.335C379.956 143.696 379.826 144.045 379.59 144.319C378.172 145.962 376.704 147.619 375.284 149.219C372.384 152.5 369.376 155.892 366.654 159.319C366.514 159.494 366.337 159.637 366.136 159.735C365.934 159.834 365.713 159.886 365.489 159.888C362.46 159.917 359.404 159.928 356.353 159.928Z" fill="#333333"/>
<path d="M361.589 153.969C361.19 153.969 360.807 153.81 360.524 153.528C360.242 153.245 360.083 152.862 360.083 152.463V145.135C360.036 144.366 360.158 143.596 360.439 142.879C360.721 142.162 361.155 141.514 361.712 140.982C362.795 140.079 364.187 139.634 365.593 139.742H371.819C372.02 139.737 372.22 139.772 372.407 139.845C372.594 139.919 372.765 140.029 372.909 140.169C373.053 140.309 373.167 140.477 373.245 140.662C373.324 140.847 373.364 141.046 373.364 141.247C373.364 141.449 373.324 141.648 373.245 141.833C373.167 142.018 373.053 142.186 372.909 142.326C372.765 142.466 372.594 142.576 372.407 142.65C372.22 142.723 372.02 142.758 371.819 142.753H365.527C365.473 142.754 365.419 142.752 365.366 142.745C364.772 142.7 364.182 142.875 363.708 143.237C363.48 143.494 363.308 143.796 363.203 144.123C363.097 144.45 363.061 144.795 363.095 145.137V152.465C363.094 152.864 362.936 153.247 362.653 153.529C362.371 153.811 361.988 153.969 361.589 153.969Z" fill="#333333"/>
<path d="M371.327 102.16H357.163C356.962 102.165 356.762 102.13 356.575 102.057C356.388 101.983 356.217 101.873 356.073 101.733C355.929 101.593 355.815 101.425 355.737 101.24C355.658 101.054 355.618 100.855 355.618 100.654C355.618 100.453 355.658 100.254 355.737 100.069C355.815 99.8839 355.929 99.7162 356.073 99.5759C356.217 99.4356 356.388 99.3255 356.575 99.2522C356.762 99.1789 356.962 99.1438 357.163 99.1489H371.327C371.528 99.1438 371.728 99.1789 371.915 99.2522C372.102 99.3255 372.273 99.4356 372.417 99.5759C372.561 99.7162 372.675 99.8839 372.753 100.069C372.832 100.254 372.872 100.453 372.872 100.654C372.872 100.855 372.832 101.054 372.753 101.24C372.675 101.425 372.561 101.593 372.417 101.733C372.273 101.873 372.102 101.983 371.915 102.057C371.728 102.13 371.528 102.165 371.327 102.16Z" fill="#7E4F40"/>
<path d="M371.327 111.341H358.663C358.462 111.346 358.262 111.311 358.075 111.238C357.888 111.164 357.717 111.054 357.573 110.914C357.429 110.774 357.315 110.606 357.237 110.421C357.158 110.235 357.118 110.036 357.118 109.835C357.118 109.634 357.158 109.435 357.237 109.25C357.315 109.065 357.429 108.897 357.573 108.757C357.717 108.616 357.888 108.506 358.075 108.433C358.262 108.36 358.462 108.325 358.663 108.33H371.327C371.72 108.34 372.093 108.503 372.367 108.784C372.641 109.065 372.794 109.443 372.794 109.835C372.794 110.228 372.641 110.605 372.367 110.886C372.093 111.168 371.72 111.331 371.327 111.341Z" fill="#7E4F40"/>
<path d="M371.327 120.522H357.163C356.962 120.527 356.762 120.492 356.575 120.419C356.388 120.345 356.217 120.235 356.073 120.095C355.929 119.955 355.815 119.787 355.737 119.602C355.658 119.417 355.618 119.218 355.618 119.016C355.618 118.815 355.658 118.616 355.737 118.431C355.815 118.246 355.929 118.078 356.073 117.938C356.217 117.798 356.388 117.688 356.575 117.614C356.762 117.541 356.962 117.506 357.163 117.511H371.327C371.528 117.506 371.728 117.541 371.915 117.614C372.102 117.688 372.273 117.798 372.417 117.938C372.561 118.078 372.675 118.246 372.753 118.431C372.832 118.616 372.872 118.815 372.872 119.016C372.872 119.218 372.832 119.417 372.753 119.602C372.675 119.787 372.561 119.955 372.417 120.095C372.273 120.235 372.102 120.345 371.915 120.419C371.728 120.492 371.528 120.527 371.327 120.522Z" fill="#7E4F40"/>
<path d="M371.328 129.702H345.999C345.606 129.692 345.233 129.529 344.959 129.248C344.685 128.966 344.532 128.589 344.532 128.196C344.532 127.804 344.685 127.427 344.959 127.145C345.233 126.864 345.606 126.701 345.999 126.691H371.328C371.721 126.701 372.094 126.864 372.368 127.145C372.642 127.427 372.795 127.804 372.795 128.196C372.795 128.589 372.642 128.966 372.368 129.248C372.094 129.529 371.721 129.692 371.328 129.702Z" fill="#7E4F40"/>
<path d="M342.589 119.092C344.269 117.412 345.212 115.134 345.212 112.759C345.212 110.384 344.269 108.106 342.589 106.426C340.909 104.746 338.631 103.803 336.256 103.803C333.881 103.803 331.603 104.746 329.923 106.426L320.562 115.782L333.228 128.448L342.589 119.092Z" fill="#FE6D33"/>
<path d="M333.229 129.958C333.031 129.958 332.835 129.919 332.653 129.843C332.47 129.768 332.304 129.657 332.164 129.517L319.498 116.851C319.358 116.711 319.247 116.545 319.172 116.362C319.096 116.18 319.057 115.984 319.057 115.786C319.057 115.589 319.096 115.393 319.172 115.21C319.247 115.028 319.358 114.862 319.498 114.722L328.859 105.361C330.822 103.398 333.483 102.296 336.259 102.296C339.035 102.296 341.696 103.398 343.659 105.361C345.622 107.323 346.724 109.985 346.724 112.761C346.724 115.536 345.622 118.198 343.659 120.161L334.298 129.522C334.157 129.661 333.99 129.772 333.807 129.846C333.624 129.921 333.427 129.959 333.229 129.958ZM322.692 115.786L333.229 126.323L341.529 118.023C342.909 116.622 343.679 114.732 343.671 112.766C343.664 110.8 342.879 108.916 341.489 107.526C340.099 106.135 338.215 105.351 336.249 105.344C334.282 105.336 332.393 106.106 330.992 107.486L322.692 115.786Z" fill="#333333"/>
<path opacity="0.7" d="M333.225 128.459L323.873 137.811C322.193 139.492 319.914 140.438 317.537 140.439C315.16 140.441 312.879 139.499 311.197 137.82C310.225 136.852 309.492 135.671 309.057 134.37C310.642 134.915 312.348 135.002 313.981 134.624C315.613 134.245 317.106 133.414 318.289 132.227L327.641 122.875L333.225 128.459Z" fill="#7E4F40"/>
<path d="M320.562 114.281C320.76 114.281 320.956 114.32 321.138 114.395C321.321 114.471 321.487 114.582 321.627 114.722L334.289 127.388C334.571 127.67 334.73 128.053 334.73 128.452C334.73 128.852 334.571 129.234 334.289 129.517L324.928 138.878C323.956 139.85 322.803 140.62 321.533 141.146C320.263 141.672 318.902 141.943 317.528 141.943C316.154 141.943 314.793 141.672 313.523 141.146C312.253 140.62 311.1 139.85 310.128 138.878C309.156 137.906 308.385 136.752 307.859 135.483C307.334 134.213 307.063 132.852 307.063 131.478C307.063 130.104 307.334 128.743 307.859 127.473C308.385 126.203 309.156 125.05 310.128 124.078L319.489 114.717C319.63 114.577 319.798 114.466 319.982 114.392C320.166 114.317 320.363 114.279 320.562 114.281ZM331.099 128.453L320.562 117.916L312.262 126.216C310.865 127.614 310.08 129.509 310.08 131.486C310.081 133.462 310.866 135.358 312.264 136.755C313.662 138.152 315.557 138.937 317.534 138.937C319.51 138.936 321.406 138.151 322.803 136.753L331.099 128.453Z" fill="#333333"/>
<path d="M342.589 119.092C344.269 117.412 345.212 115.134 345.212 112.759C345.212 110.384 344.269 108.106 342.589 106.426C340.909 104.746 338.631 103.803 336.256 103.803C333.881 103.803 331.603 104.746 329.923 106.426L320.562 115.782L333.228 128.448L342.589 119.092Z" fill="#A48379"/>
<path d="M333.229 129.958C333.031 129.958 332.835 129.919 332.653 129.843C332.47 129.768 332.304 129.657 332.164 129.517L319.498 116.851C319.358 116.711 319.247 116.545 319.172 116.362C319.096 116.18 319.057 115.984 319.057 115.786C319.057 115.589 319.096 115.393 319.172 115.21C319.247 115.028 319.358 114.862 319.498 114.722L328.859 105.361C330.822 103.398 333.483 102.296 336.259 102.296C339.035 102.296 341.696 103.398 343.659 105.361C345.622 107.323 346.724 109.985 346.724 112.761C346.724 115.536 345.622 118.198 343.659 120.161L334.298 129.522C334.157 129.661 333.99 129.772 333.807 129.846C333.624 129.921 333.427 129.959 333.229 129.958ZM322.692 115.786L333.229 126.323L341.529 118.023C342.909 116.622 343.679 114.732 343.671 112.766C343.664 110.8 342.879 108.916 341.489 107.526C340.099 106.135 338.215 105.351 336.249 105.344C334.282 105.336 332.393 106.106 330.992 107.486L322.692 115.786Z" fill="#333333"/>
<path d="M585 234C649.617 234 702 181.617 702 117C702 52.3827 649.617 0 585 0C520.383 0 468 52.3827 468 117C468 181.617 520.383 234 585 234Z" fill="#F6F6F6"/>
<path d="M563.965 124.91C569.812 123.614 574.975 120.206 578.464 115.338C581.953 110.47 583.522 104.485 582.871 98.5315C582.219 92.5779 579.392 87.0744 574.933 83.0765C570.473 79.0786 564.695 76.8677 558.706 76.8677C552.717 76.8677 546.938 79.0786 542.479 83.0765C538.02 87.0744 535.193 92.5779 534.541 98.5315C533.89 104.485 535.459 110.47 538.948 115.338C542.436 120.206 547.6 123.614 553.447 124.91V133.772H540.961V144.23H553.447V158.174H563.965V144.23H576.454V133.772H563.965V124.91ZM544.915 101.321C544.9 98.59 545.696 95.9159 547.202 93.6377C548.708 91.3595 550.857 89.5797 553.375 88.524C555.894 87.4683 558.67 87.1843 561.35 87.7077C564.031 88.2311 566.495 89.5385 568.432 91.4643C570.368 93.39 571.69 95.8474 572.228 98.5248C572.766 101.202 572.498 103.979 571.456 106.504C570.415 109.029 568.647 111.187 566.377 112.706C564.108 114.225 561.438 115.036 558.707 115.036C555.061 115.042 551.561 113.601 548.976 111.03C546.39 108.459 544.93 104.967 544.915 101.321Z" fill="white"/>
<path d="M563.964 159.686H553.446C553.045 159.686 552.661 159.527 552.378 159.243C552.094 158.96 551.935 158.576 551.935 158.175V145.742H540.96C540.559 145.742 540.175 145.583 539.892 145.299C539.608 145.016 539.449 144.632 539.449 144.231V133.772C539.449 133.371 539.608 132.987 539.892 132.704C540.175 132.42 540.559 132.261 540.96 132.261H551.935V126.095C546.729 124.674 542.094 121.668 538.672 117.495C535.592 113.708 533.649 109.125 533.068 104.278C532.487 99.4313 533.292 94.5191 535.389 90.111C537.486 85.7029 540.789 81.9796 544.917 79.3727C549.044 76.7658 553.825 75.3821 558.707 75.3821C563.588 75.3821 568.37 76.7658 572.497 79.3727C576.624 81.9796 579.927 85.7029 582.024 90.111C584.121 94.5191 584.926 99.4313 584.345 104.278C583.764 109.125 581.821 113.708 578.741 117.495C575.318 121.668 570.682 124.674 565.475 126.095V132.261H576.453C576.854 132.261 577.238 132.42 577.522 132.704C577.805 132.987 577.964 133.371 577.964 133.772V144.231C577.964 144.632 577.805 145.016 577.522 145.299C577.238 145.583 576.854 145.742 576.453 145.742H565.475V158.179C565.474 158.579 565.314 158.962 565.031 159.245C564.748 159.527 564.364 159.686 563.964 159.686ZM554.958 156.663H562.453V144.231C562.453 143.83 562.612 143.446 562.896 143.163C563.179 142.879 563.563 142.72 563.964 142.72H574.942V135.279H563.964C563.563 135.279 563.179 135.12 562.896 134.836C562.612 134.553 562.453 134.169 562.453 133.768V124.906C562.453 124.562 562.57 124.228 562.786 123.959C563.002 123.691 563.303 123.504 563.639 123.43C569.123 122.215 573.966 119.017 577.238 114.451C580.51 109.886 581.982 104.273 581.37 98.6887C580.759 93.1048 578.108 87.9431 573.925 84.1934C569.742 80.4438 564.323 78.3702 558.706 78.3702C553.088 78.3702 547.669 80.4438 543.486 84.1934C539.304 87.9431 536.652 93.1048 536.041 98.6887C535.43 104.273 536.901 109.886 540.173 114.451C543.445 119.017 548.288 122.215 553.772 123.43C554.108 123.504 554.409 123.691 554.625 123.959C554.841 124.228 554.958 124.562 554.958 124.906V133.768C554.958 134.169 554.799 134.553 554.516 134.836C554.232 135.12 553.848 135.279 553.447 135.279H542.472V142.715H553.447C553.848 142.715 554.232 142.874 554.516 143.158C554.799 143.441 554.958 143.825 554.958 144.226V156.663ZM558.707 116.547C555.699 116.533 552.762 115.627 550.267 113.945C547.773 112.263 545.833 109.88 544.691 107.097C543.55 104.313 543.259 101.254 543.855 98.3049C544.45 95.3559 545.906 92.6496 548.039 90.5273C550.171 88.4051 552.884 86.9621 555.836 86.3805C558.788 85.7988 561.846 86.1046 564.624 87.2592C567.402 88.4138 569.776 90.3655 571.446 92.868C573.116 95.3704 574.007 98.3115 574.007 101.32C573.993 105.366 572.374 109.242 569.506 112.097C566.639 114.951 562.755 116.552 558.709 116.548L558.707 116.547ZM558.707 89.117C556.298 89.133 553.947 89.8621 551.951 91.2123C549.956 92.5626 548.405 94.4735 547.494 96.7041C546.583 98.9347 546.353 101.385 546.832 103.746C547.312 106.108 548.481 108.274 550.19 109.972C551.899 111.67 554.073 112.824 556.438 113.288C558.802 113.752 561.251 113.506 563.475 112.58C565.7 111.655 567.6 110.091 568.937 108.086C570.274 106.082 570.988 103.726 570.988 101.317C570.973 98.0724 569.672 94.9662 567.37 92.6794C565.068 90.3926 561.954 89.1119 558.709 89.118L558.707 89.117Z" fill="#333333"/>
<path d="M606.785 95.0051V113.034C600.937 114.33 595.773 117.739 592.283 122.607C588.794 127.476 587.224 133.461 587.876 139.416C588.528 145.37 591.355 150.874 595.815 154.873C600.275 158.871 606.054 161.082 612.044 161.082C618.034 161.082 623.813 158.871 628.273 154.873C632.733 150.874 635.56 145.37 636.211 139.416C636.863 133.461 635.294 127.476 631.804 122.607C628.315 117.739 623.151 114.33 617.303 113.034V95.0051L625.209 102.868L632.646 95.4681L615.763 78.676C614.774 77.6947 613.437 77.144 612.044 77.144C610.651 77.144 609.314 77.6947 608.325 78.676L591.446 95.4681L598.883 102.868L606.785 95.0051ZM625.838 136.627C625.853 139.358 625.056 142.032 623.55 144.31C622.043 146.588 619.895 148.367 617.376 149.423C614.857 150.478 612.082 150.762 609.401 150.238C606.721 149.714 604.257 148.407 602.32 146.481C600.384 144.555 599.063 142.098 598.525 139.42C597.986 136.743 598.255 133.966 599.297 131.442C600.338 128.917 602.106 126.759 604.376 125.24C606.645 123.721 609.315 122.91 612.046 122.91C615.692 122.905 619.192 124.346 621.777 126.918C624.362 129.489 625.823 132.981 625.838 136.627Z" fill="white"/>
<path d="M612.045 75.636C613.836 75.6408 615.554 76.349 616.828 77.608L633.711 94.4C633.852 94.5404 633.964 94.7074 634.041 94.8913C634.117 95.0752 634.157 95.2723 634.157 95.4715C634.157 95.6707 634.117 95.8679 634.041 96.0518C633.964 96.2356 633.852 96.4026 633.711 96.543L626.273 103.943C625.99 104.225 625.607 104.383 625.208 104.383C624.808 104.383 624.425 104.225 624.142 103.943L618.814 98.643V111.853C624.021 113.274 628.658 116.279 632.08 120.453C635.159 124.24 637.102 128.823 637.683 133.669C638.264 138.516 637.459 143.428 635.362 147.836C633.265 152.243 629.962 155.966 625.835 158.573C621.708 161.18 616.927 162.563 612.046 162.563C607.164 162.563 602.383 161.18 598.256 158.573C594.129 155.966 590.826 152.243 588.729 147.836C586.632 143.428 585.827 138.516 586.408 133.669C586.989 128.823 588.932 124.24 592.011 120.453C595.432 116.28 600.067 113.274 605.273 111.853V98.641L599.949 103.941C599.666 104.223 599.283 104.381 598.883 104.381C598.484 104.381 598.1 104.223 597.817 103.941L590.38 96.541C590.239 96.4005 590.127 96.2336 590.051 96.0497C589.974 95.8658 589.935 95.6686 589.935 95.4695C589.935 95.2704 589.974 95.0732 590.051 94.8893C590.127 94.7055 590.239 94.5385 590.38 94.398L607.26 77.606C608.536 76.3492 610.254 75.642 612.045 75.636ZM630.502 95.471L614.696 79.751C613.99 79.0506 613.036 78.6577 612.042 78.6577C611.047 78.6577 610.093 79.0506 609.387 79.751L593.587 95.469L598.88 100.734L605.717 93.934C605.929 93.7234 606.198 93.5801 606.491 93.5224C606.784 93.4647 607.087 93.495 607.363 93.6096C607.639 93.7241 607.874 93.9178 608.04 94.1662C608.206 94.4146 608.294 94.7064 608.294 95.005V113.034C608.294 113.378 608.176 113.712 607.961 113.981C607.745 114.249 607.444 114.436 607.108 114.51C601.624 115.725 596.781 118.923 593.509 123.489C590.237 128.054 588.766 133.667 589.377 139.251C589.988 144.835 592.64 149.997 596.822 153.747C601.005 157.496 606.424 159.57 612.042 159.57C617.659 159.57 623.078 157.496 627.261 153.747C631.444 149.997 634.095 144.835 634.706 139.251C635.317 133.667 633.846 128.054 630.574 123.489C627.302 118.923 622.459 115.725 616.975 114.51C616.639 114.436 616.338 114.249 616.122 113.981C615.907 113.712 615.789 113.378 615.789 113.034V95.005C615.789 94.7064 615.877 94.4143 616.043 94.1658C616.208 93.9173 616.444 93.7235 616.72 93.6088C616.995 93.4941 617.299 93.4637 617.592 93.5214C617.885 93.5791 618.154 93.7223 618.366 93.933L625.206 100.733L630.502 95.471ZM612.045 121.398C615.054 121.412 617.991 122.317 620.486 123.999C622.981 125.681 624.922 128.064 626.064 130.848C627.206 133.632 627.497 136.692 626.902 139.641C626.306 142.591 624.85 145.298 622.718 147.42C620.585 149.543 617.871 150.986 614.919 151.568C611.967 152.15 608.908 151.845 606.13 150.69C603.351 149.535 600.977 147.583 599.307 145.08C597.636 142.578 596.745 139.636 596.745 136.627C596.759 132.58 598.378 128.704 601.246 125.849C604.115 122.994 607.998 121.393 612.045 121.398ZM612.045 148.833C614.456 148.818 616.809 148.09 618.806 146.74C620.804 145.39 622.357 143.479 623.269 141.247C624.182 139.015 624.413 136.564 623.933 134.201C623.454 131.838 622.286 129.67 620.576 127.97C618.866 126.271 616.691 125.115 614.325 124.65C611.96 124.185 609.509 124.431 607.283 125.357C605.057 126.283 603.155 127.848 601.817 129.853C600.479 131.859 599.765 134.216 599.765 136.627C599.779 139.873 601.079 142.981 603.381 145.269C605.683 147.557 608.799 148.839 612.045 148.833Z" fill="#333333"/>
<path opacity="0.7" d="M565.061 117.66C572.922 117.66 579.295 111.287 579.295 103.426C579.295 95.5647 572.922 89.1919 565.061 89.1919C557.2 89.1919 550.827 95.5647 550.827 103.426C550.827 111.287 557.2 117.66 565.061 117.66Z" fill="#7E4F40"/>
<path opacity="0.7" d="M616.447 153.933C624.308 153.933 630.681 147.56 630.681 139.699C630.681 131.838 624.308 125.465 616.447 125.465C608.586 125.465 602.213 131.838 602.213 139.699C602.213 147.56 608.586 153.933 616.447 153.933Z" fill="#7E4F40"/>
<path d="M819 234C883.617 234 936 181.617 936 117C936 52.3827 883.617 0 819 0C754.383 0 702 52.3827 702 117C702 181.617 754.383 234 819 234Z" fill="#F6F6F6"/>
<path d="M851.769 121.416L832.621 114.456L848.421 84.4229L858.942 88.2468L851.769 121.416Z" fill="white"/>
<path d="M851.769 122.936C851.592 122.936 851.416 122.905 851.25 122.845L832.102 115.885C831.898 115.811 831.712 115.694 831.557 115.542C831.403 115.39 831.282 115.207 831.204 115.005C831.125 114.802 831.091 114.585 831.104 114.369C831.116 114.152 831.175 113.941 831.276 113.749L847.08 83.7158C847.251 83.3907 847.534 83.1385 847.877 83.0059C848.22 82.8734 848.599 82.8694 848.944 82.9948L859.465 86.8188C859.81 86.9445 860.099 87.191 860.276 87.5127C860.454 87.8345 860.509 88.2097 860.431 88.5688L853.257 121.737C853.184 122.077 852.996 122.381 852.726 122.599C852.456 122.818 852.119 122.937 851.771 122.937L851.769 122.936ZM834.78 113.622L850.655 119.392L857.18 89.2218L849.153 86.3039L834.78 113.622Z" fill="#333333"/>
<path d="M859.304 88.3799L848.063 84.2939C846.627 83.7537 845.462 82.6691 844.821 81.2755C844.18 79.8818 844.114 78.2915 844.637 76.8496C845.161 75.4077 846.232 74.2304 847.619 73.5732C849.005 72.9159 850.594 72.8318 852.042 73.3389L863.283 77.4249C864.719 77.9651 865.884 79.0497 866.525 80.4434C867.166 81.837 867.232 83.4273 866.709 84.8692C866.185 86.3112 865.114 87.4884 863.727 88.1457C862.341 88.8029 860.752 88.8871 859.304 88.3799Z" fill="white"/>
<path d="M861.294 90.2519C860.439 90.2518 859.59 90.1018 858.786 89.8089L847.545 85.7229C846.629 85.4003 845.786 84.8994 845.065 84.2491C844.344 83.5988 843.759 82.812 843.344 81.9342C842.929 81.0565 842.692 80.1051 842.646 79.1351C842.601 78.1652 842.748 77.1959 843.08 76.2832C843.412 75.3706 843.921 74.5327 844.578 73.818C845.235 73.1033 846.028 72.526 846.91 72.1194C847.791 71.7129 848.745 71.4851 849.715 71.4493C850.686 71.4135 851.654 71.5704 852.563 71.9109L863.803 75.9959C865.426 76.5867 866.79 77.7304 867.654 79.2264C868.518 80.7224 868.827 82.4749 868.528 84.1763C868.228 85.8777 867.339 87.4192 866.016 88.5301C864.693 89.6409 863.021 90.2502 861.293 90.2509L861.294 90.2519ZM850.053 74.5069C849.169 74.5094 848.307 74.7829 847.583 75.2905C846.86 75.7982 846.309 76.5156 846.006 77.3459C845.813 77.8776 845.726 78.4422 845.751 79.0075C845.776 79.5727 845.912 80.1275 846.151 80.6402C846.39 81.1529 846.728 81.6134 847.145 81.9955C847.563 82.3775 848.051 82.6736 848.583 82.8669L859.824 86.9519C860.898 87.3419 862.083 87.2893 863.118 86.8055C864.154 86.3217 864.955 85.4466 865.345 84.3724C865.735 83.2983 865.682 82.1132 865.198 81.0779C864.714 80.0427 863.839 79.2419 862.765 78.8519L851.522 74.7689C851.051 74.5964 850.554 74.5077 850.053 74.5069Z" fill="#333333"/>
<g style="mix-blend-mode:darken">
<mask id="mask0_126_2" style="mask-type:luminance" maskUnits="userSpaceOnUse" x="832" y="76" width="36" height="46">
<path d="M867.124 76.4709H832.626V121.412H867.124V76.4709Z" fill="white"/>
</mask>
<g mask="url(#mask0_126_2)">
<path opacity="0.7" d="M866.771 84.8989C866.242 86.3499 865.158 87.5312 863.758 88.1834C862.358 88.8356 860.756 88.9052 859.305 88.3769L858.946 88.2459L851.769 121.413L832.627 114.457L832.668 114.375L848.168 120.013L855.345 86.8459L855.704 86.9769C857.071 87.4732 858.573 87.4408 859.917 86.886C861.261 86.3312 862.349 85.2941 862.968 83.9782C863.586 82.6624 863.691 81.1629 863.26 79.7741C862.83 78.3853 861.896 77.2075 860.642 76.4719L863.281 77.4309C864.001 77.6919 864.662 78.0921 865.226 78.6088C865.791 79.1255 866.249 79.7485 866.572 80.4421C866.896 81.1358 867.08 81.8864 867.113 82.6512C867.147 83.4159 867.029 84.1797 866.767 84.8989" fill="#7E4F40"/>
</g>
</g>
<path d="M862.475 118.749C862.48 120.645 862.349 122.539 862.083 124.417C860.713 134.655 855.674 144.048 847.901 150.85C840.128 157.653 830.15 161.402 819.821 161.402C809.491 161.402 799.513 157.653 791.74 150.85C783.967 144.048 778.928 134.655 777.558 124.417C777.035 120.656 777.035 116.841 777.558 113.081C778.146 112.884 778.763 112.784 779.383 112.787H860.259C860.879 112.784 861.496 112.883 862.084 113.081C862.35 114.958 862.48 116.853 862.475 118.749Z" fill="white"/>
<path d="M779.384 111.267H860.26C861.047 111.264 861.83 111.391 862.576 111.643C862.841 111.733 863.076 111.895 863.255 112.111C863.434 112.327 863.55 112.588 863.59 112.865C864.133 116.766 864.133 120.724 863.59 124.625C862.172 135.228 856.953 144.956 848.903 152.002C840.853 159.047 830.519 162.931 819.821 162.931C809.124 162.931 798.79 159.047 790.74 152.002C782.69 144.956 777.471 135.228 776.053 124.625C775.51 120.724 775.51 116.766 776.053 112.865C776.093 112.588 776.209 112.327 776.388 112.111C776.567 111.895 776.802 111.733 777.067 111.643C777.813 111.391 778.596 111.264 779.384 111.267ZM860.713 114.33C860.562 114.315 860.411 114.307 860.26 114.307H779.384C779.233 114.307 779.082 114.315 778.931 114.33C778.767 115.797 778.685 117.273 778.687 118.75C778.683 120.574 778.809 122.395 779.064 124.201V124.219C780.385 134.092 785.244 143.15 792.74 149.71C800.236 156.27 809.859 159.886 819.82 159.886C829.781 159.886 839.404 156.27 846.9 149.71C854.396 143.15 859.255 134.092 860.576 124.219V124.201C860.831 122.395 860.957 120.574 860.953 118.75C860.956 117.273 860.875 115.797 860.711 114.33H860.713Z" fill="#333333"/>
<path d="M866.207 118.749C866.21 120.009 865.811 121.237 865.07 122.256C864.329 123.275 863.283 124.032 862.083 124.417C861.496 124.618 860.879 124.719 860.258 124.717H779.382C778.761 124.719 778.144 124.618 777.557 124.417C776.358 124.03 775.313 123.273 774.572 122.254C773.83 121.236 773.431 120.009 773.431 118.749C773.431 117.489 773.83 116.262 774.572 115.243C775.313 114.225 776.358 113.468 777.557 113.081C778.145 112.884 778.762 112.784 779.382 112.787H860.258C860.878 112.784 861.495 112.883 862.083 113.081C863.282 113.467 864.328 114.224 865.069 115.243C865.81 116.261 866.209 117.489 866.207 118.749Z" fill="white"/>
<path d="M779.382 111.267H860.258C861.04 111.264 861.817 111.389 862.558 111.638C863.773 112.033 864.866 112.734 865.734 113.672C866.602 114.61 867.215 115.754 867.515 116.996C867.814 118.238 867.791 119.536 867.447 120.767C867.103 121.998 866.45 123.119 865.549 124.026C864.711 124.863 863.688 125.491 862.562 125.858C861.819 126.11 861.039 126.236 860.255 126.233H779.382C778.6 126.236 777.823 126.11 777.082 125.859C775.867 125.464 774.773 124.764 773.905 123.826C773.037 122.889 772.424 121.744 772.125 120.502C771.825 119.26 771.848 117.962 772.193 116.732C772.538 115.501 773.192 114.38 774.093 113.474C774.931 112.635 775.956 112.006 777.083 111.638C777.824 111.39 778.601 111.264 779.382 111.267ZM860.258 123.194C860.709 123.197 861.158 123.125 861.586 122.981L861.617 122.971C862.511 122.684 863.29 122.121 863.842 121.362C864.393 120.603 864.69 119.688 864.687 118.75C864.691 117.812 864.396 116.897 863.844 116.138C863.293 115.379 862.514 114.815 861.621 114.528L861.595 114.519C861.165 114.375 860.714 114.303 860.261 114.306H779.382C778.929 114.303 778.478 114.375 778.048 114.519L778.024 114.527C777.131 114.815 776.353 115.379 775.8 116.137C775.248 116.896 774.951 117.81 774.951 118.748C774.948 119.686 775.244 120.602 775.796 121.361C776.348 122.12 777.128 122.683 778.022 122.969L778.054 122.98C778.482 123.124 778.931 123.196 779.382 123.193L860.258 123.194Z" fill="#333333"/>
<path d="M840.769 156.058H798.87V165.87H840.769V156.058Z" fill="white"/>
<path d="M798.87 154.538H840.77C840.97 154.538 841.167 154.577 841.352 154.654C841.536 154.73 841.704 154.842 841.845 154.983C841.986 155.124 842.098 155.292 842.174 155.476C842.251 155.661 842.29 155.858 842.29 156.058V165.87C842.29 166.069 842.251 166.267 842.174 166.452C842.098 166.636 841.986 166.803 841.845 166.945C841.704 167.086 841.536 167.198 841.352 167.274C841.167 167.351 840.97 167.39 840.77 167.39H798.87C798.467 167.39 798.08 167.23 797.795 166.945C797.51 166.66 797.35 166.273 797.35 165.87V156.058C797.35 155.655 797.51 155.268 797.795 154.983C798.08 154.698 798.467 154.538 798.87 154.538ZM839.25 157.578H800.39V164.35H839.25V157.578Z" fill="#333333"/>
<path d="M828.467 136.156H823.467V131.156H816.167V136.156H811.167V143.456H816.167V148.456H823.467V143.456H828.467V136.156Z" fill="#A48379"/>
<path d="M816.171 129.636H823.471C823.874 129.636 824.261 129.796 824.546 130.081C824.831 130.366 824.991 130.753 824.991 131.156V134.636H828.47C828.873 134.636 829.26 134.796 829.545 135.081C829.83 135.366 829.99 135.753 829.99 136.156V143.456C829.99 143.859 829.83 144.246 829.545 144.531C829.26 144.816 828.873 144.976 828.47 144.976H824.991V148.456C824.991 148.859 824.831 149.246 824.546 149.531C824.261 149.816 823.874 149.976 823.471 149.976H816.171C815.768 149.976 815.381 149.816 815.096 149.531C814.811 149.246 814.651 148.859 814.651 148.456V144.976H811.172C810.769 144.976 810.382 144.816 810.097 144.531C809.812 144.246 809.652 143.859 809.652 143.456V136.156C809.652 135.753 809.812 135.366 810.097 135.081C810.382 134.796 810.769 134.636 811.172 134.636H814.651V131.156C814.651 130.753 814.811 130.366 815.096 130.081C815.381 129.796 815.768 129.636 816.171 129.636ZM821.948 132.676H817.691V136.156C817.691 136.356 817.652 136.553 817.575 136.738C817.499 136.922 817.387 137.09 817.246 137.231C817.105 137.372 816.937 137.484 816.753 137.56C816.568 137.637 816.371 137.676 816.171 137.676H812.692V141.932H816.171C816.371 141.932 816.568 141.971 816.753 142.048C816.937 142.124 817.105 142.236 817.246 142.377C817.387 142.518 817.499 142.686 817.575 142.87C817.652 143.055 817.691 143.252 817.691 143.452V146.932H821.948V143.452C821.948 143.049 822.108 142.662 822.393 142.377C822.678 142.092 823.065 141.932 823.468 141.932H826.947V137.676H823.468C823.065 137.676 822.678 137.516 822.393 137.231C822.108 136.946 821.948 136.559 821.948 136.156V132.676Z" fill="#333333"/>
<path d="M816.171 129.636H823.471C823.874 129.636 824.261 129.796 824.546 130.081C824.831 130.366 824.991 130.753 824.991 131.156V134.636H828.47C828.873 134.636 829.26 134.796 829.545 135.081C829.83 135.366 829.99 135.753 829.99 136.156V143.456C829.99 143.859 829.83 144.246 829.545 144.531C829.26 144.816 828.873 144.976 828.47 144.976H824.991V148.456C824.991 148.859 824.831 149.246 824.546 149.531C824.261 149.816 823.874 149.976 823.471 149.976H816.171C815.768 149.976 815.381 149.816 815.096 149.531C814.811 149.246 814.651 148.859 814.651 148.456V144.976H811.172C810.769 144.976 810.382 144.816 810.097 144.531C809.812 144.246 809.652 143.859 809.652 143.456V136.156C809.652 135.753 809.812 135.366 810.097 135.081C810.382 134.796 810.769 134.636 811.172 134.636H814.651V131.156C814.651 130.753 814.811 130.366 815.096 130.081C815.381 129.796 815.768 129.636 816.171 129.636ZM821.948 132.676H817.691V136.156C817.691 136.356 817.652 136.553 817.575 136.738C817.499 136.922 817.387 137.09 817.246 137.231C817.105 137.372 816.937 137.484 816.753 137.56C816.568 137.637 816.371 137.676 816.171 137.676H812.692V141.932H816.171C816.371 141.932 816.568 141.971 816.753 142.048C816.937 142.124 817.105 142.236 817.246 142.377C817.387 142.518 817.499 142.686 817.575 142.87C817.652 143.055 817.691 143.252 817.691 143.452V146.932H821.948V143.452C821.948 143.049 822.108 142.662 822.393 142.377C822.678 142.092 823.065 141.932 823.468 141.932H826.947V137.676H823.468C823.065 137.676 822.678 137.516 822.393 137.231C822.108 136.946 821.948 136.559 821.948 136.156V132.676Z" fill="#333333"/>
<path d="M829.935 79.2849C829.935 86.8789 822.02 93.0369 822.02 93.0369C822.02 93.0369 814.102 86.8789 814.102 79.2849C814.102 71.6909 822.02 65.5359 822.02 65.5359C822.02 65.5359 829.935 71.6919 829.935 79.2849Z" fill="#A48379"/>
<path d="M822.02 94.5569C821.682 94.5571 821.354 94.4445 821.087 94.2369C820.74 93.9669 812.587 87.5269 812.587 79.2849C812.587 71.0429 820.745 64.6059 821.087 64.3359C821.354 64.1285 821.682 64.0159 822.02 64.0159C822.358 64.0159 822.686 64.1285 822.953 64.3359C823.3 64.6059 831.453 71.0429 831.453 79.2849C831.453 87.5269 823.298 93.9669 822.953 94.2369C822.686 94.4445 822.358 94.5571 822.02 94.5569ZM822.02 67.5449C820.045 69.3629 815.62 74.0199 815.62 79.2849C815.62 84.5499 820.041 89.2079 822.02 91.0269C823.996 89.2079 828.42 84.5489 828.42 79.2849C828.42 74.0209 823.995 69.3629 822.02 67.5449Z" fill="#333333"/>
<path d="M829.935 79.2849C829.935 86.8789 822.02 93.0369 822.02 93.0369C822.02 93.0369 814.102 86.8789 814.102 79.2849C814.102 71.6909 822.02 65.5359 822.02 65.5359C822.02 65.5359 829.935 71.6919 829.935 79.2849Z" fill="#A48379"/>
<path d="M822.02 64.0159C822.358 64.0156 822.686 64.1283 822.953 64.3359C823.3 64.6059 831.453 71.0429 831.453 79.2849C831.453 87.5269 823.298 93.9669 822.953 94.2369C822.686 94.4443 822.358 94.5569 822.02 94.5569C821.682 94.5569 821.354 94.4443 821.087 94.2369C820.74 93.9669 812.587 87.5269 812.587 79.2849C812.587 71.0429 820.745 64.6059 821.087 64.3359C821.354 64.1283 821.682 64.0157 822.02 64.0159ZM822.02 91.0269C823.995 89.2079 828.42 84.5489 828.42 79.2849C828.42 74.0209 824 69.3639 822.02 67.5449C820.044 69.3629 815.62 74.0199 815.62 79.2849C815.62 84.5499 820.043 89.2079 822.02 91.0269Z" fill="#333333"/>
<path d="M822.018 94.5559C821.615 94.5559 821.229 94.3959 820.944 94.111C820.659 93.8262 820.498 93.4398 820.498 93.0369V65.5359C820.498 65.1327 820.658 64.7461 820.943 64.4611C821.228 64.176 821.615 64.0159 822.018 64.0159C822.421 64.0159 822.808 64.176 823.093 64.4611C823.378 64.7461 823.538 65.1327 823.538 65.5359V93.0359C823.538 93.2355 823.499 93.4331 823.422 93.6175C823.346 93.802 823.234 93.9695 823.093 94.1107C822.952 94.2518 822.784 94.3638 822.6 94.4402C822.415 94.5166 822.218 94.5559 822.018 94.5559Z" fill="#333333"/>
<path d="M822.018 94.5559C821.615 94.5559 821.229 94.3959 820.944 94.111C820.659 93.8262 820.498 93.4398 820.498 93.0369V65.5359C820.498 65.1327 820.658 64.7461 820.943 64.4611C821.228 64.176 821.615 64.0159 822.018 64.0159C822.421 64.0159 822.808 64.176 823.093 64.4611C823.378 64.7461 823.538 65.1327 823.538 65.5359V93.0359C823.538 93.2355 823.499 93.4331 823.422 93.6175C823.346 93.802 823.234 93.9695 823.093 94.1107C822.952 94.2518 822.784 94.3638 822.6 94.4402C822.415 94.5166 822.218 94.5559 822.018 94.5559Z" fill="#333333"/>
<path d="M807.853 87.4399C813.221 92.8079 811.977 102.758 811.977 102.758C811.977 102.758 802.027 104.003 796.659 98.6339C791.291 93.2649 792.533 83.3129 792.533 83.3129C792.533 83.3129 802.483 82.0679 807.854 87.4389" fill="#A48379"/>
<path d="M809.446 104.404C806.023 104.404 799.671 103.794 795.587 99.71C789.76 93.88 790.973 83.562 791.027 83.126C791.069 82.7905 791.221 82.4785 791.46 82.2395C791.7 82.0004 792.012 81.8478 792.347 81.806C793.251 81.7088 794.159 81.6631 795.068 81.669C798.492 81.669 804.845 82.279 808.931 86.369C814.758 92.196 813.543 102.514 813.488 102.951C813.446 103.286 813.294 103.598 813.055 103.837C812.815 104.077 812.503 104.229 812.168 104.271C811.264 104.367 810.355 104.411 809.446 104.404ZM793.957 84.733C793.846 87.414 794.014 93.833 797.737 97.561C801.046 100.87 806.494 101.361 809.446 101.361C809.862 101.361 810.237 101.351 810.559 101.337C810.67 98.657 810.505 92.237 806.782 88.512C803.47 85.2 798.021 84.706 795.068 84.706C794.652 84.709 794.278 84.719 793.957 84.733Z" fill="#333333"/>
<path d="M807.853 87.4399C813.221 92.8079 811.977 102.758 811.977 102.758C811.977 102.758 802.027 104.003 796.659 98.6339C791.291 93.2649 792.533 83.3129 792.533 83.3129C792.533 83.3129 802.485 82.0689 807.853 87.4399Z" fill="#A48379"/>
<path d="M795.068 81.67C798.492 81.67 804.845 82.28 808.931 86.37C814.758 92.197 813.543 102.515 813.488 102.952C813.446 103.287 813.294 103.599 813.055 103.839C812.815 104.078 812.503 104.23 812.168 104.272C811.264 104.369 810.355 104.415 809.445 104.409C806.022 104.409 799.67 103.799 795.586 99.715C789.759 93.885 790.972 83.567 791.026 83.131C791.068 82.7955 791.22 82.4835 791.459 82.2445C791.699 82.0054 792.011 81.8529 792.346 81.811C793.25 81.7125 794.159 81.6654 795.068 81.67ZM810.559 101.341C810.67 98.661 810.505 92.241 806.782 88.516C803.47 85.204 798.021 84.71 795.068 84.71C794.652 84.71 794.278 84.72 793.957 84.734C793.846 87.415 794.014 93.834 797.737 97.562C801.046 100.871 806.494 101.362 809.446 101.362C809.863 101.364 810.238 101.355 810.559 101.341Z" fill="#333333"/>
<path d="M811.981 104.28C811.781 104.28 811.584 104.241 811.399 104.165C811.215 104.088 811.047 103.976 810.906 103.835L791.46 84.389C791.319 84.2478 791.207 84.0802 791.13 83.8958C791.054 83.7113 791.015 83.5136 791.015 83.314C791.015 83.1143 791.054 82.9166 791.13 82.7322C791.207 82.5477 791.319 82.3802 791.46 82.239C791.601 82.0978 791.769 81.9858 791.953 81.9094C792.138 81.833 792.335 81.7937 792.535 81.7937C792.735 81.7937 792.932 81.833 793.117 81.9094C793.301 81.9858 793.469 82.0978 793.61 82.239L813.056 101.685C813.269 101.898 813.413 102.168 813.472 102.463C813.531 102.758 813.501 103.064 813.386 103.342C813.271 103.62 813.076 103.857 812.826 104.024C812.576 104.191 812.282 104.28 811.981 104.28Z" fill="#333333"/>
<path d="M117 234C181.617 234 234 181.617 234 117C234 52.3827 181.617 0 117 0C52.3827 0 0 52.3827 0 117C0 181.617 52.3827 234 117 234Z" fill="#F6F6F6"/>
<path d="M80.542 119.267V159.806L82.975 163.18L84.513 164.695H150.165L152.621 161.183L153.539 117.729L116.811 88.645L80.542 119.267Z" fill="white"/>
<path d="M73.187 123.914C72.8884 123.914 72.59 123.899 72.293 123.869C70.5873 123.699 68.9703 123.026 67.647 121.937C66.3237 120.847 65.3534 119.389 64.8591 117.748C64.3649 116.107 64.3688 114.355 64.8704 112.716C65.372 111.077 66.3488 109.624 67.677 108.54L79.827 98.6229C79.9813 98.4917 80.1603 98.3925 80.3534 98.3313C80.5465 98.2701 80.7499 98.248 80.9516 98.2663C81.1534 98.2846 81.3494 98.343 81.5283 98.4381C81.7072 98.5331 81.8654 98.6629 81.9935 98.8198C82.1216 98.9768 82.2171 99.1576 82.2745 99.3519C82.3318 99.5462 82.3498 99.7501 82.3274 99.9514C82.305 100.153 82.2427 100.348 82.144 100.525C82.0454 100.701 81.9125 100.857 81.753 100.982L69.605 110.898C68.7431 111.6 68.1092 112.543 67.7837 113.606C67.4582 114.669 67.4556 115.805 67.7764 116.87C68.0972 117.935 68.7269 118.88 69.5856 119.587C70.4443 120.293 71.4935 120.728 72.6 120.838C73.3334 120.916 74.075 120.847 74.7817 120.636C75.4884 120.425 76.1463 120.076 76.717 119.609L115.929 87.5899C116.3 87.2857 116.765 87.12 117.245 87.1211C117.724 87.1222 118.189 87.29 118.558 87.5959L157.758 119.608C158.329 120.086 158.989 120.447 159.699 120.668C160.41 120.889 161.158 120.967 161.9 120.897C162.641 120.827 163.361 120.61 164.018 120.259C164.674 119.909 165.255 119.431 165.726 118.854C166.197 118.277 166.548 117.612 166.76 116.899C166.972 116.185 167.039 115.436 166.959 114.696C166.879 113.955 166.653 113.238 166.294 112.586C165.934 111.934 165.449 111.36 164.866 110.897L120.52 74.6789C119.613 73.9524 118.482 73.5636 117.32 73.5789H117.162C115.999 73.5663 114.868 73.9575 113.962 74.6859L86.306 97.2609C86.1511 97.3875 85.9728 97.4822 85.7813 97.5399C85.5898 97.5975 85.3888 97.6168 85.1898 97.5968C84.9908 97.5767 84.7977 97.5177 84.6215 97.423C84.4453 97.3283 84.2895 97.1998 84.163 97.0449C84.0365 96.89 83.9417 96.7117 83.8841 96.5202C83.8264 96.3287 83.8071 96.1277 83.8272 95.9287C83.8472 95.7297 83.9063 95.5366 84.001 95.3604C84.0956 95.1842 84.2241 95.0285 84.379 94.9019L112.03 72.3199C113.499 71.1231 115.346 70.4883 117.24 70.5289H117.326C119.188 70.5117 120.998 71.1447 122.444 72.3189L166.796 108.54C168.552 110.001 169.659 112.097 169.878 114.371C170.097 116.644 169.41 118.913 167.965 120.682C166.521 122.452 164.437 123.58 162.165 123.821C159.894 124.062 157.619 123.397 155.835 121.97L117.235 90.4539L78.635 121.969C77.0989 123.228 75.1734 123.916 73.187 123.914Z" fill="#333333"/>
<path d="M149.353 97.4948C148.949 97.4948 148.562 97.3344 148.276 97.0488C147.99 96.7631 147.83 96.3757 147.83 95.9718V79.9188C147.83 78.3773 147.218 76.8988 146.128 75.8088C145.038 74.7187 143.559 74.1063 142.017 74.1063C140.476 74.1063 138.997 74.7187 137.907 75.8088C136.817 76.8988 136.205 78.3773 136.205 79.9188V84.0308C136.205 84.4347 136.045 84.8221 135.759 85.1077C135.473 85.3933 135.086 85.5538 134.682 85.5538C134.278 85.5538 133.891 85.3933 133.605 85.1077C133.319 84.8221 133.159 84.4347 133.159 84.0308V79.9188C133.159 78.7556 133.388 77.6037 133.833 76.529C134.278 75.4543 134.931 74.4778 135.753 73.6553C136.576 72.8327 137.552 72.1803 138.627 71.7351C139.702 71.29 140.854 71.0608 142.017 71.0608C143.18 71.0608 144.332 71.29 145.407 71.7351C146.482 72.1803 147.458 72.8327 148.281 73.6553C149.103 74.4778 149.756 75.4543 150.201 76.529C150.646 77.6037 150.875 78.7556 150.875 79.9188V95.9708C150.875 96.1708 150.836 96.3689 150.759 96.5537C150.683 96.7385 150.571 96.9065 150.43 97.048C150.288 97.1896 150.12 97.3018 149.936 97.3785C149.751 97.4551 149.553 97.4947 149.353 97.4948Z" fill="#333333"/>
<path d="M147.542 166.13H86.294C85.3619 166.173 84.4314 166.017 83.5644 165.672C82.6974 165.327 81.9139 164.801 81.266 164.13C79.8593 162.394 79.1467 160.197 79.266 157.966V118.266H82.312V158.122C82.2349 159.537 82.6579 160.934 83.507 162.069C83.8728 162.428 84.3108 162.704 84.7918 162.881C85.2728 163.058 85.7859 163.13 86.297 163.093H147.545C148.056 163.13 148.569 163.057 149.049 162.881C149.53 162.704 149.967 162.427 150.333 162.069C151.185 160.933 151.61 159.533 151.533 158.115V158.015V118.257H154.579V157.957C154.698 160.188 153.985 162.385 152.579 164.122C151.931 164.796 151.146 165.324 150.278 165.67C149.409 166.017 148.476 166.173 147.542 166.13Z" fill="#333333"/>
<path d="M130.708 134.34H110.86C110.308 134.34 109.86 134.788 109.86 135.34V157.174C109.86 157.726 110.308 158.174 110.86 158.174H130.708C131.26 158.174 131.708 157.726 131.708 157.174V135.34C131.708 134.788 131.26 134.34 130.708 134.34Z" fill="#A48379"/>
<path d="M125.37 158.451H109.884C108.327 158.517 106.807 157.965 105.655 156.915C104.504 155.864 103.815 154.401 103.739 152.844C103.739 152.44 103.899 152.053 104.185 151.767C104.471 151.481 104.858 151.321 105.262 151.321C105.666 151.321 106.053 151.481 106.339 151.767C106.625 152.053 106.785 152.44 106.785 152.844C106.864 153.592 107.232 154.279 107.812 154.757C108.392 155.236 109.136 155.469 109.885 155.405H125.37C126.119 155.469 126.863 155.236 127.443 154.757C128.023 154.279 128.391 153.592 128.47 152.844V138.558C128.47 138.154 128.63 137.767 128.916 137.481C129.202 137.195 129.589 137.035 129.993 137.035C130.397 137.035 130.784 137.195 131.07 137.481C131.356 137.767 131.516 138.154 131.516 138.558V152.844C131.44 154.401 130.751 155.864 129.599 156.915C128.448 157.966 126.927 158.518 125.37 158.451Z" fill="#333333"/>
<path d="M105.262 146.39C104.858 146.39 104.471 146.229 104.185 145.944C103.899 145.658 103.739 145.271 103.739 144.867V131.738C103.739 128.882 106.496 126.559 109.884 126.559H125.37C128.758 126.559 131.515 128.882 131.515 131.738C131.515 132.142 131.355 132.529 131.069 132.815C130.783 133.1 130.396 133.261 129.992 133.261C129.588 133.261 129.201 133.1 128.915 132.815C128.629 132.529 128.469 132.142 128.469 131.738C128.469 130.582 127.05 129.605 125.369 129.605H109.884C108.204 129.605 106.784 130.582 106.784 131.738V144.864C106.784 145.064 106.745 145.262 106.669 145.447C106.593 145.632 106.481 145.801 106.339 145.942C106.198 146.084 106.03 146.197 105.845 146.273C105.66 146.35 105.462 146.39 105.262 146.39Z" fill="#333333"/>
<path d="M117.628 158.45C117.224 158.45 116.837 158.289 116.551 158.004C116.265 157.718 116.105 157.331 116.105 156.927V128.082C116.105 127.678 116.265 127.291 116.551 127.005C116.837 126.719 117.224 126.559 117.628 126.559C118.032 126.559 118.419 126.719 118.705 127.005C118.991 127.291 119.151 127.678 119.151 128.082V156.927C119.151 157.331 118.991 157.718 118.705 158.004C118.419 158.289 118.032 158.45 117.628 158.45Z" fill="#333333"/>
<path d="M127.823 108.732H105.379C104.999 108.732 104.691 109.04 104.691 109.42V117.835C104.691 118.215 104.999 118.523 105.379 118.523H127.823C128.203 118.523 128.511 118.215 128.511 117.835V109.42C128.511 109.04 128.203 108.732 127.823 108.732Z" fill="white"/>
<path d="M106.788 107.209H126.414C127.374 107.21 128.294 107.592 128.973 108.27C129.651 108.949 130.033 109.869 130.034 110.829V116.429C130.033 117.389 129.651 118.309 128.973 118.988C128.294 119.666 127.374 120.048 126.414 120.049H106.788C105.828 120.048 104.907 119.666 104.228 118.986C103.55 118.307 103.168 117.386 103.168 116.426V110.829C103.169 109.869 103.551 108.949 104.229 108.27C104.908 107.592 105.828 107.21 106.788 107.209ZM126.414 117C126.566 117 126.712 116.939 126.82 116.832C126.927 116.724 126.988 116.578 126.988 116.426V110.829C126.988 110.677 126.927 110.531 126.82 110.423C126.712 110.316 126.566 110.255 126.414 110.255H106.788C106.636 110.255 106.49 110.316 106.382 110.423C106.275 110.531 106.214 110.677 106.214 110.829V116.429C106.214 116.581 106.275 116.727 106.382 116.835C106.49 116.942 106.636 117.003 106.788 117.003L126.414 117Z" fill="#333333"/>
<path d="M160.909 166.13H74.398C73.9941 166.13 73.6067 165.97 73.3211 165.684C73.0355 165.398 72.875 165.011 72.875 164.607C72.875 164.203 73.0355 163.816 73.3211 163.53C73.6067 163.244 73.9941 163.084 74.398 163.084H160.909C161.313 163.084 161.7 163.244 161.986 163.53C162.272 163.816 162.432 164.203 162.432 164.607C162.432 165.011 162.272 165.398 161.986 165.684C161.7 165.97 161.313 166.13 160.909 166.13Z" fill="#333333"/>
</g>
<defs>
<clipPath id="clip0_126_2">
<rect width="936" height="234" fill="white"/>
</clipPath>
</defs>
</svg>
