<svg xmlns="http://www.w3.org/2000/svg" width="44" height="44" viewBox="0 0 44 44">
  <g id="icon_man" transform="translate(-48.424 -694.424)">
    <rect id="사각형_10579" data-name="사각형 10579" width="44" height="44" transform="translate(48.424 694.424)" fill="none"/>
    <path id="패스_53863" data-name="패스 53863" d="M1802.653,648.565v5.965a8.043,8.043,0,1,0,3.48,0v-5.965l2.615,2.6,2.461-2.447-5.585-5.555a1.747,1.747,0,0,0-2.461,0l-5.584,5.555,2.46,2.447Zm6.3,13.77a4.563,4.563,0,1,1-4.563-4.538A4.556,4.556,0,0,1,1808.956,662.334Z" transform="translate(-1733.928 60.417)" fill="#fff"/>
    <path id="패스_53863_-_윤곽선" data-name="패스 53863 - 윤곽선" d="M1804.393,642.157a2.26,2.26,0,0,1,1.582.652l5.585,5.555a.5.5,0,0,1,0,.709l-2.461,2.447a.5.5,0,0,1-.705,0l-1.763-1.753v4.37a8.6,8.6,0,0,1,4.389,2.844,8.542,8.542,0,1,1-13.256,0,8.6,8.6,0,0,1,4.388-2.844v-4.37l-1.762,1.753a.5.5,0,0,1-.705,0l-2.46-2.447a.5.5,0,0,1,0-.709l5.584-5.555A2.267,2.267,0,0,1,1804.393,642.157Zm6.106,6.562-5.229-5.2a1.247,1.247,0,0,0-1.756,0l-5.227,5.2,1.751,1.742,2.262-2.25a.5.5,0,0,1,.853.354v5.965a.5.5,0,0,1-.392.488,7.543,7.543,0,1,0,3.264,0,.5.5,0,0,1-.392-.488v-5.965a.5.5,0,0,1,.853-.354l2.263,2.251Zm-6.106,8.577a5.038,5.038,0,1,1-5.063,5.038A5.056,5.056,0,0,1,1804.393,657.3Zm0,9.076a4.038,4.038,0,1,0-4.063-4.038A4.055,4.055,0,0,0,1804.393,666.372Z" transform="translate(-1733.928 60.417)" fill="#333"/>
    <circle id="타원_1314" data-name="타원 1314" cx="4.709" cy="4.709" r="4.709" transform="translate(67.213 719.059)" fill="#7e4f40" opacity="0.7"/>
  </g>
</svg>
