<svg xmlns="http://www.w3.org/2000/svg" width="44" height="44" viewBox="0 0 44 44">
  <g id="icon_injection" transform="translate(-51.24 -697.24)">
    <rect id="사각형_10579" data-name="사각형 10579" width="44" height="44" transform="translate(51.24 697.24)" fill="none"/>
    <g id="그룹_33526" data-name="그룹 33526" transform="translate(-208.521 320.695)">
      <rect id="사각형_10598" data-name="사각형 10598" width="2.623" height="10.813" transform="translate(287.155 396.87) rotate(45)" fill="#7e4f40" opacity="0.7"/>
      <path id="사각형_10599" data-name="사각형 10599" d="M0-.5H7.813a.5.5,0,0,1,.5.5V17.67a.5.5,0,0,1-.5.5H0a.5.5,0,0,1-.5-.5V0A.5.5,0,0,1,0-.5ZM7.313.5H.5V17.17H7.313Z" transform="translate(282.695 392.2) rotate(45)" fill="#333"/>
      <path id="사각형_10600" data-name="사각형 10600" d="M0-.5H5.49a.5.5,0,0,1,.5.5V7.068a.5.5,0,0,1-.5.5H0a.5.5,0,0,1-.5-.5V0A.5.5,0,0,1,0-.5ZM4.99.5H.5V6.568H4.99Z" transform="translate(290.29 386.247) rotate(45)" fill="#333"/>
      <path id="사각형_10601" data-name="사각형 10601" d="M0-.5H4.134a.5.5,0,0,1,.5.5V4.446a.5.5,0,0,1-.5.5H0a.5.5,0,0,1-.5-.5V0A.5.5,0,0,1,0-.5ZM3.634.5H.5V3.946H3.634Z" transform="translate(271.501 405.995) rotate(45)" fill="#333"/>
      <path id="선_1012" data-name="선 1012" d="M0,3.732a.5.5,0,0,1-.354-.146.5.5,0,0,1,0-.707L2.878-.354a.5.5,0,0,1,.707,0,.5.5,0,0,1,0,.707L.354,3.585A.5.5,0,0,1,0,3.732Z" transform="translate(266.587 410.6)" fill="#333"/>
      <rect id="사각형_10602" data-name="사각형 10602" width="13.825" height="2.511" rx="0.994" transform="translate(282.345 388.299) rotate(45)" fill="#fff"/>
      <path id="사각형_10602_-_윤곽선" data-name="사각형 10602 - 윤곽선" d="M.994-.5H12.831A1.5,1.5,0,0,1,14.325.994v.524a1.5,1.5,0,0,1-1.494,1.494H.994A1.5,1.5,0,0,1-.5,1.518V.994A1.5,1.5,0,0,1,.994-.5ZM12.831,2.011a.494.494,0,0,0,.494-.494V.994A.494.494,0,0,0,12.831.5H.994A.494.494,0,0,0,.5.994v.524a.494.494,0,0,0,.494.494Z" transform="translate(282.345 388.299) rotate(45)" fill="#333"/>
      <rect id="사각형_10603" data-name="사각형 10603" width="8.815" height="2.511" rx="0.994" transform="translate(290.775 383.368) rotate(45)" fill="#fff"/>
      <path id="사각형_10603_-_윤곽선" data-name="사각형 10603 - 윤곽선" d="M.994-.5H7.821A1.5,1.5,0,0,1,9.315.994v.524A1.5,1.5,0,0,1,7.821,3.011H.994A1.5,1.5,0,0,1-.5,1.518V.994A1.5,1.5,0,0,1,.994-.5ZM7.821,2.011a.494.494,0,0,0,.494-.494V.994A.494.494,0,0,0,7.821.5H.994A.494.494,0,0,0,.5.994v.524a.494.494,0,0,0,.494.494Z" transform="translate(290.775 383.368) rotate(45)" fill="#333"/>
      <rect id="사각형_10604" data-name="사각형 10604" width="7.813" height="6.857" transform="translate(275.049 399.846) rotate(45)" fill="#a48379"/>
      <path id="사각형_10604_-_윤곽선" data-name="사각형 10604 - 윤곽선" d="M0-.5H7.813a.5.5,0,0,1,.5.5V6.857a.5.5,0,0,1-.5.5H0a.5.5,0,0,1-.5-.5V0A.5.5,0,0,1,0-.5ZM7.313.5H.5V6.357H7.313Z" transform="translate(275.049 399.846) rotate(45)" fill="#333"/>
      <path id="선_1013" data-name="선 1013" d="M1.462,1.962a.5.5,0,0,1-.354-.146L-.354.354a.5.5,0,0,1,0-.707.5.5,0,0,1,.707,0L1.815,1.108a.5.5,0,0,1-.354.854Z" transform="translate(283.356 397.063)" fill="#333"/>
      <path id="선_1014" data-name="선 1014" d="M1.462,1.962a.5.5,0,0,1-.354-.146L-.354.354a.5.5,0,0,1,0-.707.5.5,0,0,1,.707,0L1.815,1.108a.5.5,0,0,1-.354.854Z" transform="translate(281.634 398.785)" fill="#333"/>
      <path id="선_1015" data-name="선 1015" d="M1.462,1.962a.5.5,0,0,1-.354-.146L-.354.354a.5.5,0,0,1,0-.707.5.5,0,0,1,.707,0L1.815,1.108a.5.5,0,0,1-.354.854Z" transform="translate(279.912 400.507)" fill="#333"/>
      <path id="패스_53798" data-name="패스 53798" d="M285.075,406.73a2.39,2.39,0,1,1-4.78,0c0-1.319,2.391-5.664,2.391-5.664S285.075,405.41,285.075,406.73Z" transform="translate(3.614 4.666)" fill="#a48379"/>
      <path id="패스_53798_-_윤곽선" data-name="패스 53798 - 윤곽선" d="M282.686,409.62a2.894,2.894,0,0,1-2.891-2.891c0-1.407,2.2-5.448,2.453-5.9a.5.5,0,0,1,.438-.259h0a.5.5,0,0,1,.438.259c.251.456,2.451,4.5,2.451,5.9A2.893,2.893,0,0,1,282.686,409.62Zm0-7.494a17.916,17.916,0,0,0-1.891,4.6,1.89,1.89,0,1,0,3.78,0A17.92,17.92,0,0,0,282.686,402.126Z" transform="translate(3.614 4.666)" fill="#333"/>
    </g>
  </g>
</svg>
