<svg xmlns="http://www.w3.org/2000/svg" width="44" height="44" viewBox="0 0 44 44">
  <g id="icon_stoma" transform="translate(-51.24 -697.24)">
    <rect id="사각형_10579" data-name="사각형 10579" width="44" height="44" transform="translate(51.24 697.24)" fill="none"/>
    <g id="그룹_33478" data-name="그룹 33478" transform="translate(-317.135 -30.459)">
      <path id="패스_53638" data-name="패스 53638" d="M398.387,756.282s-.6-1.862-3.83-.493c0,0-2.8.668-2.336,2.709a4.131,4.131,0,0,0-.447,5.518s-.273,2.006,1.581,1.611a1.554,1.554,0,0,0,2.029.573s2.708.7,3.681-1.079c0,0,1.921-.03,1.717-2.734C400.781,762.387,402.693,758.115,398.387,756.282Z" transform="translate(1.962 2.984)" fill="#7e4f40" opacity="0.7"/>
      <path id="패스_53639" data-name="패스 53639" d="M382.394,762.162a2.721,2.721,0,0,1-2.718-2.718V746.528a2.722,2.722,0,0,1,2.718-2.719,2.682,2.682,0,0,1,1.555.5,13.6,13.6,0,0,0,9.834.9.5.5,0,0,1,.3.954,13.508,13.508,0,0,1-6.578.354,15.833,15.833,0,0,1-4.035-1.324.5.5,0,0,1-.074-.045,1.692,1.692,0,0,0-1-.333,1.721,1.721,0,0,0-1.718,1.719v12.915a1.719,1.719,0,0,0,3.438,0v-.829a.5.5,0,0,1,1,0v.829A2.722,2.722,0,0,1,382.394,762.162Z" transform="translate(0.666 1.656)" fill="#333"/>
      <path id="패스_53640" data-name="패스 53640" d="M397.958,758.023a.5.5,0,0,1-.5-.5v-11a1.721,1.721,0,0,0-1.719-1.719,1.689,1.689,0,0,0-1.029.356.509.509,0,0,1-.069.044c-.12.064-.231.121-.337.175a.5.5,0,0,1-.451-.893c.09-.046.184-.094.285-.148a2.677,2.677,0,0,1,1.6-.535,2.722,2.722,0,0,1,2.719,2.719v11A.5.5,0,0,1,397.958,758.023Z" transform="translate(2.347 1.656)" fill="#333"/>
      <path id="선_951" data-name="선 951" d="M1.006.5H0A.5.5,0,0,1-.5,0,.5.5,0,0,1,0-.5H1.006a.5.5,0,0,1,.5.5A.5.5,0,0,1,1.006.5Z" transform="translate(390.818 764.586)" fill="#333"/>
      <path id="패스_53641" data-name="패스 53641" d="M392.686,749.61a.5.5,0,0,1-.184-.965,11.316,11.316,0,0,0,1.57-.77.5.5,0,1,1,.507.862,12.316,12.316,0,0,1-1.71.838A.5.5,0,0,1,392.686,749.61Z" transform="translate(2.179 2.14)" fill="#333"/>
      <path id="패스_53642" data-name="패스 53642" d="M389.553,750.413a14.042,14.042,0,0,1-6.59-1.676.5.5,0,0,1,.508-.861h0a13.113,13.113,0,0,0,7.905,1.393.5.5,0,0,1,.159.987A12.454,12.454,0,0,1,389.553,750.413Z" transform="translate(1.034 2.14)" fill="#333"/>
      <path id="패스_53644" data-name="패스 53644" d="M384.445,753.037a.5.5,0,0,1-.354-.146l-.819-.819a2.475,2.475,0,0,1-.41-2.944.5.5,0,1,1,.874.486,1.472,1.472,0,0,0,.242,1.75l.82.82a.5.5,0,0,1-.354.854Z" transform="translate(1.014 2.268)" fill="#7e4f40"/>
      <path id="패스_53645" data-name="패스 53645" d="M386,754.386a.5.5,0,0,1,0-1,1.465,1.465,0,0,0,1.035-2.5.5.5,0,0,1,.707-.707A2.463,2.463,0,0,1,386,754.386Z" transform="translate(1.37 2.409)" fill="#7e4f40"/>
      <path id="패스_53646" data-name="패스 53646" d="M386.225,758.171h-.985a3.282,3.282,0,1,1,0-6.563h.735a.5.5,0,0,1,0,1h-.735a2.282,2.282,0,1,0,0,4.563h.985a.5.5,0,1,1,0,1Z" transform="translate(0.942 2.599)" fill="#7e4f40"/>
      <path id="패스_53647" data-name="패스 53647" d="M389.214,756.968a.5.5,0,0,1-.5-.5,3.087,3.087,0,0,1,.872-2.156.5.5,0,0,1,.719.695,2.092,2.092,0,0,0-.592,1.461A.5.5,0,0,1,389.214,756.968Z" transform="translate(1.759 2.908)" fill="#7e4f40"/>
      <path id="패스_53648" data-name="패스 53648" d="M387.942,759.462a2.628,2.628,0,0,1-2.093-4.214.5.5,0,1,1,.8.6,1.629,1.629,0,1,0,2.6,1.966l.132-.175a.5.5,0,1,1,.8.6l-.132.175A2.629,2.629,0,0,1,387.942,759.462Z" transform="translate(1.348 3.015)" fill="#7e4f40"/>
      <path id="패스_53649" data-name="패스 53649" d="M391.975,754.962a.5.5,0,0,1-.472-.664,1.628,1.628,0,0,0-2.334-1.957.5.5,0,1,1-.485-.874,2.628,2.628,0,0,1,3.764,3.159A.5.5,0,0,1,391.975,754.962Z" transform="translate(1.724 2.542)" fill="#7e4f40"/>
      <path id="패스_53650" data-name="패스 53650" d="M389.315,761.764a2.722,2.722,0,0,1-2.718-2.719,2.677,2.677,0,0,1,.27-1.177.5.5,0,1,1,.9.436,1.685,1.685,0,0,0-.17.741,1.721,1.721,0,0,0,1.718,1.719.5.5,0,0,1,0,1Z" transform="translate(1.503 3.322)" fill="#333"/>
      <path id="패스_53651" data-name="패스 53651" d="M395.027,755.765l-.049,0a.5.5,0,0,1-.449-.546,10.855,10.855,0,0,0-.52-4.245l-.009-.026c-.02-.065-.531-1.628-1.986-1.42a1.278,1.278,0,0,0-1.181,1.255.5.5,0,0,1-.992-.126,2.287,2.287,0,0,1,2.032-2.119,2.873,2.873,0,0,1,3.079,2.1,11.762,11.762,0,0,1,.572,4.674A.5.5,0,0,1,395.027,755.765Z" transform="translate(1.895 2.224)" fill="#7e4f40"/>
      <path id="패스_53652" data-name="패스 53652" d="M390.472,759a.5.5,0,0,1-.258-.072,3.078,3.078,0,0,1-1.5-2.655.5.5,0,0,1,1,0,2.086,2.086,0,0,0,1.017,1.8.5.5,0,0,1-.259.928Z" transform="translate(1.759 3.103)" fill="#7e4f40"/>
      <g id="그룹_33477" data-name="그룹 33477" transform="translate(391.695 757.489)">
        <path id="패스_53653" data-name="패스 53653" d="M391.806,765.4a1.569,1.569,0,0,1-1.12-.407,2.108,2.108,0,0,1-.53-1.63,4.693,4.693,0,0,1-.5-4.243,5.2,5.2,0,0,1,.952-1.585,2.488,2.488,0,0,1,1.859-2.509,2.685,2.685,0,0,0,.3-.132,4.5,4.5,0,0,1,3.646-.7c1.433.292,1.413,1.342,1.372,1.656a1.806,1.806,0,0,1-.16.549l-.894-.447,0,0a.859.859,0,0,0,.064-.232c.019-.148.054-.422-.58-.551a3.733,3.733,0,0,0-2.723.415,1.711,1.711,0,0,1-.644.368c-.653.265-1.329.539-1.226,1.725a.5.5,0,0,1-.155.408,3.774,3.774,0,0,0-.371,4.881.5.5,0,0,1,.076.347,1.3,1.3,0,0,0,.211.954.869.869,0,0,0,.774.093.5.5,0,1,1,.2.979A2.7,2.7,0,0,1,391.806,765.4Z" transform="translate(-389.858 -754.589)" fill="#333"/>
        <path id="패스_53654" data-name="패스 53654" d="M395.255,765.123a5.158,5.158,0,0,1-1.29-.168,1.96,1.96,0,0,1-1.714-.382,1.841,1.841,0,0,1-.516-1.472.5.5,0,0,1,.995.1.879.879,0,0,0,.2.636,1.207,1.207,0,0,0,.966.111.5.5,0,0,1,.249.016,3.48,3.48,0,0,0,2.317-.105,2.074,2.074,0,0,0,1.018-1.306.5.5,0,0,1,.954.3,3.063,3.063,0,0,1-1.518,1.9A3.63,3.63,0,0,1,395.255,765.123Z" transform="translate(-389.571 -753.608)" fill="#333"/>
        <path id="패스_53657" data-name="패스 53657" d="M397.891,762.058l-.12-.993-.013,0c.029-.005.713-.143.891-1.429a2.76,2.76,0,0,0-1.578-3.212.5.5,0,1,1,.325-.946,3.477,3.477,0,0,1,1.313.9,3.962,3.962,0,0,1,.93,3.4C399.351,761.858,397.951,762.051,397.891,762.058Z" transform="translate(-388.966 -754.425)" fill="#333"/>
        <path id="패스_53659" data-name="패스 53659" d="M396.06,760.944a.5.5,0,0,1-.253-.069c-1.044-.614-.8-2.148-.792-2.213a2.319,2.319,0,0,1,1.423-1.639.5.5,0,0,1,.353.936,1.327,1.327,0,0,0-.79.867c-.037.236-.061.967.313,1.187a.5.5,0,0,1-.254.931Z" transform="translate(-389.178 -754.239)" fill="#333"/>
        <path id="패스_53661" data-name="패스 53661" d="M395.084,762.267a.5.5,0,0,1-.485-.379,2.067,2.067,0,0,1,.32-1.715,1.829,1.829,0,0,1,1.637-.545.5.5,0,1,1-.079,1,.98.98,0,0,0-.795.195,1.107,1.107,0,0,0-.113.827.5.5,0,0,1-.485.621Z" transform="translate(-389.232 -753.921)" fill="#333"/>
        <path id="패스_53663" data-name="패스 53663" d="M393.118,762.2a.5.5,0,0,1-.449-.718,2.539,2.539,0,0,1,1.379-1.253,1.824,1.824,0,0,1,1.473.216.5.5,0,1,1-.5.863.835.835,0,0,0-.676-.123,1.558,1.558,0,0,0-.775.738A.5.5,0,0,1,393.118,762.2Z" transform="translate(-389.464 -753.856)" fill="#333"/>
      </g>
      <path id="패스_53664" data-name="패스 53664" d="M374.668,765.183a.5.5,0,0,1-.5-.5V752.356A13.465,13.465,0,0,1,387.6,738.928h5.79a13.36,13.36,0,0,1,6.933,1.941.5.5,0,0,1-.519.855,12.359,12.359,0,0,0-6.414-1.8H387.6a12.442,12.442,0,0,0-12.428,12.428v12.328A.5.5,0,0,1,374.668,765.183Z" transform="translate(0 1.066)" fill="#333"/>
      <path id="패스_53666" data-name="패스 53666" d="M403.372,764.833a.5.5,0,0,1-.5-.5V752.006a12.437,12.437,0,0,0-4.218-9.31.5.5,0,1,1,.662-.75,13.437,13.437,0,0,1,4.556,10.06v12.328A.5.5,0,0,1,403.372,764.833Z" transform="translate(2.94 1.416)" fill="#333"/>
      <path id="타원_1286" data-name="타원 1286" d="M3.734-.5A4.234,4.234,0,1,1-.5,3.734,4.239,4.239,0,0,1,3.734-.5Zm0,7.469A3.234,3.234,0,1,0,.5,3.734,3.238,3.238,0,0,0,3.734,6.969Z" transform="translate(386.644 730.611)" fill="#333"/>
    </g>
  </g>
</svg>
