<svg xmlns="http://www.w3.org/2000/svg" width="44" height="44" viewBox="0 0 44 44">
  <g id="icon_sick-search" transform="translate(-48.424 -694.424)">
    <rect id="사각형_10579" data-name="사각형 10579" width="44" height="44" transform="translate(48.424 694.424)" fill="none"/>
    <g id="그룹_33542" data-name="그룹 33542" transform="translate(-309.019 428.394)">
      <path id="패스_53818" data-name="패스 53818" d="M400.642,300.7H357.853l2.493-3.4h37.8Z" transform="translate(0 0.564)" fill="#7e4f40" opacity="0.7"/>
      <path id="타원_1306" data-name="타원 1306" d="M3.15-.5A3.65,3.65,0,1,1-.5,3.15,3.654,3.654,0,0,1,3.15-.5Zm0,6.3A2.65,2.65,0,1,0,.5,3.15,2.653,2.653,0,0,0,3.15,5.8Z" transform="translate(376.645 274.61)" fill="#333"/>
      <path id="패스_53819" data-name="패스 53819" d="M364.354,293.965a.5.5,0,0,1-.424-.764l3.274-5.254c.251-.4.5-.815.747-1.215.319-.522.649-1.062.983-1.589a6.577,6.577,0,0,1,2.006-2.1,8.906,8.906,0,0,1,3.683-1.356,33.244,33.244,0,0,1,4.363-.143c.472.006.914,0,1.342-.007a15.377,15.377,0,0,1,3.933.3.5.5,0,0,1-.224.975,14.367,14.367,0,0,0-3.695-.272c-.435.006-.884.013-1.369.007a32.493,32.493,0,0,0-4.232.136,7.9,7.9,0,0,0-3.263,1.2,5.606,5.606,0,0,0-1.7,1.792c-.33.521-.658,1.058-.975,1.576-.245.4-.5.816-.752,1.222l-3.274,5.254A.5.5,0,0,1,364.354,293.965Z" transform="translate(0.162 0.184)" fill="#333"/>
      <path id="선_1022" data-name="선 1022" d="M0,5.849a.5.5,0,0,1-.238-.06.5.5,0,0,1-.2-.678L2.454-.238a.5.5,0,0,1,.678-.2.5.5,0,0,1,.2.678L.44,5.586A.5.5,0,0,1,0,5.849Z" transform="translate(369.927 288.009)" fill="#333"/>
      <path id="패스_53820" data-name="패스 53820" d="M373.482,298.25h-7.66a2.838,2.838,0,0,1-2.492-4.2.5.5,0,0,1,.877.48,1.838,1.838,0,0,0,1.615,2.72h7.66a1.841,1.841,0,1,0,0-3.682h-6.539a.5.5,0,0,1,0-1h6.539a2.841,2.841,0,1,1,0,5.682Z" transform="translate(0.14 0.459)" fill="#333"/>
      <path id="패스_53821" data-name="패스 53821" d="M380.733,297.6h-4.441a.5.5,0,0,1,0-1h4.441a.5.5,0,0,1,0,1Z" transform="translate(0.458 0.559)" fill="#333"/>
      <path id="선_1023" data-name="선 1023" d="M2.148.5H0A.5.5,0,0,1-.5,0,.5.5,0,0,1,0-.5H2.148a.5.5,0,0,1,.5.5A.5.5,0,0,1,2.148.5Z" transform="translate(360.593 297.66)" fill="#333"/>
      <g id="그룹_33541" data-name="그룹 33541" transform="translate(384.203 275.446)">
        <g id="그룹_33535" data-name="그룹 33535" transform="translate(0 5.354)">
          <g id="그룹_33534" data-name="그룹 33534">
            <g id="그룹_33533" data-name="그룹 33533">
              <g id="그룹_33532" data-name="그룹 33532">
                <g id="그룹_33531" data-name="그룹 33531" transform="translate(1.538 1.539)">
                  <path id="패스_53822" data-name="패스 53822" d="M390.237,292.514a5.139,5.139,0,0,1-2.552-.673.238.238,0,1,1,.236-.414,4.707,4.707,0,0,0,5.7-7.372,4.707,4.707,0,1,0-6.752,6.559.238.238,0,1,1-.342.332,5.184,5.184,0,1,1,7.33.107A5.2,5.2,0,0,1,390.237,292.514Z" transform="translate(-385.065 -282.152)" fill="#333"/>
                  <path id="패스_53822_-_윤곽선" data-name="패스 53822 - 윤곽선" d="M390.237,292.764a5.4,5.4,0,0,1-2.676-.706.488.488,0,0,1-.184-.665.49.49,0,0,1,.666-.185,4.457,4.457,0,1,0,2.27-8.33h-.082a4.457,4.457,0,0,0-3.179,7.562.488.488,0,1,1-.7.68,5.433,5.433,0,0,1,3.916-9.218h.059a5.431,5.431,0,0,1-.089,10.862Z" transform="translate(-385.065 -282.152)" fill="#333"/>
                </g>
                <path id="패스_53823" data-name="패스 53823" d="M398.757,297.307h-.021a1.316,1.316,0,0,1-.93-.4l-3.877-3.885a6.722,6.722,0,1,1-3.647-12.37h.1a6.722,6.722,0,0,1,6.459,5.235.238.238,0,1,1-.465.1,6.246,6.246,0,1,0-2.551,6.525.239.239,0,0,1,.3.028l4.017,4.027a.84.84,0,0,0,.6.259.846.846,0,0,0,.619-1.437l-4.014-4.024a.238.238,0,0,1-.024-.31,6.21,6.21,0,0,0,1.2-3.487.243.243,0,0,1,.247-.231.238.238,0,0,1,.231.246,6.684,6.684,0,0,1-1.176,3.586l3.875,3.884a1.324,1.324,0,0,1-.946,2.249Z" transform="translate(-383.564 -280.65)" fill="#333"/>
                <path id="패스_53823_-_윤곽선" data-name="패스 53823 - 윤곽선" d="M398.757,297.557h-.029a1.562,1.562,0,0,1-1.1-.476l-3.734-3.742a6.972,6.972,0,1,1-3.611-12.938h.108a6.972,6.972,0,0,1,6.7,5.43.488.488,0,1,1-.953.214,6,6,0,0,0-5.76-4.668h-.094a6,6,0,1,0,3.406,10.933.483.483,0,0,1,.277-.086.489.489,0,0,1,.345.142l4.019,4.028a.6.6,0,0,0,.423.186h.011a.6.6,0,0,0,.414-.169.6.6,0,0,0,.011-.844l-4.012-4.021a.491.491,0,0,1-.048-.635,5.959,5.959,0,0,0,1.152-3.346.491.491,0,0,1,.493-.473h.008a.49.49,0,0,1,.477.5,6.949,6.949,0,0,1-1.1,3.547l3.73,3.739a1.574,1.574,0,0,1-1.123,2.675Z" transform="translate(-383.564 -280.65)" fill="#333"/>
              </g>
            </g>
          </g>
          <path id="패스_53824" data-name="패스 53824" d="M390.357,284.729a.537.537,0,1,0-.468.6A.537.537,0,0,0,390.357,284.729Z" transform="translate(-383.422 -280.56)" fill="#333"/>
          <path id="패스_53824_-_윤곽선" data-name="패스 53824 - 윤곽선" d="M389.824,284.006h0a.787.787,0,1,1-.094.006A.8.8,0,0,1,389.824,284.006Zm0,1.074.035,0a.285.285,0,0,0,.25-.318.287.287,0,1,0-.286.32Z" transform="translate(-383.422 -280.56)" fill="#333"/>
          <path id="패스_53825" data-name="패스 53825" d="M388.341,287.471a.537.537,0,1,0-.469.6A.537.537,0,0,0,388.341,287.471Z" transform="translate(-383.472 -280.492)" fill="#333"/>
          <path id="패스_53825_-_윤곽선" data-name="패스 53825 - 윤곽선" d="M387.808,286.748a.787.787,0,0,1,.781.694.786.786,0,0,1-.688.874.787.787,0,1,1-.093-1.568Zm0,1.073.034,0a.287.287,0,0,0,.192-.108.282.282,0,0,0,.059-.21.288.288,0,0,0-.319-.251.287.287,0,0,0-.251.319A.287.287,0,0,0,387.808,287.822Z" transform="translate(-383.472 -280.492)" fill="#333"/>
          <path id="패스_53826" data-name="패스 53826" d="M392.62,286.784a.537.537,0,1,0-.468.6A.537.537,0,0,0,392.62,286.784Z" transform="translate(-383.366 -280.509)" fill="#333"/>
          <path id="패스_53826_-_윤곽선" data-name="패스 53826 - 윤곽선" d="M392.087,286.061a.787.787,0,1,1-.094.006A.8.8,0,0,1,392.087,286.061Zm0,1.074.035,0a.285.285,0,0,0,.25-.318.287.287,0,1,0-.286.32Z" transform="translate(-383.366 -280.509)" fill="#333"/>
          <path id="패스_53827" data-name="패스 53827" d="M391.718,289.567a.537.537,0,1,0-.469.6A.539.539,0,0,0,391.718,289.567Z" transform="translate(-383.388 -280.44)" fill="#333"/>
          <path id="패스_53827_-_윤곽선" data-name="패스 53827 - 윤곽선" d="M391.184,288.844h0a.787.787,0,0,1,.619,1.273.787.787,0,1,1-.713-1.268A.8.8,0,0,1,391.184,288.844Zm0,1.074.035,0a.287.287,0,0,0,.251-.319.289.289,0,0,0-.32-.251.287.287,0,0,0,.033.572Z" transform="translate(-383.388 -280.44)" fill="#333"/>
        </g>
        <g id="그룹_33539" data-name="그룹 33539" transform="translate(8.797 1.529)">
          <g id="그룹_33536" data-name="그룹 33536" transform="translate(1.141)">
            <path id="패스_53828" data-name="패스 53828" d="M392.334,280.939a.312.312,0,0,1-.311-.312v-2.646a.312.312,0,1,1,.623,0v2.646A.313.313,0,0,1,392.334,280.939Z" transform="translate(-392.023 -277.669)" fill="#333"/>
            <path id="패스_53828_-_윤곽선" data-name="패스 53828 - 윤곽선" d="M392.334,281.064a.437.437,0,0,1-.436-.437v-2.646a.437.437,0,1,1,.873,0v2.646A.438.438,0,0,1,392.334,281.064Zm0-3.27a.187.187,0,0,0-.186.187v2.646a.187.187,0,1,0,.373,0v-2.646A.188.188,0,0,0,392.334,277.794Z" transform="translate(-392.023 -277.669)" fill="#333"/>
          </g>
          <g id="그룹_33537" data-name="그룹 33537" transform="translate(0 0.686)">
            <path id="패스_53829" data-name="패스 53829" d="M393.819,280.047a.318.318,0,0,1-.146-.036l-2.336-1.242a.312.312,0,1,1,.294-.551l2.335,1.242a.312.312,0,0,1-.146.587Z" transform="translate(-391.172 -278.181)" fill="#333"/>
            <path id="패스_53829_-_윤곽선" data-name="패스 53829 - 윤곽선" d="M393.819,280.172a.441.441,0,0,1-.2-.05l-2.338-1.243a.44.44,0,0,1-.181-.591.434.434,0,0,1,.385-.232.443.443,0,0,1,.206.051l2.335,1.243a.437.437,0,0,1-.2.822Zm-2.336-1.866a.185.185,0,0,0-.164.1.187.187,0,0,0,.077.254l2.335,1.242a.192.192,0,0,0,.087.022.187.187,0,0,0,.166-.1.186.186,0,0,0-.078-.252l-2.335-1.243A.189.189,0,0,0,391.483,278.306Z" transform="translate(-391.172 -278.181)" fill="#333"/>
          </g>
          <g id="그룹_33538" data-name="그룹 33538" transform="translate(0.069 0.536)">
            <path id="패스_53830" data-name="패스 53830" d="M391.535,280.172a.312.312,0,0,1-.174-.571l2.194-1.48a.312.312,0,0,1,.348.519l-2.194,1.478A.31.31,0,0,1,391.535,280.172Z" transform="translate(-391.223 -278.069)" fill="#333"/>
            <path id="패스_53830_-_윤곽선" data-name="패스 53830 - 윤곽선" d="M391.535,280.3a.437.437,0,0,1-.244-.8l2.194-1.48a.438.438,0,0,1,.606.118.439.439,0,0,1-.118.608l-2.194,1.479A.436.436,0,0,1,391.535,280.3Zm2.193-2.1a.185.185,0,0,0-.1.031l-2.194,1.479a.187.187,0,1,0,.209.31l2.194-1.478a.187.187,0,0,0-.105-.343Z" transform="translate(-391.223 -278.069)" fill="#333"/>
          </g>
        </g>
        <g id="그룹_33540" data-name="그룹 33540" transform="translate(1.734 -2.816)">
          <path id="패스_53831" data-name="패스 53831" d="M387.991,280.447a.314.314,0,0,1-.088-.013.285.285,0,0,1-.187-.2l-.18-.677-.7.038a.284.284,0,0,1-.281-.387l.253-.654-.589-.381a.285.285,0,0,1,0-.478l.589-.381-.253-.654a.285.285,0,0,1,.281-.387l.7.038.18-.677a.285.285,0,0,1,.455-.148l.543.442.543-.442a.285.285,0,0,1,.268-.05.29.29,0,0,1,.187.2l.18.677.7-.038a.284.284,0,0,1,.28.387l-.252.654.589.381a.286.286,0,0,1,0,.478l-.589.381.252.654a.285.285,0,0,1-.034.27.289.289,0,0,1-.246.116l-.7-.038-.18.677a.285.285,0,0,1-.455.148l-.543-.442-.543.442A.286.286,0,0,1,387.991,280.447Zm.723-1.158a.285.285,0,0,1,.18.065l.381.31.127-.475a.288.288,0,0,1,.29-.212l.492.027-.177-.459a.283.283,0,0,1,.111-.341l.412-.268-.412-.267a.283.283,0,0,1-.111-.341l.177-.459-.492.027a.288.288,0,0,1-.29-.212l-.127-.475-.381.31a.284.284,0,0,1-.36,0l-.382-.31-.126.475a.289.289,0,0,1-.29.212l-.492-.027.177.459a.283.283,0,0,1-.111.341l-.412.267.412.268a.283.283,0,0,1,.111.341l-.177.459.492-.027a.288.288,0,0,1,.29.212l.126.475.382-.31A.285.285,0,0,1,388.714,279.29Z" transform="translate(-386.089 -275.426)" fill="#333"/>
          <path id="패스_53831_-_윤곽선" data-name="패스 53831 - 윤곽선" d="M389.437,280.573a.413.413,0,0,1-.258-.092l-.465-.378-.464.378a.413.413,0,0,1-.259.092.441.441,0,0,1-.123-.018.411.411,0,0,1-.273-.287l-.154-.578-.6.032h-.018a.409.409,0,0,1-.387-.556l.217-.56-.5-.325a.41.41,0,0,1,0-.688l.5-.326-.217-.559a.41.41,0,0,1,.051-.387.415.415,0,0,1,.339-.17h.012l.6.033.154-.579a.41.41,0,0,1,.655-.213l.464.377.465-.378a.41.41,0,0,1,.655.212l.154.58.6-.032h.019a.411.411,0,0,1,.335.169.406.406,0,0,1,.05.389l-.215.558.5.325a.411.411,0,0,1,0,.688l-.5.326.216.559a.408.408,0,0,1-.049.388.413.413,0,0,1-.352.168l-.6-.033-.154.579a.414.414,0,0,1-.269.285A.421.421,0,0,1,389.437,280.573Zm-.723-.792.622.506a.162.162,0,0,0,.152.028.161.161,0,0,0,.1-.112l.206-.774.806.043a.163.163,0,0,0,.134-.066.159.159,0,0,0,.018-.15l-.289-.749.674-.436a.161.161,0,0,0,0-.269l-.674-.436.289-.748a.159.159,0,0,0-.152-.217H390.6l-.8.043-.206-.775a.164.164,0,0,0-.106-.112.167.167,0,0,0-.149.028l-.623.506-.622-.506a.16.16,0,0,0-.256.083l-.206.775-.8-.043h0a.163.163,0,0,0-.137.067.16.16,0,0,0-.02.15l.29.748-.674.436a.16.16,0,0,0,0,.269l.674.436-.29.748a.163.163,0,0,0,.02.152.165.165,0,0,0,.133.064h.007l.8-.043.206.775a.161.161,0,0,0,.106.112.171.171,0,0,0,.15-.029Zm-.633.1-.176-.661a.164.164,0,0,0-.161-.119l-.687.037.247-.639a.158.158,0,0,0-.063-.191l-.574-.373.574-.371a.158.158,0,0,0,.063-.191l-.247-.64.685.038a.164.164,0,0,0,.162-.119l.176-.662.532.431a.161.161,0,0,0,.2,0l.53-.431.177.661a.162.162,0,0,0,.161.119l.687-.037-.247.639a.158.158,0,0,0,.063.191l.574.372-.574.373a.158.158,0,0,0-.063.191l.247.64-.685-.038h0a.162.162,0,0,0-.161.119l-.177.662-.53-.431a.161.161,0,0,0-.2,0Zm.633-.718a.411.411,0,0,1,.259.093l.231.188.077-.288a.413.413,0,0,1,.4-.3h.012l.3.017-.108-.278a.411.411,0,0,1,.16-.492l.25-.163-.251-.162a.411.411,0,0,1-.16-.492L390,277l-.314.017a.414.414,0,0,1-.4-.305l-.077-.288-.231.188a.409.409,0,0,1-.518,0l-.232-.188-.077.288a.414.414,0,0,1-.4.3h-.012l-.3-.016.108.278a.411.411,0,0,1-.16.492l-.25.162.251.163a.41.41,0,0,1,.16.491l-.108.278.314-.017a.414.414,0,0,1,.4.305l.076.288.232-.188A.411.411,0,0,1,388.714,279.165Z" transform="translate(-386.089 -275.426)" fill="#333"/>
        </g>
      </g>
    </g>
  </g>
</svg>
