<svg xmlns="http://www.w3.org/2000/svg" width="44" height="44" viewBox="0 0 44 44">
  <g id="icon_sickroom01" transform="translate(-51.158 -697.158)">
    <rect id="사각형_10579" data-name="사각형 10579" width="44" height="44" transform="translate(51.158 697.158)" fill="none"/>
    <g id="그룹_33434" data-name="그룹 33434" transform="translate(52.402 703.155)">
      <path id="선_871" data-name="선 871" d="M0,4.626a.5.5,0,0,1-.5-.5V0A.5.5,0,0,1,0-.5.5.5,0,0,1,.5,0V4.126A.5.5,0,0,1,0,4.626Z" transform="translate(14.92 28.092)" fill="#333"/>
      <path id="선_872" data-name="선 872" d="M4.736.5H0A.5.5,0,0,1-.5,0,.5.5,0,0,1,0-.5H4.736a.5.5,0,0,1,.5.5A.5.5,0,0,1,4.736.5Z" transform="translate(12.552 32.218)" fill="#333"/>
      <path id="패스_53494" data-name="패스 53494" d="M179.6,451.438a.963.963,0,1,0,1.925,0v-1.4H179.6Z" transform="translate(-167.475 -443.859)" fill="#7e4f40" opacity="0.7"/>
      <path id="패스_53495" data-name="패스 53495" d="M184.131,450.037v1.4a.963.963,0,0,0,1.927,0v-1.4Z" transform="translate(-167.17 -443.859)" fill="#7e4f40" opacity="0.7"/>
      <path id="선_873" data-name="선 873" d="M0,14.465a.5.5,0,0,1-.5-.5V0A.5.5,0,0,1,0-.5.5.5,0,0,1,.5,0V13.965A.5.5,0,0,1,0,14.465Z" transform="translate(14.92 0)" fill="#333"/>
      <path id="패스_53496" data-name="패스 53496" d="M184.736,448.833a.5.5,0,0,1-.5-.5v-1.814H180.5v1.814a.5.5,0,0,1-1,0v-2.314a.5.5,0,0,1,.5-.5h4.736a.5.5,0,0,1,.5.5v2.314A.5.5,0,0,1,184.736,448.833Z" transform="translate(-167.448 -444.13)" fill="#333"/>
      <path id="사각형_10584" data-name="사각형 10584" d="M.9-.5h.122A1.4,1.4,0,0,1,2.426.9V2.663a1.4,1.4,0,0,1-1.4,1.4H.9a1.4,1.4,0,0,1-1.4-1.4V.9A1.4,1.4,0,0,1,.9-.5Zm.122,3.566a.4.4,0,0,0,.4-.4V.9a.4.4,0,0,0-.4-.4H.9A.4.4,0,0,0,.5.9V2.663a.4.4,0,0,0,.4.4Z" transform="translate(11.488 4.619)" fill="#333"/>
      <path id="사각형_10585" data-name="사각형 10585" d="M.9-.5h.122A1.4,1.4,0,0,1,2.426.9V2.663a1.4,1.4,0,0,1-1.4,1.4H.9a1.4,1.4,0,0,1-1.4-1.4V.9A1.4,1.4,0,0,1,.9-.5Zm.122,3.566a.4.4,0,0,0,.4-.4V.9a.4.4,0,0,0-.4-.4H.9A.4.4,0,0,0,.5.9V2.663a.4.4,0,0,0,.4.4Z" transform="translate(16.324 4.619)" fill="#333"/>
      <path id="패스_53497" data-name="패스 53497" d="M171.572,466.677a.5.5,0,0,1-.5-.5v-.637A2.932,2.932,0,0,1,174,462.612h13.437a.5.5,0,0,1,0,1H174a1.93,1.93,0,0,0-1.928,1.928v.637A.5.5,0,0,1,171.572,466.677Z" transform="translate(-168.016 -442.979)" fill="#333"/>
      <path id="패스_53498" data-name="패스 53498" d="M204.273,466.688a.5.5,0,0,1-.5-.5v-.648a1.93,1.93,0,0,0-1.928-1.928h-3.466a.5.5,0,0,1,0-1h3.466a2.932,2.932,0,0,1,2.928,2.928v.648A.5.5,0,0,1,204.273,466.688Z" transform="translate(-166.21 -442.979)" fill="#333"/>
      <path id="선_874" data-name="선 874" d="M3.8.5H0A.5.5,0,0,1-.5,0,.5.5,0,0,1,0-.5H3.8a.5.5,0,0,1,.5.5A.5.5,0,0,1,3.8.5Z" transform="translate(26.653 20.133)" fill="#333"/>
      <path id="선_875" data-name="선 875" d="M3.8.5H0A.5.5,0,0,1-.5,0,.5.5,0,0,1,0-.5H3.8a.5.5,0,0,1,.5.5A.5.5,0,0,1,3.8.5Z" transform="translate(21.139 20.133)" fill="#333"/>
      <g id="그룹_33433" data-name="그룹 33433" transform="translate(5.536 27.779)">
        <path id="패스_53499" data-name="패스 53499" d="M175.148,475.214a2.223,2.223,0,0,1-2.221-2.221v-2.719a.5.5,0,0,1,.5-.5h3.441a.5.5,0,0,1,.5.5v2.719A2.223,2.223,0,0,1,175.148,475.214Zm-1.221-4.439v2.219a1.221,1.221,0,0,0,2.441,0v-2.219Z" transform="translate(-173.427 -470.275)" fill="#333"/>
        <path id="패스_53500" data-name="패스 53500" d="M200.534,475.214a2.224,2.224,0,0,1-2.222-2.221v-2.719a.5.5,0,0,1,.5-.5h3.442a.5.5,0,0,1,.5.5v2.719A2.223,2.223,0,0,1,200.534,475.214Zm-1.222-4.439v2.219a1.221,1.221,0,0,0,2.442,0v-2.219Z" transform="translate(-171.718 -470.275)" fill="#333"/>
      </g>
      <path id="타원_1268" data-name="타원 1268" d="M2.562-.5A3.062,3.062,0,1,1-.5,2.562,3.066,3.066,0,0,1,2.562-.5Zm0,5.124A2.062,2.062,0,1,0,.5,2.562,2.065,2.065,0,0,0,2.562,4.624Z" transform="translate(5.279 14.393)" fill="#333"/>
      <path id="패스_53501" data-name="패스 53501" d="M179.8,463.831a.5.5,0,0,1-.5-.5v-5.524a.5.5,0,0,1,.5-.5h3.177a.5.5,0,1,1,0,1H180.3v5.024A.5.5,0,0,1,179.8,463.831Z" transform="translate(-167.461 -443.336)" fill="#333"/>
      <path id="패스_53502" data-name="패스 53502" d="M201.1,463.776a.5.5,0,0,1-.5-.5v-1.5A3.505,3.505,0,0,0,199.25,459a.5.5,0,1,1,.618-.786,4.5,4.5,0,0,1,1.731,3.558v1.5A.5.5,0,0,1,201.1,463.776Z" transform="translate(-166.131 -443.282)" fill="#333"/>
      <path id="패스_53503" data-name="패스 53503" d="M183.637,456.5h18.838a1.359,1.359,0,1,1,0,2.717H199.93v6.365a1.359,1.359,0,1,1-2.717,0v-6.365h-2.8v6.365a1.359,1.359,0,1,1-2.717,0v-6.365h-2.8v6.365a1.359,1.359,0,1,1-2.717,0v-6.365h-2.545a1.359,1.359,0,1,1,0-2.717Zm18.838,1.717a.359.359,0,1,0,0-.717H183.637a.359.359,0,1,0,0,.717h3.045a.5.5,0,0,1,.5.5v6.865a.359.359,0,1,0,.717,0v-6.865a.5.5,0,0,1,.5-.5h3.8a.5.5,0,0,1,.5.5v6.865a.359.359,0,1,0,.717,0v-6.865a.5.5,0,0,1,.5-.5h3.8a.5.5,0,0,1,.5.5v6.865a.359.359,0,1,0,.717,0v-6.865a.5.5,0,0,1,.5-.5Z" transform="translate(-167.261 -443.39)" fill="#333"/>
      <path id="패스_53504" data-name="패스 53504" d="M207.913,471.895H170.176a2.252,2.252,0,0,1-.529-.067,2.218,2.218,0,0,1-1.907-2.187V454.49a2.217,2.217,0,0,1,4.435,0v12.024h33.631V454.49a2.217,2.217,0,0,1,4.435,0v8.137a.5.5,0,0,1-1,0V454.49a1.217,1.217,0,0,0-2.435,0v12.524a.5.5,0,0,1-.5.5H171.675a.5.5,0,0,1-.5-.5V454.49a1.217,1.217,0,0,0-2.435,0v15.151a1.216,1.216,0,0,0,1.064,1.2.5.5,0,0,1,.058.011,1.28,1.28,0,0,0,.314.044h37.737a1.318,1.318,0,0,0,.539-.118l.017-.007a1.232,1.232,0,0,0,.749-.921l0-.015a1.343,1.343,0,0,0,.03-.277v-.693c0-.02-.007-.049-.009-.085q0-.015,0-.03v-3.714a.5.5,0,0,1,1,0v3.689a.887.887,0,0,1,.011.129v.7a2.327,2.327,0,0,1-.05.474,2.239,2.239,0,0,1-1.35,1.663A2.311,2.311,0,0,1,207.913,471.895Z" transform="translate(-168.24 -443.675)" fill="#333"/>
    </g>
  </g>
</svg>
