<svg xmlns="http://www.w3.org/2000/svg" width="44" height="44" viewBox="0 0 44 44">
  <g id="icon_sickroom05" transform="translate(-51.158 -697.158)">
    <rect id="사각형_10579" data-name="사각형 10579" width="44" height="44" transform="translate(51.158 697.158)" fill="none"/>
    <g id="그룹_33588" data-name="그룹 33588" transform="translate(-317.366 257.956)">
      <path id="패스_53961" data-name="패스 53961" d="M409.166,475.62H389.036a.5.5,0,0,1,0-1h19.629V448.342a.5.5,0,0,1,1,0V475.12A.5.5,0,0,1,409.166,475.62Z" transform="translate(1.674 0.223)" fill="#333"/>
      <path id="패스_53962" data-name="패스 53962" d="M407.532,475.62h-18.5a.5.5,0,0,1,0-1h18V448.342a.5.5,0,0,1,1,0V475.12A.5.5,0,0,1,407.532,475.62Z" transform="translate(1.674 0.223)" fill="#333"/>
      <path id="선_1090" data-name="선 1090" d="M0,1.515a.5.5,0,0,1-.5-.5V0A.5.5,0,0,1,0-.5.5.5,0,0,1,.5,0V1.015A.5.5,0,0,1,0,1.515Z" transform="translate(380.554 449.842)" fill="#333"/>
      <path id="선_1091" data-name="선 1091" d="M0,1.64a.5.5,0,0,1-.5-.5V0A.5.5,0,0,1,0-.5.5.5,0,0,1,.5,0V1.14A.5.5,0,0,1,0,1.64Z" transform="translate(380.554 453.213)" fill="#333"/>
      <path id="패스_53963" data-name="패스 53963" d="M406,472.078a.5.5,0,0,1-.445-.271l-7.038-13.619h-8.168a.5.5,0,0,1,0-1h8.472a.5.5,0,0,1,.444.27l7.177,13.889a.5.5,0,0,1-.444.73Z" transform="translate(1.785 1.013)" fill="#333"/>
      <path id="선_1092" data-name="선 1092" d="M0,9.359a.5.5,0,0,1-.5-.5V0A.5.5,0,0,1,0-.5.5.5,0,0,1,.5,0V8.859A.5.5,0,0,1,0,9.359Z" transform="translate(400.606 449.842)" fill="#333"/>
      <path id="선_1093" data-name="선 1093" d="M0,7.382a.5.5,0,0,1-.23-.057.5.5,0,0,1-.213-.674L3.136-.231A.5.5,0,0,1,3.81-.444a.5.5,0,0,1,.213.674L.444,7.112A.5.5,0,0,1,0,7.382Z" transform="translate(372.618 467.185)" fill="#333"/>
      <path id="패스_53964" data-name="패스 53964" d="M390.5,459.067a.5.5,0,0,1-.5-.5v-9.725H371.741a.5.5,0,1,1,0-1H390.5a.5.5,0,0,1,.5.5v10.225A.5.5,0,0,1,390.5,459.067Z" transform="translate(0.213 0.223)" fill="#333"/>
      <path id="선_1094" data-name="선 1094" d="M17.285.5H0A.5.5,0,0,1-.5,0,.5.5,0,0,1,0-.5H17.285a.5.5,0,0,1,.5.5A.5.5,0,0,1,17.285.5Z" transform="translate(371.954 474.066)" fill="#333"/>
      <path id="선_1095" data-name="선 1095" d="M11.969.5H0A.5.5,0,0,1-.5,0,.5.5,0,0,1,0-.5H11.969a.5.5,0,0,1,.5.5A.5.5,0,0,1,11.969.5Z" transform="translate(377.269 465.116)" fill="#333"/>
      <path id="선_1096" data-name="선 1096" d="M11.97.5H0A.5.5,0,0,1-.5,0,.5.5,0,0,1,0-.5H11.97a.5.5,0,0,1,.5.5A.5.5,0,0,1,11.97.5Z" transform="translate(377.268 462.674)" fill="#333"/>
      <path id="선_1097" data-name="선 1097" d="M8.7.5H0A.5.5,0,0,1-.5,0,.5.5,0,0,1,0-.5H8.7a.5.5,0,0,1,.5.5A.5.5,0,0,1,8.7.5Z" transform="translate(380.542 454.353)" fill="#333"/>
      <path id="선_1098" data-name="선 1098" d="M0,2.454A.5.5,0,0,1-.23,2.4a.5.5,0,0,1-.215-.674L.566-.23a.5.5,0,0,1,.674-.215A.5.5,0,0,1,1.454.23L.444,2.184A.5.5,0,0,1,0,2.454Z" transform="translate(379.532 454.353)" fill="#333"/>
      <path id="선_1099" data-name="선 1099" d="M0,3.128A.5.5,0,0,1-.23,3.072.5.5,0,0,1-.444,2.4L.914-.23a.5.5,0,0,1,.674-.215A.5.5,0,0,1,1.8.23L.444,2.858A.5.5,0,0,1,0,3.128Z" transform="translate(377.397 457.81)" fill="#333"/>
      <path id="선_1100" data-name="선 1100" d="M0,8.821a.5.5,0,0,1-.5-.5V0A.5.5,0,0,1,0-.5.5.5,0,0,1,.5,0V8.321A.5.5,0,0,1,0,8.821Z" transform="translate(390.71 456.348)" fill="#333"/>
      <path id="타원_1322" data-name="타원 1322" d="M1.019-.5A1.519,1.519,0,1,1-.5,1.019,1.521,1.521,0,0,1,1.019-.5Zm0,2.038A.519.519,0,1,0,.5,1.019.52.52,0,0,0,1.019,1.538Z" transform="translate(377.054 466.662)" fill="#333"/>
      <path id="패스_53966" data-name="패스 53966" d="M387.758,467.568a1.519,1.519,0,0,1,0-3.038.5.5,0,0,1,0,1,.519.519,0,0,0,0,1.038.5.5,0,0,1,0,1Z" transform="translate(1.48 1.633)" fill="#333"/>
      <path id="패스_53967" data-name="패스 53967" d="M405.163,460.041a.5.5,0,0,1-.339-.132l-4.928-4.546a.5.5,0,0,1-.161-.368v-5.477a.5.5,0,0,1,1,0v5.258l4.767,4.4a.5.5,0,0,1-.339.868Z" transform="translate(2.62 0.322)" fill="#333"/>
      <path id="패스_53968" data-name="패스 53968" d="M405.162,457.679a.5.5,0,0,1-.294-.1l-3.456-2.514h-1.177a.5.5,0,0,1,0-1h1.34a.5.5,0,0,1,.294.1l3.588,2.61a.5.5,0,0,1-.295.9Z" transform="translate(2.62 0.749)" fill="#333"/>
      <path id="선_1101" data-name="선 1101" d="M0,5.734a.5.5,0,0,1-.5-.5V0A.5.5,0,0,1,0-.5.5.5,0,0,1,.5,0V5.234A.5.5,0,0,1,0,5.734Z" transform="translate(404.195 450.084)" fill="#333"/>
      <rect id="사각형_10626" data-name="사각형 10626" width="15.65" height="9.052" transform="translate(392.133 456.4)" fill="#7e4f40" opacity="0.7"/>
      <rect id="사각형_10627" data-name="사각형 10627" width="17.285" height="13.389" transform="translate(371.954 462.132)" fill="#7e4f40" opacity="0.7"/>
      <path id="선_1102" data-name="선 1102" d="M0,27.278a.5.5,0,0,1-.5-.5V0A.5.5,0,0,1,0-.5.5.5,0,0,1,.5,0V26.778A.5.5,0,0,1,0,27.278Z" transform="translate(370.32 448.565)" fill="#333"/>
      <path id="패스_53969" data-name="패스 53969" d="M390.625,477.064h-20.39a.5.5,0,0,1-.5-.5V448.342a.5.5,0,0,1,.5-.5h1.634a.5.5,0,0,1,0,1h-1.134v27.222h19.39v-17.5a.5.5,0,0,1,1,0v18A.5.5,0,0,1,390.625,477.064Z" transform="translate(0.086 0.223)" fill="#333"/>
      <path id="패스_53970" data-name="패스 53970" d="M390.625,477.064h-20.39a.5.5,0,0,1-.5-.5V448.342a.5.5,0,0,1,1,0v27.722h19.39V448.342a.5.5,0,0,1,1,0v28.222A.5.5,0,0,1,390.625,477.064Z" transform="translate(0.086 0.223)" fill="#333"/>
      <path id="패스_53971" data-name="패스 53971" d="M411.114,449.065H370.045a1.325,1.325,0,0,1-1.323-1.323v-1.215a1.325,1.325,0,0,1,1.323-1.323h30.561a.5.5,0,0,1,0,1H370.045a.324.324,0,0,0-.323.323v1.215a.324.324,0,0,0,.323.323h41.069a.323.323,0,0,0,.323-.323v-1.215a.323.323,0,0,0-.323-.323h-2.554a.5.5,0,0,1,0-1h2.554a1.325,1.325,0,0,1,1.323,1.323v1.215A1.325,1.325,0,0,1,411.114,449.065Z" transform="translate(0 0)" fill="#333"/>
      <path id="선_1103" data-name="선 1103" d="M5.612.5H0A.5.5,0,0,1-.5,0,.5.5,0,0,1,0-.5H5.612a.5.5,0,0,1,.5.5A.5.5,0,0,1,5.612.5Z" transform="translate(400.606 445.704)" fill="#333"/>
      <path id="패스_53972" data-name="패스 53972" d="M389.026,475.521H371.741a.5.5,0,0,1-.5-.5v-25.5a.5.5,0,0,1,.5-.5h17.285a.5.5,0,0,1,.5.5v8.859a.5.5,0,0,1-1,0v-8.359H372.241v24.5h16.785a.5.5,0,0,1,0,1Z" transform="translate(0.213 0.322)" fill="#333"/>
      <path id="사각형_10628" data-name="사각형 10628" d="M0-.5H15.649a.5.5,0,0,1,.5.5V24.225a.5.5,0,0,1-.5.5H0a.5.5,0,0,1-.5-.5V0A.5.5,0,0,1,0-.5ZM15.149.5H.5V23.725H15.149Z" transform="translate(392.134 449.842)" fill="#333"/>
      <circle id="타원_1323" data-name="타원 1323" cx="0.327" cy="0.327" r="0.327" transform="translate(377.745 467.354)" fill="#7e4f40" opacity="0.7"/>
      <circle id="타원_1324" data-name="타원 1324" cx="0.327" cy="0.327" r="0.327" transform="translate(388.746 467.354)" fill="#7e4f40" opacity="0.7"/>
      <path id="선_1104" data-name="선 1104" d="M0,17.142a.5.5,0,0,1-.5-.5V0A.5.5,0,0,1,0-.5.5.5,0,0,1,.5,0V16.642A.5.5,0,0,1,0,17.142Z" transform="translate(389.239 458.701)" fill="#333"/>
      <path id="패스_53973" data-name="패스 53973" d="M376.13,466.816a1.109,1.109,0,0,1-1.107-1.107v-8.14a2.5,2.5,0,0,1,2.5-2.5h10.3a2.476,2.476,0,0,1,1.1.256.5.5,0,1,1-.441.9,1.485,1.485,0,0,0-.661-.154h-10.3a1.5,1.5,0,0,0-1.5,1.5v8.14a.107.107,0,1,0,.215,0v-2.4q0-.017,0-.033v-5.454a1.663,1.663,0,0,1,1.662-1.661h9.543a1.658,1.658,0,0,1,1.479.907.5.5,0,1,1-.89.456.662.662,0,0,0-.59-.364H377.9a.662.662,0,0,0-.662.661v5.429q0,.017,0,.033v2.428A1.109,1.109,0,0,1,376.13,466.816Z" transform="translate(0.532 0.833)" fill="#333"/>
      <path id="선_1105" data-name="선 1105" d="M11.737.5H0A.5.5,0,0,1-.5,0,.5.5,0,0,1,0-.5H11.737a.5.5,0,0,1,.5.5A.5.5,0,0,1,11.737.5Z" transform="translate(377.397 460.438)" fill="#333"/>
      <path id="선_1106" data-name="선 1106" d="M0,3.315a.5.5,0,0,1-.5-.5V0A.5.5,0,0,1,0-.5.5.5,0,0,1,.5,0V2.815A.5.5,0,0,1,0,3.315Z" transform="translate(379.276 457.49)" fill="#333"/>
      <path id="선_1107" data-name="선 1107" d="M0,3.315a.5.5,0,0,1-.5-.5V0A.5.5,0,0,1,0-.5.5.5,0,0,1,.5,0V2.815A.5.5,0,0,1,0,3.315Z" transform="translate(381.242 457.49)" fill="#333"/>
      <path id="선_1108" data-name="선 1108" d="M0,3.315a.5.5,0,0,1-.5-.5V0A.5.5,0,0,1,0-.5.5.5,0,0,1,.5,0V2.815A.5.5,0,0,1,0,3.315Z" transform="translate(383.207 457.49)" fill="#333"/>
      <path id="선_1109" data-name="선 1109" d="M0,3.315a.5.5,0,0,1-.5-.5V0A.5.5,0,0,1,0-.5.5.5,0,0,1,.5,0V2.815A.5.5,0,0,1,0,3.315Z" transform="translate(385.173 457.49)" fill="#333"/>
      <path id="선_1110" data-name="선 1110" d="M0,3.315a.5.5,0,0,1-.5-.5V0A.5.5,0,0,1,0-.5.5.5,0,0,1,.5,0V2.815A.5.5,0,0,1,0,3.315Z" transform="translate(387.138 457.49)" fill="#333"/>
      <path id="선_1111" data-name="선 1111" d="M8.734.5H0A.5.5,0,0,1-.5,0,.5.5,0,0,1,0-.5H8.734a.5.5,0,0,1,.5.5A.5.5,0,0,1,8.734.5Z" transform="translate(380.339 451.978)" fill="#333"/>
      <path id="선_1112" data-name="선 1112" d="M0,2.793a.5.5,0,0,1-.5-.5V0A.5.5,0,0,1,0-.5.5.5,0,0,1,.5,0V2.293A.5.5,0,0,1,0,2.793Z" transform="translate(382.911 451.978)" fill="#333"/>
      <path id="선_1113" data-name="선 1113" d="M0,2.793a.5.5,0,0,1-.5-.5V0A.5.5,0,0,1,0-.5.5.5,0,0,1,.5,0V2.293A.5.5,0,0,1,0,2.793Z" transform="translate(384.997 451.978)" fill="#333"/>
      <path id="선_1114" data-name="선 1114" d="M0,2.793a.5.5,0,0,1-.5-.5V0A.5.5,0,0,1,0-.5.5.5,0,0,1,.5,0V2.293A.5.5,0,0,1,0,2.793Z" transform="translate(387.083 451.978)" fill="#333"/>
    </g>
  </g>
</svg>
