<svg xmlns="http://www.w3.org/2000/svg" width="44" height="44" viewBox="0 0 44 44">
  <g id="icon_eat-self" transform="translate(-51.24 -697.24)">
    <rect id="사각형_10579" data-name="사각형 10579" width="44" height="44" transform="translate(51.24 697.24)" fill="none"/>
    <g id="그룹_33457" data-name="그룹 33457" transform="translate(15.488 631.771)">
      <path id="패스_53546" data-name="패스 53546" d="M78.5,100.475H36.752l2.432-3.316H76.07Z" fill="#7e4f40" opacity="0.7"/>
      <g id="그룹_33456" data-name="그룹 33456">
        <path id="타원_1274" data-name="타원 1274" d="M3.073-.5A3.573,3.573,0,1,1-.5,3.073,3.577,3.577,0,0,1,3.073-.5Zm0,6.146A2.573,2.573,0,1,0,.5,3.073,2.576,2.576,0,0,0,3.073,5.646Z" transform="translate(55.087 74.469)" fill="#333"/>
        <path id="패스_53547" data-name="패스 53547" d="M44.659,97.66a2.786,2.786,0,0,1-2.343-4.282l5.869-9.191a.5.5,0,0,1,.038-.052,7.123,7.123,0,0,1,1.448-1.269,8.713,8.713,0,0,1,3.6-1.325,67.421,67.421,0,0,1,8.375,0l.037,0a10.588,10.588,0,0,1,5.448,2.519.5.5,0,1,1-.7.711,9.65,9.65,0,0,0-4.858-2.237,67.273,67.273,0,0,0-8.179,0,7.707,7.707,0,0,0-3.178,1.174,6.191,6.191,0,0,0-1.2,1.047l-5.85,9.161a1.784,1.784,0,0,0,2.389,2.508.5.5,0,1,1,.492.87A2.8,2.8,0,0,1,44.659,97.66Z" fill="#333"/>
        <path id="선_909" data-name="선 909" d="M0,2a.5.5,0,0,1-.269-.079A.5.5,0,0,1-.421,1.23l.957-1.5a.5.5,0,0,1,.69-.152.5.5,0,0,1,.152.691l-.957,1.5A.5.5,0,0,1,0,2Z" transform="translate(51.499 86.915)" fill="#333"/>
        <path id="패스_53548" data-name="패스 53548" d="M44.714,97.615a2.853,2.853,0,0,1-.3-.016,2.764,2.764,0,0,1-1.872-1.016,2.8,2.8,0,0,1-.22-3.185.5.5,0,0,1,.858.514,1.794,1.794,0,0,0,.14,2.043,1.79,1.79,0,0,0,2.509.267l5.563-4.5a1.784,1.784,0,0,0-2.243-2.775l-3.43,2.772a.5.5,0,0,1-.629-.778l3.43-2.772a2.784,2.784,0,0,1,3.5,4.331L46.456,97A2.757,2.757,0,0,1,44.714,97.615Z" fill="#333"/>
        <path id="선_910" data-name="선 910" d="M2.824,5.719a.5.5,0,0,1-.44-.262L-.44.238a.5.5,0,0,1,.2-.678.5.5,0,0,1,.678.2L3.264,4.981a.5.5,0,0,1-.439.738Z" transform="translate(63.597 87.543)" fill="#333"/>
        <path id="선_911" data-name="선 911" d="M4.3,8.448a.5.5,0,0,1-.44-.262L-.44.238a.5.5,0,0,1,.2-.678.5.5,0,0,1,.678.2l4.3,7.948a.5.5,0,0,1-.439.738Z" transform="translate(68 86.178)" fill="#333"/>
        <path id="패스_53549" data-name="패스 53549" d="M70.289,98H62.815a2.785,2.785,0,0,1,0-5.569h6.38a.5.5,0,0,1,0,1h-6.38a1.785,1.785,0,0,0,0,3.569h7.474a1.787,1.787,0,0,0,1.784-1.785,1.768,1.768,0,0,0-.218-.851.5.5,0,0,1,.876-.482A2.782,2.782,0,0,1,70.289,98Z" fill="#333"/>
        <path id="패스_53550" data-name="패스 53550" d="M75.829,97.46H71.754a.5.5,0,0,1,0-1h4.075a.5.5,0,0,1,0,1Z" fill="#333"/>
        <path id="패스_53551" data-name="패스 53551" d="M61.234,97.46H48.167a.5.5,0,0,1,0-1H61.234a.5.5,0,0,1,0,1Z" fill="#333"/>
        <path id="선_912" data-name="선 912" d="M2.1.5H0A.5.5,0,0,1-.5,0,.5.5,0,0,1,0-.5H2.1a.5.5,0,0,1,.5.5A.5.5,0,0,1,2.1.5Z" transform="translate(39.425 96.96)" fill="#333"/>
        <path id="타원_1275" data-name="타원 1275" d="M1.568-.5c1.16,0,2.068.7,2.068,1.586S2.728,2.673,1.568,2.673-.5,1.976-.5,1.086.408-.5,1.568-.5Zm0,2.173c.611,0,1.068-.31,1.068-.586S2.179.5,1.568.5.5.81.5,1.086.957,1.673,1.568,1.673Z" transform="matrix(0.843, -0.538, 0.538, 0.843, 54.809, 85.806)" fill="#333"/>
        <path id="선_913" data-name="선 913" d="M0,2.648a.5.5,0,0,1-.422-.231.5.5,0,0,1,.153-.69L3.1-.422a.5.5,0,0,1,.69.153.5.5,0,0,1-.153.69L.269,2.57A.5.5,0,0,1,0,2.648Z" transform="translate(52.026 86.722)" fill="#333"/>
      </g>
    </g>
  </g>
</svg>
