<svg xmlns="http://www.w3.org/2000/svg" width="44" height="44" viewBox="0 0 44 44">
    <path data-name="사각형 12735" style="fill:none" d="M0 0h44v44H0z"/>
    <g data-name="그룹 38286">
        <path data-name="사각형 12746" transform="translate(0 7)" style="fill:none" d="M0 0h44v30H0z"/>
        <g data-name="그룹 38287">
            <path data-name="빼기 19" d="M11494.594-1510.678h-16.812V-1540a5.628 5.628 0 0 1 4.088 1.737 5.647 5.647 0 0 1 1.59 3.94 5.654 5.654 0 0 1-1.59 3.942 14.074 14.074 0 0 1 9.141 4.642 14.072 14.072 0 0 1 3.584 9.6v5.457z" transform="translate(-11455.781 1547.338)" style="opacity:.7;stroke:transparent;stroke-miterlimit:10;fill:#7e4f40"/>
            <path data-name="패스 60410" d="M12.429 19.064h-.047a.5.5 0 0 0-.447.537v8.506a.5.5 0 0 0 .447.447.389.389 0 0 0 .047 0 .5.5 0 0 0 .494-.454v-8.5a.713.713 0 0 0 0-.092.5.5 0 0 0-.494-.45" transform="translate(.081 7.118)" style="fill:#333"/>
            <path data-name="패스 60411" d="M21.991 8.724a3 3 0 1 1 0-6 .5.5 0 0 0 0-.987h-.1a3.991 3.991 0 0 0 .088 7.981h.061v-.012a.5.5 0 0 0 .4-.441.488.488 0 0 0-.112-.363.494.494 0 0 0-.341-.178" transform="translate(.012 7.318)" style="fill:#333"/>
            <path data-name="패스 60412" d="M21.751 11.1h-2.706a12.66 12.66 0 0 0-12.6 12.6v4.317a.713.713 0 0 0 0 .092.5.5 0 0 0 .494.45h.047a.494.494 0 0 0 .447-.536v-4.329a11.642 11.642 0 0 1 11.612-11.611h2.711a.5.5 0 0 0 0-.987M6.5 28.008h-.048z" transform="translate(.145 7.21)" style="fill:#333"/>
            <path data-name="패스 60413" d="M31.681 19.151a.483.483 0 0 0-.363.112.494.494 0 0 0-.178.341v8.506a.5.5 0 0 0 .447.447h.047a.5.5 0 0 0 .494-.449V19.6a.5.5 0 0 0-.448-.448" transform="translate(-.14 7.117)" style="fill:#7e4f40"/>
            <path data-name="패스 60414" d="M22.046 1.738h-.013a.476.476 0 0 0-.092 0 .5.5 0 0 0 .088.988 3 3 0 0 1 0 6 .583.583 0 0 0-.093 0 .5.5 0 0 0-.27.876.49.49 0 0 0 .315.115h.143a3.991 3.991 0 0 0-.084-7.982" transform="translate(-.029 7.318)" style="fill:#7e4f40"/>
            <path data-name="패스 60415" d="M24.846 11.1h-2.705a.6.6 0 0 0-.094 0 .5.5 0 0 0 .043.99h2.754A11.642 11.642 0 0 1 36.453 23.7v4.319a.494.494 0 0 0 .5.493.493.493 0 0 0 .493-.5v-4.32a12.661 12.661 0 0 0-12.6-12.592" transform="translate(-.03 7.21)" style="fill:#7e4f40"/>
            <path data-name="패스 60416" d="M40.727 28.628a.512.512 0 0 1-.067 0 .447.447 0 0 1-.376-.508c.038-.249.131-.931.207-1.871a.447.447 0 0 1 .894.027v.044a28.933 28.933 0 0 1-.214 1.932.447.447 0 0 1-.441.381m.307-3.814h-.011a.446.446 0 0 1-.436-.458 30.606 30.606 0 0 0-.011-1.885.447.447 0 0 1 .421-.468.437.437 0 0 1 .462.412v.017c.015.4.022.791.021 1.163 0 .265 0 .526-.01.778a.446.446 0 0 1-.447.435m-.151-3.822a.447.447 0 0 1-.443-.4 20.582 20.582 0 0 0-.286-1.851.447.447 0 0 1 .876-.177c.125.614.224 1.263.3 1.932a.447.447 0 0 1-.393.494h-.051m-.774-3.742a.446.446 0 0 1-.424-.306 11.763 11.763 0 0 0-.7-1.7.447.447 0 0 1 .756-.476.539.539 0 0 1 .035.067 12.749 12.749 0 0 1 .758 1.831.448.448 0 0 1-.424.586m-1.774-3.359a.447.447 0 0 1-.346-.164 8.3 8.3 0 0 0-1.285-1.272.447.447 0 0 1 .555-.7 9.147 9.147 0 0 1 1.43 1.4.447.447 0 0 1-.346.729M35.375 11.5a.447.447 0 0 1-.216-.056c-.453-.253-.9-.473-1.33-.686l-.355-.176a.447.447 0 1 1 .349-.822.4.4 0 0 1 .046.023l.352.175c.442.218.9.447 1.369.706a.447.447 0 0 1-.218.837m-3.35-1.839a.446.446 0 0 1-.273-.093 3.453 3.453 0 0 1-1.262-1.733.45.45 0 1 1 .86-.264 2.562 2.562 0 0 0 .953 1.286.447.447 0 0 1-.274.8m-1.445-3.385a.445.445 0 0 1-.433-.34 8.278 8.278 0 0 0-.624-1.7.447.447 0 0 1 .776-.443.986.986 0 0 1 .023.046 9.2 9.2 0 0 1 .692 1.884.448.448 0 0 1-.329.541.417.417 0 0 1-.1.013m-1.687-3.4a.448.448 0 0 1-.348-.166 8.313 8.313 0 0 0-1.285-1.278.447.447 0 0 1 .557-.7 9.173 9.173 0 0 1 1.423 1.414.447.447 0 0 1-.348.728" transform="translate(-.094 7.331)" style="opacity:.7;fill:#7e4f40"/>
            <path data-name="패스 60417" d="M43.531 20.241h-.012a.448.448 0 0 1-.435-.458v-.223a7.365 7.365 0 0 0-.169-1.572.446.446 0 1 1 .872-.19 8.181 8.181 0 0 1 .19 1.761v.245a.447.447 0 0 1-.447.436m-.784-3.711a.447.447 0 0 1-.406-.262 11.094 11.094 0 0 0-.9-1.6.447.447 0 0 1 .741-.494 11.973 11.973 0 0 1 .973 1.729.446.446 0 0 1-.22.59.454.454 0 0 1-.187.041m-2.107-3.175a.447.447 0 0 1-.336-.152c-.4-.447-.829-.9-1.3-1.342a.447.447 0 0 1 .612-.65c.494.463.95.936 1.36 1.4a.446.446 0 0 1-.335.74m-2.774-2.626a.443.443 0 0 1-.28-.1c-.471-.38-.978-.761-1.5-1.136a.447.447 0 0 1 .484-.751l.032.023c.543.385 1.065.778 1.549 1.168a.447.447 0 0 1-.28.791" transform="translate(-.195 7.238)" style="opacity:.7;fill:#7e4f40"/>
            <path data-name="패스 60418" d="M33.022 5.7a.446.446 0 0 1-.437-.357 5.409 5.409 0 0 0-.659-1.631.447.447 0 1 1 .757-.473l.013.021a6.271 6.271 0 0 1 .764 1.9.447.447 0 0 1-.348.527.455.455 0 0 1-.09.009M31.18 2.385a.448.448 0 0 1-.336-.153A13.8 13.8 0 0 0 29.607.993a1.537 1.537 0 0 1-.126-.12.448.448 0 1 1 .663-.6l.056.053a14.778 14.778 0 0 1 1.315 1.319.447.447 0 0 1-.336.74" transform="translate(-.12 7.337)" style="opacity:.7;fill:#7e4f40"/>
        </g>
    </g>
</svg>
