<svg xmlns="http://www.w3.org/2000/svg" width="44" height="44" viewBox="0 0 44 44">
  <g id="icon_family02" transform="translate(-123.693 -244.975)">
    <rect id="사각형_4917" data-name="사각형 4917" width="44" height="44" transform="translate(123.693 244.975)" fill="none"/>
    <g id="그룹_33582" data-name="그룹 33582" transform="translate(-278.33 -322.51)">
      <g id="그룹_33581" data-name="그룹 33581" transform="translate(412.302 581.69)">
        <path id="타원_1321" data-name="타원 1321" d="M2.256-.5A2.756,2.756,0,1,1-.5,2.256,2.759,2.759,0,0,1,2.256-.5Zm0,4.512A1.756,1.756,0,1,0,.5,2.256,1.758,1.758,0,0,0,2.256,4.012Z" transform="translate(9.73 0.267)" fill="#333"/>
        <path id="패스_53946" data-name="패스 53946" d="M419.565,582.676a5.66,5.66,0,0,0,0,2.052c.242.518,5.249-2.169,5.56-2.052,0,0-.691-1.235-1.071-1.335A13.669,13.669,0,0,0,419.565,582.676Z" transform="translate(-410.445 -581.331)" fill="#7e4f40" opacity="0.7"/>
        <path id="패스_53947" data-name="패스 53947" d="M421.67,599.243h-1.3a.5.5,0,0,1,0-1h1.3a1.736,1.736,0,0,0,.7-3.323.5.5,0,0,1,.41-.912,2.736,2.736,0,0,1-1.115,5.235Z" transform="translate(-410.339 -579.804)" fill="#333"/>
        <path id="패스_53948" data-name="패스 53948" d="M413.6,593.188a.5.5,0,0,1-.47-.67l1.159-3.213a2.725,2.725,0,0,1,.961-1.279.5.5,0,1,1,.589.808,1.729,1.729,0,0,0-.609.811l-1.158,3.212A.5.5,0,0,1,413.6,593.188Z" transform="translate(-411.126 -580.505)" fill="#333"/>
        <path id="선_1089" data-name="선 1089" d="M.778,5.069a.5.5,0,0,1-.492-.416L-.493.084A.5.5,0,0,1-.084-.493a.5.5,0,0,1,.577.409l.779,4.569a.5.5,0,0,1-.493.584Z" transform="translate(16.184 12.962)" fill="#333"/>
        <path id="패스_53949" data-name="패스 53949" d="M428.535,587.54c.217.226-.414,1.27-.414,1.27l-5.812,11.272a1.788,1.788,0,0,1-1.41.93h-5c-2.215,0-2.987-.93-2.987-.93a2.423,2.423,0,0,1-.369-2.757s3.6-6.01,13.138-10.15a6.732,6.732,0,0,1,2.855.365" transform="translate(-411.28 -580.653)" fill="#7e4f40" opacity="0.7"/>
        <path id="패스_53950" data-name="패스 53950" d="M430.967,597.874a.5.5,0,0,1-.492-.416l-1.227-7.206h0a3.659,3.659,0,0,0-2.635-2.108.5.5,0,0,1,.309-.951c1.786.58,2.891,1.512,3.284,2.771,0,.009.005.018.008.028a.73.73,0,0,1,.018.078l1.23,7.221a.5.5,0,0,1-.493.584Z" transform="translate(-409.596 -580.594)" fill="#333"/>
        <path id="패스_53951" data-name="패스 53951" d="M415.4,589.049a.5.5,0,0,1-.293-.905,9.8,9.8,0,0,1,5.735-1.576.5.5,0,1,1,.044,1,.553.553,0,0,1-.062,0,8.87,8.87,0,0,0-5.131,1.386A.5.5,0,0,1,415.4,589.049Z" transform="translate(-410.917 -580.665)" fill="#333"/>
        <path id="패스_53952" data-name="패스 53952" d="M425.306,586.219a6.865,6.865,0,0,1,2.539.423.5.5,0,0,1,.162.112c.119.124.48.5-.338,1.859l-5.806,11.258-.013.024a2.288,2.288,0,0,1-1.833,1.176h-5.008A4.42,4.42,0,0,1,411.667,600a2.927,2.927,0,0,1-.45-3.358l.006-.011A19.757,19.757,0,0,1,414.3,593a34.694,34.694,0,0,1,10.3-6.727.5.5,0,0,1,.169-.04C424.941,586.224,425.125,586.219,425.306,586.219Zm1.825,1.236a6.762,6.762,0,0,0-1.825-.236c-.132,0-.266,0-.4.01a33.681,33.681,0,0,0-9.885,6.463,19.451,19.451,0,0,0-2.938,3.446,1.93,1.93,0,0,0,.268,2.131.335.335,0,0,1,.051.052,3.628,3.628,0,0,0,2.606.752H420a1.3,1.3,0,0,0,.981-.671l5.807-11.26.016-.029A4.634,4.634,0,0,0,427.131,587.455Z" transform="translate(-411.384 -580.704)" fill="#333"/>
        <path id="패스_53953" data-name="패스 53953" d="M421.583,594.789h-4.865a.5.5,0,0,1,0-1h4.865a.5.5,0,1,1,0,1Z" transform="translate(-410.764 -579.824)" fill="#333"/>
        <path id="패스_53954" data-name="패스 53954" d="M422.5,594.984a.5.5,0,0,1-.2-.044,1.707,1.707,0,0,0-.7-.151h-.511a.5.5,0,0,1,0-1h.511a2.7,2.7,0,0,1,1.115.239.5.5,0,0,1-.205.956Z" transform="translate(-410.257 -579.824)" fill="#333"/>
      </g>
      <path id="패스_53955" data-name="패스 53955" d="M430.7,583.819a3.093,3.093,0,0,1-3.006-2.418.5.5,0,0,1,.977-.213,2.077,2.077,0,0,0,4.1-.445,2.062,2.062,0,0,0-.608-1.468.5.5,0,0,1,.707-.707,3.076,3.076,0,0,1-2.175,5.252Z" transform="translate(2.871 0.079)" fill="#333"/>
      <path id="패스_53956" data-name="패스 53956" d="M428.186,581.873a.5.5,0,0,1-.488-.393,3.077,3.077,0,0,1,5.181-2.834.5.5,0,1,1-.707.707,2.077,2.077,0,0,0-3.5,1.912.5.5,0,0,1-.489.608Z" transform="translate(2.865)" fill="#333"/>
      <path id="패스_53957" data-name="패스 53957" d="M441.772,596.953a.5.5,0,0,1-.5-.5v-3.18a8.428,8.428,0,0,0-8.419-8.419H428.86a8.423,8.423,0,0,0-1.311.1.5.5,0,0,1-.156-.988,9.434,9.434,0,0,1,1.467-.114h3.994a9.444,9.444,0,0,1,9.419,9.419v3.18A.5.5,0,0,1,441.772,596.953Z" transform="translate(2.788 0.71)" fill="#333"/>
      <path id="패스_53958" data-name="패스 53958" d="M413.6,584.259a3.076,3.076,0,0,1-2.175-5.252.5.5,0,0,1,.706.708,2.076,2.076,0,0,0,1.469,3.544,2.087,2.087,0,0,0,2.029-1.632.5.5,0,0,1,.977.213A3.093,3.093,0,0,1,413.6,584.259Z" transform="translate(0.877 0.13)" fill="#333"/>
      <path id="패스_53959" data-name="패스 53959" d="M416.042,582.312a.5.5,0,0,1-.489-.6,2.139,2.139,0,0,0,.048-.446,2.076,2.076,0,0,0-3.544-1.469.5.5,0,1,1-.708-.706,3.076,3.076,0,0,1,5.252,2.175,3.139,3.139,0,0,1-.07.655A.5.5,0,0,1,416.042,582.312Z" transform="translate(0.955 0.051)" fill="#333"/>
      <path id="패스_53960" data-name="패스 53960" d="M403.487,597.392a.5.5,0,0,1-.5-.5v-3.18a9.445,9.445,0,0,1,9.419-9.419H416.4a9.44,9.44,0,0,1,1.467.114.5.5,0,0,1-.156.988,8.439,8.439,0,0,0-1.311-.1h-3.994a8.428,8.428,0,0,0-8.419,8.419v3.18A.5.5,0,0,1,403.487,597.392Z" transform="translate(0 0.761)" fill="#333"/>
    </g>
  </g>
</svg>
