<svg xmlns="http://www.w3.org/2000/svg" width="44" height="44" viewBox="0 0 44 44">
  <g id="icon_family01" transform="translate(-123.693 -244.975)">
    <rect id="사각형_4917" data-name="사각형 4917" width="44" height="44" transform="translate(123.693 244.975)" fill="none"/>
    <g id="그룹_33580" data-name="그룹 33580" transform="translate(-215.47 -324.073)">
      <g id="그룹_33579" data-name="그룹 33579" transform="translate(342.918 582.142)">
        <path id="타원_1320" data-name="타원 1320" d="M2.552-.5A3.052,3.052,0,1,1-.5,2.552,3.056,3.056,0,0,1,2.552-.5Zm0,5.1A2.052,2.052,0,1,0,.5,2.552,2.055,2.055,0,0,0,2.552,4.6Z" transform="translate(11.007 0.302)" fill="#333"/>
        <path id="패스_53934" data-name="패스 53934" d="M351.113,582.853a6.4,6.4,0,0,0,0,2.321c.274.586,5.938-2.454,6.29-2.321,0,0-.782-1.4-1.211-1.51A15.465,15.465,0,0,0,351.113,582.853Z" transform="translate(-340.795 -581.331)" fill="#7e4f40" opacity="0.7"/>
        <path id="패스_53935" data-name="패스 53935" d="M353.374,599.8h-1.467a.5.5,0,0,1,0-1h1.467a2.03,2.03,0,0,0,.824-3.884.5.5,0,0,1,.41-.912,3.03,3.03,0,0,1-1.234,5.8Z" transform="translate(-340.555 -577.879)" fill="#333"/>
        <path id="패스_53936" data-name="패스 53936" d="M345.132,593.747a.5.5,0,0,1-.47-.67l1.311-3.635a3.007,3.007,0,0,1,1.064-1.417.5.5,0,0,1,.589.808,2.011,2.011,0,0,0-.712.947l-1.311,3.635A.5.5,0,0,1,345.132,593.747Z" transform="translate(-342.336 -579.465)" fill="#333"/>
        <path id="선_1088" data-name="선 1088" d="M.881,5.669a.5.5,0,0,1-.492-.416L-.493.084A.5.5,0,0,1-.084-.493a.5.5,0,0,1,.577.409l.881,5.169a.5.5,0,0,1-.493.584Z" transform="translate(18.31 14.665)" fill="#333"/>
        <path id="패스_53937" data-name="패스 53937" d="M362.2,587.59c.245.255-.469,1.437-.469,1.437l-6.577,12.752a2.02,2.02,0,0,1-1.594,1.052h-5.658c-2.505,0-3.379-1.052-3.379-1.052a2.741,2.741,0,0,1-.418-3.119s4.068-6.8,14.863-11.483a7.618,7.618,0,0,1,3.232.413" transform="translate(-342.684 -579.799)" fill="#7e4f40" opacity="0.7"/>
        <path id="패스_53938" data-name="패스 53938" d="M363.053,599.149a.5.5,0,0,1-.492-.416l-1.392-8.166c-.341-1.068-1.358-1.883-3.023-2.424a.5.5,0,0,1,.309-.951c2,.649,3.235,1.689,3.673,3.092q0,.014.008.028c.005.021.013.05.018.085l1.392,8.168a.5.5,0,0,1-.493.584Z" transform="translate(-338.874 -579.665)" fill="#333"/>
        <path id="패스_53939" data-name="패스 53939" d="M346.933,589.244a.5.5,0,0,1-.294-.9,11.005,11.005,0,0,1,6.449-1.77.5.5,0,1,1,.048,1,.543.543,0,0,1-.065,0,10.181,10.181,0,0,0-5.847,1.581A.5.5,0,0,1,346.933,589.244Z" transform="translate(-341.863 -579.825)" fill="#333"/>
        <path id="패스_53940" data-name="패스 53940" d="M358.668,586.219a7.694,7.694,0,0,1,2.846.473.5.5,0,0,1,.162.112c.126.131.508.529-.392,2.026l-6.569,12.739-.013.024a2.521,2.521,0,0,1-2.019,1.3h-5.663a5.022,5.022,0,0,1-3.731-1.194,3.239,3.239,0,0,1-.5-3.723l.006-.011a22.282,22.282,0,0,1,3.465-4.088,39.185,39.185,0,0,1,11.628-7.6.5.5,0,0,1,.169-.04C358.259,586.225,358.466,586.219,358.668,586.219Zm2.151,1.29a7.628,7.628,0,0,0-2.151-.29c-.154,0-.311,0-.467.012a38.171,38.171,0,0,0-11.217,7.333,22.034,22.034,0,0,0-3.331,3.908,2.257,2.257,0,0,0,.317,2.493.348.348,0,0,1,.052.053,4.139,4.139,0,0,0,3,.874h5.647a1.531,1.531,0,0,0,1.167-.793l6.57-12.741.016-.029A5.026,5.026,0,0,0,360.819,587.508Z" transform="translate(-342.918 -579.914)" fill="#333"/>
        <path id="패스_53941" data-name="패스 53941" d="M353.756,594.789h-5.5a.5.5,0,0,1,0-1h5.5a.5.5,0,1,1,0,1Z" transform="translate(-341.516 -577.924)" fill="#333"/>
        <path id="패스_53942" data-name="패스 53942" d="M354.218,595.01a.5.5,0,0,1-.2-.044,2,2,0,0,0-.824-.177h-.578a.5.5,0,0,1,0-1h.578a2.989,2.989,0,0,1,1.234.265.5.5,0,0,1-.205.956Z" transform="translate(-340.37 -577.924)" fill="#333"/>
      </g>
      <path id="패스_53943" data-name="패스 53943" d="M362.562,584.4a3.433,3.433,0,0,1-3.336-2.684.5.5,0,1,1,.977-.213,2.415,2.415,0,0,0,4.774-.517,2.4,2.4,0,0,0-.707-1.707.5.5,0,0,1,.707-.707,3.415,3.415,0,0,1-2.415,5.829Z" transform="translate(4.415 0.178)" fill="#333"/>
      <path id="패스_53944" data-name="패스 53944" d="M359.727,582.284a.5.5,0,0,1-.488-.393,3.415,3.415,0,0,1,5.75-3.146.5.5,0,1,1-.706.708,2.416,2.416,0,0,0-4.067,2.223.5.5,0,0,1-.489.608Z" transform="translate(4.401)" fill="#333"/>
      <path id="패스_53945" data-name="패스 53945" d="M375.185,598.542a.5.5,0,0,1-.5-.5v-3.6a9.6,9.6,0,0,0-9.59-9.59h-4.519a9.6,9.6,0,0,0-1.493.116.5.5,0,1,1-.156-.988,10.611,10.611,0,0,1,1.649-.129h4.519a10.62,10.62,0,0,1,10.59,10.59v3.6A.5.5,0,0,1,375.185,598.542Z" transform="translate(4.229 1.606)" fill="#333"/>
    </g>
  </g>
</svg>
