<svg xmlns="http://www.w3.org/2000/svg" width="44" height="44" viewBox="0 0 44 44">
  <g id="icon_walk-bed" transform="translate(-51.24 -697.24)">
    <rect id="사각형_10579" data-name="사각형 10579" width="44" height="44" transform="translate(51.24 697.24)" fill="none"/>
    <g id="그룹_33496" data-name="그룹 33496" transform="translate(-150.231 320.209)">
      <path id="패스_53710" data-name="패스 53710" d="M206.3,403.225a.5.5,0,0,1-.5-.5v-.635a2.922,2.922,0,0,1,2.919-2.918h13.386a.5.5,0,1,1,0,1H208.72a1.921,1.921,0,0,0-1.919,1.918v.635A.5.5,0,0,1,206.3,403.225Z" transform="translate(0.211 0.68)" fill="#333"/>
      <path id="패스_53711" data-name="패스 53711" d="M239.408,403.235a.5.5,0,0,1-.5-.5v-.645a1.921,1.921,0,0,0-1.919-1.918H226.333a.5.5,0,0,1,0-1h10.656a2.922,2.922,0,0,1,2.919,2.918v.645A.5.5,0,0,1,239.408,403.235Z" transform="translate(1.479 0.68)" fill="#333"/>
      <path id="선_961" data-name="선 961" d="M3.783.5H0A.5.5,0,0,1-.5,0,.5.5,0,0,1,0-.5H3.783a.5.5,0,0,1,.5.5A.5.5,0,0,1,3.783.5Z" transform="translate(224.028 400.352)" fill="#333"/>
      <g id="그룹_33495" data-name="그룹 33495" transform="translate(208.485 407.969)">
        <path id="패스_53712" data-name="패스 53712" d="M209.871,411.757a2.217,2.217,0,0,1-2.214-2.214v-2.708a.5.5,0,0,1,.5-.5h3.428a.5.5,0,0,1,.5.5v2.708A2.217,2.217,0,0,1,209.871,411.757Zm-1.214-4.422v2.208a1.214,1.214,0,0,0,2.428,0v-2.208Z" transform="translate(-208.157 -406.835)" fill="#333"/>
        <path id="패스_53713" data-name="패스 53713" d="M235.256,411.757a2.217,2.217,0,0,1-2.214-2.214v-2.708a.5.5,0,0,1,.5-.5h3.429a.5.5,0,0,1,.5.5v2.708A2.217,2.217,0,0,1,235.256,411.757Zm-1.214-4.422v2.208a1.215,1.215,0,0,0,2.429,0v-2.208Z" transform="translate(-206.55 -406.835)" fill="#333"/>
      </g>
      <path id="타원_1294" data-name="타원 1294" d="M2.553-.5A3.053,3.053,0,1,1-.5,2.553,3.056,3.056,0,0,1,2.553-.5Zm0,5.105A2.053,2.053,0,1,0,.5,2.553,2.055,2.055,0,0,0,2.553,4.605Z" transform="translate(208.229 394.633)" fill="#333"/>
      <path id="패스_53714" data-name="패스 53714" d="M214.532,400.37a.5.5,0,0,1-.5-.5v-5.5a.5.5,0,0,1,.5-.5h18.042a.5.5,0,1,1,0,1H215.032v5A.5.5,0,0,1,214.532,400.37Z" transform="translate(0.732 0.344)" fill="#333"/>
      <path id="패스_53715" data-name="패스 53715" d="M235.822,400.319a.5.5,0,0,1-.5-.5v-1.5a3.49,3.49,0,0,0-1.342-2.76.5.5,0,1,1,.618-.786,4.484,4.484,0,0,1,1.724,3.546v1.5A.5.5,0,0,1,235.822,400.319Z" transform="translate(1.982 0.395)" fill="#333"/>
      <path id="패스_53717" data-name="패스 53717" d="M242.493,408.384H204.9a2.248,2.248,0,0,1-.527-.067,2.211,2.211,0,0,1-1.9-2.18V391.044a2.211,2.211,0,0,1,4.422,0v11.977h33.5V391.044a2.211,2.211,0,0,1,4.422,0v8.107a.5.5,0,1,1-1,0v-8.107a1.211,1.211,0,0,0-2.422,0v12.477a.5.5,0,0,1-.5.5h-34.5a.5.5,0,0,1-.5-.5V391.044a1.211,1.211,0,0,0-2.422,0v15.094a1.209,1.209,0,0,0,1.059,1.193.492.492,0,0,1,.058.011,1.277,1.277,0,0,0,.313.044h37.594a1.31,1.31,0,0,0,.536-.117l.017-.007a1.225,1.225,0,0,0,.745-.916l0-.015a1.332,1.332,0,0,0,.029-.275v-.691a.919.919,0,0,1-.009-.1c0-.005,0-.01,0-.015v-3.7a.5.5,0,0,1,1,0v3.682a.884.884,0,0,1,.009.122v.7a2.352,2.352,0,0,1-.048.472,2.233,2.233,0,0,1-1.346,1.659A2.3,2.3,0,0,1,242.493,408.384Z" transform="translate(0 0.026)" fill="#333"/>
      <path id="패스_53718" data-name="패스 53718" d="M213.672,393.078a.5.5,0,0,1-.4-.2,3.2,3.2,0,0,0-2.88-1.34.5.5,0,0,1-.153-.988,4.191,4.191,0,0,1,3.832,1.726.5.5,0,0,1-.4.8Z" transform="translate(0.465 0.133)" fill="#7e4f40"/>
      <path id="패스_53719" data-name="패스 53719" d="M213.819,391.7a.5.5,0,0,1-.4-.2,2.544,2.544,0,0,0-2.28-1.067.5.5,0,1,1-.155-.988,3.538,3.538,0,0,1,3.234,1.453.5.5,0,0,1-.4.8Z" transform="translate(0.894 -1)" fill="#7e4f40"/>
    </g>
  </g>
</svg>
