<svg xmlns="http://www.w3.org/2000/svg" width="44" height="44" viewBox="0 0 44 44">
  <g id="icon_eat-help" transform="translate(-51.24 -697.24)">
    <rect id="사각형_10579" data-name="사각형 10579" width="44" height="44" transform="translate(51.24 697.24)" fill="none"/>
    <g id="그룹_33458" data-name="그룹 33458" transform="translate(-51.055 629.844)">
      <path id="선_914" data-name="선 914" d="M5.1,9.929a.5.5,0,0,1-.44-.262L-.44.238a.5.5,0,0,1,.2-.678.5.5,0,0,1,.678.2l5.1,9.429a.5.5,0,0,1-.439.738Z" transform="translate(138.98 84.808)" fill="#333"/>
      <path id="선_915" data-name="선 915" d="M1.978,4.154a.5.5,0,0,1-.44-.262L-.44.238a.5.5,0,0,1,.2-.678.5.5,0,0,1,.678.2L2.417,3.416a.5.5,0,0,1-.439.738Z" transform="translate(135.939 89.32)" fill="#333"/>
      <path id="패스_53552" data-name="패스 53552" d="M141.919,98.294h-7.887a2.911,2.911,0,0,1,0-5.822h5.721a.5.5,0,0,1,0,1h-5.721a1.911,1.911,0,0,0,0,3.822h7.887a1.913,1.913,0,0,0,1.911-1.911,1.875,1.875,0,0,0-.223-.892.5.5,0,1,1,.882-.471,2.908,2.908,0,0,1-2.57,4.275Z" fill="#333"/>
      <path id="타원_1276" data-name="타원 1276" d="M1.655-.5C2.863-.5,3.81.223,3.81,1.146S2.863,2.793,1.655,2.793-.5,2.07-.5,1.146.447-.5,1.655-.5Zm0,2.293c.661,0,1.155-.341,1.155-.646S2.316.5,1.655.5.5.841.5,1.146.994,1.793,1.655,1.793Z" transform="translate(123.368 94.242) rotate(-0.199)" fill="#333"/>
      <path id="선_916" data-name="선 916" d="M0,.516a.5.5,0,0,1-.5-.5.5.5,0,0,1,.5-.5L4.729-.5a.5.5,0,0,1,.5.5.5.5,0,0,1-.5.5L0,.516Z" transform="translate(126.681 95.361)" fill="#333"/>
      <path id="패스_53553" data-name="패스 53553" d="M131.383,100.957a.5.5,0,0,1-.5-.5V98.041a8.228,8.228,0,0,0-8.219-8.219h-6.6a8.288,8.288,0,0,0-7.391,4.635.5.5,0,0,1-.9-.439,9.3,9.3,0,0,1,3.344-3.748,9.16,9.16,0,0,1,4.945-1.448h6.6a9.245,9.245,0,0,1,9.219,9.219v2.416A.5.5,0,0,1,131.383,100.957Z" fill="#333"/>
      <path id="패스_53554" data-name="패스 53554" d="M107.347,100.943a.5.5,0,0,1-.5-.5v-2.4a9.082,9.082,0,0,1,.93-4.024.5.5,0,0,1,.9.439,8.09,8.09,0,0,0-.828,3.584v2.4A.5.5,0,0,1,107.347,100.943Z" fill="#333"/>
      <path id="패스_53555" data-name="패스 53555" d="M115.8,89.754a.5.5,0,0,1-.2-.959l1.1-.479.987-1.086a.5.5,0,0,1,.74.673l-1.062,1.168a.5.5,0,0,1-.2.135l-1.17.507A.5.5,0,0,1,115.8,89.754Z" fill="#333"/>
      <path id="패스_53556" data-name="패스 53556" d="M123.67,89.822a.5.5,0,0,1-.5-.5v-.905l-.964,1.06a.5.5,0,1,1-.74-.673l1.834-2.017a.5.5,0,0,1,.87.336v2.2A.5.5,0,0,1,123.67,89.822Z" fill="#333"/>
      <path id="패스_53557" data-name="패스 53557" d="M119.3,88.31a3.746,3.746,0,1,1,3.743-3.744A3.748,3.748,0,0,1,119.3,88.31Zm0-6.487a2.741,2.741,0,1,0,2.686,2.187A2.747,2.747,0,0,0,119.3,81.823Z" fill="#333"/>
      <path id="타원_1277" data-name="타원 1277" d="M3.243-.5A3.743,3.743,0,1,1-.5,3.243,3.748,3.748,0,0,1,3.243-.5Zm0,6.487A2.743,2.743,0,1,0,.5,3.243,2.747,2.747,0,0,0,3.243,5.987Z" transform="translate(126.771 74.396)" fill="#333"/>
      <path id="패스_53558" data-name="패스 53558" d="M139.553,86.367a.5.5,0,0,1-.467-.322,3.914,3.914,0,0,0-1.6-1.941.5.5,0,1,1,.536-.844,4.893,4.893,0,0,1,2,2.429.5.5,0,0,1-.467.678Z" fill="#333"/>
      <path id="패스_53559" data-name="패스 53559" d="M122.322,83.892a.5.5,0,0,1-.216-.951,7.649,7.649,0,0,1,3.683-.766l8.815-.008a.5.5,0,0,1,0,1h-1.838l-6.987.008h-.024a6.659,6.659,0,0,0-3.217.668A.5.5,0,0,1,122.322,83.892Z" fill="#333"/>
      <path id="패스_53560" data-name="패스 53560" d="M133.22,87.635h-1.442V86.193a.375.375,0,0,0-.375-.376h-1.081a.375.375,0,0,0-.375.376v1.442h-1.442a.374.374,0,0,0-.375.375v1.081a.375.375,0,0,0,.375.375h1.442v1.442a.375.375,0,0,0,.375.375H131.4a.375.375,0,0,0,.375-.375V89.466h1.442a.375.375,0,0,0,.375-.375V88.01A.374.374,0,0,0,133.22,87.635Z" fill="#7e4f40" opacity="0.7"/>
      <path id="패스_53561" data-name="패스 53561" d="M130.745,91.128h-1.081a.876.876,0,0,1-.876-.875v-.942h-.942a.876.876,0,0,1-.875-.875V87.355a.876.876,0,0,1,.875-.875h.942v-.942a.876.876,0,0,1,.876-.875h1.081a.876.876,0,0,1,.875.875v.942h.157a.5.5,0,0,1,0,1h-.657a.5.5,0,0,1-.5-.5V85.663h-.832V86.98a.5.5,0,0,1-.5.5h-1.317v.831h1.317a.5.5,0,0,1,.5.5v1.317h.832V88.811a.5.5,0,0,1,.5-.5h1.317v-.956a.5.5,0,0,1,1,0v1.081a.876.876,0,0,1-.875.875h-.942v.942A.876.876,0,0,1,130.745,91.128Z" fill="#333"/>
      <path id="패스_53562" data-name="패스 53562" d="M145.046,103.791H103.3l2.432-3.316h36.887Z" fill="#7e4f40" opacity="0.7"/>
      <path id="선_917" data-name="선 917" d="M37.514.5H0A.5.5,0,0,1-.5,0,.5.5,0,0,1,0-.5H37.514a.5.5,0,0,1,.5.5A.5.5,0,0,1,37.514.5Z" transform="translate(105.413 100.457)" fill="#333"/>
    </g>
  </g>
</svg>
