<svg xmlns="http://www.w3.org/2000/svg" width="44" height="44" viewBox="0 0 44 44">
  <g id="icon_gloves" transform="translate(-51.24 -697.24)">
    <rect id="사각형_10579" data-name="사각형 10579" width="44" height="44" transform="translate(51.24 697.24)" fill="none"/>
    <g id="그룹_33454" data-name="그룹 33454" transform="translate(-227.771 484.295)">
      <path id="패스_53528" data-name="패스 53528" d="M300.508,225.024a.5.5,0,0,1-.4-.793l4.851-6.7a1.353,1.353,0,0,0-2.191-1.586l-4.306,5.948a.5.5,0,0,1-.81-.586l4.306-5.948a2.353,2.353,0,0,1,3.811,2.759l-4.851,6.7A.5.5,0,0,1,300.508,225.024Z" transform="translate(2.264)" fill="#333"/>
      <path id="패스_53529" data-name="패스 53529" d="M295.25,228.677h-.024a.5.5,0,0,1-.475-.523c.078-1.624,2.611-4.649,2.964-5.063l.636-.878a1.35,1.35,0,0,0-1.31-2.126,1.341,1.341,0,0,0-.882.54l-2.6,3.6a.5.5,0,0,1-.81-.586l2.6-3.6a2.353,2.353,0,0,1,3.811,2.759l-.648.894-.025.032c-1.034,1.209-2.691,3.493-2.739,4.476A.5.5,0,0,1,295.25,228.677Z" transform="translate(1.362 0.861)" fill="#333"/>
      <path id="패스_53530" data-name="패스 53530" d="M303.128,227.068a.5.5,0,0,1-.4-.793l5.821-8.042a1.35,1.35,0,0,0-1.309-2.126,1.34,1.34,0,0,0-.882.54l-5.822,8.043a.5.5,0,1,1-.81-.586l5.821-8.042a2.353,2.353,0,0,1,3.811,2.759l-5.822,8.043A.5.5,0,0,1,303.128,227.068Z" transform="translate(2.646 0.129)" fill="#333"/>
      <path id="패스_53531" data-name="패스 53531" d="M304.23,230.672a.5.5,0,0,1-.4-.793l6.282-8.678a1.352,1.352,0,1,0-2.191-1.586l-4.849,6.7a.5.5,0,0,1-.81-.586l4.849-6.7a2.352,2.352,0,0,1,3.811,2.759l-6.282,8.678A.5.5,0,0,1,304.23,230.672Z" transform="translate(3.112 0.675)" fill="#333"/>
      <path id="패스_53532" data-name="패스 53532" d="M306.385,232.522a.5.5,0,0,1-.4-.8l4.853-6.322a1.35,1.35,0,0,0-1.313-2.121,1.34,1.34,0,0,0-.882.54l-4.254,5.878a.5.5,0,0,1-.81-.586l4.254-5.878a2.353,2.353,0,0,1,3.811,2.759l-.009.011-4.858,6.328A.5.5,0,0,1,306.385,232.522Z" transform="translate(3.356 1.448)" fill="#333"/>
      <path id="패스_53534" data-name="패스 53534" d="M297.227,232.9a.5.5,0,0,1-.413-.781,4.688,4.688,0,0,0,.645-4.6,5.385,5.385,0,0,0-1.241-1.838.5.5,0,0,1,.662-.75,6.385,6.385,0,0,1,1.506,2.211,5.669,5.669,0,0,1-.744,5.54A.5.5,0,0,1,297.227,232.9Z" transform="translate(1.987 1.916)" fill="#333"/>
      <path id="선_899" data-name="선 899" d="M0,6.575a.5.5,0,0,1-.293-.1.5.5,0,0,1-.112-.7l4.4-6.075a.5.5,0,0,1,.7-.112.5.5,0,0,1,.112.7L.405,6.368A.5.5,0,0,1,0,6.575Z" transform="translate(285.742 244.196)" fill="#333"/>
      <path id="선_900" data-name="선 900" d="M0,6.575a.5.5,0,0,1-.293-.1.5.5,0,0,1-.112-.7l4.4-6.075a.5.5,0,0,1,.7-.112.5.5,0,0,1,.112.7L.405,6.368A.5.5,0,0,1,0,6.575Z" transform="translate(291.461 248.176)" fill="#333"/>
      <path id="패스_53537" data-name="패스 53537" d="M297.165,247.557a.5.5,0,0,1-.173-.031,28.317,28.317,0,0,1-9.209-6.139.5.5,0,0,1-.052-.647l3.932-5.433a30.319,30.319,0,0,1-1-5.993c-.028-2.5,2.033-5.207,2.121-5.321a.5.5,0,1,1,.793.61c-.019.025-1.938,2.55-1.914,4.7a31.393,31.393,0,0,0,1.031,5.974.5.5,0,0,1-.077.425l-3.819,5.276a28.345,28.345,0,0,0,8.188,5.465l5.126-7.436a.5.5,0,0,1,.176-.157c4.549-2.426,5.67-5.836,5.68-5.87a.5.5,0,0,1,.954.3c-.049.154-1.24,3.782-6.056,6.394l-5.285,7.667A.5.5,0,0,1,297.165,247.557Z" transform="translate(0.44 1.731)" fill="#333"/>
    </g>
    <g id="그룹_33470" data-name="그룹 33470" transform="translate(810.734 700.65) rotate(95)">
      <path id="선_929" data-name="선 929" d="M0,2.542a.5.5,0,0,1-.231-.057.5.5,0,0,1-.212-.675L.622-.231A.5.5,0,0,1,1.3-.443a.5.5,0,0,1,.212.675L.443,2.273A.5.5,0,0,1,0,2.542Z" transform="translate(86.943 719.258)" fill="#7e4f40"/>
      <path id="선_930" data-name="선 930" d="M.69,2.7a.5.5,0,0,1-.477-.35L-.477.15A.5.5,0,0,1-.15-.477.5.5,0,0,1,.477-.15l.69,2.2A.5.5,0,0,1,.69,2.7Z" transform="translate(82.852 718.74)" fill="#7e4f40"/>
      <path id="선_931" data-name="선 931" d="M0,1.191A.5.5,0,0,1-.477.84.5.5,0,0,1-.15.213l2.2-.69a.5.5,0,0,1,.627.327.5.5,0,0,1-.327.627l-2.2.69A.5.5,0,0,1,0,1.191Z" transform="translate(89.35 722.887)" fill="#7e4f40"/>
    </g>
  </g>
</svg>
