<svg xmlns="http://www.w3.org/2000/svg" width="44" height="44" viewBox="0 0 44 44">
    <path data-name="사각형 12735" style="fill:none" d="M0 0h44v44H0z"/>
    <g data-name="그룹 38284">
        <path data-name="사각형 12737" transform="translate(3 3)" style="fill:none" d="M0 0h38v38H0z"/>
        <g data-name="그룹 38285">
            <path data-name="패스 60386" d="M11.643 8.928V7.459a3.088 3.088 0 0 1 6.157-.521 3.022 3.022 0 0 1 0 .521v1.469" style="fill:#683c30;opacity:.7" transform="translate(3.127 3.902)"/>
            <path data-name="패스 60387" d="M17.117 14.937h.268a.728.728 0 0 1 .727.726v1.294a.73.73 0 0 1-.727.728h-1.448v1.45a.728.728 0 0 1-.728.726h-1.294a.73.73 0 0 1-.729-.726v-1.449H11.74a.73.73 0 0 1-.727-.728v-1.293a.729.729 0 0 1 .727-.727h1.447v-1.449a.73.73 0 0 1 .728-.724h1.293a.73.73 0 0 1 .728.726v1.446z" style="fill:#683c30;opacity:.7" transform="translate(3.127 3.902)"/>
            <path data-name="패스 60388" d="M16.447 14.215h-.087a.421.421 0 1 0 0 .841h.09a.311.311 0 0 1 .309.309v1.3a.311.311 0 0 1-.306.31h-1.46a.422.422 0 0 0-.418.424v1.45a.312.312 0 0 1-.31.31h-1.3a.31.31 0 0 1-.31-.307V17.4a.42.42 0 0 0-.421-.421h-1.452a.31.31 0 0 1-.31-.309v-1.3a.313.313 0 0 1 .309-.309h1.451a.42.42 0 0 0 .421-.421v-1.454a.313.313 0 0 1 .309-.311h1.3a.313.313 0 0 1 .31.31v1.455a.42.42 0 0 0 .421.42h.333a.421.421 0 0 0 .326-.686.409.409 0 0 0-.238-.146v-1.043a1.159 1.159 0 0 0-1.15-1.15h-1.3a1.159 1.159 0 0 0-1.15 1.15v1.033h-1.033a1.15 1.15 0 0 0-1.149 1.149v1.3a1.151 1.151 0 0 0 1.149 1.15h1.033v1.034A1.151 1.151 0 0 0 12.964 20h1.3a1.151 1.151 0 0 0 1.15-1.149v-1.036h1.032a1.151 1.151 0 0 0 1.149-1.15v-1.3a1.15 1.15 0 0 0-1.149-1.149" style="fill:#1c1d1d" transform="translate(3.127 3.902)"/>
            <path data-name="사각형 12731" transform="translate(9.592 31.848)" style="fill:#683c30;opacity:.7" d="M0 0h14.451v3.086H0z"/>
            <path data-name="패스 60389" d="M3.181 32.451V12.394a.45.45 0 0 0-.9 0v20.057a3.728 3.728 0 0 0 .037.525.452.452 0 0 0 .444.385l.038-.008h.028a.449.449 0 0 0 .381-.508 2.856 2.856 0 0 1-.029-.393" style="fill:#1c1d1d" transform="translate(3.127 3.902)"/>
            <path data-name="패스 60390" d="M24.5 11.945a.449.449 0 0 0-.449.449v20.058a2.909 2.909 0 0 1-.042.483.328.328 0 0 0-.008.078.451.451 0 0 0 .45.45v-.05.05a.448.448 0 0 0 .44-.371 3.754 3.754 0 0 0 .058-.641V12.394a.45.45 0 0 0-.449-.449" style="fill:#1c1d1d" transform="translate(3.127 3.902)"/>
            <path data-name="패스 60391" d="M32.1 15.718h-7.441a.45.45 0 1 0 0 .9H32.1a2.969 2.969 0 0 1 2.957 2.959v12.691a2.966 2.966 0 0 1-.061.6.458.458 0 0 0-.009.09.451.451 0 0 0 .45.45v-.051.05a.45.45 0 0 0 .438-.359 3.837 3.837 0 0 0 .079-.777v-12.7a3.865 3.865 0 0 0-3.854-3.853" style="fill:#1c1d1d" transform="translate(3.127 3.902)"/>
            <path data-name="패스 60392" d="M36.018 32.568H1.727a1.812 1.812 0 0 0 0 3.62H25a.45.45 0 1 0 0-.9H1.735a.919.919 0 0 1-.006-1.824H36.012a.919.919 0 0 1 .006 1.824H26.99a.45.45 0 1 0 0 .9h9.077a1.812 1.812 0 0 0-.05-3.617" style="fill:#1c1d1d" transform="translate(3.127 3.902)"/>
            <path data-name="패스 60393" d="M31.35 19.127h-2.534a1.238 1.238 0 0 0-1.234 1.233v2.54a1.24 1.24 0 0 0 1.234 1.228h2.533a1.238 1.238 0 0 0 1.233-1.234V20.36a1.237 1.237 0 0 0-1.232-1.233m.335 3.764a.339.339 0 0 1-.336.336l-2.533.008a.336.336 0 0 1-.335-.335v-2.54a.335.335 0 0 1 .335-.335h2.534a.335.335 0 0 1 .335.335z" style="fill:#1c1d1d" transform="translate(3.127 3.902)"/>
            <path data-name="패스 60394" d="M24.629 8.878H2.118a1.743 1.743 0 0 0-1.738 1.74v.14A1.741 1.741 0 0 0 2.118 12.5h22.511a1.744 1.744 0 0 0 1.739-1.74v-.14a1.745 1.745 0 0 0-1.739-1.74M1.277 10.619a.843.843 0 0 1 .841-.841h22.511a.846.846 0 0 1 .841.842v.14a.844.844 0 0 1-.841.841H2.118a.842.842 0 0 1-.841-.841z" style="fill:#1c1d1d" transform="translate(3.127 3.902)"/>
            <path data-name="사각형 12733" transform="translate(5.582 23.402)" style="fill:#1c1d1d" d="M0 0h21.964v.9H0z"/>
            <path data-name="패스 60395" d="M31.349 25.42h-.188a.45.45 0 1 0 0 .9h.188a.337.337 0 0 1 .336.335v2.531a.339.339 0 0 1-.336.336h-2.534a.336.336 0 0 1-.335-.336v-2.529a.335.335 0 0 1 .335-.335h.62a.45.45 0 0 0 0-.9h-.619a1.238 1.238 0 0 0-1.234 1.233v2.531a1.239 1.239 0 0 0 1.234 1.237h2.534a1.238 1.238 0 0 0 1.233-1.233v-2.537a1.238 1.238 0 0 0-1.233-1.233" style="fill:#1c1d1d" transform="translate(3.127 3.902)"/>
            <path data-name="패스 60396" d="M20.918 19.535a.449.449 0 0 0-.449.449v3.231a.449.449 0 0 0 .449.449.449.449 0 0 0 .449-.449v-3.231a.45.45 0 0 0-.449-.449" style="fill:#1c1d1d" transform="translate(3.127 3.902)"/>
            <path data-name="패스 60397" d="M20.918 24.506a.449.449 0 0 0-.449.449v7.6a.45.45 0 1 0 .9 0v-7.6a.449.449 0 0 0-.449-.449" style="fill:#1c1d1d" transform="translate(3.127 3.902)"/>
            <path data-name="패스 60398" d="M16.209 4.514a3.8 3.8 0 0 0-2.62-1.283h-.242v.049-.059h-.033a3.756 3.756 0 0 0-3.756 3.723c0 .081 0 .165.005.244v1.647a.851.851 0 0 0 .85.85h5.87a.851.851 0 0 0 .85-.85V7.193a3.685 3.685 0 0 0-.924-2.679m-2.875-.394h.012c.061 0 .126 0 .189.006a2.875 2.875 0 0 1 2.7 3.032v1.629h-5.773V7.162a2.511 2.511 0 0 1 0-.368 2.886 2.886 0 0 1 2.872-2.674" style="fill:#1c1d1d" transform="translate(3.127 3.902)"/>
            <path data-name="패스 60399" d="M13.365 0a.465.465 0 0 0-.465.463v1.549a.465.465 0 0 0 .463.441h.022a.463.463 0 0 0 .442-.443V.458A.462.462 0 0 0 13.365 0" style="fill:#1c1d1d" transform="translate(3.127 3.902)"/>
            <path data-name="패스 60400" d="M19.486 5.562h-1.135a.463.463 0 0 0 .007.926h1.127a.463.463 0 0 0 0-.926" style="fill:#1c1d1d" transform="translate(3.127 3.902)"/>
            <path data-name="패스 60401" d="M8.375 5.562H7.24a.463.463 0 0 0 .007.926h1.127a.463.463 0 0 0 0-.926" style="fill:#1c1d1d" transform="translate(3.127 3.902)"/>
            <path data-name="패스 60402" d="m18.3 1.615-.036.035.03-.03a.462.462 0 0 0-.654 0l-1.006 1a.463.463 0 1 0 .655.654L18.3 2.263a.462.462 0 0 0 0-.648" style="fill:#1c1d1d" transform="translate(3.127 3.902)"/>
            <path data-name="패스 60403" d="m10.072 2.419-.035.035h-.005l.034-.034-1-1.007a.455.455 0 0 0-.314-.123h-.02a.464.464 0 0 0-.321.78l1.006 1a.463.463 0 1 0 .655-.654" style="fill:#1c1d1d" transform="translate(3.127 3.902)"/>
            <path data-name="패스 60404" d="M20.9 27.291h-9.533a.45.45 0 0 0 0 .9H20.9a.45.45 0 0 0 0-.9" style="fill:#1c1d1d" transform="translate(3.127 3.902)"/>
            <path data-name="패스 60405" d="M20.9 30.584H6.355a.449.449 0 0 0-.449.451.45.45 0 0 0 .45.449H20.9a.45.45 0 0 0 0-.9" style="fill:#1c1d1d" transform="translate(3.127 3.902)"/>
            <path data-name="패스 60406" d="M9.653 27.291H6.584a.45.45 0 1 0 0 .9h3.07a.45.45 0 0 0 0-.9" style="fill:#1c1d1d" transform="translate(3.127 3.902)"/>
            <path data-name="패스 60407" d="M13.615 19.55a.451.451 0 0 0-.45.45v12.6a.45.45 0 1 0 .9 0V20a.451.451 0 0 0-.45-.45" style="fill:#1c1d1d" transform="translate(3.127 3.902)"/>
            <path data-name="패스 60408" d="M6.31 19.5a.451.451 0 0 0-.45.45v12.607a.45.45 0 1 0 .9 0V19.95a.45.45 0 0 0-.449-.45" style="fill:#1c1d1d" transform="translate(3.127 3.902)"/>
        </g>
    </g>
</svg>
