<svg xmlns="http://www.w3.org/2000/svg" width="44" height="44" viewBox="0 0 44 44">
  <g id="icon_gender-both" transform="translate(-48.424 -694.424)">
    <rect id="사각형_10579" data-name="사각형 10579" width="44" height="44" transform="translate(48.424 694.424)" fill="none"/>
    <g id="_27.성별" data-name="27.성별" transform="translate(53.518 703.074)">
      <path id="패스_2358" data-name="패스 2358" d="M1791.558,658.458a8.042,8.042,0,1,0-3.479,0v2.932h-4.131v3.46h4.131v4.613h3.479V664.85h4.132v-3.46h-4.132Zm-6.3-7.8a4.563,4.563,0,1,1,4.563,4.537A4.556,4.556,0,0,1,1785.256,650.654Z" transform="translate(-1781.776 -642.657)" fill="#fff"/>
      <path id="패스_2358_-_윤곽선" data-name="패스 2358 - 윤곽선" d="M1791.558,669.963h-3.479a.5.5,0,0,1-.5-.5V665.35h-3.631a.5.5,0,0,1-.5-.5v-3.46a.5.5,0,0,1,.5-.5h3.631v-2.04a8.606,8.606,0,0,1-4.388-2.844,8.543,8.543,0,1,1,13.256,0,8.605,8.605,0,0,1-4.389,2.844v2.04h3.632a.5.5,0,0,1,.5.5v3.46a.5.5,0,0,1-.5.5h-3.632v4.113A.5.5,0,0,1,1791.558,669.963Zm-2.979-1h2.479V664.85a.5.5,0,0,1,.5-.5h3.632v-2.46h-3.632a.5.5,0,0,1-.5-.5v-2.932a.5.5,0,0,1,.392-.488,7.542,7.542,0,1,0-3.264,0,.5.5,0,0,1,.392.488v2.932a.5.5,0,0,1-.5.5h-3.631v2.46h3.631a.5.5,0,0,1,.5.5Zm1.24-13.271a5.037,5.037,0,1,1,5.063-5.037A5.056,5.056,0,0,1,1789.818,655.692Zm0-9.075a4.037,4.037,0,1,0,4.063,4.037A4.055,4.055,0,0,0,1789.818,646.617Z" transform="translate(-1781.776 -642.657)" fill="#333"/>
      <path id="패스_2359" data-name="패스 2359" d="M1802.653,648.565v5.965a8.043,8.043,0,1,0,3.48,0v-5.965l2.615,2.6,2.461-2.447-5.585-5.555a1.747,1.747,0,0,0-2.461,0l-5.584,5.555,2.46,2.447Zm6.3,13.77a4.563,4.563,0,1,1-4.563-4.538A4.556,4.556,0,0,1,1808.956,662.334Z" transform="translate(-1778.705 -642.657)" fill="#fff"/>
      <path id="패스_2359_-_윤곽선" data-name="패스 2359 - 윤곽선" d="M1804.393,642.157a2.26,2.26,0,0,1,1.582.652l5.585,5.555a.5.5,0,0,1,0,.709l-2.461,2.447a.5.5,0,0,1-.705,0l-1.763-1.753v4.37a8.6,8.6,0,0,1,4.389,2.844,8.542,8.542,0,1,1-13.256,0,8.6,8.6,0,0,1,4.388-2.844v-4.37l-1.762,1.753a.5.5,0,0,1-.705,0l-2.46-2.447a.5.5,0,0,1,0-.709l5.584-5.555A2.267,2.267,0,0,1,1804.393,642.157Zm6.106,6.562-5.229-5.2a1.247,1.247,0,0,0-1.756,0l-5.227,5.2,1.751,1.742,2.262-2.25a.5.5,0,0,1,.853.354v5.965a.5.5,0,0,1-.392.488,7.543,7.543,0,1,0,3.264,0,.5.5,0,0,1-.392-.488v-5.965a.5.5,0,0,1,.853-.354l2.263,2.251Zm-6.106,8.577a5.038,5.038,0,1,1-5.063,5.038A5.056,5.056,0,0,1,1804.393,657.3Zm0,9.076a4.038,4.038,0,1,0-4.063-4.038A4.055,4.055,0,0,0,1804.393,666.372Z" transform="translate(-1778.705 -642.657)" fill="#333"/>
      <circle id="타원_1311" data-name="타원 1311" cx="4.709" cy="4.709" r="4.709" transform="translate(5.436 3.985)" fill="#7e4f40" opacity="0.7"/>
      <circle id="타원_1312" data-name="타원 1312" cx="4.709" cy="4.709" r="4.709" transform="translate(22.436 15.985)" fill="#7e4f40" opacity="0.7"/>
    </g>
  </g>
</svg>
