<svg xmlns="http://www.w3.org/2000/svg" width="44" height="44" viewBox="0 0 44 44">
  <g id="icon_feeding" transform="translate(-51.24 -697.24)">
    <rect id="사각형_10579" data-name="사각형 10579" width="44" height="44" transform="translate(51.24 697.24)" fill="none"/>
    <g id="그룹_33459" data-name="그룹 33459" transform="translate(-186.187 627.069)">
      <path id="선_918" data-name="선 918" d="M1.8.5H0A.5.5,0,0,1-.5,0,.5.5,0,0,1,0-.5H1.8a.5.5,0,0,1,.5.5A.5.5,0,0,1,1.8.5Z" transform="translate(249.863 75.301)" fill="#7e4f40"/>
      <path id="선_919" data-name="선 919" d="M1.8.5H0A.5.5,0,0,1-.5,0,.5.5,0,0,1,0-.5H1.8a.5.5,0,0,1,.5.5A.5.5,0,0,1,1.8.5Z" transform="translate(249.863 76.841)" fill="#7e4f40"/>
      <path id="선_920" data-name="선 920" d="M1.8.5H0A.5.5,0,0,1-.5,0,.5.5,0,0,1,0-.5H1.8a.5.5,0,0,1,.5.5A.5.5,0,0,1,1.8.5Z" transform="translate(249.863 78.38)" fill="#7e4f40"/>
      <path id="선_921" data-name="선 921" d="M1.8.5H0A.5.5,0,0,1-.5,0,.5.5,0,0,1,0-.5H1.8a.5.5,0,0,1,.5.5A.5.5,0,0,1,1.8.5Z" transform="translate(249.863 79.919)" fill="#7e4f40"/>
      <path id="패스_53563" data-name="패스 53563" d="M273.8,111.477a.5.5,0,0,1-.5-.5V100.816A10.166,10.166,0,0,0,263.15,90.662h-4.773a10.167,10.167,0,0,0-10.156,10.155v10.161a.5.5,0,0,1-1,0V100.816a11.186,11.186,0,0,1,11.156-11.155h4.773A11.186,11.186,0,0,1,274.3,100.816v10.161A.5.5,0,0,1,273.8,111.477Z" transform="translate(0.241 1.416)" fill="#333"/>
      <path id="타원_1278" data-name="타원 1278" d="M3.078-.5A3.578,3.578,0,1,1-.5,3.078,3.582,3.582,0,0,1,3.078-.5Zm0,6.156A2.578,2.578,0,1,0,.5,3.078,2.581,2.581,0,0,0,3.078,5.656Z" transform="translate(257.835 83.431)" fill="#333"/>
      <path id="패스_53564" data-name="패스 53564" d="M253.77,108.3a.5.5,0,0,1-.5-.493,3.246,3.246,0,0,1,.839-2.207,2.038,2.038,0,0,1,1.52-.519,4.774,4.774,0,0,1,1.949-.651,4.406,4.406,0,0,0,2.658-2.593l.005-.012.142-.323a13.831,13.831,0,0,1-.631-7.617.5.5,0,1,1,.985.17,12.611,12.611,0,0,0,.64,7.218.5.5,0,0,1,.011.426l-.229.522c-.732,1.788-2.474,3.168-3.544,3.208a3.989,3.989,0,0,0-1.6.584.5.5,0,0,1-.316.075,1.118,1.118,0,0,0-.915.249,2.272,2.272,0,0,0-.515,1.457.5.5,0,0,1-.493.507Z" transform="translate(0.682 1.693)" fill="#333"/>
      <path id="패스_53565" data-name="패스 53565" d="M252.331,78.423v.864h0v.093a1.116,1.116,0,0,1-.009.134,3.108,3.108,0,0,1-3.041,2.935h-.414a3.108,3.108,0,0,1-3.041-2.935c0-.044-.009-.089-.009-.134v-.957Z" transform="translate(0.102 0.559)" fill="#7e4f40" opacity="0.7"/>
      <circle id="타원_1279" data-name="타원 1279" cx="0.742" cy="0.742" r="0.742" transform="translate(248.435 71.486)" fill="#7e4f40" opacity="0.7"/>
      <path id="선_922" data-name="선 922" d="M0,4.836a.5.5,0,0,1-.5-.5V0A.5.5,0,0,1,0-.5.5.5,0,0,1,.5,0V4.336A.5.5,0,0,1,0,4.836Z" transform="translate(249.177 83.008)" fill="#7e4f40"/>
      <path id="패스_53566" data-name="패스 53566" d="M253.782,96.637a5.273,5.273,0,0,1-3.472-1.123c-2.111-1.748-1.964-4.852-1.957-4.983a.5.5,0,1,1,1,.056c0,.061-.111,2.749,1.6,4.161,1.144.944,2.873,1.138,5.138.576a.5.5,0,0,1,.241.971A10.645,10.645,0,0,1,253.782,96.637Z" transform="translate(0.323 1.445)" fill="#7e4f40"/>
      <path id="패스_53567" data-name="패스 53567" d="M248.274,89.99a.5.5,0,0,1-.1-.01,1.277,1.277,0,0,1-1.018-1.247V86.99a1.275,1.275,0,0,1,1.274-1.274h1.023a1.275,1.275,0,0,1,1.274,1.274v1.742a1.284,1.284,0,0,1-.985,1.24.5.5,0,0,1-.112.013l-1.353,0Zm.156-3.274a.277.277,0,0,0-.274.274v1.742a.274.274,0,0,0,.181.257l1.217,0a.276.276,0,0,0,.172-.253V86.99a.277.277,0,0,0-.274-.274Z" transform="translate(0.236 1.128)" fill="#333"/>
      <path id="패스_53568" data-name="패스 53568" d="M249.1,91.139h-.4a.985.985,0,0,1-.984-.984v-.7a.5.5,0,1,1,1,0v.689h.371v-.693a.5.5,0,0,1,1,0v.709A.985.985,0,0,1,249.1,91.139Z" transform="translate(0.277 1.364)" fill="#333"/>
      <path id="패스_53569" data-name="패스 53569" d="M248.684,70.256h.985a1.669,1.669,0,0,1,1.655,1.472h1.067a2.1,2.1,0,0,1,2.042,2.151v5.863a2.231,2.231,0,0,1-.015.247,5.444,5.444,0,0,1-.93,2.7,5.089,5.089,0,0,1-1.8,1.627v.119a1.255,1.255,0,0,1-1.253,1.253h-2.516a1.255,1.255,0,0,1-1.254-1.253v-.119a5.089,5.089,0,0,1-1.8-1.626,5.444,5.444,0,0,1-.93-2.7,2.231,2.231,0,0,1-.015-.247V73.879a2.1,2.1,0,0,1,2.042-2.151h1.067A1.669,1.669,0,0,1,248.684,70.256Zm1.751,14.427a.257.257,0,0,0,.253-.253V84a.5.5,0,0,1,.3-.456,4.3,4.3,0,0,0,2.438-3.633c0-.008,0-.016,0-.024a1.265,1.265,0,0,0,.01-.145V73.879a1.1,1.1,0,0,0-1.042-1.151h-1.556a.5.5,0,0,1-.5-.5v-.306a.667.667,0,0,0-.666-.666h-.985a.667.667,0,0,0-.666.666v.306a.5.5,0,0,1-.5.5h-1.556a1.1,1.1,0,0,0-1.042,1.151v5.863a1.265,1.265,0,0,0,.01.145c0,.008,0,.016,0,.024a4.3,4.3,0,0,0,2.438,3.633.5.5,0,0,1,.3.456v.43a.257.257,0,0,0,.254.253Z" transform="translate(0)" fill="#333"/>
      <path id="패스_53570" data-name="패스 53570" d="M260.128,99.073a.5.5,0,0,1-.5-.482c0-.1-.134-2.572-2.351-2.788a2.4,2.4,0,0,0-2.163.732,2.474,2.474,0,0,0-.514.948.5.5,0,0,1-.975-.22,3.389,3.389,0,0,1,.7-1.347,3.594,3.594,0,0,1,5.862.91,4.958,4.958,0,0,1,.438,1.728.5.5,0,0,1-.481.518Z" transform="translate(0.707 1.79)" fill="#333"/>
      <path id="패스_53571" data-name="패스 53571" d="M262.062,94.39c-.6,5.653,1.047,7.33,1.047,7.33,2.079.363,2.112,2.969,2.112,2.969-.264,4.092-3.366,4.653-3.366,4.653-3.7.825-4.751-1.518-4.751-1.518a.7.7,0,0,0-.858-.4c-.759.1-.66,1.288-.66,1.288l-1.056-.5s-.033-2.409,1.98-2.21a4.545,4.545,0,0,1,1.848-.66c.858-.033,2.442-1.288,3.1-2.9l.232-.528a12.931,12.931,0,0,1-.686-7.528Z" transform="translate(0.738 1.724)" fill="#7e4f40" opacity="0.7"/>
      <path id="패스_53572" data-name="패스 53572" d="M259.545,109.593a4.531,4.531,0,0,1-2.559-.708,3.343,3.343,0,0,1-1.164-1.268.209.209,0,0,0-.247-.139.306.306,0,0,1-.1.022c-.2.026-.242.541-.226.751a.5.5,0,0,1-1,.081c-.065-.786.235-1.678,1.045-1.816a1.2,1.2,0,0,1,1.419.661l.009.018c.036.076.965,1.955,4.186,1.236l.02,0c.108-.021,2.711-.563,2.955-4.172-.007-.218-.115-2.19-1.7-2.467a.5.5,0,0,1-.27-.142,4.356,4.356,0,0,1-.871-1.752,15.584,15.584,0,0,1-.316-5.981.5.5,0,1,1,.994.106c-.482,4.535.531,6.387.831,6.825a2.874,2.874,0,0,1,2.021,1.894,4.858,4.858,0,0,1,.309,1.522q0,.019,0,.038a5.62,5.62,0,0,1-1.967,4.218,4.459,4.459,0,0,1-1.8.892A7.281,7.281,0,0,1,259.545,109.593Z" transform="translate(0.754 1.693)" fill="#333"/>
    </g>
  </g>
</svg>
