<svg xmlns="http://www.w3.org/2000/svg" width="44" height="44" viewBox="0 0 44 44">
  <g id="icon_alone" transform="translate(-123.693 -244.975)">
    <rect id="사각형_4917" data-name="사각형 4917" width="44" height="44" transform="translate(123.693 244.975)" fill="none"/>
    <g id="그룹_33578" data-name="그룹 33578" transform="translate(-155.166 -328.654)">
      <g id="그룹_33577" data-name="그룹 33577" transform="translate(284.358 581.685)">
        <path id="타원_1319" data-name="타원 1319" d="M3.4-.5A3.9,3.9,0,1,1-.5,3.4,3.906,3.906,0,0,1,3.4-.5Zm0,6.8A2.9,2.9,0,1,0,.5,3.4,2.905,2.905,0,0,0,3.4,6.3Z" transform="translate(14.672 0.404)" fill="#333"/>
        <path id="패스_53925" data-name="패스 53925" d="M291,581.341a8.486,8.486,0,0,0,0,3.092c.364.781,7.915-3.27,8.383-3.092,0,0-1.042-1.862-1.614-2.015S293.295,580.174,291,581.341Z" transform="translate(-277.251 -579.311)" fill="#7e4f40" opacity="0.7"/>
        <path id="패스_53926" data-name="패스 53926" d="M293.711,599.4h-1.954a.5.5,0,1,1,0-1h1.954a2.871,2.871,0,0,0,1.168-5.494.5.5,0,0,1,.41-.912,3.871,3.871,0,0,1-1.579,7.406Z" transform="translate(-276.625 -570.337)" fill="#333"/>
        <path id="패스_53927" data-name="패스 53927" d="M284.981,593.331a.5.5,0,0,1-.47-.67l1.749-4.846a3.851,3.851,0,0,1,1.357-1.808.5.5,0,1,1,.59.807,2.855,2.855,0,0,0-1.006,1.34L285.451,593A.5.5,0,0,1,284.981,593.331Z" transform="translate(-281.255 -574.46)" fill="#333"/>
        <path id="선_1087" data-name="선 1087" d="M1.174,7.39a.5.5,0,0,1-.492-.416L-.493.084A.5.5,0,0,1-.084-.493a.5.5,0,0,1,.577.409l1.174,6.89a.5.5,0,0,1-.493.584Z" transform="translate(24.405 19.547)" fill="#333"/>
        <path id="패스_53928" data-name="패스 53928" d="M308.179,585.714c.325.34-.626,1.915-.626,1.915l-8.765,17a2.69,2.69,0,0,1-2.126,1.4h-7.539c-3.341,0-4.5-1.4-4.5-1.4a3.651,3.651,0,0,1-.559-4.158s5.423-9.063,19.812-15.306a10.154,10.154,0,0,1,4.307.55" transform="translate(-282.16 -575.329)" fill="#7e4f40" opacity="0.7"/>
        <path id="패스_53929" data-name="패스 53929" d="M304.485,600.786a.5.5,0,0,1-.492-.416l-1.856-10.884v0c-.464-1.49-1.857-2.62-4.141-3.359a.5.5,0,0,1,.308-.951c2.608.845,4.219,2.193,4.786,4.009a.9.9,0,0,1,.032.132l1.856,10.888a.5.5,0,0,1-.493.584Z" transform="translate(-272.257 -574.981)" fill="#333"/>
        <path id="패스_53930" data-name="패스 53930" d="M286.781,587.786a.5.5,0,0,1-.293-.905,14.515,14.515,0,0,1,8.521-2.328h.015a.5.5,0,0,1,.012,1,.6.6,0,0,1-.076,0,13.693,13.693,0,0,0-7.885,2.14A.5.5,0,0,1,286.781,587.786Z" transform="translate(-280.025 -575.396)" fill="#333"/>
        <path id="패스_53931" data-name="패스 53931" d="M303.768,584.2a10.052,10.052,0,0,1,3.719.616.5.5,0,0,1,.163.113c.388.405.152,1.088-.1,1.637a9.416,9.416,0,0,1-.453.867l-8.757,16.983-.013.023a3.184,3.184,0,0,1-2.551,1.65h-7.548c-3.277,0-4.633-1.306-4.856-1.547a4.135,4.135,0,0,1-.641-4.758l.007-.011a29.53,29.53,0,0,1,4.592-5.414,47.422,47.422,0,0,1,6.2-5.022,55.971,55.971,0,0,1,9.248-5.072.5.5,0,0,1,.168-.04C303.224,584.208,303.5,584.2,303.768,584.2Zm3.067,1.442a10.063,10.063,0,0,0-3.067-.442c-.22,0-.444.006-.668.018a51.069,51.069,0,0,0-15.04,9.829,29.449,29.449,0,0,0-4.458,5.235,3.144,3.144,0,0,0,.457,3.53.375.375,0,0,1,.053.054c.053.058,1.16,1.224,4.12,1.224h7.535a2.194,2.194,0,0,0,1.694-1.144l8.758-16.985.016-.029A5.921,5.921,0,0,0,306.835,585.642Z" transform="translate(-282.767 -575.629)" fill="#333"/>
        <path id="패스_53932" data-name="패스 53932" d="M295.438,592.77H288.1a.5.5,0,1,1,0-1h7.337a.5.5,0,1,1,0,1Z" transform="translate(-279.123 -570.457)" fill="#333"/>
        <path id="패스_53933" data-name="패스 53933" d="M294.6,593.065a.5.5,0,0,1-.2-.044,2.842,2.842,0,0,0-1.169-.251h-.771a.5.5,0,0,1,0-1h.771a3.835,3.835,0,0,1,1.578.338.5.5,0,0,1-.2.956Z" transform="translate(-276.145 -570.457)" fill="#333"/>
      </g>
    </g>
  </g>
</svg>
