<svg xmlns="http://www.w3.org/2000/svg" width="44" height="44" viewBox="0 0 44 44">
  <g id="icon_surgery" transform="translate(-48.424 -694.424)">
    <rect id="사각형_10579" data-name="사각형 10579" width="44" height="44" transform="translate(48.424 694.424)" fill="none"/>
    <g id="그룹_33550" data-name="그룹 33550" transform="translate(-36.736 460.91)">
      <path id="사각형_10611" data-name="사각형 10611" d="M.763-.5H3A1.265,1.265,0,0,1,4.265.763v.448A1.265,1.265,0,0,1,3,2.474H.763A1.265,1.265,0,0,1-.5,1.211V.763A1.265,1.265,0,0,1,.763-.5ZM3,1.474a.263.263,0,0,0,.263-.263V.763A.263.263,0,0,0,3,.5H.763A.263.263,0,0,0,.5.763v.448a.263.263,0,0,0,.263.263Z" transform="translate(116.781 268.658)" fill="#333"/>
      <path id="사각형_10613" data-name="사각형 10613" d="M2.933-.5H28.8a3.437,3.437,0,0,1,3.433,3.433V23.747A3.438,3.438,0,0,1,28.8,27.18H2.934A3.438,3.438,0,0,1-.5,23.747V2.933A3.437,3.437,0,0,1,2.933-.5ZM28.8,26.18a2.437,2.437,0,0,0,2.434-2.434V2.933A2.436,2.436,0,0,0,28.8.5H2.933A2.436,2.436,0,0,0,.5,2.933V23.747A2.437,2.437,0,0,0,2.934,26.18Z" transform="translate(91.295 241.977)" fill="#333"/>
      <rect id="사각형_10614" data-name="사각형 10614" width="26.47" height="18.061" rx="0.297" transform="translate(93.924 245.292)" fill="#fff"/>
      <path id="사각형_10614_-_윤곽선" data-name="사각형 10614 - 윤곽선" d="M.3-.5H26.173a.8.8,0,0,1,.8.8V17.764a.8.8,0,0,1-.8.8H.3a.8.8,0,0,1-.8-.8V.3A.8.8,0,0,1,.3-.5ZM25.97.5H.5V17.561H25.97Z" transform="translate(93.924 245.292)" fill="#333"/>
      <path id="사각형_10615" data-name="사각형 10615" d="M.3-.5H26.173a.8.8,0,0,1,.8.8V17.764a.8.8,0,0,1-.8.8H.3a.8.8,0,0,1-.8-.8V.3A.8.8,0,0,1,.3-.5ZM25.97.5H.5V17.561H25.97Z" transform="translate(93.924 245.292)" fill="#333"/>
      <path id="사각형_10616" data-name="사각형 10616" d="M.763-.5H3A1.265,1.265,0,0,1,4.265.763v.448A1.265,1.265,0,0,1,3,2.474H.763A1.265,1.265,0,0,1-.5,1.211V.763A1.265,1.265,0,0,1,.763-.5ZM3,1.474a.263.263,0,0,0,.263-.263V.763A.263.263,0,0,0,3,.5H.763A.263.263,0,0,0,.5.763v.448a.263.263,0,0,0,.263.263Z" transform="translate(93.418 268.658)" fill="#333"/>
      <path id="패스_53889" data-name="패스 53889" d="M101.511,262.292h0a.5.5,0,0,1-.482-.374l-1.9-7.261-.96,2.42a.5.5,0,0,1-.465.316H93.932a.5.5,0,0,1,0-1h3.434l1.4-3.523a.5.5,0,0,1,.949.058l1.8,6.906,2.636-9.874a.5.5,0,0,1,.968.008l1.648,6.633.8-2.438a.5.5,0,0,1,.933-.044l1.117,2.551h1.913l.73-2.084a.5.5,0,0,1,.95.018l1.748,5.668,1.28-3.284a.5.5,0,0,1,.466-.318H120.4a.5.5,0,1,1,0,1h-3.351l-1.676,4.3a.5.5,0,0,1-.944-.034l-1.724-5.588-.345.985a.5.5,0,0,1-.472.335H109.3a.5.5,0,0,1-.458-.3l-.724-1.654-.938,2.843a.5.5,0,0,1-.96-.036l-1.6-6.431-2.624,9.828A.5.5,0,0,1,101.511,262.292Z" transform="translate(-0.007 -1.039)" fill="#333"/>
      <g id="icon_heart_ac" transform="translate(112.472 247.286)">
        <path id="Vector" d="M3.348,5.167A7.874,7.874,0,0,0,5.8,2.777,1.778,1.778,0,0,0,4.53,0,1.517,1.517,0,0,0,3.267.634a.281.281,0,0,1-.455,0A1.517,1.517,0,0,0,1.548,0,1.778,1.778,0,0,0,.274,2.777,7.873,7.873,0,0,0,2.73,5.167.559.559,0,0,0,3.348,5.167Z" transform="translate(0 0)" fill="#a48379"/>
      </g>
    </g>
  </g>
</svg>
