<svg xmlns="http://www.w3.org/2000/svg" width="44" height="44" viewBox="0 0 44 44">
    <defs>
        <clipPath id="9q85jjrdva">
            <path data-name="사각형 10893" transform="translate(-2238 -5039)" style="fill:#fff" d="M0 0h44v44H0z"/>
        </clipPath>
    </defs>
    <g data-name="마스크 그룹 321" transform="translate(2238 5039)" style="clip-path:url(#9q85jjrdva)">
        <g data-name="그룹 33669">
            <path data-name="패스 54519" d="M455.169 590.306a12.428 12.428 0 0 0-12.079 11.584 8.505 8.505 0 0 1-1.779 5.164c-1.394 1.791-1.321 2.957 1.114 3.956a1.516 1.516 0 0 1 .728.935c.251 1 .372 2.026.562 3.038a3.923 3.923 0 0 0 3.895 3.312c.942.02 1.886.013 2.829.005a.981.981 0 0 1 1.117.882c.11.608.277 1.206.376 1.816m12.861-.112c-.219-1.036-.421-2.076-.64-3.113a5.961 5.961 0 0 1 .765-4.58c.783-1.246 1.563-2.5 2.287-3.778a14.454 14.454 0 0 0 1.123-2.5" style="fill:none;stroke:#333;stroke-linecap:round;stroke-linejoin:round" transform="translate(-2673.397 -5620.966)"/>
            <path data-name="패스 54520" d="M455.534 591.306V592a.676.676 0 1 0-.386 1.231.666.666 0 0 0 .386-.122v.765a.7.7 0 0 0 .693.693h.705" style="stroke-width:.7px;fill:none;stroke:#333;stroke-linecap:round;stroke-linejoin:round" transform="translate(-2673.397 -5620.966)"/>
            <path data-name="패스 54521" d="M462 602.474h.705a.7.7 0 0 0 .693-.693v-.765a.666.666 0 0 0 .386.122.677.677 0 1 0-.386-1.231v-.69a.7.7 0 0 0-.693-.693h-.728a.666.666 0 0 0 .122-.386.677.677 0 1 0-1.231.386h-.727a.7.7 0 0 0-.693.693" style="stroke-width:.7px;fill:none;stroke:#333;stroke-linecap:round;stroke-linejoin:round" transform="translate(-2673.397 -5620.966)"/>
            <path data-name="패스 54522" d="M459.447 601.781a.7.7 0 0 0 .693.693h.7" style="stroke-width:.7px;fill:none;stroke:#333;stroke-linecap:round;stroke-linejoin:round" transform="translate(-2673.397 -5620.966)"/>
            <path data-name="패스 54523" d="M455.5 599.18a.7.7 0 0 0-.693-.693h-.7a.677.677 0 1 0-1.155 0h-.7a.7.7 0 0 0-.694.693v.765a.677.677 0 1 0 0 1.109v.69a.7.7 0 0 0 .694.693h.727a.677.677 0 1 0 1.109 0h.728a.7.7 0 0 0 .693-.693" style="stroke-width:.7px;fill:none;stroke:#333;stroke-linecap:round;stroke-linejoin:round" transform="translate(-2673.397 -5620.966)"/>
            <path data-name="패스 54524" d="M463.387 605.024v.765a.7.7 0 0 0 .693.694h.705a.667.667 0 0 0-.1.348.676.676 0 0 0 1.353 0 .666.666 0 0 0-.1-.348h1.343" style="stroke-width:.7px;fill:none;stroke:#333;stroke-linecap:round;stroke-linejoin:round" transform="translate(-2673.397 -5620.966)"/>
            <path data-name="패스 54526" d="M455.749 598.339a.7.7 0 0 0 .318.148" style="stroke-width:.7px;fill:none;stroke:#333;stroke-linecap:round;stroke-linejoin:round" transform="translate(-2673.397 -5620.966)"/>
            <path data-name="패스 54527" d="M471.735 588.807a.668.668 0 0 0-.386.122v-.69a.7.7 0 0 0-.693-.693h-.728a.676.676 0 1 0-1.108 0h-.728a.7.7 0 0 0-.693.693v.69a.668.668 0 0 0-.386-.122.676.676 0 1 0 .386 1.231v.765a.7.7 0 0 0 .693.693h.7a.666.666 0 0 0-.1.348.676.676 0 1 0 1.352 0 .666.666 0 0 0-.1-.348h.705a.7.7 0 0 0 .693-.693v-.765a.676.676 0 1 0 .386-1.231z" style="fill:#7e4f40;opacity:.7" transform="translate(-2673.397 -5620.966)"/>
            <path data-name="패스 54528" d="M462.426 588.606a.679.679 0 0 0-.1.393l-.588-.361a.7.7 0 0 0-.953.229l-.38.62a.676.676 0 1 0-.579.946l-.38.62a.7.7 0 0 0 .229.953l.588.361a.676.676 0 0 1 1.028-.617.678.678 0 0 1 .223.931.669.669 0 0 1-.306.265l.653.4a.7.7 0 0 0 .953-.229l.368-.6a.665.665 0 0 0 .245.266.676.676 0 1 0 .707-1.153.663.663 0 0 0-.349-.1l.368-.6a.693.693 0 0 0-.229-.953l-.652-.4a.676.676 0 1 0-.848-.972z" style="fill:#7e4f40;opacity:.7" transform="translate(-2673.397 -5620.966)"/>
            <path data-name="패스 54529" d="M466.865 595.2a.677.677 0 0 1-.383-.876.666.666 0 0 1 .1-.17l-.558-.219a.7.7 0 0 0-.9.393l-.232.594a.668.668 0 0 1 .193.041.677.677 0 0 1-.493 1.26.685.685 0 0 1-.17-.1l-.232.593a.7.7 0 0 0 .393.9l.559.219a.653.653 0 0 1 .041-.193.676.676 0 1 1 1.159.662l.629.246a.7.7 0 0 0 .9-.393l.265-.678a.676.676 0 1 0 .808-1.005.662.662 0 0 0-.4-.027l.265-.678a.7.7 0 0 0-.393-.9l-.629-.246a.652.652 0 0 1-.041.193.677.677 0 0 1-.881.384z" style="fill:#7e4f40;opacity:.7" transform="translate(-2673.397 -5620.966)"/>
            <path data-name="패스 54530" d="M471.136 588.29a.669.669 0 0 0-.386.122v-.69a.7.7 0 0 0-.693-.693h-.728a.676.676 0 1 0-1.108 0h-.728a.7.7 0 0 0-.693.693v.69a.669.669 0 0 0-.386-.122.676.676 0 1 0 0 1.352.669.669 0 0 0 .386-.122v.766a.7.7 0 0 0 .693.693h.7a.666.666 0 0 0-.1.348.676.676 0 0 0 1.352 0 .666.666 0 0 0-.1-.348h.705a.7.7 0 0 0 .693-.693v-.766a.676.676 0 1 0 .386-1.23z" style="stroke-width:.7px;fill:none;stroke:#333;stroke-linecap:round;stroke-linejoin:round" transform="translate(-2673.397 -5620.966)"/>
            <path data-name="패스 54531" d="M461.89 588.037a.671.671 0 0 0-.1.393l-.588-.361a.7.7 0 0 0-.953.229l-.38.621a.676.676 0 1 0-.579.945l-.38.62a.694.694 0 0 0 .228.953l.589.361a.677.677 0 1 1 .945.579l.653.4a.7.7 0 0 0 .953-.229l.368-.6a.675.675 0 1 0 .952-.887.663.663 0 0 0-.349-.1l.368-.6a.7.7 0 0 0-.229-.953l-.652-.4a.676.676 0 1 0-.848-.972z" style="stroke-width:.7px;fill:none;stroke:#333;stroke-linecap:round;stroke-linejoin:round" transform="translate(-2673.397 -5620.966)"/>
            <path data-name="패스 54532" d="M466.266 594.946a.677.677 0 0 1-.383-.876.666.666 0 0 1 .1-.17l-.558-.219a.7.7 0 0 0-.9.393l-.232.594a.666.666 0 0 1 .193.041.677.677 0 0 1-.493 1.26.687.687 0 0 1-.17-.1l-.232.593a.7.7 0 0 0 .393.9l.559.219a.652.652 0 0 1 .041-.193.676.676 0 0 1 1.26.492.669.669 0 0 1-.1.17l.629.246a.7.7 0 0 0 .9-.393l.265-.678a.675.675 0 0 0 1.191-.129.676.676 0 0 0-.383-.876.662.662 0 0 0-.4-.027l.265-.678a.7.7 0 0 0-.393-.9l-.629-.246a.653.653 0 0 1-.041.193.677.677 0 0 1-.882.384z" style="stroke-width:.7px;fill:none;stroke:#333;stroke-linecap:round;stroke-linejoin:round" transform="translate(-2673.397 -5620.966)"/>
            <path data-name="패스 54533" d="M472.707 602.352a.675.675 0 0 0-.368.169l-.085-.685a.7.7 0 0 0-.773-.6l-.722.09a.676.676 0 1 0-1.269-.232.667.667 0 0 0 .168.368l-.722.09a.7.7 0 0 0-.6.773l.085.685a.668.668 0 0 1 .368-.169.676.676 0 1 1-.232 1.269l.1.759a.7.7 0 0 0 .773.6l.7-.087a.676.676 0 1 0 1.287.191.657.657 0 0 0-.141-.333l.7-.087a.7.7 0 0 0 .6-.773l-.1-.76a.676.676 0 1 0 .232-1.269z" style="fill:#7e4f40;opacity:.7" transform="translate(-2673.397 -5620.966)"/>
            <path data-name="패스 54534" d="M458.186 602.823a.673.673 0 0 0-.122-.386h.69a.7.7 0 0 0 .693-.693v-.728a.666.666 0 0 0 .386.122.677.677 0 1 0-.386-1.231v-.727a.7.7 0 0 0-.693-.693h-.69a.676.676 0 1 1-1.231.386.666.666 0 0 1 .122-.386h-.765a.7.7 0 0 0-.693.693v.705a.676.676 0 1 0 0 1.154v.705a.7.7 0 0 0 .693.693h.765a.666.666 0 0 0-.122.386.676.676 0 0 0 1.353 0z" style="stroke-width:.7px;fill:none;stroke:#333;stroke-linecap:round;stroke-linejoin:round" transform="translate(-2673.397 -5620.966)"/>
            <path data-name="패스 54535" d="M463.4 603.915v-.727a.7.7 0 0 0-.693-.693h-.69a.677.677 0 1 1-1.109 0h-.765a.7.7 0 0 0-.693.693v.705a.676.676 0 1 0 0 1.154v.705a.7.7 0 0 0 .693.693h.765a.676.676 0 1 0 1.109 0h.69a.7.7 0 0 0 .693-.693v-.728a.666.666 0 0 0 .386.122.676.676 0 1 0-.386-1.231" style="stroke-width:.7px;fill:none;stroke:#333;stroke-linecap:round;stroke-linejoin:round" transform="translate(-2673.397 -5620.966)"/>
            <path data-name="패스 54536" d="M458.96 598.466a.7.7 0 0 0 .487-.661v-.728a.666.666 0 0 0 .386.122.676.676 0 1 0-.386-1.231v-.727a.7.7 0 0 0-.693-.693h-.69a.676.676 0 1 1-1.231.386.666.666 0 0 1 .122-.386h-.765a.7.7 0 0 0-.693.693v.7a.675.675 0 1 0-.349 1.253.679.679 0 0 0 .349-.1v.705a.692.692 0 0 0 .252.534" style="stroke-width:.7px;fill:none;stroke:#333;stroke-linecap:round;stroke-linejoin:round" transform="translate(-2673.397 -5620.966)"/>
        </g>
    </g>
</svg>
