<svg xmlns="http://www.w3.org/2000/svg" width="44" height="44" viewBox="0 0 44 44">
  <g id="img_know" transform="translate(-51.24 -697.24)">
    <rect id="사각형_10579" data-name="사각형 10579" width="44" height="44" transform="translate(51.24 697.24)" fill="none"/>
    <g id="그룹_33569" data-name="그룹 33569" transform="translate(-315.506 113.817)">
      <path id="선_1095" data-name="선 1095" d="M0,1.968a.5.5,0,0,1-.231-.057.5.5,0,0,1-.212-.675L.323-.231A.5.5,0,0,1,1-.443a.5.5,0,0,1,.212.675L.443,1.7A.5.5,0,0,1,0,1.968Z" transform="translate(401.298 584.617)" fill="#7e4f40"/>
      <path id="선_1096" data-name="선 1096" d="M.5,2.08a.5.5,0,0,1-.477-.35L-.477.15A.5.5,0,0,1-.15-.477.5.5,0,0,1,.477-.15l.5,1.579A.5.5,0,0,1,.5,2.08Z" transform="translate(398.357 584.245)" fill="#7e4f40"/>
      <circle id="타원_1318" data-name="타원 1318" cx="6.759" cy="6.759" r="6.759" transform="translate(389.686 590.411)" fill="#7e4f40" opacity="0.7"/>
      <path id="패스_53923" data-name="패스 53923" d="M384.734,623.1a.5.5,0,0,1-.493-.42c-.054-.329-.126-.653-.2-1-.064-.287-.131-.583-.185-.882-.061-.335-.178-.507-.647-.507h-.018c-1,.009-1.982.016-2.956-.005a4.565,4.565,0,0,1-4.529-3.851c-.07-.373-.132-.751-.192-1.117-.109-.667-.221-1.356-.386-2.01a1.113,1.113,0,0,0-.463-.633c-1.386-.569-2.134-1.216-2.353-2.037a3.525,3.525,0,0,1,.991-2.843,8.328,8.328,0,0,0,1.744-5.081,12.585,12.585,0,0,1,2.734-7.3,13.733,13.733,0,0,1,6.316-4.477.5.5,0,0,1,.327.945,12.282,12.282,0,0,0-8.378,10.874,9.268,9.268,0,0,1-1.954,5.654c-.671.862-.938,1.507-.814,1.971.128.48.722.941,1.767,1.37a2.07,2.07,0,0,1,1.052,1.313c.175.7.291,1.406.4,2.094.059.36.119.732.187,1.093a3.6,3.6,0,0,0,3.567,3.036c.961.021,1.932.014,2.926,0h.026a1.5,1.5,0,0,1,1.633,1.329c.05.278.112.552.177.841.077.342.156.7.215,1.054a.5.5,0,0,1-.413.574A.506.506,0,0,1,384.734,623.1Z" fill="#333"/>
      <path id="패스_53924" data-name="패스 53924" d="M398.191,607.393h-6.539a1.412,1.412,0,0,1-1.41-1.41v-1.956a9.182,9.182,0,0,1,9.093-15.951.5.5,0,1,1-.481.876,8.182,8.182,0,0,0-7.87,14.347.5.5,0,0,1,.259.438v2.246a.41.41,0,0,0,.41.41h6.539a.411.411,0,0,0,.411-.41v-2.246a.5.5,0,0,1,.259-.438,8.18,8.18,0,0,0,1.725-13.073.5.5,0,0,1,.692-.722,9.18,9.18,0,0,1-1.676,14.523v1.956A1.412,1.412,0,0,1,398.191,607.393Z" fill="#333"/>
      <path id="패스_53925" data-name="패스 53925" d="M397.389,609.023h-4.935a1.307,1.307,0,0,1-1.306-1.3v-.825a.5.5,0,0,1,1,0v.825a.31.31,0,0,0,.306.3h4.935a.31.31,0,0,0,.306-.3v-.825a.5.5,0,0,1,1,0v.825A1.307,1.307,0,0,1,397.389,609.023Z" fill="#333"/>
      <path id="패스_53926" data-name="패스 53926" d="M396.69,610.653h-3.537a1.2,1.2,0,0,1-1.2-1.2v-.931a.5.5,0,0,1,1,0v.931a.2.2,0,0,0,.2.2h3.537a.2.2,0,0,0,.2-.2v-.931a.5.5,0,0,1,1,0v.931A1.2,1.2,0,0,1,396.69,610.653Z" fill="#333"/>
      <path id="패스_53927" data-name="패스 53927" d="M397.064,603.041a.5.5,0,0,1-.158-.974,6.26,6.26,0,1,0-3.984-.006.5.5,0,1,1-.319.948,7.259,7.259,0,1,1,4.62.006A.5.5,0,0,1,397.064,603.041Z" fill="#333"/>
      <path id="패스_53928" data-name="패스 53928" d="M396.114,606.258a.5.5,0,0,1-.5-.5v-3.3a.692.692,0,1,0-1.384,0v3.266a.5.5,0,0,1-1,0V602.46a1.692,1.692,0,1,1,3.384,0v3.3A.5.5,0,0,1,396.114,606.258Z" fill="#333"/>
      <path id="선_1097" data-name="선 1097" d="M3.719.5H0A.5.5,0,0,1-.5,0,.5.5,0,0,1,0-.5H3.719a.5.5,0,0,1,.5.5A.5.5,0,0,1,3.719.5Z" transform="translate(393.063 597.138)" fill="#333"/>
      <path id="선_1098" data-name="선 1098" d="M0,5.747a.5.5,0,0,1-.5-.5V0A.5.5,0,0,1,0-.5.5.5,0,0,1,.5,0V5.247A.5.5,0,0,1,0,5.747Z" transform="translate(394.922 597.294)" fill="#333"/>
      <path id="선_1099" data-name="선 1099" d="M0,1A.5.5,0,0,1-.477.646.5.5,0,0,1-.15.019l1.579-.5a.5.5,0,0,1,.627.327.5.5,0,0,1-.327.627L.15.973A.5.5,0,0,1,0,1Z" transform="translate(403.03 587.226)" fill="#7e4f40"/>
      <path id="선_1100" data-name="선 1100" d="M0,1.745A.5.5,0,0,1-.33,1.621.5.5,0,0,1-.376.916L.715-.33a.5.5,0,0,1,.706-.046A.5.5,0,0,1,1.467.33L.376,1.575A.5.5,0,0,1,0,1.745Z" transform="translate(384.8 603.967)" fill="#7e4f40"/>
      <path id="선_1101" data-name="선 1101" d="M0,.609A.5.5,0,0,1-.5.142.5.5,0,0,1-.033-.39L1.619-.5a.5.5,0,0,1,.532.466A.5.5,0,0,1,1.685.5L.033.608Z" transform="translate(383.316 602.057)" fill="#7e4f40"/>
      <path id="선_1102" data-name="선 1102" d="M.108,2.152a.5.5,0,0,1-.5-.467L-.5.033A.5.5,0,0,1-.033-.5.5.5,0,0,1,.5-.033L.608,1.619a.5.5,0,0,1-.466.532Z" transform="translate(388.054 604.761)" fill="#7e4f40"/>
      <path id="패스_53931" data-name="패스 53931" d="M398.1,622.986a.5.5,0,0,1-.489-.4c-.11-.524-.218-1.056-.322-1.571-.111-.546-.225-1.112-.342-1.666a6.722,6.722,0,0,1,.861-5.129c.862-1.373,1.635-2.614,2.365-3.908a13.69,13.69,0,0,0,1.541-4.062.5.5,0,1,1,.981.194,14.684,14.684,0,0,1-1.651,4.36c-.74,1.312-1.52,2.564-2.389,3.948a5.68,5.68,0,0,0-.729,4.391c.117.558.232,1.125.343,1.673.1.513.212,1.044.321,1.564a.5.5,0,0,1-.49.6Z" fill="#333"/>
    </g>
  </g>
</svg>
