<svg xmlns="http://www.w3.org/2000/svg" width="44" height="44" viewBox="0 0 44 44">
  <g id="icon_suction" transform="translate(-51.24 -697.24)">
    <rect id="사각형_10579" data-name="사각형 10579" width="44" height="44" transform="translate(51.24 697.24)" fill="none"/>
    <g id="그룹_33506" data-name="그룹 33506" transform="translate(-119.858 626.122)">
      <g id="그룹_33505" data-name="그룹 33505" transform="translate(173.835 75.114)">
        <g id="그룹_33502" data-name="그룹 33502" transform="translate(15.43 17.333)">
          <path id="패스_53725" data-name="패스 53725" d="M189.321,104.987a2.482,2.482,0,0,1-.745-.1l-.007,0c-.724-.257-1.6-1-1.634-3.094a10.145,10.145,0,0,1,.225-2.216l.007-.026c1.358-4.71,2.825-6.333,3.816-6.866a1.7,1.7,0,0,1,1.227-.223c.6.152,1.362.663,1.639,2.232a7.327,7.327,0,0,1,.086,1.663.5.5,0,0,1-1-.079h0c.052-.662-.017-2.607-.978-2.848l-.015,0h0c-.078-.006-.488,0-1.1.612-.678.687-1.7,2.247-2.717,5.772-.046.214-.734,3.585.764,4.129a2.388,2.388,0,0,0,2.453-1.065.5.5,0,0,1,.421-.182c.146.009,1.445.051,1.564-1.126a13.273,13.273,0,0,0-.121-2.408.5.5,0,0,1,.975-.22,14.536,14.536,0,0,1,.145,2.675q0,.015,0,.031a2.1,2.1,0,0,1-1.437,1.868,3.187,3.187,0,0,1-.929.179A3.508,3.508,0,0,1,189.321,104.987Z" transform="translate(-187.434 -90.05)" fill="#333"/>
          <path id="패스_53726" data-name="패스 53726" d="M199.187,104.987a3.508,3.508,0,0,1-2.646-1.3,3.187,3.187,0,0,1-.929-.179,2.1,2.1,0,0,1-1.437-1.868q0-.015,0-.031a14.54,14.54,0,0,1,.145-2.675.5.5,0,0,1,.975.22,13.276,13.276,0,0,0-.121,2.408,1.09,1.09,0,0,0,.78,1,2.206,2.206,0,0,0,.785.121.5.5,0,0,1,.421.182,2.373,2.373,0,0,0,2.45,1.066c.769-.277.949-1.332.964-2.169a9.223,9.223,0,0,0-.2-1.961c-1.018-3.526-2.039-5.086-2.717-5.773-.607-.615-1.017-.618-1.1-.612h0l-.015,0c-.965.241-1.031,2.185-.978,2.847a.5.5,0,1,1-1,.08,7.327,7.327,0,0,1,.086-1.663c.276-1.569,1.042-2.08,1.639-2.232a1.7,1.7,0,0,1,1.227.223c.991.532,2.458,2.156,3.816,6.866l.007.026a10.144,10.144,0,0,1,.225,2.216c-.038,2.091-.91,2.837-1.634,3.094l-.007,0A2.484,2.484,0,0,1,199.187,104.987Z" transform="translate(-186.46 -90.05)" fill="#333"/>
          <path id="패스_53727" data-name="패스 53727" d="M192.468,98.573a3.139,3.139,0,0,1-.855-.129.5.5,0,1,1,.273-.962,1.335,1.335,0,0,0,1.17-.082,1.746,1.746,0,0,0,.545-1.19V90.391a.5.5,0,0,1,1,0v5.831q0,.01,0,.02a2.773,2.773,0,0,1-.958,1.968A1.953,1.953,0,0,1,192.468,98.573Z" transform="translate(-186.853 -90.391)" fill="#333"/>
          <path id="패스_53728" data-name="패스 53728" d="M195.455,98.573a1.952,1.952,0,0,1-1.175-.364,2.773,2.773,0,0,1-.957-1.968q0-.01,0-.02V90.391a.5.5,0,0,1,1,0v5.818a1.74,1.74,0,0,0,.548,1.193,1.338,1.338,0,0,0,1.167.08.5.5,0,1,1,.273.962A3.14,3.14,0,0,1,195.455,98.573Z" transform="translate(-186.574 -90.391)" fill="#333"/>
        </g>
        <path id="패스_53729" data-name="패스 53729" d="M195.372,91.535h0a.5.5,0,0,1-.5-.5h0c0-.04-.008-4.037-2.417-5.355a4.327,4.327,0,0,0-2.938-.317,14.923,14.923,0,0,0-5.033,2.279,10.384,10.384,0,0,0-1.657,1.4.5.5,0,1,1-.821-.571,10.876,10.876,0,0,1,1.908-1.646l.018-.012c3.851-2.5,6.882-3.17,9.007-2,2.931,1.607,2.935,6.048,2.933,6.236A.5.5,0,0,1,195.372,91.535Z" transform="translate(-172.68 -73.818)" fill="#7e4f40"/>
        <path id="패스_53730" data-name="패스 53730" d="M183.131,88.017" transform="translate(-172.583 -73.378)" fill="#7e4f40"/>
        <g id="그룹_33504" data-name="그룹 33504" transform="translate(5.458 14.915)">
          <g id="그룹_33503" data-name="그룹 33503" transform="translate(0 1.657)" opacity="0.7">
            <path id="패스_53731" data-name="패스 53731" d="M182.586,91.269,180.6,93.2a1.037,1.037,0,0,1-1.406.211h0a1.038,1.038,0,0,1,.249-1.4l1.989-1.935" transform="translate(-179.009 -90.08)" fill="#7e4f40"/>
          </g>
          <path id="패스_53733" data-name="패스 53733" d="M181.433,90.747a.5.5,0,0,1-.409-.787l.551-.787a.5.5,0,0,1-.308-.916l.627-.414a.5.5,0,0,1,.634.069l.381.392a.5.5,0,0,1,.051.635l-1.117,1.595A.5.5,0,0,1,181.433,90.747Z" transform="translate(-178.27 -88.26)" fill="#333"/>
          <path id="패스_53734" data-name="패스 53734" d="M179.537,92.312a1.025,1.025,0,0,1-.746-.3,1.269,1.269,0,0,1,.2-1.784l.183-.178a.5.5,0,0,1,.7.716l-.183.178a.5.5,0,0,0-.179.367.5.5,0,0,0,.371-.168l1.53-1.488a.5.5,0,1,1,.7.717l-1.529,1.487A1.519,1.519,0,0,1,179.537,92.312Z" transform="translate(-178.596 -88.025)" fill="#333"/>
          <path id="타원_1297" data-name="타원 1297" d="M.854-.35c.7,0,1.2.331,1.2.787s-.507.787-1.2.787S-.35.893-.35.437.157-.35.854-.35Zm.439.787A1.018,1.018,0,0,0,.854.35,1.018,1.018,0,0,0,.416.437,1.018,1.018,0,0,0,.854.523,1.018,1.018,0,0,0,1.293.437Z" transform="translate(1.068 1.522) rotate(-42.364)" fill="#333"/>
        </g>
        <path id="패스_53735" data-name="패스 53735" d="M180.374,109.4h-.007a.5.5,0,0,1-.494-.506,53.65,53.65,0,0,1,.67-7.222c.855-5.059,2.354-7.943,4.456-8.574a.5.5,0,0,1,.1-.019c.052-.005,5.269-.545,6.752-3.465a.5.5,0,0,1,.026-.046,2.491,2.491,0,0,0,.35-.983,1.1,1.1,0,0,0-.069-.331,3.229,3.229,0,0,1-.084-.319c-.412,0-.838.007-1.259,0a2.212,2.212,0,0,1-2.194-1.864c-.031-.162-.057-.324-.083-.482-.047-.288-.092-.561-.158-.825a.262.262,0,0,0-.05-.081,1.771,1.771,0,0,1-1.141-1.045,1.741,1.741,0,0,1,.471-1.455,3.253,3.253,0,0,0,.677-1.985,5.684,5.684,0,0,1,1.809-3.9,6.109,6.109,0,0,1,3.988-1.673,6.527,6.527,0,0,1,3.98,1.107,6.073,6.073,0,0,1,1.767,8.044c-.33.584-.684,1.151-1.019,1.683a2.131,2.131,0,0,0-.27,1.646c.031.147.061.294.091.442l.049.239a7.727,7.727,0,0,0,.9,1.788.5.5,0,0,1,.026.045c1.483,2.92,6.7,3.46,6.751,3.465a.5.5,0,0,1,.1.019c2.1.63,3.6,3.515,4.456,8.574a53.65,53.65,0,0,1,.67,7.222.5.5,0,0,1-1,.013,52.559,52.559,0,0,0-.658-7.079,21.946,21.946,0,0,0-1.389-5.078,4.447,4.447,0,0,0-2.324-2.681c-.62-.067-5.805-.724-7.482-3.979a8.514,8.514,0,0,1-1.024-2.107l-.049-.241c-.03-.145-.059-.29-.09-.435a3.128,3.128,0,0,1,.4-2.384c.328-.522.676-1.078.995-1.642a5.007,5.007,0,0,0,.345-4.438,5.127,5.127,0,0,0-5.187-3.222,4.94,4.94,0,0,0-4.832,4.616,4.248,4.248,0,0,1-.887,2.558c-.319.409-.3.558-.294.584s.06.174.578.387a1.151,1.151,0,0,1,.616.752c.077.3.127.611.175.907.026.158.05.308.079.458a1.229,1.229,0,0,0,1.232,1.05c.407.009.825.005,1.23,0h.012a.928.928,0,0,1,.976.8,2.248,2.248,0,0,0,.062.231,1.867,1.867,0,0,1,.109.695,3.417,3.417,0,0,1-.493,1.429c-1.676,3.256-6.863,3.913-7.484,3.98a4.451,4.451,0,0,0-2.326,2.685,21.982,21.982,0,0,0-1.389,5.084,52.5,52.5,0,0,0-.656,7.068A.5.5,0,0,1,180.374,109.4Z" transform="translate(-172.954 -75.114)" fill="#333"/>
        <path id="패스_53736" data-name="패스 53736" d="M177.878,94.821a1.535,1.535,0,0,1-1.057-.417l-.025-.023-.005,0a1.55,1.55,0,0,1-.065-2.187l1.462-1.55a.5.5,0,1,1,.728.686l-1.461,1.55a.549.549,0,0,0,.021.772l.024.022.005,0a.55.55,0,0,0,.773-.023l1.46-1.55a.5.5,0,1,1,.728.686l-1.46,1.55a1.535,1.535,0,0,1-1.08.484Z" transform="translate(-173.435 -72.979)" fill="#333"/>
        <path id="패스_53737" data-name="패스 53737" d="M174.081,106.5a.5.5,0,0,1-.486-.384c-.736-3.081.246-6.385,1.2-8.615a23.835,23.835,0,0,1,2.249-4.116.5.5,0,0,1,.813.582h0a23.291,23.291,0,0,0-2.152,3.947c-.89,2.085-1.81,5.161-1.138,7.97a.5.5,0,0,1-.487.616Z" transform="translate(-173.835 -72.615)" fill="#333"/>
      </g>
      <circle id="타원_1298" data-name="타원 1298" cx="4.138" cy="4.138" r="4.138" transform="translate(191.926 90.877)" fill="#7e4f40" opacity="0.7"/>
    </g>
  </g>
</svg>
