<svg xmlns="http://www.w3.org/2000/svg" width="44" height="44" viewBox="0 0 44 44">
  <g id="icon_sickroom03" transform="translate(-51.191 -697.191)">
    <rect id="사각형_10579" data-name="사각형 10579" width="44" height="44" transform="translate(51.191 697.191)" fill="none"/>
    <g id="그룹_33416" data-name="그룹 33416" transform="translate(53.034 699.977)">
      <path id="패스_53478" data-name="패스 53478" d="M338.431,467.029a.5.5,0,0,1-.5-.5v-1.72a1.32,1.32,0,0,0-1.319-1.319h-3.795a.5.5,0,0,1,0-1h3.795a2.321,2.321,0,0,1,2.319,2.319v1.72A.5.5,0,0,1,338.431,467.029Z" transform="translate(-299.924 -435.989)" fill="#333"/>
      <path id="선_866" data-name="선 866" d="M4.119.5H0A.5.5,0,0,1-.5,0,.5.5,0,0,1,0-.5H4.119a.5.5,0,0,1,.5.5A.5.5,0,0,1,4.119.5Z" transform="translate(26.912 27)" fill="#333"/>
      <path id="선_867" data-name="선 867" d="M4.021.5H0A.5.5,0,0,1-.5,0,.5.5,0,0,1,0-.5H4.021a.5.5,0,0,1,.5.5A.5.5,0,0,1,4.021.5Z" transform="translate(20.93 27)" fill="#333"/>
      <path id="패스_53479" data-name="패스 53479" d="M304.163,467.018a.5.5,0,0,1-.5-.5v-1.709a2.321,2.321,0,0,1,2.319-2.319h15.467a.5.5,0,0,1,0,1H305.982a1.32,1.32,0,0,0-1.319,1.319v1.709A.5.5,0,0,1,304.163,467.018Z" transform="translate(-302.382 -435.989)" fill="#333"/>
      <path id="패스_53480" data-name="패스 53480" d="M308.735,463.313a3.279,3.279,0,0,1-.262-6.548.5.5,0,1,1,.081,1,2.279,2.279,0,1,0,1.871,3.8,2.247,2.247,0,0,0,.586-1.352.5.5,0,1,1,1,.077,3.28,3.28,0,0,1-3.113,3.018Q308.815,463.313,308.735,463.313Z" transform="translate(-302.228 -436.481)" fill="#333"/>
      <path id="패스_53481" data-name="패스 53481" d="M303.416,454.635a1.389,1.389,0,0,1,1.387,1.387v10.619H340.53v-8.233a1.387,1.387,0,1,1,2.774,0v15.656a1.387,1.387,0,0,1-2.774,0v-1.673H304.8v1.673a1.387,1.387,0,0,1-2.774,0c-.007-1.5-.012-9.7,0-18.043A1.389,1.389,0,0,1,303.416,454.635Zm.887,13.056a.5.5,0,0,1-.5-.5V456.022a.387.387,0,0,0-.387-.387.392.392,0,0,0-.387.387c-.012,8.343-.007,16.537,0,18.04a.387.387,0,1,0,.774,0v-2.223a.5.5,0,0,1,.6-.489,1.746,1.746,0,0,0,.364.039h35.753a1.776,1.776,0,0,0,.394-.048.5.5,0,0,1,.611.488v2.233a.387.387,0,0,0,.774,0V458.409a.388.388,0,0,0-.387-.387.392.392,0,0,0-.387.387V467.2a.5.5,0,0,1-.611.488,1.778,1.778,0,0,0-.394-.048H304.772a1.792,1.792,0,0,0-.368.04A.5.5,0,0,1,304.3,467.692Z" transform="translate(-302.522 -436.663)" fill="#333"/>
      <path id="패스_53482" data-name="패스 53482" d="M333.565,450.969a.5.5,0,0,1-.455-.293l-1.508-3.311-1.085,1.788a.5.5,0,0,1-.8.075l-1.216-1.351-.764,1.274a.5.5,0,0,1-.429.243h-1.634a.5.5,0,1,1,0-1h1.351l.967-1.611a.5.5,0,0,1,.8-.077l1.219,1.354,1.227-2.021a.5.5,0,0,1,.882.052l1.44,3.16.476-1.07a.5.5,0,0,1,.457-.3h4.079a.5.5,0,0,1,0,1h-3.754l-.8,1.789a.5.5,0,0,1-.455.3Z" transform="translate(-301.762 -440.629)" fill="#7e4f40"/>
      <path id="패스_53483" data-name="패스 53483" d="M312.721,451.463a.979.979,0,0,0,1.959,0v-1.426h-1.959Z" transform="translate(-301.648 -439.94)" fill="#7e4f40" opacity="0.7"/>
      <path id="패스_53484" data-name="패스 53484" d="M317.251,450.037v1.426a.98.98,0,0,0,1.96,0v-1.426Z" transform="translate(-301.259 -439.94)" fill="#7e4f40" opacity="0.7"/>
      <path id="선_870" data-name="선 870" d="M0,17.4a.5.5,0,0,1-.5-.5V0A.5.5,0,0,1,0-.5.5.5,0,0,1,.5,0V16.9A.5.5,0,0,1,0,17.4Z" transform="translate(13.916 3.813)" fill="#333"/>
      <path id="패스_53485" data-name="패스 53485" d="M317.937,448.873a.5.5,0,0,1-.5-.5v-1.854H313.62v1.854a.5.5,0,0,1-1,0v-2.354a.5.5,0,0,1,.5-.5h4.817a.5.5,0,0,1,.5.5v2.354A.5.5,0,0,1,317.937,448.873Z" transform="translate(-301.614 -440.284)" fill="#333"/>
      <path id="사각형_10580" data-name="사각형 10580" d="M.9-.5h.155A1.4,1.4,0,0,1,2.46.9V2.725a1.4,1.4,0,0,1-1.4,1.4H.9a1.4,1.4,0,0,1-1.4-1.4V.9A1.4,1.4,0,0,1,.9-.5Zm.155,3.627a.4.4,0,0,0,.4-.4V.9a.4.4,0,0,0-.4-.4H.9A.4.4,0,0,0,.5.9V2.725a.4.4,0,0,0,.4.4Z" transform="translate(10.424 8.511)" fill="#333"/>
      <path id="사각형_10581" data-name="사각형 10581" d="M.9-.5h.155A1.4,1.4,0,0,1,2.46.9V2.725a1.4,1.4,0,0,1-1.4,1.4H.9a1.4,1.4,0,0,1-1.4-1.4V.9A1.4,1.4,0,0,1,.9-.5Zm.155,3.627a.4.4,0,0,0,.4-.4V.9a.4.4,0,0,0-.4-.4H.9A.4.4,0,0,0,.5.9V2.725a.4.4,0,0,0,.4.4Z" transform="translate(15.344 8.511)" fill="#333"/>
      <path id="패스_53486" data-name="패스 53486" d="M313.01,463.825a.5.5,0,0,1-.5-.5v-5.992a.5.5,0,0,1,.5-.5h3.445a.5.5,0,0,1,0,1H313.51v5.492A.5.5,0,0,1,313.01,463.825Z" transform="translate(-301.623 -436.475)" fill="#333"/>
      <path id="패스_53487" data-name="패스 53487" d="M335.746,463.752a.5.5,0,0,1-.5-.5v-1.631a3.842,3.842,0,0,0-1.479-3.039.5.5,0,1,1,.618-.786,4.836,4.836,0,0,1,1.861,3.825v1.631A.5.5,0,0,1,335.746,463.752Z" transform="translate(-299.816 -436.401)" fill="#333"/>
      <path id="패스_53488" data-name="패스 53488" d="M310.233,456.605a2.877,2.877,0,0,0-.709.092,2.582,2.582,0,0,0-.094.683,2.715,2.715,0,0,0,2.763,2.664,2.862,2.862,0,0,0,.708-.092,2.539,2.539,0,0,0,.1-.683A2.716,2.716,0,0,0,310.233,456.605Z" transform="translate(-301.93 -436.537)" fill="#7e4f40" opacity="0.7"/>
      <path id="패스_53489" data-name="패스 53489" d="M309.878,457.435a.5.5,0,0,1-.329-.876,7.536,7.536,0,0,1,2.784-1.358,11.435,11.435,0,0,1,7.567.73.5.5,0,1,1-.388.922,10.472,10.472,0,0,0-6.86-.7,6.729,6.729,0,0,0-2.447,1.163A.5.5,0,0,1,309.878,457.435Z" transform="translate(-301.892 -436.644)" fill="#7e4f40"/>
      <path id="패스_53490" data-name="패스 53490" d="M311.658,459.088a.5.5,0,0,1-.478-.645,8.654,8.654,0,0,1,1.346-2.492,7.144,7.144,0,0,1,5.042-2.868,8.22,8.22,0,0,1,5.468,1.323,7.348,7.348,0,0,1,1.843,1.714.5.5,0,1,1-.822.57,6.506,6.506,0,0,0-1.611-1.476,7.157,7.157,0,0,0-4.778-1.136,6.083,6.083,0,0,0-4.327,2.455,7.8,7.8,0,0,0-1.2,2.2A.5.5,0,0,1,311.658,459.088Z" transform="translate(-301.739 -436.8)" fill="#7e4f40"/>
      <path id="패스_53491" data-name="패스 53491" d="M339.043,443.256H327.591A2.745,2.745,0,0,0,324.845,446v7.723a2.745,2.745,0,0,0,2.746,2.745h11.452a2.745,2.745,0,0,0,2.745-2.745V446A2.745,2.745,0,0,0,339.043,443.256Zm.891,9.277a2.051,2.051,0,0,1-2.052,2.051H328.75a2.051,2.051,0,0,1-2.051-2.051v-5.341a2.051,2.051,0,0,1,2.051-2.051h9.132a2.051,2.051,0,0,1,2.052,2.051Z" transform="translate(-301.907 -441.164)" fill="#7e4f40" opacity="0.7"/>
      <path id="사각형_10582" data-name="사각형 10582" d="M2.335-.5H14.609a2.838,2.838,0,0,1,2.835,2.835v8.545a2.838,2.838,0,0,1-2.835,2.835H2.335A2.838,2.838,0,0,1-.5,10.879V2.335A2.838,2.838,0,0,1,2.335-.5ZM14.609,12.714a1.837,1.837,0,0,0,1.835-1.835V2.335A1.837,1.837,0,0,0,14.609.5H2.335A1.837,1.837,0,0,0,.5,2.335v8.545a1.837,1.837,0,0,0,1.835,1.835Z" transform="translate(22.057 2)" fill="#333"/>
      <path id="사각형_10583" data-name="사각형 10583" d="M1.744-.5h9.746a2.247,2.247,0,0,1,2.244,2.244V7.7a2.247,2.247,0,0,1-2.244,2.244H1.744A2.247,2.247,0,0,1-.5,7.7V1.744A2.247,2.247,0,0,1,1.744-.5Zm9.746,9.444A1.246,1.246,0,0,0,12.735,7.7V1.744A1.246,1.246,0,0,0,11.491.5H1.744A1.246,1.246,0,0,0,.5,1.744V7.7A1.246,1.246,0,0,0,1.744,8.944Z" transform="translate(23.912 3.885)" fill="#333"/>
      <path id="패스_53492" data-name="패스 53492" d="M317.115,455.975h20.433a1.432,1.432,0,0,1,0,2.863h-2.8v6.946a1.432,1.432,0,1,1-2.863,0v-6.946h-3.119v6.946a1.431,1.431,0,1,1-2.862,0v-6.946h-3.119v6.946a1.432,1.432,0,0,1-2.863,0v-6.946h-2.8a1.432,1.432,0,0,1,0-2.863Zm20.433,1.863a.432.432,0,0,0,0-.863H317.115a.432.432,0,0,0,0,.863h3.3a.5.5,0,0,1,.5.5v7.446a.432.432,0,0,0,.863,0v-7.446a.5.5,0,0,1,.5-.5H326.4a.5.5,0,0,1,.5.5v7.446a.431.431,0,1,0,.862,0v-7.446a.5.5,0,0,1,.5-.5h4.119a.5.5,0,0,1,.5.5v7.446a.432.432,0,1,0,.863,0v-7.446a.5.5,0,0,1,.5-.5Z" transform="translate(-301.351 -436.548)" fill="#333"/>
      <path id="패스_53493" data-name="패스 53493" d="M309.257,456.344a3.219,3.219,0,0,1,3.264,3.165,3.089,3.089,0,0,1-.113.814.5.5,0,0,1-.357.352,3.32,3.32,0,0,1-.834.108,3.219,3.219,0,0,1-3.263-3.164,3.091,3.091,0,0,1,.112-.815.5.5,0,0,1,.359-.353A3.385,3.385,0,0,1,309.257,456.344Zm2.247,3.42a1.92,1.92,0,0,0,.018-.255,2.264,2.264,0,0,0-2.55-2.146,1.971,1.971,0,0,0-.017.256,2.262,2.262,0,0,0,2.549,2.146Z" transform="translate(-302.014 -436.517)" fill="#333"/>
    </g>
  </g>
</svg>
