<svg xmlns="http://www.w3.org/2000/svg" width="10" height="23" viewBox="0 0 10 23">
    <defs>
        <clipPath id="ld03k64ega">
            <path data-name="사각형 3347" style="fill:none" d="M0 0h10v23H0z"/>
        </clipPath>
    </defs>
    <g data-name="마스크 그룹 123" style="clip-path:url(#ld03k64ega)">
        <path data-name="패스 29731" d="M829.688 105.663a2.8 2.8 0 0 0-1.366.713 14.492 14.492 0 0 0 .406-1.429 2.947 2.947 0 0 0 1.778.023 3.077 3.077 0 0 0 1.479-1.319 3.077 3.077 0 0 0-1.979-.094 2.753 2.753 0 0 0-1.168.871 14.591 14.591 0 0 0 .206-1.5 2.533 2.533 0 0 0 1.451-.261 2.7 2.7 0 0 0 1.077-1.366 2.7 2.7 0 0 0-1.726.221 2.287 2.287 0 0 0-.76.739q.026-.647 0-1.33a2.389 2.389 0 0 0 1.321-.478 2.528 2.528 0 0 0 .771-1.434 2.528 2.528 0 0 0-1.555.484 2.139 2.139 0 0 0-.578.8c-.029-.346-.069-.7-.123-1.057a2.162 2.162 0 0 0 1.21-.432 2.28 2.28 0 0 0 .7-1.293 2.279 2.279 0 0 0-1.4.436 2.007 2.007 0 0 0-.575.853q-.091-.523-.218-1.063a1.927 1.927 0 0 0 1.053-.571 1.98 1.98 0 0 0 .4-1.211 1.981 1.981 0 0 0-1.134.585 1.819 1.819 0 0 0-.383.943q-.141-.565-.324-1.148a1.764 1.764 0 0 0 .869-.684 1.806 1.806 0 0 0 .167-1.15 1.8 1.8 0 0 0-.925.7 1.634 1.634 0 0 0-.2.864q-.173-.526-.382-1.067a1.675 1.675 0 0 0 .724-.793.59.59 0 1 0-.774-.289 1.566 1.566 0 0 0-.029.884q-.146-.368-.309-.743a1.239 1.239 0 0 0 .529-.583.436.436 0 1 0-.573-.214l-.018.054a.914.914 0 0 0-.049-.138.436.436 0 1 0-.556.254 1.239 1.239 0 0 0 .571.546l.015.034a1.152 1.152 0 0 0-.713-.061 1.185 1.185 0 0 0-.6.474 1.185 1.185 0 0 0 .759.081 1.158 1.158 0 0 0 .575-.439c.064.154.181.446.32.855a1.545 1.545 0 0 0-.939-.073 1.6 1.6 0 0 0-.809.64 1.6 1.6 0 0 0 1.026.11 1.546 1.546 0 0 0 .759-.568c.111.33.233.728.354 1.183a1.614 1.614 0 0 0-.923-.222 1.706 1.706 0 0 0-.967.522 1.706 1.706 0 0 0 1.055.3 1.629 1.629 0 0 0 .879-.434 21 21 0 0 1 .256 1.127 1.711 1.711 0 0 0-.877-.355 1.872 1.872 0 0 0-1.144.38 1.872 1.872 0 0 0 1.083.53 1.76 1.76 0 0 0 .991-.277c.068.372.129.765.179 1.174a2 2 0 0 0-.957-.614 2.155 2.155 0 0 0-1.373.2 2.154 2.154 0 0 0 1.121.818 2.063 2.063 0 0 0 1.24-.14c.05.457.085.933.1 1.424a2.237 2.237 0 0 0-1.089-.712 2.39 2.39 0 0 0-1.522.224 2.389 2.389 0 0 0 1.243.907 2.288 2.288 0 0 0 1.375-.155c.01.531-.005 1.078-.049 1.637a2.384 2.384 0 0 0-1.007-.941 2.553 2.553 0 0 0-1.644-.047 2.552 2.552 0 0 0 1.14 1.185 2.451 2.451 0 0 0 1.486.09c-.047.5-.118 1-.218 1.507a2.634 2.634 0 0 0-.889-1.124 2.908 2.908 0 0 0-1.834-.378 2.908 2.908 0 0 0 1.044 1.554 2.756 2.756 0 0 0 1.583.4q-.146.639-.358 1.284a2.587 2.587 0 0 0-.659-1.177 2.907 2.907 0 0 0-1.74-.691 2.908 2.908 0 0 0 .758 1.712 2.742 2.742 0 0 0 1.463.662 13.771 13.771 0 0 1-.587 1.353 2.621 2.621 0 0 0-.449-1.329 2.908 2.908 0 0 0-1.594-.983 2.909 2.909 0 0 0 .45 1.818 2.768 2.768 0 0 0 1.371.921q-.309.567-.686 1.125a2.585 2.585 0 0 0-.444-1.274 2.908 2.908 0 0 0-1.594-.983 2.909 2.909 0 0 0 .45 1.818 2.709 2.709 0 0 0 1.273.888 14.593 14.593 0 0 1-1.065 1.285 2.584 2.584 0 0 0-.217-1.328 2.909 2.909 0 0 0-1.4-1.245 2.908 2.908 0 0 0 .127 1.868 2.714 2.714 0 0 0 1.108 1.1 16.808 16.808 0 0 1-2 1.71.288.288 0 1 0 .336.467 14.843 14.843 0 0 0 2.021-1.8 2.932 2.932 0 0 0 1.516.9 3.078 3.078 0 0 0 1.94-.4 3.078 3.078 0 0 0-1.667-1.071 2.724 2.724 0 0 0-1.4.155 16.32 16.32 0 0 0 1.076-1.363 2.971 2.971 0 0 0 1.7.66 3.077 3.077 0 0 0 1.84-.734 3.076 3.076 0 0 0-1.828-.765 2.788 2.788 0 0 0-1.451.453c.243-.366.48-.757.705-1.171a2.925 2.925 0 0 0 1.637.611 3.077 3.077 0 0 0 1.841-.734 3.077 3.077 0 0 0-1.828-.765 2.764 2.764 0 0 0-1.409.427 14.749 14.749 0 0 0 .612-1.4 2.961 2.961 0 0 0 1.767.342 3.077 3.077 0 0 0 1.685-1.043 3.076 3.076 0 0 0-1.937-.442zm-2.362-11.719v-.007z" transform="translate(-822.122 -91.865)" style="fill:#a47768;opacity:.8"/>
    </g>
</svg>
