<svg xmlns="http://www.w3.org/2000/svg" width="44" height="44" viewBox="0 0 44 44">
  <g id="icon_toilet-help" transform="translate(-51.24 -697.24)">
    <rect id="사각형_10579" data-name="사각형 10579" width="44" height="44" transform="translate(51.24 697.24)" fill="none"/>
    <g id="그룹_33545" data-name="그룹 33545" transform="translate(-118.97 -31.244)">
      <path id="선_1028" data-name="선 1028" d="M0,3.466a.5.5,0,0,1-.5-.5V0A.5.5,0,0,1,0-.5.5.5,0,0,1,.5,0V2.966A.5.5,0,0,1,0,3.466Z" transform="translate(203.008 759.951)" fill="#333"/>
      <path id="패스_53844" data-name="패스 53844" d="M197.456,755.883a.5.5,0,0,1-.492-.592l1.409-7.565.066-.438a28.3,28.3,0,0,0,.121-5.64.5.5,0,0,1,1-.068,29.294,29.294,0,0,1-.13,5.857l-.067.445,0,.018-1.411,7.573A.5.5,0,0,1,197.456,755.883Z" transform="translate(5.553 2.764)" fill="#333"/>
      <g id="그룹_33544" data-name="그룹 33544" transform="translate(174.092 729.984)">
        <path id="타원_1308" data-name="타원 1308" d="M1.935-.5A2.435,2.435,0,1,1-.5,1.935,2.438,2.438,0,0,1,1.935-.5Zm0,3.87A1.435,1.435,0,1,0,.5,1.935,1.437,1.437,0,0,0,1.935,3.37Z" transform="translate(22.456)" fill="#333"/>
        <path id="타원_1309" data-name="타원 1309" d="M1.935-.5A2.435,2.435,0,1,1-.5,1.935,2.438,2.438,0,0,1,1.935-.5Zm0,3.87A1.435,1.435,0,1,0,.5,1.935,1.437,1.437,0,0,0,1.935,3.37Z" transform="translate(6.286 3.655)" fill="#333"/>
        <path id="패스_53845" data-name="패스 53845" d="M191,735.034a.5.5,0,0,1-.37-.837l.465-.511a2.032,2.032,0,0,1,1.421-.669.5.5,0,0,1,.047,1,1.04,1.04,0,0,0-.727.343l-.466.512A.5.5,0,0,1,191,735.034Z" transform="translate(-170.073 -729.145)" fill="#333"/>
        <path id="패스_53846" data-name="패스 53846" d="M193.854,765.987a.5.5,0,0,1-.2-.042,2.76,2.76,0,0,1-1.608-2.034l-1.693-9.289a2.749,2.749,0,0,1,.031-1.13c.011-.082.026-.167.045-.251v-.005l1.47-6.384a.5.5,0,0,1,.974.224l-1.47,6.381c-.014.065-.025.126-.033.188a.5.5,0,0,1-.01.057,1.759,1.759,0,0,0-.025.74l1.693,9.289a1.761,1.761,0,0,0,1.026,1.3.5.5,0,0,1-.2.958Z" transform="translate(-170.119 -725.949)" fill="#333"/>
        <path id="패스_53847" data-name="패스 53847" d="M180.734,742.189a.5.5,0,0,1-.4-.8,1.021,1.021,0,0,0,.159-.324q.006-.021.015-.042c.008-.019.016-.039.025-.058h0l.553-1.728a.5.5,0,1,1,.952.3l-.558,1.745,0,.005a.846.846,0,0,1-.038.094,2.02,2.02,0,0,1-.306.6A.5.5,0,0,1,180.734,742.189Z" transform="translate(-172.514 -727.749)" fill="#333"/>
        <path id="패스_53848" data-name="패스 53848" d="M183.71,767.083a2.762,2.762,0,0,1-2.758-2.655l-.371-9.463c0-.07,0-.139,0-.212a2.756,2.756,0,0,1-.014-.478l.355-5.814a.5.5,0,1,1,1,.061l-.355,5.813a1.755,1.755,0,0,0,.013.333.5.5,0,0,1,0,.093c0,.06,0,.115,0,.168l.371,9.461a1.762,1.762,0,0,0,3.521-.138l-.37-9.464c0-.05-.009-.106-.014-.148a.5.5,0,0,1,0-.1l.4-6.567a.5.5,0,1,1,1,.061l-.4,6.52c.007.057.014.124.016.194l.37,9.463a2.763,2.763,0,0,1-2.652,2.868Z" transform="translate(-172.435 -725.701)" fill="#333"/>
        <path id="패스_53849" data-name="패스 53849" d="M188.1,766.938q-.085,0-.171-.005a2.762,2.762,0,0,1-2.588-2.926l.6-9.9-.566-4.039a.5.5,0,1,1,.99-.139l.573,4.093a.5.5,0,0,1,0,.129l-.605,9.912a1.762,1.762,0,0,0,3.517.215l.608-9.935a1.816,1.816,0,0,0,0-.2.5.5,0,0,1,0-.07,1.738,1.738,0,0,0-.009-.385l-.731-5.224a.5.5,0,1,1,.99-.139l.732,5.224a12.694,12.694,0,0,1,.018.856l-.608,9.938a2.763,2.763,0,0,1-2.755,2.594Z" transform="translate(-171.3 -725.608)" fill="#333"/>
        <path id="패스_53850" data-name="패스 53850" d="M187.006,734.538a.5.5,0,0,1-.152-.024,12.19,12.19,0,0,0-2.853-.548.5.5,0,1,1,.067-1,13.2,13.2,0,0,1,3.09.593.5.5,0,0,1-.152.976Z" transform="translate(-171.729 -729.157)" fill="#333"/>
        <path id="패스_53851" data-name="패스 53851" d="M194.464,738.626a.5.5,0,0,1-.476-.652,1.054,1.054,0,0,0-.681-1.323l-7.024-2.246a.5.5,0,0,1,.3-.953l7.024,2.246a2.055,2.055,0,0,1,1.329,2.58A.5.5,0,0,1,194.464,738.626Z" transform="translate(-171.158 -729.047)" fill="#333"/>
        <path id="패스_53852" data-name="패스 53852" d="M189.069,743.309a2.052,2.052,0,0,1-1.518-3.432l1.714-1.885-2.983-.954a.5.5,0,1,1,.3-.953l3.724,1.191a.5.5,0,0,1,.218.813l-2.238,2.461a1.053,1.053,0,0,0,1.557,1.417l1.3-1.432a.5.5,0,0,1,.74.673l-1.3,1.432A2.046,2.046,0,0,1,189.069,743.309Z" transform="translate(-171.159 -728.421)" fill="#333"/>
        <path id="선_1029" data-name="선 1029" d="M.8,1.234A.5.5,0,0,1,.465,1.1l-.8-.734A.5.5,0,0,1-.369-.337.5.5,0,0,1,.337-.369l.8.734A.5.5,0,0,1,.8,1.234Z" transform="translate(26.448 12.295)" fill="#333"/>
        <path id="패스_53853" data-name="패스 53853" d="M192.04,747.626a.5.5,0,0,1-.5-.463,48.6,48.6,0,0,0-.692-5.46.5.5,0,0,1,.982-.189,49.612,49.612,0,0,1,.707,5.573.5.5,0,0,1-.461.536Z" transform="translate(-169.992 -727.221)" fill="#333"/>
        <path id="패스_53854" data-name="패스 53854" d="M196.07,768.406h-.017a2.756,2.756,0,0,1-2.754-2.753V754.216c0-.032,0-.064,0-.095v-.008a2.736,2.736,0,0,1,.042-.621l1.311-7.031a.5.5,0,0,1,.983.183l-1.311,7.031a1.763,1.763,0,0,0-.026.415q0,.022,0,.043c0,.018,0,.036,0,.054s0,.019,0,.029v11.437a1.755,1.755,0,0,0,1.754,1.753h.017a1.755,1.755,0,0,0,1.754-1.753v-6.675a.5.5,0,0,1,1,0v6.675A2.756,2.756,0,0,1,196.07,768.406Z" transform="translate(-169.408 -726.047)" fill="#333"/>
        <path id="패스_53855" data-name="패스 53855" d="M181.441,748.87a.5.5,0,0,1-.5-.555,49.482,49.482,0,0,0,.1-6.136.5.5,0,1,1,1-.046,49.5,49.5,0,0,1-.109,6.293A.5.5,0,0,1,181.441,748.87Z" transform="translate(-172.346 -727.092)" fill="#333"/>
        <path id="패스_53856" data-name="패스 53856" d="M189.382,749.264l-.054,0a.5.5,0,0,1-.444-.551,31.549,31.549,0,0,0,.019-6.286.5.5,0,1,1,.993-.118,32.029,32.029,0,0,1-.018,6.511A.5.5,0,0,1,189.382,749.264Z" transform="translate(-170.458 -727.042)" fill="#333"/>
        <circle id="타원_1310" data-name="타원 1310" cx="3.644" cy="3.644" r="3.644" transform="translate(17.284 5.74)" fill="#7e4f40" opacity="0.7"/>
        <path id="패스_53857" data-name="패스 53857" d="M197.446,746.008a2.036,2.036,0,0,1-1.224-.409l-5.63-4.221a2.053,2.053,0,0,1,2.462-3.286l3.379,2.533.588-1.84a.5.5,0,1,1,.953.3l-.8,2.509a.5.5,0,0,1-.776.248l-3.941-2.954a1.053,1.053,0,1,0-1.263,1.685l5.63,4.22a1.046,1.046,0,0,0,1.395-.129q.017-.018.035-.034a1.036,1.036,0,0,0,.307-.462l1.881-5.88a.493.493,0,0,1,.018-.049,1.049,1.049,0,0,0-.151-1.1l-2.371-2.829a5.536,5.536,0,0,0-.449-.464.5.5,0,1,1,.677-.736,6.456,6.456,0,0,1,.54.559l2.37,2.828a2.043,2.043,0,0,1,.311,2.12l-1.874,5.858a2.315,2.315,0,0,1-2.064,1.528Z" transform="translate(-170.247 -729.153)" fill="#333"/>
        <path id="패스_53858" data-name="패스 53858" d="M179.867,747.5a.458.458,0,1,1-.91-.11l.1-.813a.751.751,0,0,0-.654-.832h0a.75.75,0,0,0-.832.653l-2.435,20.262-.073.6-.057.478a.461.461,0,0,1-.51.4h0a.46.46,0,0,1-.4-.51l.046-.386.087-.724,2.428-20.207a1.668,1.668,0,0,1,1.852-1.453h0a1.669,1.669,0,0,1,1.454,1.85Z" transform="translate(-174.092 -726.451)" fill="#7e4f40"/>
        <path id="패스_53859" data-name="패스 53859" d="M177.165,748.137a2.052,2.052,0,0,1-1.641-3.283l3.34-4.453,1.186-3.71a.5.5,0,1,1,.952.3l-1.212,3.79a.5.5,0,0,1-.076.148l-3.39,4.52a1.053,1.053,0,0,0,1.685,1.263l3.541-4.723a.5.5,0,0,1,.8.6l-3.541,4.723A2.051,2.051,0,0,1,177.165,748.137Z" transform="translate(-173.73 -728.354)" fill="#333"/>
        <path id="선_1030" data-name="선 1030" d="M0,2.277A.5.5,0,0,1-.162,2.25a.5.5,0,0,1-.311-.635L.135-.162A.5.5,0,0,1,.77-.473a.5.5,0,0,1,.311.635L.473,1.939A.5.5,0,0,1,0,2.277Z" transform="translate(3.738 7.548)" fill="#7e4f40"/>
        <path id="선_1031" data-name="선 1031" d="M0,1.184a.5.5,0,0,1-.261-.074A.5.5,0,0,1-.426.423l.419-.684A.5.5,0,0,1,.681-.426.5.5,0,0,1,.846.261L.426.946A.5.5,0,0,1,0,1.184Z" transform="translate(2.521 10.956)" fill="#7e4f40"/>
        <path id="선_1032" data-name="선 1032" d="M.827.734A.5.5,0,0,1,.691.715L-.136.481A.5.5,0,0,1-.481-.136.5.5,0,0,1,.136-.481l.827.234A.5.5,0,0,1,.827.734Z" transform="translate(17.077 3.179)" fill="#7e4f40"/>
        <path id="패스_53860" data-name="패스 53860" d="M187,732.7a.5.5,0,0,1-.135-.018,12.392,12.392,0,0,0-2.836-.364.5.5,0,0,1,0-1,13.26,13.26,0,0,1,3.1.4.5.5,0,0,1-.134.982Z" transform="translate(-171.729 -729.549)" fill="#7e4f40"/>
        <path id="선_1033" data-name="선 1033" d="M0,2.144a.5.5,0,0,1-.5-.5V0A.5.5,0,0,1,0-.5.5.5,0,0,1,.5,0V1.644A.5.5,0,0,1,0,2.144Z" transform="translate(6.201 36.56)" fill="#7e4f40"/>
        <path id="패스_53861" data-name="패스 53861" d="M179.129,758.839a.5.5,0,0,1-.464-.314,7.206,7.206,0,0,1-.029-2.923.5.5,0,0,1,.986.168h0a6.289,6.289,0,0,0-.029,2.384.5.5,0,0,1-.464.686Z" transform="translate(-172.929 -723.876)" fill="#7e4f40"/>
      </g>
    </g>
  </g>
</svg>
