<svg xmlns="http://www.w3.org/2000/svg" width="44" height="44" viewBox="0 0 44 44">
  <g id="icon_sick-care" transform="translate(-48.424 -694.424)">
    <rect id="사각형_10579" data-name="사각형 10579" width="44" height="44" transform="translate(48.424 694.424)" fill="none"/>
    <g id="그룹_33562" data-name="그룹 33562" transform="translate(-144.201 192.406)">
      <path id="패스_53910" data-name="패스 53910" d="M198.489,532.586a.5.5,0,0,1-.5-.5v-.6a2.805,2.805,0,0,1,2.8-2.8h12.74a.5.5,0,0,1,0,1h-12.74a1.8,1.8,0,0,0-1.8,1.8v.6A.5.5,0,0,1,198.489,532.586Z" transform="translate(0.04 0.258)" fill="#333"/>
      <path id="패스_53911" data-name="패스 53911" d="M230.884,532.6a.5.5,0,0,1-.5-.5v-.614a1.8,1.8,0,0,0-1.8-1.8H225.3a.5.5,0,0,1,0-1h3.285a2.805,2.805,0,0,1,2.8,2.8v.614A.5.5,0,0,1,230.884,532.6Z" transform="translate(0.362 0.258)" fill="#333"/>
      <path id="선_1088" data-name="선 1088" d="M3.6.5H0A.5.5,0,0,1-.5,0,.5.5,0,0,1,0-.5H3.6a.5.5,0,0,1,.5.5A.5.5,0,0,1,3.6.5Z" transform="translate(220.429 529.438)" fill="#333"/>
      <path id="선_1089" data-name="선 1089" d="M3.6.5H0A.5.5,0,0,1-.5,0,.5.5,0,0,1,0-.5H3.6a.5.5,0,0,1,.5.5A.5.5,0,0,1,3.6.5Z" transform="translate(215.2 529.438)" fill="#333"/>
      <g id="그룹_33561" data-name="그룹 33561" transform="translate(200.406 536.687)">
        <path id="패스_53912" data-name="패스 53912" d="M201.976,541.052a2.134,2.134,0,0,1-2.132-2.131v-2.578a.5.5,0,0,1,.5-.5h3.264a.5.5,0,0,1,.5.5v2.578A2.134,2.134,0,0,1,201.976,541.052Zm-1.132-4.209v2.078a1.132,1.132,0,0,0,2.264,0v-2.078Z" transform="translate(-200.344 -536.343)" fill="#333"/>
        <path id="패스_53913" data-name="패스 53913" d="M227.361,541.052a2.134,2.134,0,0,1-2.131-2.131v-2.578a.5.5,0,0,1,.5-.5h3.263a.5.5,0,0,1,.5.5v2.578A2.134,2.134,0,0,1,227.361,541.052Zm-1.131-4.209v2.078a1.131,1.131,0,1,0,2.263,0v-2.078Z" transform="translate(-200.039 -536.343)" fill="#333"/>
      </g>
      <path id="패스_53914" data-name="패스 53914" d="M210.51,522.57h17.862a1.314,1.314,0,0,1,0,2.628h-2.388v6.009a1.314,1.314,0,1,1-2.628,0V525.2h-2.6v6.009a1.314,1.314,0,1,1-2.628,0V525.2h-2.6v6.009a1.314,1.314,0,1,1-2.628,0V525.2H210.51a1.314,1.314,0,1,1,0-2.628Zm17.862,1.628a.314.314,0,0,0,0-.628H210.51a.314.314,0,1,0,0,.628H213.4a.5.5,0,0,1,.5.5v6.509a.315.315,0,0,0,.315.315.318.318,0,0,0,.314-.315V524.7a.5.5,0,0,1,.5-.5h3.6a.5.5,0,0,1,.5.5v6.509a.315.315,0,0,0,.315.315.318.318,0,0,0,.314-.315V524.7a.5.5,0,0,1,.5-.5h3.6a.5.5,0,0,1,.5.5v6.509a.315.315,0,0,0,.315.315.318.318,0,0,0,.314-.315V524.7a.5.5,0,0,1,.5-.5Z" transform="translate(0.174 0.184)" fill="#333"/>
      <path id="패스_53916" data-name="패스 53916" d="M232.773,537h-35.78a2.391,2.391,0,0,1-2.335-2.163V520.469a2.128,2.128,0,0,1,4.257,0v11.375h31.834V520.469a2.128,2.128,0,0,1,4.257,0v7.716a.5.5,0,0,1-1,0v-7.716a1.128,1.128,0,0,0-2.257,0v11.875a.5.5,0,0,1-.5.5H198.415a.5.5,0,0,1-.5-.5V520.469a1.128,1.128,0,0,0-2.257,0v14.365a1.127,1.127,0,0,0,.986,1.111.507.507,0,0,1,.059.011,1.185,1.185,0,0,0,.29.041h35.78a1.235,1.235,0,0,0,.5-.11l.016-.007a1.14,1.14,0,0,0,.693-.853l0-.016a1.247,1.247,0,0,0,.028-.257V534.1c0-.019-.007-.048-.009-.083,0-.01,0-.02,0-.03v-3.522a.5.5,0,0,1,1,0v3.495a.859.859,0,0,1,.01.125v.668a2.229,2.229,0,0,1-.047.454,2.147,2.147,0,0,1-1.295,1.6A2.226,2.226,0,0,1,232.773,537Z" transform="translate(0 0.134)" fill="#333"/>
      <g id="그룹_33563" data-name="그룹 33563" transform="translate(201.293 507.695)">
        <path id="타원_1317" data-name="타원 1317" d="M6.669-.5A7.169,7.169,0,1,1-.5,6.669,7.177,7.177,0,0,1,6.669-.5Zm0,13.338A6.169,6.169,0,1,0,.5,6.669,6.176,6.176,0,0,0,6.669,12.838Z" fill="#333"/>
        <path id="패스_53917" data-name="패스 53917" d="M210.677,516.773H208.8V514.9a.488.488,0,0,0-.489-.488H206.9a.488.488,0,0,0-.488.488v1.877H204.54a.488.488,0,0,0-.488.488v1.407a.488.488,0,0,0,.488.488h1.876v1.876a.488.488,0,0,0,.488.489h1.407a.489.489,0,0,0,.489-.489v-1.876h1.876a.488.488,0,0,0,.488-.488v-1.407A.488.488,0,0,0,210.677,516.773Z" transform="translate(-200.067 -510.735)" fill="#7e4f40" opacity="0.7"/>
        <path id="패스_53918" data-name="패스 53918" d="M207.861,521.541h-1.407a.989.989,0,0,1-.988-.988v-1.376H204.09a.989.989,0,0,1-.988-.988v-1.407a.989.989,0,0,1,.988-.988h1.376v-1.376a.989.989,0,0,1,.988-.988h1.407a.99.99,0,0,1,.989.988v1.376h.354a.5.5,0,0,1,0,1h-.854a.5.5,0,0,1-.5-.5v-1.864h-1.384v1.864a.5.5,0,0,1-.5.5H204.1v1.383h1.864a.5.5,0,0,1,.5.5v1.864h1.384v-1.864a.5.5,0,0,1,.5-.5h1.864v-1.395a.5.5,0,0,1,1,0v1.407a.989.989,0,0,1-.988.988H208.85v1.376A.99.99,0,0,1,207.861,521.541Z" transform="translate(-200.503 -510.931)" fill="#333"/>
      </g>
    </g>
  </g>
</svg>
