<svg xmlns="http://www.w3.org/2000/svg" width="44" height="44" viewBox="0 0 44 44">
  <g id="icon_no-outcure" transform="translate(-48.424 -694.424)">
    <rect id="사각형_10579" data-name="사각형 10579" width="44" height="44" transform="translate(48.424 694.424)" fill="none"/>
    <g id="그룹_33560" data-name="그룹 33560" transform="translate(-196.594 482.918)">
      <path id="패스_53906" data-name="패스 53906" d="M278.843,245.37h0a5.751,5.751,0,0,0,0-8.133L263.1,221.491a5.751,5.751,0,0,0-8.133,8.133L270.71,245.37a5.75,5.75,0,0,0,8.133,0" transform="translate(0)" fill="#fff"/>
      <path id="패스_53907" data-name="패스 53907" d="M274.777,247.555a6.209,6.209,0,0,1-4.42-1.831L254.61,229.978a6.251,6.251,0,1,1,8.84-8.84L279.2,236.884a6.251,6.251,0,0,1-4.42,10.671ZM259.03,220.306a5.251,5.251,0,0,0-3.713,8.964l15.747,15.746a5.251,5.251,0,1,0,7.426-7.426l-15.747-15.746A5.216,5.216,0,0,0,259.03,220.306Z" transform="translate(0)" fill="#333"/>
      <rect id="사각형_10619" data-name="사각형 10619" width="8.019" height="8.019" transform="matrix(0.707, -0.707, 0.707, 0.707, 261.233, 233.431)" fill="#fff"/>
      <path id="사각형_10620" data-name="사각형 10620" d="M0-.5H8.019a.5.5,0,0,1,.5.5V8.019a.5.5,0,0,1-.5.5H0a.5.5,0,0,1-.5-.5V0A.5.5,0,0,1,0-.5ZM7.519.5H.5V7.519H7.519Z" transform="matrix(0.707, -0.707, 0.707, 0.707, 261.233, 233.431)" fill="#333"/>
      <line id="선_1040" data-name="선 1040" x2="0.201" y2="0.201" transform="translate(261.047 224.066)" fill="#fff"/>
      <path id="선_1041" data-name="선 1041" d="M.2.7A.5.5,0,0,1-.153.555l-.2-.2a.5.5,0,0,1,0-.707.5.5,0,0,1,.707,0l.2.2A.5.5,0,0,1,.2.7Z" transform="translate(261.047 224.066)" fill="#333"/>
      <line id="선_1042" data-name="선 1042" x2="0.201" y2="0.201" transform="translate(259.293 225.821)" fill="#fff"/>
      <path id="선_1043" data-name="선 1043" d="M.2.7A.5.5,0,0,1-.153.554l-.2-.2a.5.5,0,0,1,0-.707.5.5,0,0,1,.707,0l.2.2A.5.5,0,0,1,.2.7Z" transform="translate(259.293 225.821)" fill="#333"/>
      <line id="선_1044" data-name="선 1044" x2="0.201" y2="0.201" transform="translate(257.539 227.575)" fill="#fff"/>
      <path id="선_1045" data-name="선 1045" d="M.2.7A.5.5,0,0,1-.153.554l-.2-.2a.5.5,0,0,1,0-.707.5.5,0,0,1,.707,0l.2.2A.5.5,0,0,1,.2.7Z" transform="translate(257.539 227.575)" fill="#333"/>
      <line id="선_1046" data-name="선 1046" x2="0.201" y2="0.201" transform="translate(263.127 226.146)" fill="#fff"/>
      <path id="선_1047" data-name="선 1047" d="M.2.7A.5.5,0,0,1-.153.554l-.2-.2a.5.5,0,0,1,0-.707.5.5,0,0,1,.707,0l.2.2A.5.5,0,0,1,.2.7Z" transform="translate(263.127 226.146)" fill="#333"/>
      <line id="선_1048" data-name="선 1048" x2="0.201" y2="0.201" transform="translate(261.373 227.9)" fill="#fff"/>
      <path id="선_1049" data-name="선 1049" d="M.2.7A.5.5,0,0,1-.153.554l-.2-.2a.5.5,0,0,1,0-.707.5.5,0,0,1,.707,0l.2.2A.5.5,0,0,1,.2.7Z" transform="translate(261.373 227.9)" fill="#333"/>
      <line id="선_1050" data-name="선 1050" x2="0.201" y2="0.201" transform="translate(259.619 229.655)" fill="#fff"/>
      <path id="선_1051" data-name="선 1051" d="M.2.7A.5.5,0,0,1-.153.554l-.2-.2a.5.5,0,0,1,0-.707.5.5,0,0,1,.707,0l.2.2A.5.5,0,0,1,.2.7Z" transform="translate(259.619 229.655)" fill="#333"/>
      <line id="선_1052" data-name="선 1052" x1="0.201" y1="0.201" transform="translate(276.067 239.086)" fill="#fff"/>
      <path id="선_1053" data-name="선 1053" d="M.2.7A.5.5,0,0,1-.153.554l-.2-.2a.5.5,0,0,1,0-.707.5.5,0,0,1,.707,0l.2.2A.5.5,0,0,1,.2.7Z" transform="translate(276.067 239.086)" fill="#333"/>
      <line id="선_1054" data-name="선 1054" x1="0.201" y1="0.201" transform="translate(274.313 240.84)" fill="#fff"/>
      <path id="선_1055" data-name="선 1055" d="M.2.7A.5.5,0,0,1-.153.554l-.2-.2a.5.5,0,0,1,0-.707.5.5,0,0,1,.707,0l.2.2A.5.5,0,0,1,.2.7Z" transform="translate(274.313 240.84)" fill="#333"/>
      <line id="선_1056" data-name="선 1056" x1="0.201" y1="0.201" transform="translate(272.558 242.594)" fill="#fff"/>
      <path id="선_1057" data-name="선 1057" d="M.2.7A.5.5,0,0,1-.153.554l-.2-.2a.5.5,0,0,1,0-.707.5.5,0,0,1,.707,0l.2.2A.5.5,0,0,1,.2.7Z" transform="translate(272.558 242.594)" fill="#333"/>
      <line id="선_1058" data-name="선 1058" x1="0.201" y1="0.201" transform="translate(273.987 237.006)" fill="#fff"/>
      <path id="선_1059" data-name="선 1059" d="M.2.7A.5.5,0,0,1-.153.554l-.2-.2a.5.5,0,0,1,0-.707.5.5,0,0,1,.707,0l.2.2A.5.5,0,0,1,.2.7Z" transform="translate(273.987 237.006)" fill="#333"/>
      <line id="선_1060" data-name="선 1060" x1="0.201" y1="0.201" transform="translate(272.233 238.76)" fill="#fff"/>
      <path id="선_1061" data-name="선 1061" d="M.2.7A.5.5,0,0,1-.153.554l-.2-.2a.5.5,0,0,1,0-.707.5.5,0,0,1,.707,0l.2.2A.5.5,0,0,1,.2.7Z" transform="translate(272.233 238.76)" fill="#333"/>
      <line id="선_1062" data-name="선 1062" x1="0.201" y1="0.201" transform="translate(270.478 240.514)" fill="#fff"/>
      <path id="선_1063" data-name="선 1063" d="M.2.7A.5.5,0,0,1-.153.554l-.2-.2a.5.5,0,0,1,0-.707.5.5,0,0,1,.707,0l.2.2A.5.5,0,0,1,.2.7Z" transform="translate(270.478 240.514)" fill="#333"/>
      <path id="패스_53908" data-name="패스 53908" d="M254.963,245.37h0a5.751,5.751,0,0,1,0-8.133l15.747-15.746a5.751,5.751,0,0,1,8.133,8.133L263.1,245.37a5.75,5.75,0,0,1-8.133,0" transform="translate(0)" fill="#7e4f40" opacity="0.7"/>
      <path id="패스_53909" data-name="패스 53909" d="M259.03,247.555a6.251,6.251,0,0,1-4.42-10.671l15.747-15.746a6.251,6.251,0,0,1,8.84,8.84L263.45,245.724A6.209,6.209,0,0,1,259.03,247.555Zm15.747-27.249a5.215,5.215,0,0,0-3.713,1.538l-15.747,15.746a5.251,5.251,0,1,0,7.426,7.426l15.747-15.746a5.251,5.251,0,0,0-3.713-8.964Z" transform="translate(0)" fill="#333"/>
      <rect id="사각형_10621" data-name="사각형 10621" width="8.019" height="8.019" transform="matrix(0.707, -0.707, 0.707, 0.707, 261.233, 233.431)" fill="#fff"/>
      <path id="사각형_10622" data-name="사각형 10622" d="M0-.5H8.019a.5.5,0,0,1,.5.5V8.019a.5.5,0,0,1-.5.5H0a.5.5,0,0,1-.5-.5V0A.5.5,0,0,1,0-.5ZM7.519.5H.5V7.519H7.519Z" transform="matrix(0.707, -0.707, 0.707, 0.707, 261.233, 233.431)" fill="#333"/>
      <line id="선_1064" data-name="선 1064" x1="0.201" y2="0.201" transform="translate(272.558 224.066)" fill="#fff"/>
      <path id="선_1065" data-name="선 1065" d="M0,.7A.5.5,0,0,1-.353.555a.5.5,0,0,1,0-.707l.2-.2a.5.5,0,0,1,.707,0,.5.5,0,0,1,0,.707l-.2.2A.5.5,0,0,1,0,.7Z" transform="translate(272.558 224.066)" fill="#333"/>
      <line id="선_1066" data-name="선 1066" x1="0.201" y2="0.201" transform="translate(274.313 225.821)" fill="#fff"/>
      <path id="선_1067" data-name="선 1067" d="M0,.7A.5.5,0,0,1-.354.554a.5.5,0,0,1,0-.707l.2-.2a.5.5,0,0,1,.707,0,.5.5,0,0,1,0,.707l-.2.2A.5.5,0,0,1,0,.7Z" transform="translate(274.313 225.821)" fill="#333"/>
      <line id="선_1068" data-name="선 1068" x1="0.201" y2="0.201" transform="translate(276.067 227.575)" fill="#fff"/>
      <path id="선_1069" data-name="선 1069" d="M0,.7A.5.5,0,0,1-.354.554a.5.5,0,0,1,0-.707l.2-.2a.5.5,0,0,1,.707,0,.5.5,0,0,1,0,.707l-.2.2A.5.5,0,0,1,0,.7Z" transform="translate(276.067 227.575)" fill="#333"/>
      <line id="선_1070" data-name="선 1070" x1="0.201" y2="0.201" transform="translate(270.478 226.146)" fill="#fff"/>
      <path id="선_1071" data-name="선 1071" d="M0,.7A.5.5,0,0,1-.354.554a.5.5,0,0,1,0-.707l.2-.2a.5.5,0,0,1,.707,0,.5.5,0,0,1,0,.707l-.2.2A.5.5,0,0,1,0,.7Z" transform="translate(270.478 226.146)" fill="#333"/>
      <line id="선_1072" data-name="선 1072" x1="0.201" y2="0.201" transform="translate(272.233 227.9)" fill="#fff"/>
      <path id="선_1073" data-name="선 1073" d="M0,.7A.5.5,0,0,1-.354.554a.5.5,0,0,1,0-.707l.2-.2a.5.5,0,0,1,.707,0,.5.5,0,0,1,0,.707l-.2.2A.5.5,0,0,1,0,.7Z" transform="translate(272.233 227.9)" fill="#333"/>
      <line id="선_1074" data-name="선 1074" x1="0.201" y2="0.201" transform="translate(273.987 229.655)" fill="#fff"/>
      <path id="선_1075" data-name="선 1075" d="M0,.7A.5.5,0,0,1-.354.554a.5.5,0,0,1,0-.707l.2-.2a.5.5,0,0,1,.707,0,.5.5,0,0,1,0,.707l-.2.2A.5.5,0,0,1,0,.7Z" transform="translate(273.987 229.655)" fill="#333"/>
      <line id="선_1076" data-name="선 1076" y1="0.201" x2="0.201" transform="translate(257.539 239.086)" fill="#fff"/>
      <path id="선_1077" data-name="선 1077" d="M0,.7A.5.5,0,0,1-.354.554a.5.5,0,0,1,0-.707l.2-.2a.5.5,0,0,1,.707,0,.5.5,0,0,1,0,.707l-.2.2A.5.5,0,0,1,0,.7Z" transform="translate(257.539 239.086)" fill="#333"/>
      <line id="선_1078" data-name="선 1078" y1="0.201" x2="0.201" transform="translate(259.293 240.84)" fill="#fff"/>
      <path id="선_1079" data-name="선 1079" d="M0,.7A.5.5,0,0,1-.354.554a.5.5,0,0,1,0-.707l.2-.2a.5.5,0,0,1,.707,0,.5.5,0,0,1,0,.707l-.2.2A.5.5,0,0,1,0,.7Z" transform="translate(259.293 240.84)" fill="#333"/>
      <line id="선_1080" data-name="선 1080" y1="0.201" x2="0.201" transform="translate(261.047 242.594)" fill="#fff"/>
      <path id="선_1081" data-name="선 1081" d="M0,.7A.5.5,0,0,1-.354.554a.5.5,0,0,1,0-.707l.2-.2a.5.5,0,0,1,.707,0,.5.5,0,0,1,0,.707l-.2.2A.5.5,0,0,1,0,.7Z" transform="translate(261.047 242.594)" fill="#333"/>
      <line id="선_1082" data-name="선 1082" y1="0.201" x2="0.201" transform="translate(259.619 237.006)" fill="#fff"/>
      <path id="선_1083" data-name="선 1083" d="M0,.7A.5.5,0,0,1-.354.554a.5.5,0,0,1,0-.707l.2-.2a.5.5,0,0,1,.707,0,.5.5,0,0,1,0,.707l-.2.2A.5.5,0,0,1,0,.7Z" transform="translate(259.619 237.006)" fill="#333"/>
      <line id="선_1084" data-name="선 1084" y1="0.201" x2="0.201" transform="translate(261.373 238.76)" fill="#fff"/>
      <path id="선_1085" data-name="선 1085" d="M0,.7A.5.5,0,0,1-.353.555a.5.5,0,0,1,0-.707l.2-.2a.5.5,0,0,1,.707,0,.5.5,0,0,1,0,.707l-.2.2A.5.5,0,0,1,0,.7Z" transform="translate(261.373 238.76)" fill="#333"/>
      <line id="선_1086" data-name="선 1086" y1="0.201" x2="0.201" transform="translate(263.127 240.514)" fill="#fff"/>
      <path id="선_1087" data-name="선 1087" d="M0,.7A.5.5,0,0,1-.354.554a.5.5,0,0,1,0-.707l.2-.2a.5.5,0,0,1,.707,0,.5.5,0,0,1,0,.707l-.2.2A.5.5,0,0,1,0,.7Z" transform="translate(263.127 240.514)" fill="#333"/>
    </g>
  </g>
</svg>
