<svg xmlns="http://www.w3.org/2000/svg" xmlns:xlink="http://www.w3.org/1999/xlink" width="44" height="44" viewBox="0 0 44 44">
  <defs>
    <clipPath id="clip-path">
      <rect id="SVGID" width="11.348" height="14.784" fill="none"/>
    </clipPath>
  </defs>
  <g id="icon_cure-etc" transform="translate(-48.424 -694.424)">
    <rect id="사각형_10579" data-name="사각형 10579" width="44" height="44" transform="translate(48.424 694.424)" fill="none"/>
    <g id="그룹_33559" data-name="그룹 33559" transform="translate(-122.576 536.422)">
      <path id="패스_53890" data-name="패스 53890" d="M205.82,182.021l-6.3-2.29,5.2-9.88,3.461,1.258Z" transform="translate(-2.26 -0.721)" fill="#fff"/>
      <path id="패스_53891" data-name="패스 53891" d="M205.82,182.521a.5.5,0,0,1-.171-.03l-6.3-2.29a.5.5,0,0,1-.272-.7l5.2-9.88a.5.5,0,0,1,.613-.237l3.461,1.258a.5.5,0,0,1,.318.576l-2.36,10.911a.5.5,0,0,1-.489.394Zm-5.59-3.064,5.222,1.9,2.147-9.925-2.641-.96Z" transform="translate(-2.26 -0.721)" fill="#333"/>
      <path id="패스_53892" data-name="패스 53892" d="M208.742,170.717l-3.7-1.344a1.917,1.917,0,0,1,1.309-3.6l3.7,1.344a1.917,1.917,0,0,1-1.309,3.6" transform="translate(-2.703 -0.284)" fill="#fff"/>
      <path id="패스_53893" data-name="패스 53893" d="M209.4,171.333a2.41,2.41,0,0,1-.825-.146l-3.7-1.344a2.417,2.417,0,1,1,1.651-4.543l3.7,1.344a2.417,2.417,0,0,1-.826,4.689Zm-3.7-5.179a1.421,1.421,0,0,0-1.331.934,1.417,1.417,0,0,0,.848,1.816l3.7,1.344a1.417,1.417,0,0,0,.967-2.664l-3.7-1.344A1.411,1.411,0,0,0,205.7,166.154Z" transform="translate(-2.703 -0.284)" fill="#333"/>
      <g id="그룹_33555" data-name="그룹 33555" transform="translate(197.263 166.515)" style="mix-blend-mode: darken;isolation: isolate">
        <g id="그룹_33554" data-name="그룹 33554">
          <g id="그룹_33553" data-name="그룹 33553" clip-path="url(#clip-path)">
            <path id="패스_53894" data-name="패스 53894" d="M210.755,169.705a1.917,1.917,0,0,1-2.456,1.144l-.118-.043-2.361,10.911-6.3-2.288.013-.027,5.1,1.855L207,170.346l.118.043a1.917,1.917,0,0,0,1.624-3.456l.868.315a1.916,1.916,0,0,1,1.147,2.457" transform="translate(-199.523 -166.933)" fill="#7e4f40" opacity="0.7"/>
          </g>
        </g>
      </g>
      <path id="패스_53895" data-name="패스 53895" d="M207.225,182.227a13.068,13.068,0,0,1-.129,1.865,14.026,14.026,0,0,1-27.806,0,13.537,13.537,0,0,1,0-3.729,1.861,1.861,0,0,1,.6-.1h26.6a1.861,1.861,0,0,1,.6.1,13.068,13.068,0,0,1,.129,1.865" transform="translate(-0.143 -1.804)" fill="#fff"/>
      <path id="패스_53896" data-name="패스 53896" d="M179.89,179.766h26.6a2.354,2.354,0,0,1,.762.124.5.5,0,0,1,.333.4,14.037,14.037,0,0,1,0,3.869,14.526,14.526,0,0,1-28.8,0,14.037,14.037,0,0,1,0-3.869.5.5,0,0,1,.333-.4A2.354,2.354,0,0,1,179.89,179.766Zm26.754,1.007a1.471,1.471,0,0,0-.149-.007h-26.6a1.471,1.471,0,0,0-.149.007,12.9,12.9,0,0,0-.08,1.454,12.623,12.623,0,0,0,.124,1.793v.006a13.526,13.526,0,0,0,26.814,0v-.006a12.622,12.622,0,0,0,.124-1.793A12.9,12.9,0,0,0,206.644,180.773Z" transform="translate(-0.143 -1.804)" fill="#333"/>
      <path id="패스_53897" data-name="패스 53897" d="M208.309,182.227a1.954,1.954,0,0,1-1.357,1.865,1.837,1.837,0,0,1-.6.1h-26.6a1.837,1.837,0,0,1-.6-.1,1.959,1.959,0,0,1,0-3.729,1.861,1.861,0,0,1,.6-.1h26.6a1.861,1.861,0,0,1,.6.1,1.956,1.956,0,0,1,1.357,1.865" transform="translate(0 -1.804)" fill="#fff"/>
      <path id="패스_53898" data-name="패스 53898" d="M179.748,179.766h26.6a2.354,2.354,0,0,1,.758.122,2.461,2.461,0,0,1,.984,4.075,2.475,2.475,0,0,1-.983.6,2.332,2.332,0,0,1-.759.123h-26.6a2.332,2.332,0,0,1-.758-.123,2.459,2.459,0,0,1-.983-4.074,2.477,2.477,0,0,1,.984-.6A2.354,2.354,0,0,1,179.748,179.766Zm26.6,3.924a1.333,1.333,0,0,0,.437-.07l.01,0a1.46,1.46,0,0,0,0-2.777l-.009,0a1.357,1.357,0,0,0-.439-.07h-26.6a1.357,1.357,0,0,0-.439.07l-.008,0a1.459,1.459,0,0,0-1.011,1.389,1.453,1.453,0,0,0,1.01,1.389l.011,0a1.334,1.334,0,0,0,.437.07Z" transform="translate(0 -1.804)" fill="#333"/>
      <rect id="사각형_10617" data-name="사각형 10617" width="13.783" height="3.228" transform="translate(186.159 192.696)" fill="#fff"/>
      <path id="사각형_10618" data-name="사각형 10618" d="M0-.5H13.783a.5.5,0,0,1,.5.5V3.228a.5.5,0,0,1-.5.5H0a.5.5,0,0,1-.5-.5V0A.5.5,0,0,1,0-.5ZM13.283.5H.5V2.728H13.283Z" transform="translate(186.159 192.696)" fill="#333"/>
      <path id="패스_53899" data-name="패스 53899" d="M197.336,188.655h-1.644V187.01h-2.4v1.645h-1.644v2.4h1.644V192.7h2.4v-1.645h1.644Z" transform="translate(-1.441 -2.506)" fill="#a48379"/>
      <path id="패스_53899_-_윤곽선" data-name="패스 53899 - 윤곽선" d="M193.291,186.51h2.4a.5.5,0,0,1,.5.5v1.145h1.144a.5.5,0,0,1,.5.5v2.4a.5.5,0,0,1-.5.5h-1.144V192.7a.5.5,0,0,1-.5.5h-2.4a.5.5,0,0,1-.5-.5v-1.145h-1.144a.5.5,0,0,1-.5-.5v-2.4a.5.5,0,0,1,.5-.5h1.144V187.01A.5.5,0,0,1,193.291,186.51Zm1.9,1h-1.4v1.145a.5.5,0,0,1-.5.5h-1.144v1.4h1.144a.5.5,0,0,1,.5.5V192.2h1.4v-1.145a.5.5,0,0,1,.5-.5h1.144v-1.4h-1.144a.5.5,0,0,1-.5-.5Z" transform="translate(-1.441 -2.506)" fill="#333"/>
      <path id="패스_53900" data-name="패스 53900" d="M193.291,186.51h2.4a.5.5,0,0,1,.5.5v1.145h1.144a.5.5,0,0,1,.5.5v2.4a.5.5,0,0,1-.5.5h-1.144V192.7a.5.5,0,0,1-.5.5h-2.4a.5.5,0,0,1-.5-.5v-1.145h-1.144a.5.5,0,0,1-.5-.5v-2.4a.5.5,0,0,1,.5-.5h1.144V187.01A.5.5,0,0,1,193.291,186.51Zm1.9,1h-1.4v1.145a.5.5,0,0,1-.5.5h-1.144v1.4h1.144a.5.5,0,0,1,.5.5V192.2h1.4v-1.145a.5.5,0,0,1,.5-.5h1.144v-1.4h-1.144a.5.5,0,0,1-.5-.5Z" transform="translate(-1.441 -2.506)" fill="#333"/>
      <path id="패스_53902" data-name="패스 53902" d="M197.93,167.441c0,2.5-2.6,4.524-2.6,4.524s-2.6-2.026-2.6-4.524,2.6-4.523,2.6-4.523,2.6,2.025,2.6,4.523" transform="translate(-1.553 0)" fill="#a48379"/>
      <path id="패스_53902_-_윤곽선" data-name="패스 53902 - 윤곽선" d="M195.327,172.465a.5.5,0,0,1-.307-.105c-.114-.089-2.8-2.207-2.8-4.919s2.684-4.829,2.8-4.918a.5.5,0,0,1,.614,0c.114.089,2.8,2.206,2.8,4.918s-2.683,4.83-2.8,4.919A.5.5,0,0,1,195.327,172.465Zm0-8.886c-.65.6-2.1,2.13-2.1,3.862s1.454,3.264,2.1,3.863c.65-.6,2.1-2.131,2.1-3.863S195.976,164.177,195.327,163.579Z" transform="translate(-1.553 0)" fill="#333"/>
      <path id="패스_53903" data-name="패스 53903" d="M197.93,167.441c0,2.5-2.6,4.524-2.6,4.524s-2.6-2.026-2.6-4.524,2.6-4.523,2.6-4.523S197.93,164.943,197.93,167.441Z" transform="translate(-1.553 0)" fill="#a48379"/>
      <path id="패스_53903_-_윤곽선" data-name="패스 53903 - 윤곽선" d="M195.327,162.418a.5.5,0,0,1,.307.105c.114.089,2.8,2.206,2.8,4.918s-2.683,4.83-2.8,4.919a.5.5,0,0,1-.614,0c-.114-.089-2.8-2.207-2.8-4.919s2.684-4.829,2.8-4.918A.5.5,0,0,1,195.327,162.418Zm0,8.886c.65-.6,2.1-2.131,2.1-3.863s-1.454-3.264-2.1-3.862c-.65.6-2.1,2.13-2.1,3.862S194.676,170.705,195.327,171.3Z" transform="translate(-1.553 0)" fill="#333"/>
      <path id="선_1036" data-name="선 1036" d="M0,9.547a.5.5,0,0,1-.5-.5V0A.5.5,0,0,1,0-.5.5.5,0,0,1,.5,0V9.047A.5.5,0,0,1,0,9.547Z" transform="translate(193.773 162.918)" fill="#333"/>
      <path id="선_1037" data-name="선 1037" d="M0,9.547a.5.5,0,0,1-.5-.5V0A.5.5,0,0,1,0-.5.5.5,0,0,1,.5,0V9.047A.5.5,0,0,1,0,9.547Z" transform="translate(193.773 162.918)" fill="#333"/>
      <path id="패스_53904" data-name="패스 53904" d="M189.839,170.8c1.766,1.766,1.357,5.039,1.357,5.039s-3.273.409-5.039-1.357-1.357-5.04-1.357-5.04,3.273-.409,5.04,1.357" transform="translate(-0.725 -0.674)" fill="#a48379"/>
      <path id="패스_53904_-_윤곽선" data-name="패스 53904 - 윤곽선" d="M190.362,176.378a6.588,6.588,0,0,1-4.559-1.544c-1.917-1.918-1.518-5.312-1.5-5.455a.5.5,0,0,1,.434-.434,7.9,7.9,0,0,1,.9-.045,6.59,6.59,0,0,1,4.561,1.545c1.917,1.917,1.517,5.311,1.5,5.455a.5.5,0,0,1-.434.434A7.9,7.9,0,0,1,190.362,176.378Zm-5.1-6.471c-.036.882.019,2.994,1.243,4.22a5.625,5.625,0,0,0,3.852,1.251c.137,0,.26,0,.366-.008.037-.882-.018-2.994-1.243-4.219a5.626,5.626,0,0,0-3.853-1.252C185.5,169.9,185.372,169.9,185.267,169.907Z" transform="translate(-0.725 -0.674)" fill="#333"/>
      <path id="패스_53905" data-name="패스 53905" d="M189.839,170.8c1.766,1.766,1.357,5.039,1.357,5.039s-3.273.409-5.039-1.357-1.357-5.04-1.357-5.04S188.072,169.031,189.839,170.8Z" transform="translate(-0.725 -0.674)" fill="#a48379"/>
      <path id="패스_53905_-_윤곽선" data-name="패스 53905 - 윤곽선" d="M185.632,168.9a6.59,6.59,0,0,1,4.561,1.545c1.917,1.917,1.517,5.311,1.5,5.455a.5.5,0,0,1-.434.434,7.9,7.9,0,0,1-.9.045,6.588,6.588,0,0,1-4.559-1.544c-1.917-1.918-1.518-5.312-1.5-5.455a.5.5,0,0,1,.434-.434A7.9,7.9,0,0,1,185.632,168.9Zm5.1,6.471c.037-.882-.018-2.994-1.243-4.219a5.626,5.626,0,0,0-3.853-1.252c-.137,0-.26,0-.365.008-.036.882.019,2.994,1.243,4.22a5.625,5.625,0,0,0,3.852,1.251C190.5,175.378,190.622,175.375,190.728,175.37Z" transform="translate(-0.725 -0.674)" fill="#333"/>
      <line id="선_1038" data-name="선 1038" x2="6.397" y2="6.397" transform="translate(184.075 168.766)" fill="#90827c"/>
      <path id="선_1039" data-name="선 1039" d="M6.4,6.9a.5.5,0,0,1-.354-.146l-6.4-6.4a.5.5,0,0,1,0-.707.5.5,0,0,1,.707,0l6.4,6.4A.5.5,0,0,1,6.4,6.9Z" transform="translate(184.075 168.766)" fill="#333"/>
    </g>
  </g>
</svg>
