<svg xmlns="http://www.w3.org/2000/svg" width="44" height="44" viewBox="0 0 44 44">
  <g id="icon_toilet-self" transform="translate(-51.24 -697.24)">
    <rect id="사각형_10579" data-name="사각형 10579" width="44" height="44" transform="translate(51.24 697.24)" fill="none"/>
    <g id="그룹_33543" data-name="그룹 33543" transform="translate(-108.393 171.457)">
      <path id="패스_53832" data-name="패스 53832" d="M180.893,532.954a.35.35,0,0,1-.294-.539,10.457,10.457,0,0,1,5.342-4.1.35.35,0,1,1,.183.676,9.922,9.922,0,0,0-4.937,3.8A.35.35,0,0,1,180.893,532.954Z" transform="translate(1.174 0.015)" fill="#7e4f40"/>
      <path id="패스_53833" data-name="패스 53833" d="M193.819,549.222a.5.5,0,0,1-.494-.427,7.6,7.6,0,0,0-.648-1.706.5.5,0,0,1,.891-.455,8.468,8.468,0,0,1,.747,2.015.5.5,0,0,1-.5.573Z" transform="translate(2.05 1.319)" fill="#333"/>
      <g id="그룹_33552" data-name="그룹 33552" transform="translate(0.842 2.089)">
        <path id="선_1024" data-name="선 1024" d="M0,8.075a.5.5,0,0,1-.354-.146.5.5,0,0,1,0-.707L7.222-.354a.5.5,0,0,1,.707,0,.5.5,0,0,1,0,.707L.354,7.929A.5.5,0,0,1,0,8.075Z" transform="translate(169.944 545.658)" fill="#333"/>
        <path id="사각형_10608" data-name="사각형 10608" d="M6.972-.5h8.186a.5.5,0,0,1,.5.5V7.527a.5.5,0,0,1-.5.5H0a.5.5,0,0,1-.5-.5V6.972A7.48,7.48,0,0,1,6.972-.5Zm7.686,1H6.972A6.479,6.479,0,0,0,.5,6.972v.055H14.658Z" transform="translate(179.209 560.76) rotate(180)" fill="#333"/>
        <path id="패스_53834" data-name="패스 53834" d="M173.523,565.7h-8.459a.5.5,0,0,1-.5-.5v-5.028a.5.5,0,0,1,.5-.5h7.225a.5.5,0,0,1,.486.381l1.234,5.028a.5.5,0,0,1-.486.619Zm-7.959-1h7.321l-.988-4.028h-6.333Z" transform="translate(-1.013 0.588)" fill="#333"/>
        <path id="선_1025" data-name="선 1025" d="M9.933.5H0A.5.5,0,0,1-.5,0,.5.5,0,0,1,0-.5H9.933a.5.5,0,0,1,.5.5A.5.5,0,0,1,9.933.5Z" transform="translate(164.052 565.788)" fill="#333"/>
        <path id="선_1026" data-name="선 1026" d="M10.713.5H0A.5.5,0,0,1-.5,0,.5.5,0,0,1,0-.5H10.713a.5.5,0,0,1,.5.5A.5.5,0,0,1,10.713.5Z" transform="translate(169.944 553.233)" fill="#333"/>
        <path id="사각형_10609" data-name="사각형 10609" d="M0-.5H5.894a.5.5,0,0,1,.5.5V9.637a.5.5,0,0,1-.5.5H0a.5.5,0,0,1-.5-.5V0A.5.5,0,0,1,0-.5ZM5.394.5H.5V9.137H5.394Z" transform="translate(169.944 553.233) rotate(180)" fill="#333"/>
        <path id="선_1027" data-name="선 1027" d="M6.99.5H0A.5.5,0,0,1-.5,0,.5.5,0,0,1,0-.5H6.99a.5.5,0,0,1,.5.5A.5.5,0,0,1,6.99.5Z" transform="translate(163.502 543.596)" fill="#333"/>
      </g>
      <path id="패스_53835" data-name="패스 53835" d="M194.03,566.913a15.851,15.851,0,0,1-2.466-.231c-1.055-.17-1.123-1.567-1.152-2.164,0-.006,0-.011,0-.017l-.036-2.4a.5.5,0,0,1,.492-.508h.008a.5.5,0,0,1,.5.492l.036,2.394c.057,1.143.286,1.213.312,1.217,3.046.49,3.97.038,4.033-.269s-.371-.794-.589-.9a.5.5,0,0,1-.642-.506c.194-3.561.465-9.4.372-10.058q-.006-.018-.011-.037l-.9-3.671a.5.5,0,1,1,.971-.237l.886,3.628c.081.227.121.934-.078,5.433-.081,1.845-.177,3.684-.221,4.524a1.721,1.721,0,0,1,.348.214,1.857,1.857,0,0,1,.763,2.057C196.357,566.566,195.49,566.913,194.03,566.913Z" transform="translate(1.889 1.553)" fill="#333"/>
      <path id="타원_1307" data-name="타원 1307" d="M2.251-.5A2.751,2.751,0,1,1-.5,2.251,2.755,2.755,0,0,1,2.251-.5Zm0,4.5A1.751,1.751,0,1,0,.5,2.251,1.753,1.753,0,0,0,2.251,4Z" transform="translate(192.988 528.45)" fill="#333"/>
      <path id="패스_53836" data-name="패스 53836" d="M192.7,546.307h-.039a.5.5,0,0,1-.46-.537,59.058,59.058,0,0,0,.1-7.145.5.5,0,0,1,1-.06,60.2,60.2,0,0,1-.106,7.281A.5.5,0,0,1,192.7,546.307Z" transform="translate(2.019 0.727)" fill="#333"/>
      <path id="패스_53837" data-name="패스 53837" d="M186.78,533.56a.5.5,0,0,1-.384-.821,5.087,5.087,0,0,1,3.163-1.584.5.5,0,0,1,.121.993,4.155,4.155,0,0,0-2.516,1.232A.5.5,0,0,1,186.78,533.56Z" transform="translate(1.596 0.229)" fill="#333"/>
      <path id="패스_53838" data-name="패스 53838" d="M185.43,556.009a.5.5,0,0,1-.485-.381l-1.418-5.8a.5.5,0,0,1-.011-.064l-.238-2.163a7.365,7.365,0,0,1,.547-4.434.5.5,0,1,1,.862.507,6.629,6.629,0,0,0-.416,3.8v.01l.235,2.136,1.41,5.772a.5.5,0,0,1-.486.619Z" transform="translate(1.373 1.072)" fill="#333"/>
      <path id="패스_53839" data-name="패스 53839" d="M188.843,547.756a2.323,2.323,0,0,1-.537-.063,2.289,2.289,0,0,1-1.43-1.034l-3.236-5.247a2.265,2.265,0,0,1-.288-.736c-.005-.018-.011-.041-.016-.067l0-.01c-.008-.044-.012-.083-.016-.114l0-.016a2.278,2.278,0,0,1,.131-1.177l1.831-4.628a.5.5,0,0,1,.93.368l-1.831,4.627a1.292,1.292,0,0,0-.07.672l0,.015,0,.029c0,.013,0,.026,0,.04l0,.007c0,.013.007.027.01.04a1.263,1.263,0,0,0,.162.426l3.237,5.249a1.306,1.306,0,1,0,2.223-1.371l-2.782-4.512a.5.5,0,0,1-.039-.446l1.946-4.919a.5.5,0,0,1,.93.368l-1.854,4.686,2.65,4.3a2.308,2.308,0,0,1-1.959,3.518Z" transform="translate(1.381 0.458)" fill="#333"/>
      <path id="패스_53840" data-name="패스 53840" d="M194.958,545.566c-.035,0-.069,0-.1,0a1.9,1.9,0,0,1-1.275-.682.5.5,0,1,1,.791-.612.9.9,0,0,0,.574.3.655.655,0,0,0,.433-.247,1.431,1.431,0,0,0,.293-1.4l-1.331-3.656a.5.5,0,0,1-.028-.129l-.341-4.057a1.3,1.3,0,0,0-.283-.708.5.5,0,0,1,.778-.628,2.291,2.291,0,0,1,.5,1.253l.335,3.99,1.308,3.594a2.414,2.414,0,0,1-.5,2.421A1.618,1.618,0,0,1,194.958,545.566Z" transform="translate(2.111 0.402)" fill="#333"/>
      <path id="패스_53841" data-name="패스 53841" d="M187.806,567.356a22.608,22.608,0,0,1-2.6-.176c-.291-.034-.8-.221-.935-1.091a5.3,5.3,0,0,1,0-1.228l.59-9.788a.5.5,0,0,1,1,.06l-.59,9.795s0,.009,0,.013c-.082.941.022,1.186.069,1.247a13.932,13.932,0,0,0,3.868.062c.58-.11.827-.288.863-.407.049-.164-.168-.454-.316-.576a.5.5,0,0,1-.485-.562l1.034-8.3a.5.5,0,0,1,.012-.062,2.087,2.087,0,0,0,0-1.025l-1.5-6.126a.5.5,0,0,1,.971-.237l1.5,6.125a3.119,3.119,0,0,1,0,1.478l-.981,7.874a1.71,1.71,0,0,1,.732,1.642c-.144.577-.684.963-1.607,1.146A8.5,8.5,0,0,1,187.806,567.356Z" transform="translate(1.449 1.477)" fill="#333"/>
      <path id="패스_53842" data-name="패스 53842" d="M185.577,530.693a.35.35,0,0,1-.233-.611,3.475,3.475,0,0,1,1.917-.778.35.35,0,0,1,.046.7,2.8,2.8,0,0,0-1.5.6A.35.35,0,0,1,185.577,530.693Z" transform="translate(1.509 0.086)" fill="#7e4f40"/>
      <path id="패스_53843" data-name="패스 53843" d="M181.061,538.983a.35.35,0,0,1-.349-.323,8.516,8.516,0,0,1,1.761-6.015,8.034,8.034,0,0,1,2.094-1.918.35.35,0,0,1,.349.607h0a7.492,7.492,0,0,0-1.909,1.764,7.744,7.744,0,0,0-1.6,5.507.35.35,0,0,1-.322.376Z" transform="translate(1.184 0.185)" fill="#7e4f40"/>
    </g>
  </g>
</svg>
