<svg xmlns="http://www.w3.org/2000/svg" width="44" height="44" viewBox="0 0 44 44">
  <g id="icon_bug" transform="translate(-51.24 -697.24)">
    <rect id="사각형_10579" data-name="사각형 10579" width="44" height="44" transform="translate(51.24 697.24)" fill="none"/>
    <g id="그룹_33590" data-name="그룹 33590" transform="translate(13.272 483.554)">
      <path id="패스_53961" data-name="패스 53961" d="M61.013,225.094a.5.5,0,0,1-.4-.793l4.885-6.749a1.366,1.366,0,0,0-2.212-1.6l-4.337,5.992a.5.5,0,1,1-.81-.586l4.337-5.991a2.366,2.366,0,0,1,3.832,2.775l-4.885,6.748A.5.5,0,0,1,61.013,225.094Z" transform="translate(2.821 0)" fill="#333"/>
      <path id="패스_53962" data-name="패스 53962" d="M55.752,228.74h-.024a.5.5,0,0,1-.475-.523c.079-1.635,2.63-4.681,2.985-5.1l.641-.884a1.366,1.366,0,0,0-2.213-1.6l-2.624,3.624a.5.5,0,0,1-.81-.586l2.624-3.624a2.366,2.366,0,0,1,3.833,2.775l-.653.9-.025.032c-1.041,1.218-2.712,3.519-2.759,4.511A.5.5,0,0,1,55.752,228.74Z" transform="translate(1.876 0.902)" fill="#333"/>
      <path id="패스_53963" data-name="패스 53963" d="M63.637,227.148a.5.5,0,0,1-.4-.793l5.864-8.1a1.366,1.366,0,0,0-2.213-1.6l-5.864,8.1a.5.5,0,0,1-.81-.586l5.864-8.1a2.366,2.366,0,0,1,3.833,2.775l-5.864,8.1A.5.5,0,0,1,63.637,227.148Z" transform="translate(3.22 0.135)" fill="#333"/>
      <path id="패스_53964" data-name="패스 53964" d="M64.729,230.757a.5.5,0,0,1-.4-.793l6.328-8.741a1.366,1.366,0,1,0-2.213-1.6l-4.885,6.748a.5.5,0,0,1-.81-.586l4.885-6.749a2.366,2.366,0,0,1,3.833,2.775l-6.328,8.742A.5.5,0,0,1,64.729,230.757Z" transform="translate(3.708 0.707)" fill="#333"/>
      <path id="패스_53965" data-name="패스 53965" d="M68.94,230.144a.5.5,0,0,1-.4-.793l2.843-3.928a1.366,1.366,0,0,0-2.213-1.6l-4.286,5.921a.5.5,0,1,1-.81-.586l4.286-5.921a2.366,2.366,0,0,1,3.833,2.775l-2.843,3.928A.5.5,0,0,1,68.94,230.144Z" transform="translate(3.963 1.516)" fill="#333"/>
      <path id="패스_53966" data-name="패스 53966" d="M43.891,249.452a.5.5,0,0,1-.4-.793l9.607-13.271a30.542,30.542,0,0,1-1.012-6.037c-.029-2.515,2.047-5.243,2.136-5.358a.5.5,0,0,1,.793.61h0c-.02.025-1.954,2.57-1.929,4.736a31.624,31.624,0,0,0,1.039,6.018.5.5,0,0,1-.077.425L44.3,249.245A.5.5,0,0,1,43.891,249.452Z" transform="translate(0 1.812)" fill="#333"/>
      <path id="패스_53968" data-name="패스 53968" d="M57.719,232.951a.5.5,0,0,1-.413-.781,4.724,4.724,0,0,0,.649-4.639,5.43,5.43,0,0,0-1.252-1.853.5.5,0,1,1,.662-.75,6.429,6.429,0,0,1,1.517,2.226,5.705,5.705,0,0,1-.748,5.577A.5.5,0,0,1,57.719,232.951Z" transform="translate(2.531 2.006)" fill="#333"/>
      <path id="선_1090" data-name="선 1090" d="M0,9.749a.5.5,0,0,1-.293-.1.5.5,0,0,1-.112-.7L6.289-.293a.5.5,0,0,1,.7-.112.5.5,0,0,1,.112.7L.405,9.542A.5.5,0,0,1,0,9.749Z" transform="translate(51.711 247.175)" fill="#333"/>
      <path id="패스_53969" data-name="패스 53969" d="M66.331,232.673a.5.5,0,0,1-.446-.725c.666-1.322,1.226-2.448,1.232-2.459a.5.5,0,0,1,.9.446c-.006.011-.568,1.14-1.234,2.464A.5.5,0,0,1,66.331,232.673Z" transform="translate(4.321 2.854)" fill="#333"/>
      <g id="그룹_33589" data-name="그룹 33589" transform="translate(56.823 234.582)">
        <path id="패스_53970" data-name="패스 53970" d="M58.46,236.533a.5.5,0,0,1-.4-.2l-1.246-1.689a.5.5,0,0,1-.1-.268L56.64,233.1a.5.5,0,1,1,1-.058l.066,1.129,1.158,1.57a.5.5,0,0,1-.4.8Z" transform="translate(-54.272 -231.081)" fill="#333"/>
        <path id="패스_53971" data-name="패스 53971" d="M64.228,236.207a.5.5,0,0,1-.434-.748l.968-1.694-.066-1.129a.5.5,0,1,1,1-.058l.074,1.277a.5.5,0,0,1-.065.277l-1.042,1.823A.5.5,0,0,1,64.228,236.207Z" transform="translate(-52.907 -231.17)" fill="#333"/>
        <path id="패스_53972" data-name="패스 53972" d="M57.782,244.813a.5.5,0,0,1-.5-.471l-.05-.865a.5.5,0,0,1,.119-.354l1.075-1.257a.5.5,0,0,1,.76.65l-.944,1.1.039.664a.5.5,0,0,1-.47.528Z" transform="translate(-54.158 -229.325)" fill="#333"/>
        <path id="패스_53973" data-name="패스 53973" d="M54.734,240.662a.5.5,0,0,1-.44-.737l.654-1.213a.5.5,0,0,1,.411-.262l2.147-.125a.5.5,0,0,1,.058,1l-1.868.109-.522.968A.5.5,0,0,1,54.734,240.662Z" transform="translate(-54.735 -229.973)" fill="#333"/>
        <path id="선_1091" data-name="선 1091" d="M.046,1.3a.5.5,0,0,1-.5-.471L-.5.029A.5.5,0,0,1-.029-.5.5.5,0,0,1,.5-.029l.047.8a.5.5,0,0,1-.47.528Z" transform="translate(6.828 0.087)" fill="#333"/>
        <path id="선_1092" data-name="선 1092" d="M.046,1.3a.5.5,0,0,1-.5-.471L-.5.029A.5.5,0,0,1-.029-.5.5.5,0,0,1,.5-.029l.047.8a.5.5,0,0,1-.47.528Z" transform="translate(8.315)" fill="#333"/>
        <path id="패스_53974" data-name="패스 53974" d="M68.094,240.187a5.439,5.439,0,0,0-3.788-4.973l.087-.006a1.905,1.905,0,1,0-3.331.211h.027a5.449,5.449,0,0,0-3.136,5.359,5.094,5.094,0,1,0,10.14-.59Z" transform="translate(-54.117 -231.192)" fill="#7e4f40" opacity="0.7"/>
        <path id="타원_1325" data-name="타원 1325" d="M5.079-.5a5.8,5.8,0,0,1,5.579,5.985A5.8,5.8,0,0,1,5.079,11.47,5.8,5.8,0,0,1-.5,5.485,5.8,5.8,0,0,1,5.079-.5Zm0,10.97A4.8,4.8,0,0,0,9.657,5.485,4.8,4.8,0,0,0,5.079.5,4.8,4.8,0,0,0,.5,5.485,4.8,4.8,0,0,0,5.079,10.47Z" transform="translate(2.633 3.521) rotate(-3.332)" fill="#333"/>
        <path id="패스_53975" data-name="패스 53975" d="M59.864,235.426a.5.5,0,0,1-.423-.232,2.4,2.4,0,1,1,4.206-.266.5.5,0,0,1-.9-.427,1.4,1.4,0,1,0-2.458.156.5.5,0,0,1-.422.768Z" transform="translate(-53.804 -231.287)" fill="#333"/>
        <path id="패스_53976" data-name="패스 53976" d="M65.878,244.332a.5.5,0,0,1-.5-.471l-.039-.664-1.066-.987a.5.5,0,0,1,.679-.734l1.213,1.123a.5.5,0,0,1,.159.338l.05.865a.5.5,0,0,1-.47.528Z" transform="translate(-52.833 -229.392)" fill="#333"/>
        <path id="패스_53977" data-name="패스 53977" d="M68.643,239.846a.5.5,0,0,1-.41-.213l-.631-.9-1.868.109a.5.5,0,1,1-.058-1l2.147-.125a.5.5,0,0,1,.439.212l.791,1.129a.5.5,0,0,1-.409.787Z" transform="translate(-52.623 -230.09)" fill="#333"/>
      </g>
      <circle id="타원_1326" data-name="타원 1326" cx="0.972" cy="0.972" r="0.972" transform="translate(49.215 251.254)" fill="#7e4f40" opacity="0.7"/>
      <circle id="타원_1327" data-name="타원 1327" cx="0.864" cy="0.864" r="0.864" transform="translate(53.211 239.767)" fill="#7e4f40" opacity="0.7"/>
      <circle id="타원_1328" data-name="타원 1328" cx="0.864" cy="0.864" r="0.864" transform="translate(54.638 246.614)" fill="#7e4f40" opacity="0.7"/>
      <circle id="타원_1329" data-name="타원 1329" cx="0.864" cy="0.864" r="0.864" transform="translate(45.91 249.924)" fill="#7e4f40" opacity="0.7"/>
      <path id="패스_53978" data-name="패스 53978" d="M45.842,244.393a2.206,2.206,0,0,0,1.753.368,1.6,1.6,0,0,0,2.95-.9,2.543,2.543,0,1,0-.529-4.95" transform="translate(0.376 4.602)" fill="#7e4f40" opacity="0.7"/>
      <path id="패스_53979" data-name="패스 53979" d="M48.71,245.122a2.091,2.091,0,0,1-1.232-.4,2.03,2.03,0,0,1-.334-.3,2.715,2.715,0,0,1-1.827-.5.5.5,0,1,1,.586-.81,1.7,1.7,0,0,0,1.358.284.5.5,0,0,1,.522.219,1.1,1.1,0,0,0,1.827.054,1.091,1.091,0,0,0,.2-.671.5.5,0,0,1,.549-.51,2.027,2.027,0,0,0,1.863-.827,2.048,2.048,0,0,0-2.288-3.15.5.5,0,0,1-.307-.952,3.044,3.044,0,1,1,1.133,5.932,2.065,2.065,0,0,1-.343.763,2.092,2.092,0,0,1-1.374.846A2.135,2.135,0,0,1,48.71,245.122Z" transform="translate(0.331 4.432)" fill="#333"/>
    </g>
  </g>
</svg>
