<svg xmlns="http://www.w3.org/2000/svg" width="44" height="44" viewBox="0 0 44 44">
    <path data-name="사각형 12735" style="fill:none" d="M0 0h44v44H0z"/>
    <g data-name="그룹 38286">
        <path data-name="사각형 12746" transform="translate(0 7)" style="fill:none" d="M0 0h44v30H0z"/>
        <g data-name="그룹 38287">
            <path data-name="패스 60410" d="M12.429 19.064h-.047a.5.5 0 0 0-.447.537v8.506a.5.5 0 0 0 .447.447.389.389 0 0 0 .047 0 .5.5 0 0 0 .494-.454v-8.5a.713.713 0 0 0 0-.092.5.5 0 0 0-.494-.45" transform="translate(.081 7.118)" style="fill:#333"/>
            <path data-name="패스 60411" d="M21.991 8.724a3 3 0 1 1 0-6 .5.5 0 0 0 0-.987h-.1a3.991 3.991 0 0 0 .088 7.981h.061v-.012a.5.5 0 0 0 .4-.441.488.488 0 0 0-.112-.363.494.494 0 0 0-.341-.178" transform="translate(.012 7.318)" style="fill:#333"/>
            <path data-name="패스 60412" d="M21.751 11.1h-2.706a12.66 12.66 0 0 0-12.6 12.6v4.317a.713.713 0 0 0 0 .092.5.5 0 0 0 .494.45h.047a.494.494 0 0 0 .447-.536v-4.329a11.642 11.642 0 0 1 11.612-11.611h2.711a.5.5 0 0 0 0-.987M6.5 28.008h-.048z" transform="translate(.145 7.21)" style="fill:#333"/>
            <path data-name="패스 60413" d="M31.681 19.151a.483.483 0 0 0-.363.112.494.494 0 0 0-.178.341v8.506a.5.5 0 0 0 .447.447h.047a.5.5 0 0 0 .494-.449V19.6a.5.5 0 0 0-.448-.448" transform="translate(-.14 7.117)" style="fill:#333"/>
            <path data-name="패스 60414" d="M22.046 1.738h-.013a.476.476 0 0 0-.092 0 .5.5 0 0 0 .088.988 3 3 0 0 1 0 6 .583.583 0 0 0-.093 0 .5.5 0 0 0-.27.876.49.49 0 0 0 .315.115h.143a3.991 3.991 0 0 0-.084-7.982" transform="translate(-.029 7.318)" style="fill:#333"/>
            <path data-name="패스 60415" d="M24.846 11.1h-2.705a.6.6 0 0 0-.094 0 .5.5 0 0 0 .043.99h2.754A11.642 11.642 0 0 1 36.453 23.7v4.319a.494.494 0 0 0 .5.493.493.493 0 0 0 .493-.5v-4.32a12.661 12.661 0 0 0-12.6-12.592" transform="translate(-.03 7.21)" style="fill:#333"/>
        </g>
    </g>
</svg>
