<svg xmlns="http://www.w3.org/2000/svg" width="44" height="44" viewBox="0 0 44 44">
  <g id="icon_sick-etc" transform="translate(-48.424 -694.424)">
    <rect id="사각형_10579" data-name="사각형 10579" width="44" height="44" transform="translate(48.424 694.424)" fill="none"/>
    <g id="그룹_33528" data-name="그룹 33528" transform="translate(-246.94 322.621)">
      <rect id="사각형_10605" data-name="사각형 10605" width="20.339" height="25.424" rx="3" transform="translate(309.402 380.12)" fill="#fff"/>
      <path id="사각형_10605_-_윤곽선" data-name="사각형 10605 - 윤곽선" d="M3,1A2,2,0,0,0,1,3V22.424a2,2,0,0,0,2,2H17.339a2,2,0,0,0,2-2V3a2,2,0,0,0-2-2H3M3,0H17.339a3,3,0,0,1,3,3V22.424a3,3,0,0,1-3,3H3a3,3,0,0,1-3-3V3A3,3,0,0,1,3,0Z" transform="translate(309.402 380.12)" fill="#333"/>
      <path id="패스_53803" data-name="패스 53803" d="M307.062,389.307v-4.574s-.2-2.019,2.854-1.939,14.281,0,14.281,0,1.81.014,1.81,1.583V402.43c-1.433,1.66-2.953,3.292-4.309,5-2.6.024-5.207.009-7.811,0-1.228-.006-2.463.02-3.69-.017a2.908,2.908,0,0,1-2.455-1.037,4.908,4.908,0,0,1-.683-2.846" transform="translate(0.184 0.045)" fill="#fff"/>
      <path id="패스_53803_-_윤곽선" data-name="패스 53803 - 윤곽선" d="M318.667,407.941c-1.537,0-3.07-.008-4.573-.016h-.21c-.416,0-.84,0-1.251,0-.8,0-1.633.006-2.451-.018a3.338,3.338,0,0,1-2.849-1.249,5.384,5.384,0,0,1-.774-3.134.5.5,0,0,1,1,0,4.491,4.491,0,0,0,.591,2.559,2.4,2.4,0,0,0,2.06.825c.8.024,1.624.021,2.418.018.413,0,.84,0,1.26,0h.21c2.412.013,4.9.026,7.357.005.879-1.094,1.83-2.167,2.751-3.207.429-.484.871-.984,1.3-1.479V384.377a.919.919,0,0,0-.607-.922,2.1,2.1,0,0,0-.706-.16c-.308,0-11.3.079-14.292,0a2.678,2.678,0,0,0-2.015.56,1.18,1.18,0,0,0-.328.834.312.312,0,0,1,0,.045v4.574a.5.5,0,0,1-1,0v-4.556a2.167,2.167,0,0,1,.583-1.567,3.526,3.526,0,0,1,2.784-.89c3,.079,14.152,0,14.265,0h.007a3.032,3.032,0,0,1,1.1.245,1.914,1.914,0,0,1,1.2,1.837V402.43a.5.5,0,0,1-.122.327c-.471.545-.958,1.1-1.43,1.629-.965,1.089-1.962,2.216-2.866,3.353a.5.5,0,0,1-.387.189C320.7,407.937,319.681,407.941,318.667,407.941Z" transform="translate(0.184 0.045)" fill="#333"/>
      <path id="패스_53804" data-name="패스 53804" d="M319.828,405.141a.5.5,0,0,1-.5-.5v-2.433a1.76,1.76,0,0,1,.541-1.379,1.8,1.8,0,0,1,1.289-.412h2.068a.5.5,0,0,1,0,1h-2.089a.354.354,0,0,1-.053,0,.807.807,0,0,0-.551.163.827.827,0,0,0-.2.63v2.433A.5.5,0,0,1,319.828,405.141Z" transform="translate(0.762 0.865)" fill="#333"/>
      <path id="선_1016" data-name="선 1016" d="M4.7.5H0A.5.5,0,0,1-.5,0,.5.5,0,0,1,0-.5H4.7a.5.5,0,0,1,.5.5A.5.5,0,0,1,4.7.5Z" transform="translate(319.12 388.303)" fill="#7e4f40"/>
      <path id="선_1017" data-name="선 1017" d="M4.206.5H0A.5.5,0,0,1-.5,0,.5.5,0,0,1,0-.5H4.206a.5.5,0,0,1,.5.5A.5.5,0,0,1,4.206.5Z" transform="translate(319.619 391.351)" fill="#7e4f40"/>
      <path id="선_1018" data-name="선 1018" d="M4.7.5H0A.5.5,0,0,1-.5,0,.5.5,0,0,1,0-.5H4.7a.5.5,0,0,1,.5.5A.5.5,0,0,1,4.7.5Z" transform="translate(319.12 394.4)" fill="#7e4f40"/>
      <path id="선_1019" data-name="선 1019" d="M8.411.5H0A.5.5,0,0,1-.5,0,.5.5,0,0,1,0-.5H8.411a.5.5,0,0,1,.5.5A.5.5,0,0,1,8.411.5Z" transform="translate(315.413 397.449)" fill="#7e4f40"/>
      <g id="그룹_33527" data-name="그룹 33527" transform="translate(302.987 389.348)">
        <path id="패스_53799" data-name="패스 53799" d="M314.109,394.1a2.974,2.974,0,1,0-4.206-4.206L306.794,393,311,397.206Z" transform="translate(-302.814 -389.021)" fill="#fe6d33"/>
        <path id="패스_53799_-_윤곽선" data-name="패스 53799 - 윤곽선" d="M311,397.706a.5.5,0,0,1-.354-.146l-4.206-4.206a.5.5,0,0,1,0-.707l3.109-3.109a3.474,3.474,0,1,1,4.913,4.913l-3.109,3.109A.5.5,0,0,1,311,397.706ZM307.5,393l3.5,3.5,2.755-2.755a2.474,2.474,0,0,0-3.5-3.5Z" transform="translate(-302.814 -389.021)" fill="#333"/>
        <path id="패스_53800" data-name="패스 53800" d="M311.164,396.934l-3.105,3.105a2.977,2.977,0,0,1-4.209,0,2.928,2.928,0,0,1-.711-1.146,2.967,2.967,0,0,0,3.066-.712l3.105-3.105Z" transform="translate(-302.98 -388.747)" fill="#7e4f40" opacity="0.7"/>
        <path id="패스_53801" data-name="패스 53801" d="M306.966,392.328a.5.5,0,0,1,.354.146l4.206,4.206a.5.5,0,0,1,0,.707l-3.109,3.109a3.474,3.474,0,1,1-4.913-4.913l3.109-3.109A.5.5,0,0,1,306.966,392.328Zm3.5,4.706-3.5-3.5-2.755,2.755a2.474,2.474,0,0,0,3.5,3.5Z" transform="translate(-302.987 -388.848)" fill="#333"/>
        <path id="패스_53802" data-name="패스 53802" d="M314.109,394.1a2.974,2.974,0,1,0-4.206-4.206L306.794,393,311,397.206Z" transform="translate(-302.814 -389.021)" fill="#a48379"/>
        <path id="패스_53802_-_윤곽선" data-name="패스 53802 - 윤곽선" d="M311,397.706a.5.5,0,0,1-.354-.146l-4.206-4.206a.5.5,0,0,1,0-.707l3.109-3.109a3.474,3.474,0,1,1,4.913,4.913l-3.109,3.109A.5.5,0,0,1,311,397.706ZM307.5,393l3.5,3.5,2.755-2.755a2.474,2.474,0,0,0-3.5-3.5Z" transform="translate(-302.814 -389.021)" fill="#333"/>
      </g>
    </g>
  </g>
</svg>
