<svg xmlns="http://www.w3.org/2000/svg" width="44" height="44" viewBox="0 0 44 44">
  <g id="icon_accident" transform="translate(-48.424 -694.424)">
    <rect id="사각형_10579" data-name="사각형 10579" width="44" height="44" transform="translate(48.424 694.424)" fill="none"/>
    <g id="그룹_33568" data-name="그룹 33568" transform="translate(-272.665 314.248)">
      <g id="그룹_33567" data-name="그룹 33567" transform="translate(328.104 382.538)">
        <g id="그룹_33564" data-name="그룹 33564" transform="translate(0 20.475)">
          <path id="패스_53919" data-name="패스 53919" d="M364.866,459.9h-4.125v-2.976h-4.125v-2.976H352.49V450.97h-4.125v-2.976H344.24v-2.976h-5.732v18.6h26.358Z" transform="translate(-338.508 -445.017)" fill="#fff"/>
          <path id="패스_53919_-_윤곽선" data-name="패스 53919 - 윤곽선" d="M364.866,464.116H338.508a.5.5,0,0,1-.5-.5v-18.6a.5.5,0,0,1,.5-.5h5.732a.5.5,0,0,1,.5.5v2.476h3.625a.5.5,0,0,1,.5.5v2.476h3.625a.5.5,0,0,1,.5.5v2.477h3.626a.5.5,0,0,1,.5.5v2.476h3.625a.5.5,0,0,1,.5.5V459.4h3.625a.5.5,0,0,1,.5.5v3.717A.5.5,0,0,1,364.866,464.116Zm-25.858-1h25.358V460.4h-3.625a.5.5,0,0,1-.5-.5v-2.476h-3.625a.5.5,0,0,1-.5-.5v-2.476H352.49a.5.5,0,0,1-.5-.5V451.47h-3.625a.5.5,0,0,1-.5-.5v-2.476H344.24a.5.5,0,0,1-.5-.5v-2.476h-4.732Z" transform="translate(-338.508 -445.017)" fill="#333"/>
        </g>
        <g id="그룹_33566" data-name="그룹 33566" transform="translate(6.109 7.232)">
          <g id="그룹_33565" data-name="그룹 33565" transform="translate(17.213 18.967)">
            <path id="패스_53920" data-name="패스 53920" d="M409.955,462.957a1.979,1.979,0,1,0-1.25,2.5A1.979,1.979,0,0,0,409.955,462.957Z" transform="translate(-406.099 -461.604)" fill="#fff"/>
            <path id="패스_53920_-_윤곽선" data-name="패스 53920 - 윤곽선" d="M408.078,461.1h0a2.48,2.48,0,1,1-.785.128A2.476,2.476,0,0,1,408.078,461.1Zm0,3.959a1.479,1.479,0,0,0,0-2.959h0a1.479,1.479,0,0,0,0,2.959Z" transform="translate(-406.099 -461.604)" fill="#333"/>
          </g>
          <path id="패스_53921" data-name="패스 53921" d="M356.908,418.846a13.942,13.942,0,0,0,8.152,2,12.261,12.261,0,0,0,2.871-.561,4.7,4.7,0,0,1,1.46,1.257,12.556,12.556,0,0,1,1.253,1.864,10.838,10.838,0,0,0-2.312,2.465,9.732,9.732,0,0,0-1.649,7.143,1.146,1.146,0,0,0,2.265-.358,7.424,7.424,0,0,1,1.276-5.488,9.128,9.128,0,0,1,1.267-1.476c.081-.076.154-.141.221-.2l4.138-1.516a11.716,11.716,0,0,1,1.463-.137,3.3,3.3,0,0,1,.561.05c.221.035.524.093.962.155a12.913,12.913,0,0,1,3.8,1.224c.492.242.891.471,1.161.637.135.082.238.15.305.194l.073.049.016.011a1.146,1.146,0,1,0,1.327-1.869,16.045,16.045,0,0,0-6.361-2.515c-.387-.055-.647-.1-.922-.149a5.8,5.8,0,0,0-1.481-.057c-.206.016-.438.039-.7.071a19.348,19.348,0,0,0-2.347-3.68,9.714,9.714,0,0,0-3.753-2.9,1.387,1.387,0,0,0-.5-.324l-.038-.016a19.223,19.223,0,0,1-8.57-7.4,1.4,1.4,0,0,0-1.823-.536c-.034.017-.067.035-.1.054a1.4,1.4,0,0,0-.482,1.923,21.927,21.927,0,0,0,9.668,8.446,1.407,1.407,0,0,0-.3.12h0a8.517,8.517,0,0,1-2.96.725,11.119,11.119,0,0,1-6.528-1.622,1.4,1.4,0,0,0-1.413,2.42Z" transform="translate(-356.213 -406.635)" fill="#fff"/>
          <path id="패스_53921_-_윤곽선" data-name="패스 53921 - 윤곽선" d="M359.642,406.135a1.912,1.912,0,0,1,1.632.924,18.862,18.862,0,0,0,8.319,7.188l.013.005.031.013a1.871,1.871,0,0,1,.587.362,10.358,10.358,0,0,1,3.859,3.006,19.266,19.266,0,0,1,2.253,3.467c.138-.014.263-.026.376-.034.2-.016.391-.024.576-.024a6.032,6.032,0,0,1,1.026.086l.288.048c.185.031.375.064.621.1a16.423,16.423,0,0,1,6.526,2.566l.029.019.026.017a1.646,1.646,0,0,1-1.9,2.689l-.011-.007-.014-.01-.054-.036q-.142-.094-.292-.186c-.239-.147-.627-.372-1.121-.615a12.409,12.409,0,0,0-3.65-1.177c-.308-.044-.549-.085-.743-.118l-.227-.038a2.8,2.8,0,0,0-.486-.044h-.019a11.67,11.67,0,0,0-1.321.125l-4,1.465c-.046.041-.092.083-.138.126a8.633,8.633,0,0,0-1.2,1.394,6.869,6.869,0,0,0-1.194,5.128,1.646,1.646,0,0,1-3.253.513,10.189,10.189,0,0,1,1.732-7.5,11.7,11.7,0,0,1,2.075-2.3,11.2,11.2,0,0,0-.988-1.421l0-.006a4.664,4.664,0,0,0-1.123-1.031,12.808,12.808,0,0,1-2.781.519c-.33.026-.668.039-1,.039a14.808,14.808,0,0,1-7.438-2.1,1.9,1.9,0,0,1,.115-3.346,1.9,1.9,0,0,1,1.8.062,10.911,10.911,0,0,0,5.517,1.582c.239,0,.483-.009.723-.026a8.929,8.929,0,0,0,2.04-.39,23.012,23.012,0,0,1-3.158-1.966,21.534,21.534,0,0,1-5.682-6.177,1.905,1.905,0,0,1,.653-2.61c.053-.031.1-.054.137-.074A1.9,1.9,0,0,1,359.642,406.135Zm9.587,9.043a18.029,18.029,0,0,1-3.467-1.955,18.533,18.533,0,0,1-5.346-5.651.9.9,0,0,0-1.171-.344c-.02.01-.041.021-.068.037a.9.9,0,0,0-.306,1.235,21.52,21.52,0,0,0,9.439,8.244.5.5,0,0,1-.068.941.914.914,0,0,0-.194.077l-.014.007a8.941,8.941,0,0,1-3.147.777c-.266.019-.533.029-.8.029a11.9,11.9,0,0,1-6.02-1.718.9.9,0,1,0-.909,1.556,13.621,13.621,0,0,0,6.934,1.966c.31,0,.622-.012.927-.036a11.733,11.733,0,0,0,2.754-.538.5.5,0,0,1,.371.024,5.247,5.247,0,0,1,1.629,1.39,13.241,13.241,0,0,1,1.3,1.938.5.5,0,0,1-.136.645,10.419,10.419,0,0,0-2.2,2.348,9.207,9.207,0,0,0-1.568,6.781.642.642,0,0,0,.637.546.658.658,0,0,0,.1-.008.647.647,0,0,0,.538-.74,7.931,7.931,0,0,1,1.356-5.846,9.658,9.658,0,0,1,1.338-1.56c.079-.074.156-.144.235-.212a.5.5,0,0,1,.155-.092l4.138-1.516a.5.5,0,0,1,.106-.026,12.654,12.654,0,0,1,1.507-.141h.026a3.785,3.785,0,0,1,.634.056l.24.04c.187.032.421.072.714.114a13.415,13.415,0,0,1,3.952,1.27c.527.259.944.5,1.2.659.111.068.219.137.321.2l.08.054.011.007.011.007a.639.639,0,0,0,.373.119.647.647,0,0,0,.638-.755.641.641,0,0,0-.254-.412l-.045-.03a15.383,15.383,0,0,0-6.108-2.4c-.258-.036-.465-.072-.647-.1l-.281-.047a5.075,5.075,0,0,0-.864-.073c-.159,0-.326.007-.5.021-.19.014-.413.037-.684.069a.5.5,0,0,1-.506-.273,18.664,18.664,0,0,0-2.285-3.585,9.342,9.342,0,0,0-3.555-2.757.5.5,0,0,1-.168-.112.888.888,0,0,0-.317-.209l-.014-.006Z" transform="translate(-356.213 -406.635)" fill="#333"/>
        </g>
        <path id="선_1090" data-name="선 1090" d="M5.493,5.993a.5.5,0,0,1-.354-.146L-.354.354a.5.5,0,0,1,0-.707.5.5,0,0,1,.707,0L5.847,5.14a.5.5,0,0,1-.354.854Z" transform="translate(11.636 2.585)" fill="#7e4f40"/>
        <path id="선_1092" data-name="선 1092" d="M2.908,3.408a.5.5,0,0,1-.354-.146L-.354.354a.5.5,0,0,1,0-.707.5.5,0,0,1,.707,0L3.262,2.555a.5.5,0,0,1-.354.854Z" transform="translate(5.82 0)" fill="#7e4f40"/>
        <path id="선_1094" data-name="선 1094" d="M2.908,3.408a.5.5,0,0,1-.354-.146L-.354.354a.5.5,0,0,1,0-.707.5.5,0,0,1,.707,0L3.262,2.555a.5.5,0,0,1-.354.854Z" transform="translate(18.82 5.816)" fill="#7e4f40"/>
        <path id="선_1093" data-name="선 1093" d="M2.908,3.408a.5.5,0,0,1-.354-.146L-.354.354a.5.5,0,0,1,0-.707.5.5,0,0,1,.707,0L3.262,2.555a.5.5,0,0,1-.354.854Z" transform="translate(2.912 8.724)" fill="#7e4f40"/>
      </g>
      <path id="패스_53922" data-name="패스 53922" d="M327.2,423.94l1.356-4.408,2.035,4.408,3.56-2.882-.339,4.238,4.577-1.7-2.543,3.56,3.9.678-3.56,3.052,2.2,3.052-4.408-.339-.508,4.577-3.391-4.069-3.391,2.881.678-3.9-4.577.339,2.712-3.221-2.882-1.186,3.052-2.2-2.882-4.068Z" transform="translate(0 -25.313)" fill="#a48379"/>
      <path id="패스_53922_-_윤곽선" data-name="패스 53922 - 윤곽선" d="M328.557,419.032a.5.5,0,0,1,.454.29l1.765,3.824,3.06-2.478a.5.5,0,0,1,.813.428l-.277,3.457,3.842-1.423a.5.5,0,0,1,.581.759l-2.081,2.913,3.116.542a.5.5,0,0,1,.24.872l-3.211,2.752,1.934,2.679a.5.5,0,0,1-.444.791l-3.926-.3-.454,4.1a.5.5,0,0,1-.881.265l-3.068-3.681-3.006,2.554a.5.5,0,0,1-.816-.467l.568-3.267-3.937.292a.5.5,0,0,1-.419-.821l2.271-2.7-2.249-.926a.5.5,0,0,1-.1-.868l2.65-1.914-2.6-3.664a.5.5,0,0,1,.538-.772l3.942,1.061,1.214-3.946a.5.5,0,0,1,.444-.352Zm2.034,5.408a.5.5,0,0,1-.454-.29l-1.487-3.221-.972,3.159a.5.5,0,0,1-.608.336L324,423.6l2.079,2.936a.5.5,0,0,1-.115.694l-2.324,1.678,2.052.844a.5.5,0,0,1,.192.784l-1.947,2.313,3.392-.251a.5.5,0,0,1,.53.584l-.441,2.537,2.338-1.986a.5.5,0,0,1,.708.061l2.639,3.167.378-3.41a.5.5,0,0,1,.535-.443l3.333.256-1.573-2.178a.5.5,0,0,1,.08-.672l2.755-2.361-2.854-.5a.5.5,0,0,1-.321-.783l1.6-2.235-3.05,1.13a.5.5,0,0,1-.672-.509l.246-3.076-2.654,2.148A.5.5,0,0,1,330.592,424.44Z" transform="translate(0 -25.313)" fill="#333"/>
    </g>
  </g>
</svg>
