<svg xmlns="http://www.w3.org/2000/svg" xmlns:xlink="http://www.w3.org/1999/xlink" width="44" height="44" viewBox="0 0 44 44">
  <defs>
    <clipPath id="clip-path">
      <rect width="3.014" height="7.941" fill="none"/>
    </clipPath>
  </defs>
  <g id="icon_dialysis" transform="translate(-48.424 -694.424)">
    <rect id="사각형_10579" data-name="사각형 10579" width="44" height="44" transform="translate(48.424 694.424)" fill="none"/>
    <g id="그룹_33523" data-name="그룹 33523" transform="translate(-325.39 624.42)">
      <g id="그룹_33521" data-name="그룹 33521" transform="translate(388.329 80.783)">
        <path id="패스_53777" data-name="패스 53777" d="M388.034,91.017V95.59a3.113,3.113,0,0,0,3.1,3.1h6.06a3.113,3.113,0,0,0,3.1-3.1V91.017Z" transform="translate(-386.683 -78.51)" fill="#7e4f40" opacity="0.7"/>
        <path id="패스_53778" data-name="패스 53778" d="M394.327,79.492a2.742,2.742,0,0,1,1.025.207,2.6,2.6,0,0,1,1.582,1.948h1.183a4.207,4.207,0,0,1,4.168,3.726.5.5,0,0,1,0,.052l.023,3.5v8.9a4.2,4.2,0,0,1-4.194,4.194h-.5a1.33,1.33,0,0,1-1.23.828h-4.111a1.33,1.33,0,0,1-1.23-.828h-.5a4.2,4.2,0,0,1-4.194-4.194V85.84a4.2,4.2,0,0,1,4.194-4.194h1.184a2.63,2.63,0,0,1,.485-1.092A2.834,2.834,0,0,1,394.327,79.492Zm6.962,5.967a3.191,3.191,0,0,0-3.171-2.812H396.48a.5.5,0,0,1-.5-.5,1.642,1.642,0,0,0-1-1.521,1.747,1.747,0,0,0-.651-.134,1.842,1.842,0,0,0-1.324.665,1.636,1.636,0,0,0-.329.989.5.5,0,0,1-.5.5h-1.637a3.2,3.2,0,0,0-3.194,3.194V97.823a3.2,3.2,0,0,0,3.194,3.194h.906a.5.5,0,0,1,.5.5.333.333,0,0,0,.328.328h4.111a.333.333,0,0,0,.328-.328.5.5,0,0,1,.5-.5h.906a3.2,3.2,0,0,0,3.194-3.194v-8.9Z" transform="translate(-386.843 -79.992)" fill="#333"/>
        <circle id="타원_1302" data-name="타원 1302" cx="0.826" cy="0.826" r="0.826" transform="translate(6.658 1.257)" fill="#7e4f40" opacity="0.7"/>
        <g id="반복_그리드_2" data-name="반복 그리드 2" transform="translate(9.466 8.363)" clip-path="url(#clip-path)">
          <g transform="translate(-395.188 -93.364)">
            <line id="선_1010" data-name="선 1010" x2="1.656" transform="translate(395.688 93.864)" fill="none" stroke="#7e4f40" stroke-linecap="round" stroke-linejoin="round" stroke-width="1"/>
          </g>
          <g transform="translate(-395.188 -91.364)">
            <line id="선_1010-2" data-name="선 1010" x2="1.656" transform="translate(395.688 93.864)" fill="none" stroke="#7e4f40" stroke-linecap="round" stroke-linejoin="round" stroke-width="1"/>
          </g>
          <g transform="translate(-395.188 -89.364)">
            <line id="선_1010-3" data-name="선 1010" x2="1.656" transform="translate(395.688 93.864)" fill="none" stroke="#7e4f40" stroke-linecap="round" stroke-linejoin="round" stroke-width="1"/>
          </g>
          <g transform="translate(-395.188 -87.364)">
            <line id="선_1010-4" data-name="선 1010" x2="1.656" transform="translate(395.688 93.864)" fill="none" stroke="#7e4f40" stroke-linecap="round" stroke-linejoin="round" stroke-width="1"/>
          </g>
        </g>
      </g>
      <g id="그룹_33522" data-name="그룹 33522" transform="translate(375.787 74.104)">
        <path id="패스_53779" data-name="패스 53779" d="M409.588,90.76a.5.5,0,0,1-.348-.141L406.9,88.343a.5.5,0,1,1,.7-.717l1.945,1.889,1.68-2.129a.5.5,0,0,1,.785.62L409.98,90.57a.5.5,0,0,1-.36.189Z" transform="translate(-371.557 -72.277)" fill="#333"/>
        <path id="패스_53780" data-name="패스 53780" d="M380.156,92.733a.5.5,0,0,1-.389-.185l-1.706-2.108-1.921,1.913a.5.5,0,0,1-.706-.709l2.314-2.3a.5.5,0,0,1,.741.04l2.055,2.538a.5.5,0,0,1-.388.815Z" transform="translate(-375.787 -72.008)" fill="#333"/>
        <path id="패스_53781" data-name="패스 53781" d="M395.668,108.2a18.341,18.341,0,0,1-18.356-18.356.5.5,0,0,1,1,0A17.359,17.359,0,0,0,412.2,95.127a.5.5,0,1,1,.953.3,18.364,18.364,0,0,1-17.49,12.769Z" transform="translate(-375.514 -71.988)" fill="#333"/>
        <path id="패스_53782" data-name="패스 53782" d="M413.423,92.46a.5.5,0,0,1-.5-.5,17.359,17.359,0,0,0-33.893-5.284.5.5,0,1,1-.953-.3,18.356,18.356,0,0,1,35.846,5.588A.5.5,0,0,1,413.423,92.46Z" transform="translate(-375.415 -74.104)" fill="#333"/>
      </g>
    </g>
  </g>
</svg>
