<svg xmlns="http://www.w3.org/2000/svg" width="38" height="37" viewBox="0 0 38 37">
  <g id="_32._독감" data-name="32. 독감" transform="translate(-100.727 -359.713)">
    <g id="그룹_3248" data-name="그룹 3248" transform="translate(100.727 359.713)">
      <g id="그룹_3237" data-name="그룹 3237" transform="translate(8.873 7.737)">
        <g id="그룹_3236" data-name="그룹 3236">
          <g id="그룹_3235" data-name="그룹 3235" transform="translate(0 8.275)">
            <path id="패스_13122" data-name="패스 13122" d="M128.51,425.684a.681.681,0,0,1-.667-.548c-.076-.382-1.834-9.41.608-14.276a5.564,5.564,0,0,1,3.395-3.053,7.735,7.735,0,0,1,5.481.838l3.86,2.444a10.548,10.548,0,0,0-.053-2.371,3.455,3.455,0,1,1,6.815-1.136c.679,4.072-.731,9.493-.894,10.1a3.454,3.454,0,0,1-5.185,2.02l-8.221-5.206a.68.68,0,1,1,.728-1.149l8.221,5.206a2.094,2.094,0,0,0,3.142-1.224c.155-.576,1.5-5.733.866-9.521a2.094,2.094,0,1,0-4.131.688,14.056,14.056,0,0,1-.043,3.843.68.68,0,0,1-1.04.493l-4.774-3.024a6.453,6.453,0,0,0-4.394-.693,4.264,4.264,0,0,0-2.557,2.356c-2.234,4.453-.507,13.312-.489,13.4a.681.681,0,0,1-.668.813Z" transform="translate(-127.16 -404.695)" fill="#777"/>
            <path id="패스_13123" data-name="패스 13123" d="M160.991,449.005a.681.681,0,0,1-.642-.455c-1.154-3.289-.448-7.75-.417-7.938a.68.68,0,0,1,1.343.218c-.007.043-.679,4.311.359,7.27a.68.68,0,0,1-.417.867A.688.688,0,0,1,160.991,449.005Z" transform="translate(-148.625 -428.017)" fill="#777"/>
          </g>
          <path id="패스_13124" data-name="패스 13124" d="M156.561,393.445a6.538,6.538,0,1,1,6.537-6.538.68.68,0,1,1-1.361,0,5.177,5.177,0,1,0-5.177,5.177.68.68,0,0,1,0,1.361Z" transform="translate(-142.246 -380.37)" fill="#777"/>
        </g>
      </g>
      <path id="패스_13125" data-name="패스 13125" d="M183.283,420.839a5.385,5.385,0,0,1-1.185-.143.681.681,0,0,1,.3-1.327,2.153,2.153,0,0,0,2.221-.424c.828-.911,1-3.083.5-6.115a35.246,35.246,0,0,0-1.125-4.622.68.68,0,1,1,1.292-.428c.31.934,2.947,9.211.344,12.079A3.022,3.022,0,0,1,183.283,420.839Z" transform="translate(-154.187 -390.616)" fill="#777"/>
      <g id="그룹_3242" data-name="그룹 3242" transform="translate(8.265)">
        <path id="패스_13126" data-name="패스 13126" d="M132.193,370.017a3.258,3.258,0,1,1,3.257-3.258A3.262,3.262,0,0,1,132.193,370.017Zm0-5.155a1.9,1.9,0,1,0,1.9,1.9A1.9,1.9,0,0,0,132.193,364.862Z" transform="translate(-127.646 -362.212)" fill="#bc8877"/>
        <g id="그룹_3238" data-name="그룹 3238" transform="translate(3.866)">
          <path id="패스_13127" data-name="패스 13127" d="M137.192,362.148a.681.681,0,0,1-.68-.68v-1.074a.68.68,0,1,1,1.361,0v1.074A.68.68,0,0,1,137.192,362.148Z" transform="translate(-136.512 -359.713)" fill="#bc8877"/>
          <path id="패스_13128" data-name="패스 13128" d="M137.192,381.721a.681.681,0,0,1-.68-.68v-1.074a.68.68,0,0,1,1.361,0v1.074A.68.68,0,0,1,137.192,381.721Z" transform="translate(-136.512 -372.628)" fill="#bc8877"/>
        </g>
        <g id="그룹_3239" data-name="그룹 3239" transform="translate(0 3.866)">
          <path id="패스_13129" data-name="패스 13129" d="M126.9,372.44h-1.074a.68.68,0,1,1,0-1.361H126.9a.68.68,0,1,1,0,1.361Z" transform="translate(-125.147 -371.079)" fill="#bc8877"/>
          <path id="패스_13130" data-name="패스 13130" d="M146.473,372.44H145.4a.68.68,0,1,1,0-1.361h1.074a.68.68,0,1,1,0,1.361Z" transform="translate(-138.061 -371.079)" fill="#bc8877"/>
        </g>
        <g id="그룹_3240" data-name="그룹 3240" transform="translate(1.132 1.132)">
          <path id="패스_13131" data-name="패스 13131" d="M143,365.162a.68.68,0,0,1-.481-1.161l.759-.759a.68.68,0,0,1,.962.962l-.759.759A.678.678,0,0,1,143,365.162Z" transform="translate(-137.608 -363.042)" fill="#bc8877"/>
          <path id="패스_13132" data-name="패스 13132" d="M129.156,379a.68.68,0,0,1-.481-1.161l.759-.76a.68.68,0,0,1,.963.962l-.759.76A.68.68,0,0,1,129.156,379Z" transform="translate(-128.476 -372.173)" fill="#bc8877"/>
        </g>
        <g id="그룹_3241" data-name="그룹 3241" transform="translate(1.132 1.132)">
          <path id="패스_13133" data-name="패스 13133" d="M129.914,365.162a.677.677,0,0,1-.481-.2l-.76-.759a.68.68,0,0,1,.962-.962l.76.759a.68.68,0,0,1-.481,1.161Z" transform="translate(-128.474 -363.042)" fill="#bc8877"/>
          <path id="패스_13134" data-name="패스 13134" d="M143.756,379a.679.679,0,0,1-.482-.2l-.759-.76a.68.68,0,1,1,.963-.962l.759.76a.68.68,0,0,1-.481,1.161Z" transform="translate(-137.607 -372.174)" fill="#bc8877"/>
        </g>
      </g>
      <g id="그룹_3247" data-name="그룹 3247" transform="translate(0 9.643)">
        <path id="패스_13135" data-name="패스 13135" d="M107.773,397.642a3.258,3.258,0,1,1,3.257-3.258A3.262,3.262,0,0,1,107.773,397.642Zm0-5.155a1.9,1.9,0,1,0,1.9,1.9A1.9,1.9,0,0,0,107.773,392.487Z" transform="translate(-103.226 -389.838)" fill="#bc8877"/>
        <g id="그룹_3243" data-name="그룹 3243" transform="translate(3.866)">
          <path id="패스_13136" data-name="패스 13136" d="M112.772,389.774a.681.681,0,0,1-.68-.68v-1.074a.68.68,0,0,1,1.361,0v1.074A.68.68,0,0,1,112.772,389.774Z" transform="translate(-112.092 -387.339)" fill="#bc8877"/>
          <path id="패스_13137" data-name="패스 13137" d="M112.772,409.347a.681.681,0,0,1-.68-.68v-1.074a.68.68,0,1,1,1.361,0v1.074A.68.68,0,0,1,112.772,409.347Z" transform="translate(-112.092 -400.254)" fill="#bc8877"/>
        </g>
        <g id="그룹_3244" data-name="그룹 3244" transform="translate(0 3.866)">
          <path id="패스_13138" data-name="패스 13138" d="M102.481,400.066h-1.074a.68.68,0,0,1,0-1.361h1.074a.68.68,0,1,1,0,1.361Z" transform="translate(-100.727 -398.705)" fill="#bc8877"/>
          <path id="패스_13139" data-name="패스 13139" d="M122.053,400.066h-1.074a.68.68,0,0,1,0-1.361h1.074a.68.68,0,1,1,0,1.361Z" transform="translate(-113.641 -398.705)" fill="#bc8877"/>
        </g>
        <g id="그룹_3245" data-name="그룹 3245" transform="translate(1.132 1.132)">
          <path id="패스_13140" data-name="패스 13140" d="M118.576,392.787a.681.681,0,0,1-.481-1.161l.759-.76a.68.68,0,0,1,.962.962l-.759.759A.678.678,0,0,1,118.576,392.787Z" transform="translate(-113.188 -390.667)" fill="#bc8877"/>
          <path id="패스_13141" data-name="패스 13141" d="M104.736,406.628a.68.68,0,0,1-.481-1.161l.759-.76a.68.68,0,0,1,.963.961l-.759.76A.679.679,0,0,1,104.736,406.628Z" transform="translate(-104.056 -399.799)" fill="#bc8877"/>
        </g>
        <g id="그룹_3246" data-name="그룹 3246" transform="translate(1.132 1.132)">
          <path id="패스_13142" data-name="패스 13142" d="M105.494,392.787a.677.677,0,0,1-.481-.2l-.76-.759a.68.68,0,0,1,.962-.962l.76.76a.68.68,0,0,1-.481,1.161Z" transform="translate(-104.054 -390.667)" fill="#bc8877"/>
          <path id="패스_13143" data-name="패스 13143" d="M119.335,406.629a.679.679,0,0,1-.481-.2l-.759-.76a.68.68,0,0,1,.963-.961l.759.76a.68.68,0,0,1-.481,1.161Z" transform="translate(-113.187 -399.8)" fill="#bc8877"/>
        </g>
      </g>
    </g>
    <g id="그룹_3249" data-name="그룹 3249" transform="translate(132.99 374.28)">
      <path id="패스_13144" data-name="패스 13144" d="M783.4,404.459a1.162,1.162,0,0,1-.828-.343c-.345-.345-1-1.509-.427-2.083a.81.81,0,0,1,.6-.225,2.546,2.546,0,0,1,1.488.652,1.171,1.171,0,0,1-.828,2Zm-.555-1.725a1.9,1.9,0,0,0,.373.736.263.263,0,0,0,.364,0,.258.258,0,0,0,.075-.182.254.254,0,0,0-.075-.182A1.867,1.867,0,0,0,782.842,402.734Z" transform="translate(-781.915 -399.203)" fill="#bc8877"/>
      <path id="패스_13145" data-name="패스 13145" d="M796.9,405.959a1.162,1.162,0,0,1-.828-.343c-.345-.345-1-1.509-.427-2.083a.811.811,0,0,1,.6-.225,2.546,2.546,0,0,1,1.488.652,1.171,1.171,0,0,1-.828,2Zm-.555-1.725a1.9,1.9,0,0,0,.373.736.263.263,0,0,0,.364,0,.257.257,0,0,0,.075-.182.254.254,0,0,0-.075-.182A1.867,1.867,0,0,0,796.342,404.234Z" transform="translate(-792.331 -400.36)" fill="#bc8877"/>
      <path id="패스_13146" data-name="패스 13146" d="M790.816,392.748h0a1.2,1.2,0,0,1-.168-.012c-.484-.07-1.705-.611-1.589-1.413.109-.754,1.263-.919,1.7-.919a1.586,1.586,0,0,1,.226.015,1.171,1.171,0,0,1,.991,1.326A1.177,1.177,0,0,1,790.816,392.748Zm-.777-1.283a1.9,1.9,0,0,0,.74.366.26.26,0,0,0,.291-.218.256.256,0,0,0-.218-.291.659.659,0,0,0-.1-.005A1.938,1.938,0,0,0,790.039,391.465Z" transform="translate(-787.421 -390.403)" fill="#bc8877"/>
    </g>
  </g>
</svg>
