<svg xmlns="http://www.w3.org/2000/svg" width="38" height="38" viewBox="0 0 38 38">
  <g id="_29._CRE" data-name="29. CRE" transform="translate(-1330 -711)">
    <g id="그룹_3273" data-name="그룹 3273" transform="translate(1151.186 508.665)">
      <g id="타원_68" data-name="타원 68" transform="translate(178.815 202.335)" fill="#40dba3" stroke="#555" stroke-linecap="round" stroke-linejoin="round" stroke-width="0.75">
        <circle cx="19" cy="19" r="19" stroke="none"/>
        <circle cx="19" cy="19" r="18.625" fill="none"/>
      </g>
    </g>
    <path id="패스_14665" data-name="패스 14665" d="M5.5.2a4.193,4.193,0,0,0,3.3-1.526L7.714-2.618A2.881,2.881,0,0,1,5.572-1.6c-1.638,0-2.7-1.358-2.7-3.612,0-2.226,1.176-3.57,2.744-3.57a2.672,2.672,0,0,1,1.9.868L8.61-9.226a4.226,4.226,0,0,0-3.038-1.33c-2.618,0-4.816,2-4.816,5.418C.756-1.68,2.884.2,5.5.2Zm6.342-8.918h1.344c1.33,0,2.058.378,2.058,1.5s-.728,1.666-2.058,1.666H11.844ZM17.724,0,15.3-4.242a2.966,2.966,0,0,0,1.974-2.982c0-2.38-1.722-3.136-3.892-3.136H9.772V0h2.072V-3.92h1.442L15.414,0Zm.9,0h6.51V-1.736H20.692V-4.508h3.64V-6.244h-3.64V-8.638h4.284V-10.36H18.62Z" transform="translate(1336 736)" fill="#fff"/>
  </g>
</svg>
