<svg xmlns="http://www.w3.org/2000/svg" width="37" height="34.028" viewBox="0 0 37 34.028">
  <g id="_30._결핵" data-name="30. 결핵" transform="translate(-490.057 -578.798)">
    <path id="패스_13114" data-name="패스 13114" d="M506.551,610.755,504.5,612.18a15.406,15.406,0,0,0-6.626,12.659v4.694a2.079,2.079,0,0,0,3.307,1.678L502.7,630.1a3.036,3.036,0,0,1,2.425-.52,3.805,3.805,0,0,0,4.6-3.722V612.414A2.018,2.018,0,0,0,506.551,610.755Zm2.706,12.231a2.9,2.9,0,0,1-3.5,2.831,2.31,2.31,0,0,0-1.845.4l-1.157.847a1.582,1.582,0,0,1-2.516-1.277v-3.57a11.721,11.721,0,0,1,5.041-9.631l1.563-1.084a1.536,1.536,0,0,1,2.411,1.262Z" transform="translate(-4.574 -19.318)" fill="#bc8877"/>
    <path id="패스_13115" data-name="패스 13115" d="M510.86,589.43l-.238-3.52,2.044-1.992-2.011-4.619-.278,3.962-1.829,1.97Z" transform="translate(-11.246 0)" fill="#bc8877" stroke="#555" stroke-linecap="round" stroke-linejoin="round" stroke-width="1"/>
    <path id="패스_13116" data-name="패스 13116" d="M497.866,598.661l-2.657-2.321.036-2.854-4.688-1.845,2.6,3,.1,2.686Z" transform="translate(0 -7.721)" fill="#bc8877" stroke="#555" stroke-linecap="round" stroke-linejoin="round" stroke-width="1"/>
    <path id="패스_13117" data-name="패스 13117" d="M506.551,610.755,504.5,612.18a15.405,15.405,0,0,0-6.626,12.659v4.694a2.079,2.079,0,0,0,3.307,1.678L502.7,630.1a3.036,3.036,0,0,1,2.425-.52h0a3.805,3.805,0,0,0,4.6-3.722V612.414A2.018,2.018,0,0,0,506.551,610.755Z" transform="translate(-4.574 -19.318)" fill="none" stroke="#555" stroke-linecap="round" stroke-linejoin="round" stroke-width="1"/>
    <path id="패스_13118" data-name="패스 13118" d="M558.109,610.755l2.055,1.425a15.407,15.407,0,0,1,6.626,12.659v4.694a2.079,2.079,0,0,1-3.307,1.678l-1.522-1.114a3.035,3.035,0,0,0-2.424-.52h0a3.805,3.805,0,0,1-4.6-3.722V612.414A2.018,2.018,0,0,1,558.109,610.755Z" transform="translate(-40.233 -19.318)" fill="none" stroke="#555" stroke-linecap="round" stroke-linejoin="round" stroke-width="1"/>
    <path id="패스_13119" data-name="패스 13119" d="M549.178,605.441,546,603.247V591.884" transform="translate(-34.658 -7.873)" fill="none" stroke="#555" stroke-linecap="round" stroke-linejoin="round" stroke-width="1"/>
    <path id="패스_13120" data-name="패스 13120" d="M529.745,632.611l4.59-3.072,4.631,3.113" transform="translate(-24.491 -31.344)" fill="none" stroke="#555" stroke-linecap="round" stroke-linejoin="round" stroke-width="1"/>
    <path id="패스_13121" data-name="패스 13121" d="M533.1,591.884v11.362l-2.938,2.2" transform="translate(-24.753 -7.873)" fill="none" stroke="#555" stroke-linecap="round" stroke-linejoin="round" stroke-width="1"/>
  </g>
</svg>
