<svg xmlns="http://www.w3.org/2000/svg" width="44" height="44" viewBox="0 0 44 44">
  <g id="_31._옴" data-name="31. 옴" transform="translate(2.079 2.08)">
    <g id="그룹_3266" data-name="그룹 3266" transform="translate(0 0)">
      <g id="그룹_3264" data-name="그룹 3264" transform="translate(6.86 5.222)">
        <g id="그룹_3262" data-name="그룹 3262" transform="translate(0 1.474)">
          <g id="그룹_3257" data-name="그룹 3257" transform="translate(3.994)">
            <g id="그룹_3256" data-name="그룹 3256" transform="translate(0 3.721)">
              <g id="그룹_3255" data-name="그룹 3255">
                <path id="패스_13165" data-name="패스 13165" d="M791.433,636.892a9.156,9.156,0,0,1-9.146-9.147v-3.308a9.147,9.147,0,1,1,18.294,0v3.308A9.157,9.157,0,0,1,791.433,636.892Zm0-20.055a7.609,7.609,0,0,0-7.6,7.6v3.308a7.6,7.6,0,1,0,15.2,0v-3.308A7.609,7.609,0,0,0,791.433,616.837Z" transform="translate(-782.287 -615.29)" fill="#777"/>
                <path id="패스_13166" data-name="패스 13166" d="M791.645,626.876a13.046,13.046,0,0,1-7.947-2.546.773.773,0,1,1,.947-1.222,12.047,12.047,0,0,0,14,0,.773.773,0,0,1,.946,1.222A13.041,13.041,0,0,1,791.645,626.876Z" transform="translate(-782.498 -616.743)" fill="#777"/>
              </g>
              <path id="패스_13167" data-name="패스 13167" d="M793.4,638.513a.774.774,0,0,1-.773-.774V626.782a.773.773,0,1,1,1.546,0v10.957A.773.773,0,0,1,793.4,638.513Z" transform="translate(-784.249 -617.324)" fill="#777"/>
            </g>
            <path id="패스_13168" data-name="패스 13168" d="M796.9,616.817a.773.773,0,0,1-.773-.773,3.8,3.8,0,0,0-7.6,0,.773.773,0,0,1-1.546,0,5.348,5.348,0,0,1,10.7,0A.773.773,0,0,1,796.9,616.817Z" transform="translate(-783.177 -610.697)" fill="#777"/>
          </g>
          <g id="그룹_3261" data-name="그룹 3261" transform="translate(0 6.822)">
            <g id="그룹_3258" data-name="그룹 3258" transform="translate(0 6.824)">
              <path id="패스_13169" data-name="패스 13169" d="M781.7,629.087h-3.567a.773.773,0,1,1,0-1.546H781.7a.773.773,0,1,1,0,1.546Z" transform="translate(-777.357 -627.54)" fill="#777"/>
              <path id="패스_13170" data-name="패스 13170" d="M807.824,629.087h-3.567a.773.773,0,0,1,0-1.546h3.567a.773.773,0,0,1,0,1.546Z" transform="translate(-782.317 -627.54)" fill="#777"/>
            </g>
            <g id="그룹_3259" data-name="그룹 3259" transform="translate(0.311)">
              <path id="패스_13171" data-name="패스 13171" d="M782.08,624.309a.761.761,0,0,1-.363-.091l-2.326-1.241a.769.769,0,0,1-.323-.328l-1.241-2.4a.773.773,0,1,1,1.374-.709l1.129,2.189,2.114,1.128a.773.773,0,0,1-.364,1.455Z" transform="translate(-777.74 -619.117)" fill="#777"/>
              <path id="패스_13172" data-name="패스 13172" d="M803.876,624.309a.773.773,0,0,1-.365-1.455l2.113-1.128,1.13-2.189a.773.773,0,1,1,1.374.709l-1.24,2.4a.77.77,0,0,1-.323.328l-2.326,1.241A.762.762,0,0,1,803.876,624.309Z" transform="translate(-782.555 -619.117)" fill="#777"/>
            </g>
            <g id="그룹_3260" data-name="그룹 3260" transform="translate(0.311 10.002)">
              <path id="패스_13173" data-name="패스 13173" d="M807.442,636.654a.773.773,0,0,1-.688-.418l-1.13-2.19-2.113-1.128a.773.773,0,0,1,.728-1.364l2.326,1.241a.774.774,0,0,1,.323.327l1.24,2.4a.773.773,0,0,1-.686,1.127Z" transform="translate(-782.555 -631.462)" fill="#777"/>
              <path id="패스_13174" data-name="패스 13174" d="M778.513,636.654a.772.772,0,0,1-.686-1.127l1.241-2.4a.773.773,0,0,1,.323-.327l2.326-1.241a.773.773,0,1,1,.728,1.364l-2.114,1.128-1.129,2.19A.775.775,0,0,1,778.513,636.654Z" transform="translate(-777.74 -631.462)" fill="#777"/>
            </g>
          </g>
        </g>
        <g id="그룹_3263" data-name="그룹 3263" transform="translate(9.072)">
          <path id="패스_13175" data-name="패스 13175" d="M790.026,612.6a.774.774,0,0,1-.736-.537l-.7-2.17a.774.774,0,1,1,1.473-.473l.7,2.171a.773.773,0,0,1-.736,1.01Z" transform="translate(-788.554 -608.878)" fill="#777"/>
          <path id="패스_13176" data-name="패스 13176" d="M796.6,612.6a.783.783,0,0,1-.237-.037.774.774,0,0,1-.5-.973l.7-2.171a.773.773,0,1,1,1.472.473l-.7,2.17A.773.773,0,0,1,796.6,612.6Z" transform="translate(-789.935 -608.878)" fill="#777"/>
        </g>
      </g>
      <g id="그룹_3265" data-name="그룹 3265" transform="translate(-2.079 -2.08)">
        <path id="패스_13177" data-name="패스 13177" d="M790.951,646.432a22,22,0,1,1,22-22A22.025,22.025,0,0,1,790.951,646.432Zm0-42.3a20.3,20.3,0,1,0,20.3,20.3A20.319,20.319,0,0,0,790.951,604.137Z" transform="translate(-768.951 -602.432)" fill="#dc3545"/>
        <path id="패스_13178" data-name="패스 13178" d="M777.43,640.454a.854.854,0,0,1-.6-1.457l28.689-28.69a.853.853,0,0,1,1.207,1.206L778.033,640.2A.85.85,0,0,1,777.43,640.454Z" transform="translate(-769.774 -603.255)" fill="#dc3545"/>
      </g>
    </g>
  </g>
</svg>
