<svg xmlns="http://www.w3.org/2000/svg" width="44.079" height="50.159" viewBox="0 0 44.079 50.159">
  <g id="_34._없음" data-name="34. 없음" transform="translate(-15.261 -242.231)">
    <g id="그룹_3269" data-name="그룹 3269" transform="translate(15.813 242.813)">
      <path id="패스_13179" data-name="패스 13179" d="M29.631,249.8a20.973,20.973,0,0,0-7.686,8.633c-2.416,4.963-2.477,10.424-1.453,15.736.536,2.784,1.775,6.87,5.1,7.438a4.046,4.046,0,0,0,.725.057c2.974-.029,5.185-3.351,4.88-6.409-.279-2.8-1.245-5.434-1.244-8.288a11.474,11.474,0,0,1,3.259-8.182c1.718-1.734,3.953-2.884,5.734-4.553,1.354-1.269,3.609-4.78,1.138-6.158a3.951,3.951,0,0,0-1.486-.4A14.042,14.042,0,0,0,29.631,249.8Z" transform="translate(-16.156 -243.217)" fill="none" stroke="#555" stroke-linecap="round" stroke-linejoin="round" stroke-width="1"/>
      <line id="선_380" data-name="선 380" x1="0.801" y1="4.368" transform="translate(18.703)" fill="none" stroke="#555" stroke-linecap="round" stroke-linejoin="round" stroke-width="1"/>
      <line id="선_381" data-name="선 381" x1="1.966" y1="3.661" transform="translate(14.371 1.544)" fill="none" stroke="#555" stroke-linecap="round" stroke-linejoin="round" stroke-width="1"/>
      <line id="선_382" data-name="선 382" x1="2.782" y1="3.709" transform="translate(9.952 3.375)" fill="none" stroke="#555" stroke-linecap="round" stroke-linejoin="round" stroke-width="1"/>
      <line id="선_383" data-name="선 383" x1="3.378" y1="3.02" transform="translate(5.971 6.77)" fill="none" stroke="#555" stroke-linecap="round" stroke-linejoin="round" stroke-width="1"/>
      <line id="선_384" data-name="선 384" x1="3.669" y1="1.633" transform="translate(3.708 10.838)" fill="none" stroke="#555" stroke-linecap="round" stroke-linejoin="round" stroke-width="1"/>
      <line id="선_385" data-name="선 385" x1="4.17" y1="0.851" transform="translate(1.373 14.64)" fill="none" stroke="#555" stroke-linecap="round" stroke-linejoin="round" stroke-width="1"/>
      <line id="선_386" data-name="선 386" x1="3.603" y1="0.659" transform="translate(0.744 18.566)" fill="none" stroke="#555" stroke-linecap="round" stroke-linejoin="round" stroke-width="1"/>
      <line id="선_387" data-name="선 387" x1="3.733" y1="0.411" transform="translate(0 23.239)" fill="none" stroke="#555" stroke-linecap="round" stroke-linejoin="round" stroke-width="1"/>
      <line id="선_388" data-name="선 388" x1="3.733" transform="translate(0 28.267)" fill="none" stroke="#555" stroke-linecap="round" stroke-linejoin="round" stroke-width="1"/>
      <line id="선_389" data-name="선 389" x1="3.74" y2="1.967" transform="translate(0.744 31.663)" fill="none" stroke="#555" stroke-linecap="round" stroke-linejoin="round" stroke-width="1"/>
      <line id="선_390" data-name="선 390" x1="2.649" y2="3.233" transform="translate(3.146 35.381)" fill="none" stroke="#555" stroke-linecap="round" stroke-linejoin="round" stroke-width="1"/>
      <line id="선_391" data-name="선 391" x1="0.954" y2="3.779" transform="translate(7.95 38.258)" fill="none" stroke="#555" stroke-linecap="round" stroke-linejoin="round" stroke-width="1"/>
      <line id="선_392" data-name="선 392" x2="2.074" y2="3.33" transform="translate(12.489 37.808)" fill="none" stroke="#555" stroke-linecap="round" stroke-linejoin="round" stroke-width="1"/>
      <line id="선_393" data-name="선 393" x2="3.875" y2="1.387" transform="translate(15.071 33.532)" fill="none" stroke="#555" stroke-linecap="round" stroke-linejoin="round" stroke-width="1"/>
      <line id="선_394" data-name="선 394" y1="0.655" x2="4.402" transform="translate(14.773 29.552)" fill="none" stroke="#555" stroke-linecap="round" stroke-linejoin="round" stroke-width="1"/>
      <line id="선_395" data-name="선 395" y1="0.744" x2="4.307" transform="translate(14.025 25.595)" fill="none" stroke="#555" stroke-linecap="round" stroke-linejoin="round" stroke-width="1"/>
      <line id="선_396" data-name="선 396" x2="3.713" y2="1.005" transform="translate(13.932 21.903)" fill="none" stroke="#555" stroke-linecap="round" stroke-linejoin="round" stroke-width="1"/>
      <line id="선_397" data-name="선 397" x2="3.249" y2="1.939" transform="translate(15.283 17.897)" fill="none" stroke="#555" stroke-linecap="round" stroke-linejoin="round" stroke-width="1"/>
      <line id="선_398" data-name="선 398" x2="2.404" y2="3.067" transform="translate(18.001 14.676)" fill="none" stroke="#555" stroke-linecap="round" stroke-linejoin="round" stroke-width="1"/>
      <line id="선_399" data-name="선 399" x2="1.512" y2="3.861" transform="translate(21.209 12.286)" fill="none" stroke="#555" stroke-linecap="round" stroke-linejoin="round" stroke-width="1"/>
      <line id="선_400" data-name="선 400" x2="2.515" y2="2.346" transform="translate(23.766 9.851)" fill="none" stroke="#555" stroke-linecap="round" stroke-linejoin="round" stroke-width="1"/>
      <line id="선_401" data-name="선 401" y1="0.141" x2="3.326" transform="translate(24.972 7.221)" fill="none" stroke="#555" stroke-linecap="round" stroke-linejoin="round" stroke-width="1"/>
      <line id="선_402" data-name="선 402" y1="3.221" x2="2.287" transform="translate(24.348 1.93)" fill="none" stroke="#555" stroke-linecap="round" stroke-linejoin="round" stroke-width="1"/>
      <line id="선_403" data-name="선 403" y1="3.816" x2="0.589" transform="translate(22.233 0.615)" fill="none" stroke="#555" stroke-linecap="round" stroke-linejoin="round" stroke-width="1"/>
      <path id="패스_13180" data-name="패스 13180" d="M37.842,250.553s-17.949,6.6-10.589,27.774" transform="translate(-16.633 -243.469)" fill="none" stroke="#555" stroke-linecap="round" stroke-linejoin="round" stroke-width="1" stroke-dasharray="3"/>
    </g>
    <g id="그룹_3270" data-name="그룹 3270" transform="translate(38.601 263.528)">
      <path id="패스_13181" data-name="패스 13181" d="M57.909,286.013a13.969,13.969,0,0,0-.484-7.669,16.67,16.67,0,0,0-6.75-8.108c-1.565-1.063-4.072-2.413-5.9-1.127a2.641,2.641,0,0,0-.366.311c-1.376,1.4-.841,4.007.745,5.307,1.452,1.192,3.147,1.984,4.494,3.332a7.7,7.7,0,0,1,2.34,5.386c.016,1.622-.487,3.209-.531,4.83-.034,1.232.57,3.943,2.375,3.438a2.6,2.6,0,0,0,.885-.505A9.216,9.216,0,0,0,57.909,286.013Z" transform="translate(-41.098 -266.062)" fill="none" stroke="#555" stroke-linecap="round" stroke-linejoin="round" stroke-width="1"/>
      <line id="선_404" data-name="선 404" x2="2.416" y2="1.667" transform="translate(15.038 23.812)" fill="none" stroke="#555" stroke-linecap="round" stroke-linejoin="round" stroke-width="1"/>
      <line id="선_405" data-name="선 405" x2="2.629" y2="0.792" transform="translate(16.126 21.941)" fill="none" stroke="#555" stroke-linecap="round" stroke-linejoin="round" stroke-width="1"/>
      <line id="선_406" data-name="선 406" x2="3.033" y2="0.433" transform="translate(16.932 19.379)" fill="none" stroke="#555" stroke-linecap="round" stroke-linejoin="round" stroke-width="1"/>
      <line id="선_407" data-name="선 407" y1="0.167" x2="2.99" transform="translate(17.222 16.337)" fill="none" stroke="#555" stroke-linecap="round" stroke-linejoin="round" stroke-width="1"/>
      <line id="선_408" data-name="선 408" y1="0.952" x2="2.478" transform="translate(16.874 13.362)" fill="none" stroke="#555" stroke-linecap="round" stroke-linejoin="round" stroke-width="1"/>
      <line id="선_409" data-name="선 409" y1="1.551" x2="2.347" transform="translate(16.306 10.48)" fill="none" stroke="#555" stroke-linecap="round" stroke-linejoin="round" stroke-width="1"/>
      <line id="선_410" data-name="선 410" y1="1.376" x2="1.992" transform="translate(15.105 8.337)" fill="none" stroke="#555" stroke-linecap="round" stroke-linejoin="round" stroke-width="1"/>
      <line id="선_411" data-name="선 411" y1="1.553" x2="1.937" transform="translate(13.306 5.787)" fill="none" stroke="#555" stroke-linecap="round" stroke-linejoin="round" stroke-width="1"/>
      <line id="선_412" data-name="선 412" y1="1.745" x2="1.745" transform="translate(11.13 3.419)" fill="none" stroke="#555" stroke-linecap="round" stroke-linejoin="round" stroke-width="1"/>
      <line id="선_413" data-name="선 413" y1="2.667" x2="0.829" transform="translate(9.173 1.241)" fill="none" stroke="#555" stroke-linecap="round" stroke-linejoin="round" stroke-width="1"/>
      <line id="선_414" data-name="선 414" x1="0.273" y1="2.749" transform="translate(6.515 0)" fill="none" stroke="#555" stroke-linecap="round" stroke-linejoin="round" stroke-width="1"/>
      <line id="선_415" data-name="선 415" x1="1.32" y1="2.212" transform="translate(2.671 0.646)" fill="none" stroke="#555" stroke-linecap="round" stroke-linejoin="round" stroke-width="1"/>
      <line id="선_416" data-name="선 416" x1="2.526" y1="0.587" transform="translate(0 4.157)" fill="none" stroke="#555" stroke-linecap="round" stroke-linejoin="round" stroke-width="1"/>
      <line id="선_417" data-name="선 417" x1="2.459" y2="1.163" transform="translate(0.886 7.977)" fill="none" stroke="#555" stroke-linecap="round" stroke-linejoin="round" stroke-width="1"/>
      <line id="선_418" data-name="선 418" x1="1.751" y2="2.363" transform="translate(3.306 9.41)" fill="none" stroke="#555" stroke-linecap="round" stroke-linejoin="round" stroke-width="1"/>
      <line id="선_419" data-name="선 419" x1="1.665" y2="2.361" transform="translate(5.564 10.883)" fill="none" stroke="#555" stroke-linecap="round" stroke-linejoin="round" stroke-width="1"/>
      <line id="선_420" data-name="선 420" x1="2.205" y2="1.265" transform="translate(7.155 12.927)" fill="none" stroke="#555" stroke-linecap="round" stroke-linejoin="round" stroke-width="1"/>
      <line id="선_421" data-name="선 421" x1="2.425" y2="0.612" transform="translate(8.19 15.444)" fill="none" stroke="#555" stroke-linecap="round" stroke-linejoin="round" stroke-width="1"/>
      <line id="선_422" data-name="선 422" x1="2.557" y1="0.31" transform="translate(8.304 17.921)" fill="none" stroke="#555" stroke-linecap="round" stroke-linejoin="round" stroke-width="1"/>
      <line id="선_423" data-name="선 423" x1="2.511" y1="1.098" transform="translate(7.977 19.759)" fill="none" stroke="#555" stroke-linecap="round" stroke-linejoin="round" stroke-width="1"/>
      <line id="선_424" data-name="선 424" x1="2.272" y2="0.079" transform="translate(8.171 23.202)" fill="none" stroke="#555" stroke-linecap="round" stroke-linejoin="round" stroke-width="1"/>
      <line id="선_425" data-name="선 425" x1="1.489" y2="1.621" transform="translate(9.594 24.968)" fill="none" stroke="#555" stroke-linecap="round" stroke-linejoin="round" stroke-width="1"/>
      <line id="선_426" data-name="선 426" x2="0.437" y2="2.574" transform="translate(12.407 25.71)" fill="none" stroke="#555" stroke-linecap="round" stroke-linejoin="round" stroke-width="1"/>
      <line id="선_427" data-name="선 427" x2="1.508" y2="2.058" transform="translate(13.733 25.058)" fill="none" stroke="#555" stroke-linecap="round" stroke-linejoin="round" stroke-width="1"/>
      <path id="패스_13182" data-name="패스 13182" d="M54.278,289.654s5.266-11.511-8.194-18.091" transform="translate(-41.306 -266.315)" fill="none" stroke="#555" stroke-linecap="round" stroke-linejoin="round" stroke-width="1" stroke-dasharray="3"/>
    </g>
  </g>
</svg>
