<svg xmlns="http://www.w3.org/2000/svg" width="62" height="62" viewBox="0 0 62 62">
    <defs>
        <clipPath id="nbvr8g5dra">
            <path data-name="사각형 10882" style="fill:#fff" d="M0 0h41v41H0z"/>
        </clipPath>
        <clipPath id="l5il46bn0b">
            <path data-name="사각형 10881" transform="translate(-.089)" style="stroke:#333;fill:#fff" d="M0 0h41v40H0z"/>
        </clipPath>
    </defs>
    <g data-name="그룹 33663" transform="translate(-258 -877)">
        <circle data-name="타원 1323" cx="31" cy="31" r="31" transform="translate(258 877)" style="fill:#f6f6f6"/>
        <g data-name="그룹 33662">
            <g data-name="그룹 33649">
                <g data-name="마스크 그룹 318" transform="translate(268 887)" style="clip-path:url(#nbvr8g5dra)">
                    <g data-name="그룹 33643">
                        <g data-name="그룹 33642" transform="translate(4.545 4.026)" style="clip-path:url(#l5il46bn0b)">
                            <rect data-name="사각형 10876" width="6.584" height="6.132" rx="1" transform="translate(0 26.861)" style="fill:none;stroke-linecap:round;stroke:#333"/>
                            <rect data-name="사각형 10877" width="6.584" height="10.822" rx="1" transform="translate(8.878 22.171)" style="fill:none;stroke-linecap:round;stroke:#333"/>
                            <rect data-name="사각형 10878" width="6.584" height="17.209" rx="1" transform="translate(17.756 15.784)" style="fill:none;stroke-linecap:round;stroke:#333"/>
                            <rect data-name="사각형 10890" width="6.584" height="23.673" rx="1" transform="translate(26.635 9.319)" style="fill:none;stroke-linecap:round;stroke:#333"/>
                            <path data-name="선 1064" transform="translate(29.927 .588)" style="stroke-linejoin:round;fill:none;stroke-linecap:round;stroke:#333" d="M0 5.065V0"/>
                            <path data-name="패스 54513" d="m-181.611 142.714 1.9-1.9 1.9 1.9" transform="translate(209.639 -140.815)" style="stroke-linejoin:round;fill:none;stroke-linecap:round;stroke:#333"/>
                            <g data-name="그룹 33641" style="isolation:isolate;mix-blend-mode:darken">
                                <g data-name="그룹 33640" transform="translate(28.027 10.335)">
                                    <rect data-name="사각형 10880" width="6.578" height="23.673" rx="1" style="fill:#a48379"/>
                                </g>
                            </g>
                        </g>
                    </g>
                </g>
                <g data-name="그룹 33647">
                    <g data-name="패스 54516" style="stroke-linejoin:bevel;fill:none;stroke-linecap:round">
                        <path d="M13.568-4.694 12.481-.453A1.452 1.452 0 0 1 10.928.634 1.436 1.436 0 0 1 9.375-.438l-.886-4.256h-1.3L6.315-.438A1.409 1.409 0 0 1 4.762.634 1.452 1.452 0 0 1 3.208-.453l-1.1-4.24H1.08a.842.842 0 0 1-.644-.257.969.969 0 0 1-.236-.691.975.975 0 0 1 .241-.683.83.83 0 0 1 .645-.264h.528l-.9-3.464a1.017 1.017 0 0 1 .124-.777.994.994 0 0 1 .761-.435 1.679 1.679 0 0 1 .916.085.846.846 0 0 1 .466.691l.839 3.9h1.873l.807-3.728A1.268 1.268 0 0 1 6.952-11a1.427 1.427 0 0 1 .885-.249 1.427 1.427 0 0 1 .885.249 1.268 1.268 0 0 1 .45.683l.808 3.728h1.88l.84-3.911a.85.85 0 0 1 .458-.691 1.52 1.52 0 0 1 .893-.07 1.131 1.131 0 0 1 .792.45.971.971 0 0 1 .124.761l-.9 3.464h.528a.83.83 0 0 1 .645.264.975.975 0 0 1 .241.683.975.975 0 0 1-.241.683.83.83 0 0 1-.645.264zM4.762-2.255l.528-2.439H4.233zm6.166 0 .513-2.439H10.4zm-3.34-4.334h.5L7.837-7.8z" style="stroke:none" transform="translate(271.89 905.577)"/>
                        <path d="M10.928.634c.818 0 1.336-.362 1.553-1.087l1.087-4.24h1.026c.269 0 .484-.089.644-.265.16-.176.24-.404.24-.683 0-.28-.08-.508-.24-.684-.16-.176-.375-.264-.644-.264h-.529l.901-3.463a.971.971 0 0 0-.124-.761c-.145-.228-.409-.378-.792-.45-.352-.063-.65-.04-.893.07-.244.108-.396.338-.458.69l-.84 3.914H9.98l-.807-3.727a1.268 1.268 0 0 0-.45-.684c-.218-.165-.513-.248-.886-.248s-.668.083-.885.248a1.268 1.268 0 0 0-.45.684L5.692-6.59H3.814l-.839-3.898c-.062-.352-.217-.583-.466-.691-.248-.11-.554-.138-.916-.086-.363.052-.616.197-.761.435a1.017 1.017 0 0 0-.124.777l.9 3.463H1.08c-.269 0-.484.088-.644.264-.16.176-.241.404-.241.684 0 .29.08.52.24.691.161.17.376.256.645.256h1.025l1.103 4.24C3.426.273 3.943.635 4.762.635c.849 0 1.366-.357 1.553-1.072l.87-4.256h1.304l.886 4.256c.207.715.724 1.072 1.553 1.072M10.4-4.694h1.04l-.512 2.439-.528-2.439m-6.167 0H5.29l-.528 2.439-.529-2.439M7.837-7.8l.248 1.211h-.497L7.837-7.8m3.09 9.434c-1.266 0-2.182-.654-2.513-1.793l-.018-.075-.556-2.672-.558 2.72c-.301 1.157-1.22 1.82-2.52 1.82-1.253 0-2.168-.656-2.512-1.8l-.01-.036-.908-3.492H1.08c-.547 0-1.022-.197-1.373-.571-.234-.249-.512-.69-.512-1.376 0-.528.174-.997.502-1.357.185-.204.405-.356.653-.456l-.619-2.381a2.016 2.016 0 0 1 .247-1.514c.21-.347.638-.785 1.474-.905.548-.078 1.039-.024 1.458.16.32.14.88.509 1.046 1.413l.666 3.092h.265l.653-3.002c.143-.5.414-.906.806-1.204.394-.3.896-.453 1.49-.453.596 0 1.098.152 1.492.453.392.298.663.703.806 1.204l.016.063.637 2.94h.264l.666-3.108c.166-.9.717-1.27 1.032-1.41.426-.191.924-.24 1.475-.143l.012.003c.663.125 1.151.427 1.45.896.287.452.376.976.256 1.515l-.008.034-.61 2.347c.247.1.468.252.653.456.328.36.502.83.502 1.357 0 .528-.174.997-.502 1.357-.352.386-.83.59-1.383.59h-.25L13.44-.166c-.343 1.144-1.258 1.8-2.511 1.8z" style="fill:#333;stroke:none" transform="translate(271.89 905.577)"/>
                    </g>
                    <g data-name="그룹 33645">
                        <path data-name="패스 54515" d="M2.069-4.4 3.136.021A1.435 1.435 0 0 0 4.66 1.156 1.418 1.418 0 0 0 6.184.037L7.052-4.4h1.28L9.186.037a1.392 1.392 0 0 0 1.524 1.119A1.435 1.435 0 0 0 12.233.021L13.315-4.4h1.006a.8.8 0 0 0 .632-.267 1.051 1.051 0 0 0 .236-.721 1.058 1.058 0 0 0-.236-.713.791.791 0 0 0-.632-.276H13.8L14.687-10a1.119 1.119 0 0 0-.122-.811.967.967 0 0 0-.747-.454 1.555 1.555 0 0 0-.9.089.884.884 0 0 0-.457.721l-.823 4.069H9.8L9-10.273a1.332 1.332 0 0 0-.442-.713 1.34 1.34 0 0 0-.869-.259 1.34 1.34 0 0 0-.869.259 1.332 1.332 0 0 0-.442.713l-.789 3.89H3.746l-.823-4.085a.889.889 0 0 0-.45-.721 1.408 1.408 0 0 0-.876-.073 1.1 1.1 0 0 0-.777.47A1.069 1.069 0 0 0 .7-10l.884 3.615h-.52a.791.791 0 0 0-.632.276 1.058 1.058 0 0 0-.236.713 1.058 1.058 0 0 0 .236.713.791.791 0 0 0 .632.276zm8.64 2.545L10.191-4.4h1.036zm-6.05 0L4.157-4.4h1.021zm3.277-4.528h-.488l.244-1.265z" transform="translate(273.366 906.133)" style="stroke:#a48379;mix-blend-mode:multiply;fill:#a48379;isolation:isolate"/>
                    </g>
                </g>
            </g>
        </g>
    </g>
</svg>
