<svg xmlns="http://www.w3.org/2000/svg" width="15" height="26" viewBox="0 0 15 26">
    <g transform="translate(-.4)">
        <path data-name="사각형 10579" transform="translate(.4)" style="fill:none" d="M0 0h15v26H0z"/>
        <path data-name="패스 53863" d="M1800.813 646.84v4.223a5.695 5.695 0 1 0 2.464 0v-4.223l1.852 1.842 1.742-1.733-3.955-3.933a1.237 1.237 0 0 0-1.742 0l-3.954 3.933 1.742 1.733zm4.463 9.75a3.231 3.231 0 1 1-3.231-3.213 3.226 3.226 0 0 1 3.231 3.213z" transform="translate(-1794.164 -638.855)" style="fill:#fff"/>
        <path data-name="패스 53863 - 윤곽선" d="M1801.9 642.157a1.6 1.6 0 0 1 1.12.462l3.955 3.933a.354.354 0 0 1 0 .5l-1.742 1.733a.354.354 0 0 1-.5 0l-1.248-1.241v3.094a6.093 6.093 0 0 1 3.108 2.014 6.049 6.049 0 1 1-9.386 0 6.092 6.092 0 0 1 3.107-2.014v-3.094l-1.247 1.241a.354.354 0 0 1-.5 0l-1.742-1.733a.354.354 0 0 1 0-.5l3.954-3.933a1.605 1.605 0 0 1 1.121-.462zm4.324 4.646-3.7-3.682a.883.883 0 0 0-1.243 0l-3.7 3.682 1.24 1.233 1.6-1.593a.354.354 0 0 1 .6.251v4.223a.354.354 0 0 1-.278.346 5.341 5.341 0 1 0 2.311 0 .354.354 0 0 1-.278-.346v-4.223a.354.354 0 0 1 .6-.251l1.6 1.594zm-4.324 6.073a3.567 3.567 0 1 1-3.585 3.567 3.58 3.58 0 0 1 3.585-3.566zm0 6.426a2.859 2.859 0 1 0-2.876-2.859 2.871 2.871 0 0 0 2.876 2.857z" transform="translate(-1794.018 -638.709)" style="fill:#333"/>
        <circle data-name="타원 1314" cx="3.334" cy="3.334" r="3.334" transform="translate(5.578 15.12)" style="fill:#ece4da;mix-blend-mode:multiply;isolation:isolate"/>
    </g>
</svg>
