<svg xmlns="http://www.w3.org/2000/svg" width="15" height="26" viewBox="0 0 15 26">
    <g transform="translate(-.2)">
        <path data-name="사각형 10579" transform="translate(.2)" style="fill:none" d="M0 0h15v26H0z"/>
        <path data-name="패스 53862" d="M1788.7 653.845a5.694 5.694 0 1 0-2.464 0v2.076h-2.925v2.45h2.925v3.266h2.464v-3.266h2.926v-2.45h-2.926zm-4.462-5.526a3.231 3.231 0 1 1 3.231 3.213 3.226 3.226 0 0 1-3.229-3.212z" transform="translate(-1779.769 -638.855)" style="fill:#fff"/>
        <path data-name="패스 53862 - 윤곽선" d="M1788.556 661.846h-2.464a.354.354 0 0 1-.354-.354v-2.912h-2.571a.354.354 0 0 1-.354-.354v-2.45a.354.354 0 0 1 .354-.354h2.571v-1.444a6.093 6.093 0 0 1-3.107-2.014 6.049 6.049 0 1 1 9.386 0 6.093 6.093 0 0 1-3.107 2.013v1.444h2.572a.354.354 0 0 1 .354.354v2.45a.354.354 0 0 1-.354.354h-2.572v2.912a.354.354 0 0 1-.354.355zm-2.11-.708h1.756v-2.912a.354.354 0 0 1 .354-.354h2.572v-1.742h-2.572a.354.354 0 0 1-.354-.354V653.7a.354.354 0 0 1 .278-.346 5.34 5.34 0 1 0-2.311 0 .354.354 0 0 1 .278.346v2.076a.354.354 0 0 1-.354.354h-2.571v1.742h2.571a.354.354 0 0 1 .354.354zm.878-9.4a3.567 3.567 0 1 1 3.585-3.567 3.58 3.58 0 0 1-3.585 3.569zm0-6.425a2.859 2.859 0 1 0 2.877 2.859 2.871 2.871 0 0 0-2.877-2.857z" transform="translate(-1779.623 -638.709)" style="fill:#333"/>
        <circle data-name="타원 1313" cx="3.334" cy="3.334" r="3.334" transform="translate(5.855 6.624)" style="fill:#a48379;mix-blend-mode:multiply;isolation:isolate"/>
    </g>
</svg>
