<svg xmlns="http://www.w3.org/2000/svg" xmlns:xlink="http://www.w3.org/1999/xlink" width="108" height="108" viewBox="0 0 108 108">
  <defs>
    <clipPath id="clip-path">
      <circle id="타원_376" data-name="타원 376" cx="54" cy="54" r="54" transform="translate(2611 1525)" fill="#f1f1f1"/>
    </clipPath>
  </defs>
  <g id="man_01" transform="translate(-2611 -1525)" clip-path="url(#clip-path)">
    <circle id="타원_594" data-name="타원 594" cx="54" cy="54" r="54" transform="translate(2611 1525)" fill="#f1f1f1" />
    <g id="그룹_2986" data-name="그룹 2986" transform="translate(2552.93 1231.625)">
      <path id="사각형_1275" data-name="사각형 1275" d="M19.546,0h31.58A19.546,19.546,0,0,1,70.672,19.546V32.928a0,0,0,0,1,0,0H0a0,0,0,0,1,0,0V19.546A19.546,19.546,0,0,1,19.546,0Z" transform="translate(77.07 369.966)" fill="#e4ebf0" stroke="#333" stroke-linecap="round" stroke-linejoin="round" stroke-width="1.5"/>
      <path id="패스_4712" data-name="패스 4712" d="M137.5,381.282v32.434H91.89V381.282a16.323,16.323,0,0,1,3.99-.49h7.957l10.86,23.265,10.842-23.265H133.5A16.443,16.443,0,0,1,137.5,381.282Z" transform="translate(-2.293 -10.824)" fill="#bc8877" stroke="#333" stroke-linecap="round" stroke-linejoin="round" stroke-width="1.5"/>
      <rect id="사각형_1276" data-name="사각형 1276" width="11.963" height="3.463" transform="translate(120.363 384.367)" fill="#9e6a5c" stroke="#333" stroke-linecap="round" stroke-linejoin="round" stroke-width="1.5"/>
      <path id="패스_4713" data-name="패스 4713" d="M123.811,379.334l-6.042,5.4-6.046-5.4V371.38h12.088Z" transform="translate(-5.361 -9.226)" fill="#ffcdbb" stroke="#333" stroke-miterlimit="10" stroke-width="1.5"/>
      <path id="패스_4714" data-name="패스 4714" d="M132.43,339.574v9.594a16.6,16.6,0,0,1-33.195,0v-9.594a15.436,15.436,0,0,1,.135-2.079,16.6,16.6,0,0,1,33.06,2.079Z" transform="translate(-3.429 -1.486)" fill="#ffcdbb" stroke="#333" stroke-miterlimit="10" stroke-width="1.5"/>
      <ellipse id="타원_313" data-name="타원 313" cx="3.706" cy="1.864" rx="3.706" ry="1.864" transform="translate(98.959 345.016)" fill="#f2a59e"/>
      <ellipse id="타원_314" data-name="타원 314" cx="3.706" cy="1.864" rx="3.706" ry="1.864" transform="translate(118.442 345.016)" fill="#f2a59e"/>
      <rect id="사각형_1277" data-name="사각형 1277" width="4.362" height="1.334" transform="translate(105.127 338.291)" fill="#333"/>
      <rect id="사각형_1278" data-name="사각형 1278" width="4.362" height="1.334" transform="translate(119.686 339.626) rotate(-180)" fill="#333"/>
      <path id="패스_4715" data-name="패스 4715" d="M126.137,326.723a16.5,16.5,0,0,1,3.166,9.722v9.59a16.6,16.6,0,0,1-16.6,16.6h0a16.5,16.5,0,0,1-9.722-3.166,16.583,16.583,0,0,0,30.027-9.722v-9.59A16.557,16.557,0,0,0,126.137,326.723Z" transform="translate(-4.009 -2.065)" fill="#ffbfae" style="mix-blend-mode: darken;isolation: isolate"/>
      <path id="패스_4716" data-name="패스 4716" d="M98.37,343.641v9.721H96.477a2.83,2.83,0,0,1-2.832-2.823v-4.074a2.82,2.82,0,0,1,2.189-2.747,2.672,2.672,0,0,1,.642-.076Z" transform="translate(-2.564 -4.808)" fill="#ffcdbb" stroke="#333" stroke-miterlimit="10" stroke-width="1.5"/>
      <path id="사각형_1279" data-name="사각형 1279" d="M3.344,0H4.727a0,0,0,0,1,0,0V9.724a0,0,0,0,1,0,0H3.344A3.344,3.344,0,0,1,0,6.381V3.344A3.344,3.344,0,0,1,3.344,0Z" transform="translate(133.729 348.554) rotate(-180)" fill="#ffcdbb" stroke="#333" stroke-miterlimit="10" stroke-width="1.5"/>
      <path id="패스_4717" data-name="패스 4717" d="M122.7,357.914h0a2.253,2.253,0,0,1-2.254,2.253h-4.864a2.253,2.253,0,0,1-2.253-2.253h0" transform="translate(-5.61 -7.06)" fill="#ffcdbb" stroke="#333" stroke-linecap="round" stroke-linejoin="round" stroke-width="1.5"/>
      <rect id="사각형_1280" data-name="사각형 1280" width="2.044" height="3.978" rx="1.022" transform="translate(106.538 341.998)" fill="#333"/>
      <rect id="사각형_1281" data-name="사각형 1281" width="2.044" height="3.978" rx="1.022" transform="translate(118.275 345.975) rotate(180)" fill="#333"/>
      <ellipse id="타원_315" data-name="타원 315" cx="1.971" cy="1.329" rx="1.971" ry="1.329" transform="translate(110.435 346.082)" fill="#e89c8e" style="mix-blend-mode: darken;isolation: isolate"/>
      <path id="패스_4718" data-name="패스 4718" d="M134.5,336.491v-.866a19.132,19.132,0,1,0-38.264,0v.866h0v3.026a2.674,2.674,0,0,1,.642-.076h1.893v-.871a15.432,15.432,0,0,1,.135-2.079H117.5l6.117-9.269,2.1,9.269h6.122a15.431,15.431,0,0,1,.135,2.079v.871h1.893a2.674,2.674,0,0,1,.642.076v-3.026Z" transform="translate(-2.965 -0.482)" fill="#29394a" stroke="#333" stroke-linecap="round" stroke-linejoin="round" stroke-width="1.5"/>
      <path id="사각형_1282" data-name="사각형 1282" d="M17.173,0H21.1A17.173,17.173,0,0,1,38.272,17.173v0a0,0,0,0,1,0,0H0a0,0,0,0,1,0,0v0A17.173,17.173,0,0,1,17.173,0Z" transform="translate(93.27 313.376)" fill="#bc8877" stroke="#333" stroke-linecap="round" stroke-linejoin="round" stroke-width="1.5"/>
      <path id="사각형_1283" data-name="사각형 1283" d="M0,0H38.272a0,0,0,0,1,0,0V0a6.426,6.426,0,0,1-6.426,6.426H6.426A6.426,6.426,0,0,1,0,0V0A0,0,0,0,1,0,0Z" transform="translate(93.27 330.468)" fill="#9e6a5c" stroke="#333" stroke-linecap="round" stroke-linejoin="round" stroke-width="1.5"/>
      <path id="패스_4719" data-name="패스 4719" d="M118.61,327.5l-1.068-.858a5.843,5.843,0,0,1,.919-1.2,8.793,8.793,0,0,1,1.659-1.4c.243-.189.959-.616,1.162-1.049a1.144,1.144,0,0,0-.1-1.13,1.241,1.241,0,0,0-1.186-.374c-.559.13-.9.61-1.216,1.506a4.336,4.336,0,0,1-.79,1.5,2.722,2.722,0,0,1-1.228.782,2.526,2.526,0,0,1-1.254.051,2.441,2.441,0,0,1-1.109-.56,2.788,2.788,0,0,1-.894-1.979,2.493,2.493,0,0,1,.82-1.878,2.535,2.535,0,0,1,1.265-.678,2.338,2.338,0,0,1,1.136.067,2.949,2.949,0,0,1,1.06.587l-.857.932,0,0a1.716,1.716,0,0,0-.607-.321,1.109,1.109,0,0,0-1.13.33,1.239,1.239,0,0,0-.423.94,1.522,1.522,0,0,0,.472,1.052,1.221,1.221,0,0,0,1.158.242c.317-.095.811-.427,1.157-1.4a4.43,4.43,0,0,1,.85-1.638,2.573,2.573,0,0,1,1.3-.773,2.506,2.506,0,0,1,2.425.77,2.205,2.205,0,0,1,.574,1.633,2.385,2.385,0,0,1-.86,1.607c-.482.44-1.126.81-1.825,1.5a7.2,7.2,0,0,0-1.412,1.741" transform="translate(-5.636 -1.054)" fill="#fff"/>
    </g>
  </g>
</svg>
