<svg xmlns="http://www.w3.org/2000/svg" xmlns:xlink="http://www.w3.org/1999/xlink" width="108" height="108" viewBox="0 0 108 108">
  <defs>
    <clipPath id="clip-path">
      <circle id="타원_376" data-name="타원 376" cx="54" cy="54" r="54" transform="translate(2611 1781)" fill="#f1f1f1"/>
    </clipPath>
  </defs>
  <g id="man_05" transform="translate(-2611 -1781)" clip-path="url(#clip-path)">
    <circle id="타원_598" data-name="타원 598" cx="54" cy="54" r="54" transform="translate(2611 1781)" fill="#f1f1f1"/>
    <g id="그룹_2985" data-name="그룹 2985" transform="translate(2190.324 1294.688)">
      <path id="사각형_1255" data-name="사각형 1255" d="M19.546,0H63.3A19.546,19.546,0,0,1,82.844,19.546v14.82a0,0,0,0,1,0,0H0a0,0,0,0,1,0,0V19.546A19.546,19.546,0,0,1,19.546,0Z" transform="translate(433.676 561.322)" fill="#ffa556" stroke="#333" stroke-linecap="round" stroke-linejoin="round" stroke-width="1.5"/>
      <path id="패스_4684" data-name="패스 4684" d="M486.71,568.5l-6.306,5.64-6.31-5.64v-8.3H486.71Z" transform="translate(-5.304 -6.913)" fill="#ffcdbb" stroke="#333" stroke-miterlimit="10" stroke-width="1.5"/>
      <path id="패스_4685" data-name="패스 4685" d="M496.211,540.14a6.449,6.449,0,0,1-.15-2.1c.061-.667.018-1.356.018-2.029,0-1.441-.011-2.883-.011-4.325v-2.569a17.32,17.32,0,0,0-34.5-2.17,16.117,16.117,0,0,0-.141,2.17v6.566c0,1.174.056,2.392-.05,3.579a9.769,9.769,0,0,1-.317,1.8c-.166.588-.455,1.127-.62,1.712a10,10,0,0,0-.375,2.718,9.712,9.712,0,0,0,4.068,7.979,8.481,8.481,0,0,0,2.985,1.3,6.642,6.642,0,0,0,1.848.189,11.768,11.768,0,0,1,1.777.091,9.682,9.682,0,0,1,2.813.552,11.928,11.928,0,0,0,2.68.645,17.012,17.012,0,0,0,6.184-.211,16.4,16.4,0,0,0,2.668-.834,5.045,5.045,0,0,1,1.472-.151,5.771,5.771,0,0,1,1.285-.141,7.669,7.669,0,0,0,2.594-.128,9,9,0,0,0,5.208-3.435,10.166,10.166,0,0,0,1.75-7.574,16.18,16.18,0,0,0-.932-2.795A7.628,7.628,0,0,1,496.211,540.14Z" transform="translate(-3.652 -0.764)" fill="#ffcdbb" stroke="#333" stroke-miterlimit="10" stroke-width="1.5"/>
      <ellipse id="타원_302" data-name="타원 302" cx="3.867" cy="1.945" rx="3.867" ry="1.945" transform="translate(461.208 535.487)" fill="#f2a59e"/>
      <ellipse id="타원_303" data-name="타원 303" cx="3.867" cy="1.945" rx="3.867" ry="1.945" transform="translate(481.252 535.487)" fill="#f2a59e"/>
      <rect id="사각형_1256" data-name="사각형 1256" width="4.552" height="1.392" transform="translate(467.573 528.497)" fill="#333"/>
      <rect id="사각형_1257" data-name="사각형 1257" width="4.552" height="1.392" transform="translate(482.622 529.889) rotate(-180)" fill="#333"/>
      <path id="패스_4686" data-name="패스 4686" d="M473.116,566.6l-7.324,2.656,7.5,12.121,6.13-6.481Z" transform="translate(-4.221 -7.725)" fill="#fff" stroke="#333" stroke-linecap="round" stroke-linejoin="round" stroke-width="1.5"/>
      <path id="패스_4687" data-name="패스 4687" d="M487.557,566.6l7.325,2.656-7.5,12.121-6.13-6.481Z" transform="translate(-6.252 -7.725)" fill="#fff" stroke="#333" stroke-linecap="round" stroke-linejoin="round" stroke-width="1.5"/>
      <path id="패스_4688" data-name="패스 4688" d="M460.948,532.461v8.977h-1.976a2.8,2.8,0,0,1-2.955-2.607v-3.763a2.7,2.7,0,0,1,2.285-2.537,3.146,3.146,0,0,1,.67-.07Z" transform="translate(-3.85 -2.459)" fill="#ffcdbb" stroke="#333" stroke-miterlimit="10" stroke-width="1.5"/>
      <path id="사각형_1258" data-name="사각형 1258" d="M3.344,0h1.59a0,0,0,0,1,0,0V8.98a0,0,0,0,1,0,0H3.344A3.344,3.344,0,0,1,0,5.636V3.344A3.344,3.344,0,0,1,3.344,0Z" transform="translate(498.027 538.979) rotate(-180)" fill="#ffcdbb" stroke="#333" stroke-miterlimit="10" stroke-width="1.5"/>
      <path id="패스_4689" data-name="패스 4689" d="M485.481,547.171h0a2.352,2.352,0,0,1-2.352,2.352h-5.076a2.352,2.352,0,0,1-2.352-2.352h0" transform="translate(-5.493 -5.228)" fill="#ffcdbb" stroke="#333" stroke-linecap="round" stroke-linejoin="round" stroke-width="1.5"/>
      <rect id="사각형_1259" data-name="사각형 1259" width="2.133" height="4.151" rx="1.066" transform="translate(469.04 532.349)" fill="#333"/>
      <rect id="사각형_1260" data-name="사각형 1260" width="2.133" height="4.151" rx="1.066" transform="translate(481.155 536.5) rotate(-180)" fill="#333"/>
      <ellipse id="타원_304" data-name="타원 304" cx="2.057" cy="1.387" rx="2.057" ry="1.387" transform="translate(473.041 536.598)" fill="#e89c8e" style="mix-blend-mode: darken;isolation: isolate"/>
      <path id="패스_4690" data-name="패스 4690" d="M498.545,526.184v-.9a19.968,19.968,0,0,0-39.936,0v.9h0v3.158a2.789,2.789,0,0,1,.67-.079h1.976v-.909a16.24,16.24,0,0,1,.14-2.169H480.8l6.384-9.674,2.191,9.674h6.389a16.094,16.094,0,0,1,.141,2.169v.909h1.976a2.787,2.787,0,0,1,.67.079v-3.158Z" transform="translate(-3.48)" fill="#29394a" stroke="#333" stroke-linecap="round" stroke-linejoin="round" stroke-width="1.5"/>
      <path id="패스_4691" data-name="패스 4691" d="M456.236,593.754s-1.839,8.413-.956,13.066" transform="translate(-2.764 -11.132)" fill="#00b39b" stroke="#333" stroke-linecap="round" stroke-linejoin="round" stroke-width="1.5"/>
      <path id="패스_4692" data-name="패스 4692" d="M506.768,593.754s1.839,8.413.956,13.066" transform="translate(-9.456 -11.132)" fill="#00b39b" stroke="#333" stroke-linecap="round" stroke-linejoin="round" stroke-width="1.5"/>
      <path id="패스_4693" data-name="패스 4693" d="M475.042,545.463s1.379,1.434-.708,4.411" transform="translate(-5.26 -5.021)" fill="#ffcdbb" stroke="#333" stroke-linecap="round" stroke-linejoin="round" stroke-width="1.5"/>
      <path id="패스_4694" data-name="패스 4694" d="M487.233,545.463s-1.378,1.434.707,4.411" transform="translate(-6.871 -5.021)" fill="#ffcdbb" stroke="#333" stroke-linecap="round" stroke-linejoin="round" stroke-width="1.5"/>
      <path id="패스_4753" data-name="패스 4753" d="M118.9,327.923l-1.129-.908a6.186,6.186,0,0,1,.972-1.268,9.3,9.3,0,0,1,1.755-1.486c.258-.2,1.014-.652,1.229-1.11a1.21,1.21,0,0,0-.105-1.2,1.313,1.313,0,0,0-1.255-.4c-.591.138-.95.646-1.287,1.593a4.585,4.585,0,0,1-.836,1.59,2.879,2.879,0,0,1-1.3.827,2.673,2.673,0,0,1-1.327.054,2.583,2.583,0,0,1-1.173-.593,2.949,2.949,0,0,1-.946-2.093,2.637,2.637,0,0,1,.867-1.987,2.682,2.682,0,0,1,1.338-.717,2.474,2.474,0,0,1,1.2.071,3.119,3.119,0,0,1,1.121.621l-.907.986,0,0a1.816,1.816,0,0,0-.642-.34,1.173,1.173,0,0,0-1.2.349,1.311,1.311,0,0,0-.448.994,1.611,1.611,0,0,0,.5,1.112,1.292,1.292,0,0,0,1.225.256c.335-.1.858-.452,1.224-1.481a4.686,4.686,0,0,1,.9-1.733,2.722,2.722,0,0,1,1.375-.818,2.65,2.65,0,0,1,2.565.815,2.333,2.333,0,0,1,.607,1.728,2.523,2.523,0,0,1-.909,1.7c-.51.466-1.191.857-1.931,1.583a7.615,7.615,0,0,0-1.494,1.842" transform="translate(371.412 256.199)" fill="#fff"/>
    </g>
  </g>
</svg>
