<svg xmlns="http://www.w3.org/2000/svg" xmlns:xlink="http://www.w3.org/1999/xlink" width="108" height="108" viewBox="0 0 108 108">
  <defs>
    <clipPath id="clip-path">
      <circle id="타원_376" data-name="타원 376" cx="54" cy="54" r="54" transform="translate(2611 2037)" fill="#f1f1f1"/>
    </clipPath>
  </defs>
  <g id="man_09" transform="translate(-2611 -2037)" clip-path="url(#clip-path)">
    <circle id="타원_600" data-name="타원 600" cx="54" cy="54" r="54" transform="translate(2611 2037)" fill="#f1f1f1"/>
    <g id="그룹_2989" data-name="그룹 2989" transform="translate(2189.885 1555.551)">
      <path id="사각형_1294" data-name="사각형 1294" d="M19.546,0H51.14A19.546,19.546,0,0,1,70.686,19.546V32.934a0,0,0,0,1,0,0H0a0,0,0,0,1,0,0V19.546A19.546,19.546,0,0,1,19.546,0Z" transform="translate(440.115 557.121)" fill="#ccbaba" stroke="#333" stroke-linecap="round" stroke-linejoin="round" stroke-width="1.5"/>
      <path id="패스_4732" data-name="패스 4732" d="M486.858,564.745l-6.043,5.405-6.047-5.405v-7.956h12.09Z" transform="translate(-5.355 -7.625)" fill="#ffcdbb" stroke="#333" stroke-miterlimit="10" stroke-width="1.5"/>
      <path id="패스_4733" data-name="패스 4733" d="M479.465,571.1l-5.64,6.691-7.8-12.1,7.312-2.759Z" transform="translate(-4.005 -8.575)" fill="#fff" stroke="#333" stroke-linecap="round" stroke-linejoin="round" stroke-width="1.5"/>
      <path id="패스_4734" data-name="패스 4734" d="M481.92,571.1l5.64,6.691,7.8-12.1-7.312-2.759Z" transform="translate(-6.46 -8.575)" fill="#fff" stroke="#333" stroke-linecap="round" stroke-linejoin="round" stroke-width="1.5"/>
      <rect id="사각형_1295" data-name="사각형 1295" width="33.199" height="42.792" rx="16.6" transform="translate(458.858 507.449)" fill="#ffcdbb" stroke="#333" stroke-miterlimit="10" stroke-width="1.5"/>
      <ellipse id="타원_322" data-name="타원 322" cx="3.706" cy="1.864" rx="3.706" ry="1.864" transform="translate(462.008 531.123)" fill="#f2a59e"/>
      <ellipse id="타원_323" data-name="타원 323" cx="3.706" cy="1.864" rx="3.706" ry="1.864" transform="translate(481.495 531.123)" fill="#f2a59e"/>
      <rect id="사각형_1296" data-name="사각형 1296" width="4.363" height="1.919" transform="translate(468.177 523.779)" fill="#9b7870"/>
      <rect id="사각형_1297" data-name="사각형 1297" width="4.363" height="1.919" transform="translate(482.738 525.698) rotate(-180)" fill="#9b7870"/>
      <path id="패스_4735" data-name="패스 4735" d="M489.186,511.194a16.507,16.507,0,0,1,3.165,9.724v9.593a16.6,16.6,0,0,1-16.6,16.6h0a16.5,16.5,0,0,1-9.724-3.165,16.587,16.587,0,0,0,30.034-9.724v-9.593A16.562,16.562,0,0,0,489.186,511.194Z" transform="translate(-4.005 -0.579)" fill="#ffbfae" style="mix-blend-mode: darken;isolation: isolate"/>
      <path id="사각형_1298" data-name="사각형 1298" d="M3.344,0H4.728a0,0,0,0,1,0,0V9.726a0,0,0,0,1,0,0H3.344A3.344,3.344,0,0,1,0,6.383V3.344A3.344,3.344,0,0,1,3.344,0Z" transform="translate(454.13 524.916)" fill="#ffcdbb" stroke="#333" stroke-miterlimit="10" stroke-width="1.5"/>
      <path id="사각형_1299" data-name="사각형 1299" d="M3.344,0H4.728a0,0,0,0,1,0,0V9.726a0,0,0,0,1,0,0H3.344A3.344,3.344,0,0,1,0,6.383V3.344A3.344,3.344,0,0,1,3.344,0Z" transform="translate(496.785 534.643) rotate(-180)" fill="#ffcdbb" stroke="#333" stroke-miterlimit="10" stroke-width="1.5"/>
      <ellipse id="타원_324" data-name="타원 324" cx="1.971" cy="1.329" rx="1.971" ry="1.329" transform="translate(473.486 532.193)" fill="#e89c8e" style="mix-blend-mode: darken;isolation: isolate"/>
      <path id="패스_4736" data-name="패스 4736" d="M489.238,533.182a1.577,1.577,0,0,1-3.154,0" transform="translate(-7.104 -3.977)" fill="#ffcdbb" stroke="#333" stroke-linecap="round" stroke-linejoin="round" stroke-width="1.5"/>
      <path id="패스_4737" data-name="패스 4737" d="M477.175,533.182a1.577,1.577,0,0,1-3.154,0" transform="translate(-5.24 -3.977)" fill="#ffcdbb" stroke="#333" stroke-linecap="round" stroke-linejoin="round" stroke-width="1.5"/>
      <path id="패스_4738" data-name="패스 4738" d="M485.559,543.117h0a3.19,3.19,0,0,1-2.992,2.085H479.64a3.189,3.189,0,0,1-2.992-2.085h0" transform="translate(-5.646 -5.512)" fill="#ffcdbb" stroke="#333" stroke-linecap="round" stroke-linejoin="round" stroke-width="1.5"/>
      <path id="패스_4756" data-name="패스 4756" d="M118.41,327.215l-1.026-.825a5.619,5.619,0,0,1,.883-1.152,8.449,8.449,0,0,1,1.595-1.35c.234-.182.921-.592,1.117-1.008a1.1,1.1,0,0,0-.1-1.086,1.193,1.193,0,0,0-1.14-.359c-.537.125-.863.586-1.169,1.448a4.167,4.167,0,0,1-.76,1.444,2.616,2.616,0,0,1-1.18.751,2.427,2.427,0,0,1-1.205.049,2.346,2.346,0,0,1-1.066-.539,2.679,2.679,0,0,1-.859-1.9,2.4,2.4,0,0,1,.788-1.8,2.436,2.436,0,0,1,1.215-.651,2.246,2.246,0,0,1,1.092.064,2.833,2.833,0,0,1,1.019.565l-.824.9,0,0a1.65,1.65,0,0,0-.583-.309,1.066,1.066,0,0,0-1.086.317,1.191,1.191,0,0,0-.407.9,1.463,1.463,0,0,0,.453,1.01,1.174,1.174,0,0,0,1.113.232c.3-.091.779-.41,1.112-1.345a4.257,4.257,0,0,1,.817-1.574,2.472,2.472,0,0,1,1.249-.743,2.408,2.408,0,0,1,2.33.74,2.119,2.119,0,0,1,.552,1.569,2.292,2.292,0,0,1-.826,1.544c-.463.423-1.082.778-1.754,1.438a6.919,6.919,0,0,0-1.357,1.673" transform="translate(369.7 251.966)" fill="#fff"/>
    </g>
  </g>
</svg>
