<svg xmlns="http://www.w3.org/2000/svg" xmlns:xlink="http://www.w3.org/1999/xlink" width="108" height="108" viewBox="0 0 108 108">
  <defs>
    <clipPath id="clip-path">
      <circle id="타원_376" data-name="타원 376" cx="54" cy="54" r="54" transform="translate(2778 1653)" fill="#f1f1f1"/>
    </clipPath>
  </defs>
  <g id="man_04" transform="translate(-2778 -1653)" clip-path="url(#clip-path)">
    <circle id="타원_596" data-name="타원 596" cx="54" cy="54" r="54" transform="translate(2778 1653)" fill="#f1f1f1"/>
    <g id="그룹_2984" data-name="그룹 2984" transform="translate(2720.93 1546.043)">
      <path id="사각형_1261" data-name="사각형 1261" d="M19.546,0h29.7A19.546,19.546,0,0,1,68.792,19.546V32.052a0,0,0,0,1,0,0H0a0,0,0,0,1,0,0V19.546A19.546,19.546,0,0,1,19.546,0Z" transform="translate(77.07 183.187)" fill="#00b39b" stroke="#333" stroke-linecap="round" stroke-linejoin="round" stroke-width="1.5"/>
      <path id="패스_4695" data-name="패스 4695" d="M123.49,193.941l-5.881,5.26-5.885-5.26V186.2H123.49Z" transform="translate(-6.14 -10.663)" fill="#ffcdbb" stroke="#333" stroke-miterlimit="10" stroke-width="1.5"/>
      <rect id="사각형_1262" data-name="사각형 1262" width="32.31" height="41.645" rx="16.155" transform="translate(95.311 135.876)" fill="#ffcdbb" stroke="#333" stroke-miterlimit="10" stroke-width="1.5"/>
      <path id="패스_4696" data-name="패스 4696" d="M134.2,144.411l.025-.982a16.473,16.473,0,0,0-16.473-16.473h-6.176A16.474,16.474,0,0,0,95.1,143.429v14.128a2.988,2.988,0,0,0,2.988,2.988h.417v-11.67a4.872,4.872,0,0,0,1.482-3.5v4.887a4.888,4.888,0,0,0,4.887-4.887v4.887a4.887,4.887,0,0,0,4.887-4.887v4.887a4.888,4.888,0,0,0,4.887-4.887v4.887a4.888,4.888,0,0,0,4.887-4.887v4.887a4.888,4.888,0,0,0,4.887-4.887v4.887a4.887,4.887,0,0,0,4.887-4.887v4.887a4.883,4.883,0,0,0,1.5-.239v10.523h.417a2.988,2.988,0,0,0,2.988-2.988V144.77H134.2Z" transform="translate(-3.195 0)" fill="#8c8c8c" stroke="#333" stroke-linecap="round" stroke-linejoin="round" stroke-width="1.5"/>
      <line id="선_277" data-name="선 277" y1="13.01" transform="translate(133.668 202.229)" fill="#00b39b" stroke="#333" stroke-linecap="round" stroke-linejoin="round" stroke-width="1.5"/>
      <line id="선_278" data-name="선 278" y1="13.01" transform="translate(89.269 202.229)" fill="#00b39b" stroke="#333" stroke-linecap="round" stroke-linejoin="round" stroke-width="1.5"/>
      <ellipse id="타원_305" data-name="타원 305" cx="3.607" cy="1.814" rx="3.607" ry="1.814" transform="translate(98.377 158.818)" fill="#f2a59e"/>
      <ellipse id="타원_306" data-name="타원 306" cx="3.607" cy="1.814" rx="3.607" ry="1.814" transform="translate(117.341 158.818)" fill="#f2a59e"/>
      <rect id="사각형_1263" data-name="사각형 1263" width="4.246" height="1.299" transform="translate(104.381 152.262)" fill="#333"/>
      <rect id="사각형_1264" data-name="사각형 1264" width="4.246" height="1.299" transform="translate(118.552 153.56) rotate(-180)" fill="#333"/>
      <path id="패스_4697" data-name="패스 4697" d="M110.252,192.6l-6.831,2.477,7,11.3,5.717-6.045Z" transform="translate(-4.669 -11.817)" fill="#fff" stroke="#333" stroke-linecap="round" stroke-linejoin="round" stroke-width="1.5"/>
      <path id="패스_4698" data-name="패스 4698" d="M124.761,192.6l6.831,2.477-7,11.3-5.717-6.045Z" transform="translate(-7.408 -11.817)" fill="#fff" stroke="#333" stroke-linecap="round" stroke-linejoin="round" stroke-width="1.5"/>
      <path id="패스_4699" data-name="패스 4699" d="M125.521,141.541A16.06,16.06,0,0,1,128.6,151v9.336a16.155,16.155,0,0,1-16.155,16.155h0a16.065,16.065,0,0,1-9.463-3.081,16.142,16.142,0,0,0,29.229-9.463v-9.336A16.116,16.116,0,0,0,125.521,141.541Z" transform="translate(-4.592 -2.584)" fill="#ffbfae" style="mix-blend-mode: darken;isolation: isolate"/>
      <path id="사각형_1265" data-name="사각형 1265" d="M3.344,0H4.6a0,0,0,0,1,0,0V9.466a0,0,0,0,1,0,0H3.344A3.344,3.344,0,0,1,0,6.122V3.344A3.344,3.344,0,0,1,3.344,0Z" transform="translate(90.71 152.79)" fill="#ffcdbb" stroke="#333" stroke-miterlimit="10" stroke-width="1.5"/>
      <path id="사각형_1266" data-name="사각형 1266" d="M3.344,0H4.6a0,0,0,0,1,0,0V9.466a0,0,0,0,1,0,0H3.344A3.344,3.344,0,0,1,0,6.122V3.344A3.344,3.344,0,0,1,3.344,0Z" transform="translate(132.222 162.256) rotate(-180)" fill="#ffcdbb" stroke="#333" stroke-miterlimit="10" stroke-width="1.5"/>
      <path id="패스_4700" data-name="패스 4700" d="M122.452,172.732h0a2.193,2.193,0,0,1-2.194,2.194h-4.734a2.193,2.193,0,0,1-2.193-2.194h0" transform="translate(-6.425 -8.223)" fill="#ffcdbb" stroke="#333" stroke-linecap="round" stroke-linejoin="round" stroke-width="1.5"/>
      <circle id="타원_307" data-name="타원 307" cx="3.189" cy="3.189" r="3.189" transform="translate(103.558 154.333)" fill="#fff" stroke="#333" stroke-linecap="round" stroke-linejoin="round" stroke-width="1"/>
      <circle id="타원_308" data-name="타원 308" cx="3.189" cy="3.189" r="3.189" transform="translate(112.993 154.333)" fill="#fff" stroke="#333" stroke-linecap="round" stroke-linejoin="round" stroke-width="1"/>
      <line id="선_279" data-name="선 279" x2="3.058" transform="translate(109.935 157.518)" fill="none" stroke="#333" stroke-linecap="round" stroke-linejoin="round" stroke-width="1"/>
      <ellipse id="타원_309" data-name="타원 309" cx="1.919" cy="1.293" rx="1.919" ry="1.293" transform="translate(109.548 159.858)" fill="#e89c8e" style="mix-blend-mode: darken;isolation: isolate"/>
      <path id="패스_4752" data-name="패스 4752" d="M118.73,327.673l-1.093-.878a5.982,5.982,0,0,1,.941-1.227,9,9,0,0,1,1.7-1.438c.249-.194.981-.631,1.19-1.074a1.171,1.171,0,0,0-.1-1.157,1.271,1.271,0,0,0-1.214-.383c-.572.133-.919.625-1.245,1.542a4.438,4.438,0,0,1-.809,1.538,2.787,2.787,0,0,1-1.257.8,2.586,2.586,0,0,1-1.284.052,2.5,2.5,0,0,1-1.135-.574,2.853,2.853,0,0,1-.915-2.026,2.552,2.552,0,0,1,.839-1.923,2.6,2.6,0,0,1,1.294-.694,2.393,2.393,0,0,1,1.163.068,3.019,3.019,0,0,1,1.085.6l-.877.954,0,0a1.758,1.758,0,0,0-.621-.329,1.135,1.135,0,0,0-1.157.337,1.269,1.269,0,0,0-.434.962,1.559,1.559,0,0,0,.483,1.076,1.25,1.25,0,0,0,1.185.247c.324-.1.83-.437,1.185-1.433a4.535,4.535,0,0,1,.87-1.677,2.634,2.634,0,0,1,1.331-.792,2.565,2.565,0,0,1,2.482.788,2.257,2.257,0,0,1,.588,1.672,2.441,2.441,0,0,1-.88,1.645c-.493.451-1.153.829-1.868,1.532a7.371,7.371,0,0,0-1.446,1.783" transform="translate(6.148 -122.806)" fill="#fff"/>
    </g>
  </g>
</svg>
