<svg xmlns="http://www.w3.org/2000/svg" xmlns:xlink="http://www.w3.org/1999/xlink" width="108" height="108" viewBox="0 0 108 108">
  <defs>
    <clipPath id="clip-path">
      <circle id="타원_376" data-name="타원 376" cx="54" cy="54" r="54" transform="translate(2611 1653)" fill="#f1f1f1"/>
    </clipPath>
  </defs>
  <g id="man_03" transform="translate(-2611 -1653)" clip-path="url(#clip-path)">
    <circle id="타원_597" data-name="타원 597" cx="54" cy="54" r="54" transform="translate(2611 1653)" fill="#f1f1f1"/>
    <g id="그룹_2983" data-name="그룹 2983" transform="translate(2630 1672)">
      <path id="사각형_1251" data-name="사각형 1251" d="M19.546,0H51.14A19.546,19.546,0,0,1,70.686,19.546V33.153a0,0,0,0,1,0,0H0a0,0,0,0,1,0,0V19.546A19.546,19.546,0,0,1,19.546,0Z" transform="translate(0 56.382)" fill="#4ea0ca" stroke="#333" stroke-linecap="round" stroke-linejoin="round" stroke-width="1.5"/>
      <path id="패스_4679" data-name="패스 4679" d="M486.938,185.207l-6.083,5.441-6.088-5.441V177.2h12.171Z" transform="translate(-445.51 -128.68)" fill="#ffcdbb" stroke="#333" stroke-miterlimit="10" stroke-width="1.5"/>
      <path id="패스_4680" data-name="패스 4680" d="M495.7,145.508v9.651a16.707,16.707,0,1,1-33.414,0v-9.651a16.707,16.707,0,0,1,33.414,0Z" transform="translate(-443.652 -121.218)" fill="#ffcdbb" stroke="#333" stroke-miterlimit="10" stroke-width="1.5"/>
      <path id="패스_4681" data-name="패스 4681" d="M461.454,149.451v9.8h-1.915a2.849,2.849,0,0,1-2.851-2.843v-4.1a2.851,2.851,0,0,1,2.851-2.851Z" transform="translate(-442.682 -124.418)" fill="#ffcdbb" stroke="#333" stroke-miterlimit="10" stroke-width="1.5"/>
      <path id="사각형_1252" data-name="사각형 1252" d="M3.344,0H4.759a0,0,0,0,1,0,0V9.791a0,0,0,0,1,0,0H3.344A3.344,3.344,0,0,1,0,6.448v-3.1A3.344,3.344,0,0,1,3.344,0Z" transform="translate(56.677 34.828) rotate(-180)" fill="#ffcdbb" stroke="#333" stroke-miterlimit="10" stroke-width="1.5"/>
      <ellipse id="타원_294" data-name="타원 294" cx="0.851" cy="2.002" rx="0.851" ry="2.002" transform="translate(29.646 28.226)" stroke="#333" stroke-width="1"/>
      <ellipse id="타원_295" data-name="타원 295" cx="0.851" cy="2.002" rx="0.851" ry="2.002" transform="translate(39.339 28.226)" stroke="#333" stroke-width="1"/>
      <line id="선_274" data-name="선 274" y1="13.457" transform="translate(58.072 76.079)" fill="#4ea0ca" stroke="#333" stroke-linecap="round" stroke-linejoin="round" stroke-width="1.5"/>
      <line id="선_275" data-name="선 275" y1="13.457" transform="translate(12.618 76.079)" fill="#4ea0ca" stroke="#333" stroke-linecap="round" stroke-linejoin="round" stroke-width="1.5"/>
      <ellipse id="타원_296" data-name="타원 296" cx="3.731" cy="1.877" rx="3.731" ry="1.877" transform="translate(21.876 31.264)" fill="#f2a59e"/>
      <ellipse id="타원_297" data-name="타원 297" cx="3.731" cy="1.877" rx="3.731" ry="1.877" transform="translate(41.348 31.264)" fill="#f2a59e"/>
      <rect id="사각형_1253" data-name="사각형 1253" width="4.392" height="1.343" transform="translate(28.05 23.826)" fill="#333"/>
      <rect id="사각형_1254" data-name="사각형 1254" width="4.392" height="1.343" transform="translate(42.636 25.169) rotate(-180)" fill="#333"/>
      <path id="패스_4682" data-name="패스 4682" d="M489.34,132.541a16.617,16.617,0,0,1,3.187,9.788v9.657a16.71,16.71,0,0,1-16.71,16.71h0a16.615,16.615,0,0,1-9.788-3.187,16.7,16.7,0,0,0,30.233-9.788v-9.657A16.673,16.673,0,0,0,489.34,132.541Z" transform="translate(-444.227 -121.775)" fill="#ffbfae" style="mix-blend-mode: darken;isolation: isolate"/>
      <path id="패스_4683" data-name="패스 4683" d="M496.3,131.394a7.918,7.918,0,0,0-.361-1.676,7.514,7.514,0,0,0-5.66-5.008,7.63,7.63,0,0,0-2.156-.1,6.033,6.033,0,0,1-5.078-2.163,7.448,7.448,0,0,0-11.224,0,6.032,6.032,0,0,1-5.078,2.163,7.631,7.631,0,0,0-2.156.1,7.511,7.511,0,0,0-5.659,5.008,7.861,7.861,0,0,0-.361,1.676,6.962,6.962,0,0,1-2.384,4.788,7.616,7.616,0,0,0-.015,11.8V147.9a2.838,2.838,0,0,1,2.824-2.851h1.9v-.868a16.844,16.844,0,0,1,1-5.714,7.416,7.416,0,0,0,4.148,1.264,7.52,7.52,0,0,0,7.316-5.9,7.421,7.421,0,0,0,8.165,0,7.521,7.521,0,0,0,7.317,5.9,7.416,7.416,0,0,0,4.147-1.264,16.823,16.823,0,0,1,1,5.714v.868h1.9A2.838,2.838,0,0,1,498.7,147.9v.077a7.615,7.615,0,0,0-.016-11.8A6.958,6.958,0,0,1,496.3,131.394Z" transform="translate(-442.09 -119.891)" fill="#445563" stroke="#333" stroke-linecap="round" stroke-linejoin="round" stroke-width="1.5"/>
      <ellipse id="타원_298" data-name="타원 298" cx="3.298" cy="3.298" rx="3.298" ry="3.298" transform="translate(27.201 26.933)" fill="#fff" stroke="#333" stroke-linecap="round" stroke-linejoin="round" stroke-width="1.5"/>
      <ellipse id="타원_299" data-name="타원 299" cx="3.298" cy="3.298" rx="3.298" ry="3.298" transform="translate(36.889 26.933)" fill="#fff" stroke="#333" stroke-linecap="round" stroke-linejoin="round" stroke-width="1.5"/>
      <line id="선_276" data-name="선 276" x2="3.163" transform="translate(33.762 30.226)" fill="none" stroke="#333" stroke-linecap="round" stroke-linejoin="round" stroke-width="1.5"/>
      <ellipse id="타원_300" data-name="타원 300" cx="2.261" cy="2.261" rx="2.261" ry="2.261" transform="translate(33.084 38.265)" fill="#e27824" stroke="#333" stroke-linecap="round" stroke-linejoin="round" stroke-width="1.5"/>
      <ellipse id="타원_301" data-name="타원 301" cx="1.985" cy="1.338" rx="1.985" ry="1.338" transform="translate(33.358 32.339)" fill="#e89c8e" style="mix-blend-mode: darken;isolation: isolate"/>
      <path id="패스_4751" data-name="패스 4751" d="M118.46,327.286l-1.036-.833a5.674,5.674,0,0,1,.892-1.164,8.535,8.535,0,0,1,1.611-1.364c.236-.184.931-.6,1.128-1.018a1.11,1.11,0,0,0-.1-1.1,1.205,1.205,0,0,0-1.151-.363c-.542.126-.871.592-1.181,1.462a4.21,4.21,0,0,1-.767,1.459,2.643,2.643,0,0,1-1.192.759,2.452,2.452,0,0,1-1.218.049,2.37,2.37,0,0,1-1.077-.544,2.706,2.706,0,0,1-.868-1.921,2.42,2.42,0,0,1,.8-1.823,2.461,2.461,0,0,1,1.228-.658,2.269,2.269,0,0,1,1.1.065,2.863,2.863,0,0,1,1.029.57l-.832.905,0,0a1.665,1.665,0,0,0-.589-.312,1.076,1.076,0,0,0-1.1.32,1.2,1.2,0,0,0-.411.913,1.478,1.478,0,0,0,.458,1.021,1.186,1.186,0,0,0,1.124.235c.308-.092.787-.414,1.123-1.359a4.3,4.3,0,0,1,.826-1.59,2.5,2.5,0,0,1,1.262-.751,2.432,2.432,0,0,1,2.354.748,2.141,2.141,0,0,1,.557,1.585,2.316,2.316,0,0,1-.835,1.56c-.468.428-1.093.786-1.772,1.453a6.989,6.989,0,0,0-1.371,1.69" transform="translate(-68.473 -250.53)" fill="#fff"/>
    </g>
  </g>
</svg>
