<svg xmlns="http://www.w3.org/2000/svg" xmlns:xlink="http://www.w3.org/1999/xlink" width="108" height="108" viewBox="0 0 108 108">
  <defs>
    <clipPath id="clip-path">
      <circle id="타원_376" data-name="타원 376" cx="54" cy="54" r="54" transform="translate(2778 1909)" fill="#f1f1f1"/>
    </clipPath>
  </defs>
  <g id="man_08" transform="translate(-2778 -1909)" clip-path="url(#clip-path)">
    <circle id="타원_602" data-name="타원 602" cx="54" cy="54" r="54" transform="translate(2778 1909)" fill="#f1f1f1"/>
    <g id="그룹_2988" data-name="그룹 2988" transform="translate(2720.031 1423.566)">
      <path id="사각형_1290" data-name="사각형 1290" d="M19.546,0h31.51A19.546,19.546,0,0,1,70.6,19.546V32.895a0,0,0,0,1,0,0H0a0,0,0,0,1,0,0V19.546A19.546,19.546,0,0,1,19.546,0Z" transform="translate(76.968 560.774)" fill="#3d5e84" stroke="#333" stroke-linecap="round" stroke-linejoin="round" stroke-width="1.5"/>
      <path id="패스_4726" data-name="패스 4726" d="M111.266,555.785v13.447c0,.032-.005.063-.005.094a6.04,6.04,0,1,0,12.081,0V555.785Z" transform="translate(-5.334 -7.987)" fill="#ffcdbb" stroke="#333" stroke-miterlimit="10" stroke-width="1.5"/>
      <path id="패스_4727" data-name="패스 4727" d="M132.294,529.922V539.5a16.577,16.577,0,1,1-33.153,0v-9.576a16.577,16.577,0,0,1,33.153,0Z" transform="translate(-3.449 -1.386)" fill="#ffcdbb" stroke="#333" stroke-miterlimit="10" stroke-width="1.5"/>
      <path id="패스_4728" data-name="패스 4728" d="M98.27,533.995v9.72h-1.9a2.827,2.827,0,0,1-2.829-2.82v-4.07a2.829,2.829,0,0,1,2.829-2.829Z" transform="translate(-2.578 -4.598)" fill="#ffcdbb" stroke="#333" stroke-miterlimit="10" stroke-width="1.5"/>
      <path id="사각형_1291" data-name="사각형 1291" d="M3.344,0H4.722a0,0,0,0,1,0,0V9.715a0,0,0,0,1,0,0H3.344A3.344,3.344,0,0,1,0,6.371V3.344A3.344,3.344,0,0,1,3.344,0Z" transform="translate(133.571 539.116) rotate(-180)" fill="#ffcdbb" stroke="#333" stroke-miterlimit="10" stroke-width="1.5"/>
      <ellipse id="타원_319" data-name="타원 319" cx="3.702" cy="1.862" rx="3.702" ry="1.862" transform="translate(98.835 535.6)" fill="#f2a59e"/>
      <ellipse id="타원_320" data-name="타원 320" cx="3.702" cy="1.862" rx="3.702" ry="1.862" transform="translate(118.299 535.6)" fill="#f2a59e"/>
      <rect id="사각형_1292" data-name="사각형 1292" width="4.358" height="1.333" transform="translate(104.997 528.182)" fill="#333"/>
      <rect id="사각형_1293" data-name="사각형 1293" width="4.358" height="1.333" transform="translate(119.541 529.515) rotate(-180)" fill="#333"/>
      <path id="패스_4729" data-name="패스 4729" d="M126.012,517.085a16.48,16.48,0,0,1,3.162,9.712v9.58a16.579,16.579,0,0,1-16.58,16.58h0a16.487,16.487,0,0,1-9.712-3.162,16.567,16.567,0,0,0,30-9.712V530.5A16.54,16.54,0,0,0,126.012,517.085Z" transform="translate(-4.031 -1.968)" fill="#ffbfae" style="mix-blend-mode: darken;isolation: isolate"/>
      <path id="패스_4730" data-name="패스 4730" d="M133.234,515.847a7.73,7.73,0,0,0-.361-1.662,7.5,7.5,0,0,0-5.67-4.969,7.692,7.692,0,0,0-2.16-.1,6.073,6.073,0,0,1-5.088-2.146,7.508,7.508,0,0,0-11.246,0,6.073,6.073,0,0,1-5.088,2.146,7.69,7.69,0,0,0-2.16.1,7.5,7.5,0,0,0-5.67,4.969,7.782,7.782,0,0,0-.362,1.662,6.88,6.88,0,0,1-2.387,4.752,7.509,7.509,0,0,0-.016,11.7v-.076a2.829,2.829,0,0,1,2.829-2.829h1.9v-.861a16.549,16.549,0,0,1,1-5.67,7.514,7.514,0,0,0,11.485-4.6,7.5,7.5,0,0,0,8.18,0,7.514,7.514,0,0,0,11.485,4.6,16.568,16.568,0,0,1,1,5.67v.861h1.9a2.829,2.829,0,0,1,2.829,2.829v.076a7.51,7.51,0,0,0-.015-11.7A6.884,6.884,0,0,1,133.234,515.847Z" transform="translate(-2.063 0)" fill="#ffd24f" stroke="#333" stroke-linecap="round" stroke-linejoin="round" stroke-width="1.5"/>
      <ellipse id="타원_321" data-name="타원 321" cx="1.969" cy="1.328" rx="1.969" ry="1.328" transform="translate(110.3 536.669)" fill="#e89c8e" style="mix-blend-mode: darken;isolation: isolate"/>
      <line id="선_283" data-name="선 283" x2="4.358" transform="translate(104.997 534.614)" fill="#e27824" stroke="#333" stroke-linecap="round" stroke-linejoin="round" stroke-width="1.5"/>
      <line id="선_284" data-name="선 284" x2="4.358" transform="translate(115.184 534.614)" fill="#e27824" stroke="#333" stroke-linecap="round" stroke-linejoin="round" stroke-width="1.5"/>
      <path id="패스_4731" data-name="패스 4731" d="M124.878,550.845a2.083,2.083,0,0,0-2.944,0h0a2.083,2.083,0,0,1-2.945,0h0a2.084,2.084,0,0,0-2.945,0h0a2.082,2.082,0,0,1-2.945,0h0a2.083,2.083,0,0,0-2.944,0h0" transform="translate(-5.162 -7.124)" fill="#e27824" stroke="#333" stroke-linecap="round" stroke-linejoin="round" stroke-width="1.5"/>
      <path id="패스_4755" data-name="패스 4755" d="M118.555,327.421l-1.056-.849a5.781,5.781,0,0,1,.909-1.186,8.7,8.7,0,0,1,1.641-1.39c.241-.187.948-.61,1.15-1.038a1.131,1.131,0,0,0-.1-1.118,1.228,1.228,0,0,0-1.173-.37c-.553.129-.888.6-1.2,1.49a4.289,4.289,0,0,1-.782,1.487,2.693,2.693,0,0,1-1.215.773,2.5,2.5,0,0,1-1.241.05,2.415,2.415,0,0,1-1.1-.554,2.758,2.758,0,0,1-.885-1.958,2.466,2.466,0,0,1,.811-1.858,2.508,2.508,0,0,1,1.251-.671,2.312,2.312,0,0,1,1.124.066,2.918,2.918,0,0,1,1.049.581l-.848.922,0,0a1.7,1.7,0,0,0-.6-.318,1.1,1.1,0,0,0-1.118.326,1.226,1.226,0,0,0-.419.93,1.506,1.506,0,0,0,.467,1.04,1.208,1.208,0,0,0,1.146.239c.314-.094.8-.422,1.145-1.385a4.382,4.382,0,0,1,.841-1.621,2.545,2.545,0,0,1,1.286-.765,2.479,2.479,0,0,1,2.4.762,2.181,2.181,0,0,1,.568,1.616,2.359,2.359,0,0,1-.85,1.59c-.477.436-1.114.8-1.805,1.48a7.12,7.12,0,0,0-1.4,1.723" transform="translate(10.003 253.857)" fill="#fff"/>
    </g>
  </g>
</svg>
