<svg xmlns="http://www.w3.org/2000/svg" width="45" height="35" viewBox="0 0 45 35">
  <g id="_10.식사_스스로가능" data-name="10.식사 스스로가능" transform="translate(-1.257 1.716)">
    <g id="그룹_687" data-name="그룹 687" transform="translate(16.904 1.375)">
      <path id="패스_934" data-name="패스 934" d="M1806.6,574.414l-1.385-16.656h-10.906l-1.385,16.656" transform="translate(-1792.92 -546.628)" fill="#fff" stroke="#555" stroke-linecap="round" stroke-linejoin="round" stroke-width="1"/>
      <path id="패스_935" data-name="패스 935" d="M1802.364,557.174a4.225,4.225,0,1,1-4.224-4.224A4.224,4.224,0,0,1,1802.364,557.174Z" transform="translate(-1791.301 -552.95)" fill="#fff" stroke="#555" stroke-linecap="round" stroke-linejoin="round" stroke-width="1"/>
    </g>
    <line id="선_140" data-name="선 140" y2="8.157" transform="translate(6.8 2.928)" fill="none" stroke="#555" stroke-linecap="round" stroke-linejoin="round" stroke-width="1"/>
    <path id="패스_938" data-name="패스 938" d="M1789.5,553.916v4.106h-2.882v-4.106" transform="translate(-1781.254 -555.132)" fill="none" stroke="#555" stroke-linecap="round" stroke-linejoin="round" stroke-width="1"/>
    <line id="선_141" data-name="선 141" y1="6.319" transform="translate(41.268 4.448)" fill="none" stroke="#555" stroke-linecap="round" stroke-linejoin="round" stroke-width="1"/>
    <circle id="타원_51" data-name="타원 51" cx="2.478" cy="2.478" r="2.478" transform="translate(38.837 -0.921)" fill="none" stroke="#555" stroke-linecap="round" stroke-linejoin="round" stroke-width="1"/>
    <rect id="사각형_597" data-name="사각형 597" width="44" height="5.247" transform="translate(1.757 27.537)" fill="#bc8877" stroke="#555" stroke-linecap="round" stroke-linejoin="round" stroke-width="1"/>
    <g id="그룹_6313" data-name="그룹 6313" transform="translate(18.566 13.261) rotate(113)">
      <path id="패스_944" data-name="패스 944" d="M1.808,13.925a1.7,1.7,0,0,0,1.209-.476C7.286,9.09,3.155,1.107,2.976.771A1.692,1.692,0,0,0,.933.107a1.208,1.208,0,0,0-.8,1.686h0C1.129,3.7,3.163,9.221.6,11.837a1.137,1.137,0,0,0,.23,1.8A1.758,1.758,0,0,0,1.808,13.925Z" transform="translate(0 0)" fill="#fff" stroke="#555" stroke-linecap="round" stroke-linejoin="round" stroke-width="1"/>
    </g>
    <g id="그룹_6314" data-name="그룹 6314" transform="matrix(0.391, 0.921, -0.921, 0.391, 41.862, 7.82)">
      <path id="패스_944-2" data-name="패스 944" d="M1.808,0A1.7,1.7,0,0,1,3.017.476c4.27,4.36.138,12.342-.041,12.679a1.692,1.692,0,0,1-2.043.663,1.208,1.208,0,0,1-.8-1.687h0c1-1.906,3.035-7.428.473-10.044a1.137,1.137,0,0,1,.23-1.8A1.757,1.757,0,0,1,1.808,0Z" transform="translate(0 0)" fill="#fff" stroke="#555" stroke-linecap="round" stroke-linejoin="round" stroke-width="1"/>
    </g>
  </g>
</svg>
