<svg xmlns="http://www.w3.org/2000/svg" width="94" height="90" viewBox="0 0 94 90">
    <defs>
        <style>
            .cls-1{fill:#e1e1e1}.cls-2{fill:#f6f6f6}
        </style>
    </defs>
    <g id="icon-4" transform="translate(-685.132 -343.835)">
        <g id="그룹_275" transform="translate(685.132 343.835)">
            <g id="그룹_274">
                <g id="그룹_267" transform="translate(0 32.234)">
                    <g id="그룹_266">
                        <g id="그룹_263" transform="translate(0 21.061)">
                            <path id="패스_387" d="M754.6 463.169h-62.41a7.066 7.066 0 0 1-7.058-7.059v-27.652a1.994 1.994 0 0 1 1.995-1.994h72.537a1.994 1.994 0 0 1 1.994 1.994v27.652a7.067 7.067 0 0 1-7.058 7.059zm-65.48-32.717v25.658a3.074 3.074 0 0 0 3.069 3.071H754.6a3.073 3.073 0 0 0 3.07-3.071v-25.658z" class="cls-1" transform="translate(-685.132 -426.464)"/>
                        </g>
                        <g id="그룹_264">
                            <path id="패스_389" d="M759.664 409.809h-72.537a2 2 0 0 1-1.995-1.995v-6.9a7.066 7.066 0 0 1 7.058-7.059h62.41a7.067 7.067 0 0 1 7.058 7.059v6.9a1.994 1.994 0 0 1-1.994 1.995zm-70.543-3.988h68.549v-4.9a3.073 3.073 0 0 0-3.07-3.071h-62.41a3.074 3.074 0 0 0-3.069 3.071z" class="cls-1" transform="translate(-685.132 -393.857)"/>
                        </g>
                        <g id="그룹_265" transform="translate(0 11.964)">
                            <path id="패스_390" d="M759.664 425.464h-72.537a1.994 1.994 0 0 1-1.995-1.994v-9.1a1.994 1.994 0 0 1 1.995-1.994h72.537a1.994 1.994 0 0 1 1.994 1.994v9.1a1.994 1.994 0 0 1-1.994 1.994zm-70.543-3.988h68.549v-5.109h-68.55z" class="cls-1" transform="translate(-685.132 -412.379)"/>
                        </g>
                    </g>
                    <path id="패스_391" d="M722.552 452.463h-19.334a1.994 1.994 0 0 1 0-3.988h19.335a1.994 1.994 0 0 1 0 3.988z" class="cls-1" transform="translate(-690.83 -413.197)"/>
                    <path id="패스_392" d="M722.552 463.909h-19.334a1.994 1.994 0 0 1 0-3.988h19.335a1.994 1.994 0 0 1 0 3.988z" class="cls-1" transform="translate(-690.83 -417.249)"/>
                </g>
                <g id="그룹_273" transform="translate(34.567)">
                    <g id="그룹_268">
                        <path id="패스_393" d="M797.851 374.645a27.722 27.722 0 1 0-27.723 27.722 27.723 27.723 0 0 0 27.723-27.722z" class="cls-2" transform="translate(-740.412 -344.928)"/>
                        <path id="패스_394" d="M769.035 403.268a29.716 29.716 0 1 1 29.717-29.716 29.749 29.749 0 0 1-29.717 29.716zm0-55.444a25.728 25.728 0 1 0 25.729 25.728 25.757 25.757 0 0 0-25.729-25.728z" class="cls-1" transform="translate(-739.319 -343.835)"/>
                    </g>
                    <g id="그룹_272" transform="translate(8.934 8.934)">
                        <path id="패스_395" d="M794.714 378.449a20.782 20.782 0 1 0-20.783 20.782 20.783 20.783 0 0 0 20.783-20.782z" class="cls-1" transform="translate(-753.15 -357.666)"/>
                        <g id="그룹_271" transform="translate(12.982 4.153)">
                            <g id="그룹_269" transform="translate(5.805)">
                                <path id="사각형_247" d="M1.994 0a1.994 1.994 0 0 1 1.994 1.994V4.35a1.994 1.994 0 0 1-1.994 1.994A1.993 1.993 0 0 1 0 4.351V1.994A1.994 1.994 0 0 1 1.994 0z" class="cls-2"/>
                                <path id="사각형_248" d="M1.994 0a1.993 1.993 0 0 1 1.994 1.993v2.355a1.994 1.994 0 0 1-1.994 1.994A1.994 1.994 0 0 1 0 4.348V1.994A1.994 1.994 0 0 1 1.994 0z" class="cls-2" transform="translate(0 26.917)"/>
                            </g>
                            <g id="그룹_270" transform="translate(0 3.042)">
                                <path id="패스_396" d="M781.049 384.406a7.8 7.8 0 1 1 7.8-7.8 1.994 1.994 0 1 1-3.988 0 3.813 3.813 0 1 0-3.813 3.814 1.994 1.994 0 1 1 0 3.988z" class="cls-2" transform="translate(-773.249 -368.805)"/>
                                <path id="패스_397" d="M781.044 402.325a7.8 7.8 0 0 1-7.8-7.8 1.994 1.994 0 1 1 3.988 0 3.811 3.811 0 0 0 3.808 3.81 3.812 3.812 0 1 0 0-7.624 1.994 1.994 0 1 1 0-3.988 7.8 7.8 0 1 1 0 15.6z" class="cls-2" transform="translate(-773.249 -375.15)"/>
                            </g>
                        </g>
                    </g>
                </g>
            </g>
            <path id="패스_398" d="M712.59 361.112h-25.463a1.994 1.994 0 1 1 0-3.988h25.463a1.994 1.994 0 0 1 0 3.988z" class="cls-1" transform="translate(-685.132 -348.54)"/>
            <path id="패스_399" d="M704.077 375.777h-16.95a1.994 1.994 0 1 1 0-3.988h16.951a1.994 1.994 0 0 1 0 3.988z" class="cls-1" transform="translate(-685.132 -353.749)"/>
        </g>
    </g>
</svg>
