<svg xmlns="http://www.w3.org/2000/svg" width="72" height="72" viewBox="0 0 72 72">
    <path data-name="사각형 2626" style="fill:none" d="M0 0h72v72H0z"/>
    <g data-name="그룹 32895" transform="translate(-31.812 -431.628)">
        <path data-name="패스 48655" d="M44.928 488.233a5.7 5.7 0 0 1-.047-.734v-31.886" transform="translate(6.994 8.581)" style="stroke-linecap:round;stroke-linejoin:round;stroke:#e1e1e1;stroke-width:2.5px;fill:none"/>
        <path data-name="패스 48656" d="M64.014 455.613v31.871a5.547 5.547 0 0 1-.07.894" transform="translate(19.016 8.581)" style="stroke-linecap:round;stroke-linejoin:round;stroke:#e1e1e1;stroke-width:2.5px;fill:none"/>
        <path data-name="패스 48657" d="M67.956 458.926H70.7c1.677 0 3.037 2.614 3.037 5.839v21.745a11.049 11.049 0 0 1-.062 1.175" transform="translate(25.049 9.192)" style="stroke-linecap:round;stroke-linejoin:round;stroke:#e1e1e1;stroke-width:2.5px;fill:none"/>
        <path data-name="선 795" transform="translate(83.256 468.195)" style="stroke-linecap:round;stroke-linejoin:round;stroke:#e1e1e1;stroke-width:2.5px;fill:none" d="M0 0h5.59"/>
        <path data-name="패스 48658" d="M35.468 487.781a6.96 6.96 0 0 1-.119-1.289v-21.731c0-3.222 2.183-5.835 4.877-5.835h10.647" transform="translate(.982 9.192)" style="stroke-linecap:round;stroke-linejoin:round;stroke:#e1e1e1;stroke-width:2.5px;fill:none"/>
        <path data-name="선 796" transform="translate(33.813 498.627)" style="stroke-linecap:round;stroke-linejoin:round;stroke:#e1e1e1;stroke-width:2.5px;fill:none" d="M0 0h68"/>
        <g data-name="그룹 32897">
            <path data-name="패스 48661" d="M64.5 466.031v8.569a2.626 2.626 0 0 1-2.772 2.449h-9.287a2.626 2.626 0 0 1-2.772-2.449" transform="translate(10.013 15.109)" style="stroke-linecap:round;stroke-linejoin:round;stroke:#e1e1e1;stroke-width:2.5px;fill:none"/>
            <path data-name="패스 48662" d="M49.669 473.134v-7.872a2.534 2.534 0 0 1 2.772-2.193h9.288a2.534 2.534 0 0 1 2.772 2.193" transform="translate(10.013 11.789)" style="stroke-linecap:round;stroke-linejoin:round;stroke:#e1e1e1;stroke-width:2.5px;fill:none"/>
            <path data-name="선 797" transform="translate(67.098 474.858)" style="stroke-linecap:round;stroke-linejoin:round;stroke:#e1e1e1;stroke-width:2.5px;fill:none" d="M0 0v17.299"/>
        </g>
        <path data-name="패스 48663" d="M65.086 445.315h1.371a4.11 4.11 0 0 1 4.111 4.111v15.354a4.111 4.111 0 0 1-4.111 4.111H51.1a4.111 4.111 0 0 1-4.111-4.111v-15.354a4.11 4.11 0 0 1 4.111-4.111h10.772" transform="translate(8.325 -5.189)" style="stroke-linecap:round;stroke-linejoin:round;stroke:#e1e1e1;stroke-width:2.5px;fill:none"/>
        <path data-name="패스 48665" d="M60.688 452.89h-1.614v-3.543a.922.922 0 0 0-.921-.923h-2.659a.922.922 0 0 0-.921.923v3.543h-3.545a.923.923 0 0 0-.923.923v2.658a.922.922 0 0 0 .923.921h3.545v3.545a.921.921 0 0 0 .921.921h2.658a.921.921 0 0 0 .921-.921v-3.545h3.545a.921.921 0 0 0 .921-.921v-2.658a.923.923 0 0 0-.921-.923h-.551" transform="translate(10.288 -3.228)" style="stroke-linecap:round;stroke-linejoin:round;stroke:#e1e1e1;stroke-width:2.5px;fill:none"/>
        <path data-name="패스 48666" d="M42.788 461.915h.269a1.125 1.125 0 0 1 1.124 1.123v3.627a1.123 1.123 0 0 1-1.124 1.122h-3.626a1.122 1.122 0 0 1-1.122-1.122v-3.627a1.123 1.123 0 0 1 1.122-1.123h.885" transform="translate(2.849 17.958)" style="stroke-linecap:round;stroke-linejoin:round;stroke:#e1e1e1;stroke-width:2.5px;fill:none"/>
        <rect data-name="사각형 4920" width="5.872" height="5.872" rx=".688" transform="translate(88.083 479.874)" style="stroke-linecap:round;stroke-linejoin:round;stroke:#e1e1e1;stroke-width:2.5px;fill:none"/>
        <path data-name="패스 48667" d="M61.45 452.922h4.321a1.846 1.846 0 0 1 1.846 1.846v.2a1.846 1.846 0 0 1-1.846 1.846H61.45" transform="translate(17.443 6.885)" style="stroke-miterlimit:10;stroke:#e1e1e1;stroke-width:2.5px;fill:none"/>
        <path data-name="패스 48668" d="M49.377 456.818h-4.321a1.846 1.846 0 0 1-1.846-1.846v-.2a1.846 1.846 0 0 1 1.846-1.846h4.321" transform="translate(5.94 6.885)" style="stroke-miterlimit:10;stroke:#e1e1e1;stroke-width:2.5px;fill:none"/>
    </g>
</svg>
