<svg xmlns="http://www.w3.org/2000/svg" width="37.999" height="38">
    <defs>
        <style>
            .cls-1{fill:#e1e1e1;stroke:#e1e1e1;stroke-width:.5px}
        </style>
    </defs>
    <g id="그룹_2762" data-name="그룹 2762" transform="translate(-748.667 -721.454)">
        <g id="그룹_2759" data-name="그룹 2759" transform="translate(761.201 733.989)">
            <path id="패스_4311" data-name="패스 4311" class="cls-1" d="M757.311 742.3a.727.727 0 0 1-.515-1.241l11.474-11.476a.728.728 0 0 1 1.029 1.029l-11.474 11.476a.729.729 0 0 1-.514.212z" transform="translate(-756.583 -729.369)"/>
            <path id="패스_4312" data-name="패스 4312" class="cls-1" d="M768.785 742.3a.732.732 0 0 1-.515-.212L756.8 730.61a.728.728 0 0 1 1.029-1.029l11.471 11.476a.727.727 0 0 1-.515 1.241z" transform="translate(-756.583 -729.369)"/>
        </g>
        <g id="그룹_2761" data-name="그룹 2761" transform="translate(748.667 721.454)">
            <g id="그룹_2760" data-name="그룹 2760">
                <path id="패스_4313" data-name="패스 4313" d="M767.684 759.454a18.977 18.977 0 0 1-9.525-2.556l-7.958 2.133a.894.894 0 0 1-1.1-1.1l2.133-7.958a19 19 0 1 1 16.446 9.476zm-9.394-4.412a.88.88 0 0 1 .464.131 17.215 17.215 0 1 0-5.792-5.793.886.886 0 0 1 .1.7l-1.829 6.827 6.826-1.829a.882.882 0 0 1 .231-.036z" transform="translate(-748.666 -721.454)" style="fill:#e1e1e1"/>
            </g>
        </g>
    </g>
</svg>
