<svg xmlns="http://www.w3.org/2000/svg" width="60" height="60" viewBox="0 0 60 60">
    <defs>
        <style>
            .cls-2{fill:#bc8877}
        </style>
    </defs>
    <g id="그룹_302" transform="translate(-439 -717.963)">
        <g id="그룹_300">
            <path id="패스_439" d="M473.914 758.649a4.942 4.942 0 1 1 4.947-4.941 4.95 4.95 0 0 1-4.947 4.941zm0-8.753a3.812 3.812 0 1 0 3.816 3.812 3.818 3.818 0 0 0-3.816-3.808z" class="cls-2"/>
            <path id="패스_440" d="M479.435 759.962a.564.564 0 0 1-.4-.165l-2.454-2.451a.565.565 0 1 1 .8-.8l2.453 2.454a.564.564 0 0 1-.4.964z" class="cls-2"/>
        </g>
        <g id="그룹_301">
            <path id="패스_441" d="M467.907 748.07a6.054 6.054 0 1 1 6.06-6.054 6.065 6.065 0 0 1-6.06 6.054zm0-10.978a4.924 4.924 0 1 0 4.929 4.924 4.933 4.933 0 0 0-4.929-4.924z" class="cls-2"/>
            <path id="패스_442" d="M469.809 758.656h-11.244a.565.565 0 0 1-.565-.565 9.916 9.916 0 0 1 12.449-9.567.565.565 0 1 1-.29 1.092 8.783 8.783 0 0 0-11.01 7.91h10.66a.565.565 0 0 1 0 1.13z" class="cls-2"/>
        </g>
    </g>
</svg>
