<svg xmlns="http://www.w3.org/2000/svg" width="40" height="36.032" viewBox="0 0 40 36.032">
    <g>
        <path fill="#fff" stroke="#5f9edc" stroke-width="2px" d="M98.292 103H67.708c-2.047 0-3.708 1.292-3.708 2.884v20.5L81.733 136.5l.573.326a1.447 1.447 0 0 0 1.388 0l.573-.326L102 126.382v-20.5c0-1.59-1.661-2.882-3.708-2.882z" transform="translate(11335 16453) translate(-11398 -16555)"/>
        <path fill="#3880c7" d="M1.128-8.88v1.26h3.684C4.584-5.172 3.36-3.444.54-2.088L1.368-.84C5.292-2.736 6.432-5.5 6.432-8.88zm7-1.152V1.02h1.6v-11.052zm3.228.84v1.26h3.6c-.252 1.548-1.62 2.832-4.08 3.5l.66 1.26c3.288-.948 5.136-3.024 5.136-6.024zM14.1-2.9h-1.584V.84h7.512V-.42H14.1zm5.544-4.032v-3.088H18.06v7.908h1.584V-5.64h1.476v-1.3zm5.256-.7h1.608v-1.284h-4.92v1.284h1.776v.54A5.589 5.589 0 0 1 21.18-2.2l.936 1.164A5.13 5.13 0 0 0 24.144-4a4.532 4.532 0 0 0 1.968 2.7l.924-1.152c-1.6-.936-2.136-2.8-2.136-4.644zm2.244 1.38h-1.4v1.284h1.4v5.5h1.476V-9.84h-1.476zm2.232-3.78V1.02h1.5v-11.052z" transform="translate(11335 16453) translate(-11331.54 -16433)"/>
    </g>
</svg>
