<svg xmlns="http://www.w3.org/2000/svg" width="60" height="60" viewBox="0 0 60 60">
    <defs>
        <style>
            .cls-2{fill:#bc8877}
        </style>
    </defs>
    <g id="그룹_253" transform="translate(-193.25 -781.123)">
        <path id="패스_363" d="M224.271 802.034H214.1a.568.568 0 0 1 0-1.137h10.171a.568.568 0 0 1 0 1.137z" class="cls-2" transform="translate(2.235 1.776)"/>
        <path id="패스_364" d="M230.989 823.123h-19.175a.564.564 0 0 1-.564-.565v-22.87a.564.564 0 0 1 .564-.565h19.175a.564.564 0 0 1 .562.565v8.7a.563.563 0 1 1-1.127 0v-8.139h-18.045v21.74h18.61a.565.565 0 0 1 0 1.13z" class="cls-2"/>
        <g id="그룹_252" transform="translate(220.951 808.592)">
            <path id="패스_365" d="M222.56 816.708a6.392 6.392 0 1 1 6.391-6.393 6.4 6.4 0 0 1-6.391 6.393zm0-11.649a5.256 5.256 0 1 0 5.255 5.256 5.262 5.262 0 0 0-5.255-5.256z" class="cls-2" transform="translate(-216.167 -803.924)"/>
            <path id="패스_366" d="M224.944 813.385a.572.572 0 0 1-.4-.166l-3.262-3.261a.569.569 0 0 1 .8-.8l3.262 3.262a.568.568 0 0 1-.4.97z" class="cls-2" transform="translate(-211.214 -798.855)"/>
        </g>
    </g>
</svg>
