<svg xmlns="http://www.w3.org/2000/svg" width="60" height="60" viewBox="0 0 60 60">
    <defs>
        <style>
            .cls-2{fill:#bc8877}
        </style>
    </defs>
    <g id="그룹_259" transform="translate(-579.946 -717.889)">
        <path id="패스_372" d="M609.946 759.889a12 12 0 1 1 12-12 12.013 12.013 0 0 1-12 12zm0-22.87a10.871 10.871 0 1 0 10.871 10.87 10.882 10.882 0 0 0-10.871-10.87z" class="cls-2"/>
        <g id="그룹_258">
            <path id="패스_373" d="M617.033 749.187H602.86a.565.565 0 1 1 0-1.129h14.173a.565.565 0 1 1 0 1.129z" class="cls-2"/>
            <path id="패스_374" d="M612.934 753.529a.567.567 0 0 1-.534-.381l-2.455-7.131-2.454 7.131a.567.567 0 0 1-.534.381.566.566 0 0 1-.534-.381l-2.987-8.683a.565.565 0 1 1 1.068-.367l2.453 7.13 2.454-7.13a.565.565 0 0 1 1.068 0l2.455 7.131 2.455-7.131a.565.565 0 0 1 1.068.367l-2.989 8.683a.565.565 0 0 1-.534.381z" class="cls-2"/>
        </g>
    </g>
</svg>
