<svg xmlns="http://www.w3.org/2000/svg" width="40" height="36.032" viewBox="0 0 40 36.032">
  <defs>
    <style>
      .cls-1 {
        fill: #fff;
        stroke: #ffac63;
        stroke-width: 2px;
      }

      .cls-2 {
        fill: #f17800;
      }
    </style>
  </defs>
  <g id="icon_time_care" data-name="icon_time care" transform="translate(11285 16453)">
    <path id="패스_15249" data-name="패스 15249" class="cls-1" d="M98.292,103H67.708C65.661,103,64,104.292,64,105.884v20.5L81.733,136.5l.573.326a1.447,1.447,0,0,0,1.388,0l.573-.326L102,126.382v-20.5C102,104.292,100.339,103,98.292,103Z" transform="translate(-11348 -16555)"/>
    <path id="패스_15253" data-name="패스 15253" class="cls-2" d="M4.818-9.164H3.228V-7.55c0,2.157-.916,4.3-2.856,5.133L1.324-1.1a5.368,5.368,0,0,0,2.723-3.3A5.07,5.07,0,0,0,6.674-1.369l.9-1.289A5.088,5.088,0,0,1,4.818-7.55Zm3.3-.868V1.1H9.71V-10.032Zm3.277.843v1.265h3.615c-.253,1.554-1.627,2.844-4.1,3.518l.663,1.265c3.3-.952,5.157-3.036,5.157-6.048Zm2.759,6.314h-1.59V.884h7.543V-.381H14.156Zm5.567-4.048v-3.1h-1.59v7.94h1.59V-5.622H21.2v-1.3ZM25-7.622h1.615V-8.911h-4.94v1.289h1.783v.542a5.611,5.611,0,0,1-2.193,4.916L22.2-1a5.151,5.151,0,0,0,2.036-2.976A4.55,4.55,0,0,0,26.217-1.26l.928-1.157C25.542-3.357,25-5.225,25-7.08Zm2.253,1.386h-1.41v1.289h1.41V.571h1.482V-9.839H27.253Zm2.241-3.8v11.1H31v-11.1Z" transform="translate(-11281.113 -16433.082)"/>
  </g>
</svg>
