<svg id="_8.장루" data-name="8.장루" xmlns="http://www.w3.org/2000/svg" width="44" height="32.25" viewBox="0 0 44 32.25">
  <ellipse id="타원_65" data-name="타원 65" cx="12.069" cy="11.972" rx="12.069" ry="11.972" transform="translate(9.483 8.055)" fill="#fff"/>
  <path id="패스_1006" data-name="패스 1006" d="M1655.052,565.548a.535.535,0,0,1-.535-.535v-3.181a.536.536,0,0,1,1.072,0v3.181A.535.535,0,0,1,1655.052,565.548Z" transform="translate(-1633.49 -543.266)" fill="#555"/>
  <path id="패스_1007" data-name="패스 1007" d="M1642.67,580.689a.534.534,0,0,1-.257-.067.524.524,0,0,1-.211-.719c.077-.137,7.607-13.9,3.729-28.463a.529.529,0,0,1,.381-.647.536.536,0,0,1,.655.377c3.989,14.977-3.748,29.1-3.826,29.243A.538.538,0,0,1,1642.67,580.689Z" transform="translate(-1642.135 -550.777)" fill="#555"/>
  <path id="패스_1008" data-name="패스 1008" d="M1670.029,580.689a.534.534,0,0,1-.469-.274c-.078-.141-7.817-14.266-3.826-29.243a.537.537,0,0,1,.653-.377.528.528,0,0,1,.382.647c-3.882,14.572,3.652,28.325,3.729,28.462a.526.526,0,0,1-.21.719A.537.537,0,0,1,1670.029,580.689Z" transform="translate(-1626.565 -550.777)" fill="#555"/>
  <circle id="타원_66" data-name="타원 66" cx="5.516" cy="5.516" r="5.516" transform="translate(25.849 20.968)" fill="none" stroke="#a87463" stroke-miterlimit="10" stroke-width="0.5" stroke-dasharray="0.5 0.5"/>
</svg>
