<svg xmlns="http://www.w3.org/2000/svg" width="42.025" height="42.675" viewBox="0 0 42.025 42.675">
  <g id="_26.편마비" data-name="26.편마비" transform="translate(-1628.33 -260.304)">
    <path id="빼기_9" data-name="빼기 9" d="M20.226,41.552h-.011a19.241,19.241,0,0,1-3.567-.272,57.573,57.573,0,0,1-7.9-2.1V24.243c-.1-1.043-.437-1.262-.7-1.262a.782.782,0,0,0-.44.174C7.04,24.5,6.842,38.184,6.84,38.322L.129,32.59c-.208-2.678-.4-5.206,1.445-19.779A7.761,7.761,0,0,1,4.9,7.216,8.35,8.35,0,0,1,7.68,5.961a56.545,56.545,0,0,0,6.431-1.815A3.394,3.394,0,0,0,15.649,1.38V.031L20.226,0V41.55Z" transform="translate(1628.773 260.807)" fill="#fff" stroke="rgba(0,0,0,0)" stroke-miterlimit="10" stroke-width="1"/>
    <path id="패스_2373" data-name="패스 2373" d="M293.091,173.318a.419.419,0,0,1-.419-.419V158.583c.088-.941.349-1.466.8-1.644a1.059,1.059,0,0,1,1.025.223.412.412,0,0,1,.11.154c.587,1.417.777,12.84.8,14.137a.419.419,0,0,1-.412.425h-.007a.419.419,0,0,1-.419-.413c-.073-4.878-.318-12.39-.7-13.722a.172.172,0,0,0-.089-.026s-.195.112-.271.905l0,14.276A.419.419,0,0,1,293.091,173.318Z" transform="translate(1367.984 126.176)" fill="#555"/>
    <path id="패스_2374" data-name="패스 2374" d="M250.913,173.788a.419.419,0,0,1-.419-.419V158.582c-.074-.755-.267-.864-.269-.865a.165.165,0,0,0-.089.026c-.377,1.355-.622,9.279-.7,14.437a.4.4,0,0,1-.424.413.42.42,0,0,1-.413-.425c.02-1.371.209-13.437.8-14.853a.418.418,0,0,1,.111-.155,1.055,1.055,0,0,1,1.024-.222c.451.179.711.7.8,1.6l0,14.826A.419.419,0,0,1,250.913,173.788Z" transform="translate(1386.722 126.176)" fill="#555"/>
    <path id="패스_2375" data-name="패스 2375" d="M237.022,149.03a.418.418,0,0,1-.417-.387c-.207-2.744-.4-5.336,1.433-20.195a8.522,8.522,0,0,1,6.376-7.325,53.179,53.179,0,0,0,6.272-1.816,3.056,3.056,0,0,0,1.279-2.432V115.5a.419.419,0,1,1,.837,0v1.372a3.861,3.861,0,0,1-1.731,3.176.449.449,0,0,1-.07.032,53.811,53.811,0,0,1-6.438,1.863,7.55,7.55,0,0,0-5.694,6.6c-1.825,14.777-1.633,17.328-1.429,20.03a.418.418,0,0,1-.386.449Z" transform="translate(1391.879 145.336)" fill="#555"/>
    <path id="패스_2376" data-name="패스 2376" d="M296.226,148.98h-.032a.418.418,0,0,1-.386-.449c.2-2.7.4-5.259-1.429-20.03a7.549,7.549,0,0,0-5.711-6.606,53.818,53.818,0,0,1-6.42-1.86.447.447,0,0,1-.07-.032,3.859,3.859,0,0,1-1.733-3.176v-1.435a.419.419,0,1,1,.837,0v1.435a3.081,3.081,0,0,0,1.28,2.432,53.221,53.221,0,0,0,6.255,1.814,8.518,8.518,0,0,1,6.392,7.328c1.836,14.853,1.64,17.448,1.433,20.195A.418.418,0,0,1,296.226,148.98Z" transform="translate(1373.583 145.387)" fill="#555"/>
    <g id="그룹_1898" data-name="그룹 1898" transform="translate(1639.56 271.505)">
      <path id="패스_2339" data-name="패스 2339" d="M1698.183,657.066a.332.332,0,0,1-.211-.076,35.723,35.723,0,0,1-5.744-4.823.326.326,0,0,1,.023-.464.336.336,0,0,1,.47.024,34.691,34.691,0,0,0,5.462,4.61c1.137-.782,6.875-4.852,7.511-7.877.574-2.729-.919-4.23-2.371-4.687a3.916,3.916,0,0,0-4.8,2.365.334.334,0,0,1-.61,0,3.928,3.928,0,0,0-4.824-2.363c-1.457.457-2.955,1.959-2.382,4.685a.329.329,0,0,1-.258.39.333.333,0,0,1-.394-.255,4.4,4.4,0,0,1,2.832-5.447,7.712,7.712,0,0,0,10.641,0c1.852.582,3.443,2.492,2.822,5.448-.725,3.449-7.1,7.826-7.951,8.4A.336.336,0,0,1,1698.183,657.066Z" transform="translate(-1688.011 -642.941)" fill="#555"/>
      <path id="패스_2340" data-name="패스 2340" d="M1694.917,654.923h-.025a.35.35,0,0,1-.316-.268l-.872-3.658-.566,1.837a.333.333,0,0,1-.335.228h-5.5a.35.35,0,1,1,0-.7h5.237l.867-2.822a.344.344,0,0,1,.345-.238.355.355,0,0,1,.33.274l.912,3.832.553-1.407a.35.35,0,0,1,.3-.22.335.335,0,0,1,.329.16l.634,1.122h2.683a.35.35,0,0,1,0,.7h-2.888a.333.333,0,0,1-.305-.16l-.374-.663-.69,1.76A.354.354,0,0,1,1694.917,654.923Z" transform="translate(-1686.958 -645.594)" fill="#bc8877"/>
    </g>
  </g>
</svg>
