<svg id="_24.마비" data-name="24.마비" xmlns="http://www.w3.org/2000/svg" width="44" height="34" viewBox="0 0 44 34">
  <path id="패스_2339" data-name="패스 2339" d="M1709.652,676.941a.785.785,0,0,1-.5-.182,85.409,85.409,0,0,1-13.711-11.609.793.793,0,1,1,1.179-1.061,82.991,82.991,0,0,0,13.037,11.1c2.716-1.882,16.411-11.678,17.929-18.959,1.37-6.568-2.194-10.182-5.661-11.281-3.8-1.2-9.01.064-11.467,5.693a.795.795,0,0,1-1.456,0c-2.46-5.636-7.693-6.9-11.515-5.689-3.478,1.1-7.053,4.716-5.686,11.277a.795.795,0,0,1-1.556.324c-1.481-7.107,2.328-11.707,6.761-13.111a10.785,10.785,0,0,1,12.724,5.123,10.746,10.746,0,0,1,12.676-5.126c4.421,1.4,8.219,6,6.736,13.114-1.732,8.3-16.949,18.838-18.979,20.211A.8.8,0,0,1,1709.652,676.941Z" transform="translate(-1685.463 -642.941)" fill="#555"/>
  <path id="패스_2340" data-name="패스 2340" d="M1705.571,662.448l-.058,0a.817.817,0,0,1-.738-.626l-2.039-8.555-1.323,4.3a.78.78,0,0,1-.783.533h-12.853a.818.818,0,1,1,0-1.635h12.247l2.026-6.6a.8.8,0,0,1,.807-.557.831.831,0,0,1,.771.64l2.133,8.96,1.295-3.29a.818.818,0,0,1,.706-.515.783.783,0,0,1,.769.373l1.483,2.623h6.273a.818.818,0,0,1,0,1.637h-6.754a.778.778,0,0,1-.714-.375l-.875-1.551-1.614,4.115A.829.829,0,0,1,1705.571,662.448Z" transform="translate(-1686.958 -640.21)" fill="#bc8877"/>
</svg>
