<svg xmlns="http://www.w3.org/2000/svg" width="66" height="66">
    <defs>
        <style>
            .cls-1{fill:none}.cls-4,.cls-7{fill:#fff}.cls-3{fill:#e1e1e1}.cls-3,.cls-4,.cls-5{stroke:#aeb0b5;stroke-linecap:round;stroke-linejoin:round;stroke-width:1.7px}.cls-5{fill:#c3e0fc}.cls-7{stroke:#fff}
        </style>
    </defs>
    <g id="img_novac" transform="translate(-147 -411)">
        <path id="사각형_3100" data-name="사각형 3100" class="cls-1" transform="translate(147 411)" d="M0 0h66v66H0z"/>
        <g id="그룹_7905" data-name="그룹 7905" transform="translate(108.48 -32.52)">
            <g id="타원_793" data-name="타원 793" transform="translate(40.52 445.52)" style="stroke:#e1e1e1;stroke-width:1.25px;fill:#fff">
                <circle cx="31" cy="31" r="31" style="stroke:none"/>
                <circle class="cls-1" cx="31" cy="31" r="30.375"/>
            </g>
            <g id="그룹_7380" data-name="그룹 7380" transform="translate(54.384 459.384)">
                <path id="사각형_2894" data-name="사각형 2894" class="cls-3" transform="rotate(135 10.254 21.284)" d="M0 0h4.909v7.079H0z"/>
                <path id="사각형_2895" data-name="사각형 2895" class="cls-4" transform="rotate(135 10.188 17.164)" d="M0 0h10.51v23.976H0z"/>
                <path id="사각형_2896" data-name="사각형 2896" class="cls-3" transform="rotate(135 3.823 5.757)" d="M0 0h4.909v5.612H0z"/>
                <path id="선_611" data-name="선 611" class="cls-5" d="M4.891 4.891 0 0"/>
                <path id="선_612" data-name="선 612" class="cls-4" transform="translate(27.103 27.103)" d="M7.432 0 0 7.432"/>
                <path id="선_613" data-name="선 613" class="cls-5" transform="translate(17.327 22.437)" d="M0 2.321 2.321 0"/>
                <path id="선_614" data-name="선 614" class="cls-5" transform="translate(14.647 19.757)" d="M0 2.321 2.321 0"/>
                <path id="선_615" data-name="선 615" class="cls-5" transform="translate(11.967 17.078)" d="M0 2.321 2.321 0"/>
                <path id="선_616" data-name="선 616" class="cls-5" transform="translate(9.288 14.398)" d="M0 2.321 2.321 0"/>
            </g>
        </g>
        <g id="icon_end" transform="translate(39.541 353.54)">
            <circle id="타원_9" data-name="타원 9" cx="12" cy="12" r="12" transform="translate(149.46 99.46)" style="fill:#dc3545"/>
        </g>
        <g id="그룹_7907" data-name="그룹 7907" transform="translate(-172.991 -93.703)">
            <path id="패스_21732" data-name="패스 21732" class="cls-7" d="M370.389 562.925a.466.466 0 0 1-.33-.8l7.357-7.357a.467.467 0 0 1 .66.66l-7.357 7.357a.465.465 0 0 1-.33.14z"/>
            <path id="패스_21733" data-name="패스 21733" class="cls-7" d="M377.746 562.925a.465.465 0 0 1-.33-.136l-7.357-7.357a.467.467 0 0 1 .66-.66l7.357 7.357a.466.466 0 0 1-.33.8z"/>
        </g>
    </g>
</svg>
