<svg xmlns="http://www.w3.org/2000/svg" width="80" height="80" viewBox="0 0 80 80">
  <g id="icon_uniform" transform="translate(-48.424 -694.424)">
    <rect id="사각형_10579" data-name="사각형 10579" width="80" height="80" transform="translate(48.424 694.424)" fill="none"/>
    <g id="그룹_33549" data-name="그룹 33549" transform="translate(51.726 698.549)">
      <path id="패스_53871" data-name="패스 53871" d="M216.18,326.245V291.071s4.64-7.658,11.156-7.968c0,0,1.877,16.347,30.062,14.05,0,0,5.742-.807,5.742,6.69V326.17Z" transform="translate(-208.3 -254.956)" fill="#7e4f40" opacity="0.7"/>
      <path id="타원_1316" data-name="타원 1316" d="M9.166-.5A9.951,9.951,0,0,1,18.833,9.693,9.951,9.951,0,0,1,9.166,19.885,9.951,9.951,0,0,1-.5,9.693,9.951,9.951,0,0,1,9.166-.5Zm0,18.478a8.044,8.044,0,0,0,7.759-8.286A8.044,8.044,0,0,0,9.166,1.407,8.044,8.044,0,0,0,1.407,9.693,8.044,8.044,0,0,0,9.166,17.978Z" transform="translate(27.531 0.5)" fill="#333"/>
      <path id="패스_53872" data-name="패스 53872" d="M285.332,329.11a.954.954,0,0,1-.954-.954V312.088a28.929,28.929,0,0,0-28.9-28.895H243.692A28.928,28.928,0,0,0,214.8,312.088v16.068a.954.954,0,1,1-1.907,0V312.088a30.428,30.428,0,0,1,2.431-11.962,31.091,31.091,0,0,1,16.408-16.409,30.428,30.428,0,0,1,11.963-2.431h11.789a30.432,30.432,0,0,1,11.964,2.431,31.1,31.1,0,0,1,16.41,16.409,30.425,30.425,0,0,1,2.431,11.962v16.068A.954.954,0,0,1,285.332,329.11Z" transform="translate(-212.89 -257.361)" fill="#333"/>
      <path id="패스_53873" data-name="패스 53873" d="M230.72,296.334a.954.954,0,0,1-.318-1.853,16.625,16.625,0,0,0,10.477-11.527.954.954,0,0,1,1.851.46,18.426,18.426,0,0,1-11.691,12.865A.953.953,0,0,1,230.72,296.334Z" transform="translate(-187.873 -255.962)" fill="#333"/>
      <path id="패스_53874" data-name="패스 53874" d="M216.634,316.828a.954.954,0,0,1-.954-.954v-29.29a.954.954,0,1,1,1.907,0v29.29A.954.954,0,0,1,216.634,316.828Z" transform="translate(-208.753 -250.921)" fill="#333"/>
      <path id="패스_53874-2" data-name="패스 53874" d="M216.634,316.828a.954.954,0,0,1-.954-.954v-29.29a.954.954,0,1,1,1.907,0v29.29A.954.954,0,0,1,216.634,316.828Z" transform="translate(-208.753 -245.079)" fill="#333"/>
      <path id="선_1035" data-name="선 1035" d="M.454,30.443A.954.954,0,0,1-.5,29.49V.454a.954.954,0,0,1,1.907,0V29.49A.954.954,0,0,1,.454,30.443Z" transform="translate(64.655 35.295)" fill="#333"/>
      <path id="선_1035-2" data-name="선 1035" d="M.454,30.443A.954.954,0,0,1-.5,29.49V.454a.954.954,0,0,1,1.907,0V29.49A.954.954,0,0,1,.454,30.443Z" transform="translate(64.655 41.137)" fill="#333"/>
      <path id="패스_53876" data-name="패스 53876" d="M256.625,327.289a.954.954,0,0,1-.954-.954l-.048-24.236a3.26,3.26,0,0,0-3.326-3.182h-3.045l-1.458.034h-.01a43.569,43.569,0,0,1-15.42-2.211,21.005,21.005,0,0,1-8.329-5.311,14.015,14.015,0,0,1-3.891-8.064.954.954,0,0,1,1.9-.107h0a12.408,12.408,0,0,0,3.478,6.973c4.323,4.589,12.008,6.944,22.229,6.813l1.464-.035H252.3a5.169,5.169,0,0,1,5.233,5.089l.048,24.236A.954.954,0,0,1,256.625,327.289Z" transform="translate(-202.14 -255.766)" fill="#333"/>
      <path id="패스_53877" data-name="패스 53877" d="M230.413,306.761l-2.468-1.983a13.441,13.441,0,0,1,2.122-2.77,20.35,20.35,0,0,1,3.835-3.25c.563-.437,2.219-1.425,2.688-2.425a2.634,2.634,0,0,0-.231-2.612,2.873,2.873,0,0,0-2.741-.866c-1.293.3-2.075,1.413-2.813,3.485a10.057,10.057,0,0,1-1.827,3.475,6.313,6.313,0,0,1-2.84,1.807,5.86,5.86,0,0,1-2.9.117,5.629,5.629,0,0,1-2.564-1.3,6.433,6.433,0,0,1-2.068-4.573,5.755,5.755,0,0,1,1.9-4.342,5.853,5.853,0,0,1,2.922-1.569,5.418,5.418,0,0,1,2.626.154,6.784,6.784,0,0,1,2.45,1.36l-1.981,2.155.01.007a3.926,3.926,0,0,0-1.4-.742,2.565,2.565,0,0,0-2.614.762,2.861,2.861,0,0,0-.978,2.172,3.5,3.5,0,0,0,1.09,2.433,2.821,2.821,0,0,0,2.676.559c.735-.219,1.874-.988,2.676-3.237a10.2,10.2,0,0,1,1.966-3.786,5.947,5.947,0,0,1,3.006-1.79,5.794,5.794,0,0,1,5.605,1.782,5.1,5.1,0,0,1,1.328,3.773,5.514,5.514,0,0,1-1.988,3.716c-1.115,1.018-2.6,1.872-4.218,3.458a16.616,16.616,0,0,0-3.267,4.026" transform="translate(-204.7 -242.844)" fill="#fff"/>
    </g>
  </g>
</svg>
