<svg xmlns="http://www.w3.org/2000/svg" width="37" height="45" viewBox="0 0 37 45">
  <g id="_16.치매" data-name="16.치매" transform="translate(0.5 0.5)">
    <path id="패스_1009" data-name="패스 1009" d="M1579.976,639.063V624.757a16.1,16.1,0,1,0-24.245-17.537l-4.287,11.61h3.5v4a4.437,4.437,0,0,0,4.437,4.438h3.707v11.79" transform="translate(-1551.443 -595.063)" fill="#fff" stroke="#555" stroke-linecap="round" stroke-linejoin="round" stroke-width="1"/>
    <g id="그룹_720" data-name="그룹 720" transform="translate(7.848 6.233)">
      <g id="그룹_719" data-name="그룹 719">
        <path id="패스_1010" data-name="패스 1010" d="M1562.259,609.355a4.7,4.7,0,0,1-5.155-7.657,4.751,4.751,0,0,1,1.495-1.008,4.7,4.7,0,0,1,6.533,4.333" transform="translate(-1555.727 -597.002)" fill="none" stroke="#555" stroke-linecap="round" stroke-linejoin="round" stroke-width="1"/>
        <path id="패스_1011" data-name="패스 1011" d="M1562.455,601.521a4.714,4.714,0,0,1,2.5-2.5,4.7,4.7,0,0,1,6.162,6.162" transform="translate(-1550.233 -598.367)" fill="none" stroke="#555" stroke-linecap="round" stroke-linejoin="round" stroke-width="1"/>
        <path id="패스_1012" data-name="패스 1012" d="M1564.956,610.937c-3.673.441-5.535-1.611-5.535-3.869s2.167-4.213,5.142-4.213" transform="translate(-1552.71 -594.933)" fill="none" stroke="#555" stroke-linecap="round" stroke-linejoin="round" stroke-width="1"/>
        <path id="패스_1013" data-name="패스 1013" d="M1565.218,605.106" transform="translate(-1547.977 -593.095)" fill="none" stroke="#555" stroke-linecap="round" stroke-linejoin="round" stroke-width="1"/>
        <path id="패스_1014" data-name="패스 1014" d="M1557.7,602.909a4.28,4.28,0,0,0,3.575,1.862" transform="translate(-1554.119 -594.889)" fill="none" stroke="#555" stroke-linecap="round" stroke-linejoin="round" stroke-width="1"/>
        <path id="패스_1015" data-name="패스 1015" d="M1558.073,601.57a4.35,4.35,0,0,1,5.339-2.6" transform="translate(-1553.811 -598.251)" fill="none" stroke="#555" stroke-linecap="round" stroke-linejoin="round" stroke-width="1"/>
        <path id="패스_1016" data-name="패스 1016" d="M1560.634,600.2s1.028-2.792,6.367-1.224" transform="translate(-1551.72 -598.494)" fill="none" stroke="#555" stroke-linecap="round" stroke-linejoin="round" stroke-width="1"/>
        <path id="패스_1017" data-name="패스 1017" d="M1563.276,604.718s1.96-1.371.491-3.965" transform="translate(-1549.563 -596.649)" fill="none" stroke="#555" stroke-linecap="round" stroke-linejoin="round" stroke-width="1"/>
        <path id="패스_1018" data-name="패스 1018" d="M1563.843,602.873s2.4.392,2.692-2.5" transform="translate(-1549.099 -596.958)" fill="none" stroke="#555" stroke-linecap="round" stroke-linejoin="round" stroke-width="1"/>
        <path id="패스_1019" data-name="패스 1019" d="M1560.552,602.969s2.108-.341,1.764-3.134" transform="translate(-1551.786 -597.398)" fill="none" stroke="#555" stroke-linecap="round" stroke-linejoin="round" stroke-width="1"/>
        <path id="패스_1020" data-name="패스 1020" d="M1565.191,606.067a4.448,4.448,0,0,0,3.379-2.888" transform="translate(-1547.999 -594.668)" fill="none" stroke="#555" stroke-linecap="round" stroke-linejoin="round" stroke-width="1"/>
        <path id="패스_1021" data-name="패스 1021" d="M1566.485,604.1s1.762-.195,2.252,2.3" transform="translate(-1546.943 -593.922)" fill="none" stroke="#555" stroke-linecap="round" stroke-linejoin="round" stroke-width="1"/>
        <line id="선_162" data-name="선 162" x2="3.134" y2="5.338" transform="translate(11.706 14.681)" fill="none" stroke="#555" stroke-linecap="round" stroke-linejoin="round" stroke-width="1"/>
        <line id="선_163" data-name="선 163" x2="3.134" y2="5.338" transform="translate(14.155 13.849)" fill="none" stroke="#555" stroke-linecap="round" stroke-linejoin="round" stroke-width="1"/>
        <path id="패스_1022" data-name="패스 1022" d="M1564.382,608.522s2.547.834,4.162-2.351" transform="translate(-1548.66 -592.225)" fill="none" stroke="#555" stroke-linecap="round" stroke-linejoin="round" stroke-width="1"/>
        <path id="패스_1023" data-name="패스 1023" d="M1566.107,607.078a3.832,3.832,0,0,0,3.722,2.2c2.743-.147,3.575-4.554.441-6.318" transform="translate(-1547.251 -594.845)" fill="none" stroke="#555" stroke-linecap="round" stroke-linejoin="round" stroke-width="1"/>
        <path id="패스_1024" data-name="패스 1024" d="M1567.132,600.078s5.337.1,3.673,6.416" transform="translate(-1546.414 -597.2)" fill="none" stroke="#555" stroke-linecap="round" stroke-linejoin="round" stroke-width="1"/>
      </g>
      <path id="패스_1025" data-name="패스 1025" d="M1561.5,604.635a3.62,3.62,0,0,0,4.505.049" transform="translate(-1551.015 -593.479)" fill="none" stroke="#555" stroke-linecap="round" stroke-linejoin="round" stroke-width="1"/>
    </g>
  </g>
</svg>
