<svg xmlns="http://www.w3.org/2000/svg" width="42.75" height="42.75" viewBox="0 0 42.75 42.75">
  <g id="_17.섬망" data-name="17.섬망" transform="translate(-532.88 -80.625)">
    <ellipse id="타원_62" data-name="타원 62" cx="3.994" cy="3.928" rx="3.994" ry="3.928" transform="translate(546.237 98.138)" fill="#fff" stroke="#555" stroke-miterlimit="10" stroke-width="0.75"/>
    <path id="패스_992" data-name="패스 992" d="M1901.014,544.609a8.877,8.877,0,0,0-8.951,8.8,8.687,8.687,0,0,0,2.437,6.023l-2.437,3.987,4.59-2.328a9.015,9.015,0,0,0,4.361,1.12,8.8,8.8,0,1,0,0-17.6Z" transform="translate(-1334.71 -463.609)" fill="#bc8877" stroke="#555" stroke-linecap="round" stroke-linejoin="round" stroke-width="0.75"/>
    <path id="패스_993" data-name="패스 993" d="M1894.906,568.091a3.359,3.359,0,0,0-3.378-3.321h-5.594a3.359,3.359,0,0,0-3.377,3.321l.535,10.466h11.279Z" transform="translate(-1338.5 -455.557)" fill="#fff" stroke="#555" stroke-linecap="round" stroke-linejoin="round" stroke-width="0.75"/>
    <path id="패스_994" data-name="패스 994" d="M1900.022,547.671s-4.372,1.406-2.91,2.913,7.745-.647,5.339-1.093-11.386,3.074-5.431,4.652,3.559-7.17.257-6.472-2.451,5.957,4.115,6.908.6-4.906-3.21-2.661-1.306,6.666,2.788,4.33,4.9-7.526.411-7.5-5.225,5.543-1.121,6.493,3.163-5.315,1.029-5.29" transform="translate(-1333.525 -462.396)" fill="none" stroke="#fff" stroke-linecap="round" stroke-linejoin="round" stroke-width="0.25"/>
    <line id="선_158" data-name="선 158" x2="35.565" transform="translate(533.255 122.999)" fill="#fff" stroke="#555" stroke-linecap="round" stroke-linejoin="round" stroke-width="0.75"/>
  </g>
</svg>
