<svg xmlns="http://www.w3.org/2000/svg" width="41" height="41" viewBox="0 0 41 41">
  <g id="_18.재활" data-name="18.재활" transform="translate(0.5 0.5)">
    <g id="그룹_700" data-name="그룹 700" transform="translate(24.476 0)">
      <g id="그룹_696" data-name="그룹 696" transform="translate(7.519 20.048)">
        <path id="패스_963" data-name="패스 963" d="M1616.512,559.984a36.445,36.445,0,0,0-.85,17.355,1.5,1.5,0,0,0,1.5,1.214,1.466,1.466,0,0,0,.263-.029,1.5,1.5,0,0,0,1.185-1.76,33.616,33.616,0,0,1,.646-15.435" transform="translate(-1614.993 -559.984)" fill="#fff" stroke="#555" stroke-linecap="round" stroke-linejoin="round" stroke-width="1"/>
      </g>
      <path id="패스_964" data-name="패스 964" d="M1619.4,550.292a2.7,2.7,0,1,1-2.7-2.7A2.7,2.7,0,0,1,1619.4,550.292Z" transform="translate(-1608.089 -547.588)" fill="none" stroke="#555" stroke-linecap="round" stroke-linejoin="round" stroke-width="1"/>
      <g id="그룹_697" data-name="그룹 697" transform="translate(4.978 20.88)">
        <path id="패스_965" data-name="패스 965" d="M1614.691,560.5a36.451,36.451,0,0,0-.426,17.372,1.5,1.5,0,0,0,1.527,1.175,1.477,1.477,0,0,0,.262-.034,1.5,1.5,0,0,0,1.142-1.788,33.621,33.621,0,0,1,.269-15.448" transform="translate(-1613.416 -560.5)" fill="#fff" stroke="#555" stroke-linecap="round" stroke-linejoin="round" stroke-width="1"/>
      </g>
      <g id="그룹_698" data-name="그룹 698" transform="translate(5.927 7.614)">
        <path id="패스_966" data-name="패스 966" d="M1618.163,568.049q-1.163-.324-2.328-.645a2.5,2.5,0,0,1-1.532-2.8,31.688,31.688,0,0,0-.274-8.722,2.477,2.477,0,0,1,1.572-2.749l2.986-.785c1.067-.3,2.225.75,2.436,2.354a40.233,40.233,0,0,1-.4,11.052C1620.395,567.34,1619.226,568.364,1618.163,568.049Z" transform="translate(-1614.004 -552.298)" fill="#fff" stroke="#707070" stroke-width="1"/>
        <path id="패스_967" data-name="패스 967" d="M1618.164,568.049q-1.163-.324-2.328-.645a2.5,2.5,0,0,1-1.532-2.8,31.688,31.688,0,0,0-.274-8.722,2.4,2.4,0,0,1,1.572-2.749c1-.253,1.991-.524,2.986-.785,1.067-.3,2.238.748,2.436,2.354a36.763,36.763,0,0,1-.4,11.052C1620.4,567.34,1619.227,568.364,1618.164,568.049Z" transform="translate(-1614.005 -552.298)" fill="none" stroke="#555" stroke-linecap="round" stroke-linejoin="round" stroke-width="1"/>
      </g>
      <g id="그룹_699" data-name="그룹 699" transform="translate(0 9.822)">
        <path id="패스_968" data-name="패스 968" d="M1611.6,565.051a1.128,1.128,0,0,1-.516-2.184c8.179-2.841,7.69-8.159,7.7-8.224a1.129,1.129,0,0,1,2.238.3c-.044.316.28,6.76-9.195,10.051A1.141,1.141,0,0,1,1611.6,565.051Z" transform="translate(-1610.329 -553.666)" fill="#fff" stroke="#555" stroke-linecap="round" stroke-linejoin="round" stroke-width="1"/>
      </g>
    </g>
    <rect id="사각형_606" data-name="사각형 606" width="40" height="3.191" transform="translate(0 20.269)" fill="#bc8877" stroke="#555" stroke-linecap="round" stroke-linejoin="round" stroke-width="1"/>
    <line id="선_148" data-name="선 148" y2="17.33" transform="translate(0 22.67)" fill="none" stroke="#555" stroke-linecap="round" stroke-linejoin="round" stroke-width="1"/>
    <line id="선_149" data-name="선 149" y2="17.33" transform="translate(40 22.67)" fill="none" stroke="#555" stroke-linecap="round" stroke-linejoin="round" stroke-width="1"/>
    <rect id="사각형_615" data-name="사각형 615" width="3.396" height="21.844" rx="1.053" transform="translate(7.97 37.765) rotate(-180)" fill="#fff" stroke="#555" stroke-linecap="round" stroke-linejoin="round" stroke-width="1"/>
    <rect id="사각형_616" data-name="사각형 616" width="3.396" height="21.844" rx="1.053" transform="translate(11.393 39.342) rotate(180)" fill="#fff" stroke="#555" stroke-linecap="round" stroke-linejoin="round" stroke-width="1"/>
    <path id="패스_998" data-name="패스 998" d="M1604.871,549.551a2.879,2.879,0,1,0,3.879-1.24A2.879,2.879,0,0,0,1604.871,549.551Z" transform="translate(-1590.645 -547.341)" fill="#fff" stroke="#555" stroke-linecap="round" stroke-linejoin="round" stroke-width="1"/>
    <path id="패스_999" data-name="패스 999" d="M1599.788,566.869l2.718,1.4a2.441,2.441,0,0,0,3.278-1.049l5.54-9.686a2.439,2.439,0,0,0-1.048-3.278l-3.03-1.561a2.439,2.439,0,0,0-3.277,1.048l-5.229,9.846A2.441,2.441,0,0,0,1599.788,566.869Z" transform="translate(-1595.227 -544.605)" fill="#fff" stroke="#555" stroke-linecap="round" stroke-linejoin="round" stroke-width="1"/>
    <g id="그룹_716" data-name="그룹 716" transform="translate(8.934 10.538)">
      <path id="패스_1000" data-name="패스 1000" d="M1604.813,571.037a1.556,1.556,0,0,1-1.213-.579c-4.287-5.3-.139-15,.04-15.414a1.559,1.559,0,0,1,2.859,1.243h0c-1,2.318-3.047,9.032-.474,12.211a1.559,1.559,0,0,1-1.212,2.539Z" transform="translate(-1601.666 -554.107)" fill="#fff" stroke="#555" stroke-linecap="round" stroke-linejoin="round" stroke-width="1"/>
    </g>
  </g>
</svg>
