<svg id="_19.수면장애" data-name="19.수면장애" xmlns="http://www.w3.org/2000/svg" width="46" height="30.004" viewBox="0 0 46 30.004">
  <path id="패스_926" data-name="패스 926" d="M1849.1,558.324h-4.99a.534.534,0,0,1-.486-.318.546.546,0,0,1,.089-.577l4.043-4.613H1843.9a.538.538,0,0,1,0-1.076h5.038a.532.532,0,0,1,.484.316.549.549,0,0,1-.087.579l-4.045,4.613h3.809a.538.538,0,0,1,0,1.076Z" transform="translate(-1819.267 -551.739)" fill="#bc8877"/>
  <path id="패스_927" data-name="패스 927" d="M1843.834,559.7H1840.4a.533.533,0,0,1-.484-.318.54.54,0,0,1,.088-.578l2.539-2.9h-2.287a.538.538,0,0,1,0-1.076h3.47a.528.528,0,0,1,.483.317.54.54,0,0,1-.087.578l-2.54,2.9h2.255a.538.538,0,0,1,0,1.076Z" transform="translate(-1821.159 -549.624)" fill="#bc8877"/>
  <g id="그룹_676" data-name="그룹 676" transform="translate(0.53 1.078)">
    <rect id="사각형_593" data-name="사각형 593" width="4.852" height="28.387" fill="#fff"/>
  </g>
  <g id="그룹_677" data-name="그룹 677" transform="translate(0 0.54)">
    <path id="패스_928" data-name="패스 928" d="M1832.955,581.544H1828.1a.55.55,0,0,1-.53-.567V552.647a.55.55,0,0,1,.53-.567h4.852a.552.552,0,0,1,.532.567v28.329A.552.552,0,0,1,1832.955,581.544Zm-4.32-1.134h3.79v-27.2h-3.79Z" transform="translate(-1827.573 -552.08)" fill="#555"/>
  </g>
  <g id="그룹_678" data-name="그룹 678" transform="translate(41.124 11.639)">
    <rect id="사각형_594" data-name="사각형 594" width="4.344" height="17.826" fill="#fff"/>
  </g>
  <g id="그룹_679" data-name="그룹 679" transform="translate(40.593 11.101)">
    <path id="패스_929" data-name="패스 929" d="M1859.032,576.7h-4.344a.535.535,0,0,1-.532-.538V558.332a.534.534,0,0,1,.532-.538h4.344a.535.535,0,0,1,.532.538v17.826A.536.536,0,0,1,1859.032,576.7Zm-3.814-1.076h3.282V558.87h-3.282Z" transform="translate(-1854.156 -557.794)" fill="#555"/>
  </g>
  <g id="그룹_680" data-name="그룹 680" transform="translate(5.382 20.551)">
    <rect id="사각형_595" data-name="사각형 595" width="35.742" height="8.914" fill="#fff"/>
  </g>
  <g id="그룹_681" data-name="그룹 681" transform="translate(4.852 20.014)">
    <path id="패스_930" data-name="패스 930" d="M1866.931,573.416h-35.783a.525.525,0,0,1-.509-.538v-8.914a.524.524,0,0,1,.509-.538h35.783a.524.524,0,0,1,.51.538v8.914A.525.525,0,0,1,1866.931,573.416Zm-35.271-1.076h34.76V564.5h-34.76Z" transform="translate(-1830.639 -563.426)" fill="#555"/>
  </g>
  <g id="그룹_682" data-name="그룹 682" transform="translate(9.555 12.665)">
    <rect id="사각형_596" data-name="사각형 596" width="30.239" height="5.897" fill="#fff"/>
  </g>
  <g id="그룹_683" data-name="그룹 683" transform="translate(9.024 12.133)">
    <path id="패스_931" data-name="패스 931" d="M1865.508,566.581h-31.3v-6.972h31.3Zm-30.239-1.076h29.177v-4.82h-29.177Z" transform="translate(-1834.207 -559.609)" fill="#bc8877"/>
  </g>
  <g id="그룹_684" data-name="그룹 684" transform="translate(6.599 5.82)">
    <path id="패스_932" data-name="패스 932" d="M1836.174,566.77c0,1.057-.636,1.913-1.423,1.913h-1.584c-.786,0-1.424-.856-1.424-1.913v-9.781c0-1.057.638-1.913,1.424-1.913h1.584c.786,0,1.423.856,1.423,1.913Z" transform="translate(-1831.743 -555.076)" fill="#fff"/>
  </g>
  <g id="그룹_685" data-name="그룹 685" transform="translate(6.069 5.263)">
    <path id="패스_933" data-name="패스 933" d="M1834.946,569.425h-1.583a2.249,2.249,0,0,1-1.955-2.452v-9.784a2.249,2.249,0,0,1,1.955-2.454h1.583a2.248,2.248,0,0,1,1.953,2.454v9.784A2.248,2.248,0,0,1,1834.946,569.425Zm-1.583-13.612c-.484,0-.893.63-.893,1.375v9.784c0,.746.408,1.376.893,1.376h1.583c.483,0,.891-.63.891-1.376v-9.784c0-.745-.408-1.375-.891-1.375Z" transform="translate(-1831.408 -554.735)" fill="#bc8877"/>
  </g>
</svg>
