<svg xmlns="http://www.w3.org/2000/svg" width="115.765" height="7.016" viewBox="0 0 115.765 7.016">
    <path data-name="패스 15033" d="M2-9.53h2.151c2.22 0 3.646-1.131 3.646-3.4s-1.426-3.35-3.728-3.35H2zm1.507-1.086V-15.2h.468a2 2 0 0 1 2.281 2.271 2.039 2.039 0 0 1-2.281 2.317zm7.007-1.7.224-.739c.224-.7.448-1.469.642-2.207h.041c.224.73.428 1.505.662 2.207l.224.739zm2.65 2.786h1.579l-2.424-6.75h-1.773L8.133-9.53H9.66l.53-1.733h2.444zm3.127 0H17.8v-5.628h2.139v-1.122h-5.767v1.122h2.118zm5.774-2.782.224-.739c.224-.7.448-1.469.642-2.207h.041c.224.73.428 1.505.662 2.207l.224.739zm2.648 2.782h1.579l-2.424-6.75H22.1l-2.418 6.75h1.528l.53-1.733h2.444zm4.675 0h4.562v-1.131h-3.056v-5.619h-1.507zm7.19-2.782.224-.739c.224-.7.448-1.469.642-2.207h.041c.224.73.428 1.505.662 2.207l.224.739zm2.647 2.782H40.8l-2.42-6.75h-1.772l-2.414 6.75h1.528l.53-1.733H38.7zm2.414 0h2.689c1.66 0 2.923-.629 2.923-1.989a1.586 1.586 0 0 0-1.416-1.6v-.046a1.531 1.531 0 0 0 1.029-1.459c0-1.259-1.181-1.66-2.729-1.66h-2.5zm1.507-4v-1.715h.9c.906 0 1.354.237 1.354.83 0 .538-.418.885-1.375.885zm0 2.965v-1.961h1.049c1.039 0 1.589.274 1.589.93 0 .7-.56 1.031-1.589 1.031z" transform="translate(64.463 16.413)" style="fill:#333"/>
    <path data-name="패스 15032" d="M4.64-9.572a3.2 3.2 0 0 0 2.4-1l-.794-.84a2.2 2.2 0 0 1-1.558.667c-1.192 0-1.966-.886-1.966-2.357a2.063 2.063 0 0 1 2-2.33 2.046 2.046 0 0 1 1.385.566l.793-.854a3.241 3.241 0 0 0-2.21-.868 3.372 3.372 0 0 0-3.5 3.535 3.272 3.272 0 0 0 3.45 3.481zm4.98-2.914.224-.74c.224-.7.448-1.471.642-2.211h.041c.224.731.428 1.507.662 2.211l.224.74zM12.268-9.7h1.579l-2.424-6.76H9.651L7.237-9.7h1.528l.53-1.736h2.444zm3.921-5.691h.978c.967 0 1.5.247 1.5.977s-.53 1.087-1.5 1.087h-.978zM20.467-9.7 18.7-12.468a1.951 1.951 0 0 0 1.436-1.946c0-1.553-1.253-2.046-2.831-2.046h-2.623v6.76h1.507v-2.558h1.049L18.786-9.7zm1.11 0h4.736v-1.133h-3.229v-1.809h2.648v-1.133h-2.648v-1.562H26.2v-1.123h-4.623zm6.212 0h1.426v-2.713c0-.777-.112-1.626-.183-2.357h.051l.764 1.453L32.026-9.7h1.528v-6.76h-1.427v2.695a21.748 21.748 0 0 0 .193 2.366h-.05l-.754-1.462-2.19-3.6h-1.537zm8.993-2.786.224-.74c.224-.7.448-1.471.642-2.211h.041c.224.731.428 1.507.662 2.211l.224.74zM39.429-9.7h1.579l-2.424-6.76h-1.772L34.4-9.7h1.528l.53-1.736H38.9zm3.127 0h1.507v-5.637H46.2v-1.123h-5.762v1.124h2.118zm4.817 0h1.507v-6.76h-1.507zm6.3.128a3.242 3.242 0 0 0 3.371-3.535 3.2 3.2 0 0 0-3.371-3.481 3.193 3.193 0 0 0-3.371 3.481 3.242 3.242 0 0 0 3.375 3.535zm0-1.169c-1.12 0-1.833-.923-1.833-2.366s.713-2.32 1.833-2.32 1.833.868 1.833 2.32-.706 2.366-1.829 2.366zm4.8 1.041H59.9v-2.713c0-.777-.112-1.626-.183-2.357h.051l.764 1.453L62.71-9.7h1.528v-6.76h-1.426v2.695a21.744 21.744 0 0 0 .194 2.366h-.051l-.755-1.462-2.19-3.6h-1.536z" transform="translate(-1.188 16.588)" style="fill:#1073ba"/>
    <ellipse data-name="타원 43" cx="1.158" cy="1.079" rx="1.158" ry="1.079" transform="translate(113.449 4.723)" style="fill:#333"/>
</svg>
