<svg xmlns="http://www.w3.org/2000/svg" width="100" height="20" viewBox="0 0 100 20">
    <path data-name="패스 21371" d="M-1107.9 1516.021a8.2 8.2 0 0 1 4.46-3.355 5.178 5.178 0 0 0-4.416 1.278c-1.27 1.348-1.085 3.536-2.309 3.7 0 0 4.744.677 6.269-2.172 0 0 .467-.5.6-2.645a12.71 12.71 0 0 0-4.604 3.194z" transform="translate(1149.741 -1497.714)" style="fill:#a47768"/>
    <path data-name="패스 21372" d="M-1064.527 1449.522c-.021-2.81-3.946-4.206-3.946-4.206.875.621-.151 2.23.281 3.781a4.5 4.5 0 0 0 2.882 2.767 7.129 7.129 0 0 1-2.076-4.385 11.055 11.055 0 0 0 2.255 4.322c.764-1.709.604-2.279.604-2.279z" transform="translate(1112.435 -1437.503)" style="fill:#a47768"/>
    <path data-name="패스 21373" d="M-1144.809 1499.92s.439-.476.548-2.519a12.076 12.076 0 0 0-4.346 3.08 7.788 7.788 0 0 1 4.2-3.232 4.922 4.922 0 0 0-4.182 1.256c-1.194 1.295-1 3.37-2.157 3.538.003.001 4.516.598 5.937-2.123z" transform="translate(1186.048 -1483.929)" style="fill:#a47768"/>
    <path data-name="패스 21374" d="M-1109.338 1436.816c-.02-2.669-3.749-4-3.749-4 .832.59-.144 2.118.267 3.592a4.278 4.278 0 0 0 2.738 2.63 6.778 6.778 0 0 1-1.972-4.166 10.509 10.509 0 0 0 2.142 4.106c.725-1.62.574-2.162.574-2.162z" transform="translate(1152.354 -1426.322)" style="fill:#a47768"/>
    <path data-name="패스 21375" d="M-1191.587 1494.556a11.449 11.449 0 0 0-3.808 3.311 7.377 7.377 0 0 1 3.66-3.441 4.661 4.661 0 0 0-3.826 1.577c-1 1.331-.623 3.271-1.7 3.538 0 0 4.311.14 5.4-2.56-.006-.001.361-.49.274-2.425z" transform="translate(1227.671 -1481.447)" style="fill:#a47768"/>
    <path data-name="패스 21376" d="M-1161.773 1436.593c-.019-2.528-3.551-3.786-3.551-3.786.787.559-.136 2.007.253 3.4a4.051 4.051 0 0 0 2.593 2.491 6.421 6.421 0 0 1-1.868-3.947 9.945 9.945 0 0 0 2.029 3.889c.688-1.534.544-2.047.544-2.047z" transform="translate(1199.094 -1426.31)" style="fill:#a47768"/>
    <path data-name="패스 21377" d="M-1250.876 1501.85a6.969 6.969 0 0 1 3.467-3.238 4.4 4.4 0 0 0-3.617 1.478c-.952 1.255-.6 3.087-1.618 3.336 0 0 4.071.145 5.1-2.4 0 0 .35-.462.272-2.291a10.811 10.811 0 0 0-3.604 3.115z" transform="translate(1277.225 -1485.192)" style="fill:#a47768"/>
    <path data-name="패스 21378" d="M-1218.493 1442.475c-.017-2.387-3.354-3.574-3.354-3.574.744.527-.129 1.895.239 3.214a3.831 3.831 0 0 0 2.45 2.353 6.063 6.063 0 0 1-1.764-3.729 9.392 9.392 0 0 0 1.917 3.673c.648-1.451.512-1.937.512-1.937z" transform="translate(1249.668 -1431.763)" style="fill:#a47768"/>
    <path data-name="패스 21379" d="M-1308.781 1507a6.566 6.566 0 0 1 3.536-2.728 4.144 4.144 0 0 0-3.52 1.065c-1 1.09-.834 2.839-1.811 2.982 0 0 3.8.5 4.994-1.8 0 0 .368-.4.457-2.121a10.167 10.167 0 0 0-3.656 2.602z" transform="translate(1329.061 -1490.218)" style="fill:#a47768"/>
    <path data-name="패스 21380" d="M-1278.549 1451.012a3.6 3.6 0 0 0 2.306 2.214 5.7 5.7 0 0 1-1.661-3.508 8.84 8.84 0 0 0 1.8 3.457c.61-1.368.483-1.823.483-1.823-.017-2.247-3.157-3.365-3.157-3.365.704.497-.122 1.784.229 3.025z" transform="translate(1300.604 -1439.893)" style="fill:#a47768"/>
    <path data-name="패스 21381" d="M-1355.1 1508.1a6.151 6.151 0 0 1 3.1-2.813 3.884 3.884 0 0 0-3.21 1.258c-.856 1.094-.568 2.715-1.471 2.922 0 0 3.59.18 4.533-2.052 0 0 .315-.4.269-2.017a9.537 9.537 0 0 0-3.221 2.702z" transform="translate(1370.295 -1491.165)" style="fill:#a47768"/>
    <path data-name="패스 21382" d="M-1327.1 1457.52c-.016-2.107-2.96-3.154-2.96-3.154.656.466-.114 1.673.211 2.836a3.38 3.38 0 0 0 2.161 2.076 5.354 5.354 0 0 1-1.556-3.29 8.306 8.306 0 0 0 1.691 3.241c.577-1.281.453-1.709.453-1.709z" transform="translate(1346.471 -1445.602)" style="fill:#a47768"/>
    <path data-name="패스 21383" d="M-1404.706 1502.555a5.747 5.747 0 0 1 3.455-1.825 3.629 3.629 0 0 0-3.194.393c-1.028.791-1.143 2.323-2.007 2.3 0 0 3.2.995 4.574-.805 0 0 .378-.291.71-1.761a8.912 8.912 0 0 0-3.538 1.698z" transform="translate(1414.835 -1486.911)" style="fill:#a47768"/>
    <path data-name="패스 21384" d="M-1375.715 1458.572a3.153 3.153 0 0 0 2.018 1.937 4.988 4.988 0 0 1-1.453-3.069 7.735 7.735 0 0 0 1.578 3.025c.534-1.2.423-1.595.423-1.595-.015-1.967-2.763-2.944-2.763-2.944.612.434-.105 1.56.197 2.646z" transform="translate(1387.506 -1446.997)" style="fill:#a47768"/>
    <path data-name="패스 21385" d="M-1446.834 1492.7a5.328 5.328 0 0 1 3.208-1.694 3.366 3.366 0 0 0-2.965.364c-.954.734-1.061 2.158-1.863 2.137 0 0 2.975.924 4.247-.747 0 0 .351-.271.66-1.635a8.264 8.264 0 0 0-3.287 1.575z" transform="translate(1452.424 -1478.221)" style="fill:#a47768"/>
    <path data-name="패스 21386" d="M-1418.188 1452.935a2.925 2.925 0 0 0 1.873 1.8 4.637 4.637 0 0 1-1.349-2.85 7.2 7.2 0 0 0 1.465 2.809c.5-1.111.393-1.482.393-1.482-.014-1.826-2.565-2.734-2.565-2.734.571.404-.098 1.449.183 2.457z" transform="translate(1425.502 -1442.122)" style="fill:#a47768"/>
    <path data-name="패스 21387" d="M-1484.709 1476.216a4.92 4.92 0 0 1 2.961-1.564 3.109 3.109 0 0 0-2.737.336c-.881.678-.979 1.992-1.72 1.973 0 0 2.746.853 3.921-.69 0 0 .324-.25.609-1.509a7.625 7.625 0 0 0-3.034 1.454z" transform="translate(1486.206 -1463.6)" style="fill:#a47768"/>
    <path data-name="패스 21388" d="M-1460.118 1439.167a2.706 2.706 0 0 0 1.73 1.661 4.279 4.279 0 0 1-1.246-2.631 6.633 6.633 0 0 0 1.353 2.593c.458-1.025.363-1.367.363-1.367-.012-1.686-2.368-2.523-2.368-2.523.525.371-.091 1.336.168 2.267z" transform="translate(1463.011 -1429.971)" style="fill:#a47768"/>
    <path data-name="패스 21389" d="M-1405.008 1478.341a12.561 12.561 0 0 0-1.072-1.3 15.97 15.97 0 0 0-.664-.664c.23-.2.478-.41.746-.618.381-.3.806-.59 1.264-.884a16.709 16.709 0 0 1 1.5-.829 17.476 17.476 0 0 1 3.631-1.289 20.993 20.993 0 0 1 4.281-.535c1.516-.035 3.068.026 4.656.132s3.194.26 4.805.409c3.221.3 6.452.587 9.491.6a44.99 44.99 0 0 0 4.376-.175 34.32 34.32 0 0 0 3.879-.576 29.562 29.562 0 0 0 3.194-.883c.462-.17.9-.326 1.291-.489s.755-.316 1.075-.47l.849-.415c.243-.125.445-.244.612-.334l.508-.281-.512.276c-.168.088-.37.2-.616.326l-.854.4c-.32.15-.686.29-1.078.456s-.831.307-1.3.472a29.457 29.457 0 0 1-3.2.842 34.123 34.123 0 0 1-3.872.527c-1.383.11-2.847.149-4.36.121-3.029-.051-6.248-.373-9.463-.715-1.609-.17-3.218-.343-4.809-.469s-3.169-.206-4.687-.189a21.406 21.406 0 0 0-4.385.494 17.973 17.973 0 0 0-3.752 1.281 17.062 17.062 0 0 0-1.557.838c-.477.3-.92.6-1.319.9-.3.228-.579.455-.836.677a16.663 16.663 0 0 0-.834-.677c-.4-.3-.843-.6-1.32-.9a17.228 17.228 0 0 0-1.557-.838 18 18 0 0 0-3.752-1.281 21.417 21.417 0 0 0-4.386-.494c-1.518-.017-3.1.064-4.687.189s-3.2.3-4.809.469c-3.216.342-6.434.665-9.463.715a45.143 45.143 0 0 1-4.361-.121 34.176 34.176 0 0 1-3.872-.527 29.437 29.437 0 0 1-3.195-.842c-.464-.165-.9-.315-1.3-.472s-.758-.306-1.078-.456l-.853-.4c-.245-.123-.449-.238-.617-.326l-.512-.276.509.281c.166.09.368.209.612.334l.849.415c.319.154.684.3 1.074.47s.829.319 1.292.489a29.455 29.455 0 0 0 3.194.883 34.308 34.308 0 0 0 3.879.576 45.61 45.61 0 0 0 4.375.175c3.04-.015 6.271-.3 9.492-.6 1.611-.15 3.22-.3 4.8-.409s3.141-.167 4.656-.132a21 21 0 0 1 4.282.535 17.468 17.468 0 0 1 3.631 1.289 16.654 16.654 0 0 1 1.5.829c.458.293.882.586 1.263.884.268.208.516.414.746.618-.245.229-.468.453-.664.664a12.48 12.48 0 0 0-1.072 1.3c-.113.159-.2.285-.252.372l-.085.137.546.311.07-.118c.048-.077.124-.2.228-.346a11.942 11.942 0 0 1 1-1.244c.194-.214.415-.44.66-.673.245.233.466.459.66.673a11.785 11.785 0 0 1 1 1.244c.1.151.181.269.228.346l.07.118.546-.311s-.03-.047-.084-.137-.117-.213-.231-.372z" transform="translate(1457.18 -1459.367)" style="fill:#a47768"/>
    <path data-name="패스 21390" d="M-972.815 1513.944a5.177 5.177 0 0 0-4.416-1.278 8.2 8.2 0 0 1 4.46 3.355 12.723 12.723 0 0 0-4.608-3.195c.137 2.149.6 2.645.6 2.645 1.525 2.849 6.27 2.172 6.27 2.172-1.221-.163-1.036-2.351-2.306-3.699z" transform="translate(1030.93 -1497.714)" style="fill:#a47768"/>
    <path data-name="패스 21391" d="M-987.406 1445.316s-3.924 1.4-3.946 4.206c0 0-.159.57.6 2.279a11.051 11.051 0 0 0 2.255-4.322 7.132 7.132 0 0 1-2.076 4.385 4.5 4.5 0 0 0 2.882-2.767c.436-1.551-.59-3.16.285-3.781z" transform="translate(1043.444 -1437.503)" style="fill:#a47768"/>
    <path data-name="패스 21392" d="M-928.761 1498.506a4.921 4.921 0 0 0-4.182-1.256 7.791 7.791 0 0 1 4.2 3.232 12.079 12.079 0 0 0-4.346-3.08c.11 2.043.549 2.519.549 2.519 1.419 2.721 5.933 2.124 5.933 2.124-1.158-.169-.96-2.245-2.154-3.539z" transform="translate(991.298 -1483.929)" style="fill:#a47768"/>
    <path data-name="패스 21393" d="M-941.108 1432.821s-3.729 1.327-3.749 4c0 0-.151.542.574 2.166a10.5 10.5 0 0 0 2.142-4.106 6.772 6.772 0 0 1-1.972 4.166 4.274 4.274 0 0 0 2.737-2.63c.412-1.478-.562-3.006.268-3.596z" transform="translate(1001.84 -1426.322)" style="fill:#a47768"/>
    <path data-name="패스 21394" d="M-875.031 1496a4.66 4.66 0 0 0-3.825-1.577 7.38 7.38 0 0 1 3.66 3.441 11.442 11.442 0 0 0-3.808-3.311c-.089 1.935.28 2.424.28 2.424 1.085 2.7 5.395 2.56 5.395 2.56-1.078-.264-.698-2.204-1.702-3.537z" transform="translate(942.92 -1481.447)" style="fill:#a47768"/>
    <path data-name="패스 21395" d="M-887.186 1432.808s-3.532 1.257-3.552 3.786c0 0-.142.513.544 2.051a9.936 9.936 0 0 0 2.029-3.889 6.416 6.416 0 0 1-1.868 3.947 4.05 4.05 0 0 0 2.593-2.491c.39-1.397-.533-2.845.254-3.404z" transform="translate(953.417 -1426.31)" style="fill:#a47768"/>
    <path data-name="패스 21396" d="M-816.991 1500.089a4.4 4.4 0 0 0-3.617-1.478 6.968 6.968 0 0 1 3.467 3.238 10.809 10.809 0 0 0-3.606-3.116c-.078 1.828.272 2.291.272 2.291 1.032 2.545 5.1 2.4 5.1 2.4-1.018-.248-.664-2.08-1.616-3.335z" transform="translate(890.793 -1485.192)" style="fill:#a47768"/>
    <path data-name="패스 21397" d="M-828.973 1438.9s-3.336 1.187-3.354 3.574c0 0-.135.486.513 1.937a9.407 9.407 0 0 0 1.917-3.673 6.063 6.063 0 0 1-1.765 3.729 3.831 3.831 0 0 0 2.45-2.353c.368-1.314-.504-2.686.239-3.214z" transform="translate(901.151 -1431.763)" style="fill:#a47768"/>
    <path data-name="패스 21398" d="M-759.806 1505.333a4.143 4.143 0 0 0-3.52-1.065 6.566 6.566 0 0 1 3.535 2.728 10.166 10.166 0 0 0-3.655-2.6c.089 1.719.457 2.121.457 2.121 1.193 2.294 4.994 1.8 4.994 1.8-.977-.145-.805-1.894-1.811-2.984z" transform="translate(839.511 -1490.218)" style="fill:#a47768"/>
    <path data-name="패스 21399" d="M-770.358 1447.987s-3.139 1.118-3.156 3.365c0 0-.127.456.483 1.823a8.848 8.848 0 0 0 1.8-3.457 5.7 5.7 0 0 1-1.66 3.508 3.608 3.608 0 0 0 2.306-2.214c.349-1.241-.472-2.528.227-3.025z" transform="translate(848.528 -1439.893)" style="fill:#a47768"/>
    <path data-name="패스 21400" d="M-707.874 1506.546a3.883 3.883 0 0 0-3.21-1.258 6.15 6.15 0 0 1 3.1 2.813 9.539 9.539 0 0 0-3.221-2.7c-.046 1.615.268 2.017.268 2.017.943 2.232 4.533 2.052 4.533 2.052-.902-.209-.614-1.83-1.47-2.924z" transform="translate(792.786 -1491.165)" style="fill:#a47768"/>
    <path data-name="패스 21401" d="M-717.394 1454.366s-2.944 1.047-2.959 3.154c0 0-.119.428.453 1.71a8.3 8.3 0 0 0 1.692-3.241 5.347 5.347 0 0 1-1.557 3.29 3.38 3.38 0 0 0 2.162-2.076c.323-1.164-.447-2.371.209-2.837z" transform="translate(800.978 -1445.602)" style="fill:#a47768"/>
    <path data-name="패스 21402" d="M-662.7 1501.123a3.628 3.628 0 0 0-3.194-.393 5.743 5.743 0 0 1 3.455 1.825 8.9 8.9 0 0 0-3.538-1.7c.332 1.47.711 1.761.711 1.761 1.37 1.8 4.573.805 4.573.805-.868.026-.984-1.506-2.007-2.298z" transform="translate(752.313 -1486.911)" style="fill:#a47768"/>
    <path data-name="패스 21403" d="M-670.616 1457.44a4.99 4.99 0 0 1-1.453 3.069 3.15 3.15 0 0 0 2.017-1.937c.3-1.086-.416-2.212.2-2.647 0 0-2.747.978-2.762 2.944 0 0-.111.4.424 1.595a7.737 7.737 0 0 0 1.574-3.024z" transform="translate(758.26 -1446.997)" style="fill:#a47768"/>
    <path data-name="패스 21404" d="M-617.344 1491.37a3.367 3.367 0 0 0-2.966-.364 5.327 5.327 0 0 1 3.208 1.694 8.267 8.267 0 0 0-3.286-1.575c.309 1.365.66 1.635.66 1.635 1.272 1.671 4.247.747 4.247.747-.803.021-.909-1.407-1.863-2.137z" transform="translate(711.513 -1478.221)" style="fill:#a47768"/>
    <path data-name="패스 21405" d="M-626.418 1451.884a4.636 4.636 0 0 1-1.349 2.85 2.924 2.924 0 0 0 1.874-1.8c.281-1.008-.386-2.054.182-2.458 0 0-2.551.908-2.565 2.734 0 0-.1.371.393 1.482a7.188 7.188 0 0 0 1.465-2.808z" transform="translate(718.58 -1442.122)" style="fill:#a47768"/>
    <path data-name="패스 21406" d="M-576.235 1474.989a3.111 3.111 0 0 0-2.738-.336 4.924 4.924 0 0 1 2.961 1.564 7.632 7.632 0 0 0-3.033-1.454c.285 1.259.609 1.509.609 1.509 1.174 1.542 3.921.69 3.921.69-.741.018-.839-1.295-1.72-1.973z" transform="translate(674.516 -1463.6)" style="fill:#a47768"/>
    <path data-name="패스 21407" d="M-582.757 1438.2a4.284 4.284 0 0 1-1.245 2.631 2.7 2.7 0 0 0 1.728-1.661c.26-.93-.355-1.9.169-2.268 0 0-2.355.837-2.367 2.523 0 0-.1.342.362 1.367a6.627 6.627 0 0 0 1.353-2.592z" transform="translate(679.38 -1429.971)" style="fill:#a47768"/>
    <path data-name="패스 21408" d="m-1184.943 1373.616.85-.617.85.617-.325-1 .85-.617h-1.05l-.325-1-.324 1h-1.05l.85.617z" transform="translate(1217.117 -1371.001)" style="fill:#a47768"/>
    <path data-name="패스 21409" d="m-887.777 1373.616.85-.617.849.617-.325-1 .85-.617h-1.05l-.324-1-.325 1h-1.05l.85.617z" transform="translate(951.225 -1371.001)" style="fill:#a47768"/>
</svg>
