<svg id="_9.소변줄" data-name="9.소변줄" xmlns="http://www.w3.org/2000/svg" width="43" height="40" viewBox="0 0 43 40">
  <g id="패스_949" data-name="패스 949" transform="translate(-1631.904 -587.857)" fill="#f4c500" stroke-linecap="round" stroke-linejoin="round">
    <path d="M 1666.44677734375 627.3566284179688 C 1666.1376953125 627.3566284179688 1665.02587890625 627.3186645507812 1663.69384765625 626.830322265625 C 1661.861083984375 626.1583251953125 1660.448486328125 624.9545288085938 1659.495361328125 623.2523193359375 C 1659.414184570312 623.1034545898438 1659.341796875 622.9646606445312 1659.274047851562 622.8280639648438 C 1658.213256835938 620.6585083007812 1658.227905273438 618.3090209960938 1659.319946289062 615.64794921875 C 1660.481323242188 612.8179321289062 1662.814575195312 609.71142578125 1666.448120117188 606.1597290039062 C 1666.646484375 606.3538208007812 1666.852905273438 606.5595092773438 1667.079711914062 606.7890014648438 C 1670.614624023438 610.3487548828125 1672.816284179688 613.4498291015625 1673.8115234375 616.270263671875 C 1674.720825195312 618.8469848632812 1674.586669921875 621.1300659179688 1673.401489257812 623.2499389648438 C 1672.448364257812 624.953369140625 1671.035278320312 626.1580200195312 1669.201416015625 626.8302612304688 C 1667.869262695312 627.3186645507812 1666.756225585938 627.3566284179688 1666.44677734375 627.3566284179688 Z" stroke="none"/>
    <path d="M 1666.447631835938 606.8624877929688 C 1663.104614257812 610.1856689453125 1660.864013671875 613.2021484375 1659.782470703125 615.8377685546875 C 1658.748291015625 618.3579711914062 1658.728881835938 620.5726928710938 1659.723266601562 622.6084594726562 C 1659.787353515625 622.7374877929688 1659.85595703125 622.8689575195312 1659.932739257812 623.0100708007812 C 1660.825927734375 624.6040649414062 1662.149169921875 625.7313842773438 1663.865966796875 626.36083984375 C 1665.153076171875 626.8327026367188 1666.241577148438 626.8566284179688 1666.44677734375 626.8566284179688 C 1666.652221679688 626.8566284179688 1667.7421875 626.8327026367188 1669.029418945312 626.36083984375 C 1670.747802734375 625.7308959960938 1672.072021484375 624.60205078125 1672.965087890625 623.0059814453125 C 1674.076049804688 621.018798828125 1674.19873046875 618.8699951171875 1673.340087890625 616.4366455078125 C 1672.383422851562 613.7257690429688 1670.158081054688 610.5986328125 1666.72412109375 607.1405029296875 C 1666.628540039062 607.0438842773438 1666.536743164062 606.9514770507812 1666.447631835938 606.8624877929688 M 1666.412841796875 605.425048828125 L 1666.44677734375 605.4593505859375 C 1666.460693359375 605.4473876953125 1666.47265625 605.4370727539062 1666.482666015625 605.425048828125 L 1666.482666015625 605.4970703125 C 1666.813232421875 605.8139038085938 1667.126953125 606.1255493164062 1667.435302734375 606.4375 C 1674.7421875 613.7958374023438 1676.2548828125 619.1707763671875 1673.837890625 623.4939575195312 C 1671.4140625 627.8258056640625 1666.820556640625 627.8566284179688 1666.44677734375 627.8566284179688 C 1666.0751953125 627.8566284179688 1661.4814453125 627.8258056640625 1659.0576171875 623.4939575195312 C 1658.977294921875 623.3466186523438 1658.900146484375 623.1994018554688 1658.826171875 623.0503540039062 C 1656.65966796875 618.6192016601562 1658.546875 613.086669921875 1666.412841796875 605.4970703125 L 1666.412841796875 605.425048828125 Z" stroke="none" fill="#555"/>
  </g>
  <path id="사각형_623" data-name="사각형 623" d="M.674,0H2.56a.674.674,0,0,1,.674.674v.962a.674.674,0,0,1-.674.674H.675A.675.675,0,0,1,0,1.635V.674A.674.674,0,0,1,.674,0Z" transform="translate(0 16.963)" fill="#555"/>
  <path id="패스_1049" data-name="패스 1049" d="M1651.955,631.08a9.316,9.316,0,0,1-9.133-9.468V614.1a.9.9,0,1,1,1.795,0v7.516a7.343,7.343,0,1,0,14.676,0V604.9a.979.979,0,0,1,.045-.293,9.323,9.323,0,0,1,18.62.957.9.9,0,1,1-1.8,0,7.542,7.542,0,1,0-15.075,0v16.043A9.316,9.316,0,0,1,1651.955,631.08Z" transform="translate(-1642.103 -595.895)" fill="#555"/>
  <g id="그룹_1908" data-name="그룹 1908" transform="translate(32.332 26.681)">
    <path id="패스_1048" data-name="패스 1048" d="M1755.465,610.791h2.253c1.521,0,2.689.529,2.689,2.15,0,1.567-1.177,2.272-2.651,2.272h-.918v2.437h-1.373Zm2.2,3.338c.945,0,1.4-.4,1.4-1.187s-.5-1.066-1.447-1.066h-.778v2.253Z" transform="translate(-1755.465 -610.791)" fill="#fff"/>
  </g>
</svg>
