<svg id="_7.기저귀" data-name="7.기저귀" xmlns="http://www.w3.org/2000/svg" width="34" height="30" viewBox="0 0 34 30">
  <path id="패스_918" data-name="패스 918" d="M1453.09,551.6c0,1.1,0,4.337,0,4.358v4.634a16.054,16.054,0,0,0,16.285,15.812h.258a16.056,16.056,0,0,0,16.287-15.812v-4.634c0-.02,0-3.125,0-4.358Z" transform="translate(-1452.502 -546.956)" fill="#fff"/>
  <path id="패스_919" data-name="패스 919" d="M1469.709,576.882h-.259c-9.293,0-16.852-7.3-16.852-16.273l0-8.939a.554.554,0,0,1,.554-.553h32.85a.554.554,0,0,1,.553.553l0,8.939C1486.562,569.582,1479,576.882,1469.709,576.882Zm-16-24.658,0,8.385c0,8.362,7.063,15.165,15.745,15.165h.259c8.682,0,15.746-6.8,15.746-15.165l0-8.385Z" transform="translate(-1452.58 -546.882)" fill="#555"/>
  <rect id="사각형_592" data-name="사각형 592" width="32.867" height="4.167" transform="translate(0.567 0.558)" fill="#bc8877"/>
  <path id="패스_920" data-name="패스 920" d="M1486.03,552.747h-32.893a.556.556,0,0,1-.554-.558v-4.167a.557.557,0,0,1,.554-.558h32.893a.556.556,0,0,1,.553.558v4.167A.555.555,0,0,1,1486.03,552.747Zm-32.339-1.114h31.784v-3.052h-31.784Z" transform="translate(-1452.583 -547.465)" fill="#555"/>
  <path id="패스_921" data-name="패스 921" d="M1472.269,574.64a.565.565,0,0,1-.546-.408,10.956,10.956,0,0,1,3.183-10.938,12.33,12.33,0,0,1,8.81-3.314.563.563,0,0,1,.549.574.581.581,0,0,1-.585.54,11.275,11.275,0,0,0-7.99,3.006,9.852,9.852,0,0,0-2.875,9.834.557.557,0,0,1-.394.686A.572.572,0,0,1,1472.269,574.64Z" transform="translate(-1450.379 -545.619)" fill="#555"/>
  <path id="패스_922" data-name="패스 922" d="M1464.275,574.7a.568.568,0,0,1-.151-.02.556.556,0,0,1-.4-.685,10.027,10.027,0,0,0-2.986-9.97,11.435,11.435,0,0,0-7.505-3.1.557.557,0,1,1,.016-1.114h.017a12.577,12.577,0,0,1,8.256,3.412,11.126,11.126,0,0,1,3.295,11.071A.564.564,0,0,1,1464.275,574.7Z" transform="translate(-1452.566 -545.646)" fill="#555"/>
  <path id="패스_923" data-name="패스 923" d="M1477.319,563.833a.567.567,0,0,1-.549-.415l-2.954-11a.557.557,0,0,1,.4-.681.567.567,0,0,1,.693.4l2.954,11a.557.557,0,0,1-.4.682A.575.575,0,0,1,1477.319,563.833Z" transform="translate(-1449.829 -546.828)" fill="#555"/>
  <path id="패스_924" data-name="패스 924" d="M1458.517,564.13a.564.564,0,0,1-.548-.7l3.039-11.3a.572.572,0,0,1,.693-.4.556.556,0,0,1,.4.682l-3.038,11.3A.565.565,0,0,1,1458.517,564.13Z" transform="translate(-1451.887 -546.828)" fill="#555"/>
  <path id="패스_925" data-name="패스 925" d="M1468.021,576.37h-1.133v-.8h1.133Zm0-2.29h-1.133v-1.486h1.133Zm0-2.972h-1.133V569.62h1.133Zm0-2.972h-1.133v-1.487h1.133Zm0-2.973h-1.133v-1.486h1.133Zm0-2.972h-1.133V560.7h1.133Zm0-2.972h-1.133V557.73h1.133Zm0-2.972h-1.133v-1.487h1.133Zm0-2.972h-1.133v-1.487h1.133Z" transform="translate(-1450.688 -546.926)" fill="#555"/>
</svg>
