<svg xmlns="http://www.w3.org/2000/svg" width="30" height="41" viewBox="0 0 30 41">
  <g id="_5.화장실_스스로_가능" data-name="5.화장실 스스로 가능" transform="translate(0 -1)">
    <g id="그룹_701" data-name="그룹 701" transform="translate(2.327 15.387)">
      <rect id="사각형_607" data-name="사각형 607" width="16.77" height="4.291" rx="0.866" transform="translate(5.001 0.71) rotate(90)" fill="#bc8877"/>
      <path id="패스_969" data-name="패스 969" d="M1511.763,575.165h-1.833a1.941,1.941,0,0,1-1.939-1.939V558.914a1.941,1.941,0,0,1,1.939-1.939h1.833a1.941,1.941,0,0,1,1.939,1.939v14.312A1.941,1.941,0,0,1,1511.763,575.165Zm-1.833-16.77a.52.52,0,0,0-.52.52v14.312a.52.52,0,0,0,.52.52h1.833a.526.526,0,0,0,.52-.52V558.914a.526.526,0,0,0-.52-.52Z" transform="translate(-1507.991 -556.975)" fill="#555"/>
    </g>
    <g id="그룹_702" data-name="그룹 702" transform="translate(6.348)">
      <path id="패스_970" data-name="패스 970" d="M1514.14,558.183a4.146,4.146,0,1,1,4.331-4.142A4.245,4.245,0,0,1,1514.14,558.183Zm0-6.865a2.729,2.729,0,1,0,2.912,2.723A2.825,2.825,0,0,0,1514.14,551.317Z" transform="translate(-1509.811 -548.898)" fill="#555"/>
      <path id="패스_971" data-name="패스 971" d="M1530.4,584.4a1.786,1.786,0,0,1-1.637-1.033l-4.415-9.754h-12.522a1.755,1.755,0,0,1-1.781-1.725V556.46a1.755,1.755,0,0,1,1.781-1.725h4.135a1.755,1.755,0,0,1,1.78,1.725l.889,12.626h7.4c.031,0,.142.008.172.013a1.743,1.743,0,0,1,1.692,1.021l5.176,11.436a1.663,1.663,0,0,1,.03,1.314,1.765,1.765,0,0,1-.969.97l-1.042.421A1.782,1.782,0,0,1,1530.4,584.4Zm-18.573-28.246a.344.344,0,0,0-.363.308v15.425a.343.343,0,0,0,.363.306H1524.8a.706.706,0,0,1,.645.417l4.6,10.171a.394.394,0,0,0,.5.17l1.039-.423a.317.317,0,0,0,.187-.182.251.251,0,0,0,0-.2l-5.176-11.435a.384.384,0,0,0-.386-.193.6.6,0,0,1-.149,0l-8.094-.006a.71.71,0,0,1-.708-.66l-.937-13.335a.352.352,0,0,0-.362-.359Z" transform="translate(-1509.559 -543.742)" fill="#555"/>
    </g>
    <g id="그룹_703" data-name="그룹 703" transform="translate(6.772 31.782)">
      <path id="패스_972" data-name="패스 972" d="M1523.136,564.991s-2.161,2.059-2.161,8.8h-7.733s-.843-6.616-2.834-8.8" transform="translate(-1509.699 -564.28)" fill="#bc8877"/>
      <path id="패스_973" data-name="패스 973" d="M1521.346,574.87h-7.733a.713.713,0,0,1-.7-.621c-.226-1.778-1.144-6.759-2.654-8.408a.709.709,0,0,1,1.048-.956c1.766,1.931,2.656,6.821,2.927,8.566h6.415c.149-6.406,2.281-8.511,2.375-8.6a.709.709,0,0,1,.983,1.021c-.042.044-1.948,2.069-1.948,8.289A.709.709,0,0,1,1521.346,574.87Z" transform="translate(-1510.069 -564.652)" fill="#555"/>
    </g>
    <path id="패스_974" data-name="패스 974" d="M1511.79,559.8h-4.2a.71.71,0,0,1,0-1.419h4.2a.71.71,0,1,1,0,1.419Z" transform="translate(-1506.881 -540.219)" fill="#555"/>
    <g id="그룹_704" data-name="그룹 704" transform="translate(6.706 28.198)">
      <rect id="사각형_608" data-name="사각형 608" width="12.861" height="4.068" rx="0.866" transform="translate(13.571 4.776) rotate(180)" fill="#bc8877"/>
      <path id="패스_975" data-name="패스 975" d="M1522.379,568.521h-10.4a1.941,1.941,0,0,1-1.937-1.939v-1.61a1.941,1.941,0,0,1,1.937-1.937h10.4a1.941,1.941,0,0,1,1.939,1.937v1.61A1.942,1.942,0,0,1,1522.379,568.521Zm-10.4-4.069a.527.527,0,0,0-.518.52v1.61a.526.526,0,0,0,.518.52h10.4a.52.52,0,0,0,.52-.52v-1.61a.52.52,0,0,0-.52-.52Z" transform="translate(-1510.038 -563.035)" fill="#555"/>
    </g>
  </g>
</svg>
