<svg xmlns="http://www.w3.org/2000/svg" width="44" height="44" viewBox="0 0 44 44">
  <g id="_6-1.화장실불가" data-name="6-1.화장실불가" transform="translate(-1724 -398)">
    <g id="_5.화장실_스스로_가능" data-name="5.화장실 스스로 가능" transform="translate(1734.725 402.475)">
      <g id="그룹_701" data-name="그룹 701" transform="translate(1.959 13.115)">
        <rect id="사각형_607" data-name="사각형 607" width="14.122" height="3.613" rx="0.866" transform="translate(4.211 0.598) rotate(90)" fill="#bc8877"/>
        <path id="패스_969" data-name="패스 969" d="M1511.167,572.292h-1.543a1.635,1.635,0,0,1-1.633-1.633V558.608a1.635,1.635,0,0,1,1.633-1.633h1.543a1.635,1.635,0,0,1,1.633,1.633V570.66A1.635,1.635,0,0,1,1511.167,572.292Zm-1.543-14.122a.438.438,0,0,0-.438.438V570.66a.438.438,0,0,0,.438.438h1.543a.443.443,0,0,0,.438-.438V558.608a.443.443,0,0,0-.437-.438Z" transform="translate(-1507.991 -556.975)" fill="#555"/>
      </g>
      <g id="그룹_702" data-name="그룹 702" transform="translate(5.346 1)">
        <path id="패스_970" data-name="패스 970" d="M1513.456,556.874a3.492,3.492,0,1,1,3.647-3.488A3.575,3.575,0,0,1,1513.456,556.874Zm0-5.781a2.3,2.3,0,1,0,2.452,2.293A2.379,2.379,0,0,0,1513.456,551.093Z" transform="translate(-1509.811 -549.898)" fill="#555"/>
        <path id="패스_971" data-name="패스 971" d="M1527.182,579.714a1.5,1.5,0,0,1-1.378-.87l-3.718-8.214h-10.544a1.478,1.478,0,0,1-1.5-1.453V556.188a1.478,1.478,0,0,1,1.5-1.453h3.482a1.478,1.478,0,0,1,1.5,1.453l.748,10.632h6.228c.026,0,.12.007.145.011a1.468,1.468,0,0,1,1.425.86l4.358,9.63a1.4,1.4,0,0,1,.025,1.107,1.486,1.486,0,0,1-.816.817l-.878.355A1.5,1.5,0,0,1,1527.182,579.714Zm-15.64-23.786a.29.29,0,0,0-.305.259v12.989a.288.288,0,0,0,.305.258h10.929a.6.6,0,0,1,.543.351l3.877,8.565a.332.332,0,0,0,.417.143l.875-.356a.267.267,0,0,0,.157-.154.212.212,0,0,0,0-.171l-4.358-9.63a.323.323,0,0,0-.325-.162.5.5,0,0,1-.126,0l-6.816-.005a.6.6,0,0,1-.6-.556l-.789-11.229a.3.3,0,0,0-.3-.3Z" transform="translate(-1509.635 -546.32)" fill="#555"/>
      </g>
      <g id="그룹_703" data-name="그룹 703" transform="translate(5.703 26.921)">
        <path id="패스_972" data-name="패스 972" d="M1521.126,564.991s-1.82,1.734-1.82,7.407h-6.512s-.709-5.571-2.386-7.407" transform="translate(-1509.811 -564.392)" fill="#bc8877"/>
        <path id="패스_973" data-name="패스 973" d="M1519.565,573.256h-6.512a.6.6,0,0,1-.593-.523c-.19-1.5-.964-5.691-2.235-7.081a.6.6,0,0,1,.882-.8c1.487,1.626,2.237,5.744,2.465,7.213h5.4c.125-5.395,1.921-7.167,2-7.243a.6.6,0,0,1,.828.86c-.035.037-1.64,1.742-1.64,6.98A.6.6,0,0,1,1519.565,573.256Z" transform="translate(-1510.069 -564.652)" fill="#555"/>
      </g>
      <path id="패스_974" data-name="패스 974" d="M1511.015,559.573h-3.537a.6.6,0,0,1,0-1.2h3.537a.6.6,0,1,1,0,1.2Z" transform="translate(-1506.881 -542.929)" fill="#555"/>
      <g id="그룹_704" data-name="그룹 704" transform="translate(5.647 23.903)">
        <rect id="사각형_608" data-name="사각형 608" width="10.83" height="3.425" rx="0.866" transform="translate(11.428 4.022) rotate(180)" fill="#bc8877"/>
        <path id="패스_975" data-name="패스 975" d="M1520.43,567.655h-8.761a1.635,1.635,0,0,1-1.631-1.633v-1.356a1.634,1.634,0,0,1,1.631-1.631h8.761a1.635,1.635,0,0,1,1.633,1.631v1.356A1.635,1.635,0,0,1,1520.43,567.655Zm-8.761-3.426a.443.443,0,0,0-.436.438v1.356a.443.443,0,0,0,.436.438h8.761a.438.438,0,0,0,.438-.438v-1.356a.438.438,0,0,0-.438-.438Z" transform="translate(-1510.038 -563.035)" fill="#555"/>
      </g>
    </g>
    <g id="그룹_6310" data-name="그룹 6310" transform="translate(1724 398)">
      <path id="패스_13177" data-name="패스 13177" d="M790.951,646.432a22,22,0,1,1,22-22A22.025,22.025,0,0,1,790.951,646.432Zm0-42.3a20.3,20.3,0,1,0,20.3,20.3A20.319,20.319,0,0,0,790.951,604.137Z" transform="translate(-768.951 -602.432)" fill="#dc3545"/>
      <path id="패스_13178" data-name="패스 13178" d="M777.428,640.379a.852.852,0,0,1-.6-1.453l28.617-28.619a.851.851,0,0,1,1.2,1.2L778.03,640.128A.848.848,0,0,1,777.428,640.379Z" transform="translate(-769.737 -603.218)" fill="#dc3545"/>
    </g>
  </g>
</svg>
