<svg xmlns="http://www.w3.org/2000/svg" width="40.608" height="43.21" viewBox="0 0 40.608 43.21">
  <g id="_6.화장실부축" data-name="6.화장실부축" transform="translate(-1627.877 -398.634)">
    <g id="그룹_1736" data-name="그룹 1736" transform="translate(1627.877 404.48)">
      <g id="그룹_701" data-name="그룹 701" transform="translate(2.046 13.418)">
        <rect id="사각형_607" data-name="사각형 607" width="14.748" height="3.773" rx="0.866" transform="translate(4.398 0.625) rotate(90)" fill="#bc8877"/>
        <path id="패스_969" data-name="패스 969" d="M1511.308,572.972H1509.7a1.707,1.707,0,0,1-1.705-1.705V558.68a1.707,1.707,0,0,1,1.705-1.705h1.612a1.708,1.708,0,0,1,1.705,1.705v12.586A1.707,1.707,0,0,1,1511.308,572.972Zm-1.612-14.749a.457.457,0,0,0-.457.457v12.586a.457.457,0,0,0,.457.457h1.612a.463.463,0,0,0,.457-.457V558.68a.463.463,0,0,0-.457-.457Z" transform="translate(-1507.991 -556.975)" fill="#555"/>
      </g>
      <g id="그룹_702" data-name="그룹 702" transform="translate(5.49)">
        <path id="패스_970" data-name="패스 970" d="M1513.618,557.184a3.647,3.647,0,1,1,3.809-3.643A3.733,3.733,0,0,1,1513.618,557.184Zm0-6.038a2.4,2.4,0,1,0,2.561,2.395A2.485,2.485,0,0,0,1513.618,551.146Z" transform="translate(-1509.811 -549.898)" fill="#555"/>
        <path id="패스_971" data-name="패스 971" d="M1527.943,580.823a1.571,1.571,0,0,1-1.439-.909l-3.883-8.579h-11.012a1.543,1.543,0,0,1-1.567-1.517V556.252a1.544,1.544,0,0,1,1.567-1.517h3.636a1.543,1.543,0,0,1,1.565,1.517l.782,11.1h6.5c.027,0,.125.007.151.011a1.533,1.533,0,0,1,1.488.9l4.552,10.057a1.463,1.463,0,0,1,.026,1.156,1.552,1.552,0,0,1-.852.853l-.917.371A1.569,1.569,0,0,1,1527.943,580.823Zm-16.335-24.841a.3.3,0,0,0-.319.271v13.566a.3.3,0,0,0,.319.269h11.414a.621.621,0,0,1,.568.367l4.049,8.945a.347.347,0,0,0,.436.149l.914-.372a.279.279,0,0,0,.164-.16.222.222,0,0,0,0-.179L1524.6,568.78a.338.338,0,0,0-.339-.17.524.524,0,0,1-.131,0l-7.118-.006a.624.624,0,0,1-.623-.581l-.825-11.728a.31.31,0,0,0-.318-.315Z" transform="translate(-1509.617 -545.243)" fill="#555"/>
      </g>
      <g id="그룹_703" data-name="그룹 703" transform="translate(5.916 27.775)">
        <path id="패스_972" data-name="패스 972" d="M1521.6,564.991s-1.9,1.81-1.9,7.736h-6.8s-.741-5.819-2.492-7.736" transform="translate(-1509.784 -564.366)" fill="#bc8877"/>
        <path id="패스_973" data-name="패스 973" d="M1519.987,573.638h-6.8a.627.627,0,0,1-.62-.546c-.2-1.563-1.006-5.944-2.334-7.395a.624.624,0,0,1,.922-.841c1.553,1.7,2.336,6,2.574,7.533h5.641c.131-5.634,2.006-7.485,2.089-7.565a.623.623,0,0,1,.865.9c-.037.039-1.713,1.82-1.713,7.29A.624.624,0,0,1,1519.987,573.638Z" transform="translate(-1510.069 -564.652)" fill="#555"/>
      </g>
      <path id="패스_974" data-name="패스 974" d="M1511.2,559.626H1507.5a.624.624,0,0,1,0-1.248h3.695a.624.624,0,1,1,0,1.248Z" transform="translate(-1506.88 -542.487)" fill="#555"/>
      <g id="그룹_704" data-name="그룹 704" transform="translate(5.858 24.663)">
        <rect id="사각형_608" data-name="사각형 608" width="11.311" height="3.577" rx="0.866" transform="translate(11.935 4.201) rotate(180)" fill="#bc8877"/>
        <path id="패스_975" data-name="패스 975" d="M1520.892,567.86h-9.15a1.707,1.707,0,0,1-1.7-1.705v-1.416a1.707,1.707,0,0,1,1.7-1.7h9.15a1.707,1.707,0,0,1,1.705,1.7v1.416A1.708,1.708,0,0,1,1520.892,567.86Zm-9.15-3.579a.463.463,0,0,0-.456.457v1.416a.463.463,0,0,0,.456.457h9.15a.457.457,0,0,0,.457-.457v-1.416a.457.457,0,0,0-.457-.457Z" transform="translate(-1510.038 -563.035)" fill="#555"/>
      </g>
    </g>
    <g id="그룹_6308" data-name="그룹 6308" transform="translate(1650.76 399.244)">
      <rect id="사각형_2606" data-name="사각형 2606" width="3.7" height="23.799" rx="0.991" transform="translate(11.967 16.482)" fill="#fff" stroke="#555" stroke-linecap="round" stroke-linejoin="round" stroke-width="1.2"/>
      <rect id="사각형_2607" data-name="사각형 2607" width="3.7" height="23.799" rx="0.991" transform="translate(8.74 18.201)" fill="#fff" stroke="#555" stroke-linecap="round" stroke-linejoin="round" stroke-width="1.2"/>
      <path id="패스_16603" data-name="패스 16603" d="M1466.208,598.859a3.136,3.136,0,1,1-4.224-1.349A3.137,3.137,0,0,1,1466.208,598.859Z" transform="translate(-1460.284 -597.159)" fill="#fff" stroke="#555" stroke-linecap="round" stroke-linejoin="round" stroke-width="1.2"/>
      <path id="패스_16604" data-name="패스 16604" d="M1467.423,617.067l-2.96,1.527a2.659,2.659,0,0,1-3.573-1.142l-6.036-10.552a2.66,2.66,0,0,1,1.142-3.572l3.3-1.7a2.66,2.66,0,0,1,3.573,1.142l5.7,10.728A2.657,2.657,0,0,1,1467.423,617.067Z" transform="translate(-1451.741 -594.305)" fill="#fff" stroke="#555" stroke-linecap="round" stroke-linejoin="round" stroke-width="1.2"/>
      <g id="그룹_6307" data-name="그룹 6307" transform="translate(6.096 10.117)">
        <path id="패스_944" data-name="패스 944" d="M1459.546,621.36a1.7,1.7,0,0,0,1.322-.631c4.67-5.774.151-16.347-.045-16.793a1.7,1.7,0,0,0-3.114,1.355h0c1.094,2.525,3.319,9.837.517,13.3a1.7,1.7,0,0,0,1.32,2.766Z" transform="translate(-1457.568 -602.915)" fill="#fff" stroke="#555" stroke-linecap="round" stroke-linejoin="round" stroke-width="1.2"/>
      </g>
    </g>
  </g>
</svg>
