<svg xmlns="http://www.w3.org/2000/svg" xmlns:xlink="http://www.w3.org/1999/xlink" width="292" height="292" viewBox="0 0 292 292">
  <defs>
    <clipPath id="clip-path">
      <rect id="사각형_14512" data-name="사각형 14512" width="292" height="292" transform="translate(1668 2126)" fill="#ffe1e1"/>
    </clipPath>
  </defs>
  <g id="woman_05_s" transform="translate(-1668 -2126)" clip-path="url(#clip-path)">
    <g id="그룹_59657" data-name="그룹 59657" transform="translate(1727.482 2182.771)">
      <circle id="타원_2918" data-name="타원 2918" cx="27.371" cy="27.371" r="27.371" transform="translate(16.191 52.987)" fill="#d0d7dc" stroke="#333" stroke-linecap="round" stroke-linejoin="round" stroke-width="3"/>
      <path id="패스_68196" data-name="패스 68196" d="M593.984,382.1H467.2c-12.71,0-23.014,11.414-23.014,25.494v63.7H617v-63.7C617,393.51,606.694,382.1,593.984,382.1Z" transform="translate(-444.184 -233.477)" fill="#efa8a8" stroke="#333" stroke-linecap="round" stroke-linejoin="round" stroke-width="3"/>
      <path id="패스_68197" data-name="패스 68197" d="M474.776,366.059v36.464c0,.087-.011.169-.011.256a16.378,16.378,0,0,0,32.757,0v-36.72Z" transform="translate(-404.743 -254.161)" fill="#ffcdbb" stroke="#333" stroke-miterlimit="10" stroke-width="3"/>
      <rect id="사각형_14465" data-name="사각형 14465" width="89.912" height="115.89" rx="44.956" transform="translate(41.45 16.246)" fill="#ffcdbb" stroke="#333" stroke-miterlimit="10" stroke-width="3"/>
      <ellipse id="타원_2919" data-name="타원 2919" cx="10.038" cy="5.049" rx="10.038" ry="5.049" transform="translate(49.981 80.359)" fill="#f2a59e"/>
      <ellipse id="타원_2920" data-name="타원 2920" cx="10.038" cy="5.049" rx="10.038" ry="5.049" transform="translate(102.756 80.359)" fill="#f2a59e"/>
      <rect id="사각형_14466" data-name="사각형 14466" width="11.815" height="5.644" rx="1.232" transform="translate(66.688 63.55)" fill="#b2b9bf"/>
      <rect id="사각형_14467" data-name="사각형 14467" width="11.815" height="5.644" rx="1.232" transform="translate(106.124 69.194) rotate(180)" fill="#b2b9bf"/>
      <path id="패스_68198" data-name="패스 68198" d="M528.749,328.029a44.7,44.7,0,0,1,8.573,26.334V380.34A44.955,44.955,0,0,1,492.365,425.3h0a44.691,44.691,0,0,1-26.334-8.575,44.92,44.92,0,0,0,81.338-26.334V364.41A44.849,44.849,0,0,0,528.749,328.029Z" transform="translate(-416.008 -303.208)" fill="#ffbfae" style="mix-blend-mode: darken;isolation: isolate"/>
      <path id="사각형_14468" data-name="사각형 14468" d="M6,0h6.8a0,0,0,0,1,0,0V26.341a0,0,0,0,1,0,0H6a6,6,0,0,1-6-6V6A6,6,0,0,1,6,0Z" transform="translate(28.647 63.55)" fill="#ffcdbb" stroke="#333" stroke-miterlimit="10" stroke-width="3"/>
      <path id="사각형_14469" data-name="사각형 14469" d="M6,0h6.8a0,0,0,0,1,0,0V26.341a0,0,0,0,1,0,0H6a6,6,0,0,1-6-6V6A6,6,0,0,1,6,0Z" transform="translate(144.166 89.891) rotate(-180)" fill="#ffcdbb" stroke="#333" stroke-miterlimit="10" stroke-width="3"/>
      <rect id="사각형_14470" data-name="사각형 14470" width="5.536" height="10.774" rx="1.209" transform="translate(70.51 72.148)" fill="#333"/>
      <rect id="사각형_14471" data-name="사각형 14471" width="5.536" height="10.774" rx="1.209" transform="translate(102.302 82.922) rotate(-180)" fill="#333"/>
      <ellipse id="타원_2921" data-name="타원 2921" cx="3.692" cy="2.489" rx="3.692" ry="2.489" transform="translate(82.714 84.367)" fill="#e89c8e" style="mix-blend-mode: darken;isolation: isolate"/>
      <path id="패스_68199" data-name="패스 68199" d="M562.939,369.005a53.159,53.159,0,0,0-.641-8.151,51.834,51.834,0,0,0-102.373,0,53.159,53.159,0,0,0-.641,8.151v11.174h12.252a10.573,10.573,0,0,0,10.288-8.126l2.906-12.186,2.906,12.186a10.577,10.577,0,0,0,10.288,8.126h0a10.578,10.578,0,0,0,10.29-8.126l2.906-12.186,2.9,12.186a10.578,10.578,0,0,0,10.29,8.126h0a10.577,10.577,0,0,0,10.288-8.126l2.906-12.186,2.906,12.186a10.575,10.575,0,0,0,10.288,8.126h12.241Z" transform="translate(-424.711 -317.189)" fill="#d0d7dc" stroke="#333" stroke-linecap="round" stroke-linejoin="round" stroke-width="3"/>
      <path id="패스_68200" data-name="패스 68200" d="M478.686,358.913c1.207,2.285,4.064,3.893,7.4,3.893s6.191-1.607,7.4-3.893" transform="translate(-399.686 -263.377)" fill="#ffcdbb" stroke="#333" stroke-linecap="round" stroke-linejoin="round" stroke-width="3"/>
      <circle id="타원_2922" data-name="타원 2922" cx="4.792" cy="4.792" r="4.792" transform="translate(81.607 184.175)" fill="#d0d7dc" stroke="#333" stroke-linecap="round" stroke-linejoin="round" stroke-width="3"/>
      <circle id="타원_2923" data-name="타원 2923" cx="4.792" cy="4.792" r="4.792" transform="translate(81.607 211.258)" fill="#d0d7dc" stroke="#333" stroke-linecap="round" stroke-linejoin="round" stroke-width="3"/>
      <line id="선_3722" data-name="선 3722" y1="46.109" transform="translate(31.47 191.704)" fill="#d0d7dc" stroke="#333" stroke-linecap="round" stroke-linejoin="round" stroke-width="3"/>
      <line id="선_3723" data-name="선 3723" y1="46.109" transform="translate(145.738 191.704)" fill="#d0d7dc" stroke="#333" stroke-linecap="round" stroke-linejoin="round" stroke-width="3"/>
      <path id="패스_68201" data-name="패스 68201" d="M126.284,338.49l-2.672-2.148a14.631,14.631,0,0,1,2.3-3,22.005,22.005,0,0,1,4.154-3.517c.609-.474,2.4-1.543,2.909-2.626a2.863,2.863,0,0,0-.25-2.829,3.107,3.107,0,0,0-2.969-.935c-1.4.326-2.247,1.528-3.045,3.771a10.853,10.853,0,0,1-1.978,3.762,6.814,6.814,0,0,1-3.074,1.957,6.322,6.322,0,0,1-3.14.127,6.11,6.11,0,0,1-2.776-1.4A6.978,6.978,0,0,1,113.5,326.7a6.24,6.24,0,0,1,2.052-4.7,6.346,6.346,0,0,1,3.165-1.7,5.853,5.853,0,0,1,2.844.167,7.383,7.383,0,0,1,2.653,1.471l-2.146,2.334.008.008a4.3,4.3,0,0,0-1.519-.8,2.776,2.776,0,0,0-2.829.825,3.1,3.1,0,0,0-1.06,2.353,3.811,3.811,0,0,0,1.181,2.632,3.057,3.057,0,0,0,2.9.605c.793-.237,2.029-1.068,2.9-3.5a11.088,11.088,0,0,1,2.129-4.1,6.44,6.44,0,0,1,3.254-1.936,6.271,6.271,0,0,1,6.07,1.928,5.519,5.519,0,0,1,1.437,4.088,5.97,5.97,0,0,1-2.152,4.022c-1.206,1.1-2.818,2.027-4.568,3.745a18.017,18.017,0,0,0-3.536,4.359" transform="translate(-1.266 -140.241)" fill="#fff"/>
    </g>
  </g>
</svg>
