<svg xmlns="http://www.w3.org/2000/svg" xmlns:xlink="http://www.w3.org/1999/xlink" width="292" height="292" viewBox="0 0 292 292">
  <defs>
    <clipPath id="clip-path">
      <rect id="사각형_14516" data-name="사각형 14516" width="292" height="292" transform="translate(1276 2618)" fill="#ffe1e1"/>
    </clipPath>
  </defs>
  <g id="woman_09_s" transform="translate(-1276 -2618)" clip-path="url(#clip-path)">
    <g id="그룹_59666" data-name="그룹 59666" transform="translate(1335.482 2677.479)">
      <circle id="타원_2938" data-name="타원 2938" cx="40.845" cy="40.845" r="40.845" transform="translate(46.65 83.239)" fill="#c65b20" stroke="#333" stroke-linecap="round" stroke-linejoin="round" stroke-width="3"/>
      <path id="패스_68228" data-name="패스 68228" d="M382.052,166.057c-5.7-19.669-26.142-34.261-50.395-34.261a57.187,57.187,0,0,0-23.9,5.126,51.9,51.9,0,0,0-13.359,8.655c-9.132,8.2-14.743,19.384-14.743,31.665v21.814c0,25.083,23.325,45.468,52,45.468s52-20.386,52-45.468V177.241A39.347,39.347,0,0,0,382.052,166.057Z" transform="translate(-244.163 -131.796)" fill="#c65b20" stroke="#333" stroke-linecap="round" stroke-linejoin="round" stroke-width="3"/>
      <path id="패스_68229" data-name="패스 68229" d="M416.038,216.1H384.209a15.084,15.084,0,0,1-5.033-.835,15.759,15.759,0,0,1-10.755-14.954v-21.4H335.265v21.4a15.758,15.758,0,0,1-10.755,14.954,15.083,15.083,0,0,1-5.033.835H287.646c-12.865,0-23.3,11.546-23.3,25.8v64.5h174.99V241.9C439.338,227.642,428.905,216.1,416.038,216.1Z" transform="translate(-264.348 -69.683)" fill="#ffd24f" stroke="#333" stroke-linecap="round" stroke-linejoin="round" stroke-width="3"/>
      <path id="패스_68230" data-name="패스 68230" d="M344.964,215.261a34.477,34.477,0,0,1-20.819,12.8,33.522,33.522,0,0,1-6.515.626A34.5,34.5,0,0,1,290.3,215.261a15.758,15.758,0,0,0,10.755-14.954v-21.4h33.155v21.4A15.758,15.758,0,0,0,344.964,215.261Z" transform="translate(-230.136 -69.683)" fill="#ffcdbb" stroke="#333" stroke-miterlimit="10" stroke-width="3"/>
      <path id="패스_68231" data-name="패스 68231" d="M373.477,168.6v26.291a45.51,45.51,0,1,1-91.02,0V168.6a42.333,42.333,0,0,1,.512-6.7,25.422,25.422,0,0,0,21.953-14.1c11.731,7.836,27.682,12.658,45.281,12.658a90.891,90.891,0,0,0,21.976-2.643A44.714,44.714,0,0,1,373.477,168.6Z" transform="translate(-240.473 -110.698)" fill="#ffcdbb" stroke="#333" stroke-miterlimit="10" stroke-width="3"/>
      <path id="사각형_14502" data-name="사각형 14502" d="M6,0h6.964a0,0,0,0,1,0,0V26.671a0,0,0,0,1,0,0H6a6,6,0,0,1-6-6V6A6,6,0,0,1,6,0Z" transform="translate(29.012 60.274)" fill="#ffcdbb" stroke="#333" stroke-miterlimit="10" stroke-width="3"/>
      <path id="사각형_14503" data-name="사각형 14503" d="M6,0h6.964a0,0,0,0,1,0,0V26.671a0,0,0,0,1,0,0H6a6,6,0,0,1-6-6V6A6,6,0,0,1,6,0Z" transform="translate(145.978 86.945) rotate(-180)" fill="#ffcdbb" stroke="#333" stroke-miterlimit="10" stroke-width="3"/>
      <path id="패스_68232" data-name="패스 68232" d="M298.855,172.3c1.224,2.311,4.117,3.939,7.493,3.939s6.271-1.628,7.5-3.939" transform="translate(-218.854 -78.401)" fill="#ffcdbb" stroke="#333" stroke-linecap="round" stroke-linejoin="round" stroke-width="3"/>
      <path id="패스_68233" data-name="패스 68233" d="M372.5,194.949V234.3h-81.69V194.949H279.658v90.3h104v-90.3Z" transform="translate(-244.164 -48.535)" fill="#f2a59e" stroke="#333" stroke-linecap="round" stroke-linejoin="round" stroke-width="3"/>
      <g id="그룹_59665" data-name="그룹 59665">
        <ellipse id="타원_2939" data-name="타원 2939" cx="10.164" cy="5.112" rx="10.164" ry="5.112" transform="translate(50.613 77.294)" fill="#f2a59e"/>
        <ellipse id="타원_2940" data-name="타원 2940" cx="10.164" cy="5.112" rx="10.164" ry="5.112" transform="translate(104.049 77.294)" fill="#f2a59e"/>
        <rect id="사각형_14504" data-name="사각형 14504" width="11.963" height="5.715" rx="1.232" transform="translate(67.529 56.702)" fill="#7e5449"/>
        <rect id="사각형_14505" data-name="사각형 14505" width="11.963" height="5.715" rx="1.232" transform="translate(107.461 62.417) rotate(180)" fill="#7e5449"/>
        <path id="패스_68234" data-name="패스 68234" d="M349.7,140.879a45.264,45.264,0,0,1,8.68,26.664v26.3a45.52,45.52,0,0,1-45.519,45.519h0a45.25,45.25,0,0,1-26.664-8.682,45.483,45.483,0,0,0,82.356-26.664v-26.3A45.415,45.415,0,0,0,349.7,140.879Z" transform="translate(-235.541 -119.82)" fill="#ffbfae" style="mix-blend-mode: darken;isolation: isolate"/>
        <rect id="사각형_14506" data-name="사각형 14506" width="5.605" height="10.909" rx="1.209" transform="translate(71.4 68.98)" fill="#333"/>
        <rect id="사각형_14507" data-name="사각형 14507" width="5.605" height="10.909" rx="1.209" transform="translate(103.59 79.889) rotate(-180)" fill="#333"/>
        <ellipse id="타원_2941" data-name="타원 2941" cx="3.739" cy="2.521" rx="3.739" ry="2.521" transform="translate(83.756 81.352)" fill="#f2a59e"/>
        <path id="패스_68235" data-name="패스 68235" d="M126.284,338.49l-2.672-2.148a14.631,14.631,0,0,1,2.3-3,22.005,22.005,0,0,1,4.154-3.517c.609-.474,2.4-1.543,2.909-2.626a2.863,2.863,0,0,0-.25-2.829,3.107,3.107,0,0,0-2.969-.935c-1.4.326-2.247,1.528-3.045,3.771a10.853,10.853,0,0,1-1.978,3.762,6.814,6.814,0,0,1-3.074,1.957,6.322,6.322,0,0,1-3.14.127,6.11,6.11,0,0,1-2.776-1.4A6.978,6.978,0,0,1,113.5,326.7a6.24,6.24,0,0,1,2.052-4.7,6.346,6.346,0,0,1,3.165-1.7,5.853,5.853,0,0,1,2.844.167,7.383,7.383,0,0,1,2.653,1.471l-2.146,2.334.008.008a4.3,4.3,0,0,0-1.519-.8,2.776,2.776,0,0,0-2.829.825,3.1,3.1,0,0,0-1.06,2.353,3.811,3.811,0,0,0,1.181,2.632,3.057,3.057,0,0,0,2.9.605c.793-.237,2.029-1.068,2.9-3.5a11.088,11.088,0,0,1,2.129-4.1,6.44,6.44,0,0,1,3.254-1.936,6.271,6.271,0,0,1,6.07,1.928,5.519,5.519,0,0,1,1.437,4.088,5.97,5.97,0,0,1-2.152,4.022c-1.206,1.1-2.818,2.027-4.568,3.745a18.017,18.017,0,0,0-3.536,4.359" transform="translate(-3.969 -124.283)" fill="#fff"/>
      </g>
    </g>
  </g>
</svg>
