<svg xmlns="http://www.w3.org/2000/svg" xmlns:xlink="http://www.w3.org/1999/xlink" width="292" height="292" viewBox="0 0 292 292">
  <defs>
    <clipPath id="clip-path">
      <rect id="사각형_14509" data-name="사각형 14509" width="292" height="292" transform="translate(492 2126)" fill="#ffe1e1"/>
    </clipPath>
  </defs>
  <g id="woman_02_s" transform="translate(-492 -2126)" clip-path="url(#clip-path)">
    <g id="그룹_59654" data-name="그룹 59654" transform="translate(551.48 2188.186)">
      <path id="패스_68173" data-name="패스 68173" d="M597.7,431.148c-4.682-5.676-7.366-12.85-6.42-20.147a26.99,26.99,0,0,0,.22-3.437,26.425,26.425,0,0,0-5.736-16.479,25.781,25.781,0,0,1-5.433-16.028v-1.912a54.061,54.061,0,0,0-.607-7.989l.011,0c-.062-.412-.151-.813-.22-1.223-.117-.671-.222-1.344-.362-2.006-.055-.247-.124-.49-.181-.74a53.885,53.885,0,0,0-1.47-5.262c-.039-.115-.071-.234-.11-.348-.27-.781-.572-1.546-.875-2.31-.108-.27-.206-.547-.318-.817-.309-.744-.646-1.472-.987-2.2-.128-.273-.25-.547-.382-.817-.357-.73-.74-1.447-1.129-2.159-.133-.245-.263-.49-.4-.73-.415-.73-.849-1.445-1.3-2.155-.128-.2-.254-.4-.385-.6q-.711-1.1-1.472-2.15c-.115-.158-.229-.316-.346-.472-.54-.735-1.095-1.454-1.672-2.157-.082-.1-.169-.2-.254-.307-.618-.744-1.252-1.475-1.91-2.187l-.076-.08a54.05,54.05,0,0,0-11.845-9.605c-.183-.11-.359-.229-.545-.337-.119-.069-.231-.149-.35-.215-1.163-.68-2.361-1.3-3.577-1.891-.053-.025-.1-.053-.156-.078-.641-.3-1.282-.6-1.946-.893-.034-.016-.071-.027-.105-.041-.778-.334-1.571-.637-2.368-.934-.046-.018-.092-.039-.137-.055-.135-.055-.27-.1-.408-.153-1.482-.536-2.99-1.014-4.531-1.417l-.03-.009c-.066-.021-.142-.032-.211-.048-1.3-.334-2.615-.614-3.945-.852l-.08-.016c-.142-.027-.3-.046-.444-.071-1.452-.245-2.922-.437-4.41-.563l-.435-.053c-.06,0-.119,0-.176-.007-1.312-.1-2.633-.153-3.968-.153-1.4,0-2.771.046-4.144.16-1.39.1-2.761.279-4.119.49-.039,0-.078.007-.117.014-.275.046-.549.091-.847.137l-.11.023c-1.358.236-2.7.511-4.021.847a.69.69,0,0,1-.105.023c-.133.034-.259.082-.392.117a53.842,53.842,0,0,0-11.655,4.612l-.066.034-.566.307c-.261.144-.529.277-.785.426a54.107,54.107,0,0,0-27.179,46.916v1.912a25.769,25.769,0,0,1-5.436,16.028A26.565,26.565,0,0,0,461.174,411c.946,7.3-1.74,14.471-6.423,20.147a31.418,31.418,0,0,0-7.062,22.913,31.589,31.589,0,0,0,63.045-2.883c0-.073-.011-.142-.011-.215a53.958,53.958,0,0,0,31.012,0c0,.073-.011.142-.011.215a31.587,31.587,0,1,0,55.981-20.03Z" transform="translate(-439.822 -319.039)" fill="#7e5449" stroke="#333" stroke-linecap="round" stroke-linejoin="round" stroke-width="3"/>
      <path id="패스_68174" data-name="패스 68174" d="M593.981,381.52H467.195c-12.71,0-23.014,11.412-23.014,25.494v63.7H617v-63.7C617,392.932,606.692,381.52,593.981,381.52Z" transform="translate(-444.181 -238.456)" fill="#ffa556" stroke="#333" stroke-linecap="round" stroke-linejoin="round" stroke-width="3"/>
      <path id="패스_68175" data-name="패스 68175" d="M474.776,365.483v36.461c0,.087-.014.172-.014.256a16.378,16.378,0,0,0,32.757,0V365.483Z" transform="translate(-404.74 -259.139)" fill="#ffcdbb" stroke="#333" stroke-miterlimit="10" stroke-width="3"/>
      <line id="선_3716" data-name="선 3716" y1="48.591" transform="translate(143.284 182.331)" fill="#ffd24f" stroke="#333" stroke-linecap="round" stroke-linejoin="round" stroke-width="3"/>
      <line id="선_3717" data-name="선 3717" y1="48.591" transform="translate(30.639 182.331)" fill="#ffd24f" stroke="#333" stroke-linecap="round" stroke-linejoin="round" stroke-width="3"/>
      <path id="패스_68176" data-name="패스 68176" d="M552.179,354.652V380.64a44.947,44.947,0,1,1-89.894,0V354.652a42.265,42.265,0,0,1,.435-6.182,44.878,44.878,0,0,0,12.823,1.878c12.342,0,23.538-10.576,31.69-18.613,8.151,8.037,19.348,18.613,31.69,18.613a44.877,44.877,0,0,0,12.822-1.878A42.249,42.249,0,0,1,552.179,354.652Z" transform="translate(-420.832 -302.666)" fill="#ffcdbb" stroke="#333" stroke-miterlimit="10" stroke-width="3"/>
      <ellipse id="타원_2904" data-name="타원 2904" cx="10.038" cy="5.049" rx="10.038" ry="5.049" transform="translate(49.981 73.269)" fill="#f2a59e"/>
      <ellipse id="타원_2905" data-name="타원 2905" cx="10.038" cy="5.049" rx="10.038" ry="5.049" transform="translate(102.756 73.269)" fill="#f2a59e"/>
      <rect id="사각형_14446" data-name="사각형 14446" width="11.815" height="5.644" rx="1.232" transform="translate(66.688 52.932)" fill="#7e5449"/>
      <rect id="사각형_14447" data-name="사각형 14447" width="11.815" height="5.644" rx="1.232" transform="translate(106.125 58.576) rotate(-180)" fill="#7e5449"/>
      <path id="패스_68177" data-name="패스 68177" d="M547.359,346.6v25.988a44.951,44.951,0,0,1-44.947,44.947c-1.1,0-2.2-.046-3.274-.137-.687-.023-1.374-.091-2.061-.183-.183-.023-.366-.046-.527-.069a16.056,16.056,0,0,1-1.832-.3,4.879,4.879,0,0,1-.8-.137c-.756-.114-1.511-.3-2.267-.481-.046,0-.069-.023-.114-.023-.847-.206-1.672-.435-2.5-.687a.071.071,0,0,0-.046-.023c-.824-.252-1.626-.549-2.4-.824-.114-.046-.206-.092-.321-.137-.756-.3-1.511-.6-2.244-.939-.8-.343-1.58-.733-2.358-1.145a45.439,45.439,0,0,1-15.639-13.532,45.308,45.308,0,0,0,12.25,6.3,44.956,44.956,0,0,0,59.052-42.68v-22.92a37.637,37.637,0,0,0,7.235.687c.779,0,1.534-.023,2.313-.069a3.1,3.1,0,0,1,.115.664,1.208,1.208,0,0,1,.023.3c.114.847.206,1.74.252,2.61C547.336,344.748,547.359,345.664,547.359,346.6Z" transform="translate(-416.004 -292.497)" fill="#ffbfae" style="mix-blend-mode: darken;isolation: isolate"/>
      <path id="사각형_14448" data-name="사각형 14448" d="M6,0h6.8a0,0,0,0,1,0,0V26.341a0,0,0,0,1,0,0H6a6,6,0,0,1-6-6V6A6,6,0,0,1,6,0Z" transform="translate(28.647 56.46)" fill="#ffcdbb" stroke="#333" stroke-miterlimit="10" stroke-width="3"/>
      <path id="사각형_14449" data-name="사각형 14449" d="M6,0h6.8a0,0,0,0,1,0,0V26.341a0,0,0,0,1,0,0H6a6,6,0,0,1-6-6V6A6,6,0,0,1,6,0Z" transform="translate(144.166 82.801) rotate(-180)" fill="#ffcdbb" stroke="#333" stroke-miterlimit="10" stroke-width="3"/>
      <path id="패스_68178" data-name="패스 68178" d="M478.686,358.2c1.207,2.283,4.064,3.89,7.4,3.89s6.191-1.607,7.4-3.89" transform="translate(-399.679 -268.534)" fill="#ffcdbb" stroke="#333" stroke-linecap="round" stroke-linejoin="round" stroke-width="3"/>
      <rect id="사각형_14450" data-name="사각형 14450" width="5.536" height="10.774" rx="1.209" transform="translate(70.511 65.058)" fill="#333"/>
      <rect id="사각형_14451" data-name="사각형 14451" width="5.536" height="10.774" rx="1.209" transform="translate(102.302 75.833) rotate(180)" fill="#333"/>
      <ellipse id="타원_2906" data-name="타원 2906" cx="3.692" cy="2.489" rx="3.692" ry="2.489" transform="translate(82.714 77.277)" fill="#e89c8e" style="mix-blend-mode: darken;isolation: isolate"/>
      <circle id="타원_2907" data-name="타원 2907" cx="4.792" cy="4.792" r="4.792" transform="translate(81.608 179.77)" fill="#cf6f1b" stroke="#333" stroke-linecap="round" stroke-linejoin="round" stroke-width="3"/>
      <circle id="타원_2908" data-name="타원 2908" cx="4.792" cy="4.792" r="4.792" transform="translate(81.608 206.855)" fill="#cf6f1b" stroke="#333" stroke-linecap="round" stroke-linejoin="round" stroke-width="3"/>
      <path id="패스_68179" data-name="패스 68179" d="M126.284,338.49l-2.672-2.148a14.631,14.631,0,0,1,2.3-3,22.005,22.005,0,0,1,4.154-3.517c.609-.474,2.4-1.543,2.909-2.626a2.863,2.863,0,0,0-.25-2.829,3.107,3.107,0,0,0-2.969-.935c-1.4.326-2.247,1.528-3.045,3.771a10.853,10.853,0,0,1-1.978,3.762,6.814,6.814,0,0,1-3.074,1.957,6.322,6.322,0,0,1-3.14.127,6.11,6.11,0,0,1-2.776-1.4A6.978,6.978,0,0,1,113.5,326.7a6.24,6.24,0,0,1,2.052-4.7,6.346,6.346,0,0,1,3.165-1.7,5.853,5.853,0,0,1,2.844.167,7.383,7.383,0,0,1,2.653,1.471l-2.146,2.334.008.008a4.3,4.3,0,0,0-1.519-.8,2.776,2.776,0,0,0-2.829.825,3.1,3.1,0,0,0-1.06,2.353,3.811,3.811,0,0,0,1.181,2.632,3.057,3.057,0,0,0,2.9.605c.793-.237,2.029-1.068,2.9-3.5a11.088,11.088,0,0,1,2.129-4.1,6.44,6.44,0,0,1,3.254-1.936,6.271,6.271,0,0,1,6.07,1.928,5.519,5.519,0,0,1,1.437,4.088,5.97,5.97,0,0,1-2.152,4.022c-1.206,1.1-2.818,2.027-4.568,3.745a18.017,18.017,0,0,0-3.536,4.359" transform="translate(-3.968 -140.506)" fill="#fff"/>
    </g>
  </g>
</svg>
