<svg xmlns="http://www.w3.org/2000/svg" xmlns:xlink="http://www.w3.org/1999/xlink" width="292" height="292" viewBox="0 0 292 292">
  <defs>
    <clipPath id="clip-path">
      <rect id="사각형_14508" data-name="사각형 14508" width="292" height="292" transform="translate(100 2126)" fill="#ffe1e1"/>
    </clipPath>
  </defs>
  <g id="woman_01_s" transform="translate(-100 -2126)" clip-path="url(#clip-path)">
    <g id="그룹_59653" data-name="그룹 59653" transform="translate(151.369 2182.777)">
      <circle id="타원_2896" data-name="타원 2896" cx="25.852" cy="25.852" r="25.852" transform="translate(16.066 63.66)" fill="#704840" stroke="#333" stroke-linecap="round" stroke-linejoin="round" stroke-width="3"/>
      <circle id="타원_2897" data-name="타원 2897" cx="20.444" cy="20.444" r="20.444" transform="translate(39.595 98.666)" fill="#704840" stroke="#333" stroke-linecap="round" stroke-linejoin="round" stroke-width="3"/>
      <circle id="타원_2898" data-name="타원 2898" cx="25.852" cy="25.852" r="25.852" transform="translate(120.033 63.66)" fill="#704840" stroke="#333" stroke-linecap="round" stroke-linejoin="round" stroke-width="3"/>
      <circle id="타원_2899" data-name="타원 2899" cx="20.444" cy="20.444" r="20.444" transform="translate(107.32 98.666)" fill="#704840" stroke="#333" stroke-linecap="round" stroke-linejoin="round" stroke-width="3"/>
      <path id="사각형_14440" data-name="사각형 14440" d="M50,0h87.792a50,50,0,0,1,50,50V87.5a0,0,0,0,1,0,0H0a0,0,0,0,1,0,0V50A50,50,0,0,1,50,0Z" transform="translate(0 149.859)" fill="#ffe8c7" stroke="#333" stroke-linecap="round" stroke-linejoin="round" stroke-width="3"/>
      <path id="패스_68165" data-name="패스 68165" d="M506.888,206.557l-16.054,14.36-16.066-14.36V185.421h32.12Z" transform="translate(-396.932 -56.699)" fill="#ffcdbb" stroke="#333" stroke-miterlimit="10" stroke-width="3"/>
      <path id="패스_68166" data-name="패스 68166" d="M550.472,181.116v25.471a44.092,44.092,0,1,1-88.184,0V181.116a44.092,44.092,0,0,1,88.184,0Z" transform="translate(-412.483 -117.009)" fill="#ffcdbb" stroke="#333" stroke-miterlimit="10" stroke-width="3"/>
      <path id="패스_68167" data-name="패스 68167" d="M469.266,157.674v25.853h-5.054a7.52,7.52,0,0,1-7.525-7.5V165.2a7.525,7.525,0,0,1,7.525-7.525Z" transform="translate(-419.462 -91.276)" fill="#ffcdbb" stroke="#333" stroke-miterlimit="10" stroke-width="3"/>
      <path id="사각형_14441" data-name="사각형 14441" d="M6,0h6.56a0,0,0,0,1,0,0V25.84a0,0,0,0,1,0,0H6a6,6,0,0,1-6-6V6A6,6,0,0,1,6,0Z" transform="translate(150.556 92.249) rotate(-180)" fill="#ffcdbb" stroke="#333" stroke-miterlimit="10" stroke-width="3"/>
      <ellipse id="타원_2900" data-name="타원 2900" cx="9.847" cy="4.953" rx="9.847" ry="4.953" transform="translate(58.164 82.897)" fill="#f2a59e"/>
      <ellipse id="타원_2901" data-name="타원 2901" cx="9.847" cy="4.953" rx="9.847" ry="4.953" transform="translate(109.934 82.897)" fill="#f2a59e"/>
      <rect id="사각형_14442" data-name="사각형 14442" width="11.591" height="3.545" transform="translate(74.553 63.167)" fill="#333"/>
      <rect id="사각형_14443" data-name="사각형 14443" width="11.591" height="3.545" transform="translate(113.239 66.712) rotate(-180)" fill="#333"/>
      <path id="패스_68168" data-name="패스 68168" d="M527.551,140.764a43.848,43.848,0,0,1,8.41,25.833v25.482a44.1,44.1,0,0,1-44.1,44.1h0a43.835,43.835,0,0,1-25.833-8.412,44.065,44.065,0,0,0,79.79-25.833V176.453A44,44,0,0,0,527.551,140.764Z" transform="translate(-407.822 -112.348)" fill="#ffbfae" style="mix-blend-mode: darken;isolation: isolate"/>
      <path id="패스_68169" data-name="패스 68169" d="M567.761,158.47a20.661,20.661,0,0,0-.961-4.42,19.956,19.956,0,0,0-15.083-13.216,20.445,20.445,0,0,0-5.745-.276,16.154,16.154,0,0,1-13.533-5.71,19.975,19.975,0,0,0-29.912,0,16.149,16.149,0,0,1-13.533,5.71,20.45,20.45,0,0,0-5.746.276,19.95,19.95,0,0,0-15.081,13.216,20.543,20.543,0,0,0-.961,4.42,18.312,18.312,0,0,1-6.352,12.639,19.976,19.976,0,0,0-.041,31.129v-.2a7.524,7.524,0,0,1,7.525-7.525h5.054V192.22a44.066,44.066,0,0,1,2.662-15.081,19.986,19.986,0,0,0,30.55-12.248,19.937,19.937,0,0,0,21.758,0,19.986,19.986,0,0,0,30.55,12.248,44.015,44.015,0,0,1,2.664,15.081v2.291h5.054a7.524,7.524,0,0,1,7.525,7.525v.2a19.974,19.974,0,0,0-.043-31.129A18.3,18.3,0,0,1,567.761,158.47Z" transform="translate(-423.587 -128.113)" fill="#704840" stroke="#333" stroke-linecap="round" stroke-linejoin="round" stroke-width="3"/>
      <ellipse id="타원_2902" data-name="타원 2902" cx="5.238" cy="3.531" rx="5.238" ry="3.531" transform="translate(88.658 85.741)" fill="#e89c8e" style="mix-blend-mode: darken;isolation: isolate"/>
      <path id="패스_68170" data-name="패스 68170" d="M563.8,196.683v36.831H472.022V193.932l-11.334,2.488-1.2.263v84.525H576.337V196.683Z" transform="translate(-424.017 -43.855)" fill="#bc8877" stroke="#333" stroke-linecap="round" stroke-linejoin="round" stroke-width="3"/>
      <rect id="사각형_14444" data-name="사각형 14444" width="5.431" height="10.569" rx="1.209" transform="translate(78.303 73.49)" fill="#333"/>
      <rect id="사각형_14445" data-name="사각형 14445" width="5.431" height="10.569" rx="1.209" transform="translate(109.489 84.059) rotate(-180)" fill="#333"/>
      <path id="패스_68171" data-name="패스 68171" d="M478.686,171.571c1.184,2.242,3.987,3.818,7.26,3.818s6.074-1.577,7.26-3.818" transform="translate(-392.049 -73.958)" fill="#ffcdbb" stroke="#333" stroke-linecap="round" stroke-linejoin="round" stroke-width="3"/>
      <path id="패스_68172" data-name="패스 68172" d="M126.284,338.49l-2.672-2.148a14.631,14.631,0,0,1,2.3-3,22.005,22.005,0,0,1,4.154-3.517c.609-.474,2.4-1.543,2.909-2.626a2.863,2.863,0,0,0-.25-2.829,3.107,3.107,0,0,0-2.969-.935c-1.4.326-2.247,1.528-3.045,3.771a10.853,10.853,0,0,1-1.978,3.762,6.814,6.814,0,0,1-3.074,1.957,6.322,6.322,0,0,1-3.14.127,6.11,6.11,0,0,1-2.776-1.4A6.978,6.978,0,0,1,113.5,326.7a6.24,6.24,0,0,1,2.052-4.7,6.346,6.346,0,0,1,3.165-1.7,5.853,5.853,0,0,1,2.844.167,7.383,7.383,0,0,1,2.653,1.471l-2.146,2.334.008.008a4.3,4.3,0,0,0-1.519-.8,2.776,2.776,0,0,0-2.829.825,3.1,3.1,0,0,0-1.06,2.353,3.811,3.811,0,0,0,1.181,2.632,3.057,3.057,0,0,0,2.9.605c.793-.237,2.029-1.068,2.9-3.5a11.088,11.088,0,0,1,2.129-4.1,6.44,6.44,0,0,1,3.254-1.936,6.271,6.271,0,0,1,6.07,1.928,5.519,5.519,0,0,1,1.437,4.088,5.97,5.97,0,0,1-2.152,4.022c-1.206,1.1-2.818,2.027-4.568,3.745a18.017,18.017,0,0,0-3.536,4.359" transform="translate(1.438 -121.315)" fill="#fff"/>
    </g>
  </g>
</svg>
