<svg width="20" height="20" viewBox="0 0 20 20" fill="none" xmlns="http://www.w3.org/2000/svg">
<g clip-path="url(#clip0_277_3)">
<path d="M4 0.5H16C17.933 0.5 19.5 2.067 19.5 4V16C19.5 17.933 17.933 19.5 16 19.5H4C2.067 19.5 0.5 17.933 0.5 16V4C0.5 2.067 2.067 0.5 4 0.5Z" fill="#FAFAFA" stroke="#E1E1E1"/>
<path fill-rule="evenodd" clip-rule="evenodd" d="M8.37345 13.9346C8.24265 13.9346 8.1171 13.8788 8.02463 13.7804L4.24222 9.74992C4.04947 9.54454 4.04947 9.21177 4.24222 9.00737C4.43497 8.80199 4.74625 8.80199 4.939 9.00737L8.37345 12.667L14.7312 5.89232C14.9239 5.68694 15.2353 5.68694 15.428 5.89232C15.6207 6.09667 15.6207 6.42943 15.428 6.6339L8.72142 13.7804C8.62901 13.8788 8.50431 13.9346 8.37345 13.9346Z" fill="#E1E1E1"/>
<path d="M8.37345 13.9346C8.24265 13.9346 8.1171 13.8788 8.02463 13.7804L4.24222 9.74992C4.04947 9.54454 4.04947 9.21177 4.24222 9.00737C4.43497 8.80199 4.74625 8.80199 4.939 9.00737L8.37345 12.667L14.7312 5.89232C14.9239 5.68694 15.2353 5.68694 15.428 5.89232C15.6207 6.09667 15.6207 6.42943 15.428 6.6339L8.72142 13.7804C8.62901 13.8788 8.50431 13.9346 8.37345 13.9346Z" stroke="#E1E1E1" stroke-width="0.5"/>
</g>
<defs>
<clipPath id="clip0_277_3">
<rect width="20" height="20" fill="white"/>
</clipPath>
</defs>
</svg>
