<svg width="50" height="50" viewBox="0 0 50 50" fill="none" xmlns="http://www.w3.org/2000/svg">
<rect width="50" height="50" rx="25" fill="#F5F5F5"/>
<path d="M20.042 33.7465V32.5051C20.042 30.7911 21.7325 29.4012 23.8206 29.4012H27.2213C29.308 29.4012 30.9999 30.7911 30.9999 32.5051V33.7465" stroke="#7E4F40" stroke-width="2" stroke-linecap="round" stroke-linejoin="round"/>
<path d="M25.5208 26.6211C26.9594 26.6211 28.1256 25.4549 28.1256 24.0163C28.1256 22.5777 26.9594 21.4115 25.5208 21.4115C24.0822 21.4115 22.916 22.5777 22.916 24.0163C22.916 25.4549 24.0822 26.6211 25.5208 26.6211Z" stroke="#7E4F40" stroke-width="2" stroke-linecap="round" stroke-linejoin="round"/>
<path d="M30.2721 15H34.0386C34.1714 14.9999 34.3038 15.0147 34.4338 15.0445C34.5598 15.0729 34.6829 15.115 34.8015 15.1699C35.0333 15.2789 35.2442 15.4354 35.4228 15.6312C35.5121 15.7285 35.5922 15.8357 35.6618 15.9509C35.7337 16.0661 35.7953 16.1888 35.8456 16.3171C35.8954 16.4477 35.9335 16.5831 35.9596 16.7217C35.9866 16.8641 36.0002 17.0093 36 17.1548V36.8452C36.0002 36.9907 35.9866 37.1358 35.9596 37.2782C35.9335 37.4168 35.8953 37.5523 35.8456 37.6828C35.7472 37.9394 35.6042 38.1724 35.4247 38.3687C35.2468 38.5655 35.0357 38.7222 34.8033 38.8299C34.6847 38.8845 34.5616 38.9266 34.4357 38.9554C34.3057 38.9851 34.1732 39.0001 34.0404 39H16.9614C16.8286 39.0003 16.6961 38.9853 16.5662 38.9554C16.4403 38.9266 16.3171 38.8845 16.1985 38.8299C15.9663 38.7218 15.7553 38.5652 15.5772 38.3687C15.4888 38.2712 15.4088 38.1649 15.3382 38.0511C15.266 37.9361 15.2044 37.8133 15.1544 37.6848C15.1043 37.5544 15.0661 37.4189 15.0404 37.2801C15.0133 37.1377 14.9998 36.9927 15 36.8472V17.1568C14.9998 17.0113 15.0133 16.8662 15.0404 16.7238C15.1175 16.3108 15.3029 15.9317 15.5735 15.6333C15.7524 15.4378 15.9632 15.2812 16.1948 15.1719C16.3133 15.1169 16.4365 15.0748 16.5625 15.0464C16.6924 15.0166 16.8249 15.0017 16.9577 15.002H20.7242" stroke="#7E4F40" stroke-width="2" stroke-linecap="round" stroke-linejoin="round"/>
<path d="M30 15.0058V15.0533C30 14.5855 29.8288 14.137 29.5239 13.8062C29.2191 13.4754 28.8056 13.2895 28.3745 13.2895H27.6114V13.2292C27.5959 12.6322 27.3665 12.0653 26.9719 11.6491C26.5773 11.2328 26.0487 11 25.4983 11C24.948 11 24.4193 11.2328 24.0247 11.6491C23.6301 12.0653 23.4007 12.6322 23.3852 13.2292V13.2895H22.6255C22.1944 13.2895 21.7809 13.4754 21.4761 13.8062C21.1712 14.137 21 14.5855 21 15.0533V15.0058C21 15.1027 21.0135 14.8432 21.0269 14.9364C21.0104 14.9957 21.0014 15.0572 21 15.1191V16.2945C21 16.4816 21.0685 16.6611 21.1904 16.7934C21.3123 16.9257 21.4777 17 21.6502 17H29.3431C29.5154 16.9995 29.6805 16.925 29.8023 16.7928C29.9242 16.6606 29.9928 16.4814 29.9933 16.2945V15.1191C29.9925 15.0571 29.9834 14.9956 29.9663 14.9364C29.9865 14.8505 30 15.11 30 15.0058Z" fill="#FFF1EC" stroke="#7E4F40" stroke-width="2" stroke-linecap="round" stroke-linejoin="round"/>
</svg>
