<svg width="60" height="60" viewBox="0 0 60 60" fill="none" xmlns="http://www.w3.org/2000/svg">
<g clip-path="url(#clip0_295_18)">
<path d="M30 60C46.5685 60 60 46.5685 60 30C60 13.4315 46.5685 0 30 0C13.4315 0 0 13.4315 0 30C0 46.5685 13.4315 60 30 60Z" fill="#7E4F40"/>
<path d="M14.5698 14.5701H45.4298V45.4301H14.5698V14.5701Z" fill="#7E4F40"/>
<path d="M22.9067 19.6152H19.9067C18.8022 19.6152 17.9067 20.5107 17.9067 21.6152V39.1622C17.9067 40.2668 18.8022 41.1622 19.9067 41.1622H22.9067C24.0113 41.1622 24.9067 40.2668 24.9067 39.1622V21.6152C24.9067 20.5107 24.0113 19.6152 22.9067 19.6152Z" fill="#7E4F40"/>
<path d="M22.9067 20.6152H19.9067C19.3545 20.6152 18.9067 21.0629 18.9067 21.6152V39.1622C18.9067 39.7145 19.3545 40.1622 19.9067 40.1622H22.9067C23.459 40.1622 23.9067 39.7145 23.9067 39.1622V21.6152C23.9067 21.0629 23.459 20.6152 22.9067 20.6152Z" fill="#7E4F40" stroke="white" stroke-width="2" stroke-linejoin="round"/>
<path d="M40.0918 27.2551H37.0918C35.9872 27.2551 35.0918 28.1506 35.0918 29.2551V39.1621C35.0918 40.2667 35.9872 41.1621 37.0918 41.1621H40.0918C41.1964 41.1621 42.0918 40.2667 42.0918 39.1621V29.2551C42.0918 28.1506 41.1964 27.2551 40.0918 27.2551Z" fill="#7E4F40"/>
<path d="M40.0918 28.2551H37.0918C36.5395 28.2551 36.0918 28.7028 36.0918 29.2551V39.1621C36.0918 39.7144 36.5395 40.1621 37.0918 40.1621H40.0918C40.6441 40.1621 41.0918 39.7144 41.0918 39.1621V29.2551C41.0918 28.7028 40.6441 28.2551 40.0918 28.2551Z" fill="#7E4F40" stroke="white" stroke-width="2" stroke-linejoin="round"/>
<path d="M31.4858 31.8521H28.4858C27.3813 31.8521 26.4858 32.7475 26.4858 33.8521V39.1611C26.4858 40.2656 27.3813 41.1611 28.4858 41.1611H31.4858C32.5904 41.1611 33.4858 40.2656 33.4858 39.1611V33.8521C33.4858 32.7475 32.5904 31.8521 31.4858 31.8521Z" fill="#7E4F40"/>
<path d="M31.4858 32.8521H28.4858C27.9336 32.8521 27.4858 33.2998 27.4858 33.8521V39.1611C27.4858 39.7133 27.9336 40.1611 28.4858 40.1611H31.4858C32.0381 40.1611 32.4858 39.7133 32.4858 39.1611V33.8521C32.4858 33.2998 32.0381 32.8521 31.4858 32.8521Z" fill="#7E4F40" stroke="white" stroke-width="2" stroke-linejoin="round"/>
<path d="M34.731 18.8381H38.931V23.0141" fill="#7E4F40"/>
<path d="M34.731 18.8381H38.931V23.0141" stroke="white" stroke-width="2" stroke-linecap="round" stroke-linejoin="round"/>
<path d="M29.999 27.169L38.427 19.334Z" fill="#7E4F40"/>
<path d="M29.999 27.169L38.427 19.334" stroke="white" stroke-width="2" stroke-linecap="round" stroke-linejoin="round"/>
</g>
<defs>
<clipPath id="clip0_295_18">
<rect width="60" height="60" fill="white"/>
</clipPath>
</defs>
</svg>
