<svg width="60" height="60" viewBox="0 0 60 60" fill="none" xmlns="http://www.w3.org/2000/svg">
<g clip-path="url(#clip0_295_46)">
<path d="M30 60C46.5685 60 60 46.5685 60 30C60 13.4315 46.5685 0 30 0C13.4315 0 0 13.4315 0 30C0 46.5685 13.4315 60 30 60Z" fill="#7E4F40"/>
<path d="M27.3576 21.0391L25.1576 15.9371C25.1131 15.8447 25.107 15.7399 25.1405 15.6434C25.1741 15.547 25.2447 15.466 25.3386 15.4165C28.3274 14.2866 31.6621 14.2883 34.6496 15.4212C34.7455 15.4711 34.818 15.5531 34.8529 15.6511C34.8877 15.7491 34.8822 15.8559 34.8376 15.9503L32.6196 21.0362L27.3576 21.0391Z" stroke="white" stroke-width="2" stroke-miterlimit="10"/>
<path d="M43.1279 30.7701C41.6879 27.1701 34.3199 21.4221 34.3199 21.4221L33.8349 21.0391H26.2069L25.7219 21.4221C25.7219 21.4221 18.3159 27.1651 16.8739 30.7701C16.8739 30.7701 12.9549 38.2921 19.4869 42.7521C22.6614 44.6319 26.2877 45.6123 29.9769 45.5881H30.0279C33.7172 45.6122 37.3434 44.6318 40.5179 42.7521C47.0479 38.2911 43.1279 30.7701 43.1279 30.7701Z" stroke="white" stroke-width="2" stroke-linecap="round" stroke-linejoin="round"/>
<path d="M25.5953 19.6318H34.4141C34.7582 19.6584 35.0747 19.7868 35.2952 19.9893C35.5156 20.1918 35.6223 20.452 35.5922 20.7138C35.6223 20.9756 35.5156 21.2358 35.2952 21.4383C35.0747 21.6408 34.7582 21.7692 34.4141 21.7958H25.5953C25.2501 21.7705 24.9319 21.6426 24.7101 21.4399C24.4883 21.2373 24.3807 20.9764 24.4107 20.7138C24.3807 20.4513 24.4883 20.1903 24.7101 19.9877C24.9319 19.7851 25.2501 19.6572 25.5953 19.6318Z" fill="white"/>
<path d="M35.7902 32.7521H35.3362L36.3282 29.8521C36.3796 29.7242 36.405 29.5874 36.403 29.4495C36.401 29.3117 36.3716 29.1756 36.3166 29.0493C36.2616 28.9229 36.1819 28.8087 36.0824 28.7134C35.9828 28.6181 35.8653 28.5435 35.7366 28.494C35.608 28.4445 35.4708 28.421 35.333 28.425C35.1952 28.429 35.0596 28.4603 34.934 28.5172C34.8085 28.574 34.6955 28.6553 34.6016 28.7562C34.5077 28.8572 34.4348 28.9758 34.3872 29.1051C34.3771 29.1304 34.3681 29.1561 34.3602 29.1821L32.4532 34.7441L30.9922 30.4771C30.922 30.2719 30.7894 30.0938 30.6129 29.9677C30.4365 29.8416 30.2251 29.7738 30.0082 29.7738C29.7913 29.7738 29.5799 29.8416 29.4034 29.9677C29.227 30.0938 29.0944 30.2719 29.0242 30.4771L27.5572 34.7441L25.6482 29.1781C25.6093 29.0472 25.5449 28.9252 25.4588 28.8192C25.3728 28.7131 25.2666 28.6251 25.1465 28.56C25.0264 28.495 24.8947 28.4542 24.7588 28.4401C24.6229 28.4259 24.4856 28.4387 24.3547 28.4776C24.2238 28.5165 24.1018 28.5809 23.9957 28.667C23.8897 28.7531 23.8016 28.8592 23.7366 28.9793C23.6715 29.0994 23.6308 29.2312 23.6166 29.367C23.6025 29.5029 23.6153 29.6402 23.6542 29.7711C23.6618 29.7971 23.6705 29.8228 23.6802 29.8481L24.6722 32.7481H24.2192C23.9434 32.7481 23.6788 32.8577 23.4838 33.0527C23.2888 33.2478 23.1792 33.5123 23.1792 33.7881C23.1792 34.0639 23.2888 34.3285 23.4838 34.5235C23.6788 34.7185 23.9434 34.8281 24.2192 34.8281H25.3852L26.5682 38.2921C26.6388 38.4966 26.7715 38.674 26.9477 38.7995C27.1239 38.9251 27.3348 38.9926 27.5512 38.9926C27.7675 38.9926 27.9785 38.9251 28.1547 38.7995C28.3309 38.674 28.4636 38.4966 28.5342 38.2921L29.9982 34.0251L31.4632 38.2921C31.5336 38.497 31.6662 38.6747 31.8426 38.8005C32.0189 38.9264 32.2301 38.994 32.4467 38.994C32.6633 38.994 32.8745 38.9264 33.0508 38.8005C33.2271 38.6747 33.3598 38.497 33.4302 38.2921L34.6182 34.8321H35.7842C36.06 34.8321 36.3246 34.7226 36.5196 34.5275C36.7146 34.3325 36.8242 34.0679 36.8242 33.7921C36.8242 33.5163 36.7146 33.2517 36.5196 33.0567C36.3246 32.8617 36.06 32.7521 35.7842 32.7521" fill="white" fill-opacity="0.956863"/>
</g>
<defs>
<clipPath id="clip0_295_46">
<rect width="60" height="60" fill="white"/>
</clipPath>
</defs>
</svg>
