<svg width="16" height="16" viewBox="0 0 16 16" fill="none" xmlns="http://www.w3.org/2000/svg">
<path fill-rule="evenodd" clip-rule="evenodd" d="M3.07106 2H12.9298C13.8086 2 14.5197 2.79875 14.5197 3.78388V9.7273C14.5197 10.7118 13.8085 11.5109 12.9298 11.5109H12.0815V14.1259L9.55484 11.5109H3.07106C2.19369 11.5109 1.48145 10.7118 1.48145 9.7273V3.78388C1.48145 2.79874 2.19368 2 3.07106 2Z" stroke="#333333" stroke-linecap="round" stroke-linejoin="round"/>
<path fill-rule="evenodd" clip-rule="evenodd" d="M5.05886 7.69389C5.53416 7.69389 5.91947 7.30858 5.91947 6.83327C5.91947 6.35797 5.53416 5.97266 5.05886 5.97266C4.58355 5.97266 4.19824 6.35797 4.19824 6.83327C4.19824 7.30858 4.58355 7.69389 5.05886 7.69389Z" fill="#7E4F40"/>
<path fill-rule="evenodd" clip-rule="evenodd" d="M7.92702 7.69389C8.40233 7.69389 8.78764 7.30858 8.78764 6.83327C8.78764 6.35797 8.40233 5.97266 7.92702 5.97266C7.45172 5.97266 7.06641 6.35797 7.06641 6.83327C7.06641 7.30858 7.45172 7.69389 7.92702 7.69389Z" fill="#7E4F40"/>
<path fill-rule="evenodd" clip-rule="evenodd" d="M10.7971 7.69389C11.2724 7.69389 11.6578 7.30858 11.6578 6.83327C11.6578 6.35797 11.2724 5.97266 10.7971 5.97266C10.3218 5.97266 9.93652 6.35797 9.93652 6.83327C9.93652 7.30858 10.3218 7.69389 10.7971 7.69389Z" fill="#7E4F40"/>
</svg>
