<svg width="16" height="16" viewBox="0 0 16 16" fill="none" xmlns="http://www.w3.org/2000/svg">
<g id="ic_smile_16">
<g id="smile">
<path id="Vector" d="M14.5 8C14.5 9.79249 13.7728 11.4211 12.5965 12.597C11.4202 13.773 9.79476 14.5 7.99822 14.5C6.20167 14.5 4.57623 13.773 3.40348 12.597C2.22717 11.4211 1.5 9.79605 1.5 8C1.5 6.20395 2.22361 4.57895 3.39992 3.40296C4.57623 2.22697 6.20167 1.5 7.99465 1.5C9.78763 1.5 11.4166 2.22697 12.593 3.40296C13.7693 4.57895 14.4964 6.20395 14.4964 8H14.5Z" stroke="#333333" stroke-linecap="round" stroke-linejoin="round"/>
<g id="Group">
<path id="Vector_2" d="M5.7207 6.67969V7.67414" stroke="#333333" stroke-linecap="round" stroke-linejoin="round"/>
<path id="Vector_3" d="M10.2734 6.67969V7.67414" stroke="#333333" stroke-linecap="round" stroke-linejoin="round"/>
</g>
<path id="Vector_4" d="M9.85686 9.85938C9.38161 10.4342 8.72357 10.7879 7.99972 10.7879C7.27587 10.7879 6.61783 10.4342 6.14258 9.85938" stroke="#333333" stroke-linecap="round" stroke-linejoin="round"/>
</g>
</g>
</svg>
