<svg width="17" height="16" viewBox="0 0 17 16" fill="none" xmlns="http://www.w3.org/2000/svg">
<g clip-path="url(#clip0_302_448)">
<path d="M13.2514 12.3837C15.2951 7.94002 12.1408 4.36002 12.1408 4.36002C12.3427 5.60183 12.2249 6.21638 11.922 6.90547C10.8077 3.15093 6.9747 1.54547 6.9747 1.54547C6.9747 1.54547 8.18256 4.76183 5.89586 6.6382C5.82481 6.69638 5.75376 6.75638 5.68084 6.81638C5.56679 5.50365 5.06757 5.05093 5.06757 5.05093C5.13862 6.01093 3.71575 6.98911 3.2614 8.73093C2.67243 10.9873 3.54747 12.5509 3.54747 12.5509L3.55121 12.5473C4.22992 14.2418 6.04357 15.4564 8.18069 15.4564C10.3178 15.4564 12.4007 14.2309 13.2496 12.3855L13.2514 12.3837Z" stroke="#7E4F40" stroke-linecap="round" stroke-linejoin="round"/>
<path d="M10.9977 12.8482C10.9977 14.0375 9.8776 15 8.49885 15C7.12009 15 6 14.0355 6 12.8482C6 11.7643 6.7067 11.1677 7.33718 10.6646C8.49885 9.7418 8.32102 9 8.32102 9C8.32102 9 9.54504 9.80146 10.1778 10.593C10.7159 11.2691 11 11.8638 11 12.8482H10.9977Z" fill="#DDC6C0" stroke="#7E4F40" stroke-linecap="round" stroke-linejoin="round"/>
</g>
<defs>
<clipPath id="clip0_302_448">
<rect width="12" height="15" fill="white" transform="translate(2.5 1)"/>
</clipPath>
</defs>
</svg>
