<svg width="16" height="16" viewBox="0 0 16 16" fill="none" xmlns="http://www.w3.org/2000/svg">
<g clip-path="url(#clip0_3843_2470)">
<path d="M5.50163 11.7236V12.6045C5.50163 13.5837 4.76479 14.3773 3.83496 14.4392C3.87356 14.4392 3.90865 14.4501 3.94724 14.4501H12.6946C13.6771 14.4501 14.4736 13.6238 14.4736 12.6045V11.7236H5.50163Z" stroke="#333333" stroke-linecap="round" stroke-linejoin="round"/>
<path d="M12.6492 11.7237V1.5459H2.52637V12.9796C2.52637 13.7549 3.10181 14.3811 3.83514 14.4429" stroke="#333333" stroke-linecap="round" stroke-linejoin="round"/>
<path d="M3.71973 14.4538H3.94429C3.90569 14.4538 3.8706 14.4465 3.83201 14.4429C3.79341 14.4429 3.75832 14.4538 3.71973 14.4538Z" stroke="#333333" stroke-linecap="round" stroke-linejoin="round"/>
<path d="M5.1582 5.00439H7.61434" stroke="#7E4F40" stroke-linecap="round" stroke-linejoin="round"/>
<path d="M5.19336 7.23926H9.57932" stroke="#7E4F40" stroke-linecap="round" stroke-linejoin="round"/>
</g>
<defs>
<clipPath id="clip0_3843_2470">
<rect width="13" height="14" fill="white" transform="translate(2 1)"/>
</clipPath>
</defs>
</svg>
