<svg width="17" height="16" viewBox="0 0 17 16" fill="none" xmlns="http://www.w3.org/2000/svg">
<path d="M6.57143 3.42969H3.55C2.5564 3.42969 1.75 4.34353 1.75 5.46952V11.997C1.75 13.123 2.5564 14.0368 3.55 14.0368H13.45C14.4436 14.0368 15.25 13.123 15.25 11.997V5.46952C15.25 4.34353 14.4436 3.42969 13.45 3.42969H9.94643" fill="#DDC6C0"/>
<path d="M6.57143 3.42969H3.55C2.5564 3.42969 1.75 4.34353 1.75 5.46952V11.997C1.75 13.123 2.5564 14.0368 3.55 14.0368H13.45C14.4436 14.0368 15.25 13.123 15.25 11.997V5.46952C15.25 4.34353 14.4436 3.42969 13.45 3.42969H9.94643" stroke="#7E4F40" stroke-linecap="round" stroke-linejoin="round"/>
<path d="M9.46289 11.1484H12.3557" stroke="#7E4F40" stroke-linecap="round" stroke-linejoin="round"/>
<path d="M9.46289 8.25H12.3557" stroke="#7E4F40" stroke-linecap="round" stroke-linejoin="round"/>
<path d="M8.50112 1.5C7.70269 1.5 7.05469 2.05862 7.05469 2.74692V5.07451C7.05469 5.76281 7.70269 6.32143 8.50112 6.32143C9.29954 6.32143 9.94754 5.76281 9.94754 5.07451V2.74692C9.94754 2.05862 9.29954 1.5 8.50112 1.5Z" fill="#F6F6F6" stroke="#7E4F40" stroke-linecap="round" stroke-linejoin="round"/>
</svg>
