<svg width="16" height="16" viewBox="0 0 16 16" fill="none" xmlns="http://www.w3.org/2000/svg">
<path d="M6.38111 9.61786C4.524 7.76074 4.524 4.74996 6.38111 2.89284C8.23821 1.03572 11.249 1.03572 13.1061 2.89284C14.9632 4.74996 14.9632 7.76074 13.1061 9.61786C11.249 11.475 8.23821 11.475 6.38111 9.61786Z" stroke="#333333" stroke-linecap="round" stroke-linejoin="round"/>
<path d="M6.38111 9.61786C4.524 7.76074 4.524 4.74996 6.38111 2.89284C8.23821 1.03572 11.249 1.03572 13.1061 2.89284C14.9632 4.74996 14.9632 7.76074 13.1061 9.61786C11.249 11.475 8.23821 11.475 6.38111 9.61786Z" stroke="#333333" stroke-linecap="round" stroke-linejoin="round"/>
<path d="M9.74219 3.6875C10.3964 3.6875 11.0541 3.93723 11.5536 4.43668C12.053 4.93613 12.3027 5.59386 12.3027 6.24807" stroke="#7E4F40" stroke-linecap="round" stroke-linejoin="round"/>
<path d="M6.14282 9.85938L1.5 14.5022" stroke="#333333" stroke-linecap="round" stroke-linejoin="round"/>
</svg>
