<svg xmlns="http://www.w3.org/2000/svg" width="177.838" height="18.012" viewBox="0 0 177.838 18.012">
    <g data-name="그룹 25042">
        <path data-name="패스 2" d="M349.528 53.173c0-5.786 3.863-9.1 8.262-9.1a7.367 7.367 0 0 1 5.26 2.263L360.862 49a4.29 4.29 0 0 0-3-1.353c-2.234 0-4.073 2.006-4.073 5.39 0 3.453 1.583 5.46 4.026 5.46a4.5 4.5 0 0 0 3.3-1.587l2.188 2.613a7.2 7.2 0 0 1-5.655 2.567c-4.4 0-8.122-3.033-8.122-8.913" transform="translate(-349.528 -44.073)" style="fill:#7e4f40"/>
        <path data-name="패스 3" d="M475.7 59.627h-5.12l-1 3.99h-4.236l5.376-17.361h4.98l5.376 17.361H476.7zm-.791-3.22-.372-1.47c-.465-1.727-.908-3.8-1.373-5.577h-.093c-.419 1.82-.884 3.85-1.327 5.577l-.372 1.47z" transform="translate(-448.17 -45.93)" style="fill:#7e4f40"/>
        <path data-name="패스 4" d="m613.429 63.617-3.188-6.117h-2v6.114h-4.166V46.256h6.354c3.7 0 6.773 1.26 6.773 5.46a5.14 5.14 0 0 1-2.979 5.017l3.863 6.884zm-5.19-9.4h1.861c1.978 0 3.026-.863 3.026-2.5s-1.047-2.17-3.026-2.17h-1.862z" transform="translate(-566.084 -45.93)" style="fill:#7e4f40"/>
        <path data-name="패스 5" d="M735.635 46.255h10.985v3.453h-6.82v3.22h5.8v3.5h-5.8v3.687h7.075v3.5h-11.24z" transform="translate(-677.956 -45.93)" style="fill:#7e4f40"/>
        <path data-name="패스 6" d="M855.035 46.255h4.236l4.305 8.307 1.7 3.85h.116a54.988 54.988 0 0 1-.559-6.412v-5.74h3.956v17.356h-4.236l-4.283-8.377-1.7-3.8h-.116c.186 1.937.535 4.317.535 6.417v5.764h-3.956z" transform="translate(-779.479 -45.929)" style="fill:#7e4f40"/>
        <path data-name="패스 7" d="M991.03 59.627h-5.12l-1 3.99h-4.236l5.376-17.361h4.98l5.376 17.361h-4.376zm-.791-3.22-.373-1.47c-.465-1.727-.908-3.8-1.373-5.577h-.093c-.419 1.82-.885 3.85-1.327 5.577l-.372 1.47z" transform="translate(-886.307 -45.93)" style="fill:#7e4f40"/>
        <path data-name="패스 8" d="M1101.788 49.709h-4.678v-3.453h13.545v3.453h-4.7v13.907h-4.166z" transform="translate(-985.319 -45.93)" style="fill:#7e4f40"/>
        <path data-name="사각형 1" transform="translate(131.209 .326)" style="fill:#7e4f40" d="M0 0h4.166v17.361H0z"/>
        <path data-name="패스 9" d="M1297.4 52.986c0-5.693 3.211-8.913 7.936-8.913s7.936 3.243 7.936 8.913c0 5.693-3.212 9.1-7.936 9.1s-7.936-3.407-7.936-9.1m11.636 0c0-3.36-1.42-5.343-3.7-5.343s-3.677 1.983-3.677 5.343c0 3.383 1.4 5.506 3.677 5.506s3.7-2.123 3.7-5.506" transform="translate(-1155.568 -44.073)" style="fill:#7e4f40"/>
        <path data-name="패스 10" d="M1446.425 46.255h4.236l4.306 8.307 1.7 3.85h.116a54.975 54.975 0 0 1-.558-6.417v-5.74h3.956v17.361h-4.236l-4.282-8.377-1.7-3.8h-.116c.186 1.937.535 4.317.535 6.417v5.764h-3.957z" transform="translate(-1282.342 -45.929)" style="fill:#7e4f40"/>
    </g>
</svg>
