<svg xmlns="http://www.w3.org/2000/svg" width="60" height="60" viewBox="0 0 60 60">
    <g transform="translate(-205.117 -57.108)">
        <circle data-name="타원 1417" cx="30" cy="30" r="30" transform="translate(205.117 57.108)" style="fill:#f5f5f5"/>
        <g data-name="그룹 36473">
            <path data-name="사각형 12916" transform="translate(219.689 71.68)" style="fill:none" d="M0 0h30.857v30.857H0z"/>
            <g data-name="그룹 36466" transform="translate(-28.625 -622.501)">
                <g data-name="그룹 36464">
                    <g data-name="그룹 36460">
                        <g data-name="그룹 36459">
                            <path data-name="패스 59670" d="M269.451 714.808c-4.067 0-7.365 1.878-7.365 4.2v1.885c0 2.315 3.3 3.694 7.365 3.694s7.365-1.377 7.365-3.694V719c0-2.314-3.297-4.192-7.365-4.192z" style="fill:#fff;stroke:#7e4f40;stroke-miterlimit:10;stroke-width:2px"/>
                            <path data-name="패스 59671" d="M269.451 711.213c-4.067 0-7.365 1.878-7.365 4.2v1.886c0 2.314 3.3 3.694 7.365 3.694s7.365-1.377 7.365-3.694v-1.886c0-2.322-3.297-4.2-7.365-4.2z" style="fill:#fff;stroke:#7e4f40;stroke-miterlimit:10;stroke-width:2px"/>
                            <g data-name="그룹 36458">
                                <path data-name="패스 59672" d="M262.086 713.064c0 2.809 3.3 4.327 7.365 4.327s7.365-1.517 7.365-4.327v-3.042c0 2.808-4.08 3.954-7.365 3.954-2.853 0-7.365-1.146-7.365-3.954z" style="fill:#fff;stroke:#7e4f40;stroke-miterlimit:10;stroke-width:2px"/>
                            </g>
                        </g>
                    </g>
                    <g data-name="그룹 36463">
                        <g data-name="그룹 36462">
                            <path data-name="패스 59673" d="M269.451 704.136c-4.067 0-7.365 1.878-7.365 4.194v1.886c0 2.314 3.3 3.694 7.365 3.694s7.365-1.378 7.365-3.694v-1.886c0-2.316-3.297-4.194-7.365-4.194z" style="fill:#fff;stroke:#7e4f40;stroke-miterlimit:10;stroke-width:2px"/>
                            <path data-name="패스 59674" d="M269.451 700.542c-4.067 0-7.365 1.878-7.365 4.2v1.886c0 2.314 3.3 3.694 7.365 3.694s7.365-1.376 7.365-3.694v-1.886c0-2.323-3.297-4.2-7.365-4.2z" style="fill:#fff;stroke:#7e4f40;stroke-miterlimit:10;stroke-width:2px"/>
                            <g data-name="그룹 36461">
                                <ellipse data-name="타원 1413" cx="7.365" cy="4.195" rx="7.365" ry="4.195" transform="translate(262.086 695.154)" style="fill:#fff;stroke:#7e4f40;stroke-miterlimit:10;stroke-width:2px"/>
                                <path data-name="패스 59675" d="M262.086 702.392c0 2.809 3.3 4.327 7.365 4.327s7.365-1.517 7.365-4.327v-3.043c0 2.809-4.08 3.954-7.365 3.954-2.853 0-7.365-1.145-7.365-3.954z" style="fill:#fff;stroke:#7e4f40;stroke-miterlimit:10;stroke-width:2px"/>
                            </g>
                        </g>
                    </g>
                </g>
                <circle data-name="타원 1414" cx="7.503" cy="7.503" r="7.503" transform="translate(250.254 709.573)" style="fill:#fff;stroke:#7e4f40;stroke-miterlimit:10;stroke-width:2px"/>
                <path data-name="패스 59659" d="M261.281 716.8h-.276l.6-1.762a.633.633 0 1 0-1.182-.455.37.37 0 0 0-.016.047l-1.162 3.386-.889-2.6a.633.633 0 0 0-1.2 0l-.893 2.6-1.162-3.389a.633.633 0 0 0-1.214.361.373.373 0 0 0 .016.047l.6 1.763h-.275a.633.633 0 1 0 0 1.267h.71l.719 2.108a.634.634 0 0 0 1.2 0l.891-2.6.892 2.6a.633.633 0 0 0 1.2 0l.723-2.106h.71a.633.633 0 1 0 0-1.267" style="fill:#7e4f40"/>
            </g>
        </g>
    </g>
</svg>
