<svg width="16" height="16" viewBox="0 0 16 16" fill="none" xmlns="http://www.w3.org/2000/svg">
<g clip-path="url(#clip0_291_2)">
<mask id="mask0_291_2" style="mask-type:luminance" maskUnits="userSpaceOnUse" x="0" y="0" width="16" height="16">
<path d="M16 0H0V16H16V0Z" fill="white"/>
</mask>
<g mask="url(#mask0_291_2)">
<mask id="mask1_291_2" style="mask-type:luminance" maskUnits="userSpaceOnUse" x="0" y="1" width="16" height="14">
<path d="M16 1H0V15H16V1Z" fill="white"/>
</mask>
<g mask="url(#mask1_291_2)">
<path d="M13.5934 9.32281C13.9498 7.96014 13.8329 6.51683 13.2619 5.22926C12.6908 3.9417 11.6995 2.88619 10.4502 2.23562C9.20097 1.58505 7.76782 1.37797 6.38549 1.6483C5.00316 1.91863 3.7536 2.65034 2.84145 3.7236C1.9293 4.79686 1.40863 6.14804 1.36471 7.55587C1.32079 8.9637 1.75623 10.3447 2.59971 11.4727C3.44318 12.6008 4.64471 13.4089 6.0075 13.7649C7.37028 14.1209 8.81356 14.0035 10.1009 13.4321C10.1579 13.4068 10.2117 13.3746 10.2609 13.3363C10.4065 13.2222 10.5053 13.0587 10.5389 12.8768C10.5724 12.6949 10.5384 12.507 10.4432 12.3484C10.3479 12.1898 10.1981 12.0714 10.0217 12.0155C9.84534 11.9597 9.65465 11.9701 9.48547 12.045C8.50235 12.4817 7.39933 12.5685 6.35998 12.2911C5.32063 12.0137 4.40763 11.3887 3.77294 10.5201C3.13825 9.65154 2.82014 8.59182 2.87157 7.51731C2.92299 6.44279 3.34085 5.4183 4.05558 4.61432C4.77032 3.81035 5.73883 3.27538 6.79993 3.09847C7.86103 2.92156 8.95071 3.11337 9.88762 3.64197C10.8245 4.17057 11.5522 5.00409 11.9494 6.0038C12.3467 7.00351 12.3896 8.10911 12.071 9.1366L10.708 8.96925C10.6336 8.96011 10.5582 8.97325 10.4913 9.00698C10.4243 9.04072 10.3689 9.09356 10.332 9.1588C10.2951 9.22404 10.2783 9.29876 10.2839 9.37352C10.2894 9.44827 10.317 9.5197 10.3632 9.57877L12.1548 11.8719C12.2167 11.9511 12.3075 12.0025 12.4072 12.0147C12.507 12.027 12.6076 11.9991 12.6868 11.9372L14.9791 10.1462C15.0382 10.1001 15.0822 10.0375 15.1057 9.96628C15.1292 9.89509 15.131 9.81853 15.111 9.7463C15.0909 9.67406 15.0499 9.60939 14.9932 9.56046C14.9364 9.51153 14.8663 9.48054 14.7919 9.4714L13.5934 9.32281Z" fill="white"/>
</g>
</g>
</g>
<defs>
<clipPath id="clip0_291_2">
<rect width="16" height="16" fill="white"/>
</clipPath>
</defs>
</svg>
