<svg xmlns="http://www.w3.org/2000/svg" width="120" height="120" viewBox="0 0 120 120">
    <defs>
        <clipPath id="lqek5nb2ha">
            <path data-name="사각형 13001" transform="translate(659.115 303.533)" style="fill:none" d="M0 0h70v70H0z"/>
        </clipPath>
    </defs>
    <g transform="translate(-631 -282)">
        <circle data-name="타원 1458" cx="60" cy="60" r="60" transform="translate(631 282)" style="fill:#fff0eb"/>
        <g data-name="마스크 그룹 34386" style="clip-path:url(#lqek5nb2ha)" transform="translate(-3.115 3.467)">
            <path data-name="패스 59771" d="M10.149 16.068v31.01h11.287L32.4 56.3l9.832-9.1 12.468-.3V16.365zm26.506 18.349.9 5.229-4.695-2.47a.986.986 0 0 0-.912 0l-4.7 2.47.9-5.229a.983.983 0 0 0-.281-.867l-3.8-3.7 5.25-.763a.981.981 0 0 0 .737-.536l2.346-4.758 2.342 4.757a.977.977 0 0 0 .737.536l5.249.763-3.794 3.7a.974.974 0 0 0-.281.867" transform="translate(668.798 306.039)" style="fill:#fff"/>
            <path data-name="패스 59772" d="M15.532 61.52a1.009 1.009 0 0 0 .693-.287.981.981 0 0 0 .285-.692 1.029 1.029 0 0 0-.285-.692 1.013 1.013 0 0 0-1.385 0 .978.978 0 0 0 .692 1.67" transform="translate(668.798 306.039)" style="stroke:#8e6051;fill:#8e6051"/>
            <path data-name="패스 59774" d="M24.666 61.519a.978.978 0 1 0-.978-.978.978.978 0 0 0 .978.978z" transform="translate(668.798 306.039)" style="stroke:#8e6051;fill:#8e6051"/>
            <path data-name="패스 59776" d="M33.8 61.52a.975.975 0 0 0 .692-.287.958.958 0 0 0 .288-.692.979.979 0 1 0-.98.978" transform="translate(668.798 306.039)" style="stroke:#8e6051;fill:#8e6051"/>
            <path data-name="패스 59778" d="M25.642 3.462a.979.979 0 1 0 .978.98.979.979 0 0 0-.978-.98z" transform="translate(668.798 306.039)" style="stroke:#8e6051;fill:#8e6051"/>
            <path data-name="패스 59780" d="M55.62 16.165a.979.979 0 0 0-.978-.98h-5.513V6.4a6.205 6.205 0 0 0-6.2-6.2H6.4A6.205 6.205 0 0 0 .2 6.4v9.886a.978.978 0 1 0 1.956 0c0-.022-.011-.039-.012-.061h.013v-4.608a2.939 2.939 0 0 1 2.937-2.936h39.142a2.94 2.94 0 0 1 2.937 2.936v3.568H10.149a.979.979 0 0 0-.978.98v23.061a.123.123 0 0 0-.008.038c0 .012.005.024.008.036v7.82a.979.979 0 0 0 .978.978h11.677l8.207 8.2H5.094a2.939 2.939 0 0 1-2.936-2.936V20.9h-.013c0-.022.012-.04.012-.062a.978.978 0 0 0-.978-.978.968.968 0 0 0-.957.872l-.022.995v36.861a6.2 6.2 0 0 0 6.2 6.2h36.532a6.2 6.2 0 0 0 6.2-6.2V48.1h5.513a.982.982 0 0 0 .978-.978V29.3a.973.973 0 0 0-1.946-.052l-.012-.007v16.9h-11.1a.977.977 0 0 0-.69.287L32.4 55.9l-9.473-9.473a.981.981 0 0 0-.692-.287h-11.1v-29h42.527v7.625a.978.978 0 0 0 1.956 0v-8.6zM42.965 48.1h4.208v5.27a2.94 2.94 0 0 1-2.937 2.93h-9.478zm1.27 10.166a4.851 4.851 0 0 0 2.937-1V58.6a4.246 4.246 0 0 1-4.241 4.24H6.4a4.245 4.245 0 0 1-4.24-4.24v-1.341a4.848 4.848 0 0 0 2.936 1zm2.938-50.539a4.851 4.851 0 0 0-2.937-1H5.094a4.848 4.848 0 0 0-2.936 1V6.4A4.245 4.245 0 0 1 6.4 2.156h36.532A4.247 4.247 0 0 1 47.173 6.4z" transform="translate(668.798 306.039)" style="fill:#8e6051"/>
            <path data-name="패스 59781" d="M55.62 16.165a.979.979 0 0 0-.978-.98h-5.513V6.4a6.205 6.205 0 0 0-6.2-6.2H6.4A6.205 6.205 0 0 0 .2 6.4v9.886a.978.978 0 1 0 1.956 0c0-.022-.011-.039-.012-.061h.013v-4.608a2.939 2.939 0 0 1 2.937-2.936h39.142a2.94 2.94 0 0 1 2.937 2.936v3.568H10.149a.979.979 0 0 0-.978.98v23.061a.123.123 0 0 0-.008.038c0 .012.005.024.008.036v7.82a.979.979 0 0 0 .978.978h11.677l8.207 8.2H5.094a2.939 2.939 0 0 1-2.936-2.936V20.9h-.013c0-.022.012-.04.012-.062a.978.978 0 0 0-.978-.978.968.968 0 0 0-.957.872l-.022.995v36.861a6.2 6.2 0 0 0 6.2 6.2h36.532a6.2 6.2 0 0 0 6.2-6.2V48.1h5.513a.982.982 0 0 0 .978-.978V29.3a.973.973 0 0 0-1.946-.052l-.012-.007v16.9h-11.1a.977.977 0 0 0-.69.287L32.4 55.9l-9.473-9.473a.981.981 0 0 0-.692-.287h-11.1v-29h42.527v7.625a.978.978 0 0 0 1.956 0v-8.6zM42.965 48.1h4.208v5.27a2.94 2.94 0 0 1-2.937 2.93h-9.478zm1.27 10.166a4.851 4.851 0 0 0 2.937-1V58.6a4.246 4.246 0 0 1-4.241 4.24H6.4a4.245 4.245 0 0 1-4.24-4.24v-1.341a4.848 4.848 0 0 0 2.936 1zm2.938-50.539a4.851 4.851 0 0 0-2.937-1H5.094a4.848 4.848 0 0 0-2.936 1V6.4A4.245 4.245 0 0 1 6.4 2.156h36.532A4.247 4.247 0 0 1 47.173 6.4z" transform="translate(668.798 306.039)" style="stroke-width:.4px;stroke:#8e6051;fill:none"/>
            <path data-name="패스 59782" d="M43.764 28.859a.974.974 0 0 0-.79-.666l-6.7-.976-3-6.075a1.019 1.019 0 0 0-1.755 0l-3 6.075-6.7.976a.979.979 0 0 0-.544 1.668l4.852 4.727-1.146 6.677A.98.98 0 0 0 26.4 42.3l6-3.153 6 3.153a.981.981 0 0 0 1.421-1.032l-1.157-6.676 4.849-4.727a.975.975 0 0 0 .249-1m-6.826 4.685a.974.974 0 0 0-.281.867l.9 5.229-4.695-2.47a.986.986 0 0 0-.912 0l-4.7 2.47.9-5.229a.983.983 0 0 0-.281-.867l-3.8-3.7 5.25-.763a.981.981 0 0 0 .737-.536l2.346-4.758 2.342 4.757a.977.977 0 0 0 .737.536l5.249.763z" transform="translate(668.798 306.039)" style="fill:#8e6051"/>
            <path data-name="패스 59783" d="M43.764 28.859a.974.974 0 0 0-.79-.666l-6.7-.976-3-6.075a1.019 1.019 0 0 0-1.755 0l-3 6.075-6.7.976a.979.979 0 0 0-.544 1.668l4.852 4.727-1.146 6.677A.98.98 0 0 0 26.4 42.3l6-3.153 6 3.153a.981.981 0 0 0 1.421-1.032l-1.157-6.676 4.849-4.727a.975.975 0 0 0 .249-1m-6.826 4.685a.974.974 0 0 0-.281.867l.9 5.229-4.695-2.47a.986.986 0 0 0-.912 0l-4.7 2.47.9-5.229a.983.983 0 0 0-.281-.867l-3.8-3.7 5.25-.763a.981.981 0 0 0 .737-.536l2.346-4.758 2.342 4.757a.977.977 0 0 0 .737.536l5.249.763z" transform="translate(668.798 306.039)" style="stroke-width:.4px;stroke:#8e6051;fill:none"/>
        </g>
    </g>
</svg>
