<svg xmlns="http://www.w3.org/2000/svg" width="120" height="120" viewBox="0 0 120 120">
    <g transform="translate(-631 -282)">
        <circle data-name="타원 1458" cx="60" cy="60" r="60" transform="translate(631 282)" style="fill:#fff0eb"/>
        <path data-name="패스 59784" d="M7.378 64.754V32.928s9.337-9.274 15.233-9.555c0 0-.98 14.7 22.062 15.058 0 0 5.195-.73 5.195 6.053v20.2z" transform="translate(657 309)" style="fill:#fff"/>
        <path data-name="패스 59785" d="M33.452.25A9 9 0 0 1 42.2 9.473a9 9 0 0 1-8.747 9.221 9 9 0 0 1-8.746-9.221A9 9 0 0 1 33.452.25m0 16.719a7.278 7.278 0 0 0 7.02-7.5 7.278 7.278 0 0 0-7.02-7.5 7.278 7.278 0 0 0-7.02 7.5 7.277 7.277 0 0 0 7.02 7.5" transform="translate(657 309)" style="stroke-width:.5px;stroke:#8e6051;fill:#8e6051"/>
        <path data-name="패스 59787" d="M65.795 65.17a.863.863 0 0 1-.863-.863V49.768a26.176 26.176 0 0 0-26.149-26.145H28.118A26.176 26.176 0 0 0 1.976 49.768v14.539a.863.863 0 1 1-1.725.056.523.523 0 0 1 0-.056V49.768a27.533 27.533 0 0 1 2.2-10.823A28.13 28.13 0 0 1 17.3 24.1a27.517 27.517 0 0 1 10.824-2.2h10.664a27.526 27.526 0 0 1 10.825 2.2 28.132 28.132 0 0 1 14.848 14.845 27.534 27.534 0 0 1 2.2 10.823v14.539a.863.863 0 0 1-.863.863z" transform="translate(657 309)" style="fill:#8c4c3e"/>
        <path data-name="패스 59788" d="M65.795 65.17a.863.863 0 0 1-.863-.863V49.768a26.176 26.176 0 0 0-26.149-26.145H28.118A26.176 26.176 0 0 0 1.976 49.768v14.539a.863.863 0 1 1-1.725.056.523.523 0 0 1 0-.056V49.768a27.533 27.533 0 0 1 2.2-10.823A28.13 28.13 0 0 1 17.3 24.1a27.517 27.517 0 0 1 10.824-2.2h10.664a27.526 27.526 0 0 1 10.825 2.2 28.132 28.132 0 0 1 14.848 14.845 27.534 27.534 0 0 1 2.2 10.823v14.539a.863.863 0 0 1-.863.863z" transform="translate(657 309)" style="stroke-miterlimit:10;stroke-width:.5px;stroke:#8e6051;fill:#8e6051"/>
        <path data-name="패스 59789" d="M34.4 37.618a.863.863 0 0 1-.288-1.677c4.694-1.689 9.186-7.1 10.421-11.935a.863.863 0 0 1 1.675.416c-1.359 5.4-6.27 11.278-11.519 13.146a.866.866 0 0 1-.289.05" transform="translate(657 309)" style="fill:#8c4c3e"/>
        <path data-name="패스 59790" d="M34.4 37.618a.863.863 0 0 1-.288-1.677c4.694-1.689 9.186-7.1 10.421-11.935a.863.863 0 0 1 1.675.416c-1.359 5.4-6.27 11.278-11.519 13.146a.866.866 0 0 1-.289.05z" transform="translate(657 309)" style="stroke-miterlimit:10;stroke-width:.5px;stroke:#8e6051;fill:#8e6051"/>
        <path data-name="패스 59791" d="M7.379 65.17a.863.863 0 0 1-.863-.863V33.624a.862.862 0 0 1 .835-.89c.476-.016.875-.642.89-.166v31.739a.864.864 0 0 1-.862.863" transform="translate(657 309)" style="stroke:#8e6051;fill:#8e6051"/>
        <path data-name="패스 59793" d="M59.16 65.017a.863.863 0 0 1-.863-.862V32.286a.863.863 0 0 1 1.725 0v31.869a.863.863 0 0 1-.862.862" transform="translate(657 309)" style="stroke:#8e6051;fill:#8e6051"/>
        <path data-name="패스 59795" d="M22.611 23.373s-.881 8.834 10.246 13.19a15.427 15.427 0 0 0 5.64 1.051h6.223a5.012 5.012 0 0 1 3.3 1.441 4.346 4.346 0 0 1 1.46 3.207v21.896" transform="translate(657 309)" style="stroke-linejoin:round;stroke-width:2.3px;stroke-linecap:round;fill:none;stroke:#8e6051"/>
        <path data-name="패스 59796" d="M20.961 37.567a7.965 7.965 0 1 1-5.176 1.91" transform="translate(657 309)" style="stroke-width:2.1px;stroke-linecap:round;fill:none;stroke-miterlimit:10;stroke:#8e6051"/>
        <path data-name="패스 59797" d="M17.778 38.125a3.117 3.117 0 0 1 .628-.264" transform="translate(657 309)" style="stroke-width:2.1px;stroke-linecap:round;fill:none;stroke-miterlimit:10;stroke:#8e6051"/>
        <path data-name="패스 59798" d="M13.752 42.145a3.631 3.631 0 0 0 2.241 4.621 3.291 3.291 0 0 0 .339.1 4 4 0 0 0 4.476-1.132 5.924 5.924 0 0 1 2.8-2.011 4.1 4.1 0 0 1 3.377.512 3.788 3.788 0 0 1 1.452 4.058" transform="translate(657 309)" style="stroke-width:2.1px;stroke-linecap:round;fill:none;stroke-miterlimit:10;stroke:#8e6051"/>
        <path data-name="사각형 13000" transform="translate(656 307)" style="fill:none" d="M0 0h70v70H0z"/>
    </g>
</svg>
