<svg xmlns="http://www.w3.org/2000/svg" width="24" height="24" viewBox="0 0 24 24">
    <g data-name="그룹 36359">
        <path data-name="패스 59576" d="M3.2 11.943a8.823 8.823 0 0 0 .12 1.387l-.027-.049-.919 1.048a1.632 1.632 0 0 0-.343 2.089l.412.734-.05-.089.412.735a1.633 1.633 0 0 0 1.953.817l1.291-.209a8.79 8.79 0 0 0 3.1 1.857l.427 1.191c.307.76.642 1.313 1.661 1.313h1.578c1.019 0 1.354-.549 1.66-1.313l.429-1.191a8.78 8.78 0 0 0 3.039-1.806l1.289.22a1.632 1.632 0 0 0 1.96-.8l.412-.731-.05.088.412-.73a1.631 1.631 0 0 0-.327-2.092l-.91-1.056-.029.044a8.886 8.886 0 0 0 .131-1.456v.111A8.886 8.886 0 0 0 20.7 10.6l.025.044.91-1.056a1.631 1.631 0 0 0 .327-2.092l-.412-.73.05.089-.412-.731a1.631 1.631 0 0 0-1.96-.8l-1.289.219A8.8 8.8 0 0 0 14.9 3.735l-.429-1.189c-.306-.761-.641-1.313-1.66-1.313h-1.578c-1.019 0-1.354.549-1.661 1.313l-.427 1.189a8.8 8.8 0 0 0-3.1 1.857l-1.287-.209a1.634 1.634 0 0 0-1.953.817l-.412.734.05-.089-.412.735a1.632 1.632 0 0 0 .343 2.09l.919 1.048.027-.048a8.808 8.808 0 0 0-.12 1.385" style="stroke:#555;stroke-linecap:round;stroke-linejoin:round;stroke-width:1.5px;fill:none"/>
        <circle data-name="타원 1343" cx="3.005" cy="3.005" r="3.005" transform="translate(9.058 8.993)" style="stroke:#555;stroke-linecap:round;stroke-linejoin:round;stroke-width:1.5px;fill:none"/>
    </g>
    <path data-name="사각형 12645" style="fill:none" d="M0 0h24v24H0z"/>
</svg>
