<svg width="41" height="41" viewBox="0 0 41 41" fill="none" xmlns="http://www.w3.org/2000/svg">
<g clip-path="url(#clip0_294_11)">
<path d="M17.4339 27.4363C17.2184 27.4367 17.0113 27.3527 16.8569 27.2023C16.7812 27.1295 16.7211 27.0421 16.68 26.9454C16.6389 26.8488 16.6177 26.7449 16.6177 26.6398C16.6177 26.5348 16.6389 26.4309 16.68 26.3342C16.7211 26.2376 16.7812 26.1502 16.8569 26.0773L22.6469 20.4373L16.8569 14.7943C16.7814 14.7214 16.7213 14.634 16.6803 14.5374C16.6393 14.4407 16.6182 14.3368 16.6182 14.2318C16.6182 14.1268 16.6393 14.023 16.6803 13.9263C16.7213 13.8297 16.7814 13.7422 16.8569 13.6693C17.0119 13.5198 17.219 13.4363 17.4344 13.4363C17.6498 13.4363 17.8568 13.5198 18.0119 13.6693L24.3789 19.8743C24.4544 19.9473 24.5145 20.0346 24.5555 20.1313C24.5965 20.2279 24.6176 20.3318 24.6176 20.4368C24.6176 20.5418 24.5965 20.6457 24.5555 20.7424C24.5145 20.839 24.4544 20.9264 24.3789 20.9993L18.0119 27.1993C17.8579 27.3513 17.6502 27.4365 17.4339 27.4363Z" fill="#333333"/>
</g>
<defs>
<clipPath id="clip0_294_11">
<rect width="8" height="14" fill="white" transform="translate(16.6177 13.4343)"/>
</clipPath>
</defs>
</svg>
