<svg xmlns="http://www.w3.org/2000/svg" width="225.932" height="30.617" viewBox="0 0 225.932 30.617">
    <defs>
        <clipPath id="44u44k0c3a">
            <path data-name="사각형 12690" style="fill:none" d="M0 0h225.932v30.617H0z"/>
        </clipPath>
    </defs>
    <g data-name="그룹 36390" style="clip-path:url(#44u44k0c3a)">
        <path data-name="패스 59612" d="m21.38 30.618-4.47-3.591a24.475 24.475 0 0 1 3.848-5.02c3.134-3.464 4.884-4.284 6.948-5.886 1.021-.792 4.017-2.579 4.869-4.393A4.78 4.78 0 0 0 32.158 7a5.2 5.2 0 0 0-4.969-1.568c-2.34.548-3.757 2.558-5.094 6.31a18.12 18.12 0 0 1-3.309 6.294 11.4 11.4 0 0 1-5.143 3.275 10.622 10.622 0 0 1-5.254.212 10.191 10.191 0 0 1-4.643-2.35A11.651 11.651 0 0 1 0 10.887a10.423 10.423 0 0 1 3.433-7.864A10.627 10.627 0 0 1 8.729.181a9.82 9.82 0 0 1 4.759.28 12.305 12.305 0 0 1 4.438 2.463l-3.588 3.9.016.014A7.131 7.131 0 0 0 11.811 5.5a4.649 4.649 0 0 0-4.735 1.377A5.185 5.185 0 0 0 5.3 10.812a6.369 6.369 0 0 0 1.98 4.406 5.115 5.115 0 0 0 4.849 1.01c1.328-.4 3.393-1.787 4.845-5.862 1.109-3.111 1.952-5.116 3.563-6.86A10.766 10.766 0 0 1 25.981.268a10.5 10.5 0 0 1 10.156 3.225 9.237 9.237 0 0 1 2.4 6.837 9.979 9.979 0 0 1-3.6 6.73c-2.017 1.846-4.715 3.393-7.64 6.266a30.237 30.237 0 0 0-5.918 7.292" transform="translate(-.001 -.001)" style="fill:#7e4f40"/>
        <path data-name="패스 59613" d="M349.528 53c0-5.678 3.8-8.928 8.127-8.928a7.255 7.255 0 0 1 5.174 2.221l-2.152 2.61a4.225 4.225 0 0 0-2.953-1.328c-2.2 0-4.006 1.969-4.006 5.288 0 3.388 1.557 5.357 3.961 5.357a4.427 4.427 0 0 0 3.251-1.557l2.152 2.564a7.088 7.088 0 0 1-5.563 2.518c-4.327 0-7.99-2.976-7.99-8.745" transform="translate(-298.201 -37.601)" style="fill:#7e4f40"/>
        <path data-name="패스 59614" d="M475.53 59.374h-5.036l-.984 3.915h-4.167l5.288-17.033h4.9l5.288 17.033h-4.3zm-.778-3.159-.366-1.442c-.458-1.694-.893-3.732-1.351-5.472h-.092c-.412 1.786-.87 3.777-1.3 5.472l-.366 1.442z" transform="translate(-397.009 -39.463)" style="fill:#7e4f40"/>
        <path data-name="패스 59615" d="m613.276 63.289-3.136-6h-1.969v6h-4.1V46.256h6.25c3.64 0 6.662 1.236 6.662 5.357a5.042 5.042 0 0 1-2.93 4.922l3.8 6.754zm-5.1-9.226H610c1.946 0 2.976-.847 2.976-2.45s-1.03-2.129-2.976-2.129h-1.831z" transform="translate(-515.367 -39.463)" style="fill:#7e4f40"/>
        <path data-name="패스 59616" d="M735.635 46.255h10.806v3.388h-6.708V52.8h5.7v3.434h-5.7v3.617h6.959v3.434h-11.057z" transform="translate(-627.61 -39.463)" style="fill:#7e4f40"/>
        <path data-name="패스 59617" d="M855.035 46.255h4.165l4.235 8.15 1.671 3.777h.114a53.755 53.755 0 0 1-.549-6.3v-5.627h3.892v17.033H864.4l-4.212-8.219-1.671-3.732h-.117c.183 1.9.526 4.235.526 6.3v5.655h-3.892z" transform="translate(-729.477 -39.463)" style="fill:#7e4f40"/>
        <path data-name="패스 59618" d="M990.861 59.374h-5.036l-.984 3.915h-4.166l5.288-17.033h4.9l5.288 17.033h-4.3zm-.778-3.159-.366-1.442c-.458-1.694-.893-3.732-1.351-5.472h-.092c-.412 1.786-.87 3.777-1.3 5.472l-.366 1.442z" transform="translate(-836.666 -39.463)" style="fill:#7e4f40"/>
        <path data-name="패스 59619" d="M1101.711 49.644h-4.6v-3.388h13.324v3.388h-4.625v13.644h-4.1z" transform="translate(-936.004 -39.463)" style="fill:#7e4f40"/>
        <path data-name="사각형 12689" transform="translate(180.174 6.793)" style="fill:#7e4f40" d="M0 0h4.098v17.033H0z"/>
        <path data-name="패스 59620" d="M1297.4 52.818c0-5.586 3.159-8.745 7.807-8.745s7.807 3.182 7.807 8.745c0 5.586-3.159 8.929-7.807 8.929s-7.807-3.343-7.807-8.929m11.447 0c0-3.3-1.4-5.242-3.64-5.242s-3.617 1.946-3.617 5.242c0 3.32 1.374 5.4 3.617 5.4s3.64-2.083 3.64-5.4" transform="translate(-1106.885 -37.601)" style="fill:#7e4f40"/>
        <path data-name="패스 59621" d="M1446.425 46.255h4.167l4.235 8.15 1.672 3.777h.114a53.741 53.741 0 0 1-.549-6.3v-5.627h3.892v17.033h-4.167l-4.212-8.219-1.671-3.732h-.114c.183 1.9.526 4.235.526 6.3v5.655h-3.892z" transform="translate(-1234.023 -39.463)" style="fill:#7e4f40"/>
    </g>
</svg>
