<svg xmlns="http://www.w3.org/2000/svg" width="18.107" height="18" viewBox="0 0 18.107 18">
    <path data-name="패스 59737" d="M1.338 12.509v3.363a.944.944 0 0 0 .94.94h3.331" style="fill:#ddc6c0"/>
    <path data-name="패스 59738" d="M1.338 12.509v3.363a.944.944 0 0 0 .94.94h3.331" style="stroke:#7e4f40;stroke-linecap:round;stroke-linejoin:round;stroke-width:1.5px;fill:none"/>
    <path data-name="사각형 12990" transform="rotate(-45 15.696 4.597)" style="fill:#ddc6c0" d="M0 0h16.049v6.154H0z"/>
    <path data-name="사각형 12991" transform="rotate(-45 15.696 4.597)" style="stroke:#7e4f40;stroke-linecap:round;stroke-linejoin:round;stroke-width:1.5px;fill:none" d="M0 0h16.049v6.154H0z"/>
    <path data-name="선 1168" transform="translate(5.217 8.189)" style="fill:#e2bcb6" d="M0 4.693 4.693 0"/>
    <path data-name="선 1169" transform="translate(5.217 8.189)" style="stroke:#7e4f40;stroke-linecap:round;stroke-linejoin:round;stroke-width:1.5px;fill:none" d="M0 4.693 4.693 0"/>
    <path data-name="선 1170" transform="translate(9.664 4.129)" style="fill:#e2bcb6" d="m0 0 4.351 4.351"/>
    <path data-name="선 1171" transform="translate(9.664 4.129)" style="stroke:#7e4f40;stroke-linecap:round;stroke-linejoin:round;stroke-width:1.5px;fill:none" d="m0 0 4.351 4.351"/>
    <path data-name="선 1172" transform="translate(10.304 16.811)" style="stroke:#7e4f40;stroke-linecap:round;stroke-linejoin:round;stroke-width:1.5px;fill:none" d="M6.743 0H0"/>
    <path data-name="사각형 12992" style="fill:none" d="M0 0h18v18H0z"/>
</svg>
