<svg xmlns="http://www.w3.org/2000/svg" width="18" height="18" viewBox="0 0 18 18">
    <path data-name="사각형 2627" style="fill:none" d="M0 0h18v18H0z"/>
    <g data-name="그룹 11" transform="translate(-394.165 -571.025)">
        <path data-name="패스 5" d="M397.194 579.824a6.435 6.435 0 0 0 .087 1.01l-.02-.036-.669.763a1.188 1.188 0 0 0-.25 1.521l.3.535-.036-.065.3.535a1.189 1.189 0 0 0 1.422.595l.94-.152a6.4 6.4 0 0 0 2.254 1.352l.311.867c.223.553.467.956 1.209.956h1.149c.742 0 .986-.4 1.209-.956l.312-.867a6.4 6.4 0 0 0 2.213-1.315l.938.16a1.188 1.188 0 0 0 1.427-.583l.3-.532-.036.064.3-.532a1.188 1.188 0 0 0-.238-1.523l-.663-.769-.018.032a6.42 6.42 0 0 0 .095-1.06v.081a6.42 6.42 0 0 0-.095-1.06l.018.032.663-.769a1.188 1.188 0 0 0 .238-1.523l-.3-.532.036.065-.3-.532a1.188 1.188 0 0 0-1.427-.583l-.938.16a6.4 6.4 0 0 0-2.213-1.315l-.312-.866c-.223-.554-.467-.956-1.209-.956h-1.149c-.742 0-.986.4-1.209.956l-.311.866a6.4 6.4 0 0 0-2.254 1.352l-.94-.152a1.189 1.189 0 0 0-1.422.595l-.3.535.036-.065-.3.535a1.188 1.188 0 0 0 .25 1.521l.669.763.02-.035a6.421 6.421 0 0 0-.087 1.009" style="stroke:#aeb0b5;stroke-linecap:round;stroke-linejoin:round;stroke-width:1.5px;fill:none"/>
        <circle data-name="타원 13" cx="2.188" cy="2.188" r="2.188" transform="translate(401.458 577.676)" style="stroke:#aeb0b5;stroke-linecap:round;stroke-linejoin:round;stroke-width:1.5px;fill:none"/>
    </g>
</svg>
