<svg width="336" height="106" viewBox="0 0 336 106" fill="none" xmlns="http://www.w3.org/2000/svg">
<rect width="336" height="106" fill="#4A322B" fill-opacity="0.7"/>
<rect width="336" height="106" fill="white" fill-opacity="0.5"/>
<g clip-path="url(#clip0_200_39)">
<path d="M145.484 41.125C145.297 39.875 144.328 39.1094 143.016 39.1094C141.25 39.1094 140.094 40.4688 140.094 42.8438C140.094 45.2812 141.266 46.5781 143 46.5781C144.297 46.5781 145.25 45.8594 145.484 44.6406L147.859 44.6562C147.594 46.75 145.844 48.6562 142.969 48.6562C139.938 48.6562 137.703 46.5312 137.703 42.8438C137.703 39.1562 139.984 37.0312 142.969 37.0312C145.578 37.0312 147.547 38.5312 147.859 41.125H145.484ZM159.259 42.8438C159.259 46.5312 156.962 48.6562 153.978 48.6562C150.962 48.6562 148.681 46.5156 148.681 42.8438C148.681 39.1562 150.962 37.0312 153.978 37.0312C156.962 37.0312 159.259 39.1562 159.259 42.8438ZM156.869 42.8438C156.869 40.4219 155.728 39.1094 153.978 39.1094C152.228 39.1094 151.072 40.4219 151.072 42.8438C151.072 45.2656 152.228 46.5781 153.978 46.5781C155.728 46.5781 156.869 45.2656 156.869 42.8438ZM160.347 37.1875H163.253L166.394 44.8594H166.519L169.659 37.1875H172.566V48.5H170.284V41.0938H170.191L167.237 48.4531H165.675L162.722 41.0625H162.628V48.5H160.347V37.1875ZM176.216 37.1875V48.5H173.872V37.1875H176.216ZM186.959 37.1875V48.5H184.928L179.959 41.3125H179.866V48.5H177.522V37.1875H179.584L184.522 44.375H184.631V37.1875H186.959ZM195.781 40.8281C195.469 39.7656 194.609 39.1094 193.375 39.1094C191.625 39.1094 190.438 40.4531 190.438 42.8281C190.438 45.2188 191.594 46.5781 193.391 46.5781C195.008 46.5781 195.969 45.6641 196 44.2344H193.547V42.4688H198.266V43.875C198.266 46.8438 196.234 48.6562 193.375 48.6562C190.203 48.6562 188.047 46.4375 188.047 42.8594C188.047 39.1875 190.344 37.0312 193.328 37.0312C195.875 37.0312 197.844 38.5938 198.156 40.8281H195.781ZM153.236 60.4219C153.142 59.5312 152.423 59 151.283 59C150.095 59 149.439 59.5469 149.423 60.2969C149.408 61.1094 150.267 61.4844 151.236 61.7031L152.252 61.9531C154.189 62.3906 155.642 63.375 155.642 65.2656C155.642 67.3438 154.017 68.6562 151.267 68.6562C148.533 68.6562 146.783 67.3906 146.72 64.9688H149.002C149.08 66.1094 149.986 66.6875 151.236 66.6875C152.47 66.6875 153.267 66.1094 153.267 65.2656C153.267 64.5 152.564 64.1406 151.33 63.8281L150.095 63.5312C148.189 63.0625 147.017 62.1094 147.017 60.4531C147.017 58.3906 148.83 57.0312 151.298 57.0312C153.798 57.0312 155.455 58.4219 155.486 60.4219H153.236ZM166.933 62.8438C166.933 66.5312 164.636 68.6562 161.652 68.6562C158.636 68.6562 156.355 66.5156 156.355 62.8438C156.355 59.1562 158.636 57.0312 161.652 57.0312C164.636 57.0312 166.933 59.1562 166.933 62.8438ZM164.542 62.8438C164.542 60.4219 163.402 59.1094 161.652 59.1094C159.902 59.1094 158.745 60.4219 158.745 62.8438C158.745 65.2656 159.902 66.5781 161.652 66.5781C163.402 66.5781 164.542 65.2656 164.542 62.8438ZM178.38 62.8438C178.38 66.5312 176.083 68.6562 173.098 68.6562C170.083 68.6562 167.802 66.5156 167.802 62.8438C167.802 59.1562 170.083 57.0312 173.098 57.0312C176.083 57.0312 178.38 59.1562 178.38 62.8438ZM175.989 62.8438C175.989 60.4219 174.848 59.1094 173.098 59.1094C171.348 59.1094 170.192 60.4219 170.192 62.8438C170.192 65.2656 171.348 66.5781 173.098 66.5781C174.848 66.5781 175.989 65.2656 175.989 62.8438ZM188.905 57.1875V68.5H186.873L181.905 61.3125H181.811V68.5H179.467V57.1875H181.53L186.467 64.375H186.577V57.1875H188.905Z" fill="white" fill-opacity="0.9"/>
</g>
<defs>
<clipPath id="clip0_200_39">
<rect width="61" height="33" fill="white" transform="translate(137.5 36.5)"/>
</clipPath>
</defs>
</svg>
