<svg xmlns="http://www.w3.org/2000/svg" xmlns:xlink="http://www.w3.org/1999/xlink" width="292" height="292" viewBox="0 0 292 292">
  <defs>
    <clipPath id="clip-path">
      <rect id="사각형_14527" data-name="사각형 14527" width="292" height="292" transform="translate(492 3110)" fill="#ffe1e1"/>
    </clipPath>
  </defs>
  <g id="man_02_s" transform="translate(-492 -3110)" clip-path="url(#clip-path)">
    <g id="그룹_24997" data-name="그룹 24997" transform="translate(540.666 3177.595)">
      <path id="사각형_4096" data-name="사각형 4096" d="M50,0h85.069a50,50,0,0,1,50,50V86.228a0,0,0,0,1,0,0H0a0,0,0,0,1,0,0V50A50,50,0,0,1,50,0Z" transform="translate(5.657 142.328)" fill="#e27824" stroke="#333" stroke-linecap="round" stroke-linejoin="round" stroke-width="3"/>
      <path id="패스_29870" data-name="패스 29870" d="M324.9,392.064l-15.822,14.151-15.833-14.151v-20.83H324.9Z" transform="translate(-210.881 -249.736)" fill="#fccec0" stroke="#333" stroke-miterlimit="10" stroke-width="3"/>
      <path id="패스_29871" data-name="패스 29871" d="M367.685,366.288v25.124a43.464,43.464,0,0,1-86.928,0V366.288a40.432,40.432,0,0,1,.354-5.445,43.458,43.458,0,0,1,86.573,5.445Z" transform="translate(-226.037 -308.472)" fill="#fccec0" stroke="#333" stroke-miterlimit="10" stroke-width="3"/>
      <ellipse id="타원_1178" data-name="타원 1178" cx="9.704" cy="4.881" rx="9.704" ry="4.881" transform="translate(62.977 76.337)" fill="#f2a59e"/>
      <ellipse id="타원_1179" data-name="타원 1179" cx="9.704" cy="4.881" rx="9.704" ry="4.881" transform="translate(113.997 76.337)" fill="#f2a59e"/>
      <rect id="사각형_4097" data-name="사각형 4097" width="11.423" height="5.107" transform="translate(79.129 57.026)" fill="#b2b9bf"/>
      <rect id="사각형_4098" data-name="사각형 4098" width="11.423" height="5.107" transform="translate(117.254 62.133) rotate(-180)" fill="#b2b9bf"/>
      <path id="패스_29872" data-name="패스 29872" d="M303.321,377.633,284.943,384.3l18.831,30.413,15.381-16.262Z" transform="translate(-220.957 -241.97)" fill="#fff" stroke="#333" stroke-linecap="round" stroke-linejoin="round" stroke-width="3"/>
      <path id="패스_29873" data-name="패스 29873" d="M316.231,377.633l18.378,6.664-18.83,30.413L300.4,398.449Z" transform="translate(-202.201 -241.97)" fill="#fff" stroke="#333" stroke-linecap="round" stroke-linejoin="round" stroke-width="3"/>
      <path id="패스_29874" data-name="패스 29874" d="M345.138,326.577a43.213,43.213,0,0,1,8.288,25.459v25.113a43.462,43.462,0,0,1-43.462,43.462h0a43.206,43.206,0,0,1-25.458-8.29,43.426,43.426,0,0,0,78.633-25.458V361.749A43.356,43.356,0,0,0,345.138,326.577Z" transform="translate(-221.487 -303.931)" fill="#fcc1af" style="mix-blend-mode: darken;isolation: isolate"/>
      <path id="패스_29875" data-name="패스 29875" d="M287.541,343.495v25.456h-4.958a7.411,7.411,0,0,1-7.416-7.393V350.888a7.384,7.384,0,0,1,5.733-7.194,7,7,0,0,1,1.682-.2Z" transform="translate(-232.821 -283.4)" fill="#fccec0" stroke="#333" stroke-miterlimit="10" stroke-width="3"/>
      <path id="사각형_4099" data-name="사각형 4099" d="M3.344,0h9.034a0,0,0,0,1,0,0V25.465a0,0,0,0,1,0,0H3.344A3.344,3.344,0,0,1,0,22.122V3.344A3.344,3.344,0,0,1,3.344,0Z" transform="translate(154.031 85.553) rotate(-180)" fill="#fccec0" stroke="#333" stroke-miterlimit="10" stroke-width="3"/>
      <ellipse id="타원_1180" data-name="타원 1180" cx="5.162" cy="3.48" rx="5.162" ry="3.48" transform="translate(93.03 79.139)" fill="#e89c8e" style="mix-blend-mode: darken;isolation: isolate"/>
      <path id="패스_29876" data-name="패스 29876" d="M312.823,347.837a4.129,4.129,0,0,1-8.259,0" transform="translate(-197.145 -278.13)" fill="#fccec0" stroke="#333" stroke-linecap="round" stroke-linejoin="round" stroke-width="3"/>
      <path id="패스_29877" data-name="패스 29877" d="M300.76,347.837a4.129,4.129,0,0,1-8.259,0" transform="translate(-211.785 -278.13)" fill="#fccec0" stroke="#333" stroke-linecap="round" stroke-linejoin="round" stroke-width="3"/>
      <path id="패스_29878" data-name="패스 29878" d="M377.981,404.55V363.3h-.206c-2.118-25.2-22.333-45.949-47.973-46.919A50.155,50.155,0,0,0,277.877,363.3h-.12v61.529h.06a45.249,45.249,0,0,0,45.221,44.212h9.673a45.249,45.249,0,0,0,45.221-44.212h.049v-.95c0-.038.007-.075.007-.115V404.55Zm-11.276-9.895a19.357,19.357,0,0,1-19.358,19.358h-.195a15.829,15.829,0,0,0-12.812-6.534H321.382a15.83,15.83,0,0,0-12.812,6.534h-.179a19.357,19.357,0,0,1-19.358-19.358V368.719H304.36a54.032,54.032,0,0,0,45.1-24.274h0l1.957,8.64a20.058,20.058,0,0,0,15.289,15.156Z" transform="translate(-229.678 -316.347)" fill="#b2b9bf" stroke="#333" stroke-linecap="round" stroke-linejoin="round" stroke-width="3"/>
      <path id="패스_29879" data-name="패스 29879" d="M307.276,368.885h0a13.761,13.761,0,0,1-12.219-7.435l-.325-.626H319.82l-.323.626A13.764,13.764,0,0,1,307.276,368.885Z" transform="translate(-209.078 -262.37)" fill="#f99273" stroke="#333" stroke-linecap="round" stroke-linejoin="round" stroke-width="3"/>
      <line id="선_823" data-name="선 823" y1="46.471" transform="translate(35.113 182.085)" fill="#fff" stroke="#333" stroke-linecap="round" stroke-linejoin="round" stroke-width="3"/>
      <line id="선_824" data-name="선 824" y1="46.471" transform="translate(161.282 182.085)" fill="#fff" stroke="#333" stroke-linecap="round" stroke-linejoin="round" stroke-width="3"/>
      <g id="그룹_24996" data-name="그룹 24996" transform="translate(0 89.469)">
        <path id="패스_29880" data-name="패스 29880" d="M296.393,381.206a4.437,4.437,0,0,0-4.872,4.414V361.39a4.562,4.562,0,0,0-4-4.6,4.435,4.435,0,0,0-4.872,4.414l-.159,21.527H256.037v1.448a126.83,126.83,0,0,0,1.1,16.695l1.875,14.1h32.5a27.332,27.332,0,0,0,8.872-20.157v-9A4.563,4.563,0,0,0,296.393,381.206Z" transform="translate(-256.037 -356.765)" fill="#fccec0" stroke="#333" stroke-miterlimit="10" stroke-width="3"/>
        <rect id="사각형_4100" data-name="사각형 4100" width="8.893" height="19.496" rx="2.009" transform="translate(0 18.638)" fill="#fccec0" stroke="#333" stroke-miterlimit="10" stroke-width="3"/>
        <rect id="사각형_4101" data-name="사각형 4101" width="8.893" height="19.496" rx="2.009" transform="translate(8.893 18.638)" fill="#fccec0" stroke="#333" stroke-miterlimit="10" stroke-width="3"/>
        <rect id="사각형_4102" data-name="사각형 4102" width="8.893" height="19.496" rx="2.009" transform="translate(17.787 18.638)" fill="#fccec0" stroke="#333" stroke-miterlimit="10" stroke-width="3"/>
        <line id="선_825" data-name="선 825" y2="13.328" transform="translate(35.485 28.386)" fill="#fccec0" stroke="#333" stroke-miterlimit="10" stroke-width="3"/>
      </g>
      <path id="사각형_4103" data-name="사각형 4103" d="M0,0H33.884a0,0,0,0,1,0,0V74.816a7.654,7.654,0,0,1-7.654,7.654H7.654A7.654,7.654,0,0,1,0,74.816V0A0,0,0,0,1,0,0Z" transform="translate(3.106 156.858)" fill="#e27824" stroke="#333" stroke-linecap="round" stroke-linejoin="round" stroke-width="3"/>
      <rect id="사각형_4104" data-name="사각형 4104" width="34.011" height="9.183" transform="translate(2.979 147.674)" fill="#fff" stroke="#333" stroke-linecap="round" stroke-linejoin="round" stroke-width="3"/>
      <path id="패스_29881" data-name="패스 29881" d="M127.635,340.424l-2.955-2.375a16.175,16.175,0,0,1,2.543-3.317,24.328,24.328,0,0,1,4.592-3.888c.674-.524,2.653-1.706,3.217-2.9a3.165,3.165,0,0,0-.276-3.128,3.436,3.436,0,0,0-3.282-1.034c-1.546.36-2.485,1.689-3.366,4.169a12,12,0,0,1-2.187,4.159,7.535,7.535,0,0,1-3.4,2.164,6.991,6.991,0,0,1-3.472.14,6.755,6.755,0,0,1-3.069-1.551,7.715,7.715,0,0,1-2.475-5.477,6.9,6.9,0,0,1,2.269-5.2,7.015,7.015,0,0,1,3.5-1.876,6.471,6.471,0,0,1,3.144.185,8.161,8.161,0,0,1,2.934,1.626l-2.372,2.581.009.009a4.753,4.753,0,0,0-1.68-.889,3.069,3.069,0,0,0-3.128.912,3.43,3.43,0,0,0-1.172,2.6,4.214,4.214,0,0,0,1.305,2.91,3.38,3.38,0,0,0,3.205.669c.877-.262,2.244-1.182,3.2-3.874a12.261,12.261,0,0,1,2.354-4.534,7.12,7.12,0,0,1,3.6-2.141,6.934,6.934,0,0,1,6.712,2.131,6.1,6.1,0,0,1,1.589,4.52,6.6,6.6,0,0,1-2.379,4.447c-1.333,1.219-3.116,2.241-5.051,4.141a19.928,19.928,0,0,0-3.909,4.819" transform="translate(9.736 -143.296)" fill="#fff"/>
    </g>
  </g>
</svg>
