<svg xmlns="http://www.w3.org/2000/svg" xmlns:xlink="http://www.w3.org/1999/xlink" width="292" height="292" viewBox="0 0 292 292">
  <defs>
    <clipPath id="clip-path">
      <rect id="사각형_14530" data-name="사각형 14530" width="292" height="292" transform="translate(1668 3110)" fill="#ffe1e1"/>
    </clipPath>
  </defs>
  <g id="man_05_s" transform="translate(-1668 -3110)" clip-path="url(#clip-path)">
    <g id="그룹_24995" data-name="그룹 24995" transform="translate(1703.148 3161.371)">
      <path id="사각형_4090" data-name="사각형 4090" d="M50,0H173.985a50,50,0,0,1,50,50V92.914a0,0,0,0,1,0,0H0a0,0,0,0,1,0,0V50A50,50,0,0,1,50,0Z" transform="translate(0 151.432)" fill="#ffa556" stroke="#333" stroke-linecap="round" stroke-linejoin="round" stroke-width="3"/>
      <path id="패스_29858" data-name="패스 29858" d="M508.2,582.646l-17.049,15.249-17.061-15.249V560.2H508.2Z" transform="translate(-379.156 -430.493)" fill="#ffcdbb" stroke="#333" stroke-miterlimit="10" stroke-width="3"/>
      <path id="패스_29859" data-name="패스 29859" d="M557.8,588.421a17.439,17.439,0,0,1-.406-5.671c.164-1.8.048-3.667.048-5.486,0-3.9-.029-7.795-.029-11.695v-6.946a46.828,46.828,0,0,0-93.286-5.868,43.591,43.591,0,0,0-.382,5.868v17.753c0,3.174.15,6.468-.136,9.677a26.4,26.4,0,0,1-.856,4.858c-.448,1.589-1.231,3.046-1.677,4.63a27.048,27.048,0,0,0-1.014,7.349,26.259,26.259,0,0,0,11,21.574,22.93,22.93,0,0,0,8.072,3.511,17.955,17.955,0,0,0,5,.511,31.813,31.813,0,0,1,4.8.245,26.175,26.175,0,0,1,7.607,1.491,32.257,32.257,0,0,0,7.246,1.743,46,46,0,0,0,16.721-.57,44.325,44.325,0,0,0,7.213-2.256c1.267-.52,2.6-.272,3.98-.409a15.6,15.6,0,0,1,3.474-.381,20.733,20.733,0,0,0,7.012-.346,24.32,24.32,0,0,0,14.08-9.288A27.484,27.484,0,0,0,561,598.239c-.439-2.638-1.619-5.062-2.521-7.556A20.656,20.656,0,0,1,557.8,588.421Z" transform="translate(-398.597 -496.326)" fill="#ffcdbb" stroke="#333" stroke-miterlimit="10" stroke-width="3"/>
      <ellipse id="타원_1173" data-name="타원 1173" cx="10.457" cy="5.259" rx="10.457" ry="5.259" transform="translate(74.44 81.582)" fill="#f2a59e"/>
      <ellipse id="타원_1174" data-name="타원 1174" cx="10.457" cy="5.259" rx="10.457" ry="5.259" transform="translate(128.632 81.582)" fill="#f2a59e"/>
      <rect id="사각형_4091" data-name="사각형 4091" width="12.308" height="3.764" transform="translate(91.649 62.683)" fill="#333"/>
      <rect id="사각형_4092" data-name="사각형 4092" width="12.308" height="3.764" transform="translate(132.336 66.447) rotate(-180)" fill="#333"/>
      <path id="패스_29860" data-name="패스 29860" d="M485.595,566.6l-19.8,7.181,20.291,32.772,16.574-17.523Z" transform="translate(-390.372 -421.785)" fill="#fff" stroke="#333" stroke-linecap="round" stroke-linejoin="round" stroke-width="3"/>
      <path id="패스_29861" data-name="패스 29861" d="M498.308,566.6l19.8,7.181L497.82,606.552,481.247,589.03Z" transform="translate(-369.533 -421.785)" fill="#fff" stroke="#333" stroke-linecap="round" stroke-linejoin="round" stroke-width="3"/>
      <path id="패스_29862" data-name="패스 29862" d="M469.349,532.461v24.27h-5.343c-4.413,0-7.991-3.165-7.991-7.049V539.509c0-3.356,2.648-6.142,6.178-6.86a8.507,8.507,0,0,1,1.813-.188Z" transform="translate(-404.689 -467.491)" fill="#ffcdbb" stroke="#333" stroke-miterlimit="10" stroke-width="3"/>
      <path id="사각형_4093" data-name="사각형 4093" d="M5,0h8.338a0,0,0,0,1,0,0V24.279a0,0,0,0,1,0,0H5a5,5,0,0,1-5-5V5A5,5,0,0,1,5,0Z" transform="translate(172.665 89.248) rotate(-180)" fill="#ffcdbb" stroke="#333" stroke-miterlimit="10" stroke-width="3"/>
      <path id="패스_29863" data-name="패스 29863" d="M502.144,547.171h0a6.36,6.36,0,0,1-6.359,6.359H482.06a6.361,6.361,0,0,1-6.359-6.359h0" transform="translate(-376.93 -448.133)" fill="#ffcdbb" stroke="#333" stroke-linecap="round" stroke-linejoin="round" stroke-width="3"/>
      <rect id="사각형_4094" data-name="사각형 4094" width="5.767" height="11.224" rx="1.209" transform="translate(95.615 73.097)" fill="#333"/>
      <rect id="사각형_4095" data-name="사각형 4095" width="5.767" height="11.224" rx="1.209" transform="translate(128.369 84.321) rotate(-180)" fill="#333"/>
      <ellipse id="타원_1175" data-name="타원 1175" cx="5.562" cy="3.75" rx="5.562" ry="3.75" transform="translate(106.43 84.585)" fill="#e89c8e" style="mix-blend-mode: darken;isolation: isolate"/>
      <path id="패스_29864" data-name="패스 29864" d="M566.59,561.743V559.3a53.987,53.987,0,0,0-107.975,0v2.443h-.01v8.539a7.538,7.538,0,0,1,1.813-.215h5.343V567.61a43.913,43.913,0,0,1,.379-5.865h52.468l17.26-26.156,5.922,26.156h17.274a43.53,43.53,0,0,1,.382,5.865v2.457h5.343a7.532,7.532,0,0,1,1.813.215v-8.539Z" transform="translate(-400.611 -505.313)" fill="#29394a" stroke="#333" stroke-linecap="round" stroke-linejoin="round" stroke-width="3"/>
      <path id="패스_29865" data-name="패스 29865" d="M458.274,593.754s-4.971,22.745-2.586,35.325" transform="translate(-404.75 -384.733)" fill="#00b39b" stroke="#333" stroke-linecap="round" stroke-linejoin="round" stroke-width="3"/>
      <path id="패스_29866" data-name="패스 29866" d="M506.768,593.754s4.971,22.745,2.586,35.325" transform="translate(-334.716 -384.733)" fill="#00b39b" stroke="#333" stroke-linecap="round" stroke-linejoin="round" stroke-width="3"/>
      <path id="패스_29867" data-name="패스 29867" d="M476.247,545.463s3.728,3.876-1.913,11.926" transform="translate(-378.628 -450.485)" fill="#ffcdbb" stroke="#333" stroke-linecap="round" stroke-linejoin="round" stroke-width="3"/>
      <path id="패스_29868" data-name="패스 29868" d="M487.994,545.463s-3.726,3.876,1.913,11.926" transform="translate(-361.768 -450.485)" fill="#ffcdbb" stroke="#333" stroke-linecap="round" stroke-linejoin="round" stroke-width="3"/>
      <path id="패스_29869" data-name="패스 29869" d="M128.107,341.1l-3.053-2.454a16.727,16.727,0,0,1,2.628-3.428,25.141,25.141,0,0,1,4.746-4.018c.7-.542,2.742-1.763,3.324-3a3.271,3.271,0,0,0-.285-3.232,3.55,3.55,0,0,0-3.392-1.068c-1.6.372-2.568,1.745-3.479,4.308a12.394,12.394,0,0,1-2.26,4.3,7.784,7.784,0,0,1-3.513,2.236,7.226,7.226,0,0,1-3.588.145,6.984,6.984,0,0,1-3.172-1.6,7.973,7.973,0,0,1-2.558-5.66,7.13,7.13,0,0,1,2.345-5.372,7.25,7.25,0,0,1,3.617-1.939,6.69,6.69,0,0,1,3.249.191,8.433,8.433,0,0,1,3.032,1.68l-2.451,2.667.01.009a4.911,4.911,0,0,0-1.736-.919,3.172,3.172,0,0,0-3.232.943,3.544,3.544,0,0,0-1.211,2.688,4.354,4.354,0,0,0,1.349,3.008,3.493,3.493,0,0,0,3.312.691c.907-.271,2.318-1.221,3.31-4a12.669,12.669,0,0,1,2.432-4.685,7.358,7.358,0,0,1,3.718-2.212,7.166,7.166,0,0,1,6.936,2.2,6.307,6.307,0,0,1,1.642,4.671,6.822,6.822,0,0,1-2.459,4.6c-1.378,1.26-3.22,2.316-5.22,4.279a20.588,20.588,0,0,0-4.04,4.98" transform="translate(25.035 -128.026)" fill="#fff"/>
    </g>
  </g>
</svg>
