<svg xmlns="http://www.w3.org/2000/svg" xmlns:xlink="http://www.w3.org/1999/xlink" width="292" height="292" viewBox="0 0 292 292">
  <defs>
    <clipPath id="clip-path">
      <rect id="사각형_14534" data-name="사각형 14534" width="292" height="292" transform="translate(1276 3602)" fill="#ffe1e1"/>
    </clipPath>
  </defs>
  <g id="man_09_s" transform="translate(-1276 -3602)" clip-path="url(#clip-path)">
    <g id="그룹_25012" data-name="그룹 25012" transform="translate(1327.369 3672.297)">
      <path id="사각형_4195" data-name="사각형 4195" d="M50,0h91.114a50,50,0,0,1,50,50V89.044a0,0,0,0,1,0,0H0a0,0,0,0,1,0,0V50A50,50,0,0,1,50,0Z" transform="translate(0 134.296)" fill="#ccbaba" stroke="#333" stroke-linecap="round" stroke-linejoin="round" stroke-width="3"/>
      <path id="패스_29977" data-name="패스 29977" d="M507.456,578.3l-16.338,14.614L474.768,578.3v-21.51h32.689Z" transform="translate(-395.555 -444.004)" fill="#ffcdbb" stroke="#333" stroke-miterlimit="10" stroke-width="3"/>
      <path id="패스_29978" data-name="패스 29978" d="M502.356,585.01l-15.25,18.09-21.078-32.7,19.77-7.46Z" transform="translate(-406.792 -436.1)" fill="#fff" stroke="#333" stroke-linecap="round" stroke-linejoin="round" stroke-width="3"/>
      <path id="패스_29979" data-name="패스 29979" d="M481.92,585.01,497.17,603.1l21.078-32.7-19.77-7.46Z" transform="translate(-386.357 -436.1)" fill="#fff" stroke="#333" stroke-linecap="round" stroke-linejoin="round" stroke-width="3"/>
      <rect id="사각형_4196" data-name="사각형 4196" width="89.762" height="115.696" rx="44.881" transform="translate(50.676 0)" fill="#ffcdbb" stroke="#333" stroke-miterlimit="10" stroke-width="3"/>
      <ellipse id="타원_1255" data-name="타원 1255" cx="10.021" cy="5.04" rx="10.021" ry="5.04" transform="translate(59.193 64.006)" fill="#f2a59e"/>
      <ellipse id="타원_1256" data-name="타원 1256" cx="10.021" cy="5.04" rx="10.021" ry="5.04" transform="translate(111.879 64.006)" fill="#f2a59e"/>
      <rect id="사각형_4197" data-name="사각형 4197" width="11.796" height="5.189" transform="translate(75.872 44.149)" fill="#9b7870"/>
      <rect id="사각형_4198" data-name="사각형 4198" width="11.796" height="5.189" transform="translate(115.242 49.338) rotate(-180)" fill="#9b7870"/>
      <path id="패스_29980" data-name="패스 29980" d="M528.64,511.194a44.629,44.629,0,0,1,8.558,26.29V563.42A44.879,44.879,0,0,1,492.319,608.3h0a44.624,44.624,0,0,1-26.29-8.558,44.845,44.845,0,0,0,81.2-26.29V547.514A44.78,44.78,0,0,0,528.64,511.194Z" transform="translate(-406.792 -502.634)" fill="#ffbfae" style="mix-blend-mode: darken;isolation: isolate"/>
      <path id="사각형_4199" data-name="사각형 4199" d="M6,0h6.782a0,0,0,0,1,0,0V26.3a0,0,0,0,1,0,0H6a6,6,0,0,1-6-6V6A6,6,0,0,1,6,0Z" transform="translate(37.894 47.225)" fill="#ffcdbb" stroke="#333" stroke-miterlimit="10" stroke-width="3"/>
      <path id="사각형_4200" data-name="사각형 4200" d="M6,0h6.782a0,0,0,0,1,0,0V26.3a0,0,0,0,1,0,0H6a6,6,0,0,1-6-6V6A6,6,0,0,1,6,0Z" transform="translate(153.22 73.522) rotate(-180)" fill="#ffcdbb" stroke="#333" stroke-miterlimit="10" stroke-width="3"/>
      <ellipse id="타원_1257" data-name="타원 1257" cx="5.33" cy="3.593" rx="5.33" ry="3.593" transform="translate(90.227 66.899)" fill="#e89c8e" style="mix-blend-mode: darken;isolation: isolate"/>
      <path id="패스_29981" data-name="패스 29981" d="M494.613,533.182a4.264,4.264,0,0,1-8.529,0" transform="translate(-381.003 -474.36)" fill="#ffcdbb" stroke="#333" stroke-linecap="round" stroke-linejoin="round" stroke-width="3"/>
      <path id="패스_29982" data-name="패스 29982" d="M482.549,533.182a4.264,4.264,0,0,1-8.528,0" transform="translate(-396.515 -474.36)" fill="#ffcdbb" stroke="#333" stroke-linecap="round" stroke-linejoin="round" stroke-width="3"/>
      <path id="패스_29983" data-name="패스 29983" d="M500.741,543.117h0a8.624,8.624,0,0,1-8.09,5.637h-7.914a8.622,8.622,0,0,1-8.09-5.637h0" transform="translate(-393.137 -461.585)" fill="#ffcdbb" stroke="#333" stroke-linecap="round" stroke-linejoin="round" stroke-width="3"/>
      <path id="패스_29984" data-name="패스 29984" d="M126.77,339.185,124,336.956a15.191,15.191,0,0,1,2.387-3.114,22.845,22.845,0,0,1,4.311-3.65c.633-.492,2.491-1.6,3.02-2.725a2.971,2.971,0,0,0-.259-2.936,3.225,3.225,0,0,0-3.081-.971c-1.452.338-2.332,1.586-3.16,3.914a11.265,11.265,0,0,1-2.053,3.9,7.071,7.071,0,0,1-3.191,2.031,6.562,6.562,0,0,1-3.259.132,6.344,6.344,0,0,1-2.881-1.456,7.243,7.243,0,0,1-2.324-5.141,6.477,6.477,0,0,1,2.13-4.88,6.585,6.585,0,0,1,3.286-1.761,6.073,6.073,0,0,1,2.952.174A7.659,7.659,0,0,1,124.626,322l-2.227,2.422.009.009a4.461,4.461,0,0,0-1.577-.835,2.881,2.881,0,0,0-2.936.857,3.22,3.22,0,0,0-1.1,2.442,3.956,3.956,0,0,0,1.225,2.732,3.173,3.173,0,0,0,3.009.628c.824-.246,2.106-1.109,3.007-3.637a11.51,11.51,0,0,1,2.209-4.256,6.684,6.684,0,0,1,3.378-2.01,6.51,6.51,0,0,1,6.3,2,5.729,5.729,0,0,1,1.491,4.243,6.2,6.2,0,0,1-2.234,4.175c-1.252,1.144-2.925,2.1-4.742,3.887a18.708,18.708,0,0,0-3.67,4.524" transform="translate(2.995 -145.245)" fill="#fff"/>
    </g>
  </g>
</svg>
