<svg xmlns="http://www.w3.org/2000/svg" xmlns:xlink="http://www.w3.org/1999/xlink" width="292" height="292" viewBox="0 0 292 292">
  <defs>
    <clipPath id="clip-path">
      <rect id="사각형_14532" data-name="사각형 14532" width="292" height="292" transform="translate(492 3602)" fill="#ffe1e1"/>
    </clipPath>
  </defs>
  <g id="man_07_s" transform="translate(-492 -3602)" clip-path="url(#clip-path)">
    <g id="그룹_25003" data-name="그룹 25003" transform="translate(543.371 3650.669)">
      <rect id="사각형_4138" data-name="사각형 4138" width="56.602" height="59.352" rx="28.301" transform="translate(40.929 29.531)" fill="#b2b9bf" stroke="#333" stroke-linecap="round" stroke-linejoin="round" stroke-width="3"/>
      <rect id="사각형_4139" data-name="사각형 4139" width="56.602" height="59.352" rx="28.301" transform="translate(150.184 88.883) rotate(-180)" fill="#b2b9bf" stroke="#333" stroke-linecap="round" stroke-linejoin="round" stroke-width="3"/>
      <path id="사각형_4140" data-name="사각형 4140" d="M50,0h91.113a50,50,0,0,1,50,50V89.044a0,0,0,0,1,0,0H0a0,0,0,0,1,0,0V50A50,50,0,0,1,50,0Z" transform="translate(0 157.029)" fill="#ffd96a" stroke="#333" stroke-linecap="round" stroke-linejoin="round" stroke-width="3"/>
      <path id="패스_29919" data-name="패스 29919" d="M325.934,397.036,309.6,411.65l-16.35-14.614v-21.51h32.688Z" transform="translate(-214.033 -240.008)" fill="#ffcdbb" stroke="#333" stroke-miterlimit="10" stroke-width="3"/>
      <rect id="사각형_4141" data-name="사각형 4141" width="89.761" height="115.695" rx="44.881" transform="translate(50.676 24.878)" fill="#ffcdbb" stroke="#333" stroke-miterlimit="10" stroke-width="3"/>
      <line id="선_835" data-name="선 835" y1="36.143" transform="translate(157.235 209.93)" fill="#00b39b" stroke="#333" stroke-linecap="round" stroke-linejoin="round" stroke-width="3"/>
      <line id="선_836" data-name="선 836" y1="36.143" transform="translate(33.89 209.93)" fill="#00b39b" stroke="#333" stroke-linecap="round" stroke-linejoin="round" stroke-width="3"/>
      <ellipse id="타원_1217" data-name="타원 1217" cx="10.021" cy="5.04" rx="10.021" ry="5.04" transform="translate(59.193 88.883)" fill="#f2a59e"/>
      <ellipse id="타원_1218" data-name="타원 1218" cx="10.021" cy="5.04" rx="10.021" ry="5.04" transform="translate(111.879 88.883)" fill="#f2a59e"/>
      <rect id="사각형_4142" data-name="사각형 4142" width="11.796" height="3.608" transform="translate(75.872 70.607)" fill="#4b4b4b"/>
      <rect id="사각형_4143" data-name="사각형 4143" width="11.796" height="3.608" transform="translate(115.242 74.215) rotate(-180)" fill="#4b4b4b"/>
      <path id="패스_29920" data-name="패스 29920" d="M347.118,330.869a44.623,44.623,0,0,1,8.558,26.29v25.933A44.88,44.88,0,0,1,310.8,427.973h0a44.616,44.616,0,0,1-26.29-8.561,44.845,44.845,0,0,0,81.2-26.29V367.189A44.778,44.778,0,0,0,347.118,330.869Z" transform="translate(-225.271 -297.431)" fill="#ffbfae" style="mix-blend-mode: darken;isolation: isolate"/>
      <path id="사각형_4144" data-name="사각형 4144" d="M12.782,0h0a0,0,0,0,1,0,0V26.3a0,0,0,0,1,0,0h0A12.782,12.782,0,0,1,0,13.515v-.733A12.782,12.782,0,0,1,12.782,0Z" transform="translate(37.894 72.102)" fill="#ffcdbb" stroke="#333" stroke-miterlimit="10" stroke-width="3"/>
      <path id="사각형_4145" data-name="사각형 4145" d="M12.782,0h0a0,0,0,0,1,0,0V26.3a0,0,0,0,1,0,0h0A12.782,12.782,0,0,1,0,13.515v-.733A12.782,12.782,0,0,1,12.782,0Z" transform="translate(153.219 98.399) rotate(-180)" fill="#ffcdbb" stroke="#333" stroke-miterlimit="10" stroke-width="3"/>
      <ellipse id="타원_1219" data-name="타원 1219" cx="5.33" cy="3.593" rx="5.33" ry="3.593" transform="translate(90.227 91.776)" fill="#e89c8e" style="mix-blend-mode: darken;isolation: isolate"/>
      <path id="패스_29921" data-name="패스 29921" d="M320.329,445.9l-12.757,12.757L294.815,445.9l12.757-53.374Z" transform="translate(-212.015 -218.147)" fill="#ff5f50" stroke="#333" stroke-linecap="round" stroke-linejoin="round" stroke-width="3"/>
      <path id="사각형_4146" data-name="사각형 4146" d="M0,0H18.041a0,0,0,0,1,0,0V18.041a0,0,0,0,1,0,0H3.815A3.815,3.815,0,0,1,0,14.226V0A0,0,0,0,1,0,0Z" transform="translate(82.8 184.399) rotate(-45)" fill="#ff5f50" stroke="#333" stroke-linecap="round" stroke-linejoin="round" stroke-width="3"/>
      <path id="패스_29922" data-name="패스 29922" d="M303.921,381.926l-18.978,6.882,19.445,31.407,15.883-16.793Z" transform="translate(-224.709 -231.779)" fill="#fff" stroke="#333" stroke-linecap="round" stroke-linejoin="round" stroke-width="3"/>
      <path id="패스_29923" data-name="패스 29923" d="M316.748,381.926l18.978,6.882-19.445,31.407L300.4,403.421Z" transform="translate(-204.836 -231.779)" fill="#fff" stroke="#333" stroke-linecap="round" stroke-linejoin="round" stroke-width="3"/>
      <path id="패스_29924" data-name="패스 29924" d="M318.66,363.59h0c0,2.188-3.443,3.964-7.687,3.964h-8c-4.245,0-7.687-1.776-7.687-3.964h0" transform="translate(-211.414 -255.356)" fill="none" stroke="#333" stroke-linecap="round" stroke-linejoin="round" stroke-width="3"/>
      <line id="선_837" data-name="선 837" x1="7.45" y2="11.637" transform="translate(79.212 101.496)" fill="none" stroke="#333" stroke-linecap="round" stroke-linejoin="round" stroke-width="3"/>
      <line id="선_838" data-name="선 838" x2="7.45" y2="11.637" transform="translate(104.451 101.496)" fill="none" stroke="#333" stroke-linecap="round" stroke-linejoin="round" stroke-width="3"/>
      <rect id="사각형_4147" data-name="사각형 4147" width="109.255" height="12.021" rx="2.629" transform="translate(40.929 29.531)" fill="#29394a" stroke="#333" stroke-linecap="round" stroke-linejoin="round" stroke-width="3"/>
      <path id="패스_29925" data-name="패스 29925" d="M364.246,345.775h-81.72a29.418,29.418,0,0,1,1.44-9.121,29.883,29.883,0,0,1,7.2-11.772,29.436,29.436,0,0,1,20.893-8.641h22.653a29.52,29.52,0,0,1,29.534,29.534Z" transform="translate(-227.817 -316.241)" fill="#29394a" stroke="#333" stroke-linecap="round" stroke-linejoin="round" stroke-width="3"/>
      <path id="패스_29926" data-name="패스 29926" d="M364.246,334.292h-81.72a29.417,29.417,0,0,1,1.44-9.121h78.84A29.413,29.413,0,0,1,364.246,334.292Z" transform="translate(-227.817 -304.758)" fill="#b2b9bf" stroke="#333" stroke-linecap="round" stroke-linejoin="round" stroke-width="3"/>
      <path id="패스_29927" data-name="패스 29927" d="M292.5,357.222a4.266,4.266,0,0,1,8.531,0" transform="translate(-214.994 -269.026)" fill="none" stroke="#333" stroke-linecap="round" stroke-linejoin="round" stroke-width="3"/>
      <path id="패스_29928" data-name="패스 29928" d="M304.562,357.222a4.264,4.264,0,0,1,8.528,0" transform="translate(-199.481 -269.026)" fill="none" stroke="#333" stroke-linecap="round" stroke-linejoin="round" stroke-width="3"/>
      <path id="패스_29929" data-name="패스 29929" d="M127.1,339.655l-2.842-2.284a15.563,15.563,0,0,1,2.446-3.191,23.418,23.418,0,0,1,4.418-3.74c.648-.5,2.552-1.641,3.094-2.793a3.044,3.044,0,0,0-.266-3.009,3.3,3.3,0,0,0-3.158-.995c-1.488.347-2.39,1.625-3.239,4.01a11.542,11.542,0,0,1-2.1,4,7.248,7.248,0,0,1-3.27,2.082,6.725,6.725,0,0,1-3.34.135,6.5,6.5,0,0,1-2.953-1.492,7.421,7.421,0,0,1-2.381-5.269,6.637,6.637,0,0,1,2.183-5,6.748,6.748,0,0,1,3.367-1.805,6.224,6.224,0,0,1,3.025.178,7.852,7.852,0,0,1,2.822,1.564l-2.282,2.482.009.009a4.565,4.565,0,0,0-1.616-.855,2.952,2.952,0,0,0-3.009.878,3.3,3.3,0,0,0-1.128,2.5,4.054,4.054,0,0,0,1.256,2.8,3.252,3.252,0,0,0,3.083.644c.844-.252,2.158-1.136,3.081-3.727a11.8,11.8,0,0,1,2.264-4.362,6.848,6.848,0,0,1,3.461-2.059,6.67,6.67,0,0,1,6.457,2.05,5.87,5.87,0,0,1,1.528,4.348,6.35,6.35,0,0,1-2.289,4.278c-1.283,1.173-3,2.156-4.859,3.984a19.168,19.168,0,0,0-3.761,4.636" transform="translate(5.876 -126.433)" fill="#fff"/>
    </g>
  </g>
</svg>
