<svg xmlns="http://www.w3.org/2000/svg" xmlns:xlink="http://www.w3.org/1999/xlink" width="292" height="292" viewBox="0 0 292 292">
  <defs>
    <clipPath id="clip-path">
      <rect id="사각형_14533" data-name="사각형 14533" width="292" height="292" transform="translate(884 3602)" fill="#ffe1e1"/>
    </clipPath>
  </defs>
  <g id="man_08_s" transform="translate(-884 -3602)" clip-path="url(#clip-path)">
    <g id="그룹_25004" data-name="그룹 25004" transform="translate(935.369 3653.371)">
      <path id="사각형_4148" data-name="사각형 4148" d="M50,0h90.885a50,50,0,0,1,50,50V89.938a0,0,0,0,1,0,0H0a0,0,0,0,1,0,0V50A50,50,0,0,1,50,0Z" transform="translate(0 152.328)" fill="#3d5e84" stroke="#333" stroke-linecap="round" stroke-linejoin="round" stroke-width="3"/>
      <path id="패스_29930" data-name="패스 29930" d="M111.275,555.785v36.357c0,.087-.014.169-.014.255a16.331,16.331,0,1,0,32.663,0V555.785Z" transform="translate(-32.966 -438.543)" fill="#ffcdbb" stroke="#333" stroke-miterlimit="10" stroke-width="3"/>
      <path id="패스_29931" data-name="패스 29931" d="M188.778,558.163v25.891a44.818,44.818,0,1,1-89.637,0V558.163a44.818,44.818,0,0,1,89.637,0Z" transform="translate(-48.517 -493)" fill="#ffcdbb" stroke="#333" stroke-miterlimit="10" stroke-width="3"/>
      <path id="패스_29932" data-name="패스 29932" d="M106.327,533.995v26.279H101.19a7.644,7.644,0,0,1-7.649-7.626v-11a7.649,7.649,0,0,1,7.649-7.649Z" transform="translate(-55.703 -466.503)" fill="#ffcdbb" stroke="#333" stroke-miterlimit="10" stroke-width="3"/>
      <path id="사각형_4149" data-name="사각형 4149" d="M6,0h6.767a0,0,0,0,1,0,0V26.266a0,0,0,0,1,0,0H6a6,6,0,0,1-6-6V6A6,6,0,0,1,6,0Z" transform="translate(153.037 93.769) rotate(-180)" fill="#ffcdbb" stroke="#333" stroke-miterlimit="10" stroke-width="3"/>
      <line id="선_839" data-name="선 839" x2="11.781" transform="translate(75.781 81.597)" fill="#e27824" stroke="#333" stroke-linecap="round" stroke-linejoin="round" stroke-width="3"/>
      <line id="선_840" data-name="선 840" x2="11.781" transform="translate(103.323 81.597)" fill="#e27824" stroke="#333" stroke-linecap="round" stroke-linejoin="round" stroke-width="3"/>
      <path id="패스_29935" data-name="패스 29935" d="M149.959,551.883a5.631,5.631,0,0,0-7.959,0v0a5.633,5.633,0,0,1-7.961,0v0a5.633,5.633,0,0,0-7.961,0h0a5.629,5.629,0,0,1-7.961,0h0a5.631,5.631,0,0,0-7.959,0h0" transform="translate(-34.382 -445.664)" fill="#e27824" stroke="#333" stroke-linecap="round" stroke-linejoin="round" stroke-width="3"/>
      <g id="그룹_25016" data-name="그룹 25016">
        <ellipse id="타원_1222" data-name="타원 1222" cx="10.009" cy="5.034" rx="10.009" ry="5.034" transform="translate(59.123 84.264)" fill="#f2a59e"/>
        <ellipse id="타원_1223" data-name="타원 1223" cx="10.009" cy="5.034" rx="10.009" ry="5.034" transform="translate(111.746 84.264)" fill="#f2a59e"/>
        <rect id="사각형_4150" data-name="사각형 4150" width="11.781" height="3.603" transform="translate(75.781 64.208)" fill="#333"/>
        <rect id="사각형_4151" data-name="사각형 4151" width="11.781" height="3.603" transform="translate(115.104 67.812) rotate(-180)" fill="#333"/>
        <path id="패스_29933" data-name="패스 29933" d="M165.417,517.085a44.556,44.556,0,0,1,8.55,26.258v25.9a44.826,44.826,0,0,1-44.827,44.827h0a44.576,44.576,0,0,1-26.259-8.548,44.792,44.792,0,0,0,81.1-26.259v-25.9A44.72,44.72,0,0,0,165.417,517.085Z" transform="translate(-43.717 -488.201)" fill="#ffbfae" style="mix-blend-mode: darken;isolation: isolate"/>
        <ellipse id="타원_1224" data-name="타원 1224" cx="5.324" cy="3.589" rx="5.324" ry="3.589" transform="translate(90.119 87.153)" fill="#e89c8e" style="mix-blend-mode: darken;isolation: isolate"/>
        <path id="패스_29936" data-name="패스 29936" d="M127.16,339.744l-2.855-2.295a15.631,15.631,0,0,1,2.458-3.206,23.525,23.525,0,0,1,4.438-3.758c.651-.506,2.564-1.648,3.109-2.806a3.058,3.058,0,0,0-.267-3.023,3.32,3.32,0,0,0-3.172-1c-1.494.348-2.4,1.632-3.253,4.029a11.6,11.6,0,0,1-2.114,4.02,7.281,7.281,0,0,1-3.285,2.091,6.756,6.756,0,0,1-3.355.136,6.529,6.529,0,0,1-2.966-1.5,7.456,7.456,0,0,1-2.392-5.293,6.668,6.668,0,0,1,2.193-5.024,6.78,6.78,0,0,1,3.382-1.813,6.252,6.252,0,0,1,3.039.179,7.889,7.889,0,0,1,2.835,1.571l-2.293,2.494.009.009a4.588,4.588,0,0,0-1.623-.859,2.966,2.966,0,0,0-3.023.882,3.315,3.315,0,0,0-1.133,2.514,4.073,4.073,0,0,0,1.262,2.813,3.267,3.267,0,0,0,3.1.647c.848-.253,2.168-1.142,3.1-3.744a11.849,11.849,0,0,1,2.274-4.381,6.881,6.881,0,0,1,3.477-2.069,6.7,6.7,0,0,1,6.486,2.06,5.9,5.9,0,0,1,1.535,4.368,6.379,6.379,0,0,1-2.3,4.3c-1.289,1.178-3.011,2.166-4.881,4a19.253,19.253,0,0,0-3.778,4.657" transform="translate(12.322 -131.979)" fill="#fff"/>
      </g>
      <path id="패스_29934" data-name="패스 29934" d="M206.5,535.291a20.9,20.9,0,0,0-.977-4.493,20.278,20.278,0,0,0-15.329-13.434,20.8,20.8,0,0,0-5.84-.281,16.419,16.419,0,0,1-13.756-5.8,20.3,20.3,0,0,0-30.4,0,16.419,16.419,0,0,1-13.756,5.8,20.8,20.8,0,0,0-5.84.281A20.278,20.278,0,0,0,105.266,530.8a21.041,21.041,0,0,0-.979,4.493,18.6,18.6,0,0,1-6.454,12.847,20.3,20.3,0,0,0-.043,31.642v-.205a7.649,7.649,0,0,1,7.649-7.649h5.137V569.6a44.742,44.742,0,0,1,2.708-15.329,20.315,20.315,0,0,0,31.053-12.45,20.266,20.266,0,0,0,22.117,0,20.316,20.316,0,0,0,31.053,12.45A44.8,44.8,0,0,1,200.21,569.6v2.329h5.137A7.648,7.648,0,0,1,213,579.575v.205a20.3,20.3,0,0,0-.041-31.642C209.06,545.015,207.01,540.259,206.5,535.291Z" transform="translate(-59.95 -504.434)" fill="#ffd24f" stroke="#333" stroke-linecap="round" stroke-linejoin="round" stroke-width="3"/>
    </g>
  </g>
</svg>
