<?xml version="1.0" encoding="utf-8"?>
<!-- Generator: Adobe Illustrator 23.0.6, SVG Export Plug-In . SVG Version: 6.00 Build 0)  -->
<svg version="1.1" id="Layer_1" xmlns="http://www.w3.org/2000/svg" xmlns:xlink="http://www.w3.org/1999/xlink" x="0px" y="0px"
	 viewBox="0 0 1368 832" style="enable-background:new 0 0 1368 832;" xml:space="preserve">
<style type="text/css">
	.st0{filter:url(#Adobe_OpacityMaskFilter);}
	.st1{fill-rule:evenodd;clip-rule:evenodd;fill:#FFFFFF;}
	.st2{mask:url(#b_1_);}
	.st3{filter:url(#Adobe_OpacityMaskFilter_1_);}
	.st4{mask:url(#d_1_);fill-rule:evenodd;clip-rule:evenodd;fill:#EAEEEA;}
	.st5{filter:url(#Adobe_OpacityMaskFilter_2_);}
	.st6{mask:url(#d_2_);fill-rule:evenodd;clip-rule:evenodd;fill:#D65A78;}
	.st7{filter:url(#Adobe_OpacityMaskFilter_3_);}
	.st8{mask:url(#d_3_);fill-rule:evenodd;clip-rule:evenodd;fill:#EAEEEA;}
	.st9{filter:url(#Adobe_OpacityMaskFilter_4_);}
	.st10{mask:url(#d_4_);fill-rule:evenodd;clip-rule:evenodd;fill:#EAEEEA;}
	.st11{filter:url(#Adobe_OpacityMaskFilter_5_);}
	.st12{mask:url(#d_5_);fill-rule:evenodd;clip-rule:evenodd;fill:#0C5A49;}
	.st13{filter:url(#Adobe_OpacityMaskFilter_6_);}
	.st14{mask:url(#d_6_);fill-rule:evenodd;clip-rule:evenodd;fill:#F7B500;}
	.st15{filter:url(#Adobe_OpacityMaskFilter_7_);}
	.st16{mask:url(#d_7_);fill-rule:evenodd;clip-rule:evenodd;fill:#EAEEEA;}
	.st17{filter:url(#Adobe_OpacityMaskFilter_8_);}
	.st18{mask:url(#d_8_);fill-rule:evenodd;clip-rule:evenodd;fill:#EAEEEA;}
</style>
<g>
	<defs>
		<filter id="Adobe_OpacityMaskFilter" filterUnits="userSpaceOnUse" x="218.7" y="-191.8" width="1086.5" height="1244.5">
			<feColorMatrix  type="matrix" values="1 0 0 0 0  0 1 0 0 0  0 0 1 0 0  0 0 0 1 0"/>
		</filter>
	</defs>
	<mask maskUnits="userSpaceOnUse" x="218.7" y="-191.8" width="1086.5" height="1244.5" id="b_1_">
		<g class="st0">
			<path id="a_1_" class="st1" d="M0,0h1368v832H0V0z"/>
		</g>
	</mask>
	<g class="st2">
		<defs>
			<filter id="Adobe_OpacityMaskFilter_1_" filterUnits="userSpaceOnUse" x="884" y="-191.8" width="259.5" height="259.5">
				<feColorMatrix  type="matrix" values="1 0 0 0 0  0 1 0 0 0  0 0 1 0 0  0 0 0 1 0"/>
			</filter>
		</defs>
		<mask maskUnits="userSpaceOnUse" x="884" y="-191.8" width="259.5" height="259.5" id="d_1_">
			<g class="st3">
				<path id="c_1_" class="st1" d="M0,0h1368v832H0V0z"/>
			</g>
		</mask>
		<path class="st4" d="M884,62.1l253.9-253.9l5.7,5.7L889.7,67.8L884,62.1z"/>
		<defs>
			<filter id="Adobe_OpacityMaskFilter_2_" filterUnits="userSpaceOnUse" x="1036.3" y="123.3" width="11.3" height="11.3">
				<feColorMatrix  type="matrix" values="1 0 0 0 0  0 1 0 0 0  0 0 1 0 0  0 0 0 1 0"/>
			</filter>
		</defs>
		<mask maskUnits="userSpaceOnUse" x="1036.3" y="123.3" width="11.3" height="11.3" id="d_2_">
			<g class="st5">
				<path id="c_2_" class="st1" d="M0,0h1368v832H0V0z"/>
			</g>
		</mask>
		<path class="st6" d="M1036.3,129l5.7-5.7l5.7,5.7l-5.7,5.7L1036.3,129z"/>
		<defs>
			<filter id="Adobe_OpacityMaskFilter_3_" filterUnits="userSpaceOnUse" x="1045.7" y="-133.8" width="259.5" height="259.5">
				<feColorMatrix  type="matrix" values="1 0 0 0 0  0 1 0 0 0  0 0 1 0 0  0 0 0 1 0"/>
			</filter>
		</defs>
		<mask maskUnits="userSpaceOnUse" x="1045.7" y="-133.8" width="259.5" height="259.5" id="d_3_">
			<g class="st7">
				<path id="c_3_" class="st1" d="M0,0h1368v832H0V0z"/>
			</g>
		</mask>
		<path class="st8" d="M1045.7,120.1l253.9-253.9l5.7,5.7l-253.9,253.9L1045.7,120.1z"/>
		<defs>
			<filter id="Adobe_OpacityMaskFilter_4_" filterUnits="userSpaceOnUse" x="884" y="-83.8" width="259.5" height="259.5">
				<feColorMatrix  type="matrix" values="1 0 0 0 0  0 1 0 0 0  0 0 1 0 0  0 0 0 1 0"/>
			</filter>
		</defs>
		<mask maskUnits="userSpaceOnUse" x="884" y="-83.8" width="259.5" height="259.5" id="d_4_">
			<g class="st9">
				<path id="c_4_" class="st1" d="M0,0h1368v832H0V0z"/>
			</g>
		</mask>
		<path class="st10" d="M884,170.1l253.9-253.9l5.7,5.7L889.7,175.8L884,170.1z"/>
		<defs>
			<filter id="Adobe_OpacityMaskFilter_5_" filterUnits="userSpaceOnUse" x="869.3" y="179.3" width="11.3" height="11.3">
				<feColorMatrix  type="matrix" values="1 0 0 0 0  0 1 0 0 0  0 0 1 0 0  0 0 0 1 0"/>
			</filter>
		</defs>
		<mask maskUnits="userSpaceOnUse" x="869.3" y="179.3" width="11.3" height="11.3" id="d_5_">
			<g class="st11">
				<path id="c_5_" class="st1" d="M0,0h1368v832H0V0z"/>
			</g>
		</mask>
		<path class="st12" d="M869.3,185l5.7-5.7l5.7,5.7l-5.7,5.7L869.3,185z"/>
		<defs>
			<filter id="Adobe_OpacityMaskFilter_6_" filterUnits="userSpaceOnUse" x="478.3" y="781.3" width="11.3" height="11.3">
				<feColorMatrix  type="matrix" values="1 0 0 0 0  0 1 0 0 0  0 0 1 0 0  0 0 0 1 0"/>
			</filter>
		</defs>
		<mask maskUnits="userSpaceOnUse" x="478.3" y="781.3" width="11.3" height="11.3" id="d_6_">
			<g class="st13">
				<path id="c_6_" class="st1" d="M0,0h1368v832H0V0z"/>
			</g>
		</mask>
		<path class="st14" d="M478.3,787l5.7-5.7l5.7,5.7l-5.7,5.7L478.3,787z"/>
		<defs>
			<filter id="Adobe_OpacityMaskFilter_7_" filterUnits="userSpaceOnUse" x="218.7" y="793.2" width="259.5" height="259.5">
				<feColorMatrix  type="matrix" values="1 0 0 0 0  0 1 0 0 0  0 0 1 0 0  0 0 0 1 0"/>
			</filter>
		</defs>
		<mask maskUnits="userSpaceOnUse" x="218.7" y="793.2" width="259.5" height="259.5" id="d_7_">
			<g class="st15">
				<path id="c_7_" class="st1" d="M0,0h1368v832H0V0z"/>
			</g>
		</mask>
		<path class="st16" d="M218.7,1047.1l253.9-253.9l5.7,5.7l-253.9,253.9L218.7,1047.1z"/>
		<defs>
			<filter id="Adobe_OpacityMaskFilter_8_" filterUnits="userSpaceOnUse" x="282" y="648" width="259.5" height="259.5">
				<feColorMatrix  type="matrix" values="1 0 0 0 0  0 1 0 0 0  0 0 1 0 0  0 0 0 1 0"/>
			</filter>
		</defs>
		<mask maskUnits="userSpaceOnUse" x="282" y="648" width="259.5" height="259.5" id="d_8_">
			<g class="st17">
				<path id="c_8_" class="st1" d="M0,0h1368v832H0V0z"/>
			</g>
		</mask>
		<path class="st18" d="M282,901.9L535.9,648l5.7,5.7L287.7,907.5L282,901.9z"/>
	</g>
</g>
</svg>
