<svg xmlns="http://www.w3.org/2000/svg" xmlns:xlink="http://www.w3.org/1999/xlink" width="22" height="19" viewBox="0 0 22 19">
    <defs>
        <path id="a" d="M0 0h21.989v18.975H0z"/>
    </defs>
    <g fill="none" fill-rule="evenodd">
        <mask id="b" fill="#fff">
            <use xlink:href="#a"/>
        </mask>
        <path fill="#3F454B" d="M19.596 6.372h-1.308v.386s-.387-.526-1.13-.526c0 0-1.905-.082-1.905 2.117 0 0-.02 2.048 1.852 2.048 0 0 .764.032 1.183-.526v.323s.094 1.008-.858 1.008h-.325v1.224h.524s1.967.021 1.967-2.158V6.372zm-7.298-.14s-2.225 0-2.225 2.131c0 0-.071 2.102 2.225 2.102 0 0 2.275-.003 2.275-2.102 0 0 .074-2.13-2.275-2.13zM7.213 4.44v1.33s.615-.028.615 1.146v3.406h1.297v-3.72S9.18 4.44 7.213 4.44zm-.432 3.879s-.07-2.104-1.898-2.104c0 0-.6 0-1.144.543v-2.19H2.393v5.754h1.36v-.45s.32.593 1.13.593c0 0 1.898-.071 1.898-2.146zm15.208-4.744v8.481c0 1.975-1.555 3.576-3.473 3.576h-5.182l-1.768 2.953s-.015.034-.06.088a.592.592 0 0 1-.512.302.592.592 0 0 1-.513-.306c-.039-.049-.058-.084-.058-.084l-1.769-2.953H3.473C1.555 15.632 0 14.03 0 12.056v-8.48C0 1.6 1.555 0 3.473 0h15.043c1.918 0 3.473 1.6 3.473 3.575zm-9.691 3.901a.877.877 0 0 0-.865.887c0 .49.387.888.865.888a.877.877 0 0 0 .865-.888.877.877 0 0 0-.865-.887zm-7.711 0a.877.877 0 0 0-.865.887c0 .49.387.888.865.888a.877.877 0 0 0 .865-.888.876.876 0 0 0-.865-.887zm13.761.887c0 .49-.387.888-.865.888a.876.876 0 0 1-.865-.888c0-.49.387-.887.865-.887s.865.397.865.887z" mask="url(#b)"/>
    </g>
</svg>
