<svg xmlns="http://www.w3.org/2000/svg" width="18" height="18" viewBox="0 0 18 18">
    <g fill="none" fill-rule="evenodd">
        <path fill="#FFF" d="M-813-927H627v2896H-813z"/>
        <path fill="#4D9A89" fill-rule="nonzero" d="M13.361 1c.725 0 1.344.26 1.856.78.513.519.77 1.134.77 1.845v10.5a.851.851 0 0 1-.257.625.827.827 0 0 1-.605.257v.882a.827.827 0 0 1-.256.605.851.851 0 0 1-.626.256h-.882a.827.827 0 0 1-.605-.256.827.827 0 0 1-.256-.605v-.882H5.486v.882a.827.827 0 0 1-.256.605.827.827 0 0 1-.605.256h-.882a.851.851 0 0 1-.625-.256.827.827 0 0 1-.257-.605v-.882a.827.827 0 0 1-.605-.257.851.851 0 0 1-.256-.625v-10.5c0-.71.256-1.326.769-1.846A2.512 2.512 0 0 1 4.625 1h8.736zM5.056 13.264c.369 0 .68-.13.933-.39s.38-.567.38-.923c0-.369-.127-.68-.38-.933a1.268 1.268 0 0 0-.933-.38c-.37 0-.68.127-.933.38s-.38.564-.38.933c0 .356.127.663.38.923.252.26.564.39.933.39zm7.875 0c.369 0 .68-.13.933-.39s.38-.567.38-.923c0-.369-.127-.68-.38-.933a1.268 1.268 0 0 0-.933-.38c-.37 0-.68.127-.933.38s-.38.564-.38.933c0 .356.127.663.38.923.252.26.564.39.933.39zm1.312-4.389v-5.25h-10.5v5.25h10.5z"/>
    </g>
</svg>
