<svg xmlns="http://www.w3.org/2000/svg" width="18" height="18" viewBox="0 0 18 18">
    <g fill="none" fill-rule="evenodd">
        <path fill="#FFF" d="M-813-836H627v2896H-813z"/>
        <path fill="#4D9A89" fill-rule="nonzero" d="M15.52 3.083L17 8.23v6.23a.84.84 0 0 1-.26.614.865.865 0 0 1-.636.26h-.875a.865.865 0 0 1-.635-.26.84.84 0 0 1-.26-.615v-.896H3.666v.896a.84.84 0 0 1-.26.615.865.865 0 0 1-.636.26h-.875a.865.865 0 0 1-.636-.26.84.84 0 0 1-.26-.615V8.23l1.48-5.146v-.02c.069-.306.221-.56.458-.76C3.173 2.1 3.45 2 3.77 2h10.458c.306 0 .577.097.813.292.236.194.389.437.458.729l.02.062zM3.876 4.667l-.77 2.666h11.79l-.77-2.666-.25-.875h-9.75l-.25.875zm.23 7.125c.374 0 .69-.132.947-.396s.386-.577.386-.938c0-.375-.129-.69-.386-.948a1.288 1.288 0 0 0-.948-.385c-.36 0-.673.128-.937.385a1.271 1.271 0 0 0-.396.948c0 .361.132.674.396.938.264.264.576.396.937.396zm9.79 0c.362 0 .674-.132.938-.396.264-.264.396-.577.396-.938 0-.375-.132-.69-.396-.948a1.299 1.299 0 0 0-.937-.385c-.375 0-.691.128-.948.385a1.288 1.288 0 0 0-.386.948c0 .361.129.674.386.938.257.264.573.396.948.396z"/>
    </g>
</svg>
