<svg xmlns="http://www.w3.org/2000/svg" width="18" height="18" viewBox="0 0 18 18">
    <g fill="none" fill-rule="evenodd">
        <path fill="#FFF" d="M-813-880H627v2896H-813z"/>
        <path fill="#4D9A89" fill-rule="nonzero" d="M13.361 1c.725 0 1.344.26 1.856.78.513.519.77 1.134.77 1.845v8.757c0 .697-.24 1.295-.718 1.794a2.632 2.632 0 0 1-1.744.83l1.6 1.313v.431H2.861v-.43l1.6-1.313a2.632 2.632 0 0 1-1.743-.83A2.501 2.501 0 0 1 2 12.381V3.625c0-.71.256-1.326.769-1.846A2.512 2.512 0 0 1 4.625 1h8.736zM5.056 13.264c.355 0 .663-.13.923-.39s.39-.567.39-.923c0-.369-.13-.68-.39-.933a1.278 1.278 0 0 0-.923-.38c-.37 0-.68.127-.933.38s-.38.564-.38.933c0 .356.127.663.38.923.252.26.564.39.933.39zm3.055-5.25V3.625H3.743v4.389h4.368zm4.82 5.25c.355 0 .663-.13.923-.39s.39-.567.39-.923c0-.369-.13-.68-.39-.933a1.278 1.278 0 0 0-.923-.38c-.37 0-.68.127-.933.38s-.38.564-.38.933c0 .356.127.663.38.923.252.26.564.39.933.39zm1.312-5.25V3.625H9.875v4.389h4.368z"/>
    </g>
</svg>
