<svg xmlns="http://www.w3.org/2000/svg" width="45" height="38" viewBox="0 0 45 38">
    <path fill="#FFF" fill-rule="nonzero" d="M30.542 19.035c0-.234-.051-.446-.154-.637a1.165 1.165 0 0 0-.461-.461l-10.723-6.724c-.234-.146-.461-.22-.681-.22-.22 0-.447.059-.681.176-.235.147-.41.315-.528.506-.117.19-.175.417-.175.68V25.76c0 .264.058.49.175.681.118.19.293.344.528.462.117.058.227.102.33.131.102.03.212.044.329.044.117 0 .234-.014.352-.044a.99.99 0 0 0 .351-.175l10.723-6.68c.205-.117.359-.271.461-.461.103-.19.154-.418.154-.682zm10.723 0c0 .674-.008 1.275-.022 1.802-.015.527-.022.982-.022 1.362 0 .381-.015.806-.044 1.275a43.027 43.027 0 0 1-.33 3.208c-.073.527-.168 1.01-.285 1.45a4.373 4.373 0 0 1-.506 1.406c-.249.44-.55.835-.9 1.187a5.5 5.5 0 0 1-1.231.79c-.44.206-.894.338-1.362.396-1.553.176-3.501.308-5.845.396-2.344.088-5.083.132-8.218.132s-5.874-.044-8.218-.132c-2.344-.088-4.292-.22-5.845-.396a4.534 4.534 0 0 1-1.362-.395 5.5 5.5 0 0 1-1.23-.791 4.472 4.472 0 0 1-.923-1.187 5.794 5.794 0 0 1-.527-1.406c-.088-.44-.169-.923-.242-1.45a43.027 43.027 0 0 1-.33-3.208c-.03-.469-.044-.894-.044-1.275 0-.38-.007-.835-.022-1.362a65.616 65.616 0 0 1-.022-1.802c0-.673.008-1.267.022-1.78.015-.512.022-.959.022-1.34 0-.38.015-.805.044-1.274.03-.469.073-.996.132-1.582.059-.586.125-1.135.198-1.648.073-.513.168-.989.285-1.428a4.144 4.144 0 0 1 .506-1.429c.249-.424.55-.813.9-1.164a4.81 4.81 0 0 1 1.231-.835c.44-.205.894-.337 1.362-.396 1.553-.146 3.501-.263 5.845-.351 2.344-.088 5.083-.132 8.218-.132s5.874.044 8.218.132c2.344.088 4.292.205 5.845.351.468.059.922.19 1.362.396.44.205.85.483 1.23.835.381.351.689.74.923 1.164.235.425.41.901.527 1.429.088.44.169.915.242 1.428a43.027 43.027 0 0 1 .33 3.23c.03.469.044.893.044 1.274s.007.828.022 1.34c.014.513.022 1.107.022 1.78z"/>
</svg>
