<svg width="281" height="49" viewBox="0 0 281 49" fill="none" xmlns="http://www.w3.org/2000/svg">
<mask id="mask0_1084_5026" style="mask-type:luminance" maskUnits="userSpaceOnUse" x="2" y="4" width="276" height="42">
<path fill-rule="evenodd" clip-rule="evenodd" d="M2.51562 4.15234H277.225V45.6778H2.51562V4.15234Z" fill="white"/>
</mask>
<g mask="url(#mask0_1084_5026)">
<mask id="mask1_1084_5026" style="mask-type:luminance" maskUnits="userSpaceOnUse" x="5" y="5" width="178" height="39">
<path fill-rule="evenodd" clip-rule="evenodd" d="M5.26953 5.31641H182.907V43.6663H5.26953V5.31641Z" fill="white"/>
</mask>
<g mask="url(#mask1_1084_5026)">
<mask id="mask2_1084_5026" style="mask-type:luminance" maskUnits="userSpaceOnUse" x="5" y="6" width="176" height="36">
<path fill-rule="evenodd" clip-rule="evenodd" d="M5.26953 6.29395H180.516V41.8997H5.26953V6.29395Z" fill="white"/>
</mask>
<g mask="url(#mask2_1084_5026)">
<path fill-rule="evenodd" clip-rule="evenodd" d="M21.4346 8.26529C21.4737 11.1261 21.2394 13.6777 20.6927 15.9974H23.9728V6.79639H29.2829V37.0671H23.9728V20.7523H19.092C16.8662 25.6239 13.1569 29.0645 8.43231 31.3842L5.26953 27.0925C9.17422 25.4691 11.9074 23.072 13.6254 20.2502L6.79224 20.907L5.97232 16.1906L15.4215 15.688C15.6167 14.7602 15.734 13.871 15.812 12.9045H7.10473V8.26531L21.4346 8.26529ZM31.0793 6.33203H36.5458V38.5745H31.0793V6.33203Z" fill="#7E4F40"/>
<path fill-rule="evenodd" clip-rule="evenodd" d="M51.8533 8.18784C56.8902 8.18784 60.7557 11.2806 61.6539 16.1134H66.4957V6.33203H72.0402V38.536H66.4957V20.6751H61.6539C60.7557 25.5077 56.8902 28.4845 51.8533 28.4845C45.9963 28.4845 41.7793 24.5412 41.7793 18.3941C41.7793 12.2471 45.9963 8.18784 51.8533 8.18784ZM51.8533 23.5751C54.3914 23.5751 56.3826 21.5261 56.3826 18.3173C56.3826 15.1084 54.3914 13.1368 51.8533 13.1368C49.2371 13.1368 47.3239 15.1084 47.3239 18.3173C47.3239 21.5261 49.2371 23.5751 51.8533 23.5751Z" fill="#7E4F40"/>
<path fill-rule="evenodd" clip-rule="evenodd" d="M93.2828 28.1362C89.0264 29.0643 82.9354 29.296 77.8203 29.1027V8.0718H83.3259V23.9997C85.3954 24.1542 88.5582 24.0382 92.6189 23.3039L93.2828 28.1362ZM95.5472 37.1056V18.897H88.5583V14.2576H95.5472V6.79639H100.819V37.1056H95.5472ZM103.201 6.33203H108.628V38.5745H103.201V6.33203Z" fill="#7E4F40"/>
<path fill-rule="evenodd" clip-rule="evenodd" d="M123.701 8.18709C129.558 8.18709 133.775 12.2461 133.775 18.3932C133.775 24.5402 129.558 28.4837 123.701 28.4837C117.844 28.4837 113.666 24.5402 113.666 18.3932C113.666 12.2461 117.844 8.18709 123.701 8.18709ZM123.701 23.5751C126.239 23.5751 128.191 21.5261 128.191 18.3173C128.191 15.1084 126.239 13.1368 123.701 13.1368C121.085 13.1368 119.25 15.1084 119.25 18.3173C119.25 21.5261 121.085 23.5751 123.701 23.5751ZM137.953 6.33203H143.536V38.536H137.953V6.33203Z" fill="#7E4F40"/>
<path fill-rule="evenodd" clip-rule="evenodd" d="M167.748 27.4404C164.702 26.3194 161.344 22.9557 159.821 19.9791C158.377 22.9946 155.488 26.667 151.934 28.2909L148.693 24.1927C153.184 22.0281 156.776 17.1568 156.776 11.8991V7.53039H162.711V11.8216C162.711 16.8476 166.538 22.0281 170.598 23.2264L167.748 27.4404ZM158.377 41.8986V29.1407H163.961V37.2593H180.516V41.8986H158.377ZM174.269 31.8483V21.5648H168.099V17.1188H174.269V14.7606H168.099V10.276H174.269V6.29395H179.813V31.8483H174.269Z" fill="#7E4F40"/>
</g>
</g>
<mask id="mask3_1084_5026" style="mask-type:luminance" maskUnits="userSpaceOnUse" x="192" y="5" width="85" height="39">
<path fill-rule="evenodd" clip-rule="evenodd" d="M192.576 5.31641H276.498V43.6662H192.576V5.31641Z" fill="white"/>
</mask>
<g mask="url(#mask3_1084_5026)">
<path fill-rule="evenodd" clip-rule="evenodd" d="M212.314 5.31641C202.334 5.31641 194.244 13.5774 194.244 23.7677C194.244 33.9583 202.334 42.219 212.314 42.219H258.428C268.408 42.219 276.498 33.9583 276.498 23.7677C276.498 13.5774 268.408 5.31641 258.428 5.31641H212.314Z" fill="#7E4F40"/>
<path d="M215.572 14.8721H219.944V29.2457H227.002V32.8754H215.572V14.8721Z" fill="white"/>
<path d="M232.155 18.4534H227.246V14.8721H241.46V18.4534H236.527V32.8754H232.155V18.4534Z" fill="white"/>
<path d="M242.633 23.9704C242.633 17.9693 246.687 14.5332 251.303 14.5332C253.672 14.5332 255.577 15.6221 256.823 16.8804L254.527 19.639C253.623 18.8163 252.671 18.2355 251.376 18.2355C249.032 18.2355 247.102 20.3165 247.102 23.8253C247.102 27.4066 248.763 29.4876 251.328 29.4876C252.768 29.4876 253.941 28.7616 254.796 27.8421L257.091 30.5523C255.553 32.3188 253.526 33.2141 251.157 33.2141C246.541 33.2152 242.633 30.0695 242.633 23.9704Z" fill="white"/>
</g>
</g>
</svg>
