<svg width="308" height="212" viewBox="0 0 308 212" fill="none" xmlns="http://www.w3.org/2000/svg">
<g clip-path="url(#clip0_1084_5085)">
<path d="M308.484 211.745H298.202V162.667H308.484V211.745ZM261.367 209.996V198.707C267.038 194.997 272.762 189.22 272.762 174.221V163.78H282.832V174.221C282.832 189.22 288.503 194.997 294.227 198.707V209.996C287.443 206.604 281.189 201.569 277.797 194.202C274.352 201.569 268.151 206.604 261.367 209.996Z" fill="#333333"/>
<path d="M235.165 175.44C231.879 179.097 224.353 181.111 212.481 181.164V174.963C222.763 175.069 228.487 173.426 229.653 171.094H213.064V164.893H230.077V161.554H240.359V164.893H257.266V171.094H240.677C241.843 173.426 247.567 175.069 257.849 174.963V181.164C246.03 181.111 238.451 179.097 235.165 175.44ZM259.492 182.33V188.584H239.988V191.605H257.266V204.113H222.869V205.968H258.061V211.745H213.064V198.866H247.408V197.117H213.064V191.605H230.289V188.584H210.891V182.33H259.492Z" fill="#333333"/>
<path d="M184.305 191.393H176.037V162.667H184.305V172.525H187.803V162.667H196.283V191.393H187.803V180.687H184.305V191.393ZM174.235 189.379L149.219 190.969V173.479H163.847V170.405H149.219V163.515H172.38V179.733H157.858V183.178L174.235 182.171V189.379ZM186.531 210.314L151.445 211.745V192.93H196.283V211.745H186.531V210.314ZM161.197 200.032V204.06L186.531 203.212V200.032H161.197Z" fill="#333333"/>
<path d="M141.354 199.449H131.019L133.616 172.366H99.908V163.515H144.64L141.354 199.449ZM146.601 210.844H98V201.781H146.601V210.844Z" fill="#333333"/>
<path d="M94.905 192.506H50.173V174.221H84.358V170.935H50.173V163.515H94.375V181.323H60.243V184.821H94.905V192.506ZM96.601 210.844H48V202.311H67.133V194.308H77.415V202.311H96.601V210.844Z" fill="#333333"/>
<path d="M44.587 171.306H0.0140002V163.515H44.587V171.306ZM45.117 193.407H-0.516V185.669H7.169L6.109 172.737H15.437L16.338 185.669H28.051L29.005 172.737H38.333L37.22 185.669H45.117V193.407ZM46.601 210.844H-2V202.099H46.601V210.844Z" fill="#333333"/>
<path d="M262.031 142.22H248.839V79.252H262.031V142.22ZM245.099 136.508L202.463 140.044V103.936H227.215V92.172H202.463V81.428H239.999V114.408H215.383V127.872L245.099 125.492V136.508Z" fill="#7E4F40"/>
<path d="M192.524 128.008H179.604V79.252H192.524V96.932H200.004V108.084H192.524V128.008ZM172.26 105.704H160.36L161.856 89.86H135.268V80.34H174.436L172.26 105.704ZM177.496 117.876L133.432 120.052V110.124L143.292 109.648V95.368H154.24V109.104L177.496 107.948V117.876ZM193.884 142.22H138.124V122.5H151.18V132.292H193.884V142.22Z" fill="#7E4F40"/>
<path d="M125.531 109.376H68.8192V80.3398H125.531V109.376ZM81.5352 90.8798V98.9718H112.883V90.8798H81.5352ZM103.771 142.9H90.5792V126.036H66.0312V115.02H128.387V126.036H103.771V142.9Z" fill="#7E4F40"/>
<path d="M46.9113 90.472V79.252H59.8993V112.98H46.9113V101.012H35.6913C33.9233 108.424 26.7153 112.232 18.1473 112.232C8.21931 112.232 0.195312 107.2 0.195312 97.34V94.212C0.195312 84.3519 8.21931 79.252 18.1473 79.252C26.6473 79.252 33.8553 83.06 35.6913 90.472H46.9113ZM24.4033 98.088V93.396C24.4033 90.2 21.6833 88.296 18.2153 88.296C14.7473 88.296 12.0953 90.2 12.0953 93.396V98.088C12.0953 101.284 14.7473 103.188 18.2153 103.188C21.6833 103.188 24.4033 101.284 24.4033 98.088ZM16.0393 118.76H46.9113V114.612H59.8993V142.22H46.9113V140.316L3.11931 142.22V114.612H16.0393V118.76ZM16.0393 132.36L46.9113 131.204V127.668H16.0393V132.36Z" fill="#7E4F40"/>
<path d="M220.212 37.272C210.352 37.272 202.26 32.24 202.26 22.312V17.28C202.26 7.41995 210.352 2.25195 220.212 2.25195C230.072 2.25195 238.164 7.41995 238.164 17.28V22.312C238.164 32.24 230.072 37.272 220.212 37.272ZM259.924 39.108H247.004V2.25195H259.924V7.75995H266.86V17.144H259.924V22.516H266.86V31.9H259.924V39.108ZM220.348 28.228C223.816 28.228 226.468 26.324 226.468 23.06V16.464C226.468 13.2 223.816 11.296 220.348 11.296C216.812 11.296 214.228 13.2 214.228 16.464V23.06C214.228 26.324 216.812 28.228 220.348 28.228ZM248.092 65.56H217.628C210.284 65.56 204.436 60.256 204.436 53.184C204.436 45.976 210.284 40.876 217.628 40.876H248.092C255.572 40.876 261.42 45.976 261.42 53.184C261.42 60.256 255.572 65.56 248.092 65.56ZM221.3 56.108H244.352C246.8 56.108 248.5 55.224 248.5 53.184C248.5 51.008 246.8 50.26 244.352 50.26H221.3C219.124 50.26 217.424 51.008 217.424 53.184C217.424 55.224 219.124 56.108 221.3 56.108Z" fill="#7E4F40"/>
<path d="M176.612 38.972H152.472C142.476 38.972 135.404 31.016 135.404 21.02C135.404 11.024 142.476 3 152.472 3H176.612C186.676 3 193.748 11.024 193.748 21.02C193.748 31.016 186.676 38.972 176.612 38.972ZM156.008 28.568H173.212C177.564 28.568 180.624 25.372 180.624 21.02C180.624 16.736 177.564 13.608 173.212 13.608H156.008C151.656 13.608 148.596 16.736 148.596 21.02C148.596 25.372 151.656 28.568 156.008 28.568ZM195.788 64.064H133.432V52.98H145.672V41.42H157.708V52.98H171.716V41.42H183.752V52.98H195.788V64.064Z" fill="#7E4F40"/>
<path d="M127.094 65.22H113.902V2.25195H127.094V65.22ZM66.9141 63.724V51.96C83.5741 47.88 94.1821 36.32 94.1821 15.444H67.2541V4.42795H106.49V13.676C106.49 43.596 90.2381 59.78 66.9141 63.724Z" fill="#7E4F40"/>
<path d="M57.7229 38.768H44.8029V2.25195H57.7229V14.424H65.2029V25.168H57.7229V38.768ZM-0.621094 37.952V27.208C7.19891 26.528 13.2509 22.652 13.5909 14.152V13.812H0.0589061V3.40795H39.0229V13.812H25.4229V14.152C25.6949 22.584 31.9509 25.848 39.7029 26.528V37.272C30.9309 36.864 23.5869 34.008 19.5749 27.82C15.6989 34.484 8.28691 37.544 -0.621094 37.952ZM2.23491 52.912C2.23491 45.568 8.08291 40.264 15.4269 40.264H45.8909C53.3709 40.264 59.2189 45.568 59.2189 52.912C59.2189 60.188 53.3709 65.56 45.8909 65.56H15.4269C8.08291 65.56 2.23491 60.188 2.23491 52.912ZM18.8269 55.904H42.4909C44.8709 55.904 46.3669 54.884 46.3669 52.912C46.3669 50.94 44.8709 49.852 42.4909 49.852H18.8269C16.6509 49.852 15.1549 50.94 15.1549 52.912C15.1549 54.884 16.6509 55.904 18.8269 55.904Z" fill="#7E4F40"/>
</g>
<defs>
<clipPath id="clip0_1084_5085">
<rect width="308" height="212" fill="white"/>
</clipPath>
</defs>
</svg>
