<svg xmlns="http://www.w3.org/2000/svg" width="103" height="48" viewBox="0 0 103 48" fill="none">
<g id="OPEN!">
<g id="OPEN!_2">
<path id="Vector" d="M100.526 8.65036C99.2518 14.5004 98.8712 21.3069 99.5968 27.2129C99.3305 27.9242 99.216 28.6783 98.3692 28.7181L97.2881 28.0201C94.4689 21.1142 97.113 13.6025 96.6351 6.58676C97.3599 5.00534 96.9967 2.5765 99.1583 1.82612C102.581 2.41421 100.023 6.42775 100.526 8.65036ZM99.6615 40.3378C100.282 41.8561 99.6635 43.5822 98.5597 44.5326C97.656 44.4252 96.6052 44.3747 96.1578 43.3475C96.228 41.647 95.7573 40.1217 97.5702 39.3877C98.417 39.348 99.1447 39.9627 99.6615 40.3378Z" fill="#DD5300"/>
<path id="Vector_2" d="M88.6309 4.1173C91.0054 6.85107 88.1204 10.281 88.134 13.7744C87.6896 20.2844 88.1699 27.35 87.5644 33.6179C87.0444 34.2413 86.2208 34.7791 84.9848 35.0368L84.4866 35.0602C80.7689 30.293 75.4864 21.9554 72.4381 16.5578C71.8982 21.0257 72.3767 30.1878 73.6162 34.2727C72.9318 35.6525 72.2959 35.932 70.7563 36.1041C67.9137 28.7001 69.7617 20.1776 69.2372 12.1657C69.6818 10.9967 70.4835 11.0589 71.4183 10.7655C72.9579 10.5934 73.5446 12.4626 74.1415 13.4829C77.3564 18.1738 80.7352 25.303 84.4389 29.7713C85.0011 21.5088 83.9406 10.577 87.6658 3.76328C88.8139 3.7593 88.4223 3.92743 88.6309 4.1173Z" fill="#DD5300"/>
<path id="Vector_3" d="M62.2906 8.448L63.0672 10.1087L62.4071 10.9383C57.4293 12.3201 51.7043 13.7369 47.1102 15.8493C47.6457 16.6229 48.8505 16.766 48.6387 17.5746C47.7039 17.868 47.4516 18.8782 46.2732 18.2347C45.0544 17.7928 43.6199 17.0115 44.1767 15.0386C45.7562 12.5186 48.5747 11.9371 50.9761 10.9758C54.7178 9.85171 58.7989 8.51207 62.2906 8.448ZM51.7063 16.9813L52.8963 17.8739L52.5897 24.1278C56.5214 22.7952 60.3883 22.2143 64.2087 20.6373C64.5807 21.119 64.7511 21.5603 64.5556 22.7175C60.8978 25.6346 56.17 25.9564 52.4446 27.4291C51.8651 31.0503 51.4295 35.6131 51.2345 38.9167C52.202 39.3205 53.2481 39.2714 54.541 39.1608C58.9154 38.7558 64.0752 38.0644 68.3104 36.8173L69.0763 37.1807C68.5297 38.3045 67.8859 39.4828 66.0115 39.9701C60.903 41.7573 54.7827 42.1944 49.2532 42.4539C46.6772 39.6797 48.9298 32.3361 49.3388 28.2737C48.5013 28.5127 47.0418 29.3299 46.1926 29.3199C45.5715 28.8499 45.4081 28.558 45.409 27.5098C46.07 25.6318 48.5966 25.2137 49.7261 24.8113C49.6646 24.5646 49.9388 22.9544 49.9443 22.0058C50.266 20.3434 49.386 17.5395 51.7063 16.9813Z" fill="#DD5300"/>
<path id="Vector_4" d="M41.4298 13.4704C43.1688 18.63 38.492 23.2422 34.8504 26.5079C33.4617 27.7711 31.6013 28.5572 30.3862 29.2632C30.2807 33.4112 31.9429 36.9271 31.47 40.693C31.329 41.9476 31.0822 42.0091 29.9435 42.2123C28.4401 38.8885 27.3617 35.0457 27.3178 30.9047C26.4016 31.5966 25.0705 31.9586 24.0859 32.2544C23.4997 32.5315 22.7222 31.9191 22.5378 31.179C22.3287 28.8428 25.2748 28.8542 27.1757 27.8665L26.9841 21.636C24.7354 21.5918 21.32 21.1531 20.1886 18.3111C20.0191 16.8215 19.9111 15.5787 20.9986 14.2798C23.3137 11.4756 27.7342 9.92037 31.7171 9.6835C35.4011 9.46065 38.9962 10.5398 41.4298 13.4704ZM38.7668 15.2427C36.9543 12.782 33.3825 12.201 30.4411 12.2891C28.3963 12.3352 23.3827 14.0181 23.3637 16.8143C23.3791 18.2112 25.2875 19.5193 26.8793 19.3947C27.2662 19.1269 27.4966 18.7168 27.8406 18.6008C28.5692 18.1673 29.0697 18.1937 29.7024 18.9127C30.3171 21.3797 30.3106 23.3766 30.2846 26.0234C31.4997 25.3175 33.3415 24.1329 34.5356 22.9786C36.4443 21.0921 39.3931 17.9587 38.7668 15.2427Z" fill="#DD5300"/>
<path id="Vector_5" d="M15.7418 16.4737C16.532 21.6279 18.0747 28.993 17.5572 35.0072C17.1941 37.9194 14.7683 42.6255 11.9772 41.6584C11.7724 42.6164 10.0847 43.8936 8.38636 43.8735C5.94541 43.9881 4.46206 42.1609 3.22546 40.2722C2.27377 38.0707 1.77275 35.8979 1.66792 33.6566C1.37905 27.4805 4.04093 21.4155 8.05624 16.5349C10.0288 14.9449 14.0982 13.3562 15.7418 16.4737ZM12.8475 19.7043C12.2287 19.2841 11.5532 18.7169 11.1602 17.7869C9.28729 19.3723 7.39163 22.606 6.49084 24.6948C5.22647 27.5495 4.626 30.7224 4.75413 33.4618C4.92097 38.0962 7.13112 41.5864 10.6307 40.6234C13.6252 39.5345 14.7652 35.0883 14.5183 29.8088C14.3715 26.671 13.6963 22.909 12.8475 19.7043Z" fill="#DD5300"/>
</g>
</g>
</svg>