<svg xmlns="http://www.w3.org/2000/svg" width="24" height="24" viewBox="0 0 24 24">
    <path data-name="패스 1105" d="M424.754 759.637a8.885 8.885 0 1 1 8.886-8.884 8.895 8.895 0 0 1-8.886 8.884zm0-15.774a6.89 6.89 0 1 0 6.889 6.89 6.9 6.9 0 0 0-6.889-6.89z" transform="translate(-413.868 -739.867)" style="fill:#333"/>
    <path data-name="패스 1106" d="M428.165 754.932a.765.765 0 0 1-.543-.226l-4.206-4.124a.768.768 0 0 1 1.084-1.082l4.2 4.124a.768.768 0 0 1-.543 1.311z" transform="translate(-406.933 -732.932)" style="stroke:#333;stroke-width:.7px;fill:#333"/>
    <path data-name="사각형 14160" style="fill:none" d="M0 0h24v24H0z"/>
</svg>
