<svg width="166" height="68" viewBox="0 0 166 68" fill="none" xmlns="http://www.w3.org/2000/svg">
<g clip-path="url(#clip0_1114_5123)">
<path d="M0 40.3877H109.831V41.2527H0V40.3877Z" fill="#333333"/>
<path d="M109.831 40.3877H160V41.2527H109.831V40.3877ZM0 66.3369H88.7118V67.2019H0V66.3369Z" fill="#333333"/>
<path d="M85.9786 63.8982H83.0723V60.9746H85.9786V63.8982Z" fill="#333333"/>
<path d="M81.0999 64.4344H77.813V48.415H81.0999V54.3661H83.4008V57.3243H81.0999V64.4344ZM76.9826 63.1369L66.9316 63.8808V48.9686H76.2042V51.6327H70.2185V60.8534L76.9826 60.3171V63.1369Z" fill="#333333"/>
<path d="M65.5475 64.4344H62.1914V48.415H65.5475V64.4344ZM61.2399 63.1369L50.5488 63.8808V48.8821H53.9741V60.7669L61.2399 60.2652V63.1369Z" fill="#333333"/>
<path d="M45.7913 57.8606V48.415H49.1301V57.8606H45.7913ZM40.6187 55.1791L45.2377 54.9715V57.1859L33.5605 57.7222V55.5078L37.6432 55.3348V53.9336H34.2871V48.6918H44.1305V50.7851H37.4702V51.7711H44.3035V53.9336H40.6187V55.1791ZM38.0065 59.1061H45.8951V58.2411H49.1301V64.4344H45.8951V63.9154L34.7715 64.4344V58.2411H38.0065V59.1061ZM38.0065 62.1681L45.8951 61.8567V61.1475H38.0065V62.1681Z" fill="#333333"/>
<path d="M32.4702 57.9812H17.8694V52.1167H29.0276V51.0787H17.8694V48.6914H32.2972V54.4175H21.1563V55.5074H32.4702V57.9812ZM33.0238 64.1399H17.1602V61.32H20.2395V58.5694H23.3015V61.32H26.969V58.5694H30.0137V61.32H33.0238V64.1399Z" fill="#333333"/>
<path d="M1.24555 54.6081V52.3592C4.67085 52.3765 6.53919 51.6672 6.86788 50.7676V50.7503H1.43584V48.4668H15.8636V50.7503H10.4143V50.7676C10.7603 51.6845 12.6286 52.3765 16.0539 52.3592V54.6081C12.248 54.5908 9.7915 53.8642 8.64973 52.5149C7.50796 53.8642 5.05144 54.5908 1.24555 54.6081ZM16.5902 57.9123H0.726562V55.525H7.05818V53.968H10.224V55.525H16.5902V57.9123ZM1.17635 61.6144C1.17635 60.0575 2.42191 58.7254 4.06536 58.7254H13.2168C14.8602 58.7254 16.1231 60.0575 16.1231 61.6144C16.1231 63.206 14.8602 64.5034 13.2168 64.5034H4.06536C2.42191 64.5034 1.17635 63.206 1.17635 61.6144ZM4.87844 62.1853H12.3518C12.7324 62.1853 13.0092 61.9085 13.0092 61.5798C13.0092 61.2511 12.7324 60.9916 12.3518 60.9916H4.87844C4.49785 60.9916 4.22106 61.2511 4.22106 61.5798C4.22106 61.9085 4.49785 62.1853 4.87844 62.1853Z" fill="#333333"/>
<path d="M158.738 32.205H144.137V26.2367H155.295V25.1641H144.137V22.7422H158.565V28.5548H147.424V29.6966H158.738V32.205ZM159.291 38.1906H143.428V35.4054H149.673V32.7932H153.029V35.4054H159.291V38.1906Z" fill="#333333"/>
<path d="M142.009 38.4851H138.722V22.4658H142.009V28.4168H143.929V31.3751H142.009V38.4851ZM127.148 37.9143V34.5236C128.792 33.797 130.747 31.9113 130.799 27.0156V25.9084H127.391V23.0367H137.303V25.9084H133.913V27.0156C133.947 31.9113 135.902 33.797 137.545 34.5236V37.9143C135.469 37.2569 133.463 35.7518 132.338 33.1915C131.231 35.7518 129.224 37.2569 127.148 37.9143Z" fill="#333333"/>
<path d="M115.782 30.7004C113.118 30.7004 110.955 29.4894 110.955 27.0156V26.1852C110.955 23.6768 113.118 22.4658 115.782 22.4658C118.428 22.4658 120.591 23.6768 120.591 26.1852V27.0156C120.591 29.4894 118.428 30.7004 115.782 30.7004ZM126.127 31.0118H122.771V22.4658H126.127V31.0118ZM115.782 28.486C116.664 28.486 117.373 28.0017 117.373 27.2405V25.9603C117.373 25.1991 116.664 24.6802 115.782 24.6802C114.865 24.6802 114.19 25.1991 114.19 25.9603V27.2405C114.19 28.0017 114.865 28.486 115.782 28.486ZM126.404 38.4851H111.699V34.0219H122.823V33.3126H111.699V31.4443H126.127V35.7864H115.003V36.5476H126.404V38.4851Z" fill="#333333"/>
<path d="M104.194 25.2335V35.6478C104.194 38.7098 102.205 39.0385 99.748 39.0385V36.7895C100.786 36.7895 101.34 36.4781 101.34 35.4748V25.4065C101.34 24.3858 100.786 24.0917 99.748 24.0917V21.8428C102.205 21.8428 104.194 22.1715 104.194 25.2335Z" fill="#333333"/>
<path d="M95.2676 24.9392H84.1613V22.5H98.7275L98.0874 27.9493H94.8524L95.2676 24.9392ZM99.3675 31.0632H83.5039V28.5029H99.3675V31.0632ZM95.4579 38.0176L84.2132 38.4847V32.1704H98.641V38.4847H95.4579V38.0176ZM87.3963 34.4193V36.0282L95.4579 35.7514V34.4193H87.3963Z" fill="#333333"/>
<path d="M78.6582 35.6478V25.2335C78.6582 22.1715 80.6303 21.8428 83.1042 21.8428V24.0917C82.0662 24.0917 81.5126 24.3858 81.5126 25.4065V35.4748C81.5126 36.4781 82.0662 36.7895 83.1042 36.7895V39.0385C80.6303 39.0385 78.6582 38.7098 78.6582 35.6478Z" fill="#333333"/>
<path d="M72.004 31.1154L70.9833 31.0462V28.6589L72.0732 28.5897C72.7825 28.5378 73.5437 28.0707 73.5437 27.3441V25.8391C73.5437 25.1125 72.9728 24.5589 72.177 24.5589C71.3812 24.5589 70.8103 25.1125 70.8103 25.8391V27.0155H67.8175V25.9602C67.8175 23.5729 69.7551 22.2754 72.177 22.2754C74.5989 22.2754 76.5365 23.5729 76.5365 25.9602V27.1884C76.5365 28.5551 75.8272 29.4028 74.893 29.8353C75.931 30.2678 76.6922 31.0808 76.6922 32.5686V34.9732C76.6922 37.3605 74.6162 38.658 72.177 38.658C69.7378 38.658 67.6445 37.3605 67.6445 34.9732V33.1222H70.7584V34.9732C70.7584 35.6998 71.3639 36.2534 72.177 36.2534C72.9901 36.2534 73.5783 35.6998 73.5783 34.9732V32.4129C73.5783 31.6344 72.8344 31.15 72.004 31.1154Z" fill="#333333"/>
<path d="M66.8776 22.6211V38.3117H63.7637V26.5135H61.9473V24.2645C62.9852 24.2645 63.9886 23.5207 63.9886 22.6211H66.8776Z" fill="#333333"/>
<path d="M59.7696 37.949H56.8633V35.0254H59.7696V37.949Z" fill="#333333"/>
<path d="M53.2521 26.7041V25.9602C53.2521 25.2336 52.8196 24.68 52.0411 24.68C51.228 24.68 50.8128 25.2336 50.8128 25.9602V27.1884H47.8373V25.9602C47.8373 23.5729 49.6019 22.2754 52.0411 22.2754C54.4457 22.2754 56.366 23.5729 56.366 25.9602V26.7041C56.366 28.78 55.4664 29.818 53.5116 31.842C51.5567 33.866 50.9166 34.3504 50.9166 35.2846V35.8382H56.4006V38.2428H47.6816V35.2846C47.6816 33.9698 47.9584 32.9838 50.8993 30.3889C52.8542 28.6762 53.2521 27.8631 53.2521 26.7041Z" fill="#333333"/>
<path d="M47.0554 22.6211V38.3117H43.9414V26.5135H42.125V24.2645C43.163 24.2645 44.1663 23.5207 44.1663 22.6211H47.0554Z" fill="#333333"/>
<path d="M39.9454 37.949H37.0391V35.0254H39.9454V37.949Z" fill="#333333"/>
<path d="M27.1602 33.4852L31.2947 22.6211H35.6715V33.4852H36.9517V36.0109H35.6715V38.3117H32.8344V36.0109H27.1602V33.4852ZM30.0146 33.4852H32.8171V25.9253L30.0146 33.4852Z" fill="#333333"/>
<path d="M24.2247 26.7041V25.9602C24.2247 25.2336 23.7922 24.68 23.0138 24.68C22.2007 24.68 21.7855 25.2336 21.7855 25.9602V27.1884H18.81V25.9602C18.81 23.5729 20.5745 22.2754 23.0138 22.2754C25.4184 22.2754 27.3386 23.5729 27.3386 25.9602V26.7041C27.3386 28.78 26.4391 29.818 24.4842 31.842C22.5294 33.866 21.8893 34.3504 21.8893 35.2846V35.8382H27.3732V38.2428H18.6543V35.2846C18.6543 33.9698 18.9311 32.9838 21.872 30.3889C23.8268 28.6762 24.2247 27.8631 24.2247 26.7041Z" fill="#333333"/>
<path d="M9.56055 34.9732V25.9602C9.56055 23.5729 11.4981 22.2754 13.9027 22.2754C16.3073 22.2754 18.2449 23.5729 18.2449 25.9602V34.9732C18.2449 37.3605 16.3073 38.658 13.9027 38.658C11.4981 38.658 9.56055 37.3605 9.56055 34.9732ZM12.5361 25.9602V34.9732C12.5361 35.6998 13.1242 36.2534 13.9027 36.2534C14.6812 36.2534 15.2694 35.6998 15.2694 34.9732V25.9602C15.2694 25.2336 14.6812 24.68 13.9027 24.68C13.1242 24.68 12.5361 25.2336 12.5361 25.9602Z" fill="#333333"/>
<path d="M6.03723 26.7041V25.9602C6.03723 25.2336 5.60475 24.68 4.82627 24.68C4.01319 24.68 3.598 25.2336 3.598 25.9602V27.1884H0.622492V25.9602C0.622492 23.5729 2.38704 22.2754 4.82627 22.2754C7.2309 22.2754 9.15114 23.5729 9.15114 25.9602V26.7041C9.15114 28.78 8.25157 29.818 6.29673 31.842C4.34188 33.866 3.7018 34.3504 3.7018 35.2846V35.8382H9.18574V38.2428H0.466797V35.2846C0.466797 33.9698 0.743589 32.9838 3.6845 30.3889C5.63934 28.6762 6.03723 27.8631 6.03723 26.7041Z" fill="#333333"/>
<path d="M164.072 13.1863H162.77V1.3125H164.072V6.18181H165.999V7.27545H164.072V13.1863ZM153.773 12.7697V11.611C157.302 10.7386 159.177 8.00454 159.164 2.95296H153.839V1.85932H160.465V2.79673C160.465 8.74665 158.005 11.9364 153.773 12.7697Z" fill="#333333"/>
<path d="M141.635 8.04394V6.9503C144.2 6.78105 146.465 4.86718 146.465 3.03142V1.49512H147.767V3.03142C147.767 4.86718 150.045 6.78105 152.597 6.9503V8.04394C150.019 7.93979 147.806 6.46858 147.116 4.78906C146.426 6.46858 144.213 7.93979 141.635 8.04394ZM153.027 12.8351H141.205V11.7415H153.027V12.8351Z" fill="#333333"/>
<path d="M140.274 13.1863H138.972V1.3125H140.274V13.1863ZM134.91 12.0146L129.48 12.6395V1.82026H130.782V5.27044H134.91V1.82026H136.212V12.6395H134.91V12.0146ZM130.782 6.36408V11.3896L134.91 10.9079V6.36408H130.782Z" fill="#333333"/>
<path d="M126.753 6.80674H123.693V5.7131H126.753V1.3125H128.055V13.1863H126.753V6.80674ZM116.871 12.6004V11.1943C118.251 10.3611 120.243 8.35607 120.243 5.27044V1.65101H121.545V5.27044C121.545 8.35607 123.524 10.3611 124.904 11.1943V12.6004C123.29 11.7802 121.428 9.93143 120.894 7.90038C120.347 9.93143 118.486 11.7802 116.871 12.6004Z" fill="#333333"/>
<path d="M112.813 10.8168H111.511V9.54085H107.475V8.44721H111.511V1.3125H112.813V10.8168ZM107.645 5.38761H104.207C103.049 5.38761 102.15 4.52833 102.15 3.42166C102.15 2.315 103.049 1.46873 104.207 1.46873H107.645C108.803 1.46873 109.702 2.315 109.702 3.42166C109.702 4.52833 108.803 5.38761 107.645 5.38761ZM104.403 4.29397H107.462C107.97 4.29397 108.4 3.91641 108.4 3.43468C108.4 2.93994 107.97 2.56238 107.462 2.56238H104.403C103.882 2.56238 103.452 2.93994 103.452 3.43468C103.452 3.91641 103.882 4.29397 104.403 4.29397ZM105.965 10.0616H104.637L105.119 7.35356H101.369V6.25992H110.86V7.35356H106.447L105.965 10.0616ZM113.009 13.1863H102.645V9.52783H103.947V12.0927H113.009V13.1863Z" fill="#333333"/>
<path d="M98.0037 3.47371H89.8274V2.38007H93.2646V1H94.5665V2.38007H98.0037V3.47371ZM100.529 13.1863H99.2275V1.31247H100.529V13.1863ZM90.0748 6.5333C90.0748 5.29645 90.9471 4.30696 91.9496 4.30696H95.9076C96.9101 4.30696 97.7824 5.29645 97.7824 6.5333C97.7824 7.77016 96.9101 8.75964 95.9076 8.75964H91.9496C90.9471 8.75964 90.0748 7.77016 90.0748 6.5333ZM92.4444 7.666H95.4128C96.0638 7.666 96.4804 7.10616 96.4804 6.5333C96.4804 5.96044 96.0638 5.4006 95.4128 5.4006H92.4444C91.7934 5.4006 91.3768 5.96044 91.3768 6.5333C91.3768 7.10616 91.7934 7.666 92.4444 7.666ZM98.5766 12.2749L89.3848 12.8868V11.7932L93.2646 11.5328V9.34552H94.5665V11.4417L98.5766 11.1813V12.2749Z" fill="#333333"/>
<path d="M87.0882 3.77352V1.31282H88.3902V7.53616H87.0882V4.86716H84.0677C83.9766 6.54668 82.5184 7.39295 80.7477 7.39295C78.925 7.39295 77.4277 6.4946 77.4277 4.71092V3.98183C77.4277 2.21117 78.925 1.2998 80.7477 1.2998C82.4923 1.2998 83.9505 2.14607 84.0547 3.77352H87.0882ZM82.7657 4.65884V4.04693C82.7657 2.95329 81.8934 2.39345 80.7607 2.39345C79.602 2.39345 78.7297 2.95329 78.7297 4.04693V4.65884C78.7297 5.75248 79.602 6.29931 80.7607 6.29931C81.8934 6.29931 82.7657 5.75248 82.7657 4.65884ZM79.3546 9.41097H87.0882V8.06996H88.3902V13.1866H87.0882V12.8091L78.0527 13.1866V8.06996H79.3546V9.41097ZM79.3546 12.0409L87.0882 11.7154V10.5046H79.3546V12.0409Z" fill="#333333"/>
<path d="M76.0796 13.1863H74.7777V1.3125H76.0796V13.1863ZM65.0781 12.7697V11.611C68.7366 10.7517 70.8718 8.00454 70.8588 2.95296H65.1432V1.85932H72.1608V2.79673C72.1608 8.74665 69.4136 11.9234 65.0781 12.7697Z" fill="#333333"/>
<path d="M59.4704 6.06463H56.3847V4.97099H59.4704V3.77319H56.3847V2.67955H59.4704V1.3125H60.7723V10.3611H59.4704V6.06463ZM49.6797 8.66854V7.47074C51.19 6.94996 52.7002 5.58291 52.7002 3.76017V1.45572H54.0022V3.76017C54.0022 5.58291 55.5124 6.94996 57.0227 7.47074V8.66854C55.4343 8.19983 53.7939 7.02808 53.3512 5.60895C52.9085 7.02808 51.242 8.19983 49.6797 8.66854ZM61.0067 13.1863H50.6692V9.54085H51.9711V12.0927H61.0067V13.1863Z" fill="#333333"/>
<path d="M48.6193 13.1863H47.3174V1.3125H48.6193V13.1863ZM41.1201 12.8348C39.1411 12.8348 37.6699 11.5979 37.6699 9.7752V4.48927C37.6699 2.66653 39.1411 1.42968 41.1201 1.42968C43.0991 1.42968 44.5703 2.66653 44.5703 4.48927V9.7752C44.5703 11.5979 43.0991 12.8348 41.1201 12.8348ZM41.1201 11.7411C42.383 11.7411 43.2683 10.999 43.2683 9.84029V4.42417C43.2683 3.29147 42.383 2.52332 41.1201 2.52332C39.8572 2.52332 38.9719 3.29147 38.9719 4.42417V9.84029C38.9719 10.999 39.8572 11.7411 41.1201 11.7411Z" fill="#333333"/>
<path d="M33.6665 13.1863H32.3646V6.83278H29.5393V5.73914H32.3646V1.3125H33.6665V13.1863ZM36.5438 13.1863H35.2419V1.3125H36.5438V13.1863ZM31.2188 11.9885L25.5293 12.6395V1.79422H26.8312V11.3245L31.2188 10.8298V11.9885Z" fill="#333333"/>
<path d="M22.8799 6.32502V1.3125H24.1818V13.1863H22.8799V7.41866H19.8203V9.7752C19.8203 11.5979 18.4142 12.8348 16.5264 12.8348C14.6385 12.8348 13.2324 11.5979 13.2324 9.7752V4.48927C13.2324 2.66653 14.6385 1.42968 16.5264 1.42968C18.4142 1.42968 19.8203 2.66653 19.8203 4.48927V6.32502H22.8799ZM18.5184 9.84029V4.42417C18.5184 3.29147 17.6981 2.52332 16.5264 2.52332C15.3546 2.52332 14.5344 3.29147 14.5344 4.42417V9.84029C14.5344 10.999 15.3546 11.7411 16.5264 11.7411C17.6981 11.7411 18.5184 10.999 18.5184 9.84029Z" fill="#333333"/>
<path d="M6.11862 6.4422H8.16269V1.3125H9.46464V13.1863H8.16269V7.53584H5.85823C4.99894 10.5564 3.2413 12.1317 0.884766 12.7697V11.611C2.92883 10.947 4.11361 9.41065 4.68647 7.18431H1.14516V6.09067H4.9078C5.06404 5.14024 5.12913 4.08566 5.12913 2.95296H0.949863V1.85932H6.43109V2.69257C6.43109 4.1117 6.32693 5.36158 6.11862 6.4422ZM10.8057 13.1863V1.3125H12.1076V13.1863H10.8057Z" fill="#333333"/>
</g>
<defs>
<clipPath id="clip0_1114_5123">
<rect width="166" height="68" fill="white"/>
</clipPath>
</defs>
</svg>
