<svg width="535" height="98" viewBox="0 0 535 98" fill="none" xmlns="http://www.w3.org/2000/svg">
<path d="M0 91.1191H231.225V92.9054H0V91.1191Z" fill="#333333"/>
<path d="M231.225 91.1191H528V92.9054H231.225V91.1191Z" fill="#333333"/>
<path d="M522.355 86.0824H516.354V80.0449H522.355V86.0824Z" fill="#333333"/>
<path d="M511.966 87.1897H505.178V54.1084H511.966V66.3978H516.717V72.5068H511.966V87.1897ZM503.463 84.5104L482.707 86.0465V55.2516H501.856V60.7532H489.495V79.7947L503.463 78.6872V84.5104Z" fill="#333333"/>
<path d="M479.534 87.1897H472.603V54.1084H479.534V87.1897ZM470.639 84.5104L448.561 86.0465V55.073H455.634V79.616L470.639 78.58V84.5104Z" fill="#333333"/>
<path d="M438.422 73.6142V54.1084H445.317V73.6142H438.422ZM427.74 68.0769L437.278 67.6482V72.221L413.164 73.3284V68.7556L421.595 68.3984V65.5047H414.665V54.68H434.992V59.0027H421.238V61.039H435.349V65.5047H427.74V68.0769ZM422.345 76.1864H438.636V74.4002H445.317V87.1897H438.636V86.118L415.665 87.1897V74.4002H422.345V76.1864ZM422.345 82.5098L438.636 81.8667V80.402H422.345V82.5098Z" fill="#333333"/>
<path d="M410.597 73.864H380.445V61.7532H403.488V59.6097H380.445V54.6797H410.24V66.5047H387.233V68.7553H410.597V73.864ZM411.74 86.5821H378.98V80.7589H385.34V75.0787H391.663V80.7589H399.237V75.0787H405.524V80.7589H411.74V86.5821Z" fill="#333333"/>
<path d="M345.798 66.8982V62.2539C352.872 62.2897 356.73 60.8249 357.409 58.9672V58.9315H346.191V54.2158H375.986V58.9315H364.733V58.9672C365.447 60.8607 369.305 62.2897 376.379 62.2539V66.8982C368.519 66.8625 363.446 65.362 361.089 62.5755C358.731 65.362 353.658 66.8625 345.798 66.8982ZM377.486 73.7217H344.727V68.7916H357.802V65.5764H364.34V68.7916H377.486V73.7217ZM345.655 81.3668C345.655 78.1516 348.228 75.4007 351.621 75.4007H370.52C373.914 75.4007 376.522 78.1516 376.522 81.3668C376.522 84.6535 373.914 87.3329 370.52 87.3329H351.621C348.228 87.3329 345.655 84.6535 345.655 81.3668ZM353.301 82.5457H368.734C369.52 82.5457 370.091 81.9741 370.091 81.2954C370.091 80.6166 369.52 80.0807 368.734 80.0807H353.301C352.515 80.0807 351.943 80.6166 351.943 81.2954C351.943 81.9741 352.515 82.5457 353.301 82.5457Z" fill="#333333"/>
<path d="M332.849 74.2213H302.697V61.8961H325.74V59.6812H302.697V54.6797H332.492V66.6833H309.485V69.0411H332.849V74.2213ZM333.992 86.5821H301.232V80.8304H314.129V75.4359H321.06V80.8304H333.992V86.5821Z" fill="#333333"/>
<path d="M297.989 87.1897H291.201V54.1084H297.989V66.3978H301.954V72.5068H297.989V87.1897ZM267.301 86.0108V79.0087C270.695 77.5083 274.732 73.6142 274.839 63.5041V61.2177H267.801V55.2873H288.271V61.2177H281.269V63.5041C281.341 73.6142 285.378 77.5083 288.772 79.0087V86.0108C284.485 84.6533 280.34 81.5452 278.018 76.2579C275.732 81.5452 271.588 84.6533 267.301 86.0108Z" fill="#333333"/>
<path d="M243.514 71.1135C238.012 71.1135 233.547 68.6127 233.547 63.5041V61.7893C233.547 56.6091 238.012 54.1084 243.514 54.1084C248.98 54.1084 253.446 56.6091 253.446 61.7893V63.5041C253.446 68.6127 248.98 71.1135 243.514 71.1135ZM264.878 71.7565H257.947V54.1084H264.878V71.7565ZM243.514 66.5407C245.336 66.5407 246.801 65.5404 246.801 63.9685V61.3248C246.801 59.7529 245.336 58.6812 243.514 58.6812C241.621 58.6812 240.227 59.7529 240.227 61.3248V63.9685C240.227 65.5404 241.621 66.5407 243.514 66.5407ZM265.449 87.1897H235.083V77.9727H258.054V76.508H235.083V72.6497H264.878V81.6166H241.907V83.1885H265.449V87.1897Z" fill="#333333"/>
<path d="M218.953 59.8244V81.3308C218.953 87.6541 214.844 88.3329 209.771 88.3329V83.6887C211.915 83.6887 213.058 83.0456 213.058 80.9736V60.1816C213.058 58.0738 211.915 57.4665 209.771 57.4665V52.8223C214.844 52.8223 218.953 53.501 218.953 59.8244Z" fill="#333333"/>
<path d="M200.203 59.2169H177.268V54.1797H207.348L206.026 65.4331H199.346L200.203 59.2169ZM208.67 71.8636H175.91V66.5763H208.67V71.8636ZM200.596 86.225L177.375 87.1896V74.15H207.17V87.1896H200.596V86.225ZM183.948 78.7942V82.1166L200.596 81.545V78.7942H183.948Z" fill="#333333"/>
<path d="M165.59 81.3308V59.8244C165.59 53.501 169.662 52.8223 174.771 52.8223V57.4665C172.628 57.4665 171.484 58.0738 171.484 60.1816V80.9736C171.484 83.0456 172.628 83.6887 174.771 83.6887V88.3329C169.662 88.3329 165.59 87.6541 165.59 81.3308Z" fill="#333333"/>
<path d="M151.532 71.9703L149.424 71.8274V66.8974L151.675 66.7545C153.14 66.6473 154.712 65.6827 154.712 64.1823V61.0742C154.712 59.5737 153.533 58.4305 151.889 58.4305C150.246 58.4305 149.067 59.5737 149.067 61.0742V63.5035H142.887V61.3243C142.887 56.3942 146.888 53.7148 151.889 53.7148C156.891 53.7148 160.892 56.3942 160.892 61.3243V63.8607C160.892 66.683 159.427 68.4335 157.498 69.3267C159.642 70.2198 161.213 71.8989 161.213 74.9712V79.937C161.213 84.867 156.926 87.5464 151.889 87.5464C146.852 87.5464 142.529 84.867 142.529 79.937V76.1144H148.96V79.937C148.96 81.4374 150.21 82.5806 151.889 82.5806C153.568 82.5806 154.783 81.4374 154.783 79.937V74.6497C154.783 73.0421 153.247 72.0418 151.532 71.9703Z" fill="#333333"/>
<path d="M140.631 54.4297V86.8322H134.2V62.4678H130.449V57.8236C132.593 57.8236 134.665 56.2874 134.665 54.4297H140.631Z" fill="#333333"/>
<path d="M125.635 86.0824H119.633V80.0449H125.635V86.0824Z" fill="#333333"/>
<path d="M111.863 62.8604V61.3243C111.863 59.8238 110.97 58.6806 109.362 58.6806C107.683 58.6806 106.826 59.8238 106.826 61.3243V63.8607H100.681V61.3243C100.681 56.3942 104.325 53.7148 109.362 53.7148C114.328 53.7148 118.293 56.3942 118.293 61.3243V62.8604C118.293 67.1474 116.436 69.2909 112.399 73.4708C108.362 77.6506 107.04 78.6509 107.04 80.58V81.7232H118.365V86.689H100.359V80.58C100.359 77.8649 100.931 75.8286 107.004 70.4699C111.041 66.9331 111.863 65.254 111.863 62.8604Z" fill="#333333"/>
<path d="M98.748 54.4297V86.8322H92.3175V62.4678H88.5664V57.8236C90.7099 57.8236 92.782 56.2874 92.782 54.4297H98.748Z" fill="#333333"/>
<path d="M83.7518 86.0824H77.75V80.0449H83.7518V86.0824Z" fill="#333333"/>
<path d="M57.0352 76.865L65.5734 54.4297H74.6118V76.865H77.2555V82.0808H74.6118V86.8322H68.7529V82.0808H57.0352V76.865ZM62.9298 76.865H68.7172V61.2532L62.9298 76.865Z" fill="#333333"/>
<path d="M50.6577 62.8604V61.3243C50.6577 59.8238 49.7646 58.6806 48.157 58.6806C46.4779 58.6806 45.6205 59.8238 45.6205 61.3243V63.8607H39.4758V61.3243C39.4758 56.3942 43.1198 53.7148 48.157 53.7148C53.1228 53.7148 57.0882 56.3942 57.0882 61.3243V62.8604C57.0882 67.1474 55.2305 69.2909 51.1936 73.4708C47.1567 77.6506 45.8349 78.6509 45.8349 80.58V81.7232H57.1597V86.689H39.1543V80.58C39.1543 77.8649 39.7259 75.8286 45.7991 70.4699C49.8361 66.9331 50.6577 65.254 50.6577 62.8604Z" fill="#333333"/>
<path d="M20.0586 79.937V61.3243C20.0586 56.3942 24.0598 53.7148 29.0256 53.7148C33.9913 53.7148 37.9925 56.3942 37.9925 61.3243V79.937C37.9925 84.867 33.9913 87.5464 29.0256 87.5464C24.0598 87.5464 20.0586 84.867 20.0586 79.937ZM26.2033 61.3243V79.937C26.2033 81.4374 27.4179 82.5806 29.0256 82.5806C30.6332 82.5806 31.8478 81.4374 31.8478 79.937V61.3243C31.8478 59.8238 30.6332 58.6806 29.0256 58.6806C27.4179 58.6806 26.2033 59.8238 26.2033 61.3243Z" fill="#333333"/>
<path d="M12.4683 62.8604V61.3243C12.4683 59.8238 11.5752 58.6806 9.96754 58.6806C8.28846 58.6806 7.43107 59.8238 7.43107 61.3243V63.8607H1.28637V61.3243C1.28637 56.3942 4.93032 53.7148 9.96754 53.7148C14.9333 53.7148 18.8988 56.3942 18.8988 61.3243V62.8604C18.8988 67.1474 17.0411 69.2909 13.0042 73.4708C8.96724 77.6506 7.64542 78.6509 7.64542 80.58V81.7232H18.9702V86.689H0.964844V80.58C0.964844 77.8649 1.53644 75.8286 7.60969 70.4699C11.6466 66.9331 12.4683 65.254 12.4683 62.8604Z" fill="#333333"/>
<path d="M460.393 34.4386H456.821V1.85742H460.393V15.2186H465.681V18.2195H460.393V34.4386ZM432.135 33.2954V30.1159C441.816 27.7223 446.961 20.2201 446.925 6.35877H432.313V3.35787H450.497V5.93007C450.497 22.2564 443.745 31.009 432.135 33.2954Z" fill="#333333"/>
<path d="M398.095 20.3271V17.3262C405.133 16.8618 411.349 11.6102 411.349 6.57297V2.35742H414.921V6.57297C414.921 11.6102 421.173 16.8618 428.175 17.3262V20.3271C421.102 20.0413 415.029 16.0044 413.135 11.3958C411.242 16.0044 405.168 20.0413 398.095 20.3271ZM429.354 33.4739H396.916V30.473H429.354V33.4739Z" fill="#333333"/>
<path d="M393.636 34.4386H390.063V1.85742H393.636V34.4386ZM378.917 31.2234L364.02 32.9382V3.2507H367.592V12.7178H378.917V3.2507H382.489V32.9382H378.917V31.2234ZM367.592 15.7187V29.5086L378.917 28.1867V15.7187H367.592Z" fill="#333333"/>
<path d="M355.809 16.9334H347.413V13.9325H355.809V1.85742H359.381V34.4386H355.809V16.9334ZM328.693 32.831V28.9727C332.48 26.6863 337.946 21.1846 337.946 12.7178V2.78627H341.519V12.7178C341.519 21.1846 346.949 26.6863 350.736 28.9727V32.831C346.306 30.5803 341.197 25.5074 339.732 19.9343C338.232 25.5074 333.123 30.5803 328.693 32.831Z" fill="#333333"/>
<path d="M316.101 27.9367H312.529V24.4356H301.454V21.4347H312.529V1.85742H316.101V27.9367ZM301.919 13.0393H292.487C289.308 13.0393 286.843 10.6815 286.843 7.64487C286.843 4.60824 289.308 2.28612 292.487 2.28612H301.919C305.098 2.28612 307.563 4.60824 307.563 7.64487C307.563 10.6815 305.098 13.0393 301.919 13.0393ZM293.023 10.0384H301.419C302.812 10.0384 303.991 9.00242 303.991 7.68059C303.991 6.32304 302.812 5.28702 301.419 5.28702H293.023C291.594 5.28702 290.415 6.32304 290.415 7.68059C290.415 9.00242 291.594 10.0384 293.023 10.0384ZM297.31 25.8646H293.666L294.988 18.4338H284.699V15.4329H310.743V18.4338H298.632L297.31 25.8646ZM316.637 34.4386H288.2V24.3999H291.773V31.4377H316.637V34.4386Z" fill="#333333"/>
<path d="M274.74 7.78775H252.304V4.78685H261.736V1H265.308V4.78685H274.74V7.78775ZM281.67 34.4386H278.098V1.8574H281.67V34.4386ZM252.983 16.1831C252.983 12.7892 255.377 10.0741 258.128 10.0741H268.988C271.739 10.0741 274.132 12.7892 274.132 16.1831C274.132 19.577 271.739 22.2921 268.988 22.2921H258.128C255.377 22.2921 252.983 19.577 252.983 16.1831ZM259.485 19.2912H267.631C269.417 19.2912 270.56 17.755 270.56 16.1831C270.56 14.6112 269.417 13.075 267.631 13.075H259.485C257.699 13.075 256.556 14.6112 256.556 16.1831C256.556 17.755 257.699 19.2912 259.485 19.2912ZM276.312 31.9378L251.09 33.6169V30.616L261.736 29.9015V23.8997H265.308V29.6514L276.312 28.9369V31.9378Z" fill="#333333"/>
<path d="M244.057 8.60904V1.85701H247.629V18.9336H244.057V11.6099H235.769C235.519 16.2185 231.517 18.5406 226.659 18.5406C221.657 18.5406 217.549 16.0756 217.549 11.1812V9.18063C217.549 4.32204 221.657 1.82129 226.659 1.82129C231.446 1.82129 235.447 4.14341 235.733 8.60904H244.057ZM232.196 11.0383V9.35926C232.196 6.35836 229.803 4.82219 226.694 4.82219C223.515 4.82219 221.121 6.35836 221.121 9.35926V11.0383C221.121 14.0392 223.515 15.5397 226.694 15.5397C229.803 15.5397 232.196 14.0392 232.196 11.0383ZM222.836 24.078H244.057V20.3983H247.629V34.4382H244.057V33.4022L219.264 34.4382V20.3983H222.836V24.078ZM222.836 31.2944L244.057 30.4013V27.0789H222.836V31.2944Z" fill="#333333"/>
<path d="M213.127 34.4386H209.555V1.85742H213.127V34.4386ZM182.939 33.2954V30.1159C192.978 27.758 198.837 20.2201 198.801 6.35877H183.118V3.35787H202.374V5.93007C202.374 22.2564 194.836 30.9733 182.939 33.2954Z" fill="#333333"/>
<path d="M166.096 14.897H157.629V11.8961H166.096V8.60944H157.629V5.60855H166.096V1.85742H169.668V26.6863H166.096V14.897ZM139.23 22.042V18.7553C143.375 17.3263 147.519 13.5752 147.519 8.57372V2.2504H151.091V8.57372C151.091 13.5752 155.235 17.3263 159.379 18.7553V22.042C155.021 20.7559 150.52 17.5407 149.305 13.6467C148.09 17.5407 143.517 20.7559 139.23 22.042ZM170.311 34.4386H141.946V24.4356H145.518V31.4377H170.311V34.4386Z" fill="#333333"/>
<path d="M135.594 34.4386H132.021V1.85742H135.594V34.4386ZM115.016 33.474C109.586 33.474 105.549 30.0802 105.549 25.0787V10.5743C105.549 5.57282 109.586 2.17895 115.016 2.17895C120.446 2.17895 124.483 5.57282 124.483 10.5743V25.0787C124.483 30.0802 120.446 33.474 115.016 33.474ZM115.016 30.4731C118.481 30.4731 120.911 28.4368 120.911 25.2573V10.3957C120.911 7.28762 118.481 5.17985 115.016 5.17985C111.551 5.17985 109.121 7.28762 109.121 10.3957V25.2573C109.121 28.4368 111.551 30.4731 115.016 30.4731Z" fill="#333333"/>
<path d="M93.8379 34.4386H90.2654V17.0048H82.5131V14.0039H90.2654V1.85742H93.8379V34.4386ZM101.733 34.4386H98.1606V1.85742H101.733V34.4386ZM87.1216 31.1519L71.5098 32.9382V3.17925H75.0823V29.3299L87.1216 27.9724V31.1519Z" fill="#333333"/>
<path d="M63.5132 15.6115V1.85742H67.0857V34.4386H63.5132V18.6124H55.1179V25.0787C55.1179 30.0802 51.2596 33.474 46.0794 33.474C40.8993 33.474 37.041 30.0802 37.041 25.0787V10.5743C37.041 5.57282 40.8993 2.17895 46.0794 2.17895C51.2596 2.17895 55.1179 5.57282 55.1179 10.5743V15.6115H63.5132ZM51.5454 25.2573V10.3957C51.5454 7.28762 49.2947 5.17985 46.0794 5.17985C42.8642 5.17985 40.6135 7.28762 40.6135 10.3957V25.2573C40.6135 28.4368 42.8642 30.4731 46.0794 30.4731C49.2947 30.4731 51.5454 28.4368 51.5454 25.2573Z" fill="#333333"/>
<path d="M16.7911 15.9331H22.4V1.85742H25.9725V34.4386H22.4V18.934H16.0766C13.7188 27.2222 8.89591 31.5449 2.42969 33.2954V30.1159C8.03851 28.2939 11.2895 24.0784 12.8614 17.9694H3.14419V14.9685H13.4687C13.8974 12.3606 14.076 9.46684 14.076 6.35877H2.60831V3.35787H17.6485V5.64427C17.6485 9.53829 17.3627 12.9679 16.7911 15.9331ZM29.6521 34.4386V1.85742H33.2246V34.4386H29.6521Z" fill="#333333"/>
</svg>
