<svg xmlns="http://www.w3.org/2000/svg" width="130" height="130" viewBox="0 0 130 130">
    <g data-name="그룹 185">
        <path data-name="사각형 529" style="fill:none" d="M0 0h130v130H0z"/>
        <g data-name="그룹 159">
            <g data-name="그룹 158">
                <g data-name="그룹 153">
                    <g data-name="그룹 152">
                        <g data-name="그룹 151">
                            <g data-name="그룹 150">
                                <path data-name="패스 1347" d="M688.751 536.19a1.75 1.75 0 0 1-1.75-1.75v-15.857a5.231 5.231 0 0 1 10.462 0v4.641a1.75 1.75 0 0 1-3.5 0v-4.641a1.731 1.731 0 0 0-3.462 0v15.857a1.75 1.75 0 0 1-1.75 1.75z" transform="translate(-612.051 -458.288)" style="fill:#c9c9c9"/>
                                <path data-name="패스 1348" d="M702.675 524.974a1.751 1.751 0 0 1-1.75-1.75v-4.641a1.731 1.731 0 1 0-3.462 0v4.641a1.75 1.75 0 0 1-3.5 0v-4.641a5.231 5.231 0 1 1 10.462 0v4.641a1.751 1.751 0 0 1-1.75 1.75z" transform="translate(-612.051 -458.288)" style="fill:#c9c9c9"/>
                                <path data-name="패스 1349" d="M709.637 524.974a1.75 1.75 0 0 1-1.75-1.75v-4.641a1.731 1.731 0 0 0-3.462 0v4.641a1.75 1.75 0 0 1-3.5 0v-4.641a5.231 5.231 0 0 1 10.462 0v4.641a1.751 1.751 0 0 1-1.75 1.75z" transform="translate(-612.051 -458.288)" style="fill:#c9c9c9"/>
                                <path data-name="패스 1350" d="M716.6 540.573a1.749 1.749 0 0 1-1.75-1.75v-20.24a1.73 1.73 0 1 0-3.461 0v4.641a1.75 1.75 0 0 1-3.5 0v-4.641a5.23 5.23 0 1 1 10.461 0v20.24a1.75 1.75 0 0 1-1.75 1.75z" transform="translate(-612.051 -458.288)" style="fill:#c9c9c9"/>
                            </g>
                            <path data-name="패스 1351" d="M710.926 561.716a1.75 1.75 0 0 1-1.75-1.75v-7.219a1.746 1.746 0 0 1 .513-1.237l5.159-5.159V531.6a1.75 1.75 0 0 1 3.5 0v15.472a1.75 1.75 0 0 1-.513 1.237l-5.159 5.16v6.494a1.75 1.75 0 0 1-1.75 1.753z" transform="translate(-612.051 -458.288)" style="fill:#c9c9c9"/>
                        </g>
                        <path data-name="패스 1352" d="M712.988 572.288h-24.237a1.75 1.75 0 0 1-1.75-1.75v-10.055a1.751 1.751 0 0 1 1.75-1.75h24.237a1.75 1.75 0 0 1 1.75 1.75v10.055a1.749 1.749 0 0 1-1.75 1.75zm-22.487-3.5h20.737v-6.555H690.5z" transform="translate(-612.051 -458.288)" style="fill:#c9c9c9"/>
                        <path data-name="패스 1353" d="M691.329 561.716a1.75 1.75 0 0 1-1.75-1.75v-7.526l-7.609-7.61a1.75 1.75 0 0 1-.513-1.237v-15.225a1.75 1.75 0 0 1 3.5 0v14.5l7.609 7.611a1.746 1.746 0 0 1 .513 1.237v8.25a1.75 1.75 0 0 1-1.75 1.75z" transform="translate(-612.051 -458.288)" style="fill:#c9c9c9"/>
                    </g>
                </g>
                <g data-name="그룹 157">
                    <g data-name="그룹 155">
                        <g data-name="그룹 154">
                            <path data-name="패스 1354" d="M665.688 506.649a6.848 6.848 0 1 1 6.85-6.849 6.857 6.857 0 0 1-6.85 6.849zm0-10.2a3.348 3.348 0 1 0 3.35 3.347 3.352 3.352 0 0 0-3.35-3.344z" transform="translate(-612.835 -458.245)" style="fill:#7e4f40"/>
                            <path data-name="패스 1355" d="M677.2 525.448a1.75 1.75 0 0 1-1.75-1.75V513.6a2.936 2.936 0 0 0-2.932-2.935h-13.656a2.937 2.937 0 0 0-2.933 2.935v10.1a1.75 1.75 0 0 1-3.5 0v-10.1a6.442 6.442 0 0 1 6.433-6.435h13.654a6.441 6.441 0 0 1 6.432 6.435v10.1a1.749 1.749 0 0 1-1.748 1.748z" transform="translate(-612.835 -458.245)" style="fill:#7e4f40"/>
                        </g>
                        <path data-name="패스 1356" d="M665.689 529.393a23.8 23.8 0 1 1 23.795-23.8 23.823 23.823 0 0 1-23.795 23.8zm0-44.093a20.3 20.3 0 1 0 20.295 20.3 20.32 20.32 0 0 0-20.295-20.3z" transform="translate(-612.835 -458.245)" style="fill:#c9c9c9"/>
                    </g>
                    <g data-name="그룹 156">
                        <path data-name="패스 1357" d="M688.27 534.46a1.746 1.746 0 0 1-1.238-.513l-9.177-9.176a1.75 1.75 0 0 1 2.475-2.474l9.177 9.176a1.75 1.75 0 0 1-1.237 2.987z" transform="translate(-612.835 -458.245)" style="fill:#c9c9c9"/>
                        <path data-name="패스 1358" d="M688.042 525.167a1.743 1.743 0 0 1-1.237-.513l-4.416-4.416a1.749 1.749 0 0 1 2.474-2.474l4.416 4.416a1.75 1.75 0 0 1-1.237 2.987z" transform="translate(-612.835 -458.245)" style="fill:#c9c9c9"/>
                    </g>
                </g>
            </g>
            <path data-name="패스 1359" d="M688.028 566.116h-51.146a1.75 1.75 0 0 1-1.75-1.749v-87.373a1.75 1.75 0 0 1 1.75-1.749h66.336a1.75 1.75 0 0 1 1.75 1.749v32.223a1.75 1.75 0 0 1-3.5 0v-30.474h-62.836v83.874h49.4a1.749 1.749 0 1 1 0 3.5z" transform="translate(-612.835 -458.245)" style="fill:#c9c9c9"/>
            <path data-name="패스 1360" d="M673.46 540.12h-26.969a1.75 1.75 0 0 1 0-3.5h26.969a1.75 1.75 0 0 1 0 3.5z" transform="translate(-612.835 -458.273)" style="fill:#c9c9c9"/>
            <path data-name="패스 1361" d="M666.021 548.489h-19.53a1.75 1.75 0 0 1 0-3.5h19.53a1.75 1.75 0 0 1 0 3.5z" transform="translate(-612.835 -458.277)" style="fill:#c9c9c9"/>
            <path data-name="패스 1362" d="M679.039 556.858h-32.548a1.75 1.75 0 0 1 0-3.5h32.548a1.75 1.75 0 0 1 0 3.5z" transform="translate(-612.835 -458.288)" style="fill:#c9c9c9"/>
        </g>
    </g>
</svg>
