<svg xmlns="http://www.w3.org/2000/svg" width="40" height="40" viewBox="0 0 40 40">
    <g data-name="그룹 179" transform="translate(-1297 -172)">
        <circle data-name="타원 5 복사 3" cx="20" cy="20" r="20" transform="translate(1297 172)" style="fill:#616161"/>
        <g data-name="그룹 174">
            <path data-name="패스 1377" d="M-22.915 137.438h-7.61a5.2 5.2 0 0 0-5.2 5.2v7.61a5.194 5.194 0 0 0 5.2 5.195h7.61a5.193 5.193 0 0 0 5.2-5.195v-7.61a5.2 5.2 0 0 0-5.2-5.2m3.537 12.939a3.451 3.451 0 0 1-3.449 3.45h-7.787a3.452 3.452 0 0 1-3.449-3.45v-7.787a3.451 3.451 0 0 1 3.449-3.45h7.787a3.45 3.45 0 0 1 3.449 3.45z" style="fill:#fff" transform="translate(1343.72 45.562)"/>
            <path data-name="패스 1378" d="M-26.721 141.725a4.755 4.755 0 0 0-4.754 4.758 4.755 4.755 0 0 0 4.754 4.757 4.758 4.758 0 0 0 4.758-4.757 4.758 4.758 0 0 0-4.758-4.758m0 7.841a3.083 3.083 0 0 1-3.083-3.083 3.084 3.084 0 0 1 3.083-3.085 3.085 3.085 0 0 1 3.084 3.085 3.083 3.083 0 0 1-3.084 3.083" style="fill:#fff" transform="translate(1343.72 45.562)"/>
            <path data-name="패스 1379" d="M-22.168 140.484a1.067 1.067 0 0 0-1.067 1.067 1.066 1.066 0 0 0 1.067 1.066 1.065 1.065 0 0 0 1.067-1.066 1.066 1.066 0 0 0-1.067-1.067" transform="translate(1344.007 45.633)" style="fill:#fff"/>
        </g>
    </g>
</svg>
