<svg xmlns="http://www.w3.org/2000/svg" width="19" height="19" viewBox="0 0 19 19">
    <g transform="translate(-20 -669.627)">
        <circle data-name="타원 1187" cx="9.5" cy="9.5" r="9.5" transform="translate(20 669.627)" style="fill:#7e4f40"/>
        <path data-name="패스 48650" d="M8.292-3.624a5.746 5.746 0 0 1-.419 2.292A3.733 3.733 0 0 1 6.7.206l1.6 1.246-1.05.948L5.268.832a4.014 4.014 0 0 1-.838.083A3.716 3.716 0 0 1 2.42.362a3.632 3.632 0 0 1-1.368-1.575 5.532 5.532 0 0 1-.489-2.359V-4.1a5.662 5.662 0 0 1 .483-2.4 3.628 3.628 0 0 1 1.361-1.6 3.7 3.7 0 0 1 2.011-.553 3.764 3.764 0 0 1 2.03.547 3.582 3.582 0 0 1 1.358 1.577 5.65 5.65 0 0 1 .486 2.388zm-1.624-.485a4.042 4.042 0 0 0-.588-2.385 1.932 1.932 0 0 0-1.662-.812 1.9 1.9 0 0 0-1.633.821 3.978 3.978 0 0 0-.6 2.317v.543a4.082 4.082 0 0 0 .591 2.359 1.906 1.906 0 0 0 1.659.85 1.908 1.908 0 0 0 1.659-.818 4.125 4.125 0 0 0 .579-2.391z" transform="translate(24.749 682.839)" style="fill:#fff"/>
    </g>
</svg>
