<svg xmlns="http://www.w3.org/2000/svg" width="93.999" height="20" viewBox="0 0 93.999 20">
    <g data-name="그룹 3373">
        <g data-name="그룹 24">
            <g data-name="그룹 23">
                <path data-name="패스 45" d="M56.466 88.759a4.5 4.5 0 0 1 2.13-3.774 4.562 4.562 0 0 0-3.6-1.963c-1.516-.16-2.987.913-3.76.913-.788 0-1.978-.9-3.257-.87a4.8 4.8 0 0 0-4.042 2.479c-1.746 3.045-.443 7.52 1.231 9.981.836 1.206 1.814 2.553 3.095 2.505 1.252-.052 1.721-.806 3.233-.806 1.5 0 1.935.806 3.242.773 1.343-.02 2.19-1.211 3-2.427a9.945 9.945 0 0 0 1.362-2.809 4.347 4.347 0 0 1-2.634-4.002z" transform="translate(-43.103 -78.032)" style="fill:#000001"/>
                <path data-name="패스 46" d="M51.43 83.185a4.611 4.611 0 0 0 1.055-3.3 4.691 4.691 0 0 0-3.037 1.571 4.39 4.39 0 0 0-1.082 3.183 3.878 3.878 0 0 0 3.064-1.454z" transform="translate(-40.517 -79.881)" style="fill:#000001"/>
            </g>
        </g>
        <g data-name="그룹 25">
            <path data-name="패스 47" d="M68.07 97.722h-2.006l-1.1-3.455h-3.82L60.1 97.722h-1.955l3.784-11.757h2.338zm-3.436-4.9-.993-3.067q-.159-.472-.595-2.216h-.035c-.117.5-.3 1.239-.558 2.216l-.976 3.067z" transform="translate(-34.146 -81.789)" style="fill:#000001"/>
            <path data-name="패스 48" d="M72.917 92.058a4.825 4.825 0 0 1-1.167 3.419 3.423 3.423 0 0 1-2.6 1.117 2.6 2.6 0 0 1-2.406-1.2h-.037v4.466h-1.884v-9.145q0-1.36-.071-2.791h1.658l.1 1.343h.035a3.35 3.35 0 0 1 5.364-.332 4.669 4.669 0 0 1 1.008 3.123zm-1.917.07a3.5 3.5 0 0 0-.557-2.041 1.928 1.928 0 0 0-1.641-.839 1.954 1.954 0 0 0-1.265.463 2.144 2.144 0 0 0-.741 1.213 2.53 2.53 0 0 0-.089.574v1.414a2.262 2.262 0 0 0 .567 1.561 1.885 1.885 0 0 0 1.475.637 1.931 1.931 0 0 0 1.656-.818A3.61 3.61 0 0 0 71 92.128z" transform="translate(-29.343 -79.856)" style="fill:#000001"/>
            <path data-name="패스 49" d="M78.522 92.058a4.818 4.818 0 0 1-1.169 3.419 3.42 3.42 0 0 1-2.6 1.117 2.6 2.6 0 0 1-2.408-1.2h-.033v4.466h-1.884v-9.145q0-1.36-.071-2.791h1.658l.1 1.343h.037a3.35 3.35 0 0 1 5.364-.332 4.687 4.687 0 0 1 1.006 3.123zm-1.919.07a3.492 3.492 0 0 0-.558-2.041 1.923 1.923 0 0 0-1.639-.839 1.959 1.959 0 0 0-1.267.463 2.163 2.163 0 0 0-.741 1.213 2.5 2.5 0 0 0-.085.574v1.414a2.26 2.26 0 0 0 .565 1.561 1.879 1.879 0 0 0 1.474.637 1.927 1.927 0 0 0 1.656-.818 3.61 3.61 0 0 0 .592-2.164z" transform="translate(-25.268 -79.856)" style="fill:#000001"/>
            <path data-name="패스 50" d="M84.417 94.5a3.135 3.135 0 0 1-1.042 2.441 4.63 4.63 0 0 1-3.2 1.03 5.587 5.587 0 0 1-3.048-.734l.437-1.569a5.158 5.158 0 0 0 2.723.752 2.58 2.58 0 0 0 1.66-.482 1.569 1.569 0 0 0 .59-1.284 1.633 1.633 0 0 0-.487-1.206 4.548 4.548 0 0 0-1.623-.91q-3.087-1.151-3.086-3.37a2.988 2.988 0 0 1 1.082-2.378 4.273 4.273 0 0 1 2.878-.926 5.723 5.723 0 0 1 2.669.557l-.471 1.536a4.63 4.63 0 0 0-2.25-.539 2.285 2.285 0 0 0-1.552.487 1.4 1.4 0 0 0-.471 1.065 1.435 1.435 0 0 0 .541 1.15 6.03 6.03 0 0 0 1.71.908 5.792 5.792 0 0 1 2.232 1.43 3 3 0 0 1 .708 2.042z" transform="translate(-20.345 -81.864)" style="fill:#000001"/>
            <path data-name="패스 51" d="M87.091 90.16h-2.076v4.116q0 1.571 1.1 1.571a3.4 3.4 0 0 0 .837-.087L87 97.19a4.3 4.3 0 0 1-1.465.209 2.262 2.262 0 0 1-1.745-.68 3.345 3.345 0 0 1-.628-2.286V90.16h-1.233v-1.413h1.237v-1.553l1.849-.557v2.11h2.076z" transform="translate(-16.841 -81.292)" style="fill:#000001"/>
            <path data-name="패스 52" d="M93.811 92.395a5.2 5.2 0 0 1-1.111 3.432 3.87 3.87 0 0 1-3.107 1.38 3.674 3.674 0 0 1-2.973-1.325 5.034 5.034 0 0 1-1.106-3.34 5.13 5.13 0 0 1 1.141-3.449 3.831 3.831 0 0 1 3.079-1.345 3.748 3.748 0 0 1 3 1.326 4.975 4.975 0 0 1 1.077 3.321zm-1.955.065a4.308 4.308 0 0 0-.5-2.151 1.847 1.847 0 0 0-1.693-1.087 1.868 1.868 0 0 0-1.726 1.087 4.388 4.388 0 0 0-.506 2.19 4.3 4.3 0 0 0 .506 2.149 1.868 1.868 0 0 0 3.4-.019 4.3 4.3 0 0 0 .519-2.169z" transform="translate(-14.253 -80.469)" style="fill:#000001"/>
            <path data-name="패스 53" d="M95.731 89.711a3.051 3.051 0 0 0-.6-.058 1.75 1.75 0 0 0-1.536.8 3.187 3.187 0 0 0-.47 1.794v4.764h-1.877l.016-6.221q0-1.571-.071-2.858h1.642l.07 1.736h.05a3.118 3.118 0 0 1 .943-1.438 2.181 2.181 0 0 1 1.36-.486 2.793 2.793 0 0 1 .473.037z" transform="translate(-10.156 -80.469)" style="fill:#000001"/>
            <path data-name="패스 54" d="M101.848 92.05a5.042 5.042 0 0 1-.07.914h-5.652a2.72 2.72 0 0 0 .821 2.052 2.683 2.683 0 0 0 1.849.633 5.876 5.876 0 0 0 2.284-.428l.3 1.4a6.674 6.674 0 0 1-2.843.558 3.962 3.962 0 0 1-3.1-1.241 4.767 4.767 0 0 1-1.126-3.329 5.441 5.441 0 0 1 1.047-3.414 3.523 3.523 0 0 1 2.965-1.455 3.1 3.1 0 0 1 2.775 1.455 5.146 5.146 0 0 1 .75 2.855zm-1.8-.525a2.889 2.889 0 0 0-.365-1.548 1.622 1.622 0 0 0-1.5-.839 1.754 1.754 0 0 0-1.5.822 3.146 3.146 0 0 0-.558 1.565z" transform="translate(-7.849 -80.477)" style="fill:#000001"/>
        </g>
    </g>
</svg>
