<svg xmlns="http://www.w3.org/2000/svg" width="130" height="130" viewBox="0 0 130 130">
    <g data-name="그룹 183">
        <path data-name="사각형 531" style="fill:none" d="M0 0h130v130H0z"/>
        <g data-name="그룹 163">
            <path data-name="패스 1363" d="M637.709 377.216a1.743 1.743 0 0 1-1.237-.513l-18.793-18.793a1.75 1.75 0 0 1 2.475-2.474l18.792 18.793a1.75 1.75 0 0 1-1.237 2.987z" transform="translate(-600.523 -305.991)" style="fill:#7e4f40"/>
            <path data-name="패스 1364" d="M696.351 376.92a1.75 1.75 0 0 1-1.237-2.987l16.108-16.109a1.75 1.75 0 1 1 2.478 2.476l-16.109 16.108a1.741 1.741 0 0 1-1.24.512z" transform="translate(-600.565 -305.982)" style="fill:#c9c9c9"/>
            <g data-name="그룹 161">
                <path data-name="패스 1365" d="M677.335 414.707a6.872 6.872 0 0 1-4.874-2.014l-6.059-6.06a1.75 1.75 0 1 1 2.475-2.475l6.059 6.06a3.392 3.392 0 1 0 4.8-4.8 1.75 1.75 0 0 1 2.476-2.475 3.366 3.366 0 0 0 2.4.993 3.391 3.391 0 0 0 2.4-5.79 1.75 1.75 0 1 1 2.476-2.474 3.472 3.472 0 0 0 4.8 0 3.388 3.388 0 0 0 0-4.8 1.75 1.75 0 0 1 2.476-2.475 3.469 3.469 0 0 0 4.8 0 3.388 3.388 0 0 0 0-4.8l-23.474-23.475a1.75 1.75 0 0 1 2.474-2.475l23.474 23.475a6.891 6.891 0 0 1-5.262 11.753c.007.13.011.26.011.39a6.894 6.894 0 0 1-7.286 6.881 6.884 6.884 0 0 1-6.876 7.281c-.132 0-.263 0-.393-.011a6.877 6.877 0 0 1-6.877 7.278z" transform="translate(-600.565 -305.711)" style="fill:#7e4f40"/>
                <g data-name="그룹 160">
                    <path data-name="패스 1366" d="M634.618 392.9a6.892 6.892 0 0 1-4.874-11.765l6.059-6.059a6.892 6.892 0 0 1 9.747 9.746l-6.06 6.059a6.84 6.84 0 0 1-4.872 2.019zm6.058-16.341a3.376 3.376 0 0 0-2.4.992l-6.058 6.059a3.392 3.392 0 0 0 0 4.8 3.471 3.471 0 0 0 4.8 0l6.06-6.06a3.391 3.391 0 0 0-2.4-5.788z" transform="translate(-600.523 -305.711)" style="fill:#c9c9c9"/>
                    <path data-name="패스 1367" d="M641.888 400.169a6.892 6.892 0 0 1-4.874-11.763l6.061-6.06a6.891 6.891 0 0 1 9.745 9.747l-6.059 6.058a6.841 6.841 0 0 1-4.873 2.018zm6.06-16.341a3.367 3.367 0 0 0-2.4.993l-6.06 6.059a3.4 3.4 0 0 0 0 4.8 3.471 3.471 0 0 0 4.8 0l6.059-6.058a3.391 3.391 0 0 0-2.4-5.79z" transform="translate(-600.523 -305.711)" style="fill:#c9c9c9"/>
                    <path data-name="패스 1368" d="M649.159 407.44a6.891 6.891 0 0 1-4.873-11.764l6.059-6.058a6.891 6.891 0 1 1 9.746 9.744l-6.059 6.06a6.845 6.845 0 0 1-4.873 2.018zm6.059-16.341a3.37 3.37 0 0 0-2.4.994l-6.059 6.058a3.4 3.4 0 0 0 0 4.8 3.475 3.475 0 0 0 4.8 0l6.06-6.06a3.391 3.391 0 0 0-2.4-5.788z" transform="translate(-600.523 -305.711)" style="fill:#c9c9c9"/>
                    <path data-name="패스 1369" d="M656.43 414.711a6.891 6.891 0 0 1-4.873-11.764l6.06-6.06a6.891 6.891 0 0 1 9.746 9.746l-6.061 6.06a6.841 6.841 0 0 1-4.872 2.018zm6.059-16.341a3.371 3.371 0 0 0-2.4.992l-6.059 6.06a3.4 3.4 0 0 0 0 4.8 3.475 3.475 0 0 0 4.8 0l6.061-6.059a3.391 3.391 0 0 0-2.4-5.789z" transform="translate(-600.523 -305.711)" style="fill:#c9c9c9"/>
                </g>
            </g>
            <g data-name="그룹 162">
                <path data-name="패스 1370" d="M664.251 340.453a1.747 1.747 0 0 1-.66-.13 22.032 22.032 0 0 0-8.925-1.754 1.736 1.736 0 0 1-1.385-.506l-7.877-7.877a1.75 1.75 0 0 1 2.475-2.475l7.359 7.359a26.424 26.424 0 0 1 9.674 2.012 1.75 1.75 0 0 1-.661 3.371z" transform="translate(-600.546 -306.198)" style="fill:#7e4f40"/>
                <path data-name="패스 1371" d="M649.165 366.936a5.854 5.854 0 0 1-3.9-1.513 8.256 8.256 0 0 1-3.265-5.975 8.576 8.576 0 0 1 2.353-5.885l9.895-9.9a28.166 28.166 0 0 1 19.51-8.612h.009l7.343-7.343a1.75 1.75 0 0 1 2.475 2.475l-7.876 7.877a1.755 1.755 0 0 1-1.377.507c-.089-.008-9.446-.592-17.609 7.571l-9.9 9.9a5.043 5.043 0 0 0-1.328 3.3 4.963 4.963 0 0 0 2.032 3.426c1.664 1.417 3.437.539 7.384-1.962 3.431-2.173 7.7-4.88 12.757-4.089 8.775 1.362 17.986-1.5 21.266-4.089a1.75 1.75 0 0 1 2.169 2.747c-4.435 3.5-14.613 6.257-23.974 4.8-3.756-.58-7.106 1.537-10.345 3.588-2.404 1.519-5.022 3.177-7.619 3.177z" transform="translate(-600.546 -306.198)" style="fill:#c9c9c9"/>
            </g>
        </g>
    </g>
</svg>
