<svg xmlns="http://www.w3.org/2000/svg" width="23.999" height="22" viewBox="0 0 23.999 22">
    <g data-name="그룹 3366">
        <g data-name="사각형 1511" style="fill:#fff;stroke:#e1e1e1;stroke-width:2px">
            <path style="stroke:none" d="M0 0h22v22H0z"/>
            <path style="fill:none" d="M1 1h20v20H1z"/>
        </g>
        <path data-name="패스 4871" d="M564.619 571.547a.911.911 0 0 1-.669-.3l-7.252-7.868a1.086 1.086 0 0 1 0-1.449.892.892 0 0 1 1.336 0l6.584 7.144 12.189-13.225a.892.892 0 0 1 1.336 0 1.084 1.084 0 0 1 0 1.448l-12.858 13.951a.908.908 0 0 1-.666.299z" transform="translate(-554.422 -555.547)" style="fill:#7e4f40"/>
    </g>
</svg>
