<svg xmlns="http://www.w3.org/2000/svg" width="40" height="40" viewBox="0 0 40 40">
    <g data-name="그룹 178" transform="translate(-1353 -172)">
        <circle data-name="타원 5 복사 3" cx="20" cy="20" r="20" transform="translate(1353 172)" style="fill:#616161"/>
        <path data-name="패스 1375" d="M-49.43 144.692a5.769 5.769 0 0 0-3.66 1.667v-6.686h-4.29v17.555h4.338v-1.374a4.132 4.132 0 0 0 3.611 1.819s6.051-.226 6.051-6.567c0 0-.224-6.414-6.051-6.414m-.949 9.263a2.728 2.728 0 0 1-2.758-2.7 2.729 2.729 0 0 1 2.758-2.709 2.732 2.732 0 0 1 2.76 2.709 2.731 2.731 0 0 1-2.76 2.7" transform="translate(1424.379 43.327)" style="fill:#fff"/>
    </g>
</svg>
