<svg xmlns="http://www.w3.org/2000/svg" width="130" height="130" viewBox="0 0 130 130">
    <g data-name="그룹 184">
        <path data-name="사각형 524" style="fill:none" d="M0 0h130v130H0z"/>
        <g data-name="그룹 143">
            <g data-name="그룹 139">
                <path data-name="패스 1338" d="M777.572 255.8H763.8a1.931 1.931 0 0 1-1.931-1.931V234.85a1.931 1.931 0 0 1 1.931-1.931h13.773a1.931 1.931 0 0 1 1.931 1.931v19.024a1.931 1.931 0 0 1-1.932 1.926zm-11.842-3.861h9.911V236.78h-9.911z" transform="translate(-705.241 -210.919)" style="fill:#c9c9c9"/>
                <path data-name="패스 1339" d="M819.986 318.747h-90.292a8.325 8.325 0 0 1-8.354-8.276V252.55a8.324 8.324 0 0 1 8.354-8.275h38.263a1.911 1.911 0 1 1 0 3.822h-38.263a4.479 4.479 0 0 0-4.5 4.452v57.922a4.479 4.479 0 0 0 4.5 4.453h90.291a4.479 4.479 0 0 0 4.5-4.453V252.55a4.479 4.479 0 0 0-4.5-4.452h-38.263a1.911 1.911 0 1 1 0-3.822h38.264a8.325 8.325 0 0 1 8.354 8.275v57.922a8.326 8.326 0 0 1-8.354 8.274z" transform="translate(-709.395 -209.747)" style="fill:#c9c9c9"/>
            </g>
            <g data-name="그룹 142">
                <g data-name="그룹 140">
                    <path data-name="패스 1340" d="M755.47 281.657a10.409 10.409 0 1 1 10.41-10.41 10.421 10.421 0 0 1-10.41 10.41zm0-16.958a6.548 6.548 0 1 0 6.549 6.548 6.556 6.556 0 0 0-6.549-6.547z" transform="translate(-706.947 -208.798)" style="fill:#7e4f40"/>
                    <path data-name="패스 1341" d="M775.607 303.571a1.93 1.93 0 0 1-1.931-1.931v-10.9a5.863 5.863 0 0 0-5.857-5.857h-22.7a5.863 5.863 0 0 0-5.857 5.857v10.9a1.931 1.931 0 1 1-3.861 0v-10.9a9.73 9.73 0 0 1 9.718-9.718h22.7a9.729 9.729 0 0 1 9.718 9.718v10.9a1.931 1.931 0 0 1-1.93 1.931z" transform="translate(-707.944 -206.715)" style="fill:#7e4f40"/>
                </g>
                <g data-name="그룹 141">
                    <path data-name="패스 1342" d="M804.871 269.78h-22.63a1.931 1.931 0 1 1 0-3.861h22.63a1.931 1.931 0 0 1 0 3.861z" transform="translate(-703.368 -208.274)" style="fill:#7e4f40"/>
                    <path data-name="패스 1343" d="M804.871 279.591h-22.63a1.931 1.931 0 1 1 0-3.861h22.63a1.931 1.931 0 0 1 0 3.861z" transform="translate(-703.368 -207.261)" style="fill:#7e4f40"/>
                    <path data-name="패스 1344" d="M804.871 289.4h-22.63a1.931 1.931 0 1 1 0-3.861h22.63a1.931 1.931 0 0 1 0 3.861z" transform="translate(-703.368 -206.249)" style="fill:#7e4f40"/>
                </g>
            </g>
        </g>
    </g>
</svg>
