<svg xmlns="http://www.w3.org/2000/svg" width="40" height="40" viewBox="0 0 40 40">
    <g data-name="그룹 177" transform="translate(-1408.998 -172)">
        <circle data-name="타원 5 복사 3" cx="20" cy="20" r="20" transform="translate(1408.998 172)" style="fill:#616161"/>
        <path data-name="패스 1380" d="M194.191 111.879a2.71 2.71 0 0 0-2.415-2.461c-.756-.119-4.395-.271-7.285-.271s-6.527.152-7.283.271a2.7 2.7 0 0 0-2.41 2.461 42.56 42.56 0 0 0-.305 4.643v.25a42.622 42.622 0 0 0 .305 4.646 2.7 2.7 0 0 0 2.41 2.458c.756.119 4.4.268 7.291.268h-.013c2.892 0 6.533-.152 7.291-.271a2.711 2.711 0 0 0 2.415-2.458 43.871 43.871 0 0 0 .3-4.646v-.25a43.808 43.808 0 0 0-.301-4.64zm-12.1 7.479v-5.422l4.8 2.648z" transform="translate(1244.506 75.853)" style="fill:#fff"/>
    </g>
</svg>
