<svg xmlns="http://www.w3.org/2000/svg" width="108" height="20" viewBox="0 0 108 20">
    <defs>
        <linearGradient id="keps9b089b" x1="-10.1" y1="10.977" x2="-10.005" y2="10.977" gradientUnits="objectBoundingBox">
            <stop offset="0" stop-color="gold"/>
            <stop offset=".043" stop-color="#fed200"/>
            <stop offset=".467" stop-color="#fca904"/>
            <stop offset=".8" stop-color="#fa8f07"/>
            <stop offset="1" stop-color="#fa8608"/>
        </linearGradient>
        <linearGradient id="5br22idcid" x1="-4.373" y1="4.524" x2="-4.326" y2="4.524" gradientUnits="objectBoundingBox">
            <stop offset="0" stop-color="#e82b36"/>
            <stop offset="1" stop-color="#b4005a"/>
        </linearGradient>
        <linearGradient id="3bx4h5mijf" x1="-4.23" y1="5.225" x2="-4.182" y2="5.225" gradientUnits="objectBoundingBox">
            <stop offset="0" stop-color="#2f8e5b"/>
            <stop offset=".39" stop-color="#4ea157"/>
            <stop offset=".768" stop-color="#67b054"/>
            <stop offset="1" stop-color="#70b653"/>
        </linearGradient>
        <clipPath id="pnhwi52p6a">
            <path data-name="패스 41" d="m51.446 59.387-3.235-3.238v-.229l3.237-3.237 3.907 2.217a1.189 1.189 0 0 1 0 2.261l-3.835 2.183-.074.043" transform="translate(-48.211 -52.683)" style="fill:transparent"/>
        </clipPath>
        <clipPath id="bq899wypjc">
            <path data-name="패스 42" d="m54.962 58.162-3.309-3.309-9.766 9.766a1.273 1.273 0 0 0 1.628.048l11.448-6.5" transform="translate(-41.887 -54.853)" style="fill:transparent"/>
        </clipPath>
        <clipPath id="vgaa859kle">
            <path data-name="패스 43" d="m54.962 55.1-11.448-6.5a1.275 1.275 0 0 0-1.628.048l9.767 9.752 3.309-3.3" transform="translate(-41.887 -48.328)" style="fill:transparent"/>
        </clipPath>
    </defs>
    <g data-name="그룹 3372">
        <path data-name="패스 39" d="M83.638 57.775a4 4 0 1 0 4.126 4 4 4 0 0 0-4.126-4m0 6.416a2.423 2.423 0 1 1 2.318-2.42 2.342 2.342 0 0 1-2.318 2.42zm-9.009-6.416a4 4 0 1 0 4.129 4 4 4 0 0 0-4.129-4zm0 6.416a2.423 2.423 0 1 1 2.322-2.42 2.343 2.343 0 0 1-2.322 2.42zM63.912 59v1.7h4.177a3.5 3.5 0 0 1-.95 2.135 4.349 4.349 0 0 1-3.227 1.24 4.511 4.511 0 1 1 3.148-7.809l1.232-1.2a6.189 6.189 0 0 0-4.381-1.711 6.213 6.213 0 1 0 0 12.414 5.928 5.928 0 0 0 4.457-1.741 5.516 5.516 0 0 0 1.512-3.967A5.458 5.458 0 0 0 69.788 59zm43.827 1.315a3.808 3.808 0 0 0-3.524-2.542 3.85 3.85 0 0 0-3.88 4 3.969 3.969 0 0 0 4.084 4 4.11 4.11 0 0 0 3.427-1.772l-1.4-.908a2.354 2.354 0 0 1-2.025 1.1 2.1 2.1 0 0 1-2-1.208l5.5-2.211zm-5.611 1.332a2.22 2.22 0 0 1 2.15-2.329 1.591 1.591 0 0 1 1.526.847zm-4.47 3.876h1.808V53.777h-1.809zm-2.964-6.857h-.061a2.885 2.885 0 0 0-2.166-.894 4 4 0 0 0 0 7.993 2.845 2.845 0 0 0 2.166-.908h.061v.574a2.072 2.072 0 0 1-2.2 2.348 2.27 2.27 0 0 1-2.072-1.423l-1.573.636a3.915 3.915 0 0 0 3.651 2.361c2.12 0 3.91-1.21 3.91-4.161v-7.177h-1.717zm-2.072 5.523a2.425 2.425 0 0 1 0-4.842 2.432 2.432 0 0 1 0 4.842zm23.578-10.41h-4.324v11.746h1.8v-4.451h2.52a3.66 3.66 0 1 0 0-7.3zm.046 5.661h-2.566v-4.026h2.566a2.015 2.015 0 1 1 0 4.026zm11.156-1.687a3.41 3.41 0 0 0-3.221 1.8l1.6.649a1.972 1.972 0 0 1 3.548.651v.12a4.066 4.066 0 0 0-1.884-.453c-1.728 0-3.484.921-3.484 2.644a2.763 2.763 0 0 0 3 2.585 2.565 2.565 0 0 0 2.3-1.149h.063v.9h1.743V61c.011-2.084-1.593-3.247-3.661-3.247zm-.217 6.437c-.594 0-1.417-.285-1.417-1 0-.907 1.029-1.254 1.912-1.254a3.287 3.287 0 0 1 1.651.392 2.167 2.167 0 0 1-2.142 1.861zm10.236-6.179-2.065 5.089h-.063l-2.147-5.092H131.2l3.223 7.117-1.838 3.959h1.884l4.961-11.074zm-16.256 7.515h1.8V53.779h-1.8z" transform="translate(-31.43 -50.353)" style="fill:#030404"/>
        <g data-name="그룹 892">
            <path data-name="패스 40" d="M42.015 48.546a1.454 1.454 0 0 0-.363 1.054v16.592a1.451 1.451 0 0 0 .363 1.054l.057.055 9.709-9.3v-.219l-9.709-9.294-.057.053" transform="translate(-41.652 -47.896)" style="fill:#40bff2"/>
            <g data-name="그룹 17">
                <g data-name="그룹 16" style="clip-path:url(#pnhwi52p6a)" transform="translate(10.035 6.649)">
                    <path data-name="사각형 34" style="fill:url(#keps9b089b)" d="M0 0h8.239v6.703H0z"/>
                </g>
            </g>
            <g data-name="그룹 19">
                <g data-name="그룹 18" style="clip-path:url(#bq899wypjc)" transform="translate(.363 9.922)">
                    <path data-name="사각형 35" transform="rotate(-45 3.604 8.704)" style="fill:url(#5br22idcid)" d="M0 0h16.455v16.455H0z"/>
                </g>
            </g>
            <g data-name="그룹 21">
                <g data-name="그룹 20" style="clip-path:url(#vgaa859kle)" transform="translate(.363)">
                    <path data-name="사각형 36" transform="rotate(-44.998 3.461 8.644)" style="fill:url(#3bx4h5mijf)" d="M0 0h16.455v16.455H0z"/>
                </g>
            </g>
        </g>
    </g>
</svg>
