<svg xmlns="http://www.w3.org/2000/svg" width="40" height="40" viewBox="0 0 40 40">
    <g data-name="그룹 175" transform="translate(-1521 -172)">
        <circle data-name="타원 5 복사 3" cx="20" cy="20" r="20" transform="translate(1521 172)" style="fill:#616161"/>
        <g data-name="그룹 173">
            <path data-name="패스 1373" d="M88.075 244.716a5.47 5.47 0 0 0-4.152-1.471h-3.888a2.091 2.091 0 0 0-1.622.63 2.472 2.472 0 0 0-.579 1.751v13.456a2.421 2.421 0 0 0 .491 1.548 1.579 1.579 0 0 0 1.314.615 1.527 1.527 0 0 0 1.3-.611 2.515 2.515 0 0 0 .475-1.552v-12.477h2.259a2.357 2.357 0 0 1 1.7.656 2.581 2.581 0 0 1 .733 1.781 2.759 2.759 0 0 1-.653 1.932 2.545 2.545 0 0 1-1.982.752h-1.159v3.345h2.109a4.876 4.876 0 0 0 4.119-1.869 6.661 6.661 0 0 0 1.243-4.18 6.219 6.219 0 0 0-.2-1.57 6.422 6.422 0 0 0-.6-1.5 5.81 5.81 0 0 0-.908-1.236z" transform="translate(1460.216 -60.245)" style="fill:#fff"/>
            <path data-name="패스 1374" d="M75.251 247.989a1.451 1.451 0 0 0-.529 1.188 1.481 1.481 0 0 0 .521 1.215 2.014 2.014 0 0 0 1.337.447h3.328v-3.3H76.58a2 2 0 0 0-1.329.45z" transform="translate(1457.278 -56.052)" style="fill:#fff"/>
        </g>
    </g>
</svg>
