<svg xmlns="http://www.w3.org/2000/svg" width="120" height="120" viewBox="0 0 120 120">
    <path data-name="사각형 4217" style="fill:none" d="M0 0h120v120H0z"/>
    <g data-name="그룹 25179">
        <path data-name="패스 31293" d="M189.3 201.7h-84.542a9.464 9.464 0 0 1-9.454-9.454v-14a2.443 2.443 0 0 1 1.288-2.154 11.176 11.176 0 0 0 0-19.7 2.442 2.442 0 0 1-1.288-2.152v-14a9.464 9.464 0 0 1 9.454-9.454H189.3a9.464 9.464 0 0 1 9.454 9.454v14a2.445 2.445 0 0 1-1.288 2.154 11.174 11.174 0 0 0 0 19.7 2.446 2.446 0 0 1 1.288 2.155v14a9.464 9.464 0 0 1-9.454 9.451zm-89.1-22.076v12.621a4.569 4.569 0 0 0 4.565 4.565H189.3a4.57 4.57 0 0 0 4.565-4.565v-12.624a16.063 16.063 0 0 1 0-26.771v-12.621a4.57 4.57 0 0 0-4.565-4.565h-84.542a4.57 4.57 0 0 0-4.565 4.565v12.621a16.064 16.064 0 0 1 0 26.771z" style="fill:#c9c9c9" transform="translate(-86.846 -119.536)"/>
        <g data-name="그룹 25178">
            <path data-name="패스 31294" d="M120.155 167.908h7.531a1.642 1.642 0 0 1 0 3.265h-10.94a1.621 1.621 0 0 1-1.673-1.633 2.42 2.42 0 0 1 .612-1.612l8.082-10.552h-7.02a1.642 1.642 0 0 1 0-3.265h10.47a1.569 1.569 0 0 1 1.632 1.653 2.718 2.718 0 0 1-.591 1.572z" transform="translate(-85.135 -120.999)" style="fill:#7e4f40"/>
            <path data-name="패스 31295" d="M133.736 161.008h7.164a1.619 1.619 0 0 1 0 3.225h-7.164v3.675h7.878a1.642 1.642 0 0 1 0 3.265h-9.469a1.928 1.928 0 0 1-2.041-2.041v-12.98a1.928 1.928 0 0 1 2.041-2.041h9.021a1.642 1.642 0 0 1 0 3.265h-7.429z" transform="translate(-83.834 -120.999)" style="fill:#7e4f40"/>
            <path data-name="패스 31296" d="M147.677 169.7a1.819 1.819 0 0 1-3.633 0v-13.548a1.928 1.928 0 0 1 2.042-2.041h5.755c4.082 0 5.755 2.633 5.755 5.49a5.173 5.173 0 0 1-2.674 4.817l2.612 4.387a1.678 1.678 0 0 1-.57 2.368 1.637 1.637 0 0 1-2.369-.613l-3.244-5.47h-3.674zm0-7.836h3.857c1.836 0 2.428-1.041 2.428-2.265s-.592-2.265-2.428-2.265h-3.857z" transform="translate(-82.627 -120.999)" style="fill:#7e4f40"/>
            <path data-name="패스 31297" d="M174.689 162.653c0 5.92-3.959 8.96-8.246 8.96-4.327 0-8.307-3.04-8.307-8.96s3.98-8.918 8.307-8.918c4.286 0 8.246 3 8.246 8.918zm-12.92 0c0 3.552 2.123 5.736 4.674 5.736 2.49 0 4.612-2.184 4.612-5.736s-2.122-5.694-4.612-5.694c-2.552.001-4.675 2.141-4.675 5.694z" transform="translate(-81.408 -121.032)" style="fill:#7e4f40"/>
        </g>
        <g data-name="그룹 25194" transform="translate(39.367 60.115)">
            <rect data-name="사각형 4221" width="24.532" height="28.838" rx="1.542" transform="translate(8.549)" style="fill:#7e4f40"/>
            <path data-name="패스 31316" d="m266.025 287.416 19.675-20.473a1.14 1.14 0 0 0-.822-1.929h-39.347a1.14 1.14 0 0 0-.822 1.929l19.673 20.473a1.139 1.139 0 0 0 1.643 0z" transform="translate(-244.388 -237.853)" style="fill:#7e4f40"/>
        </g>
    </g>
</svg>
