<svg xmlns="http://www.w3.org/2000/svg" width="120" height="120" viewBox="0 0 120 120">
    <path data-name="사각형 4217" style="fill:none" d="M0 0h120v120H0z"/>
    <g data-name="그룹 25193">
        <path data-name="패스 31306" d="M152.724 906.579h-42.972a1.983 1.983 0 0 1 0-3.966h42.972a1.983 1.983 0 0 1 0 3.966z" transform="translate(-74.147 -853.92)" style="fill:#c9c9c9"/>
        <path data-name="패스 31307" d="M125.173 923.468h-15.421a1.983 1.983 0 1 1 0-3.966h15.422a1.983 1.983 0 1 1 0 3.966z" transform="translate(-74.147 -855.925)" style="fill:#c9c9c9"/>
        <path data-name="패스 31308" d="M152.724 940.357h-42.972a1.983 1.983 0 1 1 0-3.966h42.972a1.983 1.983 0 1 1 0 3.966z" transform="translate(-74.147 -857.931)" style="fill:#c9c9c9"/>
        <g data-name="그룹 25188">
            <path data-name="패스 31309" d="M113.411 890.571H95.036a1.983 1.983 0 0 1-1.4-3.385l18.376-18.375a1.982 1.982 0 0 1 3.384 1.4v18.375a1.983 1.983 0 0 1-1.985 1.985zm-13.589-3.966h11.606V875z" transform="translate(-72.399 -849.836)" style="fill:#c9c9c9"/>
            <path data-name="패스 31310" d="M163.945 951.441H95.036a1.983 1.983 0 0 1-1.983-1.983v-60.87a1.982 1.982 0 0 1 .581-1.4l18.376-18.375a1.981 1.981 0 0 1 1.4-.582h50.534a1.983 1.983 0 0 1 1.983 1.983v79.246a1.984 1.984 0 0 1-1.982 1.981zm-66.927-3.966h64.944V872.2h-47.73l-17.213 17.209z" transform="translate(-72.399 -849.836)" style="fill:#c9c9c9"/>
        </g>
        <g data-name="그룹 25192">
            <g data-name="그룹 25189">
                <path data-name="패스 31311" d="M180.285 914.9a21.247 21.247 0 1 0-21.247 21.246 21.248 21.248 0 0 0 21.247-21.246z" transform="translate(-77.712 -852.855)" style="fill:#7e4f40"/>
                <path data-name="패스 31312" d="M158.77 937.863A23.23 23.23 0 1 1 182 914.635a23.255 23.255 0 0 1-23.23 23.228zm0-42.494a19.264 19.264 0 1 0 19.265 19.266 19.286 19.286 0 0 0-19.265-19.265z" transform="translate(-77.445 -852.588)" style="fill:#7e4f40"/>
            </g>
            <g data-name="그룹 25191">
                <path data-name="패스 31313" d="M165.27 929.792a1.983 1.983 0 0 1-1.892-1.389l-3.256-10.364-3.256 10.361a1.983 1.983 0 0 1-3.783 0l-6.069-19.318a1.983 1.983 0 1 1 3.783-1.19l4.178 13.3 3.255-10.365a1.983 1.983 0 0 1 3.783 0l3.256 10.364 4.177-13.3a1.983 1.983 0 1 1 3.783 1.188l-6.068 19.321a1.981 1.981 0 0 1-1.891 1.392z" transform="translate(-78.797 -854.382)" style="fill:#fff"/>
                <g data-name="그룹 25190">
                    <path data-name="패스 31314" d="M151.239 921.222h-5.277a1.983 1.983 0 0 1 0-3.966h5.277a1.983 1.983 0 0 1 0 3.966z" transform="translate(-78.447 -855.659)" style="fill:#fff"/>
                    <path data-name="패스 31315" d="M176.595 921.222h-5.276a1.983 1.983 0 0 1 0-3.966h5.276a1.983 1.983 0 0 1 0 3.966z" transform="translate(-81.459 -855.659)" style="fill:#fff"/>
                </g>
            </g>
        </g>
    </g>
    <g data-name="그룹 25195">
        <path data-name="패스 31317" d="M127.471 616.256a34.457 34.457 0 0 1-34.418-34.419 1.627 1.627 0 0 1 3.254 0 31.165 31.165 0 0 0 53.2 22.037 1.627 1.627 0 1 1 2.3 2.3 34.2 34.2 0 0 1-24.336 10.082z" transform="translate(-46.31 -519.997)" style="fill:#7e4f40"/>
        <path data-name="패스 31318" d="M171.353 622.908a1.627 1.627 0 0 1-1.627-1.627V611.9h-9.385a1.627 1.627 0 0 1 0-3.254h11.012a1.627 1.627 0 0 1 1.627 1.627v11.011a1.627 1.627 0 0 1-1.627 1.624z" transform="translate(-64.497 -527.872)" style="fill:#7e4f40"/>
    </g>
    <g data-name="그룹 25196">
        <path data-name="패스 31317" d="M117.868 580.211a34.457 34.457 0 0 1 34.418 34.418 1.627 1.627 0 1 1-3.254 0 31.165 31.165 0 0 0-53.2-22.037 1.626 1.626 0 1 1-2.3-2.3 34.2 34.2 0 0 1 24.336-10.081z" transform="translate(-36.573 -552.13)" style="fill:#7e4f40"/>
        <path data-name="패스 31318" d="M160.342 608.643a1.628 1.628 0 0 1 1.627 1.627v9.385h9.385a1.627 1.627 0 0 1 0 3.254h-11.012a1.627 1.627 0 0 1-1.627-1.627V610.27a1.627 1.627 0 0 1 1.627-1.627z" transform="translate(-104.742 -579.339)" style="fill:#7e4f40"/>
    </g>
</svg>
