<svg xmlns="http://www.w3.org/2000/svg" width="120" height="120" viewBox="0 0 120 120">
    <path data-name="사각형 4217" style="fill:none" d="M0 0h120v120H0z"/>
    <g data-name="그룹 25187" transform="translate(-757.589 -199.567)">
        <path data-name="사각형 4219" transform="translate(768.466 254.192)" style="fill:#c9c9c9" d="M0 0h88.865v11.466H0z"/>
        <g data-name="그룹 25184">
            <path data-name="패스 31298" d="M840.926 291.946a6.655 6.655 0 0 1 2.67-5.33 6.673 6.673 0 1 0 0 10.66 6.659 6.659 0 0 1-2.67-5.33z" transform="translate(-6.234 -5.984)" style="fill:#c9c9c9"/>
            <path data-name="패스 31299" d="M848.627 285.27a6.631 6.631 0 0 0-4.005 1.346 6.654 6.654 0 0 1 0 10.66 6.672 6.672 0 1 0 4.005-12.006z" transform="translate(-7.26 -5.984)" style="fill:#c9c9c9"/>
        </g>
        <rect data-name="사각형 4220" width="91.98" height="65.647" rx="8.065" transform="translate(767.016 238.776)" style="stroke-width:4px;stroke:#c9c9c9;stroke-linecap:round;stroke-linejoin:round;fill:none"/>
        <path data-name="선 852" transform="translate(779.641 274.955)" style="stroke-width:5px;stroke:#c9c9c9;stroke-linecap:round;stroke-linejoin:round;fill:none" d="M0 0h16.02"/>
        <path data-name="선 853" transform="translate(801.047 274.955)" style="stroke-width:5px;stroke:#c9c9c9;stroke-linecap:round;stroke-linejoin:round;fill:none" d="M0 0h8.01"/>
        <g data-name="그룹 25186">
            <path data-name="패스 31300" d="M832.23 218.826s-13.25-2.23-13.807 9.925.446 26.707.446 26.707 5.353 7.3 9.7 7.639l.781 7.861 9.143-8.109 33.119-.422a11.62 11.62 0 0 0 7.137-10.259c.5-7.917.39-25.759.39-25.759s-3.735-7.9-12.769-7.743-34.14.16-34.14.16z" transform="translate(-8.765 -6.122)" style="fill:#7e4f40"/>
            <path data-name="패스 31301" d="M840.439 240.516a1.816 1.816 0 0 0-1.731-1.258h-2.951l-.911-2.806a1.821 1.821 0 0 0-3.463 0l-.912 2.806h-2.949a1.821 1.821 0 0 0-1.071 3.293l2.387 1.734-.912 2.8a1.815 1.815 0 0 0 .662 2.036 1.847 1.847 0 0 0 2.14 0l2.385-1.733 2.386 1.733a1.821 1.821 0 0 0 2.8-2.036l-.911-2.8 2.386-1.734a1.815 1.815 0 0 0 .665-2.035z" transform="translate(-9.649 -8.085)" style="fill:#fff"/>
            <path data-name="패스 31302" d="M859.109 240.516a1.816 1.816 0 0 0-1.731-1.258h-2.95l-.912-2.806a1.821 1.821 0 0 0-3.463 0l-.911 2.806h-2.95a1.821 1.821 0 0 0-1.071 3.293l2.387 1.734-.911 2.8a1.813 1.813 0 0 0 .661 2.036 1.847 1.847 0 0 0 2.141 0l2.386-1.733 2.386 1.733a1.821 1.821 0 0 0 2.8-2.036l-.911-2.8 2.386-1.734a1.815 1.815 0 0 0 .663-2.035z" transform="translate(-11.867 -8.085)" style="fill:#fff"/>
            <path data-name="패스 31303" d="M877.78 240.516a1.817 1.817 0 0 0-1.731-1.258H873.1l-.911-2.806a1.821 1.821 0 0 0-3.464 0l-.911 2.806h-2.95a1.82 1.82 0 0 0-1.07 3.293l2.386 1.734-.911 2.8a1.816 1.816 0 0 0 .661 2.036 1.847 1.847 0 0 0 2.14 0l2.386-1.733 2.386 1.733a1.821 1.821 0 0 0 2.8-2.036l-.91-2.8 2.385-1.734a1.815 1.815 0 0 0 .663-2.035z" transform="translate(-14.085 -8.085)" style="fill:#fff"/>
            <path data-name="패스 31304" d="M828.785 272.991a1.5 1.5 0 0 1-1.505-1.505v-7.412a12.248 12.248 0 0 1-10.64-12.11v-22.633a12.227 12.227 0 0 1 12.214-12.213h39.274a12.227 12.227 0 0 1 12.213 12.213v22.633a12.226 12.226 0 0 1-12.213 12.212 1.505 1.505 0 0 1 0-3.01 9.212 9.212 0 0 0 9.2-9.2v-22.635a9.212 9.212 0 0 0-9.2-9.2h-39.274a9.212 9.212 0 0 0-9.2 9.2v22.633a9.222 9.222 0 0 0 9.143 9.2 1.506 1.506 0 0 1 1.5 1.506v5.181l6.244-6.245a1.505 1.505 0 0 1 2.129 2.129l-8.815 8.814a1.5 1.5 0 0 1-1.07.442z" transform="translate(-8.573 -5.938)" style="fill:#7e4f40"/>
            <g data-name="그룹 25185">
                <path data-name="패스 31305" d="M870.811 270.108h-29.493c-1.409 0-1.827-.674-1.827-1.505s-.388-1.505 1.021-1.505h30.3c1.409 0 2.552.674 2.552 1.505s-1.144 1.505-2.553 1.505z" transform="translate(-11.282 -11.875)" style="fill:#7e4f40"/>
            </g>
        </g>
    </g>
</svg>
