<svg xmlns="http://www.w3.org/2000/svg" xmlns:xlink="http://www.w3.org/1999/xlink" width="292" height="292" viewBox="0 0 292 292">
  <defs>
    <clipPath id="clip-path">
      <rect id="사각형_14511" data-name="사각형 14511" width="292" height="292" transform="translate(1276 2126)" fill="#ffe1e1"/>
    </clipPath>
  </defs>
  <g id="woman_04_s" transform="translate(-1276 -2126)" clip-path="url(#clip-path)">
    <g id="그룹_59656" data-name="그룹 59656" transform="translate(1335.48 2182.777)">
      <path id="패스_68189" data-name="패스 68189" d="M199.892,368.429v25.988c0,1.4-.069,2.794-.183,4.167v88.841H96.236v-119a53.154,53.154,0,0,1,.641-8.151,51.835,51.835,0,0,1,102.374,0A53.15,53.15,0,0,1,199.892,368.429Z" transform="translate(-61.661 -316.613)" fill="#445563" stroke="#333" stroke-linecap="round" stroke-linejoin="round" stroke-width="3"/>
      <path id="패스_68190" data-name="패스 68190" d="M230.937,381.52H104.15c-12.71,0-23.014,11.412-23.014,25.494v63.7H253.951v-63.7C253.951,392.932,243.647,381.52,230.937,381.52Z" transform="translate(-81.136 -232.901)" fill="#ffd24f" stroke="#333" stroke-linecap="round" stroke-linejoin="round" stroke-width="3"/>
      <path id="패스_68191" data-name="패스 68191" d="M111.729,365.483v36.462c0,.087-.011.172-.011.256a16.377,16.377,0,1,0,32.754,0V365.483Z" transform="translate(-41.694 -253.584)" fill="#ffcdbb" stroke="#333" stroke-miterlimit="10" stroke-width="3"/>
      <rect id="사각형_14458" data-name="사각형 14458" width="89.912" height="115.89" rx="44.956" transform="translate(41.452 16.244)" fill="#ffcdbb" stroke="#333" stroke-miterlimit="10" stroke-width="3"/>
      <ellipse id="타원_2914" data-name="타원 2914" cx="10.038" cy="5.049" rx="10.038" ry="5.049" transform="translate(49.983 80.358)" fill="#f2a59e"/>
      <ellipse id="타원_2915" data-name="타원 2915" cx="10.038" cy="5.049" rx="10.038" ry="5.049" transform="translate(102.758 80.358)" fill="#f2a59e"/>
      <rect id="사각형_14459" data-name="사각형 14459" width="11.815" height="5.644" rx="1.232" transform="translate(66.69 60.021)" fill="#445563"/>
      <rect id="사각형_14460" data-name="사각형 14460" width="11.815" height="5.644" rx="1.232" transform="translate(106.126 65.665) rotate(180)" fill="#445563"/>
      <path id="패스_68192" data-name="패스 68192" d="M165.7,327.452a44.691,44.691,0,0,1,8.575,26.334v25.979a44.955,44.955,0,0,1-44.956,44.954h0a44.7,44.7,0,0,1-26.334-8.573,44.92,44.92,0,0,0,81.338-26.334V363.833A44.849,44.849,0,0,0,165.7,327.452Z" transform="translate(-52.958 -302.634)" fill="#ffbfae" style="mix-blend-mode: darken;isolation: isolate"/>
      <path id="사각형_14461" data-name="사각형 14461" d="M6,0h6.8a0,0,0,0,1,0,0V26.341a0,0,0,0,1,0,0H6a6,6,0,0,1-6-6V6A6,6,0,0,1,6,0Z" transform="translate(28.649 63.549)" fill="#ffcdbb" stroke="#333" stroke-miterlimit="10" stroke-width="3"/>
      <path id="사각형_14462" data-name="사각형 14462" d="M6,0h6.8a0,0,0,0,1,0,0V26.341a0,0,0,0,1,0,0H6a6,6,0,0,1-6-6V6A6,6,0,0,1,6,0Z" transform="translate(144.168 89.89) rotate(-180)" fill="#ffcdbb" stroke="#333" stroke-miterlimit="10" stroke-width="3"/>
      <rect id="사각형_14463" data-name="사각형 14463" width="5.536" height="10.774" rx="1.209" transform="translate(70.512 72.147)" fill="#333"/>
      <rect id="사각형_14464" data-name="사각형 14464" width="5.536" height="10.774" rx="1.209" transform="translate(102.304 82.921) rotate(180)" fill="#333"/>
      <ellipse id="타원_2916" data-name="타원 2916" cx="3.693" cy="2.489" rx="3.693" ry="2.489" transform="translate(82.716 84.366)" fill="#e89c8e" style="mix-blend-mode: darken;isolation: isolate"/>
      <path id="패스_68193" data-name="패스 68193" d="M199.892,368.429a53.15,53.15,0,0,0-.641-8.151,51.835,51.835,0,0,0-102.374,0,53.154,53.154,0,0,0-.641,8.151V379.6h20.6l4.843-20.312,4.843,20.312h16.7l4.84-20.312,4.843,20.312h16.7l4.843-20.312L179.3,379.6h20.594Z" transform="translate(-61.661 -316.613)" fill="#445563" stroke="#333" stroke-linecap="round" stroke-linejoin="round" stroke-width="3"/>
      <path id="패스_68194" data-name="패스 68194" d="M128.085,368.776h0A17.592,17.592,0,0,1,113.2,360.56l-1.475-2.34H144.44l-1.475,2.34A17.588,17.588,0,0,1,128.085,368.776Z" transform="translate(-41.682 -262.952)" fill="#f99273" stroke="#333" stroke-linecap="round" stroke-linejoin="round" stroke-width="3"/>
      <line id="선_3720" data-name="선 3720" y1="48.591" transform="translate(139.716 187.886)" fill="#ffd24f" stroke="#333" stroke-linecap="round" stroke-linejoin="round" stroke-width="3"/>
      <line id="선_3721" data-name="선 3721" y1="48.591" transform="translate(30.552 187.886)" fill="#ffd24f" stroke="#333" stroke-linecap="round" stroke-linejoin="round" stroke-width="3"/>
      <path id="패스_68195" data-name="패스 68195" d="M126.284,338.49l-2.672-2.148a14.631,14.631,0,0,1,2.3-3,22.005,22.005,0,0,1,4.154-3.517c.609-.474,2.4-1.543,2.909-2.626a2.863,2.863,0,0,0-.25-2.829,3.107,3.107,0,0,0-2.969-.935c-1.4.326-2.247,1.528-3.045,3.771a10.853,10.853,0,0,1-1.978,3.762,6.814,6.814,0,0,1-3.074,1.957,6.322,6.322,0,0,1-3.14.127,6.11,6.11,0,0,1-2.776-1.4A6.978,6.978,0,0,1,113.5,326.7a6.24,6.24,0,0,1,2.052-4.7,6.346,6.346,0,0,1,3.165-1.7,5.853,5.853,0,0,1,2.844.167,7.383,7.383,0,0,1,2.653,1.471l-2.146,2.334.008.008a4.3,4.3,0,0,0-1.519-.8,2.776,2.776,0,0,0-2.829.825,3.1,3.1,0,0,0-1.06,2.353,3.811,3.811,0,0,0,1.181,2.632,3.057,3.057,0,0,0,2.9.605c.793-.237,2.029-1.068,2.9-3.5a11.088,11.088,0,0,1,2.129-4.1,6.44,6.44,0,0,1,3.254-1.936,6.271,6.271,0,0,1,6.07,1.928,5.519,5.519,0,0,1,1.437,4.088,5.97,5.97,0,0,1-2.152,4.022c-1.206,1.1-2.818,2.027-4.568,3.745a18.017,18.017,0,0,0-3.536,4.359" transform="translate(-3.969 -140.241)" fill="#fff"/>
    </g>
  </g>
</svg>
