<svg xmlns="http://www.w3.org/2000/svg" xmlns:xlink="http://www.w3.org/1999/xlink" width="292" height="292" viewBox="0 0 292 292">
  <defs>
    <clipPath id="clip-path">
      <rect id="사각형_14515" data-name="사각형 14515" width="292" height="292" transform="translate(884 2618)" fill="#ffe1e1"/>
    </clipPath>
  </defs>
  <g id="woman_08_s" transform="translate(-884 -2618)" clip-path="url(#clip-path)">
    <g id="그룹_59664" data-name="그룹 59664" transform="translate(932.668 2677.482)">
      <path id="패스_68221" data-name="패스 68221" d="M386.117,372.236V398.5a54.675,54.675,0,0,1-109.351,0V372.236a54.736,54.736,0,0,1,54.675-54.675,53.62,53.62,0,0,1,10.458,1.018A54.743,54.743,0,0,1,386.117,372.236Z" transform="translate(-234.716 -317.561)" fill="#bcaeaa" stroke="#333" stroke-linecap="round" stroke-linejoin="round" stroke-width="3"/>
      <path id="사각형_14495" data-name="사각형 14495" d="M50,0h93.449a50,50,0,0,1,50,50V90.132a0,0,0,0,1,0,0H0a0,0,0,0,1,0,0V50A50,50,0,0,1,50,0Z" transform="translate(0 143.016)" fill="#3d5e84" stroke="#333" stroke-linecap="round" stroke-linejoin="round" stroke-width="3"/>
      <path id="패스_68222" data-name="패스 68222" d="M326.334,391.734,309.8,406.526l-16.55-14.792V369.961h33.088Z" transform="translate(-213.065 -248.718)" fill="#ffcdbb" stroke="#333" stroke-miterlimit="10" stroke-width="3"/>
      <rect id="사각형_14496" data-name="사각형 14496" width="90.858" height="117.109" rx="45.429" transform="translate(51.295 9.25)" fill="#ffcdbb" stroke="#333" stroke-miterlimit="10" stroke-width="3"/>
      <path id="사각형_14497" data-name="사각형 14497" d="M6,0h6.938a0,0,0,0,1,0,0V26.618a0,0,0,0,1,0,0H6a6,6,0,0,1-6-6V6A6,6,0,0,1,6,0Z" transform="translate(38.357 57.052)" fill="#ffcdbb" stroke="#333" stroke-miterlimit="10" stroke-width="3"/>
      <path id="사각형_14498" data-name="사각형 14498" d="M6,0h6.938a0,0,0,0,1,0,0V26.618a0,0,0,0,1,0,0H6a6,6,0,0,1-6-6V6A6,6,0,0,1,6,0Z" transform="translate(155.092 83.67) rotate(-180)" fill="#ffcdbb" stroke="#333" stroke-miterlimit="10" stroke-width="3"/>
      <path id="패스_68223" data-name="패스 68223" d="M320.5,356.494h0a6.168,6.168,0,0,1-6.166,6.169H301.019a6.168,6.168,0,0,1-6.166-6.169h0" transform="translate(-210.953 -266.41)" fill="#ffcdbb" stroke="#333" stroke-linecap="round" stroke-linejoin="round" stroke-width="3"/>
      <path id="패스_68224" data-name="패스 68224" d="M292.5,351.711a4.318,4.318,0,1,1,8.635,0" transform="translate(-214.047 -278.367)" fill="#ffcdbb" stroke="#333" stroke-linecap="round" stroke-linejoin="round" stroke-width="3"/>
      <line id="선_3728" data-name="선 3728" y1="46.594" transform="translate(38.989 186.554)" fill="#d0d7dc" stroke="#333" stroke-linecap="round" stroke-linejoin="round" stroke-width="3"/>
      <line id="선_3729" data-name="선 3729" y1="46.594" transform="translate(154.46 186.554)" fill="#d0d7dc" stroke="#333" stroke-linecap="round" stroke-linejoin="round" stroke-width="3"/>
      <g id="그룹_59663" data-name="그룹 59663">
        <ellipse id="타원_2934" data-name="타원 2934" cx="10.143" cy="5.102" rx="10.143" ry="5.102" transform="translate(59.916 74.037)" fill="#f2a59e"/>
        <ellipse id="타원_2935" data-name="타원 2935" cx="10.143" cy="5.102" rx="10.143" ry="5.102" transform="translate(113.246 74.037)" fill="#f2a59e"/>
        <rect id="사각형_14499" data-name="사각형 14499" width="11.94" height="5.252" transform="translate(76.799 53.938)" fill="#9b7870"/>
        <rect id="사각형_14500" data-name="사각형 14500" width="11.94" height="5.252" transform="translate(116.65 59.19) rotate(-180)" fill="#9b7870"/>
        <path id="패스_68225" data-name="패스 68225" d="M347.884,325.3a45.174,45.174,0,0,1,8.663,26.611v26.253A45.429,45.429,0,0,1,311.117,423.6h0a45.176,45.176,0,0,1-26.611-8.665A45.393,45.393,0,0,0,366.7,388.32V362.067A45.325,45.325,0,0,0,347.884,325.3Z" transform="translate(-224.547 -307.39)" fill="#ffbfae" style="mix-blend-mode: darken;isolation: isolate"/>
        <rect id="사각형_14501" data-name="사각형 14501" width="5.594" height="10.888" rx="1.209" transform="translate(112.789 76.628) rotate(180)" fill="#333"/>
        <ellipse id="타원_2936" data-name="타원 2936" cx="5.395" cy="3.637" rx="5.395" ry="3.637" transform="translate(91.33 76.967)" fill="#e89c8e" style="mix-blend-mode: darken;isolation: isolate"/>
        <path id="패스_68226" data-name="패스 68226" d="M126.284,338.49l-2.672-2.148a14.631,14.631,0,0,1,2.3-3,22.005,22.005,0,0,1,4.154-3.517c.609-.474,2.4-1.543,2.909-2.626a2.863,2.863,0,0,0-.25-2.829,3.107,3.107,0,0,0-2.969-.935c-1.4.326-2.247,1.528-3.045,3.771a10.853,10.853,0,0,1-1.978,3.762,6.814,6.814,0,0,1-3.074,1.957,6.322,6.322,0,0,1-3.14.127,6.11,6.11,0,0,1-2.776-1.4A6.978,6.978,0,0,1,113.5,326.7a6.24,6.24,0,0,1,2.052-4.7,6.346,6.346,0,0,1,3.165-1.7,5.853,5.853,0,0,1,2.844.167,7.383,7.383,0,0,1,2.653,1.471l-2.146,2.334.008.008a4.3,4.3,0,0,0-1.519-.8,2.776,2.776,0,0,0-2.829.825,3.1,3.1,0,0,0-1.06,2.353,3.811,3.811,0,0,0,1.181,2.632,3.057,3.057,0,0,0,2.9.605c.793-.237,2.029-1.068,2.9-3.5a11.088,11.088,0,0,1,2.129-4.1,6.44,6.44,0,0,1,3.254-1.936,6.271,6.271,0,0,1,6.07,1.928,5.519,5.519,0,0,1,1.437,4.088,5.97,5.97,0,0,1-2.152,4.022c-1.206,1.1-2.818,2.027-4.568,3.745a18.017,18.017,0,0,0-3.536,4.359" transform="translate(6.846 -137.803)" fill="#fff"/>
      </g>
      <path id="패스_68227" data-name="패스 68227" d="M341.9,318.579a53.62,53.62,0,0,0-10.458-1.018,54.736,54.736,0,0,0-54.675,54.675v2.383h22.421A42.718,42.718,0,0,0,341.9,331.883v.717a42.037,42.037,0,0,0,42.042,42.019h2.175v-2.383A54.743,54.743,0,0,0,341.9,318.579Z" transform="translate(-234.716 -317.561)" fill="#bcaeaa" stroke="#333" stroke-linecap="round" stroke-linejoin="round" stroke-width="3"/>
    </g>
  </g>
</svg>
