<svg xmlns="http://www.w3.org/2000/svg" xmlns:xlink="http://www.w3.org/1999/xlink" width="292" height="292" viewBox="0 0 292 292">
  <defs>
    <clipPath id="clip-path">
      <rect id="사각형_14514" data-name="사각형 14514" width="292" height="292" transform="translate(492 2618)" fill="#ffe1e1"/>
    </clipPath>
  </defs>
  <g id="woman_07_s" transform="translate(-492 -2618)" clip-path="url(#clip-path)">
    <g id="그룹_59662" data-name="그룹 59662" transform="translate(540.668 2653.146)">
      <circle id="타원_2929" data-name="타원 2929" cx="23.437" cy="23.437" r="23.437" transform="translate(73.892 0)" fill="#686868" stroke="#333" stroke-linecap="round" stroke-linejoin="round" stroke-width="3"/>
      <path id="패스_68208" data-name="패스 68208" d="M380.193,168.663c-5.689-19.637-26.1-34.205-50.31-34.205a57.1,57.1,0,0,0-23.861,5.118,51.767,51.767,0,0,0-13.335,8.64c-9.12,8.189-14.721,19.352-14.721,31.611v21.78c0,25.042,23.287,45.394,51.917,45.394S381.8,226.649,381.8,201.607v-21.78A39.264,39.264,0,0,0,380.193,168.663Z" transform="translate(-232.553 -108.609)" fill="#686868" stroke="#333" stroke-linecap="round" stroke-linejoin="round" stroke-width="3"/>
      <path id="패스_68209" data-name="패스 68209" d="M285.918,197.611c-12.846,0-23.262,11.527-23.262,25.762v64.392h24.91V197.611Z" transform="translate(-252.68 -25.588)" fill="#4ea0ca" stroke="#333" stroke-linecap="round" stroke-linejoin="round" stroke-width="3"/>
      <path id="패스_68210" data-name="패스 68210" d="M352.278,223.373c0-14.235-10.416-25.762-23.262-25.762h-1.639v90.154h24.9Z" transform="translate(-167.596 -25.588)" fill="#4ea0ca" stroke="#333" stroke-linecap="round" stroke-linejoin="round" stroke-width="3"/>
      <path id="패스_68211" data-name="패스 68211" d="M368.173,218.7a15.049,15.049,0,0,1-5.023-.833,15.732,15.732,0,0,1-10.74-14.929V181.571h-33.1v21.364a15.732,15.732,0,0,1-10.74,14.929,15.049,15.049,0,0,1-5.023.833H273.418v90.154h124.9V218.7Z" transform="translate(-238.532 -46.674)" fill="#445563" stroke="#333" stroke-linecap="round" stroke-linejoin="round" stroke-width="3"/>
      <path id="패스_68212" data-name="패스 68212" d="M343.184,217.864A34.42,34.42,0,0,1,322.4,230.641a33.5,33.5,0,0,1-6.5.625,34.448,34.448,0,0,1-27.289-13.4,15.732,15.732,0,0,0,10.74-14.929V181.571h33.1v21.364A15.732,15.732,0,0,0,343.184,217.864Z" transform="translate(-218.566 -46.674)" fill="#ffcdbb" stroke="#333" stroke-miterlimit="10" stroke-width="3"/>
      <path id="패스_68213" data-name="패스 68213" d="M371.637,171.223v26.248a45.436,45.436,0,1,1-90.871,0V171.223a42.54,42.54,0,0,1,.509-6.689,25.381,25.381,0,0,0,21.919-14.073c11.712,7.823,27.636,12.638,45.2,12.638a90.746,90.746,0,0,0,21.942-2.639A44.638,44.638,0,0,1,371.637,171.223Z" transform="translate(-228.872 -87.571)" fill="#ffcdbb" stroke="#333" stroke-miterlimit="10" stroke-width="3"/>
      <ellipse id="타원_2930" data-name="타원 2930" cx="10.147" cy="5.103" rx="10.147" ry="5.103" transform="translate(60.507 103.016)" fill="#f2a59e"/>
      <ellipse id="타원_2931" data-name="타원 2931" cx="10.147" cy="5.103" rx="10.147" ry="5.103" transform="translate(113.856 103.016)" fill="#f2a59e"/>
      <rect id="사각형_14480" data-name="사각형 14480" width="11.944" height="5.705" rx="1.232" transform="translate(77.396 82.458)" fill="#7e5449"/>
      <rect id="사각형_14481" data-name="사각형 14481" width="11.944" height="5.705" rx="1.232" transform="translate(117.261 88.163) rotate(-180)" fill="#7e5449"/>
      <path id="패스_68214" data-name="패스 68214" d="M347.905,143.541a45.191,45.191,0,0,1,8.666,26.62v26.261a45.445,45.445,0,0,1-45.445,45.445h0a45.192,45.192,0,0,1-26.62-8.668,45.408,45.408,0,0,0,82.221-26.62V180.318A45.34,45.34,0,0,0,347.905,143.541Z" transform="translate(-223.955 -96.668)" fill="#ffbfae" style="mix-blend-mode: darken;isolation: isolate"/>
      <path id="사각형_14482" data-name="사각형 14482" d="M3.344,0h9.6a0,0,0,0,1,0,0V26.628a0,0,0,0,1,0,0h-9.6A3.344,3.344,0,0,1,0,23.284V3.344A3.344,3.344,0,0,1,3.344,0Z" transform="translate(38.941 86.024)" fill="#ffcdbb" stroke="#333" stroke-miterlimit="10" stroke-width="3"/>
      <path id="사각형_14483" data-name="사각형 14483" d="M3.344,0h9.6a0,0,0,0,1,0,0V26.628a0,0,0,0,1,0,0h-9.6A3.344,3.344,0,0,1,0,23.284V3.344A3.344,3.344,0,0,1,3.344,0Z" transform="translate(155.716 112.652) rotate(-180)" fill="#ffcdbb" stroke="#333" stroke-miterlimit="10" stroke-width="3"/>
      <path id="패스_68215" data-name="패스 68215" d="M297.163,174.957c1.222,2.31,4.111,3.935,7.483,3.935s6.259-1.625,7.481-3.935" transform="translate(-207.317 -55.369)" fill="#ffcdbb" stroke="#333" stroke-linecap="round" stroke-linejoin="round" stroke-width="3"/>
      <rect id="사각형_14484" data-name="사각형 14484" width="5.596" height="10.891" rx="1.209" transform="translate(81.26 94.716)" fill="#333"/>
      <rect id="사각형_14485" data-name="사각형 14485" width="5.596" height="10.891" rx="1.209" transform="translate(113.397 105.607) rotate(180)" fill="#333"/>
      <ellipse id="타원_2932" data-name="타원 2932" cx="3.733" cy="2.516" rx="3.733" ry="2.516" transform="translate(93.596 107.068)" fill="#e89c8e" style="mix-blend-mode: darken;isolation: isolate"/>
      <g id="그룹_59660" data-name="그룹 59660" transform="translate(0 117.176)">
        <path id="패스_68216" data-name="패스 68216" d="M300.543,199.471a4.64,4.64,0,0,0-5.094,4.615V178.751a4.772,4.772,0,0,0-4.182-4.814,4.638,4.638,0,0,0-5.092,4.615l-.167,22.512H258.346v1.511a132.623,132.623,0,0,0,1.155,17.457l1.96,14.744h33.988a28.579,28.579,0,0,0,9.277-21.077v-9.411A4.772,4.772,0,0,0,300.543,199.471Z" transform="translate(-258.345 -173.915)" fill="#ffcdbb" stroke="#333" stroke-miterlimit="10" stroke-width="3"/>
        <rect id="사각형_14486" data-name="사각형 14486" width="9.299" height="20.386" rx="2.009" transform="translate(0 19.489)" fill="#ffcdbb" stroke="#333" stroke-miterlimit="10" stroke-width="3"/>
        <rect id="사각형_14487" data-name="사각형 14487" width="9.299" height="20.386" rx="2.009" transform="translate(9.299 19.489)" fill="#ffcdbb" stroke="#333" stroke-miterlimit="10" stroke-width="3"/>
        <rect id="사각형_14488" data-name="사각형 14488" width="9.299" height="20.386" rx="2.009" transform="translate(18.598 19.489)" fill="#ffcdbb" stroke="#333" stroke-miterlimit="10" stroke-width="3"/>
        <line id="선_3726" data-name="선 3726" y2="13.937" transform="translate(37.104 29.682)" fill="#ffcdbb" stroke="#333" stroke-miterlimit="10" stroke-width="3"/>
      </g>
      <path id="사각형_14489" data-name="사각형 14489" d="M0,0H35.431a0,0,0,0,1,0,0V78.579a7.654,7.654,0,0,1-7.654,7.654H7.654A7.654,7.654,0,0,1,0,78.579V0A0,0,0,0,1,0,0Z" transform="translate(3.247 187.64)" fill="#4ea0ca" stroke="#333" stroke-linecap="round" stroke-linejoin="round" stroke-width="3"/>
      <path id="패스_68217" data-name="패스 68217" d="M355.464,198.084a15.046,15.046,0,0,1-5.023-.833,34.491,34.491,0,0,1-22.181,12.98c-.458.069-.914.15-1.38.2a31.752,31.752,0,0,1-7.46,0c-.465-.051-.919-.132-1.379-.2a34.481,34.481,0,0,1-22.179-12.98,15.045,15.045,0,0,1-5.023.833h-7.754a25.468,25.468,0,0,0,40.066,18.6,25.468,25.468,0,0,0,40.066-18.6Z" transform="translate(-225.822 -26.061)" fill="#fff" stroke="#333" stroke-linecap="round" stroke-linejoin="round" stroke-width="3"/>
      <path id="패스_68218" data-name="패스 68218" d="M309.618,165.605v3.442a7.74,7.74,0,0,1-7.74,7.74h-3.595a7.742,7.742,0,0,1-7.742-7.74v-3.442" transform="translate(-216.022 -67.663)" fill="none" stroke="#333" stroke-linecap="round" stroke-linejoin="round" stroke-width="3"/>
      <path id="패스_68219" data-name="패스 68219" d="M302.008,165.605v3.442a7.74,7.74,0,0,0,7.74,7.74h3.6a7.741,7.741,0,0,0,7.74-7.74v-3.442" transform="translate(-200.947 -67.663)" fill="none" stroke="#333" stroke-linecap="round" stroke-linejoin="round" stroke-width="3"/>
      <line id="선_3727" data-name="선 3727" x2="7.465" transform="translate(93.596 101.384)" fill="none" stroke="#333" stroke-linecap="round" stroke-linejoin="round" stroke-width="3"/>
      <rect id="사각형_14490" data-name="사각형 14490" width="35.563" height="9.603" transform="translate(3.115 178.037)" fill="#fff" stroke="#333" stroke-linecap="round" stroke-linejoin="round" stroke-width="3"/>
      <g id="그룹_59661" data-name="그룹 59661" transform="translate(149.632 239.644)">
        <rect id="사각형_14491" data-name="사각형 14491" width="10.987" height="31.642" rx="2.373" transform="translate(0 0)" fill="#ffcdbb" stroke="#333" stroke-miterlimit="10" stroke-width="3"/>
        <rect id="사각형_14492" data-name="사각형 14492" width="10.987" height="31.642" rx="2.373" transform="translate(10.987 0)" fill="#ffcdbb" stroke="#333" stroke-miterlimit="10" stroke-width="3"/>
        <rect id="사각형_14493" data-name="사각형 14493" width="10.987" height="31.642" rx="2.373" transform="translate(21.974 0)" fill="#ffcdbb" stroke="#333" stroke-miterlimit="10" stroke-width="3"/>
        <rect id="사각형_14494" data-name="사각형 14494" width="10.987" height="31.642" rx="2.373" transform="translate(32.961 0)" fill="#ffcdbb" stroke="#333" stroke-miterlimit="10" stroke-width="3"/>
      </g>
      <path id="패스_68220" data-name="패스 68220" d="M126.267,338.466l-2.669-2.145a14.609,14.609,0,0,1,2.3-3,21.973,21.973,0,0,1,4.148-3.512c.609-.473,2.4-1.541,2.905-2.622a2.859,2.859,0,0,0-.249-2.825,3.1,3.1,0,0,0-2.965-.934c-1.4.325-2.244,1.526-3.041,3.766a10.84,10.84,0,0,1-1.976,3.757,6.8,6.8,0,0,1-3.07,1.955,6.315,6.315,0,0,1-3.136.127,6.1,6.1,0,0,1-2.772-1.4,6.968,6.968,0,0,1-2.236-4.947,6.232,6.232,0,0,1,2.05-4.7,6.336,6.336,0,0,1,3.161-1.695,5.843,5.843,0,0,1,2.84.167,7.372,7.372,0,0,1,2.65,1.469l-2.143,2.331.008.008a4.3,4.3,0,0,0-1.517-.8,2.772,2.772,0,0,0-2.825.824,3.1,3.1,0,0,0-1.059,2.35,3.806,3.806,0,0,0,1.179,2.629,3.053,3.053,0,0,0,2.895.6c.792-.237,2.026-1.067,2.893-3.5a11.076,11.076,0,0,1,2.126-4.1,6.433,6.433,0,0,1,3.25-1.933,6.263,6.263,0,0,1,6.062,1.925,5.512,5.512,0,0,1,1.435,4.083,5.962,5.962,0,0,1-2.149,4.017c-1.2,1.1-2.815,2.024-4.562,3.74a18,18,0,0,0-3.531,4.353" transform="translate(9.385 -113.456)" fill="#fff"/>
    </g>
  </g>
</svg>
