<svg xmlns="http://www.w3.org/2000/svg" xmlns:xlink="http://www.w3.org/1999/xlink" width="292" height="292" viewBox="0 0 292 292">
  <defs>
    <clipPath id="clip-path">
      <rect id="사각형_14510" data-name="사각형 14510" width="292" height="292" transform="translate(884 2126)" fill="#ffe1e1"/>
    </clipPath>
  </defs>
  <g id="woman_03_s" transform="translate(-884 -2126)" clip-path="url(#clip-path)">
    <g id="그룹_59655" data-name="그룹 59655" transform="translate(943.484 2185.483)">
      <path id="패스_68180" data-name="패스 68180" d="M418.894,568.7H387.155a15.626,15.626,0,0,1-9.381-3.125H332.011a15.627,15.627,0,0,1-9.381,3.125H290.893c-12.832,0-23.234,11.523-23.234,25.738v64.31h174.47v-64.31C442.129,580.219,431.727,568.7,418.894,568.7Z" transform="translate(-267.659 -421.184)" fill="#77b58a" stroke="#333" stroke-linecap="round" stroke-linejoin="round" stroke-width="3"/>
      <path id="패스_68181" data-name="패스 68181" d="M401.716,562.365a59.211,59.211,0,0,0-1.329-12.462l0,0c-.011-.06-.03-.12-.044-.18q-.413-1.879-.943-3.715c-.044-.15-.086-.3-.13-.453a58.937,58.937,0,0,0-2.82-7.559c-.062-.134-.122-.271-.185-.4a59.367,59.367,0,0,0-3.842-7.018c-.074-.118-.15-.234-.224-.349a60.087,60.087,0,0,0-4.778-6.39c-.086-.1-.171-.2-.259-.3a59.646,59.646,0,0,0-5.627-5.661l-.277-.24a59.949,59.949,0,0,0-6.4-4.845c-.092-.06-.187-.118-.28-.178-1.1-.714-2.226-1.4-3.375-2.036l-.065-.037q-1.789-1-3.652-1.863c-.081-.039-.162-.074-.243-.111q-1.765-.815-3.585-1.517l-.236-.092q-1.924-.732-3.909-1.332c-.051-.016-.1-.028-.153-.044q-1.89-.562-3.83-1c-.076-.016-.148-.042-.222-.058s-.12-.021-.18-.035q-1.227-.267-2.471-.481c-.222-.039-.446-.083-.67-.12-.814-.132-1.634-.243-2.46-.34-.224-.028-.448-.062-.675-.088-.92-.1-1.847-.173-2.779-.229-.125-.007-.247-.021-.372-.028q-1.612-.09-3.246-.093a59.3,59.3,0,0,0-12.686,1.38c-.055.012-.113.021-.166.032-.076.016-.15.042-.227.06q-1.935.437-3.823,1c-.051.014-.106.028-.157.044q-1.983.6-3.907,1.329l-.245.1q-1.813.7-3.569,1.512c-.086.039-.171.074-.257.115q-1.855.867-3.641,1.859l-.081.046q-1.716.957-3.357,2.025l-.294.187a59.7,59.7,0,0,0-6.383,4.834c-.1.086-.194.169-.291.252a59.731,59.731,0,0,0-5.617,5.652c-.09.1-.178.2-.266.308a59.3,59.3,0,0,0-4.771,6.378c-.079.118-.155.238-.231.358a58.929,58.929,0,0,0-3.837,7.011c-.065.136-.125.275-.187.411a59.24,59.24,0,0,0-2.82,7.552c-.044.152-.086.305-.129.458q-.527,1.834-.943,3.713c-.012.06-.032.12-.044.18l0,0a59.211,59.211,0,0,0-1.329,12.462l-5.883,48.993a25.157,25.157,0,0,0,24.98,28.156h80.321A25.156,25.156,0,0,0,407.6,611.358Z" transform="translate(-255.226 -503.11)" fill="#979493" stroke="#333" stroke-linecap="round" stroke-linejoin="round" stroke-width="3"/>
      <path id="패스_68182" data-name="패스 68182" d="M334.908,572.222V550.885H301.849v21.337a15.688,15.688,0,0,1-6.352,12.61l22.883,16.117,22.881-16.117A15.688,15.688,0,0,1,334.908,572.222Z" transform="translate(-231.145 -440.446)" fill="#ffcdbb" stroke="#333" stroke-miterlimit="10" stroke-width="3"/>
      <path id="패스_68183" data-name="패스 68183" d="M376.522,538.67v26.237a45.378,45.378,0,0,1-90.756,0V538.67a42.671,42.671,0,0,1,.439-6.242,45.4,45.4,0,0,0,44.939-11.258,45.4,45.4,0,0,0,44.939,11.258A42.662,42.662,0,0,1,376.522,538.67Z" transform="translate(-243.909 -479.42)" fill="#ffcdbb" stroke="#333" stroke-miterlimit="10" stroke-width="3"/>
      <ellipse id="타원_2910" data-name="타원 2910" cx="10.134" cy="5.097" rx="10.134" ry="5.097" transform="translate(50.46 78.597)" fill="#f2a59e"/>
      <ellipse id="타원_2911" data-name="타원 2911" cx="10.134" cy="5.097" rx="10.134" ry="5.097" transform="translate(103.74 78.597)" fill="#f2a59e"/>
      <rect id="사각형_14452" data-name="사각형 14452" width="11.929" height="5.698" rx="1.232" transform="translate(67.327 58.065)" fill="#333"/>
      <rect id="사각형_14453" data-name="사각형 14453" width="11.929" height="5.698" rx="1.232" transform="translate(107.141 63.763) rotate(180)" fill="#333"/>
      <path id="패스_68184" data-name="패스 68184" d="M352.825,512.854a45.135,45.135,0,0,1,8.655,26.589v26.225a45.387,45.387,0,0,1-45.387,45.387h0a45.119,45.119,0,0,1-26.586-8.657,45.35,45.35,0,0,0,82.117-26.586V549.586A45.284,45.284,0,0,0,352.825,512.854Z" transform="translate(-239.003 -490.329)" fill="#ffbfae" style="mix-blend-mode: darken;isolation: isolate"/>
      <path id="사각형_14454" data-name="사각형 14454" d="M6,0h6.926a0,0,0,0,1,0,0V26.594a0,0,0,0,1,0,0H6a6,6,0,0,1-6-6V6A6,6,0,0,1,6,0Z" transform="translate(28.921 61.627)" fill="#ffcdbb" stroke="#333" stroke-miterlimit="10" stroke-width="3"/>
      <path id="사각형_14455" data-name="사각형 14455" d="M6,0h6.926a0,0,0,0,1,0,0V26.594a0,0,0,0,1,0,0H6a6,6,0,0,1-6-6V6A6,6,0,0,1,6,0Z" transform="translate(145.547 88.221) rotate(-180)" fill="#ffcdbb" stroke="#333" stroke-miterlimit="10" stroke-width="3"/>
      <path id="패스_68185" data-name="패스 68185" d="M302.163,544.271c1.221,2.3,4.106,3.927,7.474,3.927s6.251-1.623,7.471-3.927" transform="translate(-222.402 -449.121)" fill="#ffcdbb" stroke="#333" stroke-linecap="round" stroke-linejoin="round" stroke-width="3"/>
      <rect id="사각형_14456" data-name="사각형 14456" width="5.589" height="10.877" rx="1.209" transform="translate(71.186 70.308)" fill="#333"/>
      <rect id="사각형_14457" data-name="사각형 14457" width="5.589" height="10.877" rx="1.209" transform="translate(103.282 81.185) rotate(-180)" fill="#333"/>
      <ellipse id="타원_2912" data-name="타원 2912" cx="3.728" cy="2.513" rx="3.728" ry="2.513" transform="translate(83.506 82.643)" fill="#e89c8e" style="mix-blend-mode: darken;isolation: isolate"/>
      <line id="선_3718" data-name="선 3718" y1="36.55" transform="translate(149.608 201.009)" fill="#00b39b" stroke="#333" stroke-linecap="round" stroke-linejoin="round" stroke-width="3"/>
      <line id="선_3719" data-name="선 3719" y1="36.55" transform="translate(24.964 201.009)" fill="#00b39b" stroke="#333" stroke-linecap="round" stroke-linejoin="round" stroke-width="3"/>
      <path id="패스_68186" data-name="패스 68186" d="M307.176,563.139,289.94,570.1l19.665,31.761,16.062-16.982Z" transform="translate(-238.433 -424.373)" fill="#fff" stroke="#333" stroke-linecap="round" stroke-linejoin="round" stroke-width="3"/>
      <path id="패스_68187" data-name="패스 68187" d="M323.887,563.139l17.236,6.96-19.665,31.761L305.4,584.877Z" transform="translate(-218.162 -424.373)" fill="#fff" stroke="#333" stroke-linecap="round" stroke-linejoin="round" stroke-width="3"/>
      <path id="패스_68188" data-name="패스 68188" d="M126.284,338.49l-2.672-2.148a14.631,14.631,0,0,1,2.3-3,22.005,22.005,0,0,1,4.154-3.517c.609-.474,2.4-1.543,2.909-2.626a2.863,2.863,0,0,0-.25-2.829,3.107,3.107,0,0,0-2.969-.935c-1.4.326-2.247,1.528-3.045,3.771a10.853,10.853,0,0,1-1.978,3.762,6.814,6.814,0,0,1-3.074,1.957,6.322,6.322,0,0,1-3.14.127,6.11,6.11,0,0,1-2.776-1.4A6.978,6.978,0,0,1,113.5,326.7a6.24,6.24,0,0,1,2.052-4.7,6.346,6.346,0,0,1,3.165-1.7,5.853,5.853,0,0,1,2.844.167,7.383,7.383,0,0,1,2.653,1.471l-2.146,2.334.008.008a4.3,4.3,0,0,0-1.519-.8,2.776,2.776,0,0,0-2.829.825,3.1,3.1,0,0,0-1.06,2.353,3.811,3.811,0,0,0,1.181,2.632,3.057,3.057,0,0,0,2.9.605c.793-.237,2.029-1.068,2.9-3.5a11.088,11.088,0,0,1,2.129-4.1,6.44,6.44,0,0,1,3.254-1.936,6.271,6.271,0,0,1,6.07,1.928,5.519,5.519,0,0,1,1.437,4.088,5.97,5.97,0,0,1-2.152,4.022c-1.206,1.1-2.818,2.027-4.568,3.745a18.017,18.017,0,0,0-3.536,4.359" transform="translate(6.845 -140.243)" fill="#fff"/>
    </g>
  </g>
</svg>
