<svg xmlns="http://www.w3.org/2000/svg" xmlns:xlink="http://www.w3.org/1999/xlink" width="292" height="292" viewBox="0 0 292 292">
  <defs>
    <clipPath id="clip-path">
      <rect id="사각형_14513" data-name="사각형 14513" width="292" height="292" transform="translate(100 2618)" fill="#ffe1e1"/>
    </clipPath>
  </defs>
  <g id="woman_06_s" transform="translate(-100 -2618)" clip-path="url(#clip-path)">
    <g id="그룹_59659" data-name="그룹 59659" transform="translate(156.775 2672.066)">
      <path id="패스_68202" data-name="패스 68202" d="M111.73,177.34v37.131c0,.089-.012.175-.012.264a16.678,16.678,0,1,0,33.356,0V177.34Z" transform="translate(-40.408 -63.387)" fill="#ffcdbb" stroke="#333" stroke-miterlimit="10" stroke-width="3"/>
      <path id="사각형_14472" data-name="사각형 14472" d="M0,0H105.559a0,0,0,0,1,0,0V55.208A12.852,12.852,0,0,1,92.707,68.06H12.852A12.852,12.852,0,0,1,0,55.208V0A0,0,0,0,1,0,0Z" transform="translate(35.209 55.118)" fill="#9b7870" stroke="#333" stroke-linecap="round" stroke-linejoin="round" stroke-width="3"/>
      <path id="패스_68203" data-name="패스 68203" d="M233.687,193.377H104.573c-12.944,0-23.437,11.624-23.437,25.962v64.87H257.124v-64.87C257.124,205,246.631,193.377,233.687,193.377Z" transform="translate(-81.136 -42.029)" fill="#d66d27" stroke="#333" stroke-linecap="round" stroke-linejoin="round" stroke-width="3"/>
      <rect id="사각형_14473" data-name="사각형 14473" width="91.563" height="118.018" rx="45.781" transform="translate(42.213 16.543)" fill="#ffcdbb" stroke="#333" stroke-miterlimit="10" stroke-width="3"/>
      <path id="사각형_14474" data-name="사각형 14474" d="M6,0h7.039a0,0,0,0,1,0,0V26.825a0,0,0,0,1,0,0H6a6,6,0,0,1-6-6V6A6,6,0,0,1,6,0Z" transform="translate(29.175 64.716)" fill="#ffcdbb" stroke="#333" stroke-miterlimit="10" stroke-width="3"/>
      <path id="사각형_14475" data-name="사각형 14475" d="M6,0h7.039a0,0,0,0,1,0,0V26.825a0,0,0,0,1,0,0H6a6,6,0,0,1-6-6V6A6,6,0,0,1,6,0Z" transform="translate(146.815 91.541) rotate(-180)" fill="#ffcdbb" stroke="#333" stroke-miterlimit="10" stroke-width="3"/>
      <g id="그룹_59658" data-name="그룹 59658">
        <ellipse id="타원_2925" data-name="타원 2925" cx="10.222" cy="5.141" rx="10.222" ry="5.141" transform="translate(50.9 81.834)" fill="#f2a59e"/>
        <ellipse id="타원_2926" data-name="타원 2926" cx="10.222" cy="5.141" rx="10.222" ry="5.141" transform="translate(104.645 81.834)" fill="#f2a59e"/>
        <rect id="사각형_14476" data-name="사각형 14476" width="12.032" height="5.748" rx="1.232" transform="translate(67.914 61.843)" fill="#7e5449"/>
        <rect id="사각형_14477" data-name="사각형 14477" width="12.032" height="5.748" rx="1.232" transform="translate(108.076 67.591) rotate(180)" fill="#7e5449"/>
        <path id="패스_68204" data-name="패스 68204" d="M166.851,139.309a45.513,45.513,0,0,1,8.732,26.82v26.454A45.782,45.782,0,0,1,129.8,238.365h0a45.511,45.511,0,0,1-26.818-8.732,45.745,45.745,0,0,0,82.831-26.818V176.361A45.673,45.673,0,0,0,166.851,139.309Z" transform="translate(-52.039 -114.034)" fill="#ffbfae" style="mix-blend-mode: darken;isolation: isolate"/>
        <rect id="사각형_14478" data-name="사각형 14478" width="5.638" height="10.972" rx="1.209" transform="translate(71.807 73.473)" fill="#333"/>
        <rect id="사각형_14479" data-name="사각형 14479" width="5.638" height="10.972" rx="1.209" transform="translate(104.184 84.445) rotate(-180)" fill="#333"/>
        <ellipse id="타원_2927" data-name="타원 2927" cx="3.76" cy="2.535" rx="3.76" ry="2.535" transform="translate(84.234 85.916)" fill="#e89c8e" style="mix-blend-mode: darken;isolation: isolate"/>
      </g>
      <path id="패스_68205" data-name="패스 68205" d="M201.795,181.238a54.128,54.128,0,0,0-.653-8.3,52.786,52.786,0,0,0-104.253,0,54.132,54.132,0,0,0-.653,8.3v11.377h12.477a10.772,10.772,0,0,0,10.477-8.273l2.959-12.41,2.959,12.41a10.772,10.772,0,0,0,10.477,8.273h0a10.772,10.772,0,0,0,10.479-8.273l2.957-12.41,2.959,12.41a10.772,10.772,0,0,0,10.479,8.273h0a10.772,10.772,0,0,0,10.477-8.273l2.959-12.41,2.959,12.41a10.768,10.768,0,0,0,10.477,8.273h12.466Z" transform="translate(-61.026 -128.47)" fill="#9b7870" stroke="#333" stroke-linecap="round" stroke-linejoin="round" stroke-width="3"/>
      <line id="선_3724" data-name="선 3724" y1="32.285" transform="translate(137.172 210.28)" fill="#ffcdbb" stroke="#333" stroke-miterlimit="10" stroke-width="3"/>
      <line id="선_3725" data-name="선 3725" y1="32.285" transform="translate(37.525 210.28)" fill="#ffcdbb" stroke="#333" stroke-miterlimit="10" stroke-width="3"/>
      <path id="패스_68206" data-name="패스 68206" d="M115.718,171.35c1.231,2.327,4.141,3.964,7.539,3.964s6.305-1.637,7.536-3.964" transform="translate(-35.081 -71.364)" fill="#ffcdbb" stroke="#333" stroke-linecap="round" stroke-linejoin="round" stroke-width="3"/>
      <path id="패스_68207" data-name="패스 68207" d="M126.4,338.649l-2.7-2.166a14.761,14.761,0,0,1,2.32-3.026,22.206,22.206,0,0,1,4.19-3.547c.615-.478,2.42-1.556,2.935-2.649a2.887,2.887,0,0,0-.252-2.854,3.134,3.134,0,0,0-2.994-.943c-1.411.329-2.267,1.541-3.071,3.8a10.947,10.947,0,0,1-2,3.795,6.874,6.874,0,0,1-3.1,1.974,6.377,6.377,0,0,1-3.167.128,6.162,6.162,0,0,1-2.8-1.415,7.038,7.038,0,0,1-2.258-5,6.3,6.3,0,0,1,2.07-4.742,6.4,6.4,0,0,1,3.193-1.712,5.9,5.9,0,0,1,2.868.169,7.446,7.446,0,0,1,2.676,1.483l-2.164,2.354.009.008a4.334,4.334,0,0,0-1.532-.811,2.8,2.8,0,0,0-2.854.832,3.129,3.129,0,0,0-1.069,2.373,3.844,3.844,0,0,0,1.191,2.655,3.084,3.084,0,0,0,2.924.61c.8-.239,2.047-1.078,2.922-3.534a11.184,11.184,0,0,1,2.147-4.136,6.5,6.5,0,0,1,3.283-1.953,6.326,6.326,0,0,1,6.123,1.944,5.567,5.567,0,0,1,1.449,4.124,6.022,6.022,0,0,1-2.171,4.057c-1.217,1.112-2.843,2.045-4.608,3.778a18.176,18.176,0,0,0-3.566,4.4" transform="translate(-3.017 -136.444)" fill="#fff"/>
    </g>
  </g>
</svg>
