<svg xmlns="http://www.w3.org/2000/svg" width="20" height="18" viewBox="0 0 20 18">
    <path data-name="패스 1353" d="M286.7 802.025h-15.4a2.218 2.218 0 0 1-2.3-2.114v-12.379a2.218 2.218 0 0 1 2.3-2.114h15.4a2.218 2.218 0 0 1 2.3 2.114v12.379a2.218 2.218 0 0 1-2.3 2.114zm-15.4-15.743a1.311 1.311 0 0 0-1.362 1.25v12.379a1.311 1.311 0 0 0 1.362 1.25h15.4a1.311 1.311 0 0 0 1.362-1.25v-12.379a1.311 1.311 0 0 0-1.362-1.25z" transform="translate(-269 -784.025)" style="fill:#555"/>
    <path data-name="패스 1354" d="M274.073 787.937a.551.551 0 0 1-.565-.535v-2.842a.566.566 0 0 1 1.13 0v2.84a.551.551 0 0 1-.565.537z" transform="translate(-271 -784.025)" style="fill:#555"/>
    <path data-name="패스 1355" d="M287.927 787.937a.551.551 0 0 1-.565-.535v-2.842a.566.566 0 0 1 1.13 0v2.84a.551.551 0 0 1-.565.537z" transform="translate(-271 -784.025)" style="fill:#555"/>
    <path data-name="패스 2327" d="M287.927 787.937a.551.551 0 0 1-.565-.535v-2.842a.566.566 0 0 1 1.13 0v2.84a.551.551 0 0 1-.565.537z" transform="translate(-278 -784.025)" style="fill:#555"/>
    <path data-name="패스 1356" d="M286.567 791.387h-15.134a.543.543 0 0 1 0-1.071h15.134a.543.543 0 0 1 0 1.071z" transform="translate(-268.98 -784.227)" style="fill:#555"/>
</svg>
