<svg width="20" height="20" viewBox="0 0 20 20" fill="none" xmlns="http://www.w3.org/2000/svg">
<path d="M7.21429 15H12.7857M7.21429 12H12.7857M10.9289 1.00087C10.8402 1 10.7404 1 10.6265 1H6.47161C5.43151 1 4.91108 1 4.51381 1.21799C4.16437 1.40973 3.88047 1.71547 3.70242 2.0918C3.5 2.51962 3.5 3.08009 3.5 4.20019V15.8002C3.5 16.9203 3.5 17.4801 3.70242 17.9079C3.88047 18.2842 4.16437 18.5905 4.51381 18.7822C4.91069 19 5.4305 19 6.46859 19L13.5314 19C14.5695 19 15.0886 19 15.4854 18.7822C15.8349 18.5905 16.1197 18.2842 16.2978 17.9079C16.5 17.4805 16.5 16.9215 16.5 15.8036V7.32568C16.5 7.20302 16.4999 7.09553 16.4991 7M10.9289 1.00087C11.194 1.00348 11.361 1.01407 11.5212 1.05547C11.7107 1.10446 11.8923 1.18526 12.0585 1.29492C12.2458 1.41857 12.4067 1.59181 12.7277 1.9375L15.6299 5.06298C15.9511 5.40889 16.1108 5.58136 16.2257 5.78319C16.3275 5.96214 16.4028 6.15726 16.4483 6.36133C16.4868 6.53379 16.4967 6.71454 16.4991 7M10.9289 1.00087L10.9286 3.80021C10.9286 4.92031 10.9286 5.48015 11.131 5.90797C11.309 6.2843 11.5929 6.59048 11.9424 6.78223C12.3393 7 12.8591 7 13.8971 7H16.4991" stroke="#333333" stroke-width="1.3" stroke-linecap="round" stroke-linejoin="round"/>
</svg>
