<svg width="16" height="16" viewBox="0 0 16 16" fill="none" xmlns="http://www.w3.org/2000/svg">
<g id="ic_faith_16">
<g id="Group 191">
<path id="Vector" d="M6.07143 3.42969H3.05C2.0564 3.42969 1.25 4.34353 1.25 5.46952V11.997C1.25 13.123 2.0564 14.0368 3.05 14.0368H12.95C13.9436 14.0368 14.75 13.123 14.75 11.997V5.46952C14.75 4.34353 13.9436 3.42969 12.95 3.42969H9.44643" stroke="#333333" stroke-linecap="round" stroke-linejoin="round"/>
<path id="Vector_2" d="M8.96289 11.1484H11.8557" stroke="#333333" stroke-linecap="round" stroke-linejoin="round"/>
<path id="Vector_3" d="M8.96289 8.25H11.8557" stroke="#333333" stroke-linecap="round" stroke-linejoin="round"/>
<path id="Vector_4" d="M8.00112 1.5C7.20269 1.5 6.55469 2.05862 6.55469 2.74692V5.07451C6.55469 5.76281 7.20269 6.32143 8.00112 6.32143C8.79954 6.32143 9.44754 5.76281 9.44754 5.07451V2.74692C9.44754 2.05862 8.79954 1.5 8.00112 1.5Z" stroke="#7E4F40" stroke-linecap="round" stroke-linejoin="round"/>
</g>
</g>
</svg>
