<svg width="17" height="16" viewBox="0 0 17 16" fill="none" xmlns="http://www.w3.org/2000/svg">
<path d="M6.88111 9.61786C5.024 7.76074 5.024 4.74996 6.88111 2.89284C8.73821 1.03572 11.749 1.03572 13.6061 2.89284C15.4632 4.74996 15.4632 7.76074 13.6061 9.61786C11.749 11.475 8.73821 11.475 6.88111 9.61786Z" stroke="#999999" stroke-linecap="round" stroke-linejoin="round"/>
<path d="M6.88111 9.61786C5.024 7.76074 5.024 4.74996 6.88111 2.89284C8.73821 1.03572 11.749 1.03572 13.6061 2.89284C15.4632 4.74996 15.4632 7.76074 13.6061 9.61786C11.749 11.475 8.73821 11.475 6.88111 9.61786Z" stroke="#999999" stroke-linecap="round" stroke-linejoin="round"/>
<path d="M10.2422 3.6875C10.8964 3.6875 11.5541 3.93723 12.0536 4.43668C12.553 4.93613 12.8027 5.59386 12.8027 6.24807" stroke="#999999" stroke-linecap="round" stroke-linejoin="round"/>
<path d="M6.64282 9.85938L2 14.5022" stroke="#999999" stroke-linecap="round" stroke-linejoin="round"/>
</svg>
