<svg width="17" height="16" viewBox="0 0 17 16" fill="none" xmlns="http://www.w3.org/2000/svg">
<path fill-rule="evenodd" clip-rule="evenodd" d="M3.57106 2H13.4298C14.3086 2 15.0197 2.79875 15.0197 3.78388V9.7273C15.0197 10.7118 14.3085 11.5109 13.4298 11.5109H12.5815V14.1259L10.0548 11.5109H3.57106C2.69369 11.5109 1.98145 10.7118 1.98145 9.7273V3.78388C1.98145 2.79874 2.69368 2 3.57106 2Z" stroke="#999999" stroke-linecap="round" stroke-linejoin="round"/>
<path fill-rule="evenodd" clip-rule="evenodd" d="M5.55886 7.6937C6.03416 7.6937 6.41947 7.30839 6.41947 6.83309C6.41947 6.35778 6.03416 5.97247 5.55886 5.97247C5.08355 5.97247 4.69824 6.35778 4.69824 6.83309C4.69824 7.30839 5.08355 7.6937 5.55886 7.6937Z" fill="#999999"/>
<path fill-rule="evenodd" clip-rule="evenodd" d="M8.42702 7.6937C8.90233 7.6937 9.28764 7.30839 9.28764 6.83309C9.28764 6.35778 8.90233 5.97247 8.42702 5.97247C7.95172 5.97247 7.56641 6.35778 7.56641 6.83309C7.56641 7.30839 7.95172 7.6937 8.42702 7.6937Z" fill="#999999"/>
<path fill-rule="evenodd" clip-rule="evenodd" d="M11.2971 7.6937C11.7724 7.6937 12.1578 7.30839 12.1578 6.83309C12.1578 6.35778 11.7724 5.97247 11.2971 5.97247C10.8218 5.97247 10.4365 6.35778 10.4365 6.83309C10.4365 7.30839 10.8218 7.6937 11.2971 7.6937Z" fill="#999999"/>
</svg>
