<svg width="16" height="16" viewBox="0 0 16 16" fill="none" xmlns="http://www.w3.org/2000/svg">
<g clip-path="url(#clip0_3843_1122)">
<path d="M12.7514 12.3836C14.7951 7.93996 11.6408 4.35996 11.6408 4.35996C11.8427 5.60177 11.7249 6.21632 11.422 6.90541C10.3077 3.15086 6.4747 1.54541 6.4747 1.54541C6.4747 1.54541 7.68256 4.76177 5.39586 6.63814C5.32481 6.69632 5.25376 6.75632 5.18084 6.81632C5.06679 5.50359 4.56757 5.05086 4.56757 5.05086C4.63862 6.01086 3.21575 6.98905 2.7614 8.73086C2.17243 10.9872 3.04747 12.5509 3.04747 12.5509L3.05121 12.5472C3.72992 14.2418 5.54357 15.4563 7.68069 15.4563C9.8178 15.4563 11.9007 14.2309 12.7496 12.3854L12.7514 12.3836Z" stroke="#333333" stroke-linecap="round" stroke-linejoin="round"/>
<path d="M10.4977 12.8482C10.4977 14.0375 9.3776 15 7.99885 15C6.62009 15 5.5 14.0355 5.5 12.8482C5.5 11.7643 6.2067 11.1677 6.83718 10.6646C7.99885 9.7418 7.82102 9 7.82102 9C7.82102 9 9.04504 9.80146 9.67783 10.593C10.2159 11.2691 10.5 11.8638 10.5 12.8482H10.4977Z" stroke="#7E4F40" stroke-linecap="round" stroke-linejoin="round"/>
</g>
<defs>
<clipPath id="clip0_3843_1122">
<rect width="12" height="15" fill="white" transform="translate(2 1)"/>
</clipPath>
</defs>
</svg>
