<svg width="17" height="16" viewBox="0 0 17 16" fill="none" xmlns="http://www.w3.org/2000/svg">
<path d="M15 8C15 9.79249 14.2728 11.4211 13.0965 12.597C11.9202 13.773 10.2948 14.5 8.49822 14.5C6.70167 14.5 5.07623 13.773 3.90348 12.597C2.72717 11.4211 2 9.79605 2 8C2 6.20395 2.72361 4.57895 3.89992 3.40296C5.07623 2.22697 6.70167 1.5 8.49465 1.5C10.2876 1.5 11.9166 2.22697 13.093 3.40296C14.2693 4.57895 14.9964 6.20395 14.9964 8H15Z" fill="#DDC6C0" stroke="#7E4F40" stroke-linecap="round" stroke-linejoin="round"/>
<path d="M6.2207 6.67969V7.67414" stroke="#7E4F40" stroke-linecap="round" stroke-linejoin="round"/>
<path d="M10.7734 6.67969V7.67414" stroke="#7E4F40" stroke-linecap="round" stroke-linejoin="round"/>
<path d="M10.3569 9.85938C9.88161 10.4342 9.22357 10.7879 8.49972 10.7879C7.77587 10.7879 7.11783 10.4342 6.64258 9.85938" stroke="#7E4F40" stroke-linecap="round" stroke-linejoin="round"/>
</svg>
