<svg width="52" height="34" viewBox="0 0 52 34" fill="none" xmlns="http://www.w3.org/2000/svg">
<g id="img_main_beta">
<mask id="mask0_84_3014" style="mask-type:alpha" maskUnits="userSpaceOnUse" x="0" y="0" width="52" height="34">
<rect id="Rectangle 117" width="52" height="34" fill="#D9D9D9"/>
</mask>
<g mask="url(#mask0_84_3014)">
<path id="&#237;&#140;&#168;&#236;&#138;&#164; 54015" fill-rule="evenodd" clip-rule="evenodd" d="M9 2L0 8H9V2Z" fill="#60A4F1"/>
<g id="&#236;&#130;&#172;&#234;&#176;&#129;&#237;&#152;&#149; 10579" filter="url(#filter0_d_84_3014)">
<path fill-rule="evenodd" clip-rule="evenodd" d="M9 2H48V19C48 23.4183 44.4183 27 40 27H17C12.5817 27 9 23.4183 9 19V2Z" fill="#60A4F1"/>
</g>
<g id="BETA">
<path id="&#237;&#140;&#168;&#236;&#138;&#164; 54091" fill-rule="evenodd" clip-rule="evenodd" d="M14 18.0401V9.16016H17.0943C18.1661 9.16016 18.9791 9.36661 19.5333 9.7792C20.0874 10.1919 20.3645 10.7968 20.3645 11.5936C20.3645 12.0287 20.2531 12.4119 20.0308 12.7433C19.8083 13.0747 19.4989 13.3176 19.1025 13.4721C19.5555 13.586 19.9125 13.8158 20.1734 14.1612C20.4343 14.5069 20.5647 14.9297 20.5647 15.4298C20.5647 16.2837 20.2937 16.9301 19.7517 17.3692C19.2097 17.8083 18.4371 18.032 17.434 18.0401H14ZM15.8203 12.8808H17.1672C18.0854 12.8647 18.5445 12.4966 18.5445 11.777C18.5445 11.3744 18.4282 11.0847 18.1956 10.9079C17.963 10.731 17.5959 10.6426 17.0945 10.6426H15.8203L15.8203 12.8808ZM15.8203 14.1738V16.5706H17.3795C17.8082 16.5706 18.143 16.468 18.3837 16.2627C18.6243 16.0575 18.7446 15.7739 18.7446 15.4119C18.7446 14.5988 18.326 14.186 17.4888 14.1738H15.8203Z" fill="white"/>
<path id="&#237;&#140;&#168;&#236;&#138;&#164; 54092" fill-rule="evenodd" clip-rule="evenodd" d="M27.0395 14.1917H23.5448V16.5702H27.6462V18.0401H21.7246V9.16016H27.634V10.6422H23.5448V12.7585H27.0395V14.1917Z" fill="white"/>
<path id="&#237;&#140;&#168;&#236;&#138;&#164; 54093" fill-rule="evenodd" clip-rule="evenodd" d="M35.2934 10.6422H32.5874V18.0401H30.7673V10.6422H28.0977V9.16016H35.2934V10.6422Z" fill="white"/>
<path id="&#237;&#140;&#168;&#236;&#138;&#164; 54094" fill-rule="evenodd" clip-rule="evenodd" d="M40.3742 16.2104H37.1827L36.5761 18.0401H34.6406L37.929 9.16016H39.6158L42.9224 18.0401H40.9869L40.3742 16.2104ZM37.6738 14.7281H39.8822L38.772 11.4043L37.6738 14.7281Z" fill="white"/>
</g>
<path id="&#235;&#148;&#177;&#236;&#167;&#128; &#235;&#175;&#184;&#236;&#132;&#160;&#237;&#131;&#157;" fill-rule="evenodd" clip-rule="evenodd" d="M0 8L9 2H48V19C48 23.4183 44.4183 27 40 27H17C12.5817 27 9 23.4183 9 19V8H0Z" fill="white" fill-opacity="0.5"/>
</g>
</g>
<defs>
<filter id="filter0_d_84_3014" x="5" y="0" width="47" height="33" filterUnits="userSpaceOnUse" color-interpolation-filters="sRGB">
<feFlood flood-opacity="0" result="BackgroundImageFix"/>
<feColorMatrix in="SourceAlpha" type="matrix" values="0 0 0 0 0 0 0 0 0 0 0 0 0 0 0 0 0 0 127 0" result="hardAlpha"/>
<feOffset dy="2"/>
<feGaussianBlur stdDeviation="2"/>
<feComposite in2="hardAlpha" operator="out"/>
<feColorMatrix type="matrix" values="0 0 0 0 0 0 0 0 0 0 0 0 0 0 0 0 0 0 0.278431 0"/>
<feBlend mode="normal" in2="BackgroundImageFix" result="effect1_dropShadow_84_3014"/>
<feBlend mode="normal" in="SourceGraphic" in2="effect1_dropShadow_84_3014" result="shape"/>
</filter>
</defs>
</svg>
