<svg width="16" height="16" viewBox="0 0 16 16" fill="none" xmlns="http://www.w3.org/2000/svg">
<g clip-path="url(#clip0_3738_1167)">
<path d="M4.50006 6.94904C5.13006 6.85904 6.47006 6.40904 7.40006 4.12904L7.42006 4.08904L8.28006 1.72904C8.55006 0.979044 9.38006 0.589044 10.1301 0.859044C10.8801 1.12904 11.2701 1.95904 11.0001 2.70904L9.74006 6.09904C9.92006 6.11904 10.0101 6.07904 10.1601 6.07904H13.1301C13.7401 6.07904 14.2601 6.57904 14.2401 7.18904C14.2101 8.29904 13.1601 8.29904 13.1601 8.29904H13.8301C14.4401 8.29904 14.9401 8.79904 14.9401 9.40904C14.9401 10.019 14.4401 10.519 13.8301 10.519H13.0101C13.5901 10.559 14.0501 11.029 14.0501 11.619C14.0501 12.209 13.5501 12.729 12.9401 12.729H12.2901C12.7501 12.869 13.1001 13.279 13.1001 13.789C13.1001 14.399 12.6001 14.899 11.9901 14.899H5.55006C4.96006 14.899 4.43006 14.649 4.06006 14.249" fill="white"/>
<path d="M4.50006 6.94904C5.13006 6.85904 6.47006 6.40904 7.40006 4.12904L7.42006 4.08904L8.28006 1.72904C8.55006 0.979044 9.38006 0.589044 10.1301 0.859044C10.8801 1.12904 11.2701 1.95904 11.0001 2.70904L9.74006 6.09904C9.92006 6.11904 10.0101 6.07904 10.1601 6.07904H13.1301C13.7401 6.07904 14.2601 6.57904 14.2401 7.18904C14.2101 8.29904 13.1601 8.29904 13.1601 8.29904H13.8301C14.4401 8.29904 14.9401 8.79904 14.9401 9.40904C14.9401 10.019 14.4401 10.519 13.8301 10.519H13.0101C13.5901 10.559 14.0501 11.029 14.0501 11.619C14.0501 12.209 13.5501 12.729 12.9401 12.729H12.2901C12.7501 12.869 13.1001 13.279 13.1001 13.789C13.1001 14.399 12.6001 14.899 11.9901 14.899H5.55006C4.96006 14.899 4.43006 14.649 4.06006 14.249" stroke="#111111" stroke-width="0.8" stroke-linecap="round" stroke-linejoin="round"/>
<path d="M3.61007 6.57031H2.24007C1.5939 6.57031 1.07007 7.09414 1.07007 7.74031V14.0403C1.07007 14.6865 1.5939 15.2103 2.24007 15.2103H3.61007C4.25624 15.2103 4.78007 14.6865 4.78007 14.0403V7.74031C4.78007 7.09414 4.25624 6.57031 3.61007 6.57031Z" fill="#A47768" stroke="#111111" stroke-width="0.8" stroke-linecap="round" stroke-linejoin="round"/>
<path d="M13.8002 8.30859H10.6902" stroke="#111111" stroke-width="0.8" stroke-linecap="round" stroke-linejoin="round"/>
<path d="M13.94 8.30859H13.8" stroke="#111111" stroke-width="0.8" stroke-linecap="round" stroke-linejoin="round"/>
<path d="M13.3402 10.5278L10.6902 10.5078" stroke="#111111" stroke-width="0.8" stroke-linecap="round" stroke-linejoin="round"/>
<path d="M12.6402 12.7405L10.6902 12.7305" stroke="#111111" stroke-width="0.8" stroke-linecap="round" stroke-linejoin="round"/>
<path d="M2.93016 13.9384C3.21734 13.9384 3.45016 13.7056 3.45016 13.4184C3.45016 13.1312 3.21734 12.8984 2.93016 12.8984C2.64297 12.8984 2.41016 13.1312 2.41016 13.4184C2.41016 13.7056 2.64297 13.9384 2.93016 13.9384Z" fill="#111111"/>
</g>
<defs>
<clipPath id="clip0_3738_1167">
<rect width="16" height="16" fill="white"/>
</clipPath>
</defs>
</svg>
