<svg width="52" height="34" viewBox="0 0 52 34" fill="none" xmlns="http://www.w3.org/2000/svg">
<g id="img_main_hot">
<mask id="mask0_84_2934" style="mask-type:alpha" maskUnits="userSpaceOnUse" x="0" y="0" width="52" height="34">
<rect id="Rectangle 117" width="52" height="34" fill="#D9D9D9"/>
</mask>
<g mask="url(#mask0_84_2934)">
<path id="&#237;&#140;&#168;&#236;&#138;&#164; 54015" fill-rule="evenodd" clip-rule="evenodd" d="M15 2L6 8H15V2Z" fill="#F9BE66"/>
<g id="&#236;&#130;&#172;&#234;&#176;&#129;&#237;&#152;&#149; 10579" filter="url(#filter0_d_84_2934)">
<path fill-rule="evenodd" clip-rule="evenodd" d="M15 2H48V19C48 23.4183 44.4183 27 40 27H23C18.5817 27 15 23.4183 15 19V2Z" fill="#FEBE28"/>
</g>
<path id="&#237;&#140;&#168;&#236;&#138;&#164; 54046" fill-rule="evenodd" clip-rule="evenodd" d="M20.0918 19.0011H21.8678V15.1611H25.2278V19.0011H26.9918V10.1211H25.2278V13.6131H21.8678V10.1211H20.0918V19.0011ZM32.1029 19.1691C34.4549 19.1691 36.0749 17.4051 36.0749 14.5251C36.0749 11.6451 34.4549 9.95312 32.1029 9.95312C29.7509 9.95312 28.1309 11.6331 28.1309 14.5251C28.1309 17.4051 29.7509 19.1691 32.1029 19.1691ZM32.1034 17.6326C30.7834 17.6326 29.9434 16.4206 29.9434 14.5246C29.9434 12.6166 30.7834 11.4766 32.1034 11.4766C33.4234 11.4766 34.2634 12.6166 34.2634 14.5246C34.2634 16.4206 33.4234 17.6326 32.1034 17.6326ZM38.6073 19.0011H40.3833V11.5971H42.9033V10.1211H36.1113V11.5971H38.6073V19.0011Z" fill="white"/>
</g>
</g>
<defs>
<filter id="filter0_d_84_2934" x="11" y="0" width="41" height="33" filterUnits="userSpaceOnUse" color-interpolation-filters="sRGB">
<feFlood flood-opacity="0" result="BackgroundImageFix"/>
<feColorMatrix in="SourceAlpha" type="matrix" values="0 0 0 0 0 0 0 0 0 0 0 0 0 0 0 0 0 0 127 0" result="hardAlpha"/>
<feOffset dy="2"/>
<feGaussianBlur stdDeviation="2"/>
<feComposite in2="hardAlpha" operator="out"/>
<feColorMatrix type="matrix" values="0 0 0 0 0 0 0 0 0 0 0 0 0 0 0 0 0 0 0.278431 0"/>
<feBlend mode="normal" in2="BackgroundImageFix" result="effect1_dropShadow_84_2934"/>
<feBlend mode="normal" in="SourceGraphic" in2="effect1_dropShadow_84_2934" result="shape"/>
</filter>
</defs>
</svg>
