<svg xmlns="http://www.w3.org/2000/svg" width="18.034" height="14.319" viewBox="0 0 18.034 14.319">
    <path d="M7.909 12.641a11.447 11.447 0 0 1 1.8-2.348 17.286 17.286 0 0 1 3.25-2.753c.478-.371 1.879-1.206 2.277-2.054a2.235 2.235 0 0 0-.195-2.212 2.432 2.432 0 0 0-2.324-.733c-1.094.256-1.757 1.2-2.382 2.951a8.475 8.475 0 0 1-1.548 2.943 5.332 5.332 0 0 1-2.406 1.532 4.968 4.968 0 0 1-2.457.1 4.766 4.766 0 0 1-2.171-1.1A5.449 5.449 0 0 1 0 5.092a4.875 4.875 0 0 1 1.6-3.678A4.97 4.97 0 0 1 4.083.085a4.593 4.593 0 0 1 2.225.131 5.755 5.755 0 0 1 2.076 1.152L6.706 3.194l.007.007a3.335 3.335 0 0 0-1.189-.63 2.174 2.174 0 0 0-2.215.646 2.425 2.425 0 0 0-.829 1.841 2.979 2.979 0 0 0 .92 2.06 2.392 2.392 0 0 0 2.268.473c.621-.185 1.587-.836 2.266-2.742A8.68 8.68 0 0 1 9.605 1.64 5.035 5.035 0 0 1 12.151.125 4.909 4.909 0 0 1 16.9 1.634a4.32 4.32 0 0 1 1.124 3.2 4.667 4.667 0 0 1-1.685 3.148c-.943.863-2.2 1.587-3.573 2.931A14.141 14.141 0 0 0 10 14.32" transform="translate(-.001 -.001)" style="fill:#7e4f40"/>
</svg>
