<svg xmlns="http://www.w3.org/2000/svg" width="60" height="60" viewBox="0 0 60 60">
    <g transform="translate(-126.117 -57.108)">
        <circle data-name="타원 1418" cx="30" cy="30" r="30" transform="translate(126.117 57.108)" style="fill:#f5f5f5"/>
        <g data-name="그룹 36474">
            <path data-name="사각형 12917" transform="translate(140.689 71.723)" style="fill:none" d="M0 0h30.857v30.409H0z"/>
            <path data-name="패스 59677" d="m182.1 701.026-2.2-5.4a.428.428 0 0 1 .181-.551 12.515 12.515 0 0 1 9.311.005.436.436 0 0 1 .188.56l-2.218 5.383z" style="stroke-miterlimit:10;stroke:#7e4f40;stroke-width:2px;fill:none" transform="translate(-28.625 -622.501)"/>
            <path data-name="패스 59678" d="M197.87 710.379c-1.44-3.6-8.808-9.348-8.808-9.348l-.485-.383h-7.628l-.485.383s-7.406 5.743-8.848 9.348c0 0-3.919 7.522 2.613 11.982a20.326 20.326 0 0 0 10.49 2.836h.051a20.328 20.328 0 0 0 10.49-2.836c6.53-4.461 2.61-11.982 2.61-11.982z" style="stroke-linecap:round;stroke-linejoin:round;stroke:#7e4f40;stroke-width:2px;fill:none" transform="translate(-28.625 -622.501)"/>
            <path data-name="사각형 12918" d="M181.393 699.241h6.7a1 1 0 0 1 .895 1.082 1 1 0 0 1-.895 1.082h-6.7a1 1 0 0 1-.9-1.082 1 1 0 0 1 .9-1.082z" style="fill:#7e4f40" transform="translate(-28.625 -622.501)"/>
        </g>
        <path data-name="패스 59659" d="M190.532 712.361h-.454l.992-2.9a1.04 1.04 0 1 0-1.941-.747 1 1 0 0 0-.027.077l-1.907 5.562-1.461-4.267a1.04 1.04 0 0 0-1.968 0l-1.467 4.267-1.909-5.566a1.04 1.04 0 1 0-1.994.593.994.994 0 0 0 .026.077l.992 2.9h-.453a1.04 1.04 0 0 0 0 2.08h1.166l1.183 3.464a1.04 1.04 0 0 0 1.966 0l1.464-4.267 1.465 4.267a1.04 1.04 0 0 0 1.967 0l1.188-3.46h1.166a1.04 1.04 0 1 0 0-2.08" transform="translate(-28.625 -622.501)" style="stroke:#fff8f5;stroke-width:.2px;fill:#7e4f40;stroke-miterlimit:10"/>
    </g>
</svg>
