<svg xmlns="http://www.w3.org/2000/svg" width="53" height="47" viewBox="0 0 53 47">
    <defs>
        <clipPath id="p0fzxtiiia">
            <path data-name="사각형 12654" transform="translate(-.18 -.128)" style="fill:none" d="M0 0h53v47H0z"/>
        </clipPath>
    </defs>
    <g data-name="그룹 36369" transform="translate(.713 2.278)" style="clip-path:url(#p0fzxtiiia)">
        <path data-name="패스 59585" d="M71.135 13.907a1.111 1.111 0 0 1-1.111-1.107v-2.6a1.111 1.111 0 0 1 2.222 0v2.6a1.111 1.111 0 0 1-1.111 1.111" transform="translate(-25.874 -3.36)" style="fill:#dfdfdf"/>
        <path data-name="패스 59586" d="M69.616 4.813A1.111 1.111 0 0 1 68.505 3.7V2.221h-1.481a1.111 1.111 0 0 1 0-2.221h2.592a1.111 1.111 0 0 1 1.111 1.111V3.7a1.111 1.111 0 0 1-1.111 1.111" transform="translate(-24.355)" style="fill:#dfdfdf"/>
        <path data-name="패스 59587" d="M41.884 2.221h-5.567a1.111 1.111 0 1 1 0-2.221h5.567a1.111 1.111 0 1 1 0 2.221m-11.133 0h-5.567a1.111 1.111 0 0 1 0-2.221h5.566a1.111 1.111 0 1 1 0 2.221m-11.133 0H14.05a1.111 1.111 0 0 1 0-2.221h5.567a1.111 1.111 0 1 1 0 2.221" transform="translate(-4.781)" style="fill:#dfdfdf"/>
        <path data-name="패스 59588" d="M1.111 4.813A1.111 1.111 0 0 1 0 3.7V1.111A1.111 1.111 0 0 1 1.111 0H3.7a1.111 1.111 0 0 1 0 2.221H2.222V3.7a1.111 1.111 0 0 1-1.111 1.113" style="fill:#dfdfdf"/>
        <path data-name="패스 59589" d="M1.111 34.206A1.111 1.111 0 0 1 0 33.1v-6.083a1.111 1.111 0 0 1 2.222 0V33.1a1.111 1.111 0 0 1-1.111 1.111m0-12.156A1.111 1.111 0 0 1 0 20.939v-6.077a1.111 1.111 0 0 1 2.222 0v6.077a1.111 1.111 0 0 1-1.111 1.111" transform="translate(0 -5.081)" style="fill:#dfdfdf"/>
        <path data-name="패스 59590" d="M3.7 57.123H1.11A1.11 1.11 0 0 1 0 56.013v-2.592a1.111 1.111 0 1 1 2.221 0V54.9H3.7a1.111 1.111 0 1 1 0 2.221" transform="translate(0 -19.328)" style="fill:#dfdfdf"/>
        <path data-name="패스 59591" d="M12.8 58.642h-2.595a1.111 1.111 0 0 1 0-2.221H12.8a1.111 1.111 0 1 1 0 2.221" transform="translate(-3.361 -20.847)" style="fill:#dfdfdf"/>
        <path data-name="패스 59592" d="m48.047 42.345-1.595 2.129a1.663 1.663 0 0 1-2.661 0l-3.675-4.906a1.662 1.662 0 0 0-2.661 0l-6.9 9.212a1.662 1.662 0 0 0 1.33 2.659H54.2a1.662 1.662 0 0 0 1.331-2.659l-4.821-6.435a1.662 1.662 0 0 0-2.661 0" transform="translate(-11.166 -14.374)" style="fill:#dfdfdf"/>
        <path data-name="패스 59593" d="M66.738 33.415a2.056 2.056 0 1 0-2.056 2.057 2.056 2.056 0 0 0 2.056-2.057" transform="translate(-23.14 -11.587)" style="fill:#dfdfdf"/>
        <rect data-name="사각형 12653" width="39.587" height="31.896" rx="4.73" transform="translate(11.718 11.275)" style="stroke:#dfdfdf;stroke-miterlimit:10;stroke-width:3.523px;fill:none"/>
    </g>
</svg>
