<svg xmlns="http://www.w3.org/2000/svg" width="24" height="24" viewBox="0 0 24 24">
    <path data-name="사각형 2627" style="fill:none" d="M0 0h24v24H0z"/>
    <g data-name="그룹 22923">
        <path data-name="패스 21170" d="M87.569 736.734h-12.5l-.6-1.914-.066-.212-.151-.486a1.851 1.851 0 0 0-1.658-1.216h-3.57a1.28 1.28 0 0 0-1.275 1.275v17.438a1.281 1.281 0 0 0 1.275 1.276h18.545a1.281 1.281 0 0 0 1.276-1.276v-13.61a1.28 1.28 0 0 0-1.276-1.275z" transform="translate(-65.932 -730.835)" style="stroke:#555;stroke-linecap:round;stroke-linejoin:round;stroke-width:1.5px;fill:none"/>
        <path data-name="패스 21171" d="m86.987 736.734-.6-1.914-.217-.7a1.852 1.852 0 0 0-1.657-1.216H80.94a1.28 1.28 0 0 0-1.277 1.275v.427l.066.212" transform="translate(-71.188 -730.835)" style="stroke:#555;stroke-linecap:round;stroke-linejoin:round;stroke-width:1.5px;fill:none"/>
    </g>
</svg>
