<svg xmlns="http://www.w3.org/2000/svg" width="24" height="24" viewBox="0 0 24 24">
    <path data-name="사각형 2627" style="fill:none" d="M0 0h24v24H0z"/>
    <g data-name="그룹 36398">
        <path data-name="패스 59629" d="M10.113 20.226a10.113 10.113 0 1 1 10.112-10.113 10.125 10.125 0 0 1-10.112 10.113m0-18.746a8.633 8.633 0 1 0 8.632 8.633 8.643 8.643 0 0 0-8.632-8.633" transform="translate(.541 .059)" style="fill:#555"/>
        <path data-name="패스 59630" d="M54.74 55.483a.738.738 0 0 1-.523-.217l-5.485-5.484a.74.74 0 0 1 1.046-1.046l5.485 5.484a.74.74 0 0 1-.523 1.263" transform="translate(-32.022 -31.541)" style="fill:#555"/>
    </g>
</svg>
