<svg xmlns="http://www.w3.org/2000/svg" width="120" height="120" viewBox="0 0 120 120">
    <g transform="translate(-106.059 -231.34)">
        <circle data-name="타원 1458" cx="60" cy="60" r="60" transform="translate(106.059 231.34)" style="fill:#fff0eb"/>
        <g transform="translate(130.059 258.52)">
            <rect data-name="사각형 4924" width="32.679" height="35.176" rx="1" transform="translate(18.933 25.242)" style="fill:#fff"/>
            <path data-name="패스 48655" d="M45.27 490.882a1.091 1.091 0 0 1-1.08-.951 7.038 7.038 0 0 1-.058-.9v-33.077a1.091 1.091 0 1 1 2.182 0v33.076a4.848 4.848 0 0 0 .04.621 1.092 1.092 0 0 1-1.083 1.231z" transform="translate(-25.754 -429.897)" style="fill:#8e6051"/>
            <path data-name="패스 48656" d="M64.286 491.032a1.092 1.092 0 0 1-1.078-1.267 4.686 4.686 0 0 0 .058-.752v-33.06a1.091 1.091 0 1 1 2.182 0v33.06a6.872 6.872 0 0 1-.087 1.1 1.091 1.091 0 0 1-1.075.919z" transform="translate(-12.573 -429.897)" style="fill:#8e6051"/>
            <path data-name="패스 48657" d="M74.227 490.19a1.111 1.111 0 0 1-.118-.006 1.091 1.091 0 0 1-.968-1.2 10.378 10.378 0 0 0 .058-1.1v-22.561c0-3.031-1.22-4.965-2.06-4.965H68.3a1.091 1.091 0 1 1 0-2.182h2.842a3.744 3.744 0 0 1 3.2 2.361 10.583 10.583 0 0 1 1.046 4.786v22.557a12.576 12.576 0 0 1-.07 1.335 1.091 1.091 0 0 1-1.091.975z" transform="translate(-6.165 -429.14)" style="fill:#8e6051"/>
            <path data-name="선 795" d="M6.139 1.432H.341a1.091 1.091 0 1 1 0-2.182h5.8a1.091 1.091 0 0 1 0 2.182z" transform="translate(51.679 29.866)" style="fill:#8e6051"/>
            <path data-name="패스 48658" d="M35.812 490.289a1.091 1.091 0 0 1-1.071-.889 8.334 8.334 0 0 1-.142-1.539v-22.542c0-3.939 2.759-7.143 6.15-7.143h11.044a1.091 1.091 0 0 1 0 2.182H40.749c-2.188 0-3.968 2.226-3.968 4.961v22.542a6.149 6.149 0 0 0 .1 1.135 1.092 1.092 0 0 1-1.073 1.293z" transform="translate(-32.345 -429.14)" style="fill:#8e6051"/>
            <path data-name="선 796" d="M70.159 1.432H.341a1.091 1.091 0 0 1 0-2.182h69.818a1.091 1.091 0 1 1 0 2.182z" transform="translate(.75 60.672)" style="fill:#8e6051"/>
            <g data-name="그룹 32897" transform="translate(26.476 36.027)">
                <rect data-name="사각형 13037" width="15.636" height="17.721" rx="3" transform="translate(1.186 1.313)" style="fill:#fff0eb"/>
                <path data-name="패스 48661" d="M62.52 478.891h-9.635a3.814 3.814 0 0 1-3.966-3.631 1.091 1.091 0 0 1 2.182 0 1.645 1.645 0 0 0 1.785 1.45h9.634a1.645 1.645 0 0 0 1.785-1.45v-8.887a1.091 1.091 0 1 1 2.182 0v8.887a3.814 3.814 0 0 1-3.967 3.631z" transform="translate(-48.919 -458.764)" style="fill:#8e6051"/>
                <path data-name="패스 48662" d="M50.01 474.941a1.091 1.091 0 0 1-1.091-1.091v-8.165c0-1.856 1.779-3.365 3.966-3.365h9.635c2.187 0 3.966 1.51 3.966 3.365a1.091 1.091 0 0 1-2.182 0c0-.63-.834-1.184-1.785-1.184h-9.634c-.951 0-1.785.553-1.785 1.184v8.165a1.091 1.091 0 0 1-1.09 1.091z" transform="translate(-48.919 -462.319)" style="fill:#8e6051"/>
                <path data-name="선 797" d="M.341 19.376A1.091 1.091 0 0 1-.75 18.285V.341a1.091 1.091 0 0 1 2.182 0v17.944a1.091 1.091 0 0 1-1.091 1.091z" transform="translate(8.443 .75)" style="fill:#8e6051"/>
            </g>
            <path data-name="패스 48663" d="M67.524 471.2H51.6a5.361 5.361 0 0 1-5.355-5.355V449.92a5.361 5.361 0 0 1 5.355-5.355h11.17a1.091 1.091 0 1 1 0 2.182H51.6a3.177 3.177 0 0 0-3.173 3.173v15.927a3.177 3.177 0 0 0 3.173 3.173h15.924a3.177 3.177 0 0 0 3.173-3.173V449.92a3.177 3.177 0 0 0-3.173-3.173H66.1a1.091 1.091 0 1 1 0-2.182h1.423a5.361 5.361 0 0 1 5.355 5.355v15.927a5.361 5.361 0 0 1-5.354 5.353z" transform="translate(-24.295 -444.565)" style="fill:#8e6051"/>
            <path data-name="패스 48664" d="M65.277 454.166h-4.131v-4.129a1.073 1.073 0 0 0-1.074-1.074h-3.1a1.073 1.073 0 0 0-1.074 1.074v4.129h-4.126a1.076 1.076 0 0 0-1.072 1.074v3.1a1.076 1.076 0 0 0 1.074 1.074H55.9v4.129a1.073 1.073 0 0 0 1.074 1.074h3.1a1.073 1.073 0 0 0 1.074-1.074v-4.129h4.131a1.076 1.076 0 0 0 1.074-1.074v-3.1a1.076 1.076 0 0 0-1.076-1.074z" transform="translate(-23.252 -443.237)" style="opacity:.7;fill:#fff"/>
            <path data-name="패스 48665" d="M58.793 463.792h-2.757a2.049 2.049 0 0 1-2.047-2.047v-2.586H51.4a2.05 2.05 0 0 1-2.048-2.047v-2.757a2.051 2.051 0 0 1 2.048-2.048h2.59v-2.585a2.05 2.05 0 0 1 2.047-2.048h2.757a2.05 2.05 0 0 1 2.047 2.048v2.585h.584a1.087 1.087 0 0 1 .715.267 1.087 1.087 0 0 1 .715-.267h.572a2.05 2.05 0 0 1 2.047 2.048v2.757a2.049 2.049 0 0 1-2.047 2.047H60.84v2.586a2.049 2.049 0 0 1-2.047 2.047zm-2.622-2.182h2.487v-3.542a1.091 1.091 0 0 1 1.091-1.091h3.542v-2.488h-.436a1.087 1.087 0 0 1-.715-.267 1.087 1.087 0 0 1-.715.267h-1.676a1.091 1.091 0 0 1-1.091-1.091v-3.542h-2.487v3.544a1.091 1.091 0 0 1-1.091 1.091h-3.543v2.488h3.544a1.091 1.091 0 0 1 1.091 1.091z" transform="translate(-22.142 -442.415)" style="fill:#8e6051"/>
            <path data-name="패스 48666" d="M43.575 469.438h-3.761a2.257 2.257 0 0 1-2.255-2.255v-3.762a2.258 2.258 0 0 1 2.255-2.256h.918a1.091 1.091 0 1 1 0 2.182h-.918a.075.075 0 0 0-.073.075v3.762a.073.073 0 0 0 .073.073h3.762a.075.075 0 0 0 .075-.073v-3.762a.076.076 0 0 0-.075-.075H43.3a1.091 1.091 0 1 1 0-2.182h.279a2.259 2.259 0 0 1 2.256 2.256v3.762a2.258 2.258 0 0 1-2.26 2.255z" transform="translate(-30.298 -424.085)" style="fill:#8e6051"/>
            <path data-name="사각형 4919" d="M1.342-.75H5.43a2.1 2.1 0 0 1 2.093 2.092V5.43A2.1 2.1 0 0 1 5.43 7.523H1.342A2.1 2.1 0 0 1-.75 5.43V1.342A2.1 2.1 0 0 1 1.342-.75zm4 2.182h-3.91v3.909h3.909z" transform="translate(8.01 47.177)" style="fill:#8e6051"/>
            <path data-name="사각형 4920" d="M1.342-.75H5.43a2.1 2.1 0 0 1 2.093 2.092V5.43A2.1 2.1 0 0 1 5.43 7.523H1.342A2.1 2.1 0 0 1-.75 5.43V1.342A2.1 2.1 0 0 1 1.342-.75zm4 2.182h-3.91v3.909h3.909z" transform="translate(56.685 37.831)" style="fill:#8e6051"/>
            <path data-name="패스 48667" d="M65.932 458.395H61.45v-2.182h4.482a.825.825 0 0 0 .824-.824v-.211a.825.825 0 0 0-.824-.824H61.45v-2.182h4.482a3.009 3.009 0 0 1 3.006 3.006v.211a3.009 3.009 0 0 1-3.006 3.006z" transform="translate(-13.956 -431.758)" style="fill:#8e6051"/>
            <path data-name="패스 48668" d="M75.425 458.395H45.466a3.009 3.009 0 0 1-3.006-3.006v-.211a3.009 3.009 0 0 1 3.006-3.006h4.482v2.182h-4.482a.825.825 0 0 0-.824.824v.211a.825.825 0 0 0 .824.824h29.959z" transform="translate(-26.91 -431.758)" style="fill:#8e6051"/>
            <path data-name="패스 48669" d="M72.352 474.964h-3.761a2.258 2.258 0 0 1-2.255-2.256v-3.762a2.257 2.257 0 0 1 2.255-2.255h.92a1.091 1.091 0 0 1 0 2.182h-.92a.073.073 0 0 0-.073.073v3.762a.075.075 0 0 0 .073.074h3.762a.075.075 0 0 0 .075-.074v-3.762a.073.073 0 0 0-.075-.073h-.279a1.091 1.091 0 0 1 0-2.182h.279a2.258 2.258 0 0 1 2.256 2.255v3.762a2.259 2.259 0 0 1-2.257 2.256z" transform="translate(-10.4 -420.264)" style="fill:#8e6051"/>
        </g>
    </g>
</svg>
