<svg xmlns="http://www.w3.org/2000/svg" width="18" height="18" viewBox="0 0 18 18">
    <path data-name="사각형 12912" style="fill:none;opacity:.46" d="M0 0h18v18H0z"/>
    <path data-name="패스 59662" d="M8.75 0a8.75 8.75 0 1 0 8.75 8.75A8.76 8.76 0 0 0 8.75 0m4.282 10.373h-.863l-.879 2.561a.77.77 0 0 1-1.456 0L8.751 9.776l-1.085 3.158a.77.77 0 0 1-1.456 0l-.879-2.561h-.863a.77.77 0 0 1 0-1.54H4.8l-.731-2.142a.77.77 0 0 1 1.457-.5l1.413 4.12 1.083-3.158a.77.77 0 0 1 1.457 0l1.083 3.158 1.414-4.12a.77.77 0 0 1 1.456.5L12.7 8.833h.335a.77.77 0 0 1 0 1.54" transform="translate(.25 .25)" style="fill:#7e4f40"/>
</svg>
