<svg xmlns="http://www.w3.org/2000/svg" width="18" height="18" viewBox="0 0 18 18">
    <path data-name="사각형 12910" style="opacity:.46;fill:none" d="M0 0h18v18H0z"/>
    <g data-name="그룹 36446" transform="translate(-18.777 -20.57)">
        <path data-name="패스 59659" d="M13.279 9.124h-.338l.74-2.16a.776.776 0 1 0-1.468-.5l-1.423 4.149L9.7 7.43a.776.776 0 0 0-1.468 0l-1.094 3.183-1.424-4.152a.776.776 0 1 0-1.468.5l.74 2.16h-.338a.776.776 0 0 0 0 1.552h.87l.882 2.584a.776.776 0 0 0 1.467 0l1.092-3.183 1.093 3.183a.776.776 0 0 0 1.467 0l.886-2.581h.87a.776.776 0 0 0 0-1.552" transform="translate(18.879 20.461)" style="fill:#aeb0b5"/>
        <ellipse data-name="타원 1448" cx="8.033" cy="8.034" rx="8.033" ry="8.034" transform="translate(19.744 21.537)" style="stroke:#aeb0b5;stroke-miterlimit:10;stroke-width:1.5px;fill:none"/>
    </g>
</svg>
