<svg xmlns="http://www.w3.org/2000/svg" width="18" height="18" viewBox="0 0 18 18">
    <path data-name="사각형 5" style="fill:none" d="M0 0h18v18H0z"/>
    <path data-name="패스 9" d="M1181.766 411.972v-.526c0-2.644 2.506-4.787 5.6-4.787h0c3.091 0 5.6 2.143 5.6 4.787V412" transform="translate(-1178.362 -404.99)" style="stroke:#7e4f40;stroke-linecap:round;stroke-linejoin:round;stroke-width:1.5px;fill:none"/>
    <g data-name="그룹 10">
        <path data-name="패스 10" d="M1182.653 412.433h-.524a3.259 3.259 0 0 0 0 6.488h.524a.678.678 0 0 0 .644-.708v-5.072a.678.678 0 0 0-.644-.708z" style="fill:#ddc6c0;stroke:#7e4f40;stroke-linecap:round;stroke-linejoin:round;stroke-width:1.5px" transform="translate(-1178.362 -404.99)"/>
        <path data-name="패스 11" d="M1192.071 412.433h.524a3.259 3.259 0 0 1 0 6.488h-.524a.678.678 0 0 1-.644-.708v-5.072a.678.678 0 0 1 .644-.708z" style="fill:#ddc6c0;stroke:#7e4f40;stroke-linecap:round;stroke-linejoin:round;stroke-width:1.5px" transform="translate(-1178.362 -404.99)"/>
    </g>
    <path data-name="패스 12" d="M1192.65 419.078v.581a1.557 1.557 0 0 1-1.557 1.557h-1.678" transform="translate(-1178.362 -404.99)" style="stroke:#7e4f40;stroke-linecap:round;stroke-linejoin:round;stroke-width:1.5px;fill:none"/>
</svg>
