<svg xmlns="http://www.w3.org/2000/svg" width="18" height="18" viewBox="0 0 18 18">
    <path data-name="사각형 2627" style="fill:none" d="M0 0h18v18H0z"/>
    <g data-name="그룹 11">
        <path data-name="빼기 1" d="M17507.186 16790.7h-1.152c-.76 0-1-.434-1.209-.955l-.312-.865a6.386 6.386 0 0 1-2.25-1.354l-.941.154a3.073 3.073 0 0 1-.4.031 1.067 1.067 0 0 1-1.027-.625l-.293-.537.035.066-.295-.537a1.184 1.184 0 0 1 .25-1.52l.668-.766.018.035a5.738 5.738 0 0 1 0-1.934l-.018.035-.668-.766a1.186 1.186 0 0 1-.25-1.52l.295-.537-.035.066.293-.537a1.062 1.062 0 0 1 1.018-.623 2.859 2.859 0 0 1 .406.031l.941.148a6.428 6.428 0 0 1 2.25-1.35l.313-.865c.213-.523.451-.959 1.209-.959h1.152c.758 0 1 .436 1.209.959l.311.865a6.3 6.3 0 0 1 2.211 1.314l.941-.158a3.337 3.337 0 0 1 .416-.035 1.053 1.053 0 0 1 1.008.615l.3.531-.039-.061.3.527a1.2 1.2 0 0 1-.236 1.525l-.664.77-.018-.031a6.479 6.479 0 0 1 .092 1.02 6.4 6.4 0 0 1-.092 1.02l.018-.035.664.77a1.188 1.188 0 0 1 .236 1.525l-.3.531.039-.061-.3.531a1.052 1.052 0 0 1-1.006.615 2.954 2.954 0 0 1-.418-.035l-.941-.158a6.389 6.389 0 0 1-2.211 1.314l-.311.865c-.211.531-.448.961-1.207.961zm-.541-11.029a3.189 3.189 0 1 0 3.191 3.191 3.193 3.193 0 0 0-3.191-3.188z" transform="translate(-17497.165 -16774.025)" style="fill:#ddc6c0;stroke:#7e4f40;stroke-linecap:round;stroke-linejoin:round;stroke-width:1.5px"/>
    </g>
</svg>
