<svg xmlns="http://www.w3.org/2000/svg" width="18.107" height="18" viewBox="0 0 18.107 18">
    <path data-name="패스 59739" d="M1.338 12.509v3.363a.944.944 0 0 0 .94.94h3.331" style="fill:#7e4f40"/>
    <path data-name="패스 59740" d="M1.338 12.509v3.363a.944.944 0 0 0 .94.94h3.331" style="stroke-linejoin:round;stroke:#7e4f40;stroke-linecap:round;stroke-width:1.5px;fill:none"/>
    <path data-name="선 1173" transform="translate(10.304 16.811)" style="stroke-miterlimit:10;stroke:#7e4f40;stroke-linecap:round;stroke-width:1.5px;fill:none" d="M6.743 0H0"/>
    <path data-name="사각형 12993" transform="rotate(-45 15.696 4.597)" style="stroke-linejoin:round;stroke:#7e4f40;stroke-linecap:round;stroke-width:1.5px;fill:none" d="M0 0h16.049v6.154H0z"/>
    <path data-name="선 1174" transform="translate(5.217 8.189)" style="stroke-miterlimit:10;stroke:#7e4f40;stroke-linecap:round;stroke-width:1.5px;fill:none" d="M0 4.693 4.693 0"/>
    <path data-name="선 1175" transform="translate(10.196 4.66)" style="stroke-miterlimit:10;stroke:#7e4f40;stroke-linecap:round;stroke-width:1.5px;fill:none" d="M3.288 3.288 0 0"/>
    <path data-name="사각형 12994" transform="rotate(-45 9.488 -10.024)" style="fill:#7e4f40" d="M0 0h3.698v6.305H0z"/>
    <path data-name="사각형 12995" style="fill:none" d="M0 0h18v18H0z"/>
</svg>
