<svg width="336" height="106" viewBox="0 0 336 106" fill="none" xmlns="http://www.w3.org/2000/svg">
<rect width="336" height="106" fill="#7E4F40" fill-opacity="0.8"/>
<path d="M150.316 64.6372H152.46V73.0052H150.316V64.6372ZM142.604 73.6772H152.46V79.2772H142.604V73.6772ZM150.364 75.3412H144.684V77.5972H150.364V75.3412ZM144.396 65.3092C146.7 65.3092 148.412 66.7812 148.412 68.8612C148.412 70.9252 146.7 72.4132 144.396 72.4132C142.092 72.4132 140.364 70.9252 140.364 68.8612C140.364 66.7812 142.092 65.3092 144.396 65.3092ZM144.396 67.0692C143.276 67.0692 142.444 67.7252 142.444 68.8612C142.444 69.9812 143.276 70.6372 144.396 70.6372C145.516 70.6372 146.332 69.9812 146.332 68.8612C146.332 67.7252 145.516 67.0692 144.396 67.0692ZM157.675 65.7572H159.403V67.9172C159.403 71.7252 158.091 75.1652 155.147 76.5252L153.883 74.7652C156.459 73.6452 157.675 70.7972 157.675 67.9172V65.7572ZM158.091 65.7572H159.819V67.9172C159.819 70.6532 160.987 73.3732 163.515 74.4612L162.267 76.1732C159.403 74.8612 158.091 71.5652 158.091 67.9172V65.7572ZM164.219 64.6052H166.363V79.4692H164.219V64.6052ZM178.281 64.6052H180.41V79.4692H178.281V64.6052ZM175.689 69.7892H178.778V71.5012H175.689V69.7892ZM171.401 66.9572H173.082V68.2692C173.082 71.8852 171.769 75.3412 169.001 76.7012L167.753 75.0212C170.233 73.8532 171.401 71.0212 171.401 68.2692V66.9572ZM171.898 66.9572H173.562V68.2692C173.562 70.8772 174.714 73.6132 177.194 74.7332L175.962 76.3972C173.177 75.0852 171.898 71.7732 171.898 68.2692V66.9572ZM168.361 66.0452H176.602V67.7572H168.361V66.0452ZM185.192 66.2692H186.936V67.1972C186.936 70.0292 185.608 72.5732 182.744 73.5172L181.688 71.8372C184.152 71.0212 185.192 69.0852 185.192 67.1972V66.2692ZM185.624 66.2692H187.352V67.1972C187.352 68.9252 188.344 70.6212 190.728 71.3412L189.72 73.0052C186.904 72.1572 185.624 69.8372 185.624 67.1972V66.2692ZM182.248 65.6132H190.248V67.3092H182.248V65.6132ZM191.432 64.6212H193.56V73.4052H191.432V64.6212ZM192.968 68.0292H195.528V69.7732H192.968V68.0292ZM188.728 73.6772C191.8 73.6772 193.736 74.7492 193.736 76.5572C193.736 78.3652 191.8 79.4372 188.728 79.4372C185.64 79.4372 183.704 78.3652 183.704 76.5572C183.704 74.7492 185.64 73.6772 188.728 73.6772ZM188.728 75.3412C186.84 75.3412 185.816 75.7252 185.816 76.5572C185.816 77.3892 186.84 77.8052 188.728 77.8052C190.616 77.8052 191.624 77.3892 191.624 76.5572C191.624 75.7252 190.616 75.3412 188.728 75.3412Z" fill="white"/>
<path d="M155.095 40.835L165.344 50.6582L180.911 32.2188" stroke="white" stroke-width="3" stroke-linecap="round" stroke-linejoin="round"/>
</svg>
