<svg width="200" height="31" viewBox="0 0 200 31" fill="none" xmlns="http://www.w3.org/2000/svg">
<g id="img_carenation">
<g id="Group 4">
<path id="&#237;&#140;&#168;&#236;&#138;&#164; 63536" fill-rule="evenodd" clip-rule="evenodd" d="M1.00001 16.861C1.00001 10.5904 5.33509 7 10.2711 7C12.8046 7 14.8417 8.13772 16.1735 9.45255L13.7186 12.3351C12.7522 11.4753 11.7337 10.8686 10.3495 10.8686C7.84236 10.8686 5.77919 13.043 5.77919 16.7093C5.77919 20.4514 7.55507 22.6258 10.2974 22.6258C11.838 22.6258 13.0918 21.8673 14.0059 20.9065L16.4608 23.7384C14.8154 25.5842 12.6478 26.5197 10.1146 26.5197C5.17862 26.5197 1 23.2327 1 16.861" fill="white"/>
<path id="&#237;&#140;&#168;&#236;&#138;&#164; 63537" fill-rule="evenodd" clip-rule="evenodd" d="M32.0221 21.8403H26.2765L25.1536 26.1628H20.4004L26.4333 7.35547H32.0221L38.055 26.1628H33.1452L32.0221 21.8403ZM31.1336 18.353L30.7158 16.7605C30.1935 14.8898 29.6973 12.64 29.175 10.7188H29.0705C28.6004 12.6905 28.0781 14.8898 27.5819 16.7605L27.1641 18.353H31.1336Z" fill="white"/>
<path id="&#237;&#140;&#168;&#236;&#138;&#164; 63538" fill-rule="evenodd" clip-rule="evenodd" d="M53.8641 26.1628L50.2862 19.5399H48.0402V26.1628H43.3652V7.35547H50.4951C54.6477 7.35547 58.0949 8.72043 58.0949 13.2706C58.0949 16.026 56.7628 17.7955 54.7521 18.7055L59.0872 26.1628H53.8641ZM48.041 15.9757H50.1303C52.3502 15.9757 53.5255 15.0404 53.5255 13.2709C53.5255 11.5014 52.3502 10.9199 50.1303 10.9199H48.041V15.9757Z" fill="white"/>
<path id="&#237;&#140;&#168;&#236;&#138;&#164; 63539" fill-rule="evenodd" clip-rule="evenodd" d="M65.2695 7.35742H77.5965V11.0987H69.9446V14.5871H76.4475V18.3789H69.9446V22.3731H77.8838V26.1648H65.2695L65.2695 7.35742Z" fill="white"/>
<path id="&#237;&#140;&#168;&#236;&#138;&#164; 63540" fill-rule="evenodd" clip-rule="evenodd" d="M85.1348 7.35547H89.888L94.7195 16.3547L96.6262 20.5258H96.7565C96.4957 18.5286 96.1299 15.8238 96.1299 13.574V7.35547H100.57V26.1628H95.8163L91.0109 17.0877L89.1045 12.9672H88.9741C89.183 15.0654 89.5745 17.6439 89.5745 19.919V26.1628H85.1348L85.1348 7.35547Z" fill="white"/>
<path id="&#237;&#140;&#168;&#236;&#138;&#164; 63541" fill-rule="evenodd" clip-rule="evenodd" d="M117.661 21.8403H111.915L110.792 26.1628H106.039L112.072 7.35547H117.661L123.694 26.1628H118.784L117.661 21.8403ZM116.772 18.353L116.354 16.7605C115.832 14.8898 115.336 12.64 114.814 10.7188H114.709C114.239 12.6905 113.717 14.8898 113.22 16.7605L112.803 18.353H116.772Z" fill="white"/>
<path id="&#237;&#140;&#168;&#236;&#138;&#164; 63542" fill-rule="evenodd" clip-rule="evenodd" d="M130.677 11.0967H125.428V7.35547H140.628V11.0967H135.352V26.1628H130.677L130.677 11.0967Z" fill="white"/>
<path id="&#236;&#130;&#172;&#234;&#176;&#129;&#237;&#152;&#149; 13514" fill-rule="evenodd" clip-rule="evenodd" d="M147.092 7.35547H151.767V26.1628H147.092V7.35547Z" fill="white"/>
<path id="&#237;&#140;&#168;&#236;&#138;&#164; 63543" fill-rule="evenodd" clip-rule="evenodd" d="M158.602 16.6586C158.602 10.4892 162.206 7 167.507 7C172.809 7 176.413 10.5145 176.413 16.6586C176.413 22.8281 172.809 26.5197 167.507 26.5197C162.206 26.5197 158.602 22.8281 158.602 16.6586ZM171.66 16.6572C171.66 13.0163 170.067 10.8672 167.507 10.8672C164.948 10.8672 163.381 13.0163 163.381 16.6572C163.381 20.3235 164.948 22.6244 167.507 22.6244C170.067 22.6244 171.66 20.3235 171.66 16.6572Z" fill="white"/>
<path id="&#237;&#140;&#168;&#236;&#138;&#164; 63544" fill-rule="evenodd" clip-rule="evenodd" d="M183.564 7.35547H188.318L193.149 16.3547L195.056 20.5258H195.186C194.925 18.5286 194.56 15.8238 194.56 13.574V7.35547H198.999V26.1628H194.246L189.441 17.0877L187.534 12.9672H187.404C187.613 15.0654 188.005 17.6439 188.005 19.919V26.1628H183.564L183.564 7.35547Z" fill="white"/>
</g>
</g>
</svg>
