<svg xmlns="http://www.w3.org/2000/svg" xmlns:xlink="http://www.w3.org/1999/xlink" width="292" height="292" viewBox="0 0 292 292">
  <defs>
    <clipPath id="clip-path">
      <rect id="사각형_14529" data-name="사각형 14529" width="292" height="292" transform="translate(1276 3110)" fill="#ffe1e1"/>
    </clipPath>
  </defs>
  <g id="man_04_s" transform="translate(-1276 -3110)" clip-path="url(#clip-path)">
    <g id="그룹_24998" data-name="그룹 24998" transform="translate(1330.074 3164.071)">
      <path id="사각형_4105" data-name="사각형 4105" d="M50,0h85.993a50,50,0,0,1,50,50V90.658a0,0,0,0,1,0,0H0a0,0,0,0,1,0,0V50A50,50,0,0,1,50,0Z" transform="translate(0 152.033)" fill="#00b39b" stroke="#333" stroke-linecap="round" stroke-linejoin="round" stroke-width="3"/>
      <path id="패스_29882" data-name="패스 29882" d="M143.536,207.133l-15.9,14.222-15.912-14.222V186.2h31.813Z" transform="translate(-34.633 -54.854)" fill="#ffcdbb" stroke="#333" stroke-miterlimit="10" stroke-width="3"/>
      <rect id="사각형_4106" data-name="사각형 4106" width="87.356" height="112.595" rx="43.678" transform="translate(49.318 24.116)" fill="#ffcdbb" stroke="#333" stroke-miterlimit="10" stroke-width="3"/>
      <path id="패스_29883" data-name="패스 29883" d="M200.811,174.149l.067-2.654a44.539,44.539,0,0,0-44.539-44.539h-16.7A44.54,44.54,0,0,0,95.1,171.5v38.2a8.079,8.079,0,0,0,8.08,8.08h1.128V186.222a13.172,13.172,0,0,0,4.007-9.468v13.214a13.216,13.216,0,0,0,13.214-13.214v13.214a13.214,13.214,0,0,0,13.212-13.214v13.214a13.214,13.214,0,0,0,13.214-13.214v13.214a13.216,13.216,0,0,0,13.214-13.214v13.214a13.216,13.216,0,0,0,13.214-13.214v13.214A13.214,13.214,0,0,0,187.6,176.754v13.214a13.2,13.2,0,0,0,4.067-.645v28.451h1.128a8.08,8.08,0,0,0,8.08-8.08V175.119h-.06Z" transform="translate(-54.989 -126.956)" fill="#8c8c8c" stroke="#333" stroke-linecap="round" stroke-linejoin="round" stroke-width="3"/>
      <line id="선_826" data-name="선 826" y1="35.174" transform="translate(153.022 203.516)" fill="#00b39b" stroke="#333" stroke-linecap="round" stroke-linejoin="round" stroke-width="3"/>
      <line id="선_827" data-name="선 827" y1="35.174" transform="translate(32.982 203.516)" fill="#00b39b" stroke="#333" stroke-linecap="round" stroke-linejoin="round" stroke-width="3"/>
      <ellipse id="타원_1183" data-name="타원 1183" cx="9.753" cy="4.905" rx="9.753" ry="4.905" transform="translate(57.607 86.146)" fill="#f2a59e"/>
      <ellipse id="타원_1184" data-name="타원 1184" cx="9.753" cy="4.905" rx="9.753" ry="4.905" transform="translate(108.881 86.146)" fill="#f2a59e"/>
      <rect id="사각형_4107" data-name="사각형 4107" width="11.48" height="3.511" transform="translate(73.839 68.419)" fill="#333"/>
      <rect id="사각형_4108" data-name="사각형 4108" width="11.48" height="3.511" transform="translate(112.154 71.93) rotate(-180)" fill="#333"/>
      <path id="패스_29884" data-name="패스 29884" d="M121.891,192.6l-18.47,6.7,18.924,30.565L137.8,213.518Z" transform="translate(-44.801 -47.07)" fill="#fff" stroke="#333" stroke-linecap="round" stroke-linejoin="round" stroke-width="3"/>
      <path id="패스_29885" data-name="패스 29885" d="M134.788,192.6l18.47,6.7-18.924,30.565-15.458-16.343Z" transform="translate(-25.874 -47.07)" fill="#fff" stroke="#333" stroke-linecap="round" stroke-linejoin="round" stroke-width="3"/>
      <path id="패스_29886" data-name="패스 29886" d="M163.917,141.541a43.42,43.42,0,0,1,8.331,25.586v25.241a43.679,43.679,0,0,1-43.678,43.678h0a43.435,43.435,0,0,1-25.585-8.331,43.643,43.643,0,0,0,79.026-25.585V176.888A43.574,43.574,0,0,0,163.917,141.541Z" transform="translate(-45.336 -109.095)" fill="#ffbfae" style="mix-blend-mode: darken;isolation: isolate"/>
      <path id="사각형_4109" data-name="사각형 4109" d="M6,0h6.44a0,0,0,0,1,0,0V25.592a0,0,0,0,1,0,0H6a6,6,0,0,1-6-6V6A6,6,0,0,1,6,0Z" transform="translate(36.879 69.848)" fill="#ffcdbb" stroke="#333" stroke-miterlimit="10" stroke-width="3"/>
      <path id="사각형_4110" data-name="사각형 4110" d="M6,0h6.44a0,0,0,0,1,0,0V25.592a0,0,0,0,1,0,0H6a6,6,0,0,1-6-6V6A6,6,0,0,1,6,0Z" transform="translate(149.114 95.441) rotate(-180)" fill="#ffcdbb" stroke="#333" stroke-miterlimit="10" stroke-width="3"/>
      <path id="패스_29887" data-name="패스 29887" d="M137.991,172.732h0a5.931,5.931,0,0,1-5.931,5.931h-12.8a5.93,5.93,0,0,1-5.929-5.931h0" transform="translate(-32.664 -71.2)" fill="#ffcdbb" stroke="#333" stroke-linecap="round" stroke-linejoin="round" stroke-width="3"/>
      <circle id="타원_1185" data-name="타원 1185" cx="8.621" cy="8.621" r="8.621" transform="translate(71.614 74.019)" fill="#fff" stroke="#333" stroke-linecap="round" stroke-linejoin="round" stroke-width="3"/>
      <circle id="타원_1186" data-name="타원 1186" cx="8.621" cy="8.621" r="8.621" transform="translate(97.124 74.019)" fill="#fff" stroke="#333" stroke-linecap="round" stroke-linejoin="round" stroke-width="3"/>
      <line id="선_828" data-name="선 828" x2="8.267" transform="translate(88.856 82.632)" fill="none" stroke="#333" stroke-linecap="round" stroke-linejoin="round" stroke-width="3"/>
      <ellipse id="타원_1187" data-name="타원 1187" cx="5.187" cy="3.497" rx="5.187" ry="3.497" transform="translate(87.809 88.956)" fill="#e89c8e" style="mix-blend-mode: darken;isolation: isolate"/>
      <path id="패스_29888" data-name="패스 29888" d="M127.635,340.424l-2.955-2.375a16.175,16.175,0,0,1,2.543-3.317,24.328,24.328,0,0,1,4.592-3.888c.674-.524,2.653-1.706,3.217-2.9a3.165,3.165,0,0,0-.276-3.128,3.436,3.436,0,0,0-3.282-1.034c-1.546.36-2.485,1.689-3.366,4.169a12,12,0,0,1-2.187,4.159,7.535,7.535,0,0,1-3.4,2.164,6.991,6.991,0,0,1-3.472.14,6.755,6.755,0,0,1-3.069-1.551,7.715,7.715,0,0,1-2.475-5.477,6.9,6.9,0,0,1,2.269-5.2,7.015,7.015,0,0,1,3.5-1.876,6.471,6.471,0,0,1,3.144.185,8.161,8.161,0,0,1,2.934,1.626l-2.372,2.581.009.009a4.753,4.753,0,0,0-1.68-.889,3.069,3.069,0,0,0-3.128.912,3.43,3.43,0,0,0-1.172,2.6,4.214,4.214,0,0,0,1.305,2.91,3.38,3.38,0,0,0,3.205.669c.877-.262,2.244-1.182,3.2-3.874a12.261,12.261,0,0,1,2.354-4.534,7.12,7.12,0,0,1,3.6-2.141,6.934,6.934,0,0,1,6.712,2.131,6.1,6.1,0,0,1,1.589,4.52,6.6,6.6,0,0,1-2.379,4.447c-1.333,1.219-3.116,2.241-5.051,4.141a19.928,19.928,0,0,0-3.909,4.819" transform="translate(1.625 -129.778)" fill="#fff"/>
    </g>
  </g>
</svg>
